{
  "header": {
    "PPQ": 384,
    "timeSignature": [
      4,
      4
    ],
    "bpm": 110.00011000011,
    "name": ""
  },
  "tempo": [
    {
      "absoluteTime": 0,
      "seconds": 0,
      "bpm": 110.00011000011
    }
  ],
  "timeSignature": [
    {
      "absoluteTime": 0,
      "seconds": 0,
      "numerator": 4,
      "denominator": 2,
      "click": 24,
      "notesQ": 8
    }
  ],
  "startTime": 0,
  "duration": 39.27268800000006,
  "tracks": [
    {
      "startTime": 0,
      "duration": 0,
      "length": 0,
      "notes": [],
      "controlChanges": {},
      "id": 0
    },
    {
      "startTime": 0,
      "duration": 39.27268799999999,
      "length": 18,
      "notes": [
        {
          "name": "E2",
          "midi": 40,
          "time": 0,
          "velocity": 0.3937007874015748,
          "duration": 1.636362
        },
        {
          "name": "G#2",
          "midi": 44,
          "time": 1.636362,
          "velocity": 0.3937007874015748,
          "duration": 1.636362
        },
        {
          "name": "A2",
          "midi": 45,
          "time": 3.272724,
          "velocity": 0.3937007874015748,
          "duration": 3.272724
        },
        {
          "name": "E2",
          "midi": 40,
          "time": 6.545448,
          "velocity": 0.3937007874015748,
          "duration": 1.636362
        },
        {
          "name": "G#2",
          "midi": 44,
          "time": 8.18181,
          "velocity": 0.3937007874015748,
          "duration": 1.636362
        },
        {
          "name": "A2",
          "midi": 45,
          "time": 9.818172,
          "velocity": 0.3937007874015748,
          "duration": 3.272724
        },
        {
          "name": "E2",
          "midi": 40,
          "time": 13.090896,
          "velocity": 0.3937007874015748,
          "duration": 1.636362
        },
        {
          "name": "G#2",
          "midi": 44,
          "time": 14.727258,
          "velocity": 0.3937007874015748,
          "duration": 1.636362
        },
        {
          "name": "A2",
          "midi": 45,
          "time": 16.36362,
          "velocity": 0.3937007874015748,
          "duration": 3.272724
        },
        {
          "name": "E2",
          "midi": 40,
          "time": 19.636344,
          "velocity": 0.3937007874015748,
          "duration": 1.6363619999999983
        },
        {
          "name": "G#2",
          "midi": 44,
          "time": 21.272706,
          "velocity": 0.3937007874015748,
          "duration": 1.6363619999999983
        },
        {
          "name": "A2",
          "midi": 45,
          "time": 22.909067999999998,
          "velocity": 0.3937007874015748,
          "duration": 3.272724
        },
        {
          "name": "E2",
          "midi": 40,
          "time": 26.181791999999998,
          "velocity": 0.3937007874015748,
          "duration": 1.6363620000000019
        },
        {
          "name": "G#2",
          "midi": 44,
          "time": 27.818154,
          "velocity": 0.3937007874015748,
          "duration": 1.6363619999999983
        },
        {
          "name": "A2",
          "midi": 45,
          "time": 29.454515999999998,
          "velocity": 0.3937007874015748,
          "duration": 3.2727239999999966
        },
        {
          "name": "E2",
          "midi": 40,
          "time": 32.727239999999995,
          "velocity": 0.3937007874015748,
          "duration": 1.6363619999999983
        },
        {
          "name": "G#2",
          "midi": 44,
          "time": 34.36360199999999,
          "velocity": 0.3937007874015748,
          "duration": 1.6363619999999983
        },
        {
          "name": "A2",
          "midi": 45,
          "time": 35.99996399999999,
          "velocity": 0.3937007874015748,
          "duration": 3.2727239999999966
        }
      ],
      "controlChanges": {},
      "id": 1,
      "name": "8-Bit Triangle",
      "instrumentNumber": 87,
      "instrument": "lead 8 (bass + lead)",
      "instrumentFamily": "synth lead",
      "channelNumber": 1,
      "isPercussion": false
    },
    {
      "startTime": 0,
      "duration": 39.27268800000006,
      "length": 115,
      "notes": [
        {
          "name": "G#4",
          "midi": 68,
          "time": 0,
          "velocity": 1,
          "duration": 0.1363635
        },
        {
          "name": "G#4",
          "midi": 68,
          "time": 0.272727,
          "velocity": 1,
          "duration": 0.13636350000000003
        },
        {
          "name": "G#4",
          "midi": 68,
          "time": 0.4090905,
          "velocity": 1,
          "duration": 0.13636349999999997
        },
        {
          "name": "E4",
          "midi": 64,
          "time": 0.6818175,
          "velocity": 1,
          "duration": 0.13636349999999997
        },
        {
          "name": "G#4",
          "midi": 68,
          "time": 0.8181809999999999,
          "velocity": 1,
          "duration": 0.27272700000000005
        },
        {
          "name": "A4",
          "midi": 69,
          "time": 1.090908,
          "velocity": 1,
          "duration": 0.4090905
        },
        {
          "name": "B4",
          "midi": 71,
          "time": 1.4999985,
          "velocity": 1,
          "duration": 0.4090905
        },
        {
          "name": "E4",
          "midi": 64,
          "time": 1.909089,
          "velocity": 1,
          "duration": 0.13636350000000008
        },
        {
          "name": "C#5",
          "midi": 73,
          "time": 2.0454525,
          "velocity": 1,
          "duration": 0.27272700000000016
        },
        {
          "name": "B4",
          "midi": 71,
          "time": 2.3181795000000003,
          "velocity": 0.9921259842519685,
          "duration": 0.4090905
        },
        {
          "name": "A4",
          "midi": 69,
          "time": 2.7272700000000003,
          "velocity": 1,
          "duration": 0.4090905
        },
        {
          "name": "G#4",
          "midi": 68,
          "time": 3.1363605000000003,
          "velocity": 1,
          "duration": 0.4090905
        },
        {
          "name": "E4",
          "midi": 64,
          "time": 3.5454510000000004,
          "velocity": 1,
          "duration": 0.13636349999999986
        },
        {
          "name": "B4",
          "midi": 71,
          "time": 3.6818145,
          "velocity": 1,
          "duration": 0.27272700000000016
        },
        {
          "name": "A4",
          "midi": 69,
          "time": 3.9545415000000004,
          "velocity": 1,
          "duration": 0.40909050000000047
        },
        {
          "name": "G#4",
          "midi": 68,
          "time": 4.363632000000001,
          "velocity": 1,
          "duration": 0.4090904999999996
        },
        {
          "name": "F#4",
          "midi": 66,
          "time": 4.7727225,
          "velocity": 1,
          "duration": 0.4090904999999996
        },
        {
          "name": "G#4",
          "midi": 68,
          "time": 5.181813,
          "velocity": 1,
          "duration": 0.13636349999999986
        },
        {
          "name": "E4",
          "midi": 64,
          "time": 5.3181765,
          "velocity": 1,
          "duration": 1.0909079999999998
        },
        {
          "name": "B1",
          "midi": 35,
          "time": 6.4090845,
          "velocity": 1,
          "duration": 0.13636349999999986
        },
        {
          "name": "G#4",
          "midi": 68,
          "time": 6.5454479999999995,
          "velocity": 1,
          "duration": 0.13636349999999986
        },
        {
          "name": "G#4",
          "midi": 68,
          "time": 6.818174999999999,
          "velocity": 1,
          "duration": 0.13636349999999986
        },
        {
          "name": "G#4",
          "midi": 68,
          "time": 6.954538499999999,
          "velocity": 1,
          "duration": 0.13636349999999986
        },
        {
          "name": "E4",
          "midi": 64,
          "time": 7.227265499999999,
          "velocity": 1,
          "duration": 0.13636349999999986
        },
        {
          "name": "G#4",
          "midi": 68,
          "time": 7.363628999999999,
          "velocity": 1,
          "duration": 0.2727269999999997
        },
        {
          "name": "A4",
          "midi": 69,
          "time": 7.636355999999998,
          "velocity": 1,
          "duration": 0.40909050000000047
        },
        {
          "name": "B4",
          "midi": 71,
          "time": 8.045446499999999,
          "velocity": 1,
          "duration": 0.4090904999999996
        },
        {
          "name": "E4",
          "midi": 64,
          "time": 8.454536999999998,
          "velocity": 1,
          "duration": 0.13636349999999986
        },
        {
          "name": "C#5",
          "midi": 73,
          "time": 8.590900499999998,
          "velocity": 1,
          "duration": 0.2727269999999997
        },
        {
          "name": "B4",
          "midi": 71,
          "time": 8.863627499999998,
          "velocity": 1,
          "duration": 0.4090904999999996
        },
        {
          "name": "A4",
          "midi": 69,
          "time": 9.272717999999998,
          "velocity": 1,
          "duration": 0.4090904999999996
        },
        {
          "name": "G#4",
          "midi": 68,
          "time": 9.681808499999997,
          "velocity": 1,
          "duration": 0.4090904999999996
        },
        {
          "name": "E4",
          "midi": 64,
          "time": 10.090898999999997,
          "velocity": 1,
          "duration": 0.13636349999999986
        },
        {
          "name": "B4",
          "midi": 71,
          "time": 10.227262499999997,
          "velocity": 1,
          "duration": 0.2727269999999997
        },
        {
          "name": "A4",
          "midi": 69,
          "time": 10.499989499999996,
          "velocity": 1,
          "duration": 0.4090904999999996
        },
        {
          "name": "G#4",
          "midi": 68,
          "time": 10.909079999999996,
          "velocity": 1,
          "duration": 0.4090904999999996
        },
        {
          "name": "F#4",
          "midi": 66,
          "time": 11.318170499999995,
          "velocity": 1,
          "duration": 0.4090904999999996
        },
        {
          "name": "G#4",
          "midi": 68,
          "time": 11.727260999999995,
          "velocity": 1,
          "duration": 0.13636349999999986
        },
        {
          "name": "E4",
          "midi": 64,
          "time": 11.863624499999995,
          "velocity": 1,
          "duration": 1.2272715000000005
        },
        {
          "name": "G#4",
          "midi": 68,
          "time": 13.090895999999995,
          "velocity": 1,
          "duration": 0.13636349999999986
        },
        {
          "name": "G#4",
          "midi": 68,
          "time": 13.363622999999995,
          "velocity": 1,
          "duration": 0.13636349999999986
        },
        {
          "name": "G#4",
          "midi": 68,
          "time": 13.499986499999995,
          "velocity": 1,
          "duration": 0.13636349999999986
        },
        {
          "name": "E4",
          "midi": 64,
          "time": 13.772713499999995,
          "velocity": 1,
          "duration": 0.13636349999999986
        },
        {
          "name": "G#4",
          "midi": 68,
          "time": 13.909076999999995,
          "velocity": 1,
          "duration": 0.2727269999999997
        },
        {
          "name": "A4",
          "midi": 69,
          "time": 14.181803999999994,
          "velocity": 1,
          "duration": 0.4090904999999996
        },
        {
          "name": "B4",
          "midi": 71,
          "time": 14.590894499999994,
          "velocity": 1,
          "duration": 0.4090904999999996
        },
        {
          "name": "E4",
          "midi": 64,
          "time": 14.999984999999993,
          "velocity": 1,
          "duration": 0.13636349999999986
        },
        {
          "name": "C#5",
          "midi": 73,
          "time": 15.136348499999993,
          "velocity": 1,
          "duration": 0.2727269999999997
        },
        {
          "name": "B4",
          "midi": 71,
          "time": 15.409075499999993,
          "velocity": 0.9921259842519685,
          "duration": 0.4090904999999996
        },
        {
          "name": "A4",
          "midi": 69,
          "time": 15.818165999999993,
          "velocity": 1,
          "duration": 0.4090904999999996
        },
        {
          "name": "G#4",
          "midi": 68,
          "time": 16.227256499999992,
          "velocity": 1,
          "duration": 0.40909050000000136
        },
        {
          "name": "E4",
          "midi": 64,
          "time": 16.636346999999994,
          "velocity": 1,
          "duration": 0.13636350000000164
        },
        {
          "name": "B4",
          "midi": 71,
          "time": 16.772710499999995,
          "velocity": 1,
          "duration": 0.2727269999999997
        },
        {
          "name": "A4",
          "midi": 69,
          "time": 17.045437499999995,
          "velocity": 1,
          "duration": 0.40909050000000136
        },
        {
          "name": "G#4",
          "midi": 68,
          "time": 17.454527999999996,
          "velocity": 1,
          "duration": 0.40909050000000136
        },
        {
          "name": "F#4",
          "midi": 66,
          "time": 17.863618499999998,
          "velocity": 1,
          "duration": 0.40909050000000136
        },
        {
          "name": "G#4",
          "midi": 68,
          "time": 18.272709,
          "velocity": 1,
          "duration": 0.13636350000000164
        },
        {
          "name": "E4",
          "midi": 64,
          "time": 18.4090725,
          "velocity": 1,
          "duration": 1.0909079999999989
        },
        {
          "name": "G#4",
          "midi": 68,
          "time": 19.636344,
          "velocity": 1,
          "duration": 0.13636350000000164
        },
        {
          "name": "G#4",
          "midi": 68,
          "time": 19.909071000000004,
          "velocity": 1,
          "duration": 0.13636350000000164
        },
        {
          "name": "G#4",
          "midi": 68,
          "time": 20.045434500000006,
          "velocity": 1,
          "duration": 0.13636350000000164
        },
        {
          "name": "E4",
          "midi": 64,
          "time": 20.31816150000001,
          "velocity": 1,
          "duration": 0.13636350000000164
        },
        {
          "name": "G#4",
          "midi": 68,
          "time": 20.45452500000001,
          "velocity": 1,
          "duration": 0.2727269999999997
        },
        {
          "name": "A4",
          "midi": 69,
          "time": 20.72725200000001,
          "velocity": 1,
          "duration": 0.40909050000000136
        },
        {
          "name": "B4",
          "midi": 71,
          "time": 21.136342500000012,
          "velocity": 1,
          "duration": 0.40909050000000136
        },
        {
          "name": "E4",
          "midi": 64,
          "time": 21.545433000000013,
          "velocity": 1,
          "duration": 0.13636350000000164
        },
        {
          "name": "C#5",
          "midi": 73,
          "time": 21.681796500000015,
          "velocity": 1,
          "duration": 0.2727269999999997
        },
        {
          "name": "B4",
          "midi": 71,
          "time": 21.954523500000015,
          "velocity": 1,
          "duration": 0.40909050000000136
        },
        {
          "name": "A4",
          "midi": 69,
          "time": 22.363614000000016,
          "velocity": 1,
          "duration": 0.40909050000000136
        },
        {
          "name": "G#4",
          "midi": 68,
          "time": 22.772704500000017,
          "velocity": 1,
          "duration": 0.40909050000000136
        },
        {
          "name": "E4",
          "midi": 64,
          "time": 23.18179500000002,
          "velocity": 1,
          "duration": 0.13636350000000164
        },
        {
          "name": "B4",
          "midi": 71,
          "time": 23.31815850000002,
          "velocity": 1,
          "duration": 0.2727269999999997
        },
        {
          "name": "A4",
          "midi": 69,
          "time": 23.59088550000002,
          "velocity": 1,
          "duration": 0.40909050000000136
        },
        {
          "name": "G#4",
          "midi": 68,
          "time": 23.99997600000002,
          "velocity": 1,
          "duration": 0.40909050000000136
        },
        {
          "name": "F#4",
          "midi": 66,
          "time": 24.409066500000023,
          "velocity": 1,
          "duration": 0.40909050000000136
        },
        {
          "name": "G#4",
          "midi": 68,
          "time": 24.818157000000024,
          "velocity": 1,
          "duration": 0.13636350000000164
        },
        {
          "name": "E4",
          "midi": 64,
          "time": 24.954520500000026,
          "velocity": 1,
          "duration": 1.2272715000000005
        },
        {
          "name": "G#4",
          "midi": 68,
          "time": 26.181792000000026,
          "velocity": 1,
          "duration": 0.13636350000000164
        },
        {
          "name": "G#4",
          "midi": 68,
          "time": 26.45451900000003,
          "velocity": 1,
          "duration": 0.13636350000000164
        },
        {
          "name": "G#4",
          "midi": 68,
          "time": 26.59088250000003,
          "velocity": 1,
          "duration": 0.13636350000000164
        },
        {
          "name": "E4",
          "midi": 64,
          "time": 26.863609500000035,
          "velocity": 1,
          "duration": 0.13636350000000164
        },
        {
          "name": "G#4",
          "midi": 68,
          "time": 26.999973000000036,
          "velocity": 1,
          "duration": 0.2727269999999997
        },
        {
          "name": "A4",
          "midi": 69,
          "time": 27.272700000000036,
          "velocity": 1,
          "duration": 0.40909050000000136
        },
        {
          "name": "B4",
          "midi": 71,
          "time": 27.681790500000037,
          "velocity": 1,
          "duration": 0.40909050000000136
        },
        {
          "name": "E4",
          "midi": 64,
          "time": 28.09088100000004,
          "velocity": 1,
          "duration": 0.13636350000000164
        },
        {
          "name": "C#5",
          "midi": 73,
          "time": 28.22724450000004,
          "velocity": 1,
          "duration": 0.2727269999999997
        },
        {
          "name": "B4",
          "midi": 71,
          "time": 28.49997150000004,
          "velocity": 0.9921259842519685,
          "duration": 0.40909050000000136
        },
        {
          "name": "A4",
          "midi": 69,
          "time": 28.90906200000004,
          "velocity": 1,
          "duration": 0.40909050000000136
        },
        {
          "name": "G#4",
          "midi": 68,
          "time": 29.318152500000043,
          "velocity": 1,
          "duration": 0.40909050000000136
        },
        {
          "name": "E4",
          "midi": 64,
          "time": 29.727243000000044,
          "velocity": 1,
          "duration": 0.13636350000000164
        },
        {
          "name": "B4",
          "midi": 71,
          "time": 29.863606500000046,
          "velocity": 1,
          "duration": 0.2727269999999997
        },
        {
          "name": "A4",
          "midi": 69,
          "time": 30.136333500000045,
          "velocity": 1,
          "duration": 0.40909050000000136
        },
        {
          "name": "G#4",
          "midi": 68,
          "time": 30.545424000000047,
          "velocity": 1,
          "duration": 0.40909050000000136
        },
        {
          "name": "F#4",
          "midi": 66,
          "time": 30.954514500000048,
          "velocity": 1,
          "duration": 0.40909050000000136
        },
        {
          "name": "G#4",
          "midi": 68,
          "time": 31.36360500000005,
          "velocity": 1,
          "duration": 0.13636350000000164
        },
        {
          "name": "E4",
          "midi": 64,
          "time": 31.49996850000005,
          "velocity": 1,
          "duration": 1.0909079999999989
        },
        {
          "name": "G#4",
          "midi": 68,
          "time": 32.72724000000005,
          "velocity": 1,
          "duration": 0.13636350000000164
        },
        {
          "name": "G#4",
          "midi": 68,
          "time": 32.999967000000055,
          "velocity": 1,
          "duration": 0.13636350000000164
        },
        {
          "name": "G#4",
          "midi": 68,
          "time": 33.13633050000006,
          "velocity": 1,
          "duration": 0.13636350000000164
        },
        {
          "name": "E4",
          "midi": 64,
          "time": 33.40905750000006,
          "velocity": 1,
          "duration": 0.13636350000000164
        },
        {
          "name": "G#4",
          "midi": 68,
          "time": 33.54542100000006,
          "velocity": 1,
          "duration": 0.2727270000000033
        },
        {
          "name": "A4",
          "midi": 69,
          "time": 33.818148000000065,
          "velocity": 1,
          "duration": 0.4090904999999978
        },
        {
          "name": "B4",
          "midi": 71,
          "time": 34.22723850000006,
          "velocity": 1,
          "duration": 0.4090904999999978
        },
        {
          "name": "E4",
          "midi": 64,
          "time": 34.63632900000006,
          "velocity": 1,
          "duration": 0.13636350000000164
        },
        {
          "name": "C#5",
          "midi": 73,
          "time": 34.77269250000006,
          "velocity": 1,
          "duration": 0.2727270000000033
        },
        {
          "name": "B4",
          "midi": 71,
          "time": 35.045419500000065,
          "velocity": 1,
          "duration": 0.4090904999999978
        },
        {
          "name": "A4",
          "midi": 69,
          "time": 35.45451000000006,
          "velocity": 1,
          "duration": 0.4090904999999978
        },
        {
          "name": "G#4",
          "midi": 68,
          "time": 35.86360050000006,
          "velocity": 1,
          "duration": 0.4090904999999978
        },
        {
          "name": "E4",
          "midi": 64,
          "time": 36.27269100000006,
          "velocity": 1,
          "duration": 0.13636350000000164
        },
        {
          "name": "B4",
          "midi": 71,
          "time": 36.40905450000006,
          "velocity": 1,
          "duration": 0.2727270000000033
        },
        {
          "name": "A4",
          "midi": 69,
          "time": 36.68178150000006,
          "velocity": 1,
          "duration": 0.4090904999999978
        },
        {
          "name": "G#4",
          "midi": 68,
          "time": 37.09087200000006,
          "velocity": 1,
          "duration": 0.4090904999999978
        },
        {
          "name": "F#4",
          "midi": 66,
          "time": 37.49996250000006,
          "velocity": 1,
          "duration": 0.4090904999999978
        },
        {
          "name": "G#4",
          "midi": 68,
          "time": 37.90905300000006,
          "velocity": 1,
          "duration": 0.13636350000000164
        },
        {
          "name": "E4",
          "midi": 64,
          "time": 38.04541650000006,
          "velocity": 1,
          "duration": 1.2272715000000005
        }
      ],
      "controlChanges": {
        "7": [
          {
            "number": 7,
            "time": 0,
            "value": 1
          }
        ]
      },
      "id": 2,
      "name": "8-Bit Square",
      "instrumentNumber": 80,
      "instrument": "lead 1 (square)",
      "instrumentFamily": "synth lead",
      "channelNumber": 2,
      "isPercussion": false
    },
    {
      "startTime": 0,
      "duration": 39.272688,
      "length": 72,
      "notes": [
        {
          "name": "E2",
          "midi": 40,
          "time": 0,
          "velocity": 0.5590551181102362,
          "duration": 0.6818175
        },
        {
          "name": "E3",
          "midi": 52,
          "time": 0.6818175,
          "velocity": 0.5590551181102362,
          "duration": 0.5454540000000001
        },
        {
          "name": "B2",
          "midi": 47,
          "time": 1.2272715,
          "velocity": 0.5590551181102362,
          "duration": 0.4090905
        },
        {
          "name": "G#2",
          "midi": 44,
          "time": 1.636362,
          "velocity": 0.5590551181102362,
          "duration": 0.6818175000000002
        },
        {
          "name": "E3",
          "midi": 52,
          "time": 2.3181795000000003,
          "velocity": 0.5590551181102362,
          "duration": 0.5454539999999999
        },
        {
          "name": "C#3",
          "midi": 49,
          "time": 2.8636335,
          "velocity": 0.5590551181102362,
          "duration": 0.4090905
        },
        {
          "name": "A2",
          "midi": 45,
          "time": 3.272724,
          "velocity": 0.5590551181102362,
          "duration": 0.6818175000000002
        },
        {
          "name": "E3",
          "midi": 52,
          "time": 3.9545415000000004,
          "velocity": 0.5590551181102362,
          "duration": 0.5454540000000003
        },
        {
          "name": "C#3",
          "midi": 49,
          "time": 4.499995500000001,
          "velocity": 0.5590551181102362,
          "duration": 0.4090904999999996
        },
        {
          "name": "A2",
          "midi": 45,
          "time": 4.909086,
          "velocity": 0.5590551181102362,
          "duration": 0.6818175000000002
        },
        {
          "name": "E3",
          "midi": 52,
          "time": 5.5909035000000005,
          "velocity": 0.5590551181102362,
          "duration": 0.5454540000000003
        },
        {
          "name": "C#3",
          "midi": 49,
          "time": 6.136357500000001,
          "velocity": 0.5590551181102362,
          "duration": 0.4090904999999996
        },
        {
          "name": "E2",
          "midi": 40,
          "time": 6.545448,
          "velocity": 0.5669291338582677,
          "duration": 0.6818175000000002
        },
        {
          "name": "E3",
          "midi": 52,
          "time": 7.227265500000001,
          "velocity": 0.5669291338582677,
          "duration": 0.5454540000000003
        },
        {
          "name": "B2",
          "midi": 47,
          "time": 7.772719500000001,
          "velocity": 0.5748031496062992,
          "duration": 0.4090904999999996
        },
        {
          "name": "G#2",
          "midi": 44,
          "time": 8.18181,
          "velocity": 0.5748031496062992,
          "duration": 0.6818174999999993
        },
        {
          "name": "E3",
          "midi": 52,
          "time": 8.8636275,
          "velocity": 0.5826771653543307,
          "duration": 0.5454539999999994
        },
        {
          "name": "C#3",
          "midi": 49,
          "time": 9.4090815,
          "velocity": 0.5984251968503937,
          "duration": 0.4090904999999996
        },
        {
          "name": "A2",
          "midi": 45,
          "time": 9.818171999999999,
          "velocity": 0.5984251968503937,
          "duration": 0.6818174999999993
        },
        {
          "name": "E3",
          "midi": 52,
          "time": 10.499989499999998,
          "velocity": 0.6062992125984252,
          "duration": 0.5454539999999994
        },
        {
          "name": "C#3",
          "midi": 49,
          "time": 11.045443499999998,
          "velocity": 0.6141732283464567,
          "duration": 0.4090904999999996
        },
        {
          "name": "A2",
          "midi": 45,
          "time": 11.454533999999997,
          "velocity": 0.6220472440944882,
          "duration": 0.6818174999999993
        },
        {
          "name": "E3",
          "midi": 52,
          "time": 12.136351499999996,
          "velocity": 0.6299212598425197,
          "duration": 0.5454539999999994
        },
        {
          "name": "C#3",
          "midi": 49,
          "time": 12.681805499999996,
          "velocity": 0.6299212598425197,
          "duration": 0.4090904999999996
        },
        {
          "name": "E2",
          "midi": 40,
          "time": 13.090895999999995,
          "velocity": 0.6377952755905512,
          "duration": 0.6818174999999993
        },
        {
          "name": "E3",
          "midi": 52,
          "time": 13.772713499999995,
          "velocity": 0.6377952755905512,
          "duration": 0.5454539999999994
        },
        {
          "name": "B2",
          "midi": 47,
          "time": 14.318167499999994,
          "velocity": 0.6377952755905512,
          "duration": 0.4090904999999996
        },
        {
          "name": "G#2",
          "midi": 44,
          "time": 14.727257999999994,
          "velocity": 0.6377952755905512,
          "duration": 0.6818174999999993
        },
        {
          "name": "E3",
          "midi": 52,
          "time": 15.409075499999993,
          "velocity": 0.6377952755905512,
          "duration": 0.5454539999999994
        },
        {
          "name": "C#3",
          "midi": 49,
          "time": 15.954529499999992,
          "velocity": 0.6220472440944882,
          "duration": 0.40909050000000136
        },
        {
          "name": "A2",
          "midi": 45,
          "time": 16.363619999999994,
          "velocity": 0.6141732283464567,
          "duration": 0.6818175000000011
        },
        {
          "name": "E3",
          "midi": 52,
          "time": 17.045437499999995,
          "velocity": 0.5826771653543307,
          "duration": 0.5454539999999994
        },
        {
          "name": "C#3",
          "midi": 49,
          "time": 17.590891499999994,
          "velocity": 0.5669291338582677,
          "duration": 0.40909050000000136
        },
        {
          "name": "A2",
          "midi": 45,
          "time": 17.999981999999996,
          "velocity": 0.5590551181102362,
          "duration": 0.6818175000000011
        },
        {
          "name": "E3",
          "midi": 52,
          "time": 18.681799499999997,
          "velocity": 0.5511811023622047,
          "duration": 0.5454539999999994
        },
        {
          "name": "C#3",
          "midi": 49,
          "time": 19.227253499999996,
          "velocity": 0.5511811023622047,
          "duration": 0.40909050000000136
        },
        {
          "name": "E2",
          "midi": 40,
          "time": 19.636343999999998,
          "velocity": 0.5433070866141733,
          "duration": 0.6818175000000011
        },
        {
          "name": "E3",
          "midi": 52,
          "time": 20.3181615,
          "velocity": 0.5354330708661418,
          "duration": 0.5454539999999994
        },
        {
          "name": "B2",
          "midi": 47,
          "time": 20.863615499999998,
          "velocity": 0.5354330708661418,
          "duration": 0.40909050000000136
        },
        {
          "name": "G#2",
          "midi": 44,
          "time": 21.272706,
          "velocity": 0.5275590551181102,
          "duration": 0.6818175000000011
        },
        {
          "name": "E3",
          "midi": 52,
          "time": 21.9545235,
          "velocity": 0.5275590551181102,
          "duration": 0.5454539999999994
        },
        {
          "name": "C#3",
          "midi": 49,
          "time": 22.4999775,
          "velocity": 0.5196850393700787,
          "duration": 0.40909050000000136
        },
        {
          "name": "A2",
          "midi": 45,
          "time": 22.909068,
          "velocity": 0.5196850393700787,
          "duration": 0.6818175000000011
        },
        {
          "name": "E3",
          "midi": 52,
          "time": 23.590885500000002,
          "velocity": 0.5196850393700787,
          "duration": 0.5454539999999994
        },
        {
          "name": "C#3",
          "midi": 49,
          "time": 24.136339500000002,
          "velocity": 0.5196850393700787,
          "duration": 0.40909050000000136
        },
        {
          "name": "A2",
          "midi": 45,
          "time": 24.545430000000003,
          "velocity": 0.5196850393700787,
          "duration": 0.6818175000000011
        },
        {
          "name": "E3",
          "midi": 52,
          "time": 25.227247500000004,
          "velocity": 0.5196850393700787,
          "duration": 0.5454539999999994
        },
        {
          "name": "C#3",
          "midi": 49,
          "time": 25.772701500000004,
          "velocity": 0.5196850393700787,
          "duration": 0.40909050000000136
        },
        {
          "name": "E2",
          "midi": 40,
          "time": 26.181792000000005,
          "velocity": 0.5196850393700787,
          "duration": 0.6818175000000011
        },
        {
          "name": "E3",
          "midi": 52,
          "time": 26.863609500000006,
          "velocity": 0.5275590551181102,
          "duration": 0.5454539999999994
        },
        {
          "name": "B2",
          "midi": 47,
          "time": 27.409063500000006,
          "velocity": 0.5354330708661418,
          "duration": 0.40909050000000136
        },
        {
          "name": "G#2",
          "midi": 44,
          "time": 27.818154000000007,
          "velocity": 0.5433070866141733,
          "duration": 0.6818175000000011
        },
        {
          "name": "E3",
          "midi": 52,
          "time": 28.499971500000008,
          "velocity": 0.5433070866141733,
          "duration": 0.5454539999999994
        },
        {
          "name": "C#3",
          "midi": 49,
          "time": 29.045425500000007,
          "velocity": 0.5590551181102362,
          "duration": 0.40909050000000136
        },
        {
          "name": "A2",
          "midi": 45,
          "time": 29.45451600000001,
          "velocity": 0.5669291338582677,
          "duration": 0.6818175000000011
        },
        {
          "name": "E3",
          "midi": 52,
          "time": 30.13633350000001,
          "velocity": 0.5748031496062992,
          "duration": 0.5454539999999994
        },
        {
          "name": "C#3",
          "midi": 49,
          "time": 30.68178750000001,
          "velocity": 0.5748031496062992,
          "duration": 0.40909050000000136
        },
        {
          "name": "A2",
          "midi": 45,
          "time": 31.09087800000001,
          "velocity": 0.5748031496062992,
          "duration": 0.6818175000000011
        },
        {
          "name": "E3",
          "midi": 52,
          "time": 31.77269550000001,
          "velocity": 0.5748031496062992,
          "duration": 0.5454539999999994
        },
        {
          "name": "C#3",
          "midi": 49,
          "time": 32.31814950000001,
          "velocity": 0.5748031496062992,
          "duration": 0.4090904999999978
        },
        {
          "name": "E2",
          "midi": 40,
          "time": 32.72724000000001,
          "velocity": 0.5748031496062992,
          "duration": 0.6818175000000011
        },
        {
          "name": "E3",
          "midi": 52,
          "time": 33.40905750000001,
          "velocity": 0.5748031496062992,
          "duration": 0.5454539999999994
        },
        {
          "name": "B2",
          "midi": 47,
          "time": 33.95451150000001,
          "velocity": 0.5748031496062992,
          "duration": 0.4090904999999978
        },
        {
          "name": "G#2",
          "midi": 44,
          "time": 34.36360200000001,
          "velocity": 0.5748031496062992,
          "duration": 0.6818175000000011
        },
        {
          "name": "E3",
          "midi": 52,
          "time": 35.04541950000001,
          "velocity": 0.5748031496062992,
          "duration": 0.5454539999999994
        },
        {
          "name": "C#3",
          "midi": 49,
          "time": 35.59087350000001,
          "velocity": 0.5826771653543307,
          "duration": 0.4090904999999978
        },
        {
          "name": "A2",
          "midi": 45,
          "time": 35.999964000000006,
          "velocity": 0.5905511811023622,
          "duration": 0.6818175000000011
        },
        {
          "name": "E3",
          "midi": 52,
          "time": 36.68178150000001,
          "velocity": 0.5984251968503937,
          "duration": 0.5454539999999994
        },
        {
          "name": "C#3",
          "midi": 49,
          "time": 37.227235500000006,
          "velocity": 0.6062992125984252,
          "duration": 0.4090904999999978
        },
        {
          "name": "A2",
          "midi": 45,
          "time": 37.636326000000004,
          "velocity": 0.6062992125984252,
          "duration": 0.6818175000000011
        },
        {
          "name": "E3",
          "midi": 52,
          "time": 38.318143500000005,
          "velocity": 0.6141732283464567,
          "duration": 0.5454539999999994
        },
        {
          "name": "C#3",
          "midi": 49,
          "time": 38.863597500000004,
          "velocity": 0.6141732283464567,
          "duration": 0.4090904999999978
        }
      ],
      "controlChanges": {},
      "id": 3,
      "name": "8-Bit Sawtooth",
      "instrumentNumber": 81,
      "instrument": "lead 2 (sawtooth)",
      "instrumentFamily": "synth lead",
      "channelNumber": 3,
      "isPercussion": false
    }
  ]
}