{
  "header": {
    "PPQ": 384,
    "timeSignature": [
      4,
      4
    ],
    "bpm": 140.00014000014,
    "name": ""
  },
  "tempo": [
    {
      "absoluteTime": 0,
      "seconds": 0,
      "bpm": 140.00014000014
    }
  ],
  "timeSignature": [
    {
      "absoluteTime": 0,
      "seconds": 0,
      "numerator": 4,
      "denominator": 2,
      "click": 24,
      "notesQ": 8
    }
  ],
  
  "startTime": 0,
  "duration": 219.3212092500023,
  "tracks": [
    {
      "startTime": 0,
      "duration": 219.3212092500023,
      "length": 347,
      "notes": [
        {
          "name": "C5",
          "midi": 72,
          "time": 0,
          "velocity": 0.7874015748031497,
          "duration": 0.10714275000000001
        },
        {
          "name": "G4",
          "midi": 67,
          "time": 0.6428564999999999,
          "velocity": 0.7874015748031497,
          "duration": 0.10714274999999995
        },
        {
          "name": "G#4",
          "midi": 68,
          "time": 1.2857129999999999,
          "velocity": 0.7874015748031497,
          "duration": 0.10714274999999995
        },
        {
          "name": "C5",
          "midi": 72,
          "time": 2.142855,
          "velocity": 0.7874015748031497,
          "duration": 0.10714274999999995
        },
        {
          "name": "G4",
          "midi": 67,
          "time": 2.7857114999999997,
          "velocity": 0.7874015748031497,
          "duration": 0.10714274999999995
        },
        {
          "name": "C5",
          "midi": 72,
          "time": 3.4285679999999994,
          "velocity": 0.7874015748031497,
          "duration": 0.10714274999999995
        },
        {
          "name": "G4",
          "midi": 67,
          "time": 4.071424499999999,
          "velocity": 0.7874015748031497,
          "duration": 0.1071427500000004
        },
        {
          "name": "G#4",
          "midi": 68,
          "time": 4.714281,
          "velocity": 0.7874015748031497,
          "duration": 0.1071427500000004
        },
        {
          "name": "C5",
          "midi": 72,
          "time": 5.571423,
          "velocity": 0.7874015748031497,
          "duration": 0.1071427500000004
        },
        {
          "name": "G4",
          "midi": 67,
          "time": 6.214279500000001,
          "velocity": 0.7874015748031497,
          "duration": 0.1071427500000004
        },
        {
          "name": "C5",
          "midi": 72,
          "time": 6.8571360000000015,
          "velocity": 0.7874015748031497,
          "duration": 0.1071427500000004
        },
        {
          "name": "G4",
          "midi": 67,
          "time": 7.499992500000002,
          "velocity": 0.7874015748031497,
          "duration": 0.1071427500000004
        },
        {
          "name": "G#4",
          "midi": 68,
          "time": 8.142849000000002,
          "velocity": 0.7874015748031497,
          "duration": 0.10714274999999951
        },
        {
          "name": "C5",
          "midi": 72,
          "time": 8.999991000000001,
          "velocity": 0.7874015748031497,
          "duration": 0.10714274999999951
        },
        {
          "name": "G4",
          "midi": 67,
          "time": 9.6428475,
          "velocity": 0.7874015748031497,
          "duration": 0.10714274999999951
        },
        {
          "name": "C5",
          "midi": 72,
          "time": 10.285703999999999,
          "velocity": 0.7874015748031497,
          "duration": 0.10714274999999951
        },
        {
          "name": "G4",
          "midi": 67,
          "time": 10.928560499999998,
          "velocity": 0.7874015748031497,
          "duration": 0.10714274999999951
        },
        {
          "name": "G#4",
          "midi": 68,
          "time": 11.571416999999997,
          "velocity": 0.7874015748031497,
          "duration": 0.10714274999999951
        },
        {
          "name": "C5",
          "midi": 72,
          "time": 12.428558999999996,
          "velocity": 0.7874015748031497,
          "duration": 0.10714274999999951
        },
        {
          "name": "G4",
          "midi": 67,
          "time": 13.071415499999995,
          "velocity": 0.7874015748031497,
          "duration": 0.10714274999999951
        },
        {
          "name": "C5",
          "midi": 72,
          "time": 13.714271999999994,
          "velocity": 0.7874015748031497,
          "duration": 0.10714274999999951
        },
        {
          "name": "G4",
          "midi": 67,
          "time": 14.357128499999993,
          "velocity": 0.7874015748031497,
          "duration": 0.10714274999999951
        },
        {
          "name": "G#4",
          "midi": 68,
          "time": 14.999984999999992,
          "velocity": 0.7874015748031497,
          "duration": 0.10714274999999951
        },
        {
          "name": "C5",
          "midi": 72,
          "time": 15.857126999999991,
          "velocity": 0.7874015748031497,
          "duration": 0.10714274999999951
        },
        {
          "name": "G4",
          "midi": 67,
          "time": 16.499983499999992,
          "velocity": 0.7874015748031497,
          "duration": 0.10714275000000129
        },
        {
          "name": "C5",
          "midi": 72,
          "time": 17.142839999999993,
          "velocity": 0.7874015748031497,
          "duration": 0.10714275000000129
        },
        {
          "name": "G4",
          "midi": 67,
          "time": 17.785696499999993,
          "velocity": 0.7874015748031497,
          "duration": 0.10714275000000129
        },
        {
          "name": "G#4",
          "midi": 68,
          "time": 18.428552999999994,
          "velocity": 0.7874015748031497,
          "duration": 0.10714275000000129
        },
        {
          "name": "C5",
          "midi": 72,
          "time": 19.285694999999997,
          "velocity": 0.7874015748031497,
          "duration": 0.10714275000000129
        },
        {
          "name": "G4",
          "midi": 67,
          "time": 19.928551499999998,
          "velocity": 0.7874015748031497,
          "duration": 0.10714275000000129
        },
        {
          "name": "C5",
          "midi": 72,
          "time": 20.571407999999998,
          "velocity": 0.7874015748031497,
          "duration": 0.10714275000000129
        },
        {
          "name": "G4",
          "midi": 67,
          "time": 21.2142645,
          "velocity": 0.7874015748031497,
          "duration": 0.10714275000000129
        },
        {
          "name": "G#4",
          "midi": 68,
          "time": 21.857121,
          "velocity": 0.7874015748031497,
          "duration": 0.10714275000000129
        },
        {
          "name": "C5",
          "midi": 72,
          "time": 22.714263000000003,
          "velocity": 0.7874015748031497,
          "duration": 0.10714275000000129
        },
        {
          "name": "G4",
          "midi": 67,
          "time": 23.357119500000003,
          "velocity": 0.7874015748031497,
          "duration": 0.10714275000000129
        },
        {
          "name": "C5",
          "midi": 72,
          "time": 23.999976000000004,
          "velocity": 0.7874015748031497,
          "duration": 0.10714275000000129
        },
        {
          "name": "G4",
          "midi": 67,
          "time": 24.642832500000004,
          "velocity": 0.7874015748031497,
          "duration": 0.10714275000000129
        },
        {
          "name": "G#4",
          "midi": 68,
          "time": 25.285689000000005,
          "velocity": 0.7874015748031497,
          "duration": 0.10714275000000129
        },
        {
          "name": "C5",
          "midi": 72,
          "time": 26.142831000000008,
          "velocity": 0.7874015748031497,
          "duration": 0.10714275000000129
        },
        {
          "name": "G4",
          "midi": 67,
          "time": 26.78568750000001,
          "velocity": 0.7874015748031497,
          "duration": 0.10714275000000129
        },
        {
          "name": "C5",
          "midi": 72,
          "time": 27.42854400000001,
          "velocity": 0.7874015748031497,
          "duration": 0.10714275000000129
        },
        {
          "name": "G4",
          "midi": 67,
          "time": 28.07140050000001,
          "velocity": 0.7874015748031497,
          "duration": 0.10714275000000129
        },
        {
          "name": "G#4",
          "midi": 68,
          "time": 28.71425700000001,
          "velocity": 0.7874015748031497,
          "duration": 0.10714275000000129
        },
        {
          "name": "C5",
          "midi": 72,
          "time": 29.571399000000014,
          "velocity": 0.7874015748031497,
          "duration": 0.10714275000000129
        },
        {
          "name": "G4",
          "midi": 67,
          "time": 30.214255500000014,
          "velocity": 0.7874015748031497,
          "duration": 0.10714275000000129
        },
        {
          "name": "C5",
          "midi": 72,
          "time": 30.857112000000015,
          "velocity": 0.7874015748031497,
          "duration": 0.10714275000000129
        },
        {
          "name": "G4",
          "midi": 67,
          "time": 31.499968500000016,
          "velocity": 0.7874015748031497,
          "duration": 0.10714275000000129
        },
        {
          "name": "G#4",
          "midi": 68,
          "time": 32.142825000000016,
          "velocity": 0.7874015748031497,
          "duration": 0.10714275000000129
        },
        {
          "name": "C5",
          "midi": 72,
          "time": 32.99996700000002,
          "velocity": 0.7874015748031497,
          "duration": 0.10714275000000129
        },
        {
          "name": "G4",
          "midi": 67,
          "time": 33.64282350000002,
          "velocity": 0.7874015748031497,
          "duration": 0.10714275000000129
        },
        {
          "name": "C5",
          "midi": 72,
          "time": 34.28568000000002,
          "velocity": 0.7874015748031497,
          "duration": 0.10714275000000129
        },
        {
          "name": "G4",
          "midi": 67,
          "time": 34.92853650000002,
          "velocity": 0.7874015748031497,
          "duration": 0.10714275000000129
        },
        {
          "name": "G#4",
          "midi": 68,
          "time": 35.57139300000002,
          "velocity": 0.7874015748031497,
          "duration": 0.10714275000000129
        },
        {
          "name": "C5",
          "midi": 72,
          "time": 36.428535000000025,
          "velocity": 0.7874015748031497,
          "duration": 0.10714275000000129
        },
        {
          "name": "G4",
          "midi": 67,
          "time": 37.071391500000026,
          "velocity": 0.7874015748031497,
          "duration": 0.10714275000000129
        },
        {
          "name": "C5",
          "midi": 72,
          "time": 37.714248000000026,
          "velocity": 0.7874015748031497,
          "duration": 0.10714275000000129
        },
        {
          "name": "G4",
          "midi": 67,
          "time": 38.35710450000003,
          "velocity": 0.7874015748031497,
          "duration": 0.10714275000000129
        },
        {
          "name": "G#4",
          "midi": 68,
          "time": 38.99996100000003,
          "velocity": 0.7874015748031497,
          "duration": 0.10714275000000129
        },
        {
          "name": "C5",
          "midi": 72,
          "time": 39.85710300000003,
          "velocity": 0.7874015748031497,
          "duration": 0.10714275000000129
        },
        {
          "name": "G4",
          "midi": 67,
          "time": 40.49995950000003,
          "velocity": 0.7874015748031497,
          "duration": 0.10714275000000129
        },
        {
          "name": "C5",
          "midi": 72,
          "time": 41.14281600000003,
          "velocity": 0.7874015748031497,
          "duration": 0.10714275000000129
        },
        {
          "name": "G4",
          "midi": 67,
          "time": 41.57138700000003,
          "velocity": 0.7874015748031497,
          "duration": 0.10714275000000129
        },
        {
          "name": "G4",
          "midi": 67,
          "time": 41.78567250000003,
          "velocity": 0.7874015748031497,
          "duration": 0.10714275000000129
        },
        {
          "name": "G#4",
          "midi": 68,
          "time": 42.42852900000003,
          "velocity": 0.7874015748031497,
          "duration": 0.10714275000000129
        },
        {
          "name": "C5",
          "midi": 72,
          "time": 43.285671000000036,
          "velocity": 0.7874015748031497,
          "duration": 0.10714275000000129
        },
        {
          "name": "G4",
          "midi": 67,
          "time": 43.49995650000004,
          "velocity": 0.7874015748031497,
          "duration": 0.10714275000000129
        },
        {
          "name": "G4",
          "midi": 67,
          "time": 43.71424200000004,
          "velocity": 0.7874015748031497,
          "duration": 0.10714275000000129
        },
        {
          "name": "G4",
          "midi": 67,
          "time": 43.928527500000044,
          "velocity": 0.7874015748031497,
          "duration": 0.10714275000000129
        },
        {
          "name": "C5",
          "midi": 72,
          "time": 44.14281300000005,
          "velocity": 0.7874015748031497,
          "duration": 0.10714275000000129
        },
        {
          "name": "C5",
          "midi": 72,
          "time": 44.35709850000005,
          "velocity": 0.7874015748031497,
          "duration": 0.10714275000000129
        },
        {
          "name": "C5",
          "midi": 72,
          "time": 44.57138400000005,
          "velocity": 0.7874015748031497,
          "duration": 0.10714275000000129
        },
        {
          "name": "G4",
          "midi": 67,
          "time": 44.99995500000005,
          "velocity": 0.7874015748031497,
          "duration": 0.10714275000000129
        },
        {
          "name": "G4",
          "midi": 67,
          "time": 45.21424050000005,
          "velocity": 0.7874015748031497,
          "duration": 0.10714275000000129
        },
        {
          "name": "G#4",
          "midi": 68,
          "time": 45.85709700000005,
          "velocity": 0.7874015748031497,
          "duration": 0.10714275000000129
        },
        {
          "name": "C5",
          "midi": 72,
          "time": 46.714239000000056,
          "velocity": 0.7874015748031497,
          "duration": 0.10714275000000129
        },
        {
          "name": "G4",
          "midi": 67,
          "time": 46.92852450000006,
          "velocity": 0.7874015748031497,
          "duration": 0.10714275000000129
        },
        {
          "name": "G4",
          "midi": 67,
          "time": 47.14281000000006,
          "velocity": 0.7874015748031497,
          "duration": 0.10714275000000129
        },
        {
          "name": "G4",
          "midi": 67,
          "time": 47.357095500000064,
          "velocity": 0.7874015748031497,
          "duration": 0.10714275000000129
        },
        {
          "name": "C5",
          "midi": 72,
          "time": 47.571381000000066,
          "velocity": 0.7874015748031497,
          "duration": 0.10714275000000129
        },
        {
          "name": "C5",
          "midi": 72,
          "time": 47.78566650000007,
          "velocity": 0.7874015748031497,
          "duration": 0.10714275000000129
        },
        {
          "name": "C5",
          "midi": 72,
          "time": 47.99995200000007,
          "velocity": 0.7874015748031497,
          "duration": 0.10714275000000129
        },
        {
          "name": "G4",
          "midi": 67,
          "time": 48.64280850000007,
          "velocity": 0.7874015748031497,
          "duration": 0.10714275000000129
        },
        {
          "name": "G#4",
          "midi": 68,
          "time": 49.28566500000007,
          "velocity": 0.7874015748031497,
          "duration": 0.10714275000000129
        },
        {
          "name": "C5",
          "midi": 72,
          "time": 50.142807000000076,
          "velocity": 0.7874015748031497,
          "duration": 0.10714275000000129
        },
        {
          "name": "G4",
          "midi": 67,
          "time": 50.78566350000008,
          "velocity": 0.7874015748031497,
          "duration": 0.10714275000000129
        },
        {
          "name": "C5",
          "midi": 72,
          "time": 51.42852000000008,
          "velocity": 0.7874015748031497,
          "duration": 0.10714275000000129
        },
        {
          "name": "G4",
          "midi": 67,
          "time": 52.07137650000008,
          "velocity": 0.7874015748031497,
          "duration": 0.10714275000000129
        },
        {
          "name": "G#4",
          "midi": 68,
          "time": 52.71423300000008,
          "velocity": 0.7874015748031497,
          "duration": 0.10714275000000129
        },
        {
          "name": "C5",
          "midi": 72,
          "time": 53.57137500000008,
          "velocity": 0.7874015748031497,
          "duration": 0.10714275000000129
        },
        {
          "name": "G4",
          "midi": 67,
          "time": 54.21423150000008,
          "velocity": 0.7874015748031497,
          "duration": 0.10714275000000129
        },
        {
          "name": "C5",
          "midi": 72,
          "time": 54.85708800000008,
          "velocity": 0.7874015748031497,
          "duration": 0.10714275000000129
        },
        {
          "name": "G4",
          "midi": 67,
          "time": 55.49994450000008,
          "velocity": 0.7874015748031497,
          "duration": 0.10714275000000129
        },
        {
          "name": "G#4",
          "midi": 68,
          "time": 56.142801000000084,
          "velocity": 0.7874015748031497,
          "duration": 0.10714275000000129
        },
        {
          "name": "C5",
          "midi": 72,
          "time": 56.99994300000009,
          "velocity": 0.7874015748031497,
          "duration": 0.10714275000000129
        },
        {
          "name": "G4",
          "midi": 67,
          "time": 57.64279950000009,
          "velocity": 0.7874015748031497,
          "duration": 0.10714275000000129
        },
        {
          "name": "C5",
          "midi": 72,
          "time": 58.28565600000009,
          "velocity": 0.7874015748031497,
          "duration": 0.10714275000000129
        },
        {
          "name": "G4",
          "midi": 67,
          "time": 58.92851250000009,
          "velocity": 0.7874015748031497,
          "duration": 0.10714275000000129
        },
        {
          "name": "G#4",
          "midi": 68,
          "time": 59.57136900000009,
          "velocity": 0.7874015748031497,
          "duration": 0.10714275000000129
        },
        {
          "name": "C5",
          "midi": 72,
          "time": 60.42851100000009,
          "velocity": 0.7874015748031497,
          "duration": 0.10714275000000129
        },
        {
          "name": "G4",
          "midi": 67,
          "time": 61.07136750000009,
          "velocity": 0.7874015748031497,
          "duration": 0.10714275000000129
        },
        {
          "name": "C5",
          "midi": 72,
          "time": 61.714224000000094,
          "velocity": 0.7874015748031497,
          "duration": 0.10714275000000129
        },
        {
          "name": "C5",
          "midi": 72,
          "time": 68.5713600000001,
          "velocity": 0.7874015748031497,
          "duration": 0.10714274999999418
        },
        {
          "name": "G4",
          "midi": 67,
          "time": 69.21421650000009,
          "velocity": 0.7874015748031497,
          "duration": 0.10714274999999418
        },
        {
          "name": "G#4",
          "midi": 68,
          "time": 69.85707300000009,
          "velocity": 0.7874015748031497,
          "duration": 0.10714274999999418
        },
        {
          "name": "C5",
          "midi": 72,
          "time": 70.71421500000008,
          "velocity": 0.7874015748031497,
          "duration": 0.10714274999999418
        },
        {
          "name": "G4",
          "midi": 67,
          "time": 71.35707150000007,
          "velocity": 0.7874015748031497,
          "duration": 0.10714274999999418
        },
        {
          "name": "C5",
          "midi": 72,
          "time": 71.99992800000007,
          "velocity": 0.7874015748031497,
          "duration": 0.10714274999999418
        },
        {
          "name": "G4",
          "midi": 67,
          "time": 72.64278450000006,
          "velocity": 0.7874015748031497,
          "duration": 0.10714274999999418
        },
        {
          "name": "G#4",
          "midi": 68,
          "time": 73.28564100000006,
          "velocity": 0.7874015748031497,
          "duration": 0.10714274999999418
        },
        {
          "name": "C5",
          "midi": 72,
          "time": 74.14278300000005,
          "velocity": 0.7874015748031497,
          "duration": 0.10714274999999418
        },
        {
          "name": "G4",
          "midi": 67,
          "time": 74.78563950000004,
          "velocity": 0.7874015748031497,
          "duration": 0.10714274999999418
        },
        {
          "name": "C5",
          "midi": 72,
          "time": 75.42849600000004,
          "velocity": 0.7874015748031497,
          "duration": 0.10714274999999418
        },
        {
          "name": "G4",
          "midi": 67,
          "time": 76.07135250000003,
          "velocity": 0.7874015748031497,
          "duration": 0.10714274999999418
        },
        {
          "name": "G#4",
          "midi": 68,
          "time": 76.71420900000003,
          "velocity": 0.7874015748031497,
          "duration": 0.10714274999999418
        },
        {
          "name": "C5",
          "midi": 72,
          "time": 77.57135100000002,
          "velocity": 0.7874015748031497,
          "duration": 0.10714274999999418
        },
        {
          "name": "G4",
          "midi": 67,
          "time": 78.21420750000001,
          "velocity": 0.7874015748031497,
          "duration": 0.10714274999999418
        },
        {
          "name": "C5",
          "midi": 72,
          "time": 78.85706400000001,
          "velocity": 0.7874015748031497,
          "duration": 0.10714274999999418
        },
        {
          "name": "G4",
          "midi": 67,
          "time": 79.4999205,
          "velocity": 0.7874015748031497,
          "duration": 0.10714274999999418
        },
        {
          "name": "G#4",
          "midi": 68,
          "time": 80.142777,
          "velocity": 0.7874015748031497,
          "duration": 0.10714274999999418
        },
        {
          "name": "C5",
          "midi": 72,
          "time": 80.99991899999999,
          "velocity": 0.7874015748031497,
          "duration": 0.10714274999999418
        },
        {
          "name": "G4",
          "midi": 67,
          "time": 81.64277549999998,
          "velocity": 0.7874015748031497,
          "duration": 0.10714274999999418
        },
        {
          "name": "C5",
          "midi": 72,
          "time": 82.28563199999998,
          "velocity": 0.7874015748031497,
          "duration": 0.10714274999999418
        },
        {
          "name": "G4",
          "midi": 67,
          "time": 82.92848849999997,
          "velocity": 0.7874015748031497,
          "duration": 0.10714274999999418
        },
        {
          "name": "G#4",
          "midi": 68,
          "time": 83.57134499999997,
          "velocity": 0.7874015748031497,
          "duration": 0.10714274999999418
        },
        {
          "name": "C5",
          "midi": 72,
          "time": 84.42848699999996,
          "velocity": 0.7874015748031497,
          "duration": 0.10714274999999418
        },
        {
          "name": "G4",
          "midi": 67,
          "time": 85.07134349999995,
          "velocity": 0.7874015748031497,
          "duration": 0.10714274999999418
        },
        {
          "name": "C5",
          "midi": 72,
          "time": 85.71419999999995,
          "velocity": 0.7874015748031497,
          "duration": 0.10714274999999418
        },
        {
          "name": "G4",
          "midi": 67,
          "time": 86.35705649999994,
          "velocity": 0.7874015748031497,
          "duration": 0.10714274999999418
        },
        {
          "name": "G#4",
          "midi": 68,
          "time": 86.99991299999994,
          "velocity": 0.7874015748031497,
          "duration": 0.10714274999999418
        },
        {
          "name": "C5",
          "midi": 72,
          "time": 87.85705499999993,
          "velocity": 0.7874015748031497,
          "duration": 0.10714274999999418
        },
        {
          "name": "G4",
          "midi": 67,
          "time": 88.49991149999993,
          "velocity": 0.7874015748031497,
          "duration": 0.10714274999999418
        },
        {
          "name": "C5",
          "midi": 72,
          "time": 89.14276799999992,
          "velocity": 0.7874015748031497,
          "duration": 0.10714274999999418
        },
        {
          "name": "G4",
          "midi": 67,
          "time": 89.78562449999991,
          "velocity": 0.7874015748031497,
          "duration": 0.10714274999999418
        },
        {
          "name": "G#4",
          "midi": 68,
          "time": 90.4284809999999,
          "velocity": 0.7874015748031497,
          "duration": 0.10714274999999418
        },
        {
          "name": "C5",
          "midi": 72,
          "time": 91.2856229999999,
          "velocity": 0.7874015748031497,
          "duration": 0.10714274999999418
        },
        {
          "name": "G4",
          "midi": 67,
          "time": 91.9284794999999,
          "velocity": 0.7874015748031497,
          "duration": 0.10714274999999418
        },
        {
          "name": "C5",
          "midi": 72,
          "time": 92.57133599999989,
          "velocity": 0.7874015748031497,
          "duration": 0.10714274999999418
        },
        {
          "name": "G4",
          "midi": 67,
          "time": 93.21419249999988,
          "velocity": 0.7874015748031497,
          "duration": 0.10714274999999418
        },
        {
          "name": "G#4",
          "midi": 68,
          "time": 93.85704899999988,
          "velocity": 0.7874015748031497,
          "duration": 0.10714274999999418
        },
        {
          "name": "C5",
          "midi": 72,
          "time": 94.71419099999987,
          "velocity": 0.7874015748031497,
          "duration": 0.10714274999999418
        },
        {
          "name": "G4",
          "midi": 67,
          "time": 95.35704749999987,
          "velocity": 0.7874015748031497,
          "duration": 0.10714274999999418
        },
        {
          "name": "C5",
          "midi": 72,
          "time": 95.99990399999986,
          "velocity": 0.7874015748031497,
          "duration": 0.10714274999999418
        },
        {
          "name": "G4",
          "midi": 67,
          "time": 96.42847499999985,
          "velocity": 0.7874015748031497,
          "duration": 0.10714274999999418
        },
        {
          "name": "G4",
          "midi": 67,
          "time": 96.64276049999984,
          "velocity": 0.7874015748031497,
          "duration": 0.10714274999999418
        },
        {
          "name": "G#4",
          "midi": 68,
          "time": 97.28561699999983,
          "velocity": 0.7874015748031497,
          "duration": 0.10714274999999418
        },
        {
          "name": "C5",
          "midi": 72,
          "time": 98.14275899999983,
          "velocity": 0.7874015748031497,
          "duration": 0.10714274999999418
        },
        {
          "name": "G4",
          "midi": 67,
          "time": 98.35704449999982,
          "velocity": 0.7874015748031497,
          "duration": 0.10714274999999418
        },
        {
          "name": "G4",
          "midi": 67,
          "time": 98.5713299999998,
          "velocity": 0.7874015748031497,
          "duration": 0.10714274999999418
        },
        {
          "name": "G4",
          "midi": 67,
          "time": 98.78561549999979,
          "velocity": 0.7874015748031497,
          "duration": 0.10714274999999418
        },
        {
          "name": "C5",
          "midi": 72,
          "time": 98.99990099999978,
          "velocity": 0.7874015748031497,
          "duration": 0.10714274999999418
        },
        {
          "name": "C5",
          "midi": 72,
          "time": 99.21418649999977,
          "velocity": 0.7874015748031497,
          "duration": 0.10714274999999418
        },
        {
          "name": "C5",
          "midi": 72,
          "time": 99.42847199999976,
          "velocity": 0.7874015748031497,
          "duration": 0.10714274999999418
        },
        {
          "name": "G4",
          "midi": 67,
          "time": 99.85704299999975,
          "velocity": 0.7874015748031497,
          "duration": 0.10714274999999418
        },
        {
          "name": "G4",
          "midi": 67,
          "time": 100.07132849999974,
          "velocity": 0.7874015748031497,
          "duration": 0.10714274999999418
        },
        {
          "name": "G#4",
          "midi": 68,
          "time": 100.71418499999973,
          "velocity": 0.7874015748031497,
          "duration": 0.10714274999999418
        },
        {
          "name": "C5",
          "midi": 72,
          "time": 101.57132699999973,
          "velocity": 0.7874015748031497,
          "duration": 0.10714274999999418
        },
        {
          "name": "G4",
          "midi": 67,
          "time": 101.78561249999971,
          "velocity": 0.7874015748031497,
          "duration": 0.10714274999999418
        },
        {
          "name": "G4",
          "midi": 67,
          "time": 101.9998979999997,
          "velocity": 0.7874015748031497,
          "duration": 0.10714274999999418
        },
        {
          "name": "G4",
          "midi": 67,
          "time": 102.21418349999969,
          "velocity": 0.7874015748031497,
          "duration": 0.10714274999999418
        },
        {
          "name": "C5",
          "midi": 72,
          "time": 102.42846899999968,
          "velocity": 0.7874015748031497,
          "duration": 0.10714274999999418
        },
        {
          "name": "C5",
          "midi": 72,
          "time": 102.64275449999967,
          "velocity": 0.7874015748031497,
          "duration": 0.10714274999999418
        },
        {
          "name": "C5",
          "midi": 72,
          "time": 102.85703999999966,
          "velocity": 0.7874015748031497,
          "duration": 0.10714274999999418
        },
        {
          "name": "G4",
          "midi": 67,
          "time": 103.49989649999965,
          "velocity": 0.7874015748031497,
          "duration": 0.10714274999999418
        },
        {
          "name": "G#4",
          "midi": 68,
          "time": 104.14275299999964,
          "velocity": 0.7874015748031497,
          "duration": 0.10714274999999418
        },
        {
          "name": "C5",
          "midi": 72,
          "time": 104.99989499999964,
          "velocity": 0.7874015748031497,
          "duration": 0.10714274999999418
        },
        {
          "name": "G4",
          "midi": 67,
          "time": 105.64275149999963,
          "velocity": 0.7874015748031497,
          "duration": 0.10714274999999418
        },
        {
          "name": "C5",
          "midi": 72,
          "time": 106.28560799999963,
          "velocity": 0.7874015748031497,
          "duration": 0.10714274999999418
        },
        {
          "name": "G4",
          "midi": 67,
          "time": 106.92846449999962,
          "velocity": 0.7874015748031497,
          "duration": 0.10714274999999418
        },
        {
          "name": "G#4",
          "midi": 68,
          "time": 107.57132099999961,
          "velocity": 0.7874015748031497,
          "duration": 0.10714274999999418
        },
        {
          "name": "C5",
          "midi": 72,
          "time": 108.42846299999961,
          "velocity": 0.7874015748031497,
          "duration": 0.10714274999999418
        },
        {
          "name": "G4",
          "midi": 67,
          "time": 109.0713194999996,
          "velocity": 0.7874015748031497,
          "duration": 0.10714274999999418
        },
        {
          "name": "C5",
          "midi": 72,
          "time": 109.7141759999996,
          "velocity": 0.7874015748031497,
          "duration": 0.10714274999999418
        },
        {
          "name": "G4",
          "midi": 67,
          "time": 110.35703249999959,
          "velocity": 0.7874015748031497,
          "duration": 0.10714274999999418
        },
        {
          "name": "G#4",
          "midi": 68,
          "time": 110.99988899999958,
          "velocity": 0.7874015748031497,
          "duration": 0.10714274999999418
        },
        {
          "name": "C5",
          "midi": 72,
          "time": 111.85703099999958,
          "velocity": 0.7874015748031497,
          "duration": 0.10714274999999418
        },
        {
          "name": "G4",
          "midi": 67,
          "time": 112.49988749999957,
          "velocity": 0.7874015748031497,
          "duration": 0.10714274999999418
        },
        {
          "name": "C5",
          "midi": 72,
          "time": 113.14274399999957,
          "velocity": 0.7874015748031497,
          "duration": 0.10714274999999418
        },
        {
          "name": "G4",
          "midi": 67,
          "time": 113.78560049999956,
          "velocity": 0.7874015748031497,
          "duration": 0.10714274999999418
        },
        {
          "name": "G#4",
          "midi": 68,
          "time": 114.42845699999955,
          "velocity": 0.7874015748031497,
          "duration": 0.10714274999999418
        },
        {
          "name": "C5",
          "midi": 72,
          "time": 115.28559899999955,
          "velocity": 0.7874015748031497,
          "duration": 0.10714274999999418
        },
        {
          "name": "G4",
          "midi": 67,
          "time": 115.92845549999954,
          "velocity": 0.7874015748031497,
          "duration": 0.10714274999999418
        },
        {
          "name": "C5",
          "midi": 72,
          "time": 116.57131199999954,
          "velocity": 0.7874015748031497,
          "duration": 0.10714274999999418
        },
        {
          "name": "C5",
          "midi": 72,
          "time": 123.42844799999953,
          "velocity": 0.7874015748031497,
          "duration": 0.10714274999999418
        },
        {
          "name": "G4",
          "midi": 67,
          "time": 124.07130449999953,
          "velocity": 0.7874015748031497,
          "duration": 0.10714274999999418
        },
        {
          "name": "G#4",
          "midi": 68,
          "time": 124.71416099999952,
          "velocity": 0.7874015748031497,
          "duration": 0.10714274999999418
        },
        {
          "name": "C5",
          "midi": 72,
          "time": 125.57130299999952,
          "velocity": 0.7874015748031497,
          "duration": 0.10714274999999418
        },
        {
          "name": "G4",
          "midi": 67,
          "time": 126.21415949999951,
          "velocity": 0.7874015748031497,
          "duration": 0.10714274999999418
        },
        {
          "name": "C5",
          "midi": 72,
          "time": 126.8570159999995,
          "velocity": 0.7874015748031497,
          "duration": 0.10714274999999418
        },
        {
          "name": "G4",
          "midi": 67,
          "time": 127.4998724999995,
          "velocity": 0.7874015748031497,
          "duration": 0.10714274999999418
        },
        {
          "name": "G#4",
          "midi": 68,
          "time": 128.1427289999995,
          "velocity": 0.7874015748031497,
          "duration": 0.10714275000000839
        },
        {
          "name": "C5",
          "midi": 72,
          "time": 128.9998709999995,
          "velocity": 0.7874015748031497,
          "duration": 0.10714275000000839
        },
        {
          "name": "G4",
          "midi": 67,
          "time": 129.64272749999952,
          "velocity": 0.7874015748031497,
          "duration": 0.10714275000000839
        },
        {
          "name": "C5",
          "midi": 72,
          "time": 130.28558399999955,
          "velocity": 0.7874015748031497,
          "duration": 0.10714275000000839
        },
        {
          "name": "G4",
          "midi": 67,
          "time": 130.92844049999957,
          "velocity": 0.7874015748031497,
          "duration": 0.10714275000000839
        },
        {
          "name": "G#4",
          "midi": 68,
          "time": 131.5712969999996,
          "velocity": 0.7874015748031497,
          "duration": 0.10714275000000839
        },
        {
          "name": "C5",
          "midi": 72,
          "time": 132.4284389999996,
          "velocity": 0.7874015748031497,
          "duration": 0.10714275000000839
        },
        {
          "name": "G4",
          "midi": 67,
          "time": 133.07129549999962,
          "velocity": 0.7874015748031497,
          "duration": 0.10714275000000839
        },
        {
          "name": "C5",
          "midi": 72,
          "time": 133.71415199999964,
          "velocity": 0.7874015748031497,
          "duration": 0.10714275000000839
        },
        {
          "name": "G4",
          "midi": 67,
          "time": 134.35700849999967,
          "velocity": 0.7874015748031497,
          "duration": 0.10714275000000839
        },
        {
          "name": "G#4",
          "midi": 68,
          "time": 134.9998649999997,
          "velocity": 0.7874015748031497,
          "duration": 0.10714275000000839
        },
        {
          "name": "C5",
          "midi": 72,
          "time": 135.8570069999997,
          "velocity": 0.7874015748031497,
          "duration": 0.10714275000000839
        },
        {
          "name": "G4",
          "midi": 67,
          "time": 136.49986349999972,
          "velocity": 0.7874015748031497,
          "duration": 0.10714275000000839
        },
        {
          "name": "C5",
          "midi": 72,
          "time": 137.14271999999974,
          "velocity": 0.7874015748031497,
          "duration": 0.10714275000000839
        },
        {
          "name": "G4",
          "midi": 67,
          "time": 137.78557649999976,
          "velocity": 0.7874015748031497,
          "duration": 0.10714275000000839
        },
        {
          "name": "G#4",
          "midi": 68,
          "time": 138.42843299999979,
          "velocity": 0.7874015748031497,
          "duration": 0.10714275000000839
        },
        {
          "name": "C5",
          "midi": 72,
          "time": 139.2855749999998,
          "velocity": 0.7874015748031497,
          "duration": 0.10714275000000839
        },
        {
          "name": "G4",
          "midi": 67,
          "time": 139.92843149999982,
          "velocity": 0.7874015748031497,
          "duration": 0.10714275000000839
        },
        {
          "name": "C5",
          "midi": 72,
          "time": 140.57128799999984,
          "velocity": 0.7874015748031497,
          "duration": 0.10714275000000839
        },
        {
          "name": "G4",
          "midi": 67,
          "time": 141.21414449999986,
          "velocity": 0.7874015748031497,
          "duration": 0.10714275000000839
        },
        {
          "name": "G#4",
          "midi": 68,
          "time": 141.85700099999988,
          "velocity": 0.7874015748031497,
          "duration": 0.10714275000000839
        },
        {
          "name": "C5",
          "midi": 72,
          "time": 142.7141429999999,
          "velocity": 0.7874015748031497,
          "duration": 0.10714275000000839
        },
        {
          "name": "G4",
          "midi": 67,
          "time": 143.35699949999992,
          "velocity": 0.7874015748031497,
          "duration": 0.10714275000000839
        },
        {
          "name": "C5",
          "midi": 72,
          "time": 143.99985599999994,
          "velocity": 0.7874015748031497,
          "duration": 0.10714275000000839
        },
        {
          "name": "G4",
          "midi": 67,
          "time": 144.64271249999996,
          "velocity": 0.7874015748031497,
          "duration": 0.10714275000000839
        },
        {
          "name": "G#4",
          "midi": 68,
          "time": 145.28556899999998,
          "velocity": 0.7874015748031497,
          "duration": 0.10714275000000839
        },
        {
          "name": "C5",
          "midi": 72,
          "time": 146.142711,
          "velocity": 0.7874015748031497,
          "duration": 0.10714275000000839
        },
        {
          "name": "G4",
          "midi": 67,
          "time": 146.7855675,
          "velocity": 0.7874015748031497,
          "duration": 0.10714275000000839
        },
        {
          "name": "C5",
          "midi": 72,
          "time": 147.42842400000004,
          "velocity": 0.7874015748031497,
          "duration": 0.10714275000000839
        },
        {
          "name": "G4",
          "midi": 67,
          "time": 148.07128050000006,
          "velocity": 0.7874015748031497,
          "duration": 0.10714275000000839
        },
        {
          "name": "G#4",
          "midi": 68,
          "time": 148.71413700000008,
          "velocity": 0.7874015748031497,
          "duration": 0.10714275000000839
        },
        {
          "name": "C5",
          "midi": 72,
          "time": 149.5712790000001,
          "velocity": 0.7874015748031497,
          "duration": 0.10714275000000839
        },
        {
          "name": "G4",
          "midi": 67,
          "time": 150.2141355000001,
          "velocity": 0.7874015748031497,
          "duration": 0.10714275000000839
        },
        {
          "name": "C5",
          "midi": 72,
          "time": 150.85699200000013,
          "velocity": 0.7874015748031497,
          "duration": 0.10714275000000839
        },
        {
          "name": "G4",
          "midi": 67,
          "time": 151.28556300000014,
          "velocity": 0.7874015748031497,
          "duration": 0.10714275000000839
        },
        {
          "name": "G4",
          "midi": 67,
          "time": 151.49984850000016,
          "velocity": 0.7874015748031497,
          "duration": 0.10714275000000839
        },
        {
          "name": "G#4",
          "midi": 68,
          "time": 152.14270500000018,
          "velocity": 0.7874015748031497,
          "duration": 0.10714275000000839
        },
        {
          "name": "C5",
          "midi": 72,
          "time": 152.9998470000002,
          "velocity": 0.7874015748031497,
          "duration": 0.10714275000000839
        },
        {
          "name": "G4",
          "midi": 67,
          "time": 153.2141325000002,
          "velocity": 0.7874015748031497,
          "duration": 0.10714275000000839
        },
        {
          "name": "G4",
          "midi": 67,
          "time": 153.42841800000022,
          "velocity": 0.7874015748031497,
          "duration": 0.10714275000000839
        },
        {
          "name": "G4",
          "midi": 67,
          "time": 153.64270350000024,
          "velocity": 0.7874015748031497,
          "duration": 0.10714275000000839
        },
        {
          "name": "C5",
          "midi": 72,
          "time": 153.85698900000025,
          "velocity": 0.7874015748031497,
          "duration": 0.10714275000000839
        },
        {
          "name": "C5",
          "midi": 72,
          "time": 154.07127450000027,
          "velocity": 0.7874015748031497,
          "duration": 0.10714275000000839
        },
        {
          "name": "C5",
          "midi": 72,
          "time": 154.2855600000003,
          "velocity": 0.7874015748031497,
          "duration": 0.10714275000000839
        },
        {
          "name": "G4",
          "midi": 67,
          "time": 154.7141310000003,
          "velocity": 0.7874015748031497,
          "duration": 0.10714275000000839
        },
        {
          "name": "G4",
          "midi": 67,
          "time": 154.9284165000003,
          "velocity": 0.7874015748031497,
          "duration": 0.10714275000000839
        },
        {
          "name": "G#4",
          "midi": 68,
          "time": 155.57127300000033,
          "velocity": 0.7874015748031497,
          "duration": 0.10714275000000839
        },
        {
          "name": "C5",
          "midi": 72,
          "time": 156.42841500000034,
          "velocity": 0.7874015748031497,
          "duration": 0.10714275000000839
        },
        {
          "name": "G4",
          "midi": 67,
          "time": 156.64270050000036,
          "velocity": 0.7874015748031497,
          "duration": 0.10714275000000839
        },
        {
          "name": "G4",
          "midi": 67,
          "time": 156.85698600000038,
          "velocity": 0.7874015748031497,
          "duration": 0.10714275000000839
        },
        {
          "name": "G4",
          "midi": 67,
          "time": 157.0712715000004,
          "velocity": 0.7874015748031497,
          "duration": 0.10714275000000839
        },
        {
          "name": "C5",
          "midi": 72,
          "time": 157.2855570000004,
          "velocity": 0.7874015748031497,
          "duration": 0.10714275000000839
        },
        {
          "name": "C5",
          "midi": 72,
          "time": 157.49984250000043,
          "velocity": 0.7874015748031497,
          "duration": 0.10714275000000839
        },
        {
          "name": "C5",
          "midi": 72,
          "time": 157.71412800000044,
          "velocity": 0.7874015748031497,
          "duration": 0.10714275000000839
        },
        {
          "name": "G4",
          "midi": 67,
          "time": 158.35698450000046,
          "velocity": 0.7874015748031497,
          "duration": 0.10714275000000839
        },
        {
          "name": "G#4",
          "midi": 68,
          "time": 158.9998410000005,
          "velocity": 0.7874015748031497,
          "duration": 0.10714275000000839
        },
        {
          "name": "C5",
          "midi": 72,
          "time": 159.8569830000005,
          "velocity": 0.7874015748031497,
          "duration": 0.10714275000000839
        },
        {
          "name": "G4",
          "midi": 67,
          "time": 160.49983950000052,
          "velocity": 0.7874015748031497,
          "duration": 0.10714275000000839
        },
        {
          "name": "C5",
          "midi": 72,
          "time": 161.14269600000054,
          "velocity": 0.7874015748031497,
          "duration": 0.10714275000000839
        },
        {
          "name": "G4",
          "midi": 67,
          "time": 161.78555250000056,
          "velocity": 0.7874015748031497,
          "duration": 0.10714275000000839
        },
        {
          "name": "G#4",
          "midi": 68,
          "time": 162.42840900000058,
          "velocity": 0.7874015748031497,
          "duration": 0.10714275000000839
        },
        {
          "name": "C5",
          "midi": 72,
          "time": 163.2855510000006,
          "velocity": 0.7874015748031497,
          "duration": 0.10714275000000839
        },
        {
          "name": "G4",
          "midi": 67,
          "time": 163.92840750000062,
          "velocity": 0.7874015748031497,
          "duration": 0.10714275000000839
        },
        {
          "name": "C5",
          "midi": 72,
          "time": 164.57126400000064,
          "velocity": 0.7874015748031497,
          "duration": 0.10714275000000839
        },
        {
          "name": "G4",
          "midi": 67,
          "time": 165.21412050000066,
          "velocity": 0.7874015748031497,
          "duration": 0.10714275000000839
        },
        {
          "name": "G#4",
          "midi": 68,
          "time": 165.85697700000068,
          "velocity": 0.7874015748031497,
          "duration": 0.10714275000000839
        },
        {
          "name": "C5",
          "midi": 72,
          "time": 166.7141190000007,
          "velocity": 0.7874015748031497,
          "duration": 0.10714275000000839
        },
        {
          "name": "G4",
          "midi": 67,
          "time": 167.35697550000071,
          "velocity": 0.7874015748031497,
          "duration": 0.10714275000000839
        },
        {
          "name": "C5",
          "midi": 72,
          "time": 167.99983200000074,
          "velocity": 0.7874015748031497,
          "duration": 0.10714275000000839
        },
        {
          "name": "G4",
          "midi": 67,
          "time": 168.64268850000076,
          "velocity": 0.7874015748031497,
          "duration": 0.10714275000000839
        },
        {
          "name": "G#4",
          "midi": 68,
          "time": 169.28554500000078,
          "velocity": 0.7874015748031497,
          "duration": 0.10714275000000839
        },
        {
          "name": "C5",
          "midi": 72,
          "time": 170.1426870000008,
          "velocity": 0.7874015748031497,
          "duration": 0.10714275000000839
        },
        {
          "name": "G4",
          "midi": 67,
          "time": 170.7855435000008,
          "velocity": 0.7874015748031497,
          "duration": 0.10714275000000839
        },
        {
          "name": "C5",
          "midi": 72,
          "time": 171.42840000000083,
          "velocity": 0.7874015748031497,
          "duration": 0.10714275000000839
        },
        {
          "name": "G4",
          "midi": 67,
          "time": 172.07125650000086,
          "velocity": 0.7874015748031497,
          "duration": 0.10714275000000839
        },
        {
          "name": "G#4",
          "midi": 68,
          "time": 172.71411300000088,
          "velocity": 0.7874015748031497,
          "duration": 0.10714275000000839
        },
        {
          "name": "C5",
          "midi": 72,
          "time": 173.5712550000009,
          "velocity": 0.7874015748031497,
          "duration": 0.10714275000000839
        },
        {
          "name": "G4",
          "midi": 67,
          "time": 174.2141115000009,
          "velocity": 0.7874015748031497,
          "duration": 0.10714275000000839
        },
        {
          "name": "C5",
          "midi": 72,
          "time": 178.28553600000092,
          "velocity": 0.7874015748031497,
          "duration": 0.10714275000000839
        },
        {
          "name": "G4",
          "midi": 67,
          "time": 178.92839250000094,
          "velocity": 0.7874015748031497,
          "duration": 0.10714275000000839
        },
        {
          "name": "G#4",
          "midi": 68,
          "time": 179.57124900000096,
          "velocity": 0.7874015748031497,
          "duration": 0.10714275000000839
        },
        {
          "name": "C5",
          "midi": 72,
          "time": 180.42839100000097,
          "velocity": 0.7874015748031497,
          "duration": 0.10714275000000839
        },
        {
          "name": "G4",
          "midi": 67,
          "time": 181.071247500001,
          "velocity": 0.7874015748031497,
          "duration": 0.10714275000000839
        },
        {
          "name": "C5",
          "midi": 72,
          "time": 181.71410400000102,
          "velocity": 0.7874015748031497,
          "duration": 0.10714275000000839
        },
        {
          "name": "G4",
          "midi": 67,
          "time": 182.35696050000104,
          "velocity": 0.7874015748031497,
          "duration": 0.10714275000000839
        },
        {
          "name": "G#4",
          "midi": 68,
          "time": 182.99981700000106,
          "velocity": 0.7874015748031497,
          "duration": 0.10714275000000839
        },
        {
          "name": "C5",
          "midi": 72,
          "time": 183.85695900000107,
          "velocity": 0.7874015748031497,
          "duration": 0.10714275000000839
        },
        {
          "name": "G4",
          "midi": 67,
          "time": 184.4998155000011,
          "velocity": 0.7874015748031497,
          "duration": 0.10714275000000839
        },
        {
          "name": "C5",
          "midi": 72,
          "time": 185.1426720000011,
          "velocity": 0.7874015748031497,
          "duration": 0.10714275000000839
        },
        {
          "name": "G4",
          "midi": 67,
          "time": 185.78552850000113,
          "velocity": 0.7874015748031497,
          "duration": 0.10714275000000839
        },
        {
          "name": "G#4",
          "midi": 68,
          "time": 186.42838500000116,
          "velocity": 0.7874015748031497,
          "duration": 0.10714275000000839
        },
        {
          "name": "C5",
          "midi": 72,
          "time": 187.28552700000117,
          "velocity": 0.7874015748031497,
          "duration": 0.10714275000000839
        },
        {
          "name": "G4",
          "midi": 67,
          "time": 187.9283835000012,
          "velocity": 0.7874015748031497,
          "duration": 0.10714275000000839
        },
        {
          "name": "C5",
          "midi": 72,
          "time": 188.5712400000012,
          "velocity": 0.7874015748031497,
          "duration": 0.10714275000000839
        },
        {
          "name": "G4",
          "midi": 67,
          "time": 189.21409650000123,
          "velocity": 0.7874015748031497,
          "duration": 0.10714275000000839
        },
        {
          "name": "G#4",
          "midi": 68,
          "time": 189.85695300000125,
          "velocity": 0.7874015748031497,
          "duration": 0.10714275000000839
        },
        {
          "name": "C5",
          "midi": 72,
          "time": 190.71409500000127,
          "velocity": 0.7874015748031497,
          "duration": 0.10714275000000839
        },
        {
          "name": "G4",
          "midi": 67,
          "time": 191.3569515000013,
          "velocity": 0.7874015748031497,
          "duration": 0.10714275000000839
        },
        {
          "name": "C5",
          "midi": 72,
          "time": 191.9998080000013,
          "velocity": 0.7874015748031497,
          "duration": 0.10714275000000839
        },
        {
          "name": "G4",
          "midi": 67,
          "time": 192.64266450000133,
          "velocity": 0.7874015748031497,
          "duration": 0.10714275000000839
        },
        {
          "name": "G#4",
          "midi": 68,
          "time": 193.28552100000135,
          "velocity": 0.7874015748031497,
          "duration": 0.10714275000000839
        },
        {
          "name": "C5",
          "midi": 72,
          "time": 194.14266300000136,
          "velocity": 0.7874015748031497,
          "duration": 0.10714275000000839
        },
        {
          "name": "G4",
          "midi": 67,
          "time": 194.78551950000139,
          "velocity": 0.7874015748031497,
          "duration": 0.10714275000000839
        },
        {
          "name": "C5",
          "midi": 72,
          "time": 195.4283760000014,
          "velocity": 0.7874015748031497,
          "duration": 0.10714275000000839
        },
        {
          "name": "G4",
          "midi": 67,
          "time": 196.07123250000143,
          "velocity": 0.7874015748031497,
          "duration": 0.10714275000000839
        },
        {
          "name": "G#4",
          "midi": 68,
          "time": 196.71408900000145,
          "velocity": 0.7874015748031497,
          "duration": 0.10714275000000839
        },
        {
          "name": "C5",
          "midi": 72,
          "time": 197.57123100000146,
          "velocity": 0.7874015748031497,
          "duration": 0.10714275000000839
        },
        {
          "name": "G4",
          "midi": 67,
          "time": 198.21408750000148,
          "velocity": 0.7874015748031497,
          "duration": 0.10714275000000839
        },
        {
          "name": "C5",
          "midi": 72,
          "time": 198.8569440000015,
          "velocity": 0.7874015748031497,
          "duration": 0.10714275000000839
        },
        {
          "name": "G4",
          "midi": 67,
          "time": 199.49980050000153,
          "velocity": 0.7874015748031497,
          "duration": 0.10714275000000839
        },
        {
          "name": "G#4",
          "midi": 68,
          "time": 200.14265700000155,
          "velocity": 0.7874015748031497,
          "duration": 0.10714275000000839
        },
        {
          "name": "C5",
          "midi": 72,
          "time": 200.99979900000156,
          "velocity": 0.7874015748031497,
          "duration": 0.10714275000000839
        },
        {
          "name": "G4",
          "midi": 67,
          "time": 201.64265550000158,
          "velocity": 0.7874015748031497,
          "duration": 0.10714275000000839
        },
        {
          "name": "C5",
          "midi": 72,
          "time": 202.2855120000016,
          "velocity": 0.7874015748031497,
          "duration": 0.10714275000000839
        },
        {
          "name": "G4",
          "midi": 67,
          "time": 202.92836850000162,
          "velocity": 0.7874015748031497,
          "duration": 0.10714275000000839
        },
        {
          "name": "G#4",
          "midi": 68,
          "time": 203.57122500000165,
          "velocity": 0.7874015748031497,
          "duration": 0.10714275000000839
        },
        {
          "name": "C5",
          "midi": 72,
          "time": 204.42836700000166,
          "velocity": 0.7874015748031497,
          "duration": 0.10714275000000839
        },
        {
          "name": "G4",
          "midi": 67,
          "time": 205.07122350000168,
          "velocity": 0.7874015748031497,
          "duration": 0.10714275000000839
        },
        {
          "name": "C5",
          "midi": 72,
          "time": 205.7140800000017,
          "velocity": 0.7874015748031497,
          "duration": 0.10714275000000839
        },
        {
          "name": "G4",
          "midi": 67,
          "time": 206.1426510000017,
          "velocity": 0.7874015748031497,
          "duration": 0.10714275000000839
        },
        {
          "name": "G4",
          "midi": 67,
          "time": 206.35693650000172,
          "velocity": 0.7874015748031497,
          "duration": 0.10714275000000839
        },
        {
          "name": "G#4",
          "midi": 68,
          "time": 206.99979300000174,
          "velocity": 0.7874015748031497,
          "duration": 0.10714275000000839
        },
        {
          "name": "C5",
          "midi": 72,
          "time": 207.85693500000176,
          "velocity": 0.7874015748031497,
          "duration": 0.10714275000000839
        },
        {
          "name": "G4",
          "midi": 67,
          "time": 208.07122050000177,
          "velocity": 0.7874015748031497,
          "duration": 0.10714275000000839
        },
        {
          "name": "G4",
          "midi": 67,
          "time": 208.2855060000018,
          "velocity": 0.7874015748031497,
          "duration": 0.10714275000000839
        },
        {
          "name": "G4",
          "midi": 67,
          "time": 208.4997915000018,
          "velocity": 0.7874015748031497,
          "duration": 0.10714275000000839
        },
        {
          "name": "C5",
          "midi": 72,
          "time": 208.71407700000182,
          "velocity": 0.7874015748031497,
          "duration": 0.10714275000000839
        },
        {
          "name": "C5",
          "midi": 72,
          "time": 208.92836250000184,
          "velocity": 0.7874015748031497,
          "duration": 0.10714275000000839
        },
        {
          "name": "C5",
          "midi": 72,
          "time": 209.14264800000186,
          "velocity": 0.7874015748031497,
          "duration": 0.10714275000000839
        },
        {
          "name": "G4",
          "midi": 67,
          "time": 209.57121900000186,
          "velocity": 0.7874015748031497,
          "duration": 0.10714275000000839
        },
        {
          "name": "G4",
          "midi": 67,
          "time": 209.78550450000188,
          "velocity": 0.7874015748031497,
          "duration": 0.10714275000000839
        },
        {
          "name": "G#4",
          "midi": 68,
          "time": 210.4283610000019,
          "velocity": 0.7874015748031497,
          "duration": 0.10714275000000839
        },
        {
          "name": "C5",
          "midi": 72,
          "time": 211.2855030000019,
          "velocity": 0.7874015748031497,
          "duration": 0.10714275000000839
        },
        {
          "name": "G4",
          "midi": 67,
          "time": 211.49978850000193,
          "velocity": 0.7874015748031497,
          "duration": 0.10714275000000839
        },
        {
          "name": "G4",
          "midi": 67,
          "time": 211.71407400000194,
          "velocity": 0.7874015748031497,
          "duration": 0.10714275000000839
        },
        {
          "name": "G4",
          "midi": 67,
          "time": 211.92835950000196,
          "velocity": 0.7874015748031497,
          "duration": 0.10714275000000839
        },
        {
          "name": "C5",
          "midi": 72,
          "time": 212.14264500000198,
          "velocity": 0.7874015748031497,
          "duration": 0.10714275000000839
        },
        {
          "name": "C5",
          "midi": 72,
          "time": 212.356930500002,
          "velocity": 0.7874015748031497,
          "duration": 0.10714275000000839
        },
        {
          "name": "C5",
          "midi": 72,
          "time": 212.571216000002,
          "velocity": 0.7874015748031497,
          "duration": 0.10714275000000839
        },
        {
          "name": "G4",
          "midi": 67,
          "time": 212.99978700000202,
          "velocity": 0.7874015748031497,
          "duration": 0.10714275000000839
        },
        {
          "name": "G4",
          "midi": 67,
          "time": 213.21407250000203,
          "velocity": 0.7874015748031497,
          "duration": 0.10714275000000839
        },
        {
          "name": "G#4",
          "midi": 68,
          "time": 213.85692900000205,
          "velocity": 0.7874015748031497,
          "duration": 0.10714275000000839
        },
        {
          "name": "C5",
          "midi": 72,
          "time": 214.71407100000206,
          "velocity": 0.7874015748031497,
          "duration": 0.10714275000000839
        },
        {
          "name": "G4",
          "midi": 67,
          "time": 214.92835650000208,
          "velocity": 0.7874015748031497,
          "duration": 0.10714275000000839
        },
        {
          "name": "G4",
          "midi": 67,
          "time": 215.1426420000021,
          "velocity": 0.7874015748031497,
          "duration": 0.10714275000000839
        },
        {
          "name": "G4",
          "midi": 67,
          "time": 215.35692750000212,
          "velocity": 0.7874015748031497,
          "duration": 0.10714275000000839
        },
        {
          "name": "C5",
          "midi": 72,
          "time": 215.57121300000213,
          "velocity": 0.7874015748031497,
          "duration": 0.10714275000000839
        },
        {
          "name": "C5",
          "midi": 72,
          "time": 215.78549850000215,
          "velocity": 0.7874015748031497,
          "duration": 0.10714275000000839
        },
        {
          "name": "C5",
          "midi": 72,
          "time": 215.99978400000217,
          "velocity": 0.7874015748031497,
          "duration": 0.10714275000000839
        },
        {
          "name": "G4",
          "midi": 67,
          "time": 216.42835500000217,
          "velocity": 0.7874015748031497,
          "duration": 0.10714275000000839
        },
        {
          "name": "G4",
          "midi": 67,
          "time": 216.6426405000022,
          "velocity": 0.7874015748031497,
          "duration": 0.10714275000000839
        },
        {
          "name": "G#4",
          "midi": 68,
          "time": 217.2854970000022,
          "velocity": 0.7874015748031497,
          "duration": 0.10714275000000839
        },
        {
          "name": "C5",
          "midi": 72,
          "time": 218.14263900000222,
          "velocity": 0.7874015748031497,
          "duration": 0.10714275000000839
        },
        {
          "name": "G4",
          "midi": 67,
          "time": 218.35692450000224,
          "velocity": 0.7874015748031497,
          "duration": 0.10714275000000839
        },
        {
          "name": "G4",
          "midi": 67,
          "time": 218.57121000000225,
          "velocity": 0.7874015748031497,
          "duration": 0.10714275000000839
        },
        {
          "name": "G4",
          "midi": 67,
          "time": 218.78549550000227,
          "velocity": 0.7874015748031497,
          "duration": 0.10714275000000839
        },
        {
          "name": "C5",
          "midi": 72,
          "time": 218.9997810000023,
          "velocity": 0.7874015748031497,
          "duration": 0.10714275000000839
        },
        {
          "name": "C5",
          "midi": 72,
          "time": 219.2140665000023,
          "velocity": 0.7874015748031497,
          "duration": 0.10714275000000839
        }
      ],
      "controlChanges": {},
      "id": 0,
      "name": "Steel Drums",
      "instrumentNumber": 114,
      "instrument": "steel drums",
      "instrumentFamily": "percussive",
      "channelNumber": 0,
      "isPercussion": false
    },
    {
      "startTime": 0,
      "duration": 218.6783527500009,
      "length": 307,
      "notes": [
        {
          "name": "C2",
          "midi": 36,
          "time": 0,
          "velocity": 0.7874015748031497,
          "duration": 0.10714275000000001
        },
        {
          "name": "B1",
          "midi": 35,
          "time": 0,
          "velocity": 0.7874015748031497,
          "duration": 0.10714275000000001
        },
        {
          "name": "C#2",
          "midi": 37,
          "time": 0.8571420000000001,
          "velocity": 0.7874015748031497,
          "duration": 0.10714274999999995
        },
        {
          "name": "C#2",
          "midi": 37,
          "time": 2.571426,
          "velocity": 0.7874015748031497,
          "duration": 0.10714274999999995
        },
        {
          "name": "C#2",
          "midi": 37,
          "time": 4.28571,
          "velocity": 0.7874015748031497,
          "duration": 0.1071427500000004
        },
        {
          "name": "C#2",
          "midi": 37,
          "time": 5.999994000000001,
          "velocity": 0.7874015748031497,
          "duration": 0.1071427500000004
        },
        {
          "name": "C2",
          "midi": 36,
          "time": 6.8571360000000015,
          "velocity": 0.7874015748031497,
          "duration": 0.1071427500000004
        },
        {
          "name": "B1",
          "midi": 35,
          "time": 6.8571360000000015,
          "velocity": 0.7874015748031497,
          "duration": 0.1071427500000004
        },
        {
          "name": "C#2",
          "midi": 37,
          "time": 7.714278000000002,
          "velocity": 0.7874015748031497,
          "duration": 0.1071427500000004
        },
        {
          "name": "C#2",
          "midi": 37,
          "time": 9.428562000000003,
          "velocity": 0.7874015748031497,
          "duration": 0.10714274999999951
        },
        {
          "name": "C#2",
          "midi": 37,
          "time": 11.142846000000002,
          "velocity": 0.7874015748031497,
          "duration": 0.10714274999999951
        },
        {
          "name": "C#2",
          "midi": 37,
          "time": 12.857130000000002,
          "velocity": 0.7874015748031497,
          "duration": 0.10714274999999951
        },
        {
          "name": "C2",
          "midi": 36,
          "time": 13.714272000000001,
          "velocity": 0.7874015748031497,
          "duration": 0.10714274999999951
        },
        {
          "name": "B1",
          "midi": 35,
          "time": 13.714272000000001,
          "velocity": 0.7874015748031497,
          "duration": 0.10714274999999951
        },
        {
          "name": "C#2",
          "midi": 37,
          "time": 14.571414,
          "velocity": 0.7874015748031497,
          "duration": 0.10714274999999951
        },
        {
          "name": "D#5",
          "midi": 75,
          "time": 15.428556,
          "velocity": 0.7874015748031497,
          "duration": 0.10714274999999951
        },
        {
          "name": "D#5",
          "midi": 75,
          "time": 16.0714125,
          "velocity": 0.7874015748031497,
          "duration": 0.10714275000000129
        },
        {
          "name": "C#2",
          "midi": 37,
          "time": 16.285698000000004,
          "velocity": 0.7874015748031497,
          "duration": 0.10714275000000129
        },
        {
          "name": "D#5",
          "midi": 75,
          "time": 16.714269000000005,
          "velocity": 0.7874015748031497,
          "duration": 0.10714275000000129
        },
        {
          "name": "C#2",
          "midi": 37,
          "time": 17.999982000000006,
          "velocity": 0.7874015748031497,
          "duration": 0.10714275000000129
        },
        {
          "name": "D#5",
          "midi": 75,
          "time": 18.857124000000006,
          "velocity": 0.7874015748031497,
          "duration": 0.10714275000000129
        },
        {
          "name": "D#5",
          "midi": 75,
          "time": 19.499980500000007,
          "velocity": 0.7874015748031497,
          "duration": 0.10714275000000129
        },
        {
          "name": "C#2",
          "midi": 37,
          "time": 19.71426600000001,
          "velocity": 0.7874015748031497,
          "duration": 0.10714275000000129
        },
        {
          "name": "D#5",
          "midi": 75,
          "time": 20.14283700000001,
          "velocity": 0.7874015748031497,
          "duration": 0.10714275000000129
        },
        {
          "name": "C2",
          "midi": 36,
          "time": 20.571408000000012,
          "velocity": 0.7874015748031497,
          "duration": 0.10714275000000129
        },
        {
          "name": "B1",
          "midi": 35,
          "time": 20.571408000000012,
          "velocity": 0.7874015748031497,
          "duration": 0.10714275000000129
        },
        {
          "name": "C#2",
          "midi": 37,
          "time": 21.428550000000016,
          "velocity": 0.7874015748031497,
          "duration": 0.10714275000000129
        },
        {
          "name": "D#5",
          "midi": 75,
          "time": 22.28569200000002,
          "velocity": 0.7874015748031497,
          "duration": 0.10714275000000129
        },
        {
          "name": "D#5",
          "midi": 75,
          "time": 22.92854850000002,
          "velocity": 0.7874015748031497,
          "duration": 0.10714275000000129
        },
        {
          "name": "C#2",
          "midi": 37,
          "time": 23.142834000000022,
          "velocity": 0.7874015748031497,
          "duration": 0.10714275000000129
        },
        {
          "name": "D#5",
          "midi": 75,
          "time": 23.571405000000023,
          "velocity": 0.7874015748031497,
          "duration": 0.10714275000000129
        },
        {
          "name": "C#2",
          "midi": 37,
          "time": 24.857118000000025,
          "velocity": 0.7874015748031497,
          "duration": 0.10714275000000129
        },
        {
          "name": "D#5",
          "midi": 75,
          "time": 25.714260000000024,
          "velocity": 0.7874015748031497,
          "duration": 0.10714275000000129
        },
        {
          "name": "D#5",
          "midi": 75,
          "time": 26.357116500000025,
          "velocity": 0.7874015748031497,
          "duration": 0.10714275000000129
        },
        {
          "name": "C#2",
          "midi": 37,
          "time": 26.571402000000027,
          "velocity": 0.7874015748031497,
          "duration": 0.10714275000000129
        },
        {
          "name": "D#5",
          "midi": 75,
          "time": 26.99997300000003,
          "velocity": 0.7874015748031497,
          "duration": 0.10714275000000129
        },
        {
          "name": "C2",
          "midi": 36,
          "time": 27.42854400000003,
          "velocity": 0.7874015748031497,
          "duration": 0.10714275000000129
        },
        {
          "name": "B1",
          "midi": 35,
          "time": 27.42854400000003,
          "velocity": 0.7874015748031497,
          "duration": 0.10714275000000129
        },
        {
          "name": "C#2",
          "midi": 37,
          "time": 28.285686000000034,
          "velocity": 0.7874015748031497,
          "duration": 0.10714275000000129
        },
        {
          "name": "C#2",
          "midi": 37,
          "time": 29.999970000000037,
          "velocity": 0.7874015748031497,
          "duration": 0.10714275000000129
        },
        {
          "name": "C#2",
          "midi": 37,
          "time": 31.71425400000004,
          "velocity": 0.7874015748031497,
          "duration": 0.10714275000000129
        },
        {
          "name": "C#2",
          "midi": 37,
          "time": 33.42853800000004,
          "velocity": 0.7874015748031497,
          "duration": 0.10714275000000129
        },
        {
          "name": "C2",
          "midi": 36,
          "time": 34.28568000000004,
          "velocity": 0.7874015748031497,
          "duration": 0.10714275000000129
        },
        {
          "name": "B1",
          "midi": 35,
          "time": 34.28568000000004,
          "velocity": 0.7874015748031497,
          "duration": 0.10714275000000129
        },
        {
          "name": "C#2",
          "midi": 37,
          "time": 35.142822000000045,
          "velocity": 0.7874015748031497,
          "duration": 0.10714275000000129
        },
        {
          "name": "C#2",
          "midi": 37,
          "time": 36.857106000000044,
          "velocity": 0.7874015748031497,
          "duration": 0.10714275000000129
        },
        {
          "name": "C#2",
          "midi": 37,
          "time": 38.571390000000044,
          "velocity": 0.7874015748031497,
          "duration": 0.10714275000000129
        },
        {
          "name": "C#2",
          "midi": 37,
          "time": 40.28567400000004,
          "velocity": 0.7874015748031497,
          "duration": 0.10714275000000129
        },
        {
          "name": "C2",
          "midi": 36,
          "time": 41.142816000000046,
          "velocity": 0.7874015748031497,
          "duration": 0.10714275000000129
        },
        {
          "name": "B1",
          "midi": 35,
          "time": 41.142816000000046,
          "velocity": 0.7874015748031497,
          "duration": 0.10714275000000129
        },
        {
          "name": "C#2",
          "midi": 37,
          "time": 41.99995800000005,
          "velocity": 0.7874015748031497,
          "duration": 0.10714275000000129
        },
        {
          "name": "C#2",
          "midi": 37,
          "time": 43.71424200000005,
          "velocity": 0.7874015748031497,
          "duration": 0.10714275000000129
        },
        {
          "name": "C#2",
          "midi": 37,
          "time": 45.42852600000005,
          "velocity": 0.7874015748031497,
          "duration": 0.10714275000000129
        },
        {
          "name": "C#2",
          "midi": 37,
          "time": 47.14281000000005,
          "velocity": 0.7874015748031497,
          "duration": 0.10714275000000129
        },
        {
          "name": "C2",
          "midi": 36,
          "time": 47.99995200000005,
          "velocity": 0.7874015748031497,
          "duration": 0.10714275000000129
        },
        {
          "name": "B1",
          "midi": 35,
          "time": 47.99995200000005,
          "velocity": 0.7874015748031497,
          "duration": 0.10714275000000129
        },
        {
          "name": "C#2",
          "midi": 37,
          "time": 48.85709400000005,
          "velocity": 0.7874015748031497,
          "duration": 0.10714275000000129
        },
        {
          "name": "C#2",
          "midi": 37,
          "time": 50.57137800000005,
          "velocity": 0.7874015748031497,
          "duration": 0.10714275000000129
        },
        {
          "name": "C#2",
          "midi": 37,
          "time": 52.28566200000005,
          "velocity": 0.7874015748031497,
          "duration": 0.10714275000000129
        },
        {
          "name": "C#2",
          "midi": 37,
          "time": 53.99994600000005,
          "velocity": 0.7874015748031497,
          "duration": 0.10714275000000129
        },
        {
          "name": "C2",
          "midi": 36,
          "time": 54.857088000000054,
          "velocity": 0.7874015748031497,
          "duration": 0.10714275000000129
        },
        {
          "name": "A#2",
          "midi": 46,
          "time": 54.857088000000054,
          "velocity": 0.7874015748031497,
          "duration": 0.10714275000000129
        },
        {
          "name": "B1",
          "midi": 35,
          "time": 54.857088000000054,
          "velocity": 0.7874015748031497,
          "duration": 0.10714275000000129
        },
        {
          "name": "C#2",
          "midi": 37,
          "time": 55.71423000000006,
          "velocity": 0.7874015748031497,
          "duration": 0.10714275000000129
        },
        {
          "name": "A#2",
          "midi": 46,
          "time": 56.142801000000055,
          "velocity": 0.7874015748031497,
          "duration": 0.10714275000000129
        },
        {
          "name": "C2",
          "midi": 36,
          "time": 56.142801000000055,
          "velocity": 0.7874015748031497,
          "duration": 0.10714275000000129
        },
        {
          "name": "A#2",
          "midi": 46,
          "time": 56.99994300000006,
          "velocity": 0.7874015748031497,
          "duration": 0.10714275000000129
        },
        {
          "name": "C2",
          "midi": 36,
          "time": 56.99994300000006,
          "velocity": 0.7874015748031497,
          "duration": 0.10714275000000129
        },
        {
          "name": "C#2",
          "midi": 37,
          "time": 57.42851400000006,
          "velocity": 0.7874015748031497,
          "duration": 0.10714275000000129
        },
        {
          "name": "A#2",
          "midi": 46,
          "time": 57.64279950000006,
          "velocity": 0.7874015748031497,
          "duration": 0.10714275000000129
        },
        {
          "name": "C2",
          "midi": 36,
          "time": 57.64279950000006,
          "velocity": 0.7874015748031497,
          "duration": 0.10714275000000129
        },
        {
          "name": "A#2",
          "midi": 46,
          "time": 58.28565600000006,
          "velocity": 0.7874015748031497,
          "duration": 0.10714275000000129
        },
        {
          "name": "C2",
          "midi": 36,
          "time": 58.28565600000006,
          "velocity": 0.7874015748031497,
          "duration": 0.10714275000000129
        },
        {
          "name": "C#2",
          "midi": 37,
          "time": 59.14279800000006,
          "velocity": 0.7874015748031497,
          "duration": 0.10714275000000129
        },
        {
          "name": "C2",
          "midi": 36,
          "time": 59.57136900000006,
          "velocity": 0.7874015748031497,
          "duration": 0.10714275000000129
        },
        {
          "name": "A#2",
          "midi": 46,
          "time": 59.57136900000006,
          "velocity": 0.7874015748031497,
          "duration": 0.10714275000000129
        },
        {
          "name": "A#2",
          "midi": 46,
          "time": 60.428511000000064,
          "velocity": 0.7874015748031497,
          "duration": 0.10714275000000129
        },
        {
          "name": "C2",
          "midi": 36,
          "time": 60.428511000000064,
          "velocity": 0.7874015748031497,
          "duration": 0.10714275000000129
        },
        {
          "name": "C#2",
          "midi": 37,
          "time": 60.85708200000006,
          "velocity": 0.7874015748031497,
          "duration": 0.10714275000000129
        },
        {
          "name": "C2",
          "midi": 36,
          "time": 61.071367500000065,
          "velocity": 0.7874015748031497,
          "duration": 0.10714275000000129
        },
        {
          "name": "A#2",
          "midi": 46,
          "time": 61.071367500000065,
          "velocity": 0.7874015748031497,
          "duration": 0.10714275000000129
        },
        {
          "name": "C2",
          "midi": 36,
          "time": 61.714224000000065,
          "velocity": 0.7874015748031497,
          "duration": 0.10714275000000129
        },
        {
          "name": "B1",
          "midi": 35,
          "time": 61.714224000000065,
          "velocity": 0.7874015748031497,
          "duration": 0.10714275000000129
        },
        {
          "name": "C#2",
          "midi": 37,
          "time": 62.57136600000007,
          "velocity": 0.7874015748031497,
          "duration": 0.10714275000000129
        },
        {
          "name": "C#2",
          "midi": 37,
          "time": 64.28565000000008,
          "velocity": 0.7874015748031497,
          "duration": 0.10714274999999418
        },
        {
          "name": "C#2",
          "midi": 37,
          "time": 65.99993400000007,
          "velocity": 0.7874015748031497,
          "duration": 0.10714274999999418
        },
        {
          "name": "C#2",
          "midi": 37,
          "time": 67.71421800000006,
          "velocity": 0.7874015748031497,
          "duration": 0.10714274999999418
        },
        {
          "name": "C2",
          "midi": 36,
          "time": 68.57136000000006,
          "velocity": 0.7874015748031497,
          "duration": 0.10714274999999418
        },
        {
          "name": "B1",
          "midi": 35,
          "time": 68.57136000000006,
          "velocity": 0.7874015748031497,
          "duration": 0.10714274999999418
        },
        {
          "name": "C#2",
          "midi": 37,
          "time": 69.42850200000005,
          "velocity": 0.7874015748031497,
          "duration": 0.10714274999999418
        },
        {
          "name": "D#5",
          "midi": 75,
          "time": 70.28564400000005,
          "velocity": 0.7874015748031497,
          "duration": 0.10714274999999418
        },
        {
          "name": "D#5",
          "midi": 75,
          "time": 70.92850050000004,
          "velocity": 0.7874015748031497,
          "duration": 0.10714274999999418
        },
        {
          "name": "C#2",
          "midi": 37,
          "time": 71.14278600000003,
          "velocity": 0.7874015748031497,
          "duration": 0.10714274999999418
        },
        {
          "name": "D#5",
          "midi": 75,
          "time": 71.57135700000002,
          "velocity": 0.7874015748031497,
          "duration": 0.10714274999999418
        },
        {
          "name": "C#2",
          "midi": 37,
          "time": 72.85707000000002,
          "velocity": 0.7874015748031497,
          "duration": 0.10714274999999418
        },
        {
          "name": "D#5",
          "midi": 75,
          "time": 73.71421200000002,
          "velocity": 0.7874015748031497,
          "duration": 0.10714274999999418
        },
        {
          "name": "D#5",
          "midi": 75,
          "time": 74.35706850000001,
          "velocity": 0.7874015748031497,
          "duration": 0.10714274999999418
        },
        {
          "name": "C#2",
          "midi": 37,
          "time": 74.571354,
          "velocity": 0.7874015748031497,
          "duration": 0.10714274999999418
        },
        {
          "name": "D#5",
          "midi": 75,
          "time": 74.99992499999999,
          "velocity": 0.7874015748031497,
          "duration": 0.10714274999999418
        },
        {
          "name": "C2",
          "midi": 36,
          "time": 75.42849599999998,
          "velocity": 0.7874015748031497,
          "duration": 0.10714274999999418
        },
        {
          "name": "B1",
          "midi": 35,
          "time": 75.42849599999998,
          "velocity": 0.7874015748031497,
          "duration": 0.10714274999999418
        },
        {
          "name": "C#2",
          "midi": 37,
          "time": 76.28563799999998,
          "velocity": 0.7874015748031497,
          "duration": 0.10714274999999418
        },
        {
          "name": "D#5",
          "midi": 75,
          "time": 77.14277999999997,
          "velocity": 0.7874015748031497,
          "duration": 0.10714274999999418
        },
        {
          "name": "D#5",
          "midi": 75,
          "time": 77.78563649999997,
          "velocity": 0.7874015748031497,
          "duration": 0.10714274999999418
        },
        {
          "name": "C#2",
          "midi": 37,
          "time": 77.99992199999996,
          "velocity": 0.7874015748031497,
          "duration": 0.10714274999999418
        },
        {
          "name": "D#5",
          "midi": 75,
          "time": 78.42849299999995,
          "velocity": 0.7874015748031497,
          "duration": 0.10714274999999418
        },
        {
          "name": "C#2",
          "midi": 37,
          "time": 79.71420599999995,
          "velocity": 0.7874015748031497,
          "duration": 0.10714274999999418
        },
        {
          "name": "D#5",
          "midi": 75,
          "time": 80.57134799999994,
          "velocity": 0.7874015748031497,
          "duration": 0.10714274999999418
        },
        {
          "name": "D#5",
          "midi": 75,
          "time": 81.21420449999994,
          "velocity": 0.7874015748031497,
          "duration": 0.10714274999999418
        },
        {
          "name": "C#2",
          "midi": 37,
          "time": 81.42848999999993,
          "velocity": 0.7874015748031497,
          "duration": 0.10714274999999418
        },
        {
          "name": "D#5",
          "midi": 75,
          "time": 81.85706099999992,
          "velocity": 0.7874015748031497,
          "duration": 0.10714274999999418
        },
        {
          "name": "C2",
          "midi": 36,
          "time": 82.28563199999991,
          "velocity": 0.7874015748031497,
          "duration": 0.10714274999999418
        },
        {
          "name": "B1",
          "midi": 35,
          "time": 82.28563199999991,
          "velocity": 0.7874015748031497,
          "duration": 0.10714274999999418
        },
        {
          "name": "C#2",
          "midi": 37,
          "time": 83.1427739999999,
          "velocity": 0.7874015748031497,
          "duration": 0.10714274999999418
        },
        {
          "name": "C#2",
          "midi": 37,
          "time": 84.8570579999999,
          "velocity": 0.7874015748031497,
          "duration": 0.10714274999999418
        },
        {
          "name": "C#2",
          "midi": 37,
          "time": 86.57134199999989,
          "velocity": 0.7874015748031497,
          "duration": 0.10714274999999418
        },
        {
          "name": "C#2",
          "midi": 37,
          "time": 88.28562599999988,
          "velocity": 0.7874015748031497,
          "duration": 0.10714274999999418
        },
        {
          "name": "C2",
          "midi": 36,
          "time": 89.14276799999988,
          "velocity": 0.7874015748031497,
          "duration": 0.10714274999999418
        },
        {
          "name": "B1",
          "midi": 35,
          "time": 89.14276799999988,
          "velocity": 0.7874015748031497,
          "duration": 0.10714274999999418
        },
        {
          "name": "C#2",
          "midi": 37,
          "time": 89.99990999999987,
          "velocity": 0.7874015748031497,
          "duration": 0.10714274999999418
        },
        {
          "name": "C#2",
          "midi": 37,
          "time": 91.71419399999986,
          "velocity": 0.7874015748031497,
          "duration": 0.10714274999999418
        },
        {
          "name": "C#2",
          "midi": 37,
          "time": 93.42847799999986,
          "velocity": 0.7874015748031497,
          "duration": 0.10714274999999418
        },
        {
          "name": "C#2",
          "midi": 37,
          "time": 95.14276199999985,
          "velocity": 0.7874015748031497,
          "duration": 0.10714274999999418
        },
        {
          "name": "C2",
          "midi": 36,
          "time": 95.99990399999984,
          "velocity": 0.7874015748031497,
          "duration": 0.10714274999999418
        },
        {
          "name": "B1",
          "midi": 35,
          "time": 95.99990399999984,
          "velocity": 0.7874015748031497,
          "duration": 0.10714274999999418
        },
        {
          "name": "C#2",
          "midi": 37,
          "time": 96.85704599999984,
          "velocity": 0.7874015748031497,
          "duration": 0.10714274999999418
        },
        {
          "name": "C#2",
          "midi": 37,
          "time": 98.57132999999983,
          "velocity": 0.7874015748031497,
          "duration": 0.10714274999999418
        },
        {
          "name": "C#2",
          "midi": 37,
          "time": 100.28561399999982,
          "velocity": 0.7874015748031497,
          "duration": 0.10714274999999418
        },
        {
          "name": "C#2",
          "midi": 37,
          "time": 101.99989799999982,
          "velocity": 0.7874015748031497,
          "duration": 0.10714274999999418
        },
        {
          "name": "C2",
          "midi": 36,
          "time": 102.85703999999981,
          "velocity": 0.7874015748031497,
          "duration": 0.10714274999999418
        },
        {
          "name": "B1",
          "midi": 35,
          "time": 102.85703999999981,
          "velocity": 0.7874015748031497,
          "duration": 0.10714274999999418
        },
        {
          "name": "C#2",
          "midi": 37,
          "time": 103.71418199999981,
          "velocity": 0.7874015748031497,
          "duration": 0.10714274999999418
        },
        {
          "name": "C#2",
          "midi": 37,
          "time": 105.4284659999998,
          "velocity": 0.7874015748031497,
          "duration": 0.10714274999999418
        },
        {
          "name": "C#2",
          "midi": 37,
          "time": 107.1427499999998,
          "velocity": 0.7874015748031497,
          "duration": 0.10714274999999418
        },
        {
          "name": "C#2",
          "midi": 37,
          "time": 108.85703399999979,
          "velocity": 0.7874015748031497,
          "duration": 0.10714274999999418
        },
        {
          "name": "C2",
          "midi": 36,
          "time": 109.71417599999978,
          "velocity": 0.7874015748031497,
          "duration": 0.10714274999999418
        },
        {
          "name": "A#2",
          "midi": 46,
          "time": 109.71417599999978,
          "velocity": 0.7874015748031497,
          "duration": 0.10714274999999418
        },
        {
          "name": "B1",
          "midi": 35,
          "time": 109.71417599999978,
          "velocity": 0.7874015748031497,
          "duration": 0.10714274999999418
        },
        {
          "name": "C#2",
          "midi": 37,
          "time": 110.57131799999978,
          "velocity": 0.7874015748031497,
          "duration": 0.10714274999999418
        },
        {
          "name": "A#2",
          "midi": 46,
          "time": 110.99988899999977,
          "velocity": 0.7874015748031497,
          "duration": 0.10714274999999418
        },
        {
          "name": "C2",
          "midi": 36,
          "time": 110.99988899999977,
          "velocity": 0.7874015748031497,
          "duration": 0.10714274999999418
        },
        {
          "name": "A#2",
          "midi": 46,
          "time": 111.85703099999976,
          "velocity": 0.7874015748031497,
          "duration": 0.10714274999999418
        },
        {
          "name": "C2",
          "midi": 36,
          "time": 111.85703099999976,
          "velocity": 0.7874015748031497,
          "duration": 0.10714274999999418
        },
        {
          "name": "C#2",
          "midi": 37,
          "time": 112.28560199999976,
          "velocity": 0.7874015748031497,
          "duration": 0.10714274999999418
        },
        {
          "name": "A#2",
          "midi": 46,
          "time": 112.49988749999974,
          "velocity": 0.7874015748031497,
          "duration": 0.10714274999999418
        },
        {
          "name": "C2",
          "midi": 36,
          "time": 112.49988749999974,
          "velocity": 0.7874015748031497,
          "duration": 0.10714274999999418
        },
        {
          "name": "A#2",
          "midi": 46,
          "time": 113.14274399999974,
          "velocity": 0.7874015748031497,
          "duration": 0.10714274999999418
        },
        {
          "name": "C2",
          "midi": 36,
          "time": 113.14274399999974,
          "velocity": 0.7874015748031497,
          "duration": 0.10714274999999418
        },
        {
          "name": "C#2",
          "midi": 37,
          "time": 113.99988599999973,
          "velocity": 0.7874015748031497,
          "duration": 0.10714274999999418
        },
        {
          "name": "C2",
          "midi": 36,
          "time": 114.42845699999972,
          "velocity": 0.7874015748031497,
          "duration": 0.10714274999999418
        },
        {
          "name": "A#2",
          "midi": 46,
          "time": 114.42845699999972,
          "velocity": 0.7874015748031497,
          "duration": 0.10714274999999418
        },
        {
          "name": "A#2",
          "midi": 46,
          "time": 115.28559899999972,
          "velocity": 0.7874015748031497,
          "duration": 0.10714274999999418
        },
        {
          "name": "C2",
          "midi": 36,
          "time": 115.28559899999972,
          "velocity": 0.7874015748031497,
          "duration": 0.10714274999999418
        },
        {
          "name": "C#2",
          "midi": 37,
          "time": 115.71416999999971,
          "velocity": 0.7874015748031497,
          "duration": 0.10714274999999418
        },
        {
          "name": "C2",
          "midi": 36,
          "time": 115.9284554999997,
          "velocity": 0.7874015748031497,
          "duration": 0.10714274999999418
        },
        {
          "name": "A#2",
          "midi": 46,
          "time": 115.9284554999997,
          "velocity": 0.7874015748031497,
          "duration": 0.10714274999999418
        },
        {
          "name": "C2",
          "midi": 36,
          "time": 116.5713119999997,
          "velocity": 0.7874015748031497,
          "duration": 0.10714274999999418
        },
        {
          "name": "B1",
          "midi": 35,
          "time": 116.5713119999997,
          "velocity": 0.7874015748031497,
          "duration": 0.10714274999999418
        },
        {
          "name": "A#2",
          "midi": 46,
          "time": 116.5713119999997,
          "velocity": 0.7874015748031497,
          "duration": 0.10714274999999418
        },
        {
          "name": "C#2",
          "midi": 37,
          "time": 117.42845399999969,
          "velocity": 0.7874015748031497,
          "duration": 0.10714274999999418
        },
        {
          "name": "A#2",
          "midi": 46,
          "time": 117.85702499999968,
          "velocity": 0.7874015748031497,
          "duration": 0.10714274999999418
        },
        {
          "name": "C2",
          "midi": 36,
          "time": 117.85702499999968,
          "velocity": 0.7874015748031497,
          "duration": 0.10714274999999418
        },
        {
          "name": "A#2",
          "midi": 46,
          "time": 118.71416699999968,
          "velocity": 0.7874015748031497,
          "duration": 0.10714274999999418
        },
        {
          "name": "C2",
          "midi": 36,
          "time": 118.71416699999968,
          "velocity": 0.7874015748031497,
          "duration": 0.10714274999999418
        },
        {
          "name": "C#2",
          "midi": 37,
          "time": 119.14273799999967,
          "velocity": 0.7874015748031497,
          "duration": 0.10714274999999418
        },
        {
          "name": "A#2",
          "midi": 46,
          "time": 119.35702349999966,
          "velocity": 0.7874015748031497,
          "duration": 0.10714274999999418
        },
        {
          "name": "C2",
          "midi": 36,
          "time": 119.35702349999966,
          "velocity": 0.7874015748031497,
          "duration": 0.10714274999999418
        },
        {
          "name": "A#2",
          "midi": 46,
          "time": 119.99987999999965,
          "velocity": 0.7874015748031497,
          "duration": 0.10714274999999418
        },
        {
          "name": "C2",
          "midi": 36,
          "time": 119.99987999999965,
          "velocity": 0.7874015748031497,
          "duration": 0.10714274999999418
        },
        {
          "name": "C#2",
          "midi": 37,
          "time": 120.85702199999965,
          "velocity": 0.7874015748031497,
          "duration": 0.10714274999999418
        },
        {
          "name": "C2",
          "midi": 36,
          "time": 121.28559299999964,
          "velocity": 0.7874015748031497,
          "duration": 0.10714274999999418
        },
        {
          "name": "A#2",
          "midi": 46,
          "time": 121.28559299999964,
          "velocity": 0.7874015748031497,
          "duration": 0.10714274999999418
        },
        {
          "name": "A#2",
          "midi": 46,
          "time": 122.14273499999963,
          "velocity": 0.7874015748031497,
          "duration": 0.10714274999999418
        },
        {
          "name": "C2",
          "midi": 36,
          "time": 122.14273499999963,
          "velocity": 0.7874015748031497,
          "duration": 0.10714274999999418
        },
        {
          "name": "C#2",
          "midi": 37,
          "time": 122.57130599999962,
          "velocity": 0.7874015748031497,
          "duration": 0.10714274999999418
        },
        {
          "name": "C2",
          "midi": 36,
          "time": 122.78559149999961,
          "velocity": 0.7874015748031497,
          "duration": 0.10714274999999418
        },
        {
          "name": "A#2",
          "midi": 46,
          "time": 122.78559149999961,
          "velocity": 0.7874015748031497,
          "duration": 0.10714274999999418
        },
        {
          "name": "C2",
          "midi": 36,
          "time": 123.4284479999996,
          "velocity": 0.7874015748031497,
          "duration": 0.10714274999999418
        },
        {
          "name": "B1",
          "midi": 35,
          "time": 123.4284479999996,
          "velocity": 0.7874015748031497,
          "duration": 0.10714274999999418
        },
        {
          "name": "C#2",
          "midi": 37,
          "time": 124.2855899999996,
          "velocity": 0.7874015748031497,
          "duration": 0.10714274999999418
        },
        {
          "name": "D#5",
          "midi": 75,
          "time": 125.1427319999996,
          "velocity": 0.7874015748031497,
          "duration": 0.10714274999999418
        },
        {
          "name": "D#5",
          "midi": 75,
          "time": 125.78558849999959,
          "velocity": 0.7874015748031497,
          "duration": 0.10714274999999418
        },
        {
          "name": "C#2",
          "midi": 37,
          "time": 125.99987399999958,
          "velocity": 0.7874015748031497,
          "duration": 0.10714274999999418
        },
        {
          "name": "D#5",
          "midi": 75,
          "time": 126.42844499999957,
          "velocity": 0.7874015748031497,
          "duration": 0.10714274999999418
        },
        {
          "name": "C#2",
          "midi": 37,
          "time": 127.71415799999957,
          "velocity": 0.7874015748031497,
          "duration": 0.10714274999999418
        },
        {
          "name": "D#5",
          "midi": 75,
          "time": 128.57129999999955,
          "velocity": 0.7874015748031497,
          "duration": 0.10714275000000839
        },
        {
          "name": "D#5",
          "midi": 75,
          "time": 129.21415649999958,
          "velocity": 0.7874015748031497,
          "duration": 0.10714275000000839
        },
        {
          "name": "C#2",
          "midi": 37,
          "time": 129.4284419999996,
          "velocity": 0.7874015748031497,
          "duration": 0.10714275000000839
        },
        {
          "name": "D#5",
          "midi": 75,
          "time": 129.8570129999996,
          "velocity": 0.7874015748031497,
          "duration": 0.10714275000000839
        },
        {
          "name": "C2",
          "midi": 36,
          "time": 130.2855839999996,
          "velocity": 0.7874015748031497,
          "duration": 0.10714275000000839
        },
        {
          "name": "B1",
          "midi": 35,
          "time": 130.2855839999996,
          "velocity": 0.7874015748031497,
          "duration": 0.10714275000000839
        },
        {
          "name": "C#2",
          "midi": 37,
          "time": 131.1427259999996,
          "velocity": 0.7874015748031497,
          "duration": 0.10714275000000839
        },
        {
          "name": "D#5",
          "midi": 75,
          "time": 131.99986799999962,
          "velocity": 0.7874015748031497,
          "duration": 0.10714275000000839
        },
        {
          "name": "D#5",
          "midi": 75,
          "time": 132.64272449999964,
          "velocity": 0.7874015748031497,
          "duration": 0.10714275000000839
        },
        {
          "name": "C#2",
          "midi": 37,
          "time": 132.85700999999966,
          "velocity": 0.7874015748031497,
          "duration": 0.10714275000000839
        },
        {
          "name": "D#5",
          "midi": 75,
          "time": 133.28558099999967,
          "velocity": 0.7874015748031497,
          "duration": 0.10714275000000839
        },
        {
          "name": "C#2",
          "midi": 37,
          "time": 134.57129399999968,
          "velocity": 0.7874015748031497,
          "duration": 0.10714275000000839
        },
        {
          "name": "D#5",
          "midi": 75,
          "time": 135.4284359999997,
          "velocity": 0.7874015748031497,
          "duration": 0.10714275000000839
        },
        {
          "name": "D#5",
          "midi": 75,
          "time": 136.0712924999997,
          "velocity": 0.7874015748031497,
          "duration": 0.10714275000000839
        },
        {
          "name": "C#2",
          "midi": 37,
          "time": 136.28557799999973,
          "velocity": 0.7874015748031497,
          "duration": 0.10714275000000839
        },
        {
          "name": "D#5",
          "midi": 75,
          "time": 136.71414899999974,
          "velocity": 0.7874015748031497,
          "duration": 0.10714275000000839
        },
        {
          "name": "C2",
          "midi": 36,
          "time": 137.14271999999974,
          "velocity": 0.7874015748031497,
          "duration": 0.10714275000000839
        },
        {
          "name": "B1",
          "midi": 35,
          "time": 137.14271999999974,
          "velocity": 0.7874015748031497,
          "duration": 0.10714275000000839
        },
        {
          "name": "C#2",
          "midi": 37,
          "time": 137.99986199999975,
          "velocity": 0.7874015748031497,
          "duration": 0.10714275000000839
        },
        {
          "name": "C#2",
          "midi": 37,
          "time": 139.71414599999977,
          "velocity": 0.7874015748031497,
          "duration": 0.10714275000000839
        },
        {
          "name": "C#2",
          "midi": 37,
          "time": 141.4284299999998,
          "velocity": 0.7874015748031497,
          "duration": 0.10714275000000839
        },
        {
          "name": "C#2",
          "midi": 37,
          "time": 143.1427139999998,
          "velocity": 0.7874015748031497,
          "duration": 0.10714275000000839
        },
        {
          "name": "C2",
          "midi": 36,
          "time": 143.99985599999982,
          "velocity": 0.7874015748031497,
          "duration": 0.10714275000000839
        },
        {
          "name": "B1",
          "midi": 35,
          "time": 143.99985599999982,
          "velocity": 0.7874015748031497,
          "duration": 0.10714275000000839
        },
        {
          "name": "C#2",
          "midi": 37,
          "time": 144.85699799999983,
          "velocity": 0.7874015748031497,
          "duration": 0.10714275000000839
        },
        {
          "name": "C#2",
          "midi": 37,
          "time": 146.57128199999985,
          "velocity": 0.7874015748031497,
          "duration": 0.10714275000000839
        },
        {
          "name": "C#2",
          "midi": 37,
          "time": 148.28556599999987,
          "velocity": 0.7874015748031497,
          "duration": 0.10714275000000839
        },
        {
          "name": "C#2",
          "midi": 37,
          "time": 149.9998499999999,
          "velocity": 0.7874015748031497,
          "duration": 0.10714275000000839
        },
        {
          "name": "C2",
          "midi": 36,
          "time": 150.8569919999999,
          "velocity": 0.7874015748031497,
          "duration": 0.10714275000000839
        },
        {
          "name": "B1",
          "midi": 35,
          "time": 150.8569919999999,
          "velocity": 0.7874015748031497,
          "duration": 0.10714275000000839
        },
        {
          "name": "C#2",
          "midi": 37,
          "time": 151.71413399999992,
          "velocity": 0.7874015748031497,
          "duration": 0.10714275000000839
        },
        {
          "name": "C#2",
          "midi": 37,
          "time": 153.42841799999994,
          "velocity": 0.7874015748031497,
          "duration": 0.10714275000000839
        },
        {
          "name": "C#2",
          "midi": 37,
          "time": 155.14270199999996,
          "velocity": 0.7874015748031497,
          "duration": 0.10714275000000839
        },
        {
          "name": "C#2",
          "midi": 37,
          "time": 156.85698599999998,
          "velocity": 0.7874015748031497,
          "duration": 0.10714275000000839
        },
        {
          "name": "C2",
          "midi": 36,
          "time": 157.714128,
          "velocity": 0.7874015748031497,
          "duration": 0.10714275000000839
        },
        {
          "name": "B1",
          "midi": 35,
          "time": 157.714128,
          "velocity": 0.7874015748031497,
          "duration": 0.10714275000000839
        },
        {
          "name": "C#2",
          "midi": 37,
          "time": 158.57127,
          "velocity": 0.7874015748031497,
          "duration": 0.10714275000000839
        },
        {
          "name": "C#2",
          "midi": 37,
          "time": 160.28555400000002,
          "velocity": 0.7874015748031497,
          "duration": 0.10714275000000839
        },
        {
          "name": "C#2",
          "midi": 37,
          "time": 161.99983800000004,
          "velocity": 0.7874015748031497,
          "duration": 0.10714275000000839
        },
        {
          "name": "C#2",
          "midi": 37,
          "time": 163.71412200000006,
          "velocity": 0.7874015748031497,
          "duration": 0.10714275000000839
        },
        {
          "name": "C2",
          "midi": 36,
          "time": 164.57126400000007,
          "velocity": 0.7874015748031497,
          "duration": 0.10714275000000839
        },
        {
          "name": "A#2",
          "midi": 46,
          "time": 164.57126400000007,
          "velocity": 0.7874015748031497,
          "duration": 0.10714275000000839
        },
        {
          "name": "B1",
          "midi": 35,
          "time": 164.57126400000007,
          "velocity": 0.7874015748031497,
          "duration": 0.10714275000000839
        },
        {
          "name": "C#2",
          "midi": 37,
          "time": 165.42840600000008,
          "velocity": 0.7874015748031497,
          "duration": 0.10714275000000839
        },
        {
          "name": "A#2",
          "midi": 46,
          "time": 165.8569770000001,
          "velocity": 0.7874015748031497,
          "duration": 0.10714275000000839
        },
        {
          "name": "C2",
          "midi": 36,
          "time": 165.8569770000001,
          "velocity": 0.7874015748031497,
          "duration": 0.10714275000000839
        },
        {
          "name": "A#2",
          "midi": 46,
          "time": 166.7141190000001,
          "velocity": 0.7874015748031497,
          "duration": 0.10714275000000839
        },
        {
          "name": "C2",
          "midi": 36,
          "time": 166.7141190000001,
          "velocity": 0.7874015748031497,
          "duration": 0.10714275000000839
        },
        {
          "name": "C#2",
          "midi": 37,
          "time": 167.1426900000001,
          "velocity": 0.7874015748031497,
          "duration": 0.10714275000000839
        },
        {
          "name": "A#2",
          "midi": 46,
          "time": 167.35697550000012,
          "velocity": 0.7874015748031497,
          "duration": 0.10714275000000839
        },
        {
          "name": "C2",
          "midi": 36,
          "time": 167.35697550000012,
          "velocity": 0.7874015748031497,
          "duration": 0.10714275000000839
        },
        {
          "name": "A#2",
          "midi": 46,
          "time": 167.99983200000014,
          "velocity": 0.7874015748031497,
          "duration": 0.10714275000000839
        },
        {
          "name": "C2",
          "midi": 36,
          "time": 167.99983200000014,
          "velocity": 0.7874015748031497,
          "duration": 0.10714275000000839
        },
        {
          "name": "C#2",
          "midi": 37,
          "time": 168.85697400000015,
          "velocity": 0.7874015748031497,
          "duration": 0.10714275000000839
        },
        {
          "name": "C2",
          "midi": 36,
          "time": 169.28554500000016,
          "velocity": 0.7874015748031497,
          "duration": 0.10714275000000839
        },
        {
          "name": "A#2",
          "midi": 46,
          "time": 169.28554500000016,
          "velocity": 0.7874015748031497,
          "duration": 0.10714275000000839
        },
        {
          "name": "A#2",
          "midi": 46,
          "time": 170.14268700000017,
          "velocity": 0.7874015748031497,
          "duration": 0.10714275000000839
        },
        {
          "name": "C2",
          "midi": 36,
          "time": 170.14268700000017,
          "velocity": 0.7874015748031497,
          "duration": 0.10714275000000839
        },
        {
          "name": "C#2",
          "midi": 37,
          "time": 170.57125800000017,
          "velocity": 0.7874015748031497,
          "duration": 0.10714275000000839
        },
        {
          "name": "C2",
          "midi": 36,
          "time": 170.7855435000002,
          "velocity": 0.7874015748031497,
          "duration": 0.10714275000000839
        },
        {
          "name": "A#2",
          "midi": 46,
          "time": 170.7855435000002,
          "velocity": 0.7874015748031497,
          "duration": 0.10714275000000839
        },
        {
          "name": "C2",
          "midi": 36,
          "time": 171.4284000000002,
          "velocity": 0.7874015748031497,
          "duration": 0.10714275000000839
        },
        {
          "name": "A#2",
          "midi": 46,
          "time": 171.4284000000002,
          "velocity": 0.7874015748031497,
          "duration": 0.10714275000000839
        },
        {
          "name": "B1",
          "midi": 35,
          "time": 171.4284000000002,
          "velocity": 0.7874015748031497,
          "duration": 0.10714275000000839
        },
        {
          "name": "C#2",
          "midi": 37,
          "time": 172.28554200000022,
          "velocity": 0.7874015748031497,
          "duration": 0.10714275000000839
        },
        {
          "name": "A#2",
          "midi": 46,
          "time": 172.71411300000022,
          "velocity": 0.7874015748031497,
          "duration": 0.10714275000000839
        },
        {
          "name": "C2",
          "midi": 36,
          "time": 172.71411300000022,
          "velocity": 0.7874015748031497,
          "duration": 0.10714275000000839
        },
        {
          "name": "A#2",
          "midi": 46,
          "time": 173.57125500000024,
          "velocity": 0.7874015748031497,
          "duration": 0.10714275000000839
        },
        {
          "name": "C2",
          "midi": 36,
          "time": 173.57125500000024,
          "velocity": 0.7874015748031497,
          "duration": 0.10714275000000839
        },
        {
          "name": "C#2",
          "midi": 37,
          "time": 173.99982600000024,
          "velocity": 0.7874015748031497,
          "duration": 0.10714275000000839
        },
        {
          "name": "A#2",
          "midi": 46,
          "time": 174.21411150000026,
          "velocity": 0.7874015748031497,
          "duration": 0.10714275000000839
        },
        {
          "name": "C2",
          "midi": 36,
          "time": 174.21411150000026,
          "velocity": 0.7874015748031497,
          "duration": 0.10714275000000839
        },
        {
          "name": "C#2",
          "midi": 37,
          "time": 175.71411000000026,
          "velocity": 0.7874015748031497,
          "duration": 0.10714275000000839
        },
        {
          "name": "C#2",
          "midi": 37,
          "time": 177.42839400000028,
          "velocity": 0.7874015748031497,
          "duration": 0.10714275000000839
        },
        {
          "name": "C2",
          "midi": 36,
          "time": 178.2855360000003,
          "velocity": 0.7874015748031497,
          "duration": 0.10714275000000839
        },
        {
          "name": "B1",
          "midi": 35,
          "time": 178.2855360000003,
          "velocity": 0.7874015748031497,
          "duration": 0.10714275000000839
        },
        {
          "name": "C#2",
          "midi": 37,
          "time": 179.1426780000003,
          "velocity": 0.7874015748031497,
          "duration": 0.10714275000000839
        },
        {
          "name": "D#5",
          "midi": 75,
          "time": 179.9998200000003,
          "velocity": 0.7874015748031497,
          "duration": 0.10714275000000839
        },
        {
          "name": "D#5",
          "midi": 75,
          "time": 180.64267650000033,
          "velocity": 0.7874015748031497,
          "duration": 0.10714275000000839
        },
        {
          "name": "C#2",
          "midi": 37,
          "time": 180.85696200000035,
          "velocity": 0.7874015748031497,
          "duration": 0.10714275000000839
        },
        {
          "name": "D#5",
          "midi": 75,
          "time": 181.28553300000036,
          "velocity": 0.7874015748031497,
          "duration": 0.10714275000000839
        },
        {
          "name": "C#2",
          "midi": 37,
          "time": 182.57124600000037,
          "velocity": 0.7874015748031497,
          "duration": 0.10714275000000839
        },
        {
          "name": "D#5",
          "midi": 75,
          "time": 183.42838800000038,
          "velocity": 0.7874015748031497,
          "duration": 0.10714275000000839
        },
        {
          "name": "D#5",
          "midi": 75,
          "time": 184.0712445000004,
          "velocity": 0.7874015748031497,
          "duration": 0.10714275000000839
        },
        {
          "name": "C#2",
          "midi": 37,
          "time": 184.28553000000042,
          "velocity": 0.7874015748031497,
          "duration": 0.10714275000000839
        },
        {
          "name": "D#5",
          "midi": 75,
          "time": 184.71410100000043,
          "velocity": 0.7874015748031497,
          "duration": 0.10714275000000839
        },
        {
          "name": "C2",
          "midi": 36,
          "time": 185.14267200000043,
          "velocity": 0.7874015748031497,
          "duration": 0.10714275000000839
        },
        {
          "name": "B1",
          "midi": 35,
          "time": 185.14267200000043,
          "velocity": 0.7874015748031497,
          "duration": 0.10714275000000839
        },
        {
          "name": "C#2",
          "midi": 37,
          "time": 185.99981400000044,
          "velocity": 0.7874015748031497,
          "duration": 0.10714275000000839
        },
        {
          "name": "D#5",
          "midi": 75,
          "time": 186.85695600000045,
          "velocity": 0.7874015748031497,
          "duration": 0.10714275000000839
        },
        {
          "name": "D#5",
          "midi": 75,
          "time": 187.49981250000047,
          "velocity": 0.7874015748031497,
          "duration": 0.10714275000000839
        },
        {
          "name": "C#2",
          "midi": 37,
          "time": 187.7140980000005,
          "velocity": 0.7874015748031497,
          "duration": 0.10714275000000839
        },
        {
          "name": "D#5",
          "midi": 75,
          "time": 188.1426690000005,
          "velocity": 0.7874015748031497,
          "duration": 0.10714275000000839
        },
        {
          "name": "C#2",
          "midi": 37,
          "time": 189.4283820000005,
          "velocity": 0.7874015748031497,
          "duration": 0.10714275000000839
        },
        {
          "name": "D#5",
          "midi": 75,
          "time": 190.28552400000052,
          "velocity": 0.7874015748031497,
          "duration": 0.10714275000000839
        },
        {
          "name": "D#5",
          "midi": 75,
          "time": 190.92838050000054,
          "velocity": 0.7874015748031497,
          "duration": 0.10714275000000839
        },
        {
          "name": "C#2",
          "midi": 37,
          "time": 191.14266600000056,
          "velocity": 0.7874015748031497,
          "duration": 0.10714275000000839
        },
        {
          "name": "D#5",
          "midi": 75,
          "time": 191.57123700000056,
          "velocity": 0.7874015748031497,
          "duration": 0.10714275000000839
        },
        {
          "name": "C2",
          "midi": 36,
          "time": 191.99980800000057,
          "velocity": 0.7874015748031497,
          "duration": 0.10714275000000839
        },
        {
          "name": "B1",
          "midi": 35,
          "time": 191.99980800000057,
          "velocity": 0.7874015748031497,
          "duration": 0.10714275000000839
        },
        {
          "name": "C#2",
          "midi": 37,
          "time": 192.85695000000058,
          "velocity": 0.7874015748031497,
          "duration": 0.10714275000000839
        },
        {
          "name": "C#2",
          "midi": 37,
          "time": 194.5712340000006,
          "velocity": 0.7874015748031497,
          "duration": 0.10714275000000839
        },
        {
          "name": "C#2",
          "midi": 37,
          "time": 196.28551800000062,
          "velocity": 0.7874015748031497,
          "duration": 0.10714275000000839
        },
        {
          "name": "C#2",
          "midi": 37,
          "time": 197.99980200000064,
          "velocity": 0.7874015748031497,
          "duration": 0.10714275000000839
        },
        {
          "name": "C2",
          "midi": 36,
          "time": 198.85694400000065,
          "velocity": 0.7874015748031497,
          "duration": 0.10714275000000839
        },
        {
          "name": "B1",
          "midi": 35,
          "time": 198.85694400000065,
          "velocity": 0.7874015748031497,
          "duration": 0.10714275000000839
        },
        {
          "name": "C#2",
          "midi": 37,
          "time": 199.71408600000066,
          "velocity": 0.7874015748031497,
          "duration": 0.10714275000000839
        },
        {
          "name": "C#2",
          "midi": 37,
          "time": 201.42837000000068,
          "velocity": 0.7874015748031497,
          "duration": 0.10714275000000839
        },
        {
          "name": "C#2",
          "midi": 37,
          "time": 203.1426540000007,
          "velocity": 0.7874015748031497,
          "duration": 0.10714275000000839
        },
        {
          "name": "C#2",
          "midi": 37,
          "time": 204.85693800000072,
          "velocity": 0.7874015748031497,
          "duration": 0.10714275000000839
        },
        {
          "name": "C2",
          "midi": 36,
          "time": 205.71408000000073,
          "velocity": 0.7874015748031497,
          "duration": 0.10714275000000839
        },
        {
          "name": "B1",
          "midi": 35,
          "time": 205.71408000000073,
          "velocity": 0.7874015748031497,
          "duration": 0.10714275000000839
        },
        {
          "name": "C#2",
          "midi": 37,
          "time": 206.57122200000074,
          "velocity": 0.7874015748031497,
          "duration": 0.10714275000000839
        },
        {
          "name": "C#2",
          "midi": 37,
          "time": 208.28550600000077,
          "velocity": 0.7874015748031497,
          "duration": 0.10714275000000839
        },
        {
          "name": "C#2",
          "midi": 37,
          "time": 209.9997900000008,
          "velocity": 0.7874015748031497,
          "duration": 0.10714275000000839
        },
        {
          "name": "C#2",
          "midi": 37,
          "time": 211.7140740000008,
          "velocity": 0.7874015748031497,
          "duration": 0.10714275000000839
        },
        {
          "name": "C2",
          "midi": 36,
          "time": 212.57121600000082,
          "velocity": 0.7874015748031497,
          "duration": 0.10714275000000839
        },
        {
          "name": "B1",
          "midi": 35,
          "time": 212.57121600000082,
          "velocity": 0.7874015748031497,
          "duration": 0.10714275000000839
        },
        {
          "name": "C#2",
          "midi": 37,
          "time": 213.42835800000083,
          "velocity": 0.7874015748031497,
          "duration": 0.10714275000000839
        },
        {
          "name": "C#2",
          "midi": 37,
          "time": 215.14264200000085,
          "velocity": 0.7874015748031497,
          "duration": 0.10714275000000839
        },
        {
          "name": "C#2",
          "midi": 37,
          "time": 216.85692600000087,
          "velocity": 0.7874015748031497,
          "duration": 0.10714275000000839
        },
        {
          "name": "C#2",
          "midi": 37,
          "time": 218.5712100000009,
          "velocity": 0.7874015748031497,
          "duration": 0.10714275000000839
        }
      ],
      "controlChanges": {},
      "id": 1,
      "name": "Electric Drum Kit",
      "instrumentNumber": 118,
      "instrumentFamily": "drums",
      "channelNumber": 9,
      "isPercussion": true
    },
    {
      "startTime": 0,
      "duration": 212.67835874999997,
      "length": 32,
      "notes": [
        {
          "name": "C1",
          "midi": 24,
          "time": 0,
          "velocity": 0.7874015748031497,
          "duration": 0.10714275000000001
        },
        {
          "name": "C1",
          "midi": 24,
          "time": 6.857136000000001,
          "velocity": 0.7874015748031497,
          "duration": 0.1071427500000004
        },
        {
          "name": "C1",
          "midi": 24,
          "time": 13.714272000000001,
          "velocity": 0.7874015748031497,
          "duration": 0.10714274999999951
        },
        {
          "name": "C1",
          "midi": 24,
          "time": 20.571408,
          "velocity": 0.7874015748031497,
          "duration": 0.10714275000000129
        },
        {
          "name": "C1",
          "midi": 24,
          "time": 27.428544000000002,
          "velocity": 0.7874015748031497,
          "duration": 0.10714275000000129
        },
        {
          "name": "C1",
          "midi": 24,
          "time": 34.285680000000006,
          "velocity": 0.7874015748031497,
          "duration": 0.10714275000000129
        },
        {
          "name": "C1",
          "midi": 24,
          "time": 41.14281600000001,
          "velocity": 0.7874015748031497,
          "duration": 0.10714275000000129
        },
        {
          "name": "C1",
          "midi": 24,
          "time": 47.999952000000015,
          "velocity": 0.7874015748031497,
          "duration": 0.10714275000000129
        },
        {
          "name": "C1",
          "midi": 24,
          "time": 54.85708800000002,
          "velocity": 0.7874015748031497,
          "duration": 0.10714275000000129
        },
        {
          "name": "C1",
          "midi": 24,
          "time": 61.71422400000002,
          "velocity": 0.7874015748031497,
          "duration": 0.10714275000000129
        },
        {
          "name": "C1",
          "midi": 24,
          "time": 68.57136000000003,
          "velocity": 0.7874015748031497,
          "duration": 0.10714274999999418
        },
        {
          "name": "C1",
          "midi": 24,
          "time": 75.42849600000002,
          "velocity": 0.7874015748031497,
          "duration": 0.10714274999999418
        },
        {
          "name": "C1",
          "midi": 24,
          "time": 82.28563200000002,
          "velocity": 0.7874015748031497,
          "duration": 0.10714274999999418
        },
        {
          "name": "C1",
          "midi": 24,
          "time": 89.14276800000002,
          "velocity": 0.7874015748031497,
          "duration": 0.10714274999999418
        },
        {
          "name": "C1",
          "midi": 24,
          "time": 95.99990400000002,
          "velocity": 0.7874015748031497,
          "duration": 0.10714274999999418
        },
        {
          "name": "C1",
          "midi": 24,
          "time": 102.85704000000001,
          "velocity": 0.7874015748031497,
          "duration": 0.10714274999999418
        },
        {
          "name": "C1",
          "midi": 24,
          "time": 109.71417600000001,
          "velocity": 0.7874015748031497,
          "duration": 0.10714274999999418
        },
        {
          "name": "C1",
          "midi": 24,
          "time": 116.571312,
          "velocity": 0.7874015748031497,
          "duration": 0.10714274999999418
        },
        {
          "name": "C1",
          "midi": 24,
          "time": 123.428448,
          "velocity": 0.7874015748031497,
          "duration": 0.10714274999999418
        },
        {
          "name": "C1",
          "midi": 24,
          "time": 130.285584,
          "velocity": 0.7874015748031497,
          "duration": 0.10714275000000839
        },
        {
          "name": "C1",
          "midi": 24,
          "time": 137.14272,
          "velocity": 0.7874015748031497,
          "duration": 0.10714275000000839
        },
        {
          "name": "C1",
          "midi": 24,
          "time": 143.999856,
          "velocity": 0.7874015748031497,
          "duration": 0.10714275000000839
        },
        {
          "name": "C1",
          "midi": 24,
          "time": 150.856992,
          "velocity": 0.7874015748031497,
          "duration": 0.10714275000000839
        },
        {
          "name": "C1",
          "midi": 24,
          "time": 157.714128,
          "velocity": 0.7874015748031497,
          "duration": 0.10714275000000839
        },
        {
          "name": "C1",
          "midi": 24,
          "time": 164.57126399999999,
          "velocity": 0.7874015748031497,
          "duration": 0.10714275000000839
        },
        {
          "name": "C1",
          "midi": 24,
          "time": 171.42839999999998,
          "velocity": 0.7874015748031497,
          "duration": 0.10714275000000839
        },
        {
          "name": "C1",
          "midi": 24,
          "time": 178.28553599999998,
          "velocity": 0.7874015748031497,
          "duration": 0.10714275000000839
        },
        {
          "name": "C1",
          "midi": 24,
          "time": 185.14267199999998,
          "velocity": 0.7874015748031497,
          "duration": 0.10714275000000839
        },
        {
          "name": "C1",
          "midi": 24,
          "time": 191.99980799999997,
          "velocity": 0.7874015748031497,
          "duration": 0.10714275000000839
        },
        {
          "name": "C1",
          "midi": 24,
          "time": 198.85694399999997,
          "velocity": 0.7874015748031497,
          "duration": 0.10714275000000839
        },
        {
          "name": "C1",
          "midi": 24,
          "time": 205.71407999999997,
          "velocity": 0.7874015748031497,
          "duration": 0.10714275000000839
        },
        {
          "name": "C1",
          "midi": 24,
          "time": 212.57121599999996,
          "velocity": 0.7874015748031497,
          "duration": 0.10714275000000839
        }
      ],
      "controlChanges": {},
      "id": 2,
      "name": "Elec. Piano (Classic)",
      "instrumentNumber": 4,
      "instrument": "electric piano 1",
      "instrumentFamily": "piano",
      "channelNumber": 1,
      "isPercussion": false
    },
    {
      "startTime": 16.499983500000003,
      "duration": 189.96409575000035,
      "length": 75,
      "notes": [
        {
          "name": "G2",
          "midi": 43,
          "time": 16.499983500000003,
          "velocity": 0.3937007874015748,
          "duration": 0.10714275000000129
        },
        {
          "name": "G2",
          "midi": 43,
          "time": 17.142840000000003,
          "velocity": 0.3937007874015748,
          "duration": 0.10714275000000129
        },
        {
          "name": "G2",
          "midi": 43,
          "time": 18.428553000000004,
          "velocity": 0.3937007874015748,
          "duration": 0.10714275000000129
        },
        {
          "name": "G2",
          "midi": 43,
          "time": 19.285695000000004,
          "velocity": 0.3937007874015748,
          "duration": 0.10714275000000129
        },
        {
          "name": "G2",
          "midi": 43,
          "time": 19.928551500000005,
          "velocity": 0.3937007874015748,
          "duration": 0.10714275000000129
        },
        {
          "name": "C3",
          "midi": 48,
          "time": 21.857121000000006,
          "velocity": 0.3937007874015748,
          "duration": 0.10714275000000129
        },
        {
          "name": "C3",
          "midi": 48,
          "time": 22.71426300000001,
          "velocity": 0.3937007874015748,
          "duration": 0.10714275000000129
        },
        {
          "name": "C3",
          "midi": 48,
          "time": 23.99997600000001,
          "velocity": 0.3937007874015748,
          "duration": 0.10714275000000129
        },
        {
          "name": "C3",
          "midi": 48,
          "time": 25.285689000000012,
          "velocity": 0.3937007874015748,
          "duration": 0.10714275000000129
        },
        {
          "name": "C3",
          "midi": 48,
          "time": 26.142831000000015,
          "velocity": 0.3937007874015748,
          "duration": 0.10714275000000129
        },
        {
          "name": "C3",
          "midi": 48,
          "time": 26.785687500000016,
          "velocity": 0.3937007874015748,
          "duration": 0.10714275000000129
        },
        {
          "name": "G2",
          "midi": 43,
          "time": 43.928527500000015,
          "velocity": 0.3937007874015748,
          "duration": 0.10714275000000129
        },
        {
          "name": "G2",
          "midi": 43,
          "time": 44.571384000000016,
          "velocity": 0.3937007874015748,
          "duration": 0.10714275000000129
        },
        {
          "name": "G2",
          "midi": 43,
          "time": 45.85709700000002,
          "velocity": 0.3937007874015748,
          "duration": 0.10714275000000129
        },
        {
          "name": "G2",
          "midi": 43,
          "time": 46.71423900000002,
          "velocity": 0.3937007874015748,
          "duration": 0.10714275000000129
        },
        {
          "name": "G2",
          "midi": 43,
          "time": 47.35709550000002,
          "velocity": 0.3937007874015748,
          "duration": 0.10714275000000129
        },
        {
          "name": "C3",
          "midi": 48,
          "time": 49.28566500000002,
          "velocity": 0.3937007874015748,
          "duration": 0.10714275000000129
        },
        {
          "name": "C3",
          "midi": 48,
          "time": 50.142807000000026,
          "velocity": 0.3937007874015748,
          "duration": 0.10714275000000129
        },
        {
          "name": "C3",
          "midi": 48,
          "time": 51.42852000000003,
          "velocity": 0.3937007874015748,
          "duration": 0.10714275000000129
        },
        {
          "name": "C3",
          "midi": 48,
          "time": 52.71423300000003,
          "velocity": 0.3937007874015748,
          "duration": 0.10714275000000129
        },
        {
          "name": "C3",
          "midi": 48,
          "time": 53.57137500000003,
          "velocity": 0.3937007874015748,
          "duration": 0.10714275000000129
        },
        {
          "name": "C3",
          "midi": 48,
          "time": 54.21423150000003,
          "velocity": 0.3937007874015748,
          "duration": 0.10714275000000129
        },
        {
          "name": "G2",
          "midi": 43,
          "time": 71.35707150000003,
          "velocity": 0.3937007874015748,
          "duration": 0.10714274999999418
        },
        {
          "name": "G2",
          "midi": 43,
          "time": 71.99992800000003,
          "velocity": 0.3937007874015748,
          "duration": 0.10714274999999418
        },
        {
          "name": "G2",
          "midi": 43,
          "time": 73.28564100000003,
          "velocity": 0.3937007874015748,
          "duration": 0.10714274999999418
        },
        {
          "name": "G2",
          "midi": 43,
          "time": 74.14278300000002,
          "velocity": 0.3937007874015748,
          "duration": 0.10714274999999418
        },
        {
          "name": "G2",
          "midi": 43,
          "time": 74.78563950000002,
          "velocity": 0.3937007874015748,
          "duration": 0.10714274999999418
        },
        {
          "name": "C3",
          "midi": 48,
          "time": 76.71420900000001,
          "velocity": 0.3937007874015748,
          "duration": 0.10714274999999418
        },
        {
          "name": "C3",
          "midi": 48,
          "time": 77.571351,
          "velocity": 0.3937007874015748,
          "duration": 0.10714274999999418
        },
        {
          "name": "C3",
          "midi": 48,
          "time": 78.85706400000001,
          "velocity": 0.3937007874015748,
          "duration": 0.10714274999999418
        },
        {
          "name": "C3",
          "midi": 48,
          "time": 80.14277700000001,
          "velocity": 0.3937007874015748,
          "duration": 0.10714274999999418
        },
        {
          "name": "C3",
          "midi": 48,
          "time": 80.999919,
          "velocity": 0.3937007874015748,
          "duration": 0.10714274999999418
        },
        {
          "name": "C3",
          "midi": 48,
          "time": 81.6427755,
          "velocity": 0.3937007874015748,
          "duration": 0.10714274999999418
        },
        {
          "name": "G2",
          "midi": 43,
          "time": 98.78561549999999,
          "velocity": 0.3937007874015748,
          "duration": 0.10714274999999418
        },
        {
          "name": "G2",
          "midi": 43,
          "time": 99.42847199999999,
          "velocity": 0.3937007874015748,
          "duration": 0.10714274999999418
        },
        {
          "name": "G2",
          "midi": 43,
          "time": 100.71418499999999,
          "velocity": 0.3937007874015748,
          "duration": 0.10714274999999418
        },
        {
          "name": "G2",
          "midi": 43,
          "time": 101.57132699999998,
          "velocity": 0.3937007874015748,
          "duration": 0.10714274999999418
        },
        {
          "name": "G2",
          "midi": 43,
          "time": 102.21418349999998,
          "velocity": 0.3937007874015748,
          "duration": 0.10714274999999418
        },
        {
          "name": "C3",
          "midi": 48,
          "time": 104.14275299999997,
          "velocity": 0.3937007874015748,
          "duration": 0.10714274999999418
        },
        {
          "name": "C3",
          "midi": 48,
          "time": 104.99989499999997,
          "velocity": 0.3937007874015748,
          "duration": 0.10714274999999418
        },
        {
          "name": "C3",
          "midi": 48,
          "time": 106.28560799999997,
          "velocity": 0.3937007874015748,
          "duration": 0.10714274999999418
        },
        {
          "name": "C3",
          "midi": 48,
          "time": 107.57132099999997,
          "velocity": 0.3937007874015748,
          "duration": 0.10714274999999418
        },
        {
          "name": "C3",
          "midi": 48,
          "time": 108.42846299999997,
          "velocity": 0.3937007874015748,
          "duration": 0.10714274999999418
        },
        {
          "name": "C3",
          "midi": 48,
          "time": 109.07131949999996,
          "velocity": 0.3937007874015748,
          "duration": 0.10714274999999418
        },
        {
          "name": "G2",
          "midi": 43,
          "time": 126.21415949999995,
          "velocity": 0.3937007874015748,
          "duration": 0.10714274999999418
        },
        {
          "name": "G2",
          "midi": 43,
          "time": 126.85701599999994,
          "velocity": 0.3937007874015748,
          "duration": 0.10714274999999418
        },
        {
          "name": "G2",
          "midi": 43,
          "time": 128.14272899999995,
          "velocity": 0.3937007874015748,
          "duration": 0.10714275000000839
        },
        {
          "name": "G2",
          "midi": 43,
          "time": 128.99987099999996,
          "velocity": 0.3937007874015748,
          "duration": 0.10714275000000839
        },
        {
          "name": "G2",
          "midi": 43,
          "time": 129.64272749999998,
          "velocity": 0.3937007874015748,
          "duration": 0.10714275000000839
        },
        {
          "name": "C3",
          "midi": 48,
          "time": 131.571297,
          "velocity": 0.3937007874015748,
          "duration": 0.10714275000000839
        },
        {
          "name": "C3",
          "midi": 48,
          "time": 132.428439,
          "velocity": 0.3937007874015748,
          "duration": 0.10714275000000839
        },
        {
          "name": "C3",
          "midi": 48,
          "time": 133.714152,
          "velocity": 0.3937007874015748,
          "duration": 0.10714275000000839
        },
        {
          "name": "C3",
          "midi": 48,
          "time": 134.99986500000003,
          "velocity": 0.3937007874015748,
          "duration": 0.10714275000000839
        },
        {
          "name": "C3",
          "midi": 48,
          "time": 135.85700700000004,
          "velocity": 0.3937007874015748,
          "duration": 0.10714275000000839
        },
        {
          "name": "C3",
          "midi": 48,
          "time": 136.49986350000006,
          "velocity": 0.3937007874015748,
          "duration": 0.10714275000000839
        },
        {
          "name": "G2",
          "midi": 43,
          "time": 153.64270350000007,
          "velocity": 0.3937007874015748,
          "duration": 0.10714275000000839
        },
        {
          "name": "G2",
          "midi": 43,
          "time": 154.2855600000001,
          "velocity": 0.3937007874015748,
          "duration": 0.10714275000000839
        },
        {
          "name": "G2",
          "midi": 43,
          "time": 155.5712730000001,
          "velocity": 0.3937007874015748,
          "duration": 0.10714275000000839
        },
        {
          "name": "G2",
          "midi": 43,
          "time": 156.42841500000011,
          "velocity": 0.3937007874015748,
          "duration": 0.10714275000000839
        },
        {
          "name": "G2",
          "midi": 43,
          "time": 157.07127150000014,
          "velocity": 0.3937007874015748,
          "duration": 0.10714275000000839
        },
        {
          "name": "C3",
          "midi": 48,
          "time": 158.99984100000015,
          "velocity": 0.3937007874015748,
          "duration": 0.10714275000000839
        },
        {
          "name": "C3",
          "midi": 48,
          "time": 159.85698300000016,
          "velocity": 0.3937007874015748,
          "duration": 0.10714275000000839
        },
        {
          "name": "C3",
          "midi": 48,
          "time": 161.14269600000017,
          "velocity": 0.3937007874015748,
          "duration": 0.10714275000000839
        },
        {
          "name": "C3",
          "midi": 48,
          "time": 162.4284090000002,
          "velocity": 0.3937007874015748,
          "duration": 0.10714275000000839
        },
        {
          "name": "C3",
          "midi": 48,
          "time": 163.2855510000002,
          "velocity": 0.3937007874015748,
          "duration": 0.10714275000000839
        },
        {
          "name": "C3",
          "midi": 48,
          "time": 163.92840750000022,
          "velocity": 0.3937007874015748,
          "duration": 0.10714275000000839
        },
        {
          "name": "G2",
          "midi": 43,
          "time": 181.07124750000023,
          "velocity": 0.3937007874015748,
          "duration": 0.10714275000000839
        },
        {
          "name": "G2",
          "midi": 43,
          "time": 181.71410400000025,
          "velocity": 0.3937007874015748,
          "duration": 0.10714275000000839
        },
        {
          "name": "G2",
          "midi": 43,
          "time": 182.99981700000026,
          "velocity": 0.3937007874015748,
          "duration": 0.10714275000000839
        },
        {
          "name": "G2",
          "midi": 43,
          "time": 183.85695900000027,
          "velocity": 0.3937007874015748,
          "duration": 0.10714275000000839
        },
        {
          "name": "G2",
          "midi": 43,
          "time": 184.4998155000003,
          "velocity": 0.3937007874015748,
          "duration": 0.10714275000000839
        },
        {
          "name": "C3",
          "midi": 48,
          "time": 186.4283850000003,
          "velocity": 0.3937007874015748,
          "duration": 0.10714275000000839
        },
        {
          "name": "C3",
          "midi": 48,
          "time": 187.28552700000031,
          "velocity": 0.3937007874015748,
          "duration": 0.10714275000000839
        },
        {
          "name": "C3",
          "midi": 48,
          "time": 188.57124000000033,
          "velocity": 0.3937007874015748,
          "duration": 0.10714275000000839
        },
        {
          "name": "C3",
          "midi": 48,
          "time": 189.85695300000035,
          "velocity": 0.3937007874015748,
          "duration": 0.10714275000000839
        }
      ],
      "controlChanges": {},
      "id": 3,
      "name": "808 Bass",
      "instrumentNumber": 38,
      "instrument": "synth bass 1",
      "instrumentFamily": "bass",
      "channelNumber": 2,
      "isPercussion": false
    },
    {
      "startTime": 27.428544000000002,
      "duration": 150.7498492500005,
      "length": 253,
      "notes": [
        {
          "name": "F#2",
          "midi": 42,
          "time": 27.428544000000002,
          "velocity": 0.3937007874015748,
          "duration": 0.10714275000000129
        },
        {
          "name": "F#2",
          "midi": 42,
          "time": 27.428544000000002,
          "velocity": 0.3937007874015748,
          "duration": 0.10714275000000129
        },
        {
          "name": "F#2",
          "midi": 42,
          "time": 27.642829500000005,
          "velocity": 0.3937007874015748,
          "duration": 0.10714275000000129
        },
        {
          "name": "F#2",
          "midi": 42,
          "time": 27.857115000000007,
          "velocity": 0.3937007874015748,
          "duration": 0.10714275000000129
        },
        {
          "name": "F#2",
          "midi": 42,
          "time": 28.07140050000001,
          "velocity": 0.3937007874015748,
          "duration": 0.10714275000000129
        },
        {
          "name": "F#2",
          "midi": 42,
          "time": 28.285686000000013,
          "velocity": 0.3937007874015748,
          "duration": 0.10714275000000129
        },
        {
          "name": "F#2",
          "midi": 42,
          "time": 28.499971500000015,
          "velocity": 0.3937007874015748,
          "duration": 0.10714275000000129
        },
        {
          "name": "F#2",
          "midi": 42,
          "time": 28.714257000000018,
          "velocity": 0.3937007874015748,
          "duration": 0.10714275000000129
        },
        {
          "name": "F#2",
          "midi": 42,
          "time": 28.92854250000002,
          "velocity": 0.3937007874015748,
          "duration": 0.10714275000000129
        },
        {
          "name": "F#2",
          "midi": 42,
          "time": 29.142828000000023,
          "velocity": 0.3937007874015748,
          "duration": 0.10714275000000129
        },
        {
          "name": "F#2",
          "midi": 42,
          "time": 29.357113500000025,
          "velocity": 0.3937007874015748,
          "duration": 0.10714275000000129
        },
        {
          "name": "F#2",
          "midi": 42,
          "time": 29.571399000000028,
          "velocity": 0.3937007874015748,
          "duration": 0.10714275000000129
        },
        {
          "name": "F#2",
          "midi": 42,
          "time": 29.67854175000003,
          "velocity": 0.3937007874015748,
          "duration": 0.10714275000000129
        },
        {
          "name": "F#2",
          "midi": 42,
          "time": 29.78568450000003,
          "velocity": 0.3937007874015748,
          "duration": 0.10714275000000129
        },
        {
          "name": "F#2",
          "midi": 42,
          "time": 29.892827250000032,
          "velocity": 0.3937007874015748,
          "duration": 0.10714275000000129
        },
        {
          "name": "F#2",
          "midi": 42,
          "time": 29.999970000000033,
          "velocity": 0.3937007874015748,
          "duration": 0.10714275000000129
        },
        {
          "name": "F#2",
          "midi": 42,
          "time": 30.107112750000034,
          "velocity": 0.3937007874015748,
          "duration": 0.10714275000000129
        },
        {
          "name": "F#2",
          "midi": 42,
          "time": 30.214255500000036,
          "velocity": 0.3937007874015748,
          "duration": 0.10714275000000129
        },
        {
          "name": "F#2",
          "midi": 42,
          "time": 30.321398250000037,
          "velocity": 0.3937007874015748,
          "duration": 0.10714275000000129
        },
        {
          "name": "F#2",
          "midi": 42,
          "time": 30.42854100000004,
          "velocity": 0.3937007874015748,
          "duration": 0.10714275000000129
        },
        {
          "name": "F#2",
          "midi": 42,
          "time": 30.53568375000004,
          "velocity": 0.3937007874015748,
          "duration": 0.10714275000000129
        },
        {
          "name": "F#2",
          "midi": 42,
          "time": 30.64282650000004,
          "velocity": 0.3937007874015748,
          "duration": 0.10714275000000129
        },
        {
          "name": "F#2",
          "midi": 42,
          "time": 30.857112000000043,
          "velocity": 0.3937007874015748,
          "duration": 0.10714275000000129
        },
        {
          "name": "F#2",
          "midi": 42,
          "time": 31.071397500000046,
          "velocity": 0.3937007874015748,
          "duration": 0.10714275000000129
        },
        {
          "name": "F#2",
          "midi": 42,
          "time": 31.28568300000005,
          "velocity": 0.3937007874015748,
          "duration": 0.10714275000000129
        },
        {
          "name": "F#2",
          "midi": 42,
          "time": 31.49996850000005,
          "velocity": 0.3937007874015748,
          "duration": 0.10714275000000129
        },
        {
          "name": "F#2",
          "midi": 42,
          "time": 31.714254000000054,
          "velocity": 0.3937007874015748,
          "duration": 0.10714275000000129
        },
        {
          "name": "F#2",
          "midi": 42,
          "time": 31.928539500000056,
          "velocity": 0.3937007874015748,
          "duration": 0.10714275000000129
        },
        {
          "name": "F#2",
          "midi": 42,
          "time": 32.14282500000006,
          "velocity": 0.3937007874015748,
          "duration": 0.10714275000000129
        },
        {
          "name": "F#2",
          "midi": 42,
          "time": 32.35711050000006,
          "velocity": 0.3937007874015748,
          "duration": 0.10714275000000129
        },
        {
          "name": "F#2",
          "midi": 42,
          "time": 32.571396000000064,
          "velocity": 0.3937007874015748,
          "duration": 0.10714275000000129
        },
        {
          "name": "F#2",
          "midi": 42,
          "time": 32.78568150000007,
          "velocity": 0.3937007874015748,
          "duration": 0.10714275000000129
        },
        {
          "name": "F#2",
          "midi": 42,
          "time": 32.99996700000007,
          "velocity": 0.3937007874015748,
          "duration": 0.10714275000000129
        },
        {
          "name": "F#2",
          "midi": 42,
          "time": 33.10710975000007,
          "velocity": 0.3937007874015748,
          "duration": 0.10714275000000129
        },
        {
          "name": "F#2",
          "midi": 42,
          "time": 33.21425250000007,
          "velocity": 0.3937007874015748,
          "duration": 0.10714275000000129
        },
        {
          "name": "F#2",
          "midi": 42,
          "time": 33.32139525000007,
          "velocity": 0.3937007874015748,
          "duration": 0.10714275000000129
        },
        {
          "name": "F#2",
          "midi": 42,
          "time": 33.428538000000074,
          "velocity": 0.3937007874015748,
          "duration": 0.10714275000000129
        },
        {
          "name": "F#2",
          "midi": 42,
          "time": 33.535680750000076,
          "velocity": 0.3937007874015748,
          "duration": 0.10714275000000129
        },
        {
          "name": "F#2",
          "midi": 42,
          "time": 33.64282350000008,
          "velocity": 0.3937007874015748,
          "duration": 0.10714275000000129
        },
        {
          "name": "F#2",
          "midi": 42,
          "time": 33.74996625000008,
          "velocity": 0.3937007874015748,
          "duration": 0.10714275000000129
        },
        {
          "name": "F#2",
          "midi": 42,
          "time": 33.85710900000008,
          "velocity": 0.3937007874015748,
          "duration": 0.10714275000000129
        },
        {
          "name": "F#2",
          "midi": 42,
          "time": 33.96425175000008,
          "velocity": 0.3937007874015748,
          "duration": 0.10714275000000129
        },
        {
          "name": "F#2",
          "midi": 42,
          "time": 34.07139450000008,
          "velocity": 0.3937007874015748,
          "duration": 0.10714275000000129
        },
        {
          "name": "F#2",
          "midi": 42,
          "time": 34.285680000000085,
          "velocity": 0.3937007874015748,
          "duration": 0.10714275000000129
        },
        {
          "name": "F#2",
          "midi": 42,
          "time": 34.49996550000009,
          "velocity": 0.3937007874015748,
          "duration": 0.10714275000000129
        },
        {
          "name": "F#2",
          "midi": 42,
          "time": 34.71425100000009,
          "velocity": 0.3937007874015748,
          "duration": 0.10714275000000129
        },
        {
          "name": "F#2",
          "midi": 42,
          "time": 34.92853650000009,
          "velocity": 0.3937007874015748,
          "duration": 0.10714275000000129
        },
        {
          "name": "F#2",
          "midi": 42,
          "time": 35.142822000000095,
          "velocity": 0.3937007874015748,
          "duration": 0.10714275000000129
        },
        {
          "name": "F#2",
          "midi": 42,
          "time": 35.3571075000001,
          "velocity": 0.3937007874015748,
          "duration": 0.10714275000000129
        },
        {
          "name": "F#2",
          "midi": 42,
          "time": 35.5713930000001,
          "velocity": 0.3937007874015748,
          "duration": 0.10714275000000129
        },
        {
          "name": "F#2",
          "midi": 42,
          "time": 35.7856785000001,
          "velocity": 0.3937007874015748,
          "duration": 0.10714275000000129
        },
        {
          "name": "F#2",
          "midi": 42,
          "time": 35.999964000000105,
          "velocity": 0.3937007874015748,
          "duration": 0.10714275000000129
        },
        {
          "name": "F#2",
          "midi": 42,
          "time": 36.21424950000011,
          "velocity": 0.3937007874015748,
          "duration": 0.10714275000000129
        },
        {
          "name": "F#2",
          "midi": 42,
          "time": 36.42853500000011,
          "velocity": 0.3937007874015748,
          "duration": 0.10714275000000129
        },
        {
          "name": "F#2",
          "midi": 42,
          "time": 36.53567775000011,
          "velocity": 0.3937007874015748,
          "duration": 0.10714275000000129
        },
        {
          "name": "F#2",
          "midi": 42,
          "time": 36.64282050000011,
          "velocity": 0.3937007874015748,
          "duration": 0.10714275000000129
        },
        {
          "name": "F#2",
          "midi": 42,
          "time": 36.749963250000114,
          "velocity": 0.3937007874015748,
          "duration": 0.10714275000000129
        },
        {
          "name": "F#2",
          "midi": 42,
          "time": 36.857106000000115,
          "velocity": 0.3937007874015748,
          "duration": 0.10714275000000129
        },
        {
          "name": "F#2",
          "midi": 42,
          "time": 36.96424875000012,
          "velocity": 0.3937007874015748,
          "duration": 0.10714275000000129
        },
        {
          "name": "F#2",
          "midi": 42,
          "time": 37.07139150000012,
          "velocity": 0.3937007874015748,
          "duration": 0.10714275000000129
        },
        {
          "name": "F#2",
          "midi": 42,
          "time": 37.17853425000012,
          "velocity": 0.3937007874015748,
          "duration": 0.10714275000000129
        },
        {
          "name": "F#2",
          "midi": 42,
          "time": 37.28567700000012,
          "velocity": 0.3937007874015748,
          "duration": 0.10714275000000129
        },
        {
          "name": "F#2",
          "midi": 42,
          "time": 37.39281975000012,
          "velocity": 0.3937007874015748,
          "duration": 0.10714275000000129
        },
        {
          "name": "F#2",
          "midi": 42,
          "time": 37.49996250000012,
          "velocity": 0.3937007874015748,
          "duration": 0.10714275000000129
        },
        {
          "name": "F#2",
          "midi": 42,
          "time": 37.714248000000126,
          "velocity": 0.3937007874015748,
          "duration": 0.10714275000000129
        },
        {
          "name": "F#2",
          "midi": 42,
          "time": 37.92853350000013,
          "velocity": 0.3937007874015748,
          "duration": 0.10714275000000129
        },
        {
          "name": "F#2",
          "midi": 42,
          "time": 38.14281900000013,
          "velocity": 0.3937007874015748,
          "duration": 0.10714275000000129
        },
        {
          "name": "F#2",
          "midi": 42,
          "time": 38.35710450000013,
          "velocity": 0.3937007874015748,
          "duration": 0.10714275000000129
        },
        {
          "name": "F#2",
          "midi": 42,
          "time": 38.571390000000136,
          "velocity": 0.3937007874015748,
          "duration": 0.10714275000000129
        },
        {
          "name": "F#2",
          "midi": 42,
          "time": 38.78567550000014,
          "velocity": 0.3937007874015748,
          "duration": 0.10714275000000129
        },
        {
          "name": "F#2",
          "midi": 42,
          "time": 38.99996100000014,
          "velocity": 0.3937007874015748,
          "duration": 0.10714275000000129
        },
        {
          "name": "F#2",
          "midi": 42,
          "time": 39.214246500000144,
          "velocity": 0.3937007874015748,
          "duration": 0.10714275000000129
        },
        {
          "name": "F#2",
          "midi": 42,
          "time": 39.428532000000146,
          "velocity": 0.3937007874015748,
          "duration": 0.10714275000000129
        },
        {
          "name": "F#2",
          "midi": 42,
          "time": 39.64281750000015,
          "velocity": 0.3937007874015748,
          "duration": 0.10714275000000129
        },
        {
          "name": "F#2",
          "midi": 42,
          "time": 39.85710300000015,
          "velocity": 0.3937007874015748,
          "duration": 0.10714275000000129
        },
        {
          "name": "F#2",
          "midi": 42,
          "time": 39.96424575000015,
          "velocity": 0.3937007874015748,
          "duration": 0.10714275000000129
        },
        {
          "name": "F#2",
          "midi": 42,
          "time": 40.071388500000154,
          "velocity": 0.3937007874015748,
          "duration": 0.10714275000000129
        },
        {
          "name": "F#2",
          "midi": 42,
          "time": 40.178531250000155,
          "velocity": 0.3937007874015748,
          "duration": 0.10714275000000129
        },
        {
          "name": "F#2",
          "midi": 42,
          "time": 40.28567400000016,
          "velocity": 0.3937007874015748,
          "duration": 0.10714275000000129
        },
        {
          "name": "F#2",
          "midi": 42,
          "time": 40.39281675000016,
          "velocity": 0.3937007874015748,
          "duration": 0.10714275000000129
        },
        {
          "name": "F#2",
          "midi": 42,
          "time": 40.49995950000016,
          "velocity": 0.3937007874015748,
          "duration": 0.10714275000000129
        },
        {
          "name": "F#2",
          "midi": 42,
          "time": 40.60710225000016,
          "velocity": 0.3937007874015748,
          "duration": 0.10714275000000129
        },
        {
          "name": "F#2",
          "midi": 42,
          "time": 40.71424500000016,
          "velocity": 0.3937007874015748,
          "duration": 0.10714275000000129
        },
        {
          "name": "F#2",
          "midi": 42,
          "time": 40.82138775000016,
          "velocity": 0.3937007874015748,
          "duration": 0.10714275000000129
        },
        {
          "name": "F#2",
          "midi": 42,
          "time": 40.928530500000164,
          "velocity": 0.3937007874015748,
          "duration": 0.10714275000000129
        },
        {
          "name": "F#2",
          "midi": 42,
          "time": 82.28563200000016,
          "velocity": 0.3937007874015748,
          "duration": 0.10714274999999418
        },
        {
          "name": "F#2",
          "midi": 42,
          "time": 82.28563200000016,
          "velocity": 0.3937007874015748,
          "duration": 0.10714274999999418
        },
        {
          "name": "F#2",
          "midi": 42,
          "time": 82.49991750000015,
          "velocity": 0.3937007874015748,
          "duration": 0.10714274999999418
        },
        {
          "name": "F#2",
          "midi": 42,
          "time": 82.71420300000014,
          "velocity": 0.3937007874015748,
          "duration": 0.10714274999999418
        },
        {
          "name": "F#2",
          "midi": 42,
          "time": 82.92848850000013,
          "velocity": 0.3937007874015748,
          "duration": 0.10714274999999418
        },
        {
          "name": "F#2",
          "midi": 42,
          "time": 83.14277400000012,
          "velocity": 0.3937007874015748,
          "duration": 0.10714274999999418
        },
        {
          "name": "F#2",
          "midi": 42,
          "time": 83.3570595000001,
          "velocity": 0.3937007874015748,
          "duration": 0.10714274999999418
        },
        {
          "name": "F#2",
          "midi": 42,
          "time": 83.5713450000001,
          "velocity": 0.3937007874015748,
          "duration": 0.10714274999999418
        },
        {
          "name": "F#2",
          "midi": 42,
          "time": 83.78563050000008,
          "velocity": 0.3937007874015748,
          "duration": 0.10714274999999418
        },
        {
          "name": "F#2",
          "midi": 42,
          "time": 83.99991600000007,
          "velocity": 0.3937007874015748,
          "duration": 0.10714274999999418
        },
        {
          "name": "F#2",
          "midi": 42,
          "time": 84.21420150000006,
          "velocity": 0.3937007874015748,
          "duration": 0.10714274999999418
        },
        {
          "name": "F#2",
          "midi": 42,
          "time": 84.42848700000005,
          "velocity": 0.3937007874015748,
          "duration": 0.10714274999999418
        },
        {
          "name": "F#2",
          "midi": 42,
          "time": 84.53562975000004,
          "velocity": 0.3937007874015748,
          "duration": 0.10714274999999418
        },
        {
          "name": "F#2",
          "midi": 42,
          "time": 84.64277250000004,
          "velocity": 0.3937007874015748,
          "duration": 0.10714274999999418
        },
        {
          "name": "F#2",
          "midi": 42,
          "time": 84.74991525000003,
          "velocity": 0.3937007874015748,
          "duration": 0.10714274999999418
        },
        {
          "name": "F#2",
          "midi": 42,
          "time": 84.85705800000002,
          "velocity": 0.3937007874015748,
          "duration": 0.10714274999999418
        },
        {
          "name": "F#2",
          "midi": 42,
          "time": 84.96420075000002,
          "velocity": 0.3937007874015748,
          "duration": 0.10714274999999418
        },
        {
          "name": "F#2",
          "midi": 42,
          "time": 85.07134350000001,
          "velocity": 0.3937007874015748,
          "duration": 0.10714274999999418
        },
        {
          "name": "F#2",
          "midi": 42,
          "time": 85.17848625,
          "velocity": 0.3937007874015748,
          "duration": 0.10714274999999418
        },
        {
          "name": "F#2",
          "midi": 42,
          "time": 85.285629,
          "velocity": 0.3937007874015748,
          "duration": 0.10714274999999418
        },
        {
          "name": "F#2",
          "midi": 42,
          "time": 85.39277175,
          "velocity": 0.3937007874015748,
          "duration": 0.10714274999999418
        },
        {
          "name": "F#2",
          "midi": 42,
          "time": 85.49991449999999,
          "velocity": 0.3937007874015748,
          "duration": 0.10714274999999418
        },
        {
          "name": "F#2",
          "midi": 42,
          "time": 85.71419999999998,
          "velocity": 0.3937007874015748,
          "duration": 0.10714274999999418
        },
        {
          "name": "F#2",
          "midi": 42,
          "time": 85.92848549999997,
          "velocity": 0.3937007874015748,
          "duration": 0.10714274999999418
        },
        {
          "name": "F#2",
          "midi": 42,
          "time": 86.14277099999995,
          "velocity": 0.3937007874015748,
          "duration": 0.10714274999999418
        },
        {
          "name": "F#2",
          "midi": 42,
          "time": 86.35705649999994,
          "velocity": 0.3937007874015748,
          "duration": 0.10714274999999418
        },
        {
          "name": "F#2",
          "midi": 42,
          "time": 86.57134199999993,
          "velocity": 0.3937007874015748,
          "duration": 0.10714274999999418
        },
        {
          "name": "F#2",
          "midi": 42,
          "time": 86.78562749999992,
          "velocity": 0.3937007874015748,
          "duration": 0.10714274999999418
        },
        {
          "name": "F#2",
          "midi": 42,
          "time": 86.9999129999999,
          "velocity": 0.3937007874015748,
          "duration": 0.10714274999999418
        },
        {
          "name": "F#2",
          "midi": 42,
          "time": 87.2141984999999,
          "velocity": 0.3937007874015748,
          "duration": 0.10714274999999418
        },
        {
          "name": "F#2",
          "midi": 42,
          "time": 87.42848399999988,
          "velocity": 0.3937007874015748,
          "duration": 0.10714274999999418
        },
        {
          "name": "F#2",
          "midi": 42,
          "time": 87.64276949999987,
          "velocity": 0.3937007874015748,
          "duration": 0.10714274999999418
        },
        {
          "name": "F#2",
          "midi": 42,
          "time": 87.85705499999986,
          "velocity": 0.3937007874015748,
          "duration": 0.10714274999999418
        },
        {
          "name": "F#2",
          "midi": 42,
          "time": 87.96419774999985,
          "velocity": 0.3937007874015748,
          "duration": 0.10714274999999418
        },
        {
          "name": "F#2",
          "midi": 42,
          "time": 88.07134049999985,
          "velocity": 0.3937007874015748,
          "duration": 0.10714274999999418
        },
        {
          "name": "F#2",
          "midi": 42,
          "time": 88.17848324999984,
          "velocity": 0.3937007874015748,
          "duration": 0.10714274999999418
        },
        {
          "name": "F#2",
          "midi": 42,
          "time": 88.28562599999984,
          "velocity": 0.3937007874015748,
          "duration": 0.10714274999999418
        },
        {
          "name": "F#2",
          "midi": 42,
          "time": 88.39276874999983,
          "velocity": 0.3937007874015748,
          "duration": 0.10714274999999418
        },
        {
          "name": "F#2",
          "midi": 42,
          "time": 88.49991149999983,
          "velocity": 0.3937007874015748,
          "duration": 0.10714274999999418
        },
        {
          "name": "F#2",
          "midi": 42,
          "time": 88.60705424999982,
          "velocity": 0.3937007874015748,
          "duration": 0.10714274999999418
        },
        {
          "name": "F#2",
          "midi": 42,
          "time": 88.71419699999981,
          "velocity": 0.3937007874015748,
          "duration": 0.10714274999999418
        },
        {
          "name": "F#2",
          "midi": 42,
          "time": 88.82133974999981,
          "velocity": 0.3937007874015748,
          "duration": 0.10714274999999418
        },
        {
          "name": "F#2",
          "midi": 42,
          "time": 88.9284824999998,
          "velocity": 0.3937007874015748,
          "duration": 0.10714274999999418
        },
        {
          "name": "F#2",
          "midi": 42,
          "time": 89.14276799999979,
          "velocity": 0.3937007874015748,
          "duration": 0.10714274999999418
        },
        {
          "name": "F#2",
          "midi": 42,
          "time": 89.35705349999978,
          "velocity": 0.3937007874015748,
          "duration": 0.10714274999999418
        },
        {
          "name": "F#2",
          "midi": 42,
          "time": 89.57133899999977,
          "velocity": 0.3937007874015748,
          "duration": 0.10714274999999418
        },
        {
          "name": "F#2",
          "midi": 42,
          "time": 89.78562449999976,
          "velocity": 0.3937007874015748,
          "duration": 0.10714274999999418
        },
        {
          "name": "F#2",
          "midi": 42,
          "time": 89.99990999999974,
          "velocity": 0.3937007874015748,
          "duration": 0.10714274999999418
        },
        {
          "name": "F#2",
          "midi": 42,
          "time": 90.21419549999973,
          "velocity": 0.3937007874015748,
          "duration": 0.10714274999999418
        },
        {
          "name": "F#2",
          "midi": 42,
          "time": 90.42848099999972,
          "velocity": 0.3937007874015748,
          "duration": 0.10714274999999418
        },
        {
          "name": "F#2",
          "midi": 42,
          "time": 90.64276649999971,
          "velocity": 0.3937007874015748,
          "duration": 0.10714274999999418
        },
        {
          "name": "F#2",
          "midi": 42,
          "time": 90.8570519999997,
          "velocity": 0.3937007874015748,
          "duration": 0.10714274999999418
        },
        {
          "name": "F#2",
          "midi": 42,
          "time": 91.07133749999969,
          "velocity": 0.3937007874015748,
          "duration": 0.10714274999999418
        },
        {
          "name": "F#2",
          "midi": 42,
          "time": 91.28562299999967,
          "velocity": 0.3937007874015748,
          "duration": 0.10714274999999418
        },
        {
          "name": "F#2",
          "midi": 42,
          "time": 91.39276574999967,
          "velocity": 0.3937007874015748,
          "duration": 0.10714274999999418
        },
        {
          "name": "F#2",
          "midi": 42,
          "time": 91.49990849999966,
          "velocity": 0.3937007874015748,
          "duration": 0.10714274999999418
        },
        {
          "name": "F#2",
          "midi": 42,
          "time": 91.60705124999966,
          "velocity": 0.3937007874015748,
          "duration": 0.10714274999999418
        },
        {
          "name": "F#2",
          "midi": 42,
          "time": 91.71419399999965,
          "velocity": 0.3937007874015748,
          "duration": 0.10714274999999418
        },
        {
          "name": "F#2",
          "midi": 42,
          "time": 91.82133674999965,
          "velocity": 0.3937007874015748,
          "duration": 0.10714274999999418
        },
        {
          "name": "F#2",
          "midi": 42,
          "time": 91.92847949999964,
          "velocity": 0.3937007874015748,
          "duration": 0.10714274999999418
        },
        {
          "name": "F#2",
          "midi": 42,
          "time": 92.03562224999963,
          "velocity": 0.3937007874015748,
          "duration": 0.10714274999999418
        },
        {
          "name": "F#2",
          "midi": 42,
          "time": 92.14276499999963,
          "velocity": 0.3937007874015748,
          "duration": 0.10714274999999418
        },
        {
          "name": "F#2",
          "midi": 42,
          "time": 92.24990774999962,
          "velocity": 0.3937007874015748,
          "duration": 0.10714274999999418
        },
        {
          "name": "F#2",
          "midi": 42,
          "time": 92.35705049999962,
          "velocity": 0.3937007874015748,
          "duration": 0.10714274999999418
        },
        {
          "name": "F#2",
          "midi": 42,
          "time": 92.5713359999996,
          "velocity": 0.3937007874015748,
          "duration": 0.10714274999999418
        },
        {
          "name": "F#2",
          "midi": 42,
          "time": 92.78562149999959,
          "velocity": 0.3937007874015748,
          "duration": 0.10714274999999418
        },
        {
          "name": "F#2",
          "midi": 42,
          "time": 92.99990699999958,
          "velocity": 0.3937007874015748,
          "duration": 0.10714274999999418
        },
        {
          "name": "F#2",
          "midi": 42,
          "time": 93.21419249999957,
          "velocity": 0.3937007874015748,
          "duration": 0.10714274999999418
        },
        {
          "name": "F#2",
          "midi": 42,
          "time": 93.42847799999956,
          "velocity": 0.3937007874015748,
          "duration": 0.10714274999999418
        },
        {
          "name": "F#2",
          "midi": 42,
          "time": 93.64276349999955,
          "velocity": 0.3937007874015748,
          "duration": 0.10714274999999418
        },
        {
          "name": "F#2",
          "midi": 42,
          "time": 93.85704899999953,
          "velocity": 0.3937007874015748,
          "duration": 0.10714274999999418
        },
        {
          "name": "F#2",
          "midi": 42,
          "time": 94.07133449999952,
          "velocity": 0.3937007874015748,
          "duration": 0.10714274999999418
        },
        {
          "name": "F#2",
          "midi": 42,
          "time": 94.28561999999951,
          "velocity": 0.3937007874015748,
          "duration": 0.10714274999999418
        },
        {
          "name": "F#2",
          "midi": 42,
          "time": 94.4999054999995,
          "velocity": 0.3937007874015748,
          "duration": 0.10714274999999418
        },
        {
          "name": "F#2",
          "midi": 42,
          "time": 94.71419099999949,
          "velocity": 0.3937007874015748,
          "duration": 0.10714274999999418
        },
        {
          "name": "F#2",
          "midi": 42,
          "time": 94.82133374999948,
          "velocity": 0.3937007874015748,
          "duration": 0.10714274999999418
        },
        {
          "name": "F#2",
          "midi": 42,
          "time": 94.92847649999948,
          "velocity": 0.3937007874015748,
          "duration": 0.10714274999999418
        },
        {
          "name": "F#2",
          "midi": 42,
          "time": 95.03561924999947,
          "velocity": 0.3937007874015748,
          "duration": 0.10714274999999418
        },
        {
          "name": "F#2",
          "midi": 42,
          "time": 95.14276199999946,
          "velocity": 0.3937007874015748,
          "duration": 0.10714274999999418
        },
        {
          "name": "F#2",
          "midi": 42,
          "time": 95.24990474999946,
          "velocity": 0.3937007874015748,
          "duration": 0.10714274999999418
        },
        {
          "name": "F#2",
          "midi": 42,
          "time": 95.35704749999945,
          "velocity": 0.3937007874015748,
          "duration": 0.10714274999999418
        },
        {
          "name": "F#2",
          "midi": 42,
          "time": 95.46419024999945,
          "velocity": 0.3937007874015748,
          "duration": 0.10714274999999418
        },
        {
          "name": "F#2",
          "midi": 42,
          "time": 95.57133299999944,
          "velocity": 0.3937007874015748,
          "duration": 0.10714274999999418
        },
        {
          "name": "F#2",
          "midi": 42,
          "time": 95.67847574999944,
          "velocity": 0.3937007874015748,
          "duration": 0.10714274999999418
        },
        {
          "name": "F#2",
          "midi": 42,
          "time": 95.78561849999943,
          "velocity": 0.3937007874015748,
          "duration": 0.10714274999999418
        },
        {
          "name": "F#2",
          "midi": 42,
          "time": 137.14271999999943,
          "velocity": 0.3937007874015748,
          "duration": 0.10714275000000839
        },
        {
          "name": "F#2",
          "midi": 42,
          "time": 137.14271999999943,
          "velocity": 0.3937007874015748,
          "duration": 0.10714275000000839
        },
        {
          "name": "F#2",
          "midi": 42,
          "time": 137.35700549999945,
          "velocity": 0.3937007874015748,
          "duration": 0.10714275000000839
        },
        {
          "name": "F#2",
          "midi": 42,
          "time": 137.57129099999946,
          "velocity": 0.3937007874015748,
          "duration": 0.10714275000000839
        },
        {
          "name": "F#2",
          "midi": 42,
          "time": 137.78557649999948,
          "velocity": 0.3937007874015748,
          "duration": 0.10714275000000839
        },
        {
          "name": "F#2",
          "midi": 42,
          "time": 137.9998619999995,
          "velocity": 0.3937007874015748,
          "duration": 0.10714275000000839
        },
        {
          "name": "F#2",
          "midi": 42,
          "time": 138.2141474999995,
          "velocity": 0.3937007874015748,
          "duration": 0.10714275000000839
        },
        {
          "name": "F#2",
          "midi": 42,
          "time": 138.42843299999953,
          "velocity": 0.3937007874015748,
          "duration": 0.10714275000000839
        },
        {
          "name": "F#2",
          "midi": 42,
          "time": 138.64271849999955,
          "velocity": 0.3937007874015748,
          "duration": 0.10714275000000839
        },
        {
          "name": "F#2",
          "midi": 42,
          "time": 138.85700399999956,
          "velocity": 0.3937007874015748,
          "duration": 0.10714275000000839
        },
        {
          "name": "F#2",
          "midi": 42,
          "time": 139.07128949999958,
          "velocity": 0.3937007874015748,
          "duration": 0.10714275000000839
        },
        {
          "name": "F#2",
          "midi": 42,
          "time": 139.2855749999996,
          "velocity": 0.3937007874015748,
          "duration": 0.10714275000000839
        },
        {
          "name": "F#2",
          "midi": 42,
          "time": 139.3927177499996,
          "velocity": 0.3937007874015748,
          "duration": 0.10714275000000839
        },
        {
          "name": "F#2",
          "midi": 42,
          "time": 139.4998604999996,
          "velocity": 0.3937007874015748,
          "duration": 0.10714275000000839
        },
        {
          "name": "F#2",
          "midi": 42,
          "time": 139.60700324999962,
          "velocity": 0.3937007874015748,
          "duration": 0.10714275000000839
        },
        {
          "name": "F#2",
          "midi": 42,
          "time": 139.71414599999963,
          "velocity": 0.3937007874015748,
          "duration": 0.10714275000000839
        },
        {
          "name": "F#2",
          "midi": 42,
          "time": 139.82128874999964,
          "velocity": 0.3937007874015748,
          "duration": 0.10714275000000839
        },
        {
          "name": "F#2",
          "midi": 42,
          "time": 139.92843149999965,
          "velocity": 0.3937007874015748,
          "duration": 0.10714275000000839
        },
        {
          "name": "F#2",
          "midi": 42,
          "time": 140.03557424999966,
          "velocity": 0.3937007874015748,
          "duration": 0.10714275000000839
        },
        {
          "name": "F#2",
          "midi": 42,
          "time": 140.14271699999966,
          "velocity": 0.3937007874015748,
          "duration": 0.10714275000000839
        },
        {
          "name": "F#2",
          "midi": 42,
          "time": 140.24985974999967,
          "velocity": 0.3937007874015748,
          "duration": 0.10714275000000839
        },
        {
          "name": "F#2",
          "midi": 42,
          "time": 140.35700249999968,
          "velocity": 0.3937007874015748,
          "duration": 0.10714275000000839
        },
        {
          "name": "F#2",
          "midi": 42,
          "time": 140.5712879999997,
          "velocity": 0.3937007874015748,
          "duration": 0.10714275000000839
        },
        {
          "name": "F#2",
          "midi": 42,
          "time": 140.7855734999997,
          "velocity": 0.3937007874015748,
          "duration": 0.10714275000000839
        },
        {
          "name": "F#2",
          "midi": 42,
          "time": 140.99985899999973,
          "velocity": 0.3937007874015748,
          "duration": 0.10714275000000839
        },
        {
          "name": "F#2",
          "midi": 42,
          "time": 141.21414449999975,
          "velocity": 0.3937007874015748,
          "duration": 0.10714275000000839
        },
        {
          "name": "F#2",
          "midi": 42,
          "time": 141.42842999999976,
          "velocity": 0.3937007874015748,
          "duration": 0.10714275000000839
        },
        {
          "name": "F#2",
          "midi": 42,
          "time": 141.64271549999978,
          "velocity": 0.3937007874015748,
          "duration": 0.10714275000000839
        },
        {
          "name": "F#2",
          "midi": 42,
          "time": 141.8570009999998,
          "velocity": 0.3937007874015748,
          "duration": 0.10714275000000839
        },
        {
          "name": "F#2",
          "midi": 42,
          "time": 142.07128649999981,
          "velocity": 0.3937007874015748,
          "duration": 0.10714275000000839
        },
        {
          "name": "F#2",
          "midi": 42,
          "time": 142.28557199999983,
          "velocity": 0.3937007874015748,
          "duration": 0.10714275000000839
        },
        {
          "name": "F#2",
          "midi": 42,
          "time": 142.49985749999985,
          "velocity": 0.3937007874015748,
          "duration": 0.10714275000000839
        },
        {
          "name": "F#2",
          "midi": 42,
          "time": 142.71414299999986,
          "velocity": 0.3937007874015748,
          "duration": 0.10714275000000839
        },
        {
          "name": "F#2",
          "midi": 42,
          "time": 142.82128574999987,
          "velocity": 0.3937007874015748,
          "duration": 0.10714275000000839
        },
        {
          "name": "F#2",
          "midi": 42,
          "time": 142.92842849999988,
          "velocity": 0.3937007874015748,
          "duration": 0.10714275000000839
        },
        {
          "name": "F#2",
          "midi": 42,
          "time": 143.0355712499999,
          "velocity": 0.3937007874015748,
          "duration": 0.10714275000000839
        },
        {
          "name": "F#2",
          "midi": 42,
          "time": 143.1427139999999,
          "velocity": 0.3937007874015748,
          "duration": 0.10714275000000839
        },
        {
          "name": "F#2",
          "midi": 42,
          "time": 143.2498567499999,
          "velocity": 0.3937007874015748,
          "duration": 0.10714275000000839
        },
        {
          "name": "F#2",
          "midi": 42,
          "time": 143.35699949999992,
          "velocity": 0.3937007874015748,
          "duration": 0.10714275000000839
        },
        {
          "name": "F#2",
          "midi": 42,
          "time": 143.46414224999992,
          "velocity": 0.3937007874015748,
          "duration": 0.10714275000000839
        },
        {
          "name": "F#2",
          "midi": 42,
          "time": 143.57128499999993,
          "velocity": 0.3937007874015748,
          "duration": 0.10714275000000839
        },
        {
          "name": "F#2",
          "midi": 42,
          "time": 143.67842774999994,
          "velocity": 0.3937007874015748,
          "duration": 0.10714275000000839
        },
        {
          "name": "F#2",
          "midi": 42,
          "time": 143.78557049999995,
          "velocity": 0.3937007874015748,
          "duration": 0.10714275000000839
        },
        {
          "name": "F#2",
          "midi": 42,
          "time": 143.99985599999997,
          "velocity": 0.3937007874015748,
          "duration": 0.10714275000000839
        },
        {
          "name": "F#2",
          "midi": 42,
          "time": 144.21414149999998,
          "velocity": 0.3937007874015748,
          "duration": 0.10714275000000839
        },
        {
          "name": "F#2",
          "midi": 42,
          "time": 144.428427,
          "velocity": 0.3937007874015748,
          "duration": 0.10714275000000839
        },
        {
          "name": "F#2",
          "midi": 42,
          "time": 144.64271250000002,
          "velocity": 0.3937007874015748,
          "duration": 0.10714275000000839
        },
        {
          "name": "F#2",
          "midi": 42,
          "time": 144.85699800000003,
          "velocity": 0.3937007874015748,
          "duration": 0.10714275000000839
        },
        {
          "name": "F#2",
          "midi": 42,
          "time": 145.07128350000005,
          "velocity": 0.3937007874015748,
          "duration": 0.10714275000000839
        },
        {
          "name": "F#2",
          "midi": 42,
          "time": 145.28556900000007,
          "velocity": 0.3937007874015748,
          "duration": 0.10714275000000839
        },
        {
          "name": "F#2",
          "midi": 42,
          "time": 145.49985450000008,
          "velocity": 0.3937007874015748,
          "duration": 0.10714275000000839
        },
        {
          "name": "F#2",
          "midi": 42,
          "time": 145.7141400000001,
          "velocity": 0.3937007874015748,
          "duration": 0.10714275000000839
        },
        {
          "name": "F#2",
          "midi": 42,
          "time": 145.92842550000012,
          "velocity": 0.3937007874015748,
          "duration": 0.10714275000000839
        },
        {
          "name": "F#2",
          "midi": 42,
          "time": 146.14271100000013,
          "velocity": 0.3937007874015748,
          "duration": 0.10714275000000839
        },
        {
          "name": "F#2",
          "midi": 42,
          "time": 146.24985375000014,
          "velocity": 0.3937007874015748,
          "duration": 0.10714275000000839
        },
        {
          "name": "F#2",
          "midi": 42,
          "time": 146.35699650000015,
          "velocity": 0.3937007874015748,
          "duration": 0.10714275000000839
        },
        {
          "name": "F#2",
          "midi": 42,
          "time": 146.46413925000016,
          "velocity": 0.3937007874015748,
          "duration": 0.10714275000000839
        },
        {
          "name": "F#2",
          "midi": 42,
          "time": 146.57128200000017,
          "velocity": 0.3937007874015748,
          "duration": 0.10714275000000839
        },
        {
          "name": "F#2",
          "midi": 42,
          "time": 146.67842475000018,
          "velocity": 0.3937007874015748,
          "duration": 0.10714275000000839
        },
        {
          "name": "F#2",
          "midi": 42,
          "time": 146.78556750000018,
          "velocity": 0.3937007874015748,
          "duration": 0.10714275000000839
        },
        {
          "name": "F#2",
          "midi": 42,
          "time": 146.8927102500002,
          "velocity": 0.3937007874015748,
          "duration": 0.10714275000000839
        },
        {
          "name": "F#2",
          "midi": 42,
          "time": 146.9998530000002,
          "velocity": 0.3937007874015748,
          "duration": 0.10714275000000839
        },
        {
          "name": "F#2",
          "midi": 42,
          "time": 147.1069957500002,
          "velocity": 0.3937007874015748,
          "duration": 0.10714275000000839
        },
        {
          "name": "F#2",
          "midi": 42,
          "time": 147.21413850000022,
          "velocity": 0.3937007874015748,
          "duration": 0.10714275000000839
        },
        {
          "name": "F#2",
          "midi": 42,
          "time": 147.42842400000023,
          "velocity": 0.3937007874015748,
          "duration": 0.10714275000000839
        },
        {
          "name": "F#2",
          "midi": 42,
          "time": 147.64270950000025,
          "velocity": 0.3937007874015748,
          "duration": 0.10714275000000839
        },
        {
          "name": "F#2",
          "midi": 42,
          "time": 147.85699500000027,
          "velocity": 0.3937007874015748,
          "duration": 0.10714275000000839
        },
        {
          "name": "F#2",
          "midi": 42,
          "time": 148.07128050000028,
          "velocity": 0.3937007874015748,
          "duration": 0.10714275000000839
        },
        {
          "name": "F#2",
          "midi": 42,
          "time": 148.2855660000003,
          "velocity": 0.3937007874015748,
          "duration": 0.10714275000000839
        },
        {
          "name": "F#2",
          "midi": 42,
          "time": 148.49985150000032,
          "velocity": 0.3937007874015748,
          "duration": 0.10714275000000839
        },
        {
          "name": "F#2",
          "midi": 42,
          "time": 148.71413700000033,
          "velocity": 0.3937007874015748,
          "duration": 0.10714275000000839
        },
        {
          "name": "F#2",
          "midi": 42,
          "time": 148.92842250000035,
          "velocity": 0.3937007874015748,
          "duration": 0.10714275000000839
        },
        {
          "name": "F#2",
          "midi": 42,
          "time": 149.14270800000037,
          "velocity": 0.3937007874015748,
          "duration": 0.10714275000000839
        },
        {
          "name": "F#2",
          "midi": 42,
          "time": 149.35699350000039,
          "velocity": 0.3937007874015748,
          "duration": 0.10714275000000839
        },
        {
          "name": "F#2",
          "midi": 42,
          "time": 149.5712790000004,
          "velocity": 0.3937007874015748,
          "duration": 0.10714275000000839
        },
        {
          "name": "F#2",
          "midi": 42,
          "time": 149.6784217500004,
          "velocity": 0.3937007874015748,
          "duration": 0.10714275000000839
        },
        {
          "name": "F#2",
          "midi": 42,
          "time": 149.78556450000042,
          "velocity": 0.3937007874015748,
          "duration": 0.10714275000000839
        },
        {
          "name": "F#2",
          "midi": 42,
          "time": 149.89270725000043,
          "velocity": 0.3937007874015748,
          "duration": 0.10714275000000839
        },
        {
          "name": "F#2",
          "midi": 42,
          "time": 149.99985000000044,
          "velocity": 0.3937007874015748,
          "duration": 0.10714275000000839
        },
        {
          "name": "F#2",
          "midi": 42,
          "time": 150.10699275000044,
          "velocity": 0.3937007874015748,
          "duration": 0.10714275000000839
        },
        {
          "name": "F#2",
          "midi": 42,
          "time": 150.21413550000045,
          "velocity": 0.3937007874015748,
          "duration": 0.10714275000000839
        },
        {
          "name": "F#2",
          "midi": 42,
          "time": 150.42842100000047,
          "velocity": 0.3937007874015748,
          "duration": 0.10714275000000839
        },
        {
          "name": "F#2",
          "midi": 42,
          "time": 150.6427065000005,
          "velocity": 0.3937007874015748,
          "duration": 0.10714275000000839
        }
      ],
      "controlChanges": {},
      "id": 4,
      "name": "808 Drum Kit",
      "instrumentNumber": 0,
      "instrument": "standard kit",
      "instrumentFamily": "drums",
      "channelNumber": 9,
      "isPercussion": true
    }
  ]
}