{
    "header": {
      "keySignatures": [
        {
          "key": "C",
          "scale": "major",
          "ticks": 0
        }
      ],
      "meta": [],
      "name": "One Summer's Day",
      "ppq": 192,
      "tempos": [
        {
          "bpm": 80,
          "ticks": 0
        },
        {
          "bpm": 75,
          "ticks": 34986
        },
        {
          "bpm": 70.00007000007,
          "ticks": 35206
        },
        {
          "bpm": 65.000065000065,
          "ticks": 35474
        },
        {
          "bpm": 80,
          "ticks": 38738
        },
        {
          "bpm": 60,
          "ticks": 50214
        }
      ],
      "timeSignatures": [
        {
          "ticks": 0,
          "timeSignature": [
            4,
            4
          ],
          "measures": 0
        },
        {
          "ticks": 23682,
          "timeSignature": [
            2,
            4
          ],
          "measures": 30.8359375
        },
        {
          "ticks": 24450,
          "timeSignature": [
            4,
            4
          ],
          "measures": 32.8359375
        },
        {
          "ticks": 32898,
          "timeSignature": [
            2,
            4
          ],
          "measures": 43.8359375
        },
        {
          "ticks": 33282,
          "timeSignature": [
            4,
            4
          ],
          "measures": 44.8359375
        }
      ]
    },
    "tracks": [
      {
        "channel": 0,
        "controlChanges": {
          "0": [
            {
              "number": 0,
              "ticks": 0,
              "time": 0,
              "value": 0
            }
          ],
          "6": [
            {
              "number": 6,
              "ticks": 0,
              "time": 0,
              "value": 0.1889763779527559
            }
          ],
          "7": [
            {
              "number": 7,
              "ticks": 0,
              "time": 0,
              "value": 1
            }
          ],
          "10": [
            {
              "number": 10,
              "ticks": 0,
              "time": 0,
              "value": 0.5039370078740157
            },
            {
              "number": 10,
              "ticks": 0,
              "time": 0,
              "value": 0.5039370078740157
            }
          ],
          "32": [
            {
              "number": 32,
              "ticks": 0,
              "time": 0,
              "value": 0
            }
          ],
          "64": [
            {
              "number": 64,
              "ticks": 0,
              "time": 0,
              "value": 1
            },
            {
              "number": 64,
              "ticks": 768,
              "time": 3,
              "value": 1
            },
            {
              "number": 64,
              "ticks": 1536,
              "time": 6,
              "value": 1
            },
            {
              "number": 64,
              "ticks": 2304,
              "time": 9,
              "value": 1
            },
            {
              "number": 64,
              "ticks": 2592,
              "time": 10.125,
              "value": 1
            },
            {
              "number": 64,
              "ticks": 3208,
              "time": 12.53125,
              "value": 0
            },
            {
              "number": 64,
              "ticks": 35688,
              "time": 139.80600166666667,
              "value": 1
            },
            {
              "number": 64,
              "ticks": 40680,
              "time": 162.05538604166668,
              "value": 1
            },
            {
              "number": 64,
              "ticks": 40984,
              "time": 163.24288604166668,
              "value": 0
            },
            {
              "number": 64,
              "ticks": 50264,
              "time": 199.55799020833334,
              "value": 1
            },
            {
              "number": 64,
              "ticks": 50536,
              "time": 200.97465687500002,
              "value": 1
            },
            {
              "number": 64,
              "ticks": 50646,
              "time": 201.54757354166668,
              "value": 1
            },
            {
              "number": 64,
              "ticks": 50736,
              "time": 202.01632354166668,
              "value": 1
            },
            {
              "number": 64,
              "ticks": 50856,
              "time": 202.64132354166668,
              "value": 1
            },
            {
              "number": 64,
              "ticks": 50930,
              "time": 203.02674020833334,
              "value": 1
            },
            {
              "number": 64,
              "ticks": 51040,
              "time": 203.59965687500002,
              "value": 1
            },
            {
              "number": 64,
              "ticks": 51108,
              "time": 203.95382354166668,
              "value": 1
            },
            {
              "number": 64,
              "ticks": 54786,
              "time": 223.11007354166668,
              "value": 0
            }
          ],
          "100": [
            {
              "number": 100,
              "ticks": 0,
              "time": 0,
              "value": 0
            }
          ],
          "101": [
            {
              "number": 101,
              "ticks": 0,
              "time": 0,
              "value": 0
            }
          ],
          "120": [
            {
              "number": 120,
              "ticks": 54786,
              "time": 223.11007354166668,
              "value": 0
            }
          ],
          "123": [
            {
              "number": 123,
              "ticks": 54786,
              "time": 223.11007354166668,
              "value": 0
            }
          ]
        },
        "pitchBends": [
          {
            "ticks": 0,
            "time": 0,
            "value": 0
          }
        ],
        "instrument": {
          "family": "piano",
          "number": 0,
          "name": "acoustic grand piano"
        },
        "name": "Piano 1",
        "notes": [
          {
            "duration": 3,
            "durationTicks": 768,
            "midi": 79,
            "name": "G5",
            "ticks": 0,
            "time": 0,
            "velocity": 0.5039370078740157
          },
          {
            "duration": 3,
            "durationTicks": 768,
            "midi": 81,
            "name": "A5",
            "ticks": 16,
            "time": 0.0625,
            "velocity": 0.5039370078740157
          },
          {
            "duration": 3,
            "durationTicks": 768,
            "midi": 88,
            "name": "E6",
            "ticks": 30,
            "time": 0.1171875,
            "velocity": 0.5039370078740157
          },
          {
            "duration": 3,
            "durationTicks": 768,
            "midi": 74,
            "name": "D5",
            "ticks": 768,
            "time": 3,
            "velocity": 0.5039370078740157
          },
          {
            "duration": 3,
            "durationTicks": 768,
            "midi": 79,
            "name": "G5",
            "ticks": 784,
            "time": 3.0625,
            "velocity": 0.5039370078740157
          },
          {
            "duration": 3,
            "durationTicks": 768,
            "midi": 84,
            "name": "C6",
            "ticks": 798,
            "time": 3.1171875,
            "velocity": 0.5039370078740157
          },
          {
            "duration": 1.5,
            "durationTicks": 384,
            "midi": 72,
            "name": "C5",
            "ticks": 1536,
            "time": 6,
            "velocity": 0.5039370078740157
          },
          {
            "duration": 1.5,
            "durationTicks": 384,
            "midi": 77,
            "name": "F5",
            "ticks": 1552,
            "time": 6.0625,
            "velocity": 0.5039370078740157
          },
          {
            "duration": 1.5,
            "durationTicks": 384,
            "midi": 82,
            "name": "A#5",
            "ticks": 1566,
            "time": 6.1171875,
            "velocity": 0.5039370078740157
          },
          {
            "duration": 4.5,
            "durationTicks": 1152,
            "midi": 76,
            "name": "E5",
            "ticks": 1920,
            "time": 7.5,
            "velocity": 0.5039370078740157
          },
          {
            "duration": 4.5,
            "durationTicks": 1152,
            "midi": 81,
            "name": "A5",
            "ticks": 1936,
            "time": 7.5625,
            "velocity": 0.5039370078740157
          },
          {
            "duration": 4.5,
            "durationTicks": 1152,
            "midi": 86,
            "name": "D6",
            "ticks": 1950,
            "time": 7.6171875,
            "velocity": 0.5039370078740157
          },
          {
            "duration": 0.375,
            "durationTicks": 96,
            "midi": 76,
            "name": "E5",
            "ticks": 3936,
            "time": 15.375,
            "velocity": 0.5039370078740157
          },
          {
            "duration": 0.375,
            "durationTicks": 96,
            "midi": 76,
            "name": "E5",
            "ticks": 4032,
            "time": 15.75,
            "velocity": 0.5039370078740157
          },
          {
            "duration": 0.375,
            "durationTicks": 96,
            "midi": 76,
            "name": "E5",
            "ticks": 4128,
            "time": 16.125,
            "velocity": 0.5039370078740157
          },
          {
            "duration": 0.375,
            "durationTicks": 96,
            "midi": 76,
            "name": "E5",
            "ticks": 4224,
            "time": 16.5,
            "velocity": 0.5039370078740157
          },
          {
            "duration": 0.375,
            "durationTicks": 96,
            "midi": 74,
            "name": "D5",
            "ticks": 4320,
            "time": 16.875,
            "velocity": 0.5039370078740157
          },
          {
            "duration": 0.375,
            "durationTicks": 96,
            "midi": 76,
            "name": "E5",
            "ticks": 4416,
            "time": 17.25,
            "velocity": 0.5039370078740157
          },
          {
            "duration": 0.375,
            "durationTicks": 96,
            "midi": 81,
            "name": "A5",
            "ticks": 4512,
            "time": 17.625,
            "velocity": 0.5039370078740157
          },
          {
            "duration": 0.375,
            "durationTicks": 96,
            "midi": 76,
            "name": "E5",
            "ticks": 4608,
            "time": 18,
            "velocity": 0.5039370078740157
          },
          {
            "duration": 0.1875,
            "durationTicks": 48,
            "midi": 74,
            "name": "D5",
            "ticks": 4704,
            "time": 18.375,
            "velocity": 0.5039370078740157
          },
          {
            "duration": 2.4453125,
            "durationTicks": 626,
            "midi": 74,
            "name": "D5",
            "ticks": 4752,
            "time": 18.5625,
            "velocity": 0.5039370078740157
          },
          {
            "duration": 0.375,
            "durationTicks": 96,
            "midi": 74,
            "name": "D5",
            "ticks": 5472,
            "time": 21.375,
            "velocity": 0.5039370078740157
          },
          {
            "duration": 0.375,
            "durationTicks": 96,
            "midi": 74,
            "name": "D5",
            "ticks": 5568,
            "time": 21.75,
            "velocity": 0.5039370078740157
          },
          {
            "duration": 0.375,
            "durationTicks": 96,
            "midi": 74,
            "name": "D5",
            "ticks": 5664,
            "time": 22.125,
            "velocity": 0.5039370078740157
          },
          {
            "duration": 0.375,
            "durationTicks": 96,
            "midi": 74,
            "name": "D5",
            "ticks": 5760,
            "time": 22.5,
            "velocity": 0.5039370078740157
          },
          {
            "duration": 0.375,
            "durationTicks": 96,
            "midi": 72,
            "name": "C5",
            "ticks": 5856,
            "time": 22.875,
            "velocity": 0.5039370078740157
          },
          {
            "duration": 0.375,
            "durationTicks": 96,
            "midi": 74,
            "name": "D5",
            "ticks": 5952,
            "time": 23.25,
            "velocity": 0.5039370078740157
          },
          {
            "duration": 0.375,
            "durationTicks": 96,
            "midi": 79,
            "name": "G5",
            "ticks": 6048,
            "time": 23.625,
            "velocity": 0.5039370078740157
          },
          {
            "duration": 0.375,
            "durationTicks": 96,
            "midi": 74,
            "name": "D5",
            "ticks": 6144,
            "time": 24,
            "velocity": 0.5039370078740157
          },
          {
            "duration": 0.375,
            "durationTicks": 96,
            "midi": 72,
            "name": "C5",
            "ticks": 6240,
            "time": 24.375,
            "velocity": 0.5039370078740157
          },
          {
            "duration": 0.375,
            "durationTicks": 96,
            "midi": 71,
            "name": "B4",
            "ticks": 6336,
            "time": 24.75,
            "velocity": 0.5039370078740157
          },
          {
            "duration": 1.5,
            "durationTicks": 384,
            "midi": 72,
            "name": "C5",
            "ticks": 6432,
            "time": 25.125,
            "velocity": 0.5039370078740157
          },
          {
            "duration": 0.1875,
            "durationTicks": 48,
            "midi": 69,
            "name": "A4",
            "ticks": 6816,
            "time": 26.625,
            "velocity": 0.5039370078740157
          },
          {
            "duration": 0.1875,
            "durationTicks": 48,
            "midi": 71,
            "name": "B4",
            "ticks": 6864,
            "time": 26.8125,
            "velocity": 0.5039370078740157
          },
          {
            "duration": 0.375,
            "durationTicks": 96,
            "midi": 72,
            "name": "C5",
            "ticks": 6912,
            "time": 27,
            "velocity": 0.5039370078740157
          },
          {
            "duration": 0.375,
            "durationTicks": 96,
            "midi": 72,
            "name": "C5",
            "ticks": 7008,
            "time": 27.375,
            "velocity": 0.5039370078740157
          },
          {
            "duration": 0.375,
            "durationTicks": 96,
            "midi": 72,
            "name": "C5",
            "ticks": 7104,
            "time": 27.75,
            "velocity": 0.5039370078740157
          },
          {
            "duration": 0.375,
            "durationTicks": 96,
            "midi": 72,
            "name": "C5",
            "ticks": 7200,
            "time": 28.125,
            "velocity": 0.5039370078740157
          },
          {
            "duration": 1.125,
            "durationTicks": 288,
            "midi": 72,
            "name": "C5",
            "ticks": 7296,
            "time": 28.5,
            "velocity": 0.5039370078740157
          },
          {
            "duration": 0.1875,
            "durationTicks": 48,
            "midi": 69,
            "name": "A4",
            "ticks": 7584,
            "time": 29.625,
            "velocity": 0.5039370078740157
          },
          {
            "duration": 0.1875,
            "durationTicks": 48,
            "midi": 71,
            "name": "B4",
            "ticks": 7632,
            "time": 29.8125,
            "velocity": 0.5039370078740157
          },
          {
            "duration": 0.375,
            "durationTicks": 96,
            "midi": 72,
            "name": "C5",
            "ticks": 7680,
            "time": 30,
            "velocity": 0.5039370078740157
          },
          {
            "duration": 0.375,
            "durationTicks": 96,
            "midi": 72,
            "name": "C5",
            "ticks": 7776,
            "time": 30.375,
            "velocity": 0.5039370078740157
          },
          {
            "duration": 0.375,
            "durationTicks": 96,
            "midi": 72,
            "name": "C5",
            "ticks": 7872,
            "time": 30.75,
            "velocity": 0.5039370078740157
          },
          {
            "duration": 0.375,
            "durationTicks": 96,
            "midi": 72,
            "name": "C5",
            "ticks": 7968,
            "time": 31.125,
            "velocity": 0.5039370078740157
          },
          {
            "duration": 0.375,
            "durationTicks": 96,
            "midi": 71,
            "name": "B4",
            "ticks": 8064,
            "time": 31.5,
            "velocity": 0.5039370078740157
          },
          {
            "duration": 0.75,
            "durationTicks": 192,
            "midi": 72,
            "name": "C5",
            "ticks": 8160,
            "time": 31.875,
            "velocity": 0.5039370078740157
          },
          {
            "duration": 0.1875,
            "durationTicks": 48,
            "midi": 69,
            "name": "A4",
            "ticks": 8352,
            "time": 32.625,
            "velocity": 0.5039370078740157
          },
          {
            "duration": 0.1875,
            "durationTicks": 48,
            "midi": 71,
            "name": "B4",
            "ticks": 8400,
            "time": 32.8125,
            "velocity": 0.5039370078740157
          },
          {
            "duration": 0.375,
            "durationTicks": 96,
            "midi": 72,
            "name": "C5",
            "ticks": 8448,
            "time": 33,
            "velocity": 0.5039370078740157
          },
          {
            "duration": 0.375,
            "durationTicks": 96,
            "midi": 72,
            "name": "C5",
            "ticks": 8544,
            "time": 33.375,
            "velocity": 0.5039370078740157
          },
          {
            "duration": 0.375,
            "durationTicks": 96,
            "midi": 72,
            "name": "C5",
            "ticks": 8640,
            "time": 33.75,
            "velocity": 0.5039370078740157
          },
          {
            "duration": 0.375,
            "durationTicks": 96,
            "midi": 72,
            "name": "C5",
            "ticks": 8736,
            "time": 34.125,
            "velocity": 0.5039370078740157
          },
          {
            "duration": 0.375,
            "durationTicks": 96,
            "midi": 72,
            "name": "C5",
            "ticks": 8832,
            "time": 34.5,
            "velocity": 0.5039370078740157
          },
          {
            "duration": 0.75,
            "durationTicks": 192,
            "midi": 79,
            "name": "G5",
            "ticks": 8928,
            "time": 34.875,
            "velocity": 0.5039370078740157
          },
          {
            "duration": 0.375,
            "durationTicks": 96,
            "midi": 72,
            "name": "C5",
            "ticks": 9120,
            "time": 35.625,
            "velocity": 0.5039370078740157
          },
          {
            "duration": 3,
            "durationTicks": 768,
            "midi": 74,
            "name": "D5",
            "ticks": 9216,
            "time": 36,
            "velocity": 0.5039370078740157
          },
          {
            "duration": 0.375,
            "durationTicks": 96,
            "midi": 76,
            "name": "E5",
            "ticks": 10080,
            "time": 39.375,
            "velocity": 0.5039370078740157
          },
          {
            "duration": 0.375,
            "durationTicks": 96,
            "midi": 76,
            "name": "E5",
            "ticks": 10176,
            "time": 39.75,
            "velocity": 0.5039370078740157
          },
          {
            "duration": 0.375,
            "durationTicks": 96,
            "midi": 76,
            "name": "E5",
            "ticks": 10272,
            "time": 40.125,
            "velocity": 0.5039370078740157
          },
          {
            "duration": 0.375,
            "durationTicks": 96,
            "midi": 76,
            "name": "E5",
            "ticks": 10368,
            "time": 40.5,
            "velocity": 0.5039370078740157
          },
          {
            "duration": 0.375,
            "durationTicks": 96,
            "midi": 74,
            "name": "D5",
            "ticks": 10464,
            "time": 40.875,
            "velocity": 0.5039370078740157
          },
          {
            "duration": 0.375,
            "durationTicks": 96,
            "midi": 76,
            "name": "E5",
            "ticks": 10560,
            "time": 41.25,
            "velocity": 0.5039370078740157
          },
          {
            "duration": 0.375,
            "durationTicks": 96,
            "midi": 81,
            "name": "A5",
            "ticks": 10656,
            "time": 41.625,
            "velocity": 0.5039370078740157
          },
          {
            "duration": 0.375,
            "durationTicks": 96,
            "midi": 76,
            "name": "E5",
            "ticks": 10752,
            "time": 42,
            "velocity": 0.5039370078740157
          },
          {
            "duration": 0.1875,
            "durationTicks": 48,
            "midi": 74,
            "name": "D5",
            "ticks": 10848,
            "time": 42.375,
            "velocity": 0.5039370078740157
          },
          {
            "duration": 2.4453125,
            "durationTicks": 626,
            "midi": 74,
            "name": "D5",
            "ticks": 10896,
            "time": 42.5625,
            "velocity": 0.5039370078740157
          },
          {
            "duration": 0.375,
            "durationTicks": 96,
            "midi": 74,
            "name": "D5",
            "ticks": 11616,
            "time": 45.375,
            "velocity": 0.5039370078740157
          },
          {
            "duration": 0.375,
            "durationTicks": 96,
            "midi": 74,
            "name": "D5",
            "ticks": 11712,
            "time": 45.75,
            "velocity": 0.5039370078740157
          },
          {
            "duration": 0.375,
            "durationTicks": 96,
            "midi": 74,
            "name": "D5",
            "ticks": 11808,
            "time": 46.125,
            "velocity": 0.5039370078740157
          },
          {
            "duration": 0.375,
            "durationTicks": 96,
            "midi": 74,
            "name": "D5",
            "ticks": 11904,
            "time": 46.5,
            "velocity": 0.5039370078740157
          },
          {
            "duration": 0.375,
            "durationTicks": 96,
            "midi": 72,
            "name": "C5",
            "ticks": 12000,
            "time": 46.875,
            "velocity": 0.5039370078740157
          },
          {
            "duration": 0.375,
            "durationTicks": 96,
            "midi": 74,
            "name": "D5",
            "ticks": 12096,
            "time": 47.25,
            "velocity": 0.5039370078740157
          },
          {
            "duration": 0.375,
            "durationTicks": 96,
            "midi": 79,
            "name": "G5",
            "ticks": 12192,
            "time": 47.625,
            "velocity": 0.5039370078740157
          },
          {
            "duration": 0.375,
            "durationTicks": 96,
            "midi": 74,
            "name": "D5",
            "ticks": 12288,
            "time": 48,
            "velocity": 0.5039370078740157
          },
          {
            "duration": 0.375,
            "durationTicks": 96,
            "midi": 72,
            "name": "C5",
            "ticks": 12384,
            "time": 48.375,
            "velocity": 0.5039370078740157
          },
          {
            "duration": 0.375,
            "durationTicks": 96,
            "midi": 71,
            "name": "B4",
            "ticks": 12480,
            "time": 48.75,
            "velocity": 0.5039370078740157
          },
          {
            "duration": 1.5,
            "durationTicks": 384,
            "midi": 72,
            "name": "C5",
            "ticks": 12576,
            "time": 49.125,
            "velocity": 0.5039370078740157
          },
          {
            "duration": 0.1875,
            "durationTicks": 48,
            "midi": 69,
            "name": "A4",
            "ticks": 12960,
            "time": 50.625,
            "velocity": 0.5039370078740157
          },
          {
            "duration": 0.1875,
            "durationTicks": 48,
            "midi": 71,
            "name": "B4",
            "ticks": 13008,
            "time": 50.8125,
            "velocity": 0.5039370078740157
          },
          {
            "duration": 1.5,
            "durationTicks": 384,
            "midi": 65,
            "name": "F4",
            "ticks": 13056,
            "time": 51,
            "velocity": 0.5039370078740157
          },
          {
            "duration": 1.5,
            "durationTicks": 384,
            "midi": 64,
            "name": "E4",
            "ticks": 13056,
            "time": 51,
            "velocity": 0.5039370078740157
          },
          {
            "duration": 0.375,
            "durationTicks": 96,
            "midi": 72,
            "name": "C5",
            "ticks": 13056,
            "time": 51,
            "velocity": 0.5039370078740157
          },
          {
            "duration": 0.375,
            "durationTicks": 96,
            "midi": 72,
            "name": "C5",
            "ticks": 13152,
            "time": 51.375,
            "velocity": 0.5039370078740157
          },
          {
            "duration": 0.375,
            "durationTicks": 96,
            "midi": 72,
            "name": "C5",
            "ticks": 13248,
            "time": 51.75,
            "velocity": 0.5039370078740157
          },
          {
            "duration": 0.375,
            "durationTicks": 96,
            "midi": 72,
            "name": "C5",
            "ticks": 13344,
            "time": 52.125,
            "velocity": 0.5039370078740157
          },
          {
            "duration": 1.125,
            "durationTicks": 288,
            "midi": 72,
            "name": "C5",
            "ticks": 13440,
            "time": 52.5,
            "velocity": 0.5039370078740157
          },
          {
            "duration": 1.125,
            "durationTicks": 288,
            "midi": 65,
            "name": "F4",
            "ticks": 13440,
            "time": 52.5,
            "velocity": 0.5039370078740157
          },
          {
            "duration": 0.1875,
            "durationTicks": 48,
            "midi": 69,
            "name": "A4",
            "ticks": 13728,
            "time": 53.625,
            "velocity": 0.5039370078740157
          },
          {
            "duration": 0.1875,
            "durationTicks": 48,
            "midi": 71,
            "name": "B4",
            "ticks": 13776,
            "time": 53.8125,
            "velocity": 0.5039370078740157
          },
          {
            "duration": 1.5,
            "durationTicks": 384,
            "midi": 67,
            "name": "G4",
            "ticks": 13824,
            "time": 54,
            "velocity": 0.5039370078740157
          },
          {
            "duration": 1.5,
            "durationTicks": 384,
            "midi": 64,
            "name": "E4",
            "ticks": 13824,
            "time": 54,
            "velocity": 0.5039370078740157
          },
          {
            "duration": 0.375,
            "durationTicks": 96,
            "midi": 72,
            "name": "C5",
            "ticks": 13824,
            "time": 54,
            "velocity": 0.5039370078740157
          },
          {
            "duration": 0.375,
            "durationTicks": 96,
            "midi": 72,
            "name": "C5",
            "ticks": 13920,
            "time": 54.375,
            "velocity": 0.5039370078740157
          },
          {
            "duration": 0.375,
            "durationTicks": 96,
            "midi": 72,
            "name": "C5",
            "ticks": 14016,
            "time": 54.75,
            "velocity": 0.5039370078740157
          },
          {
            "duration": 0.375,
            "durationTicks": 96,
            "midi": 72,
            "name": "C5",
            "ticks": 14112,
            "time": 55.125,
            "velocity": 0.5039370078740157
          },
          {
            "duration": 0.375,
            "durationTicks": 96,
            "midi": 71,
            "name": "B4",
            "ticks": 14208,
            "time": 55.5,
            "velocity": 0.5039370078740157
          },
          {
            "duration": 0.75,
            "durationTicks": 192,
            "midi": 72,
            "name": "C5",
            "ticks": 14304,
            "time": 55.875,
            "velocity": 0.5039370078740157
          },
          {
            "duration": 0.1875,
            "durationTicks": 48,
            "midi": 69,
            "name": "A4",
            "ticks": 14496,
            "time": 56.625,
            "velocity": 0.5039370078740157
          },
          {
            "duration": 0.1875,
            "durationTicks": 48,
            "midi": 71,
            "name": "B4",
            "ticks": 14544,
            "time": 56.8125,
            "velocity": 0.5039370078740157
          },
          {
            "duration": 1.5,
            "durationTicks": 384,
            "midi": 65,
            "name": "F4",
            "ticks": 14592,
            "time": 57,
            "velocity": 0.5039370078740157
          },
          {
            "duration": 1.5,
            "durationTicks": 384,
            "midi": 63,
            "name": "D#4",
            "ticks": 14592,
            "time": 57,
            "velocity": 0.5039370078740157
          },
          {
            "duration": 0.375,
            "durationTicks": 96,
            "midi": 72,
            "name": "C5",
            "ticks": 14592,
            "time": 57,
            "velocity": 0.5039370078740157
          },
          {
            "duration": 0.375,
            "durationTicks": 96,
            "midi": 72,
            "name": "C5",
            "ticks": 14688,
            "time": 57.375,
            "velocity": 0.5039370078740157
          },
          {
            "duration": 0.375,
            "durationTicks": 96,
            "midi": 72,
            "name": "C5",
            "ticks": 14784,
            "time": 57.75,
            "velocity": 0.5039370078740157
          },
          {
            "duration": 0.375,
            "durationTicks": 96,
            "midi": 72,
            "name": "C5",
            "ticks": 14880,
            "time": 58.125,
            "velocity": 0.5039370078740157
          },
          {
            "duration": 1.5,
            "durationTicks": 384,
            "midi": 65,
            "name": "F4",
            "ticks": 14976,
            "time": 58.5,
            "velocity": 0.5039370078740157
          },
          {
            "duration": 0.375,
            "durationTicks": 96,
            "midi": 72,
            "name": "C5",
            "ticks": 14976,
            "time": 58.5,
            "velocity": 0.5039370078740157
          },
          {
            "duration": 0.75,
            "durationTicks": 192,
            "midi": 79,
            "name": "G5",
            "ticks": 15072,
            "time": 58.875,
            "velocity": 0.5039370078740157
          },
          {
            "duration": 0.1875,
            "durationTicks": 48,
            "midi": 77,
            "name": "F5",
            "ticks": 15264,
            "time": 59.625,
            "velocity": 0.5039370078740157
          },
          {
            "duration": 0.1875,
            "durationTicks": 48,
            "midi": 75,
            "name": "D#5",
            "ticks": 15312,
            "time": 59.8125,
            "velocity": 0.5039370078740157
          },
          {
            "duration": 1.5,
            "durationTicks": 384,
            "midi": 74,
            "name": "D5",
            "ticks": 15360,
            "time": 60,
            "velocity": 0.5039370078740157
          },
          {
            "duration": 1.5,
            "durationTicks": 384,
            "midi": 68,
            "name": "G#4",
            "ticks": 15360,
            "time": 60,
            "velocity": 0.5039370078740157
          },
          {
            "duration": 1.5,
            "durationTicks": 384,
            "midi": 71,
            "name": "B4",
            "ticks": 15744,
            "time": 61.5,
            "velocity": 0.5039370078740157
          },
          {
            "duration": 1.5,
            "durationTicks": 384,
            "midi": 68,
            "name": "G#4",
            "ticks": 15744,
            "time": 61.5,
            "velocity": 0.5039370078740157
          },
          {
            "duration": 1.5,
            "durationTicks": 384,
            "midi": 64,
            "name": "E4",
            "ticks": 15744,
            "time": 61.5,
            "velocity": 0.5039370078740157
          },
          {
            "duration": 0.75,
            "durationTicks": 192,
            "midi": 76,
            "name": "E5",
            "ticks": 15744,
            "time": 61.5,
            "velocity": 0.5039370078740157
          },
          {
            "duration": 0.75,
            "durationTicks": 192,
            "midi": 77,
            "name": "F5",
            "ticks": 15936,
            "time": 62.25,
            "velocity": 0.5039370078740157
          },
          {
            "duration": 0.75,
            "durationTicks": 192,
            "midi": 65,
            "name": "F4",
            "ticks": 15936,
            "time": 62.25,
            "velocity": 0.5039370078740157
          },
          {
            "duration": 0.375,
            "durationTicks": 96,
            "midi": 79,
            "name": "G5",
            "ticks": 16128,
            "time": 63,
            "velocity": 0.5039370078740157
          },
          {
            "duration": 0.375,
            "durationTicks": 96,
            "midi": 74,
            "name": "D5",
            "ticks": 16128,
            "time": 63,
            "velocity": 0.5039370078740157
          },
          {
            "duration": 0.375,
            "durationTicks": 96,
            "midi": 72,
            "name": "C5",
            "ticks": 16128,
            "time": 63,
            "velocity": 0.5039370078740157
          },
          {
            "duration": 0.375,
            "durationTicks": 96,
            "midi": 69,
            "name": "A4",
            "ticks": 16128,
            "time": 63,
            "velocity": 0.5039370078740157
          },
          {
            "duration": 0.75,
            "durationTicks": 192,
            "midi": 79,
            "name": "G5",
            "ticks": 16224,
            "time": 63.375,
            "velocity": 0.5039370078740157
          },
          {
            "duration": 0.75,
            "durationTicks": 192,
            "midi": 74,
            "name": "D5",
            "ticks": 16224,
            "time": 63.375,
            "velocity": 0.5039370078740157
          },
          {
            "duration": 0.75,
            "durationTicks": 192,
            "midi": 72,
            "name": "C5",
            "ticks": 16224,
            "time": 63.375,
            "velocity": 0.5039370078740157
          },
          {
            "duration": 0.75,
            "durationTicks": 192,
            "midi": 69,
            "name": "A4",
            "ticks": 16224,
            "time": 63.375,
            "velocity": 0.5039370078740157
          },
          {
            "duration": 0.375,
            "durationTicks": 96,
            "midi": 79,
            "name": "G5",
            "ticks": 16416,
            "time": 64.125,
            "velocity": 0.5039370078740157
          },
          {
            "duration": 0.375,
            "durationTicks": 96,
            "midi": 74,
            "name": "D5",
            "ticks": 16416,
            "time": 64.125,
            "velocity": 0.5039370078740157
          },
          {
            "duration": 0.375,
            "durationTicks": 96,
            "midi": 72,
            "name": "C5",
            "ticks": 16416,
            "time": 64.125,
            "velocity": 0.5039370078740157
          },
          {
            "duration": 0.375,
            "durationTicks": 96,
            "midi": 69,
            "name": "A4",
            "ticks": 16416,
            "time": 64.125,
            "velocity": 0.5039370078740157
          },
          {
            "duration": 0.375,
            "durationTicks": 96,
            "midi": 79,
            "name": "G5",
            "ticks": 16512,
            "time": 64.5,
            "velocity": 0.5039370078740157
          },
          {
            "duration": 0.375,
            "durationTicks": 96,
            "midi": 71,
            "name": "B4",
            "ticks": 16512,
            "time": 64.5,
            "velocity": 0.5039370078740157
          },
          {
            "duration": 0.375,
            "durationTicks": 96,
            "midi": 68,
            "name": "G#4",
            "ticks": 16512,
            "time": 64.5,
            "velocity": 0.5039370078740157
          },
          {
            "duration": 0.375,
            "durationTicks": 96,
            "midi": 77,
            "name": "F5",
            "ticks": 16608,
            "time": 64.875,
            "velocity": 0.5039370078740157
          },
          {
            "duration": 0.375,
            "durationTicks": 96,
            "midi": 74,
            "name": "D5",
            "ticks": 16608,
            "time": 64.875,
            "velocity": 0.5039370078740157
          },
          {
            "duration": 0.375,
            "durationTicks": 96,
            "midi": 76,
            "name": "E5",
            "ticks": 16704,
            "time": 65.25,
            "velocity": 0.5039370078740157
          },
          {
            "duration": 0.375,
            "durationTicks": 96,
            "midi": 72,
            "name": "C5",
            "ticks": 16704,
            "time": 65.25,
            "velocity": 0.5039370078740157
          },
          {
            "duration": 0.375,
            "durationTicks": 96,
            "midi": 74,
            "name": "D5",
            "ticks": 16800,
            "time": 65.625,
            "velocity": 0.5039370078740157
          },
          {
            "duration": 0.375,
            "durationTicks": 96,
            "midi": 71,
            "name": "B4",
            "ticks": 16800,
            "time": 65.625,
            "velocity": 0.5039370078740157
          },
          {
            "duration": 0.375,
            "durationTicks": 96,
            "midi": 74,
            "name": "D5",
            "ticks": 16896,
            "time": 66,
            "velocity": 0.5039370078740157
          },
          {
            "duration": 0.375,
            "durationTicks": 96,
            "midi": 71,
            "name": "B4",
            "ticks": 16896,
            "time": 66,
            "velocity": 0.5039370078740157
          },
          {
            "duration": 0.1875,
            "durationTicks": 48,
            "midi": 76,
            "name": "E5",
            "ticks": 16992,
            "time": 66.375,
            "velocity": 0.5039370078740157
          },
          {
            "duration": 0.1875,
            "durationTicks": 48,
            "midi": 72,
            "name": "C5",
            "ticks": 16992,
            "time": 66.375,
            "velocity": 0.5039370078740157
          },
          {
            "duration": 0.9375,
            "durationTicks": 240,
            "midi": 72,
            "name": "C5",
            "ticks": 17040,
            "time": 66.5625,
            "velocity": 0.5039370078740157
          },
          {
            "duration": 0.9375,
            "durationTicks": 240,
            "midi": 69,
            "name": "A4",
            "ticks": 17040,
            "time": 66.5625,
            "velocity": 0.5039370078740157
          },
          {
            "duration": 0.75,
            "durationTicks": 192,
            "midi": 65,
            "name": "F4",
            "ticks": 17280,
            "time": 67.5,
            "velocity": 0.5039370078740157
          },
          {
            "duration": 0.75,
            "durationTicks": 192,
            "midi": 62,
            "name": "D4",
            "ticks": 17280,
            "time": 67.5,
            "velocity": 0.5039370078740157
          },
          {
            "duration": 0.3828125,
            "durationTicks": 98,
            "midi": 58,
            "name": "A#3",
            "ticks": 17280,
            "time": 67.5,
            "velocity": 0.5039370078740157
          },
          {
            "duration": 0.375,
            "durationTicks": 96,
            "midi": 57,
            "name": "A3",
            "ticks": 17376,
            "time": 67.875,
            "velocity": 0.5039370078740157
          },
          {
            "duration": 0.75,
            "durationTicks": 192,
            "midi": 60,
            "name": "C4",
            "ticks": 17472,
            "time": 68.25,
            "velocity": 0.5039370078740157
          },
          {
            "duration": 0.75,
            "durationTicks": 192,
            "midi": 58,
            "name": "A#3",
            "ticks": 17472,
            "time": 68.25,
            "velocity": 0.5039370078740157
          },
          {
            "duration": 0.375,
            "durationTicks": 96,
            "midi": 64,
            "name": "E4",
            "ticks": 17472,
            "time": 68.25,
            "velocity": 0.5039370078740157
          },
          {
            "duration": 0.1875,
            "durationTicks": 48,
            "midi": 76,
            "name": "E5",
            "ticks": 17568,
            "time": 68.625,
            "velocity": 0.5039370078740157
          },
          {
            "duration": 0.1875,
            "durationTicks": 48,
            "midi": 64,
            "name": "E4",
            "ticks": 17568,
            "time": 68.625,
            "velocity": 0.5039370078740157
          },
          {
            "duration": 0.1875,
            "durationTicks": 48,
            "midi": 77,
            "name": "F5",
            "ticks": 17616,
            "time": 68.8125,
            "velocity": 0.5039370078740157
          },
          {
            "duration": 0.1875,
            "durationTicks": 48,
            "midi": 65,
            "name": "F4",
            "ticks": 17616,
            "time": 68.8125,
            "velocity": 0.5039370078740157
          },
          {
            "duration": 0.375,
            "durationTicks": 96,
            "midi": 79,
            "name": "G5",
            "ticks": 17664,
            "time": 69,
            "velocity": 0.5039370078740157
          },
          {
            "duration": 0.375,
            "durationTicks": 96,
            "midi": 74,
            "name": "D5",
            "ticks": 17664,
            "time": 69,
            "velocity": 0.5039370078740157
          },
          {
            "duration": 0.375,
            "durationTicks": 96,
            "midi": 72,
            "name": "C5",
            "ticks": 17664,
            "time": 69,
            "velocity": 0.5039370078740157
          },
          {
            "duration": 0.375,
            "durationTicks": 96,
            "midi": 69,
            "name": "A4",
            "ticks": 17664,
            "time": 69,
            "velocity": 0.5039370078740157
          },
          {
            "duration": 0.375,
            "durationTicks": 96,
            "midi": 79,
            "name": "G5",
            "ticks": 17760,
            "time": 69.375,
            "velocity": 0.5039370078740157
          },
          {
            "duration": 0.375,
            "durationTicks": 96,
            "midi": 74,
            "name": "D5",
            "ticks": 17760,
            "time": 69.375,
            "velocity": 0.5039370078740157
          },
          {
            "duration": 0.375,
            "durationTicks": 96,
            "midi": 72,
            "name": "C5",
            "ticks": 17760,
            "time": 69.375,
            "velocity": 0.5039370078740157
          },
          {
            "duration": 0.375,
            "durationTicks": 96,
            "midi": 69,
            "name": "A4",
            "ticks": 17760,
            "time": 69.375,
            "velocity": 0.5039370078740157
          },
          {
            "duration": 0.375,
            "durationTicks": 96,
            "midi": 79,
            "name": "G5",
            "ticks": 17856,
            "time": 69.75,
            "velocity": 0.5039370078740157
          },
          {
            "duration": 0.375,
            "durationTicks": 96,
            "midi": 74,
            "name": "D5",
            "ticks": 17856,
            "time": 69.75,
            "velocity": 0.5039370078740157
          },
          {
            "duration": 0.375,
            "durationTicks": 96,
            "midi": 72,
            "name": "C5",
            "ticks": 17856,
            "time": 69.75,
            "velocity": 0.5039370078740157
          },
          {
            "duration": 0.375,
            "durationTicks": 96,
            "midi": 69,
            "name": "A4",
            "ticks": 17856,
            "time": 69.75,
            "velocity": 0.5039370078740157
          },
          {
            "duration": 0.375,
            "durationTicks": 96,
            "midi": 79,
            "name": "G5",
            "ticks": 17952,
            "time": 70.125,
            "velocity": 0.5039370078740157
          },
          {
            "duration": 0.375,
            "durationTicks": 96,
            "midi": 74,
            "name": "D5",
            "ticks": 17952,
            "time": 70.125,
            "velocity": 0.5039370078740157
          },
          {
            "duration": 0.375,
            "durationTicks": 96,
            "midi": 72,
            "name": "C5",
            "ticks": 17952,
            "time": 70.125,
            "velocity": 0.5039370078740157
          },
          {
            "duration": 0.375,
            "durationTicks": 96,
            "midi": 69,
            "name": "A4",
            "ticks": 17952,
            "time": 70.125,
            "velocity": 0.5039370078740157
          },
          {
            "duration": 0.375,
            "durationTicks": 96,
            "midi": 79,
            "name": "G5",
            "ticks": 18048,
            "time": 70.5,
            "velocity": 0.5039370078740157
          },
          {
            "duration": 0.375,
            "durationTicks": 96,
            "midi": 71,
            "name": "B4",
            "ticks": 18048,
            "time": 70.5,
            "velocity": 0.5039370078740157
          },
          {
            "duration": 0.375,
            "durationTicks": 96,
            "midi": 68,
            "name": "G#4",
            "ticks": 18048,
            "time": 70.5,
            "velocity": 0.5039370078740157
          },
          {
            "duration": 0.375,
            "durationTicks": 96,
            "midi": 77,
            "name": "F5",
            "ticks": 18144,
            "time": 70.875,
            "velocity": 0.5039370078740157
          },
          {
            "duration": 0.375,
            "durationTicks": 96,
            "midi": 74,
            "name": "D5",
            "ticks": 18144,
            "time": 70.875,
            "velocity": 0.5039370078740157
          },
          {
            "duration": 0.375,
            "durationTicks": 96,
            "midi": 76,
            "name": "E5",
            "ticks": 18240,
            "time": 71.25,
            "velocity": 0.5039370078740157
          },
          {
            "duration": 0.375,
            "durationTicks": 96,
            "midi": 72,
            "name": "C5",
            "ticks": 18240,
            "time": 71.25,
            "velocity": 0.5039370078740157
          },
          {
            "duration": 0.375,
            "durationTicks": 96,
            "midi": 74,
            "name": "D5",
            "ticks": 18336,
            "time": 71.625,
            "velocity": 0.5039370078740157
          },
          {
            "duration": 0.375,
            "durationTicks": 96,
            "midi": 71,
            "name": "B4",
            "ticks": 18336,
            "time": 71.625,
            "velocity": 0.5039370078740157
          },
          {
            "duration": 0.375,
            "durationTicks": 96,
            "midi": 74,
            "name": "D5",
            "ticks": 18432,
            "time": 72,
            "velocity": 0.5039370078740157
          },
          {
            "duration": 0.375,
            "durationTicks": 96,
            "midi": 71,
            "name": "B4",
            "ticks": 18432,
            "time": 72,
            "velocity": 0.5039370078740157
          },
          {
            "duration": 1.875,
            "durationTicks": 480,
            "midi": 76,
            "name": "E5",
            "ticks": 18528,
            "time": 72.375,
            "velocity": 0.5039370078740157
          },
          {
            "duration": 1.875,
            "durationTicks": 480,
            "midi": 72,
            "name": "C5",
            "ticks": 18528,
            "time": 72.375,
            "velocity": 0.5039370078740157
          },
          {
            "duration": 0.375,
            "durationTicks": 96,
            "midi": 72,
            "name": "C5",
            "ticks": 19008,
            "time": 74.25,
            "velocity": 0.5039370078740157
          },
          {
            "duration": 0.375,
            "durationTicks": 96,
            "midi": 74,
            "name": "D5",
            "ticks": 19104,
            "time": 74.625,
            "velocity": 0.5039370078740157
          },
          {
            "duration": 1.125,
            "durationTicks": 288,
            "midi": 76,
            "name": "E5",
            "ticks": 19200,
            "time": 75,
            "velocity": 0.5039370078740157
          },
          {
            "duration": 1.125,
            "durationTicks": 288,
            "midi": 72,
            "name": "C5",
            "ticks": 19200,
            "time": 75,
            "velocity": 0.5039370078740157
          },
          {
            "duration": 1.125,
            "durationTicks": 288,
            "midi": 71,
            "name": "B4",
            "ticks": 19200,
            "time": 75,
            "velocity": 0.5039370078740157
          },
          {
            "duration": 1.125,
            "durationTicks": 288,
            "midi": 66,
            "name": "F#4",
            "ticks": 19200,
            "time": 75,
            "velocity": 0.5039370078740157
          },
          {
            "duration": 0.375,
            "durationTicks": 96,
            "midi": 69,
            "name": "A4",
            "ticks": 19488,
            "time": 76.125,
            "velocity": 0.5039370078740157
          },
          {
            "duration": 1.5,
            "durationTicks": 384,
            "midi": 72,
            "name": "C5",
            "ticks": 19584,
            "time": 76.5,
            "velocity": 0.5039370078740157
          },
          {
            "duration": 0.75,
            "durationTicks": 192,
            "midi": 64,
            "name": "E4",
            "ticks": 19968,
            "time": 78,
            "velocity": 0.5039370078740157
          },
          {
            "duration": 0.75,
            "durationTicks": 192,
            "midi": 60,
            "name": "C4",
            "ticks": 19968,
            "time": 78,
            "velocity": 0.5039370078740157
          },
          {
            "duration": 0.75,
            "durationTicks": 192,
            "midi": 57,
            "name": "A3",
            "ticks": 19968,
            "time": 78,
            "velocity": 0.5039370078740157
          },
          {
            "duration": 0.75,
            "durationTicks": 192,
            "midi": 65,
            "name": "F4",
            "ticks": 20160,
            "time": 78.75,
            "velocity": 0.5039370078740157
          },
          {
            "duration": 0.75,
            "durationTicks": 192,
            "midi": 57,
            "name": "A3",
            "ticks": 20160,
            "time": 78.75,
            "velocity": 0.5039370078740157
          },
          {
            "duration": 0.75,
            "durationTicks": 192,
            "midi": 62,
            "name": "D4",
            "ticks": 20352,
            "time": 79.5,
            "velocity": 0.5039370078740157
          },
          {
            "duration": 0.75,
            "durationTicks": 192,
            "midi": 57,
            "name": "A3",
            "ticks": 20352,
            "time": 79.5,
            "velocity": 0.5039370078740157
          },
          {
            "duration": 0.75,
            "durationTicks": 192,
            "midi": 53,
            "name": "F3",
            "ticks": 20352,
            "time": 79.5,
            "velocity": 0.5039370078740157
          },
          {
            "duration": 0.375,
            "durationTicks": 96,
            "midi": 72,
            "name": "C5",
            "ticks": 20544,
            "time": 80.25,
            "velocity": 0.5039370078740157
          },
          {
            "duration": 0.375,
            "durationTicks": 96,
            "midi": 74,
            "name": "D5",
            "ticks": 20640,
            "time": 80.625,
            "velocity": 0.5039370078740157
          },
          {
            "duration": 1.125,
            "durationTicks": 288,
            "midi": 76,
            "name": "E5",
            "ticks": 20736,
            "time": 81,
            "velocity": 0.5039370078740157
          },
          {
            "duration": 1.125,
            "durationTicks": 288,
            "midi": 71,
            "name": "B4",
            "ticks": 20736,
            "time": 81,
            "velocity": 0.5039370078740157
          },
          {
            "duration": 1.125,
            "durationTicks": 288,
            "midi": 66,
            "name": "F#4",
            "ticks": 20736,
            "time": 81,
            "velocity": 0.5039370078740157
          },
          {
            "duration": 0.375,
            "durationTicks": 96,
            "midi": 69,
            "name": "A4",
            "ticks": 21024,
            "time": 82.125,
            "velocity": 0.5039370078740157
          },
          {
            "duration": 1.5,
            "durationTicks": 384,
            "midi": 72,
            "name": "C5",
            "ticks": 21120,
            "time": 82.5,
            "velocity": 0.5039370078740157
          },
          {
            "duration": 2.25,
            "durationTicks": 576,
            "midi": 69,
            "name": "A4",
            "ticks": 21504,
            "time": 84,
            "velocity": 0.5039370078740157
          },
          {
            "duration": 2.25,
            "durationTicks": 576,
            "midi": 65,
            "name": "F4",
            "ticks": 21504,
            "time": 84,
            "velocity": 0.5039370078740157
          },
          {
            "duration": 2.25,
            "durationTicks": 576,
            "midi": 62,
            "name": "D4",
            "ticks": 21504,
            "time": 84,
            "velocity": 0.5039370078740157
          },
          {
            "duration": 2.25,
            "durationTicks": 576,
            "midi": 60,
            "name": "C4",
            "ticks": 21504,
            "time": 84,
            "velocity": 0.5039370078740157
          },
          {
            "duration": 0.375,
            "durationTicks": 96,
            "midi": 81,
            "name": "A5",
            "ticks": 22080,
            "time": 86.25,
            "velocity": 0.5039370078740157
          },
          {
            "duration": 0.1875,
            "durationTicks": 48,
            "midi": 83,
            "name": "B5",
            "ticks": 22176,
            "time": 86.625,
            "velocity": 0.5039370078740157
          },
          {
            "duration": 0.1875,
            "durationTicks": 48,
            "midi": 76,
            "name": "E5",
            "ticks": 22224,
            "time": 86.8125,
            "velocity": 0.5039370078740157
          },
          {
            "duration": 0.375,
            "durationTicks": 96,
            "midi": 84,
            "name": "C6",
            "ticks": 22272,
            "time": 87,
            "velocity": 0.5039370078740157
          },
          {
            "duration": 0.375,
            "durationTicks": 96,
            "midi": 84,
            "name": "C6",
            "ticks": 22368,
            "time": 87.375,
            "velocity": 0.5039370078740157
          },
          {
            "duration": 0.375,
            "durationTicks": 96,
            "midi": 86,
            "name": "D6",
            "ticks": 22464,
            "time": 87.75,
            "velocity": 0.5039370078740157
          },
          {
            "duration": 0.375,
            "durationTicks": 96,
            "midi": 84,
            "name": "C6",
            "ticks": 22560,
            "time": 88.125,
            "velocity": 0.5039370078740157
          },
          {
            "duration": 0.75,
            "durationTicks": 192,
            "midi": 83,
            "name": "B5",
            "ticks": 22656,
            "time": 88.5,
            "velocity": 0.5039370078740157
          },
          {
            "duration": 0.375,
            "durationTicks": 96,
            "midi": 76,
            "name": "E5",
            "ticks": 22848,
            "time": 89.25,
            "velocity": 0.5039370078740157
          },
          {
            "duration": 0.1875,
            "durationTicks": 48,
            "midi": 79,
            "name": "G5",
            "ticks": 22944,
            "time": 89.625,
            "velocity": 0.5039370078740157
          },
          {
            "duration": 0.1875,
            "durationTicks": 48,
            "midi": 76,
            "name": "E5",
            "ticks": 22992,
            "time": 89.8125,
            "velocity": 0.5039370078740157
          },
          {
            "duration": 0.375,
            "durationTicks": 96,
            "midi": 81,
            "name": "A5",
            "ticks": 23040,
            "time": 90,
            "velocity": 0.5039370078740157
          },
          {
            "duration": 0.375,
            "durationTicks": 96,
            "midi": 81,
            "name": "A5",
            "ticks": 23136,
            "time": 90.375,
            "velocity": 0.5039370078740157
          },
          {
            "duration": 0.375,
            "durationTicks": 96,
            "midi": 79,
            "name": "G5",
            "ticks": 23232,
            "time": 90.75,
            "velocity": 0.5039370078740157
          },
          {
            "duration": 0.375,
            "durationTicks": 96,
            "midi": 77,
            "name": "F5",
            "ticks": 23328,
            "time": 91.125,
            "velocity": 0.5039370078740157
          },
          {
            "duration": 1.125,
            "durationTicks": 288,
            "midi": 79,
            "name": "G5",
            "ticks": 23424,
            "time": 91.5,
            "velocity": 0.5039370078740157
          },
          {
            "duration": 0.375,
            "durationTicks": 96,
            "midi": 67,
            "name": "G4",
            "ticks": 23712,
            "time": 92.625,
            "velocity": 0.5039370078740157
          },
          {
            "duration": 0.375,
            "durationTicks": 96,
            "midi": 67,
            "name": "G4",
            "ticks": 23808,
            "time": 93,
            "velocity": 0.5039370078740157
          },
          {
            "duration": 0.375,
            "durationTicks": 96,
            "midi": 65,
            "name": "F4",
            "ticks": 23904,
            "time": 93.375,
            "velocity": 0.5039370078740157
          },
          {
            "duration": 0.375,
            "durationTicks": 96,
            "midi": 65,
            "name": "F4",
            "ticks": 24000,
            "time": 93.75,
            "velocity": 0.5039370078740157
          },
          {
            "duration": 0.375,
            "durationTicks": 96,
            "midi": 63,
            "name": "D#4",
            "ticks": 24096,
            "time": 94.125,
            "velocity": 0.5039370078740157
          },
          {
            "duration": 0.75,
            "durationTicks": 192,
            "midi": 65,
            "name": "F4",
            "ticks": 24192,
            "time": 94.5,
            "velocity": 0.5039370078740157
          },
          {
            "duration": 0.375,
            "durationTicks": 96,
            "midi": 60,
            "name": "C4",
            "ticks": 24384,
            "time": 95.25,
            "velocity": 0.5039370078740157
          },
          {
            "duration": 0.375,
            "durationTicks": 96,
            "midi": 65,
            "name": "F4",
            "ticks": 24480,
            "time": 95.625,
            "velocity": 0.5039370078740157
          },
          {
            "duration": 1.125,
            "durationTicks": 288,
            "midi": 67,
            "name": "G4",
            "ticks": 24576,
            "time": 96,
            "velocity": 0.5039370078740157
          },
          {
            "duration": 1.125,
            "durationTicks": 288,
            "midi": 63,
            "name": "D#4",
            "ticks": 24576,
            "time": 96,
            "velocity": 0.5039370078740157
          },
          {
            "duration": 1.125,
            "durationTicks": 288,
            "midi": 59,
            "name": "B3",
            "ticks": 24576,
            "time": 96,
            "velocity": 0.5039370078740157
          },
          {
            "duration": 0.375,
            "durationTicks": 96,
            "midi": 68,
            "name": "G#4",
            "ticks": 24864,
            "time": 97.125,
            "velocity": 0.5039370078740157
          },
          {
            "duration": 0.375,
            "durationTicks": 96,
            "midi": 65,
            "name": "F4",
            "ticks": 24864,
            "time": 97.125,
            "velocity": 0.5039370078740157
          },
          {
            "duration": 0.375,
            "durationTicks": 96,
            "midi": 59,
            "name": "B3",
            "ticks": 24864,
            "time": 97.125,
            "velocity": 0.5039370078740157
          },
          {
            "duration": 0.75,
            "durationTicks": 192,
            "midi": 67,
            "name": "G4",
            "ticks": 24960,
            "time": 97.5,
            "velocity": 0.5039370078740157
          },
          {
            "duration": 0.75,
            "durationTicks": 192,
            "midi": 62,
            "name": "D4",
            "ticks": 24960,
            "time": 97.5,
            "velocity": 0.5039370078740157
          },
          {
            "duration": 0.75,
            "durationTicks": 192,
            "midi": 59,
            "name": "B3",
            "ticks": 24960,
            "time": 97.5,
            "velocity": 0.5039370078740157
          },
          {
            "duration": 0.375,
            "durationTicks": 96,
            "midi": 81,
            "name": "A5",
            "ticks": 25152,
            "time": 98.25,
            "velocity": 0.5039370078740157
          },
          {
            "duration": 0.375,
            "durationTicks": 96,
            "midi": 69,
            "name": "A4",
            "ticks": 25152,
            "time": 98.25,
            "velocity": 0.5039370078740157
          },
          {
            "duration": 0.375,
            "durationTicks": 96,
            "midi": 83,
            "name": "B5",
            "ticks": 25248,
            "time": 98.625,
            "velocity": 0.5039370078740157
          },
          {
            "duration": 0.375,
            "durationTicks": 96,
            "midi": 71,
            "name": "B4",
            "ticks": 25248,
            "time": 98.625,
            "velocity": 0.5039370078740157
          },
          {
            "duration": 0.375,
            "durationTicks": 96,
            "midi": 72,
            "name": "C5",
            "ticks": 25344,
            "time": 99,
            "velocity": 0.5039370078740157
          },
          {
            "duration": 0.3125,
            "durationTicks": 80,
            "midi": 76,
            "name": "E5",
            "ticks": 25360,
            "time": 99.0625,
            "velocity": 0.5039370078740157
          },
          {
            "duration": 0.2578125,
            "durationTicks": 66,
            "midi": 81,
            "name": "A5",
            "ticks": 25374,
            "time": 99.1171875,
            "velocity": 0.5039370078740157
          },
          {
            "duration": 0.1953125,
            "durationTicks": 50,
            "midi": 84,
            "name": "C6",
            "ticks": 25390,
            "time": 99.1796875,
            "velocity": 0.5039370078740157
          },
          {
            "duration": 0.375,
            "durationTicks": 96,
            "midi": 84,
            "name": "C6",
            "ticks": 25440,
            "time": 99.375,
            "velocity": 0.5039370078740157
          },
          {
            "duration": 0.375,
            "durationTicks": 96,
            "midi": 81,
            "name": "A5",
            "ticks": 25440,
            "time": 99.375,
            "velocity": 0.5039370078740157
          },
          {
            "duration": 0.375,
            "durationTicks": 96,
            "midi": 76,
            "name": "E5",
            "ticks": 25440,
            "time": 99.375,
            "velocity": 0.5039370078740157
          },
          {
            "duration": 0.375,
            "durationTicks": 96,
            "midi": 72,
            "name": "C5",
            "ticks": 25440,
            "time": 99.375,
            "velocity": 0.5039370078740157
          },
          {
            "duration": 0.375,
            "durationTicks": 96,
            "midi": 86,
            "name": "D6",
            "ticks": 25536,
            "time": 99.75,
            "velocity": 0.5039370078740157
          },
          {
            "duration": 0.375,
            "durationTicks": 96,
            "midi": 74,
            "name": "D5",
            "ticks": 25536,
            "time": 99.75,
            "velocity": 0.5039370078740157
          },
          {
            "duration": 0.375,
            "durationTicks": 96,
            "midi": 84,
            "name": "C6",
            "ticks": 25632,
            "time": 100.125,
            "velocity": 0.5039370078740157
          },
          {
            "duration": 0.375,
            "durationTicks": 96,
            "midi": 72,
            "name": "C5",
            "ticks": 25632,
            "time": 100.125,
            "velocity": 0.5039370078740157
          },
          {
            "duration": 0.75,
            "durationTicks": 192,
            "midi": 83,
            "name": "B5",
            "ticks": 25728,
            "time": 100.5,
            "velocity": 0.5039370078740157
          },
          {
            "duration": 0.75,
            "durationTicks": 192,
            "midi": 79,
            "name": "G5",
            "ticks": 25728,
            "time": 100.5,
            "velocity": 0.5039370078740157
          },
          {
            "duration": 0.75,
            "durationTicks": 192,
            "midi": 76,
            "name": "E5",
            "ticks": 25728,
            "time": 100.5,
            "velocity": 0.5039370078740157
          },
          {
            "duration": 0.75,
            "durationTicks": 192,
            "midi": 71,
            "name": "B4",
            "ticks": 25728,
            "time": 100.5,
            "velocity": 0.5039370078740157
          },
          {
            "duration": 0.375,
            "durationTicks": 96,
            "midi": 76,
            "name": "E5",
            "ticks": 25920,
            "time": 101.25,
            "velocity": 0.5039370078740157
          },
          {
            "duration": 0.375,
            "durationTicks": 96,
            "midi": 64,
            "name": "E4",
            "ticks": 25920,
            "time": 101.25,
            "velocity": 0.5039370078740157
          },
          {
            "duration": 0.375,
            "durationTicks": 96,
            "midi": 79,
            "name": "G5",
            "ticks": 26016,
            "time": 101.625,
            "velocity": 0.5039370078740157
          },
          {
            "duration": 0.375,
            "durationTicks": 96,
            "midi": 67,
            "name": "G4",
            "ticks": 26016,
            "time": 101.625,
            "velocity": 0.5039370078740157
          },
          {
            "duration": 0.375,
            "durationTicks": 96,
            "midi": 69,
            "name": "A4",
            "ticks": 26112,
            "time": 102,
            "velocity": 0.5039370078740157
          },
          {
            "duration": 0.375,
            "durationTicks": 96,
            "midi": 72,
            "name": "C5",
            "ticks": 26128,
            "time": 102.0625,
            "velocity": 0.5039370078740157
          },
          {
            "duration": 0.2578125,
            "durationTicks": 66,
            "midi": 81,
            "name": "A5",
            "ticks": 26142,
            "time": 102.1171875,
            "velocity": 0.5039370078740157
          },
          {
            "duration": 0.375,
            "durationTicks": 96,
            "midi": 81,
            "name": "A5",
            "ticks": 26208,
            "time": 102.375,
            "velocity": 0.5039370078740157
          },
          {
            "duration": 0.375,
            "durationTicks": 96,
            "midi": 69,
            "name": "A4",
            "ticks": 26208,
            "time": 102.375,
            "velocity": 0.5039370078740157
          },
          {
            "duration": 0.375,
            "durationTicks": 96,
            "midi": 79,
            "name": "G5",
            "ticks": 26304,
            "time": 102.75,
            "velocity": 0.5039370078740157
          },
          {
            "duration": 0.375,
            "durationTicks": 96,
            "midi": 67,
            "name": "G4",
            "ticks": 26304,
            "time": 102.75,
            "velocity": 0.5039370078740157
          },
          {
            "duration": 0.375,
            "durationTicks": 96,
            "midi": 77,
            "name": "F5",
            "ticks": 26400,
            "time": 103.125,
            "velocity": 0.5039370078740157
          },
          {
            "duration": 0.375,
            "durationTicks": 96,
            "midi": 65,
            "name": "F4",
            "ticks": 26400,
            "time": 103.125,
            "velocity": 0.5039370078740157
          },
          {
            "duration": 1.125,
            "durationTicks": 288,
            "midi": 79,
            "name": "G5",
            "ticks": 26496,
            "time": 103.5,
            "velocity": 0.5039370078740157
          },
          {
            "duration": 1.125,
            "durationTicks": 288,
            "midi": 74,
            "name": "D5",
            "ticks": 26496,
            "time": 103.5,
            "velocity": 0.5039370078740157
          },
          {
            "duration": 1.125,
            "durationTicks": 288,
            "midi": 72,
            "name": "C5",
            "ticks": 26496,
            "time": 103.5,
            "velocity": 0.5039370078740157
          },
          {
            "duration": 1.125,
            "durationTicks": 288,
            "midi": 67,
            "name": "G4",
            "ticks": 26496,
            "time": 103.5,
            "velocity": 0.5039370078740157
          },
          {
            "duration": 0.375,
            "durationTicks": 96,
            "midi": 79,
            "name": "G5",
            "ticks": 26784,
            "time": 104.625,
            "velocity": 0.5039370078740157
          },
          {
            "duration": 0.375,
            "durationTicks": 96,
            "midi": 67,
            "name": "G4",
            "ticks": 26784,
            "time": 104.625,
            "velocity": 0.5039370078740157
          },
          {
            "duration": 0.375,
            "durationTicks": 96,
            "midi": 79,
            "name": "G5",
            "ticks": 26880,
            "time": 105,
            "velocity": 0.5039370078740157
          },
          {
            "duration": 0.375,
            "durationTicks": 96,
            "midi": 67,
            "name": "G4",
            "ticks": 26880,
            "time": 105,
            "velocity": 0.5039370078740157
          },
          {
            "duration": 0.375,
            "durationTicks": 96,
            "midi": 77,
            "name": "F5",
            "ticks": 26976,
            "time": 105.375,
            "velocity": 0.5039370078740157
          },
          {
            "duration": 0.375,
            "durationTicks": 96,
            "midi": 65,
            "name": "F4",
            "ticks": 26976,
            "time": 105.375,
            "velocity": 0.5039370078740157
          },
          {
            "duration": 0.375,
            "durationTicks": 96,
            "midi": 77,
            "name": "F5",
            "ticks": 27072,
            "time": 105.75,
            "velocity": 0.5039370078740157
          },
          {
            "duration": 0.375,
            "durationTicks": 96,
            "midi": 65,
            "name": "F4",
            "ticks": 27072,
            "time": 105.75,
            "velocity": 0.5039370078740157
          },
          {
            "duration": 0.375,
            "durationTicks": 96,
            "midi": 75,
            "name": "D#5",
            "ticks": 27168,
            "time": 106.125,
            "velocity": 0.5039370078740157
          },
          {
            "duration": 0.375,
            "durationTicks": 96,
            "midi": 63,
            "name": "D#4",
            "ticks": 27168,
            "time": 106.125,
            "velocity": 0.5039370078740157
          },
          {
            "duration": 0.75,
            "durationTicks": 192,
            "midi": 77,
            "name": "F5",
            "ticks": 27264,
            "time": 106.5,
            "velocity": 0.5039370078740157
          },
          {
            "duration": 0.75,
            "durationTicks": 192,
            "midi": 65,
            "name": "F4",
            "ticks": 27264,
            "time": 106.5,
            "velocity": 0.5039370078740157
          },
          {
            "duration": 0.375,
            "durationTicks": 96,
            "midi": 79,
            "name": "G5",
            "ticks": 27456,
            "time": 107.25,
            "velocity": 0.5039370078740157
          },
          {
            "duration": 0.375,
            "durationTicks": 96,
            "midi": 67,
            "name": "G4",
            "ticks": 27456,
            "time": 107.25,
            "velocity": 0.5039370078740157
          },
          {
            "duration": 0.375,
            "durationTicks": 96,
            "midi": 80,
            "name": "G#5",
            "ticks": 27552,
            "time": 107.625,
            "velocity": 0.5039370078740157
          },
          {
            "duration": 0.375,
            "durationTicks": 96,
            "midi": 68,
            "name": "G#4",
            "ticks": 27552,
            "time": 107.625,
            "velocity": 0.5039370078740157
          },
          {
            "duration": 0.375,
            "durationTicks": 96,
            "midi": 82,
            "name": "A#5",
            "ticks": 27648,
            "time": 108,
            "velocity": 0.5039370078740157
          },
          {
            "duration": 0.375,
            "durationTicks": 96,
            "midi": 70,
            "name": "A#4",
            "ticks": 27648,
            "time": 108,
            "velocity": 0.5039370078740157
          },
          {
            "duration": 0.375,
            "durationTicks": 96,
            "midi": 80,
            "name": "G#5",
            "ticks": 27744,
            "time": 108.375,
            "velocity": 0.5039370078740157
          },
          {
            "duration": 0.375,
            "durationTicks": 96,
            "midi": 68,
            "name": "G#4",
            "ticks": 27744,
            "time": 108.375,
            "velocity": 0.5039370078740157
          },
          {
            "duration": 0.375,
            "durationTicks": 96,
            "midi": 80,
            "name": "G#5",
            "ticks": 27840,
            "time": 108.75,
            "velocity": 0.5039370078740157
          },
          {
            "duration": 0.375,
            "durationTicks": 96,
            "midi": 68,
            "name": "G#4",
            "ticks": 27840,
            "time": 108.75,
            "velocity": 0.5039370078740157
          },
          {
            "duration": 0.375,
            "durationTicks": 96,
            "midi": 79,
            "name": "G5",
            "ticks": 27936,
            "time": 109.125,
            "velocity": 0.5039370078740157
          },
          {
            "duration": 0.375,
            "durationTicks": 96,
            "midi": 67,
            "name": "G4",
            "ticks": 27936,
            "time": 109.125,
            "velocity": 0.5039370078740157
          },
          {
            "duration": 0.75,
            "durationTicks": 192,
            "midi": 80,
            "name": "G#5",
            "ticks": 28032,
            "time": 109.5,
            "velocity": 0.5039370078740157
          },
          {
            "duration": 0.75,
            "durationTicks": 192,
            "midi": 68,
            "name": "G#4",
            "ticks": 28032,
            "time": 109.5,
            "velocity": 0.5039370078740157
          },
          {
            "duration": 0.25,
            "durationTicks": 64,
            "midi": 79,
            "name": "G5",
            "ticks": 28224,
            "time": 110.25,
            "velocity": 0.5039370078740157
          },
          {
            "duration": 0.25,
            "durationTicks": 64,
            "midi": 67,
            "name": "G4",
            "ticks": 28224,
            "time": 110.25,
            "velocity": 0.5039370078740157
          },
          {
            "duration": 0.2578125,
            "durationTicks": 66,
            "midi": 80,
            "name": "G#5",
            "ticks": 28288,
            "time": 110.5,
            "velocity": 0.5039370078740157
          },
          {
            "duration": 0.2578125,
            "durationTicks": 66,
            "midi": 68,
            "name": "G#4",
            "ticks": 28288,
            "time": 110.5,
            "velocity": 0.5039370078740157
          },
          {
            "duration": 0.25,
            "durationTicks": 64,
            "midi": 82,
            "name": "A#5",
            "ticks": 28354,
            "time": 110.7578125,
            "velocity": 0.5039370078740157
          },
          {
            "duration": 0.25,
            "durationTicks": 64,
            "midi": 70,
            "name": "A#4",
            "ticks": 28354,
            "time": 110.7578125,
            "velocity": 0.5039370078740157
          },
          {
            "duration": 1.5078125,
            "durationTicks": 386,
            "midi": 72,
            "name": "C5",
            "ticks": 28416,
            "time": 111,
            "velocity": 0.5039370078740157
          },
          {
            "duration": 1.5078125,
            "durationTicks": 386,
            "midi": 77,
            "name": "F5",
            "ticks": 28432,
            "time": 111.0625,
            "velocity": 0.5039370078740157
          },
          {
            "duration": 1.5078125,
            "durationTicks": 386,
            "midi": 80,
            "name": "G#5",
            "ticks": 28446,
            "time": 111.1171875,
            "velocity": 0.5039370078740157
          },
          {
            "duration": 1.5078125,
            "durationTicks": 386,
            "midi": 84,
            "name": "C6",
            "ticks": 28462,
            "time": 111.1796875,
            "velocity": 0.5039370078740157
          },
          {
            "duration": 0.375,
            "durationTicks": 96,
            "midi": 80,
            "name": "G#5",
            "ticks": 28992,
            "time": 113.25,
            "velocity": 0.5039370078740157
          },
          {
            "duration": 0.375,
            "durationTicks": 96,
            "midi": 68,
            "name": "G#4",
            "ticks": 28992,
            "time": 113.25,
            "velocity": 0.5039370078740157
          },
          {
            "duration": 0.375,
            "durationTicks": 96,
            "midi": 82,
            "name": "A#5",
            "ticks": 29088,
            "time": 113.625,
            "velocity": 0.5039370078740157
          },
          {
            "duration": 0.375,
            "durationTicks": 96,
            "midi": 70,
            "name": "A#4",
            "ticks": 29088,
            "time": 113.625,
            "velocity": 0.5039370078740157
          },
          {
            "duration": 1.5,
            "durationTicks": 384,
            "midi": 72,
            "name": "C5",
            "ticks": 29184,
            "time": 114,
            "velocity": 0.5039370078740157
          },
          {
            "duration": 1.5,
            "durationTicks": 384,
            "midi": 77,
            "name": "F5",
            "ticks": 29200,
            "time": 114.0625,
            "velocity": 0.5039370078740157
          },
          {
            "duration": 1.5,
            "durationTicks": 384,
            "midi": 80,
            "name": "G#5",
            "ticks": 29214,
            "time": 114.1171875,
            "velocity": 0.5039370078740157
          },
          {
            "duration": 1.5,
            "durationTicks": 384,
            "midi": 84,
            "name": "C6",
            "ticks": 29230,
            "time": 114.1796875,
            "velocity": 0.5039370078740157
          },
          {
            "duration": 0.375,
            "durationTicks": 96,
            "midi": 84,
            "name": "C6",
            "ticks": 29664,
            "time": 115.875,
            "velocity": 0.5039370078740157
          },
          {
            "duration": 0.375,
            "durationTicks": 96,
            "midi": 72,
            "name": "C5",
            "ticks": 29664,
            "time": 115.875,
            "velocity": 0.5039370078740157
          },
          {
            "duration": 0.375,
            "durationTicks": 96,
            "midi": 83,
            "name": "B5",
            "ticks": 29760,
            "time": 116.25,
            "velocity": 0.5039370078740157
          },
          {
            "duration": 0.375,
            "durationTicks": 96,
            "midi": 71,
            "name": "B4",
            "ticks": 29760,
            "time": 116.25,
            "velocity": 0.5039370078740157
          },
          {
            "duration": 0.375,
            "durationTicks": 96,
            "midi": 84,
            "name": "C6",
            "ticks": 29856,
            "time": 116.625,
            "velocity": 0.5039370078740157
          },
          {
            "duration": 0.375,
            "durationTicks": 96,
            "midi": 72,
            "name": "C5",
            "ticks": 29856,
            "time": 116.625,
            "velocity": 0.5039370078740157
          },
          {
            "duration": 1.5,
            "durationTicks": 384,
            "midi": 74,
            "name": "D5",
            "ticks": 29952,
            "time": 117,
            "velocity": 0.5039370078740157
          },
          {
            "duration": 1.5,
            "durationTicks": 384,
            "midi": 86,
            "name": "D6",
            "ticks": 29968,
            "time": 117.0625,
            "velocity": 0.5039370078740157
          },
          {
            "duration": 0.375,
            "durationTicks": 96,
            "midi": 79,
            "name": "G5",
            "ticks": 30432,
            "time": 118.875,
            "velocity": 0.5039370078740157
          },
          {
            "duration": 0.375,
            "durationTicks": 96,
            "midi": 84,
            "name": "C6",
            "ticks": 30528,
            "time": 119.25,
            "velocity": 0.5039370078740157
          },
          {
            "duration": 0.375,
            "durationTicks": 96,
            "midi": 83,
            "name": "B5",
            "ticks": 30624,
            "time": 119.625,
            "velocity": 0.5039370078740157
          },
          {
            "duration": 1.125,
            "durationTicks": 288,
            "midi": 84,
            "name": "C6",
            "ticks": 30720,
            "time": 120,
            "velocity": 0.5039370078740157
          },
          {
            "duration": 0.375,
            "durationTicks": 96,
            "midi": 76,
            "name": "E5",
            "ticks": 31008,
            "time": 121.125,
            "velocity": 0.5039370078740157
          },
          {
            "duration": 0.375,
            "durationTicks": 96,
            "midi": 76,
            "name": "E5",
            "ticks": 31104,
            "time": 121.5,
            "velocity": 0.5039370078740157
          },
          {
            "duration": 0.375,
            "durationTicks": 96,
            "midi": 74,
            "name": "D5",
            "ticks": 31200,
            "time": 121.875,
            "velocity": 0.5039370078740157
          },
          {
            "duration": 0.375,
            "durationTicks": 96,
            "midi": 76,
            "name": "E5",
            "ticks": 31296,
            "time": 122.25,
            "velocity": 0.5039370078740157
          },
          {
            "duration": 0.375,
            "durationTicks": 96,
            "midi": 81,
            "name": "A5",
            "ticks": 31392,
            "time": 122.625,
            "velocity": 0.5039370078740157
          },
          {
            "duration": 0.375,
            "durationTicks": 96,
            "midi": 76,
            "name": "E5",
            "ticks": 31488,
            "time": 123,
            "velocity": 0.5039370078740157
          },
          {
            "duration": 0.375,
            "durationTicks": 96,
            "midi": 81,
            "name": "A5",
            "ticks": 31584,
            "time": 123.375,
            "velocity": 0.5039370078740157
          },
          {
            "duration": 0.375,
            "durationTicks": 96,
            "midi": 81,
            "name": "A5",
            "ticks": 31680,
            "time": 123.75,
            "velocity": 0.5039370078740157
          },
          {
            "duration": 0.375,
            "durationTicks": 96,
            "midi": 81,
            "name": "A5",
            "ticks": 31776,
            "time": 124.125,
            "velocity": 0.5039370078740157
          },
          {
            "duration": 0.375,
            "durationTicks": 96,
            "midi": 81,
            "name": "A5",
            "ticks": 31872,
            "time": 124.5,
            "velocity": 0.5039370078740157
          },
          {
            "duration": 0.375,
            "durationTicks": 96,
            "midi": 79,
            "name": "G5",
            "ticks": 31968,
            "time": 124.875,
            "velocity": 0.5039370078740157
          },
          {
            "duration": 0.375,
            "durationTicks": 96,
            "midi": 81,
            "name": "A5",
            "ticks": 32064,
            "time": 125.25,
            "velocity": 0.5039370078740157
          },
          {
            "duration": 0.375,
            "durationTicks": 96,
            "midi": 86,
            "name": "D6",
            "ticks": 32160,
            "time": 125.625,
            "velocity": 0.5039370078740157
          },
          {
            "duration": 0.75,
            "durationTicks": 192,
            "midi": 83,
            "name": "B5",
            "ticks": 32256,
            "time": 126,
            "velocity": 0.5039370078740157
          },
          {
            "duration": 0.375,
            "durationTicks": 96,
            "midi": 81,
            "name": "A5",
            "ticks": 32448,
            "time": 126.75,
            "velocity": 0.5039370078740157
          },
          {
            "duration": 2.625,
            "durationTicks": 672,
            "midi": 84,
            "name": "C6",
            "ticks": 32544,
            "time": 127.125,
            "velocity": 0.5039370078740157
          },
          {
            "duration": 2.625,
            "durationTicks": 672,
            "midi": 79,
            "name": "G5",
            "ticks": 32544,
            "time": 127.125,
            "velocity": 0.5039370078740157
          },
          {
            "duration": 2.625,
            "durationTicks": 672,
            "midi": 74,
            "name": "D5",
            "ticks": 32544,
            "time": 127.125,
            "velocity": 0.5039370078740157
          },
          {
            "duration": 0.75,
            "durationTicks": 192,
            "midi": 83,
            "name": "B5",
            "ticks": 33216,
            "time": 129.75,
            "velocity": 0.5039370078740157
          },
          {
            "duration": 0.75,
            "durationTicks": 192,
            "midi": 79,
            "name": "G5",
            "ticks": 33408,
            "time": 130.5,
            "velocity": 0.5039370078740157
          },
          {
            "duration": 2.25,
            "durationTicks": 576,
            "midi": 81,
            "name": "A5",
            "ticks": 33600,
            "time": 131.25,
            "velocity": 0.5039370078740157
          },
          {
            "duration": 1.5,
            "durationTicks": 384,
            "midi": 88,
            "name": "E6",
            "ticks": 34368,
            "time": 134.25,
            "velocity": 0.5039370078740157
          },
          {
            "duration": 1.5,
            "durationTicks": 384,
            "midi": 79,
            "name": "G5",
            "ticks": 34368,
            "time": 134.25,
            "velocity": 0.5039370078740157
          },
          {
            "duration": 0.75,
            "durationTicks": 192,
            "midi": 86,
            "name": "D6",
            "ticks": 34752,
            "time": 135.75,
            "velocity": 0.5039370078740157
          },
          {
            "duration": 0.75,
            "durationTicks": 192,
            "midi": 77,
            "name": "F5",
            "ticks": 34752,
            "time": 135.75,
            "velocity": 0.5039370078740157
          },
          {
            "duration": 0.7880208333333201,
            "durationTicks": 192,
            "midi": 84,
            "name": "C6",
            "ticks": 34940,
            "time": 136.484375,
            "velocity": 0.5039370078740157
          },
          {
            "duration": 0.7880208333333201,
            "durationTicks": 192,
            "midi": 72,
            "name": "C5",
            "ticks": 34940,
            "time": 136.484375,
            "velocity": 0.5039370078740157
          },
          {
            "duration": 2.625913458333315,
            "durationTicks": 576,
            "midi": 86,
            "name": "D6",
            "ticks": 35126,
            "time": 137.24739583333334,
            "velocity": 0.5039370078740157
          },
          {
            "duration": 2.625913458333315,
            "durationTicks": 576,
            "midi": 74,
            "name": "D5",
            "ticks": 35126,
            "time": 137.24739583333334,
            "velocity": 0.5039370078740157
          },
          {
            "duration": 3.692304000000007,
            "durationTicks": 768,
            "midi": 64,
            "name": "E4",
            "ticks": 35688,
            "time": 139.80600166666667,
            "velocity": 0.5039370078740157
          },
          {
            "duration": 3.692304000000007,
            "durationTicks": 768,
            "midi": 59,
            "name": "B3",
            "ticks": 35688,
            "time": 139.80600166666667,
            "velocity": 0.5039370078740157
          },
          {
            "duration": 3.692304000000007,
            "durationTicks": 768,
            "midi": 57,
            "name": "A3",
            "ticks": 35688,
            "time": 139.80600166666667,
            "velocity": 0.5039370078740157
          },
          {
            "duration": 3.6923039999999787,
            "durationTicks": 768,
            "midi": 67,
            "name": "G4",
            "ticks": 36456,
            "time": 143.49830566666668,
            "velocity": 0.5039370078740157
          },
          {
            "duration": 3.6923039999999787,
            "durationTicks": 768,
            "midi": 62,
            "name": "D4",
            "ticks": 36456,
            "time": 143.49830566666668,
            "velocity": 0.5039370078740157
          },
          {
            "duration": 3.6923039999999787,
            "durationTicks": 768,
            "midi": 60,
            "name": "C4",
            "ticks": 36456,
            "time": 143.49830566666668,
            "velocity": 0.5039370078740157
          },
          {
            "duration": 3.6923039999999787,
            "durationTicks": 768,
            "midi": 55,
            "name": "G3",
            "ticks": 36456,
            "time": 143.49830566666668,
            "velocity": 0.5039370078740157
          },
          {
            "duration": 1.8461519999999894,
            "durationTicks": 384,
            "midi": 70,
            "name": "A#4",
            "ticks": 37416,
            "time": 148.11368566666667,
            "velocity": 0.5039370078740157
          },
          {
            "duration": 1.8461519999999894,
            "durationTicks": 384,
            "midi": 65,
            "name": "F4",
            "ticks": 37416,
            "time": 148.11368566666667,
            "velocity": 0.5039370078740157
          },
          {
            "duration": 1.8461519999999894,
            "durationTicks": 384,
            "midi": 60,
            "name": "C4",
            "ticks": 37416,
            "time": 148.11368566666667,
            "velocity": 0.5039370078740157
          },
          {
            "duration": 0.9230760000000089,
            "durationTicks": 192,
            "midi": 70,
            "name": "A#4",
            "ticks": 37800,
            "time": 149.95983766666666,
            "velocity": 0.5039370078740157
          },
          {
            "duration": 0.9230760000000089,
            "durationTicks": 192,
            "midi": 65,
            "name": "F4",
            "ticks": 37800,
            "time": 149.95983766666666,
            "velocity": 0.5039370078740157
          },
          {
            "duration": 0.9230760000000089,
            "durationTicks": 192,
            "midi": 60,
            "name": "C4",
            "ticks": 37800,
            "time": 149.95983766666666,
            "velocity": 0.5039370078740157
          },
          {
            "duration": 3.6724723750000123,
            "durationTicks": 768,
            "midi": 72,
            "name": "C5",
            "ticks": 37992,
            "time": 150.88291366666667,
            "velocity": 0.5039370078740157
          },
          {
            "duration": 3.6724723750000123,
            "durationTicks": 768,
            "midi": 67,
            "name": "G4",
            "ticks": 37992,
            "time": 150.88291366666667,
            "velocity": 0.5039370078740157
          },
          {
            "duration": 3.6724723750000123,
            "durationTicks": 768,
            "midi": 64,
            "name": "E4",
            "ticks": 37992,
            "time": 150.88291366666667,
            "velocity": 0.5039370078740157
          },
          {
            "duration": 3.6724723750000123,
            "durationTicks": 768,
            "midi": 62,
            "name": "D4",
            "ticks": 37992,
            "time": 150.88291366666667,
            "velocity": 0.5039370078740157
          },
          {
            "duration": 0.375,
            "durationTicks": 96,
            "midi": 76,
            "name": "E5",
            "ticks": 38784,
            "time": 154.64913604166668,
            "velocity": 0.5039370078740157
          },
          {
            "duration": 0.375,
            "durationTicks": 96,
            "midi": 74,
            "name": "D5",
            "ticks": 38880,
            "time": 155.02413604166668,
            "velocity": 0.5039370078740157
          },
          {
            "duration": 0.375,
            "durationTicks": 96,
            "midi": 76,
            "name": "E5",
            "ticks": 38976,
            "time": 155.39913604166668,
            "velocity": 0.5039370078740157
          },
          {
            "duration": 0.375,
            "durationTicks": 96,
            "midi": 81,
            "name": "A5",
            "ticks": 39072,
            "time": 155.77413604166668,
            "velocity": 0.5039370078740157
          },
          {
            "duration": 1.5,
            "durationTicks": 384,
            "midi": 76,
            "name": "E5",
            "ticks": 39168,
            "time": 156.14913604166668,
            "velocity": 0.5039370078740157
          },
          {
            "duration": 0.375,
            "durationTicks": 96,
            "midi": 74,
            "name": "D5",
            "ticks": 39552,
            "time": 157.64913604166668,
            "velocity": 0.5039370078740157
          },
          {
            "duration": 0.375,
            "durationTicks": 96,
            "midi": 72,
            "name": "C5",
            "ticks": 39648,
            "time": 158.02413604166668,
            "velocity": 0.5039370078740157
          },
          {
            "duration": 0.375,
            "durationTicks": 96,
            "midi": 74,
            "name": "D5",
            "ticks": 39744,
            "time": 158.39913604166668,
            "velocity": 0.5039370078740157
          },
          {
            "duration": 0.375,
            "durationTicks": 96,
            "midi": 79,
            "name": "G5",
            "ticks": 39840,
            "time": 158.77413604166668,
            "velocity": 0.5039370078740157
          },
          {
            "duration": 1.125,
            "durationTicks": 288,
            "midi": 74,
            "name": "D5",
            "ticks": 39936,
            "time": 159.14913604166668,
            "velocity": 0.5039370078740157
          },
          {
            "duration": 0.1875,
            "durationTicks": 48,
            "midi": 69,
            "name": "A4",
            "ticks": 40224,
            "time": 160.27413604166668,
            "velocity": 0.5039370078740157
          },
          {
            "duration": 0.1875,
            "durationTicks": 48,
            "midi": 71,
            "name": "B4",
            "ticks": 40272,
            "time": 160.46163604166668,
            "velocity": 0.5039370078740157
          },
          {
            "duration": 1.5,
            "durationTicks": 384,
            "midi": 72,
            "name": "C5",
            "ticks": 40320,
            "time": 160.64913604166668,
            "velocity": 0.5039370078740157
          },
          {
            "duration": 0.375,
            "durationTicks": 96,
            "midi": 69,
            "name": "A4",
            "ticks": 40704,
            "time": 162.14913604166668,
            "velocity": 0.5039370078740157
          },
          {
            "duration": 0.375,
            "durationTicks": 96,
            "midi": 71,
            "name": "B4",
            "ticks": 40800,
            "time": 162.52413604166668,
            "velocity": 0.5039370078740157
          },
          {
            "duration": 0.375,
            "durationTicks": 96,
            "midi": 72,
            "name": "C5",
            "ticks": 40896,
            "time": 162.89913604166668,
            "velocity": 0.5039370078740157
          },
          {
            "duration": 0.375,
            "durationTicks": 96,
            "midi": 74,
            "name": "D5",
            "ticks": 40992,
            "time": 163.27413604166668,
            "velocity": 0.5039370078740157
          },
          {
            "duration": 1.5,
            "durationTicks": 384,
            "midi": 76,
            "name": "E5",
            "ticks": 41088,
            "time": 163.64913604166668,
            "velocity": 0.5039370078740157
          },
          {
            "duration": 1.5,
            "durationTicks": 384,
            "midi": 69,
            "name": "A4",
            "ticks": 41088,
            "time": 163.64913604166668,
            "velocity": 0.5039370078740157
          },
          {
            "duration": 1.5,
            "durationTicks": 384,
            "midi": 66,
            "name": "F#4",
            "ticks": 41088,
            "time": 163.64913604166668,
            "velocity": 0.5039370078740157
          },
          {
            "duration": 1.5,
            "durationTicks": 384,
            "midi": 68,
            "name": "G#4",
            "ticks": 41472,
            "time": 165.14913604166668,
            "velocity": 0.5039370078740157
          },
          {
            "duration": 1.5,
            "durationTicks": 384,
            "midi": 62,
            "name": "D4",
            "ticks": 41472,
            "time": 165.14913604166668,
            "velocity": 0.5039370078740157
          },
          {
            "duration": 0.375,
            "durationTicks": 96,
            "midi": 81,
            "name": "A5",
            "ticks": 41664,
            "time": 165.89913604166668,
            "velocity": 0.5039370078740157
          },
          {
            "duration": 0.375,
            "durationTicks": 96,
            "midi": 83,
            "name": "B5",
            "ticks": 41760,
            "time": 166.27413604166668,
            "velocity": 0.5039370078740157
          },
          {
            "duration": 0.375,
            "durationTicks": 96,
            "midi": 84,
            "name": "C6",
            "ticks": 41856,
            "time": 166.64913604166668,
            "velocity": 0.5039370078740157
          },
          {
            "duration": 0.1875,
            "durationTicks": 48,
            "midi": 81,
            "name": "A5",
            "ticks": 41856,
            "time": 166.64913604166668,
            "velocity": 0.5039370078740157
          },
          {
            "duration": 0.1875,
            "durationTicks": 48,
            "midi": 72,
            "name": "C5",
            "ticks": 41904,
            "time": 166.83663604166668,
            "velocity": 0.5039370078740157
          },
          {
            "duration": 0.375,
            "durationTicks": 96,
            "midi": 84,
            "name": "C6",
            "ticks": 41952,
            "time": 167.02413604166668,
            "velocity": 0.5039370078740157
          },
          {
            "duration": 0.1875,
            "durationTicks": 48,
            "midi": 81,
            "name": "A5",
            "ticks": 41952,
            "time": 167.02413604166668,
            "velocity": 0.5039370078740157
          },
          {
            "duration": 0.1875,
            "durationTicks": 48,
            "midi": 72,
            "name": "C5",
            "ticks": 42000,
            "time": 167.21163604166668,
            "velocity": 0.5039370078740157
          },
          {
            "duration": 0.375,
            "durationTicks": 96,
            "midi": 86,
            "name": "D6",
            "ticks": 42048,
            "time": 167.39913604166668,
            "velocity": 0.5039370078740157
          },
          {
            "duration": 0.1875,
            "durationTicks": 48,
            "midi": 83,
            "name": "B5",
            "ticks": 42048,
            "time": 167.39913604166668,
            "velocity": 0.5039370078740157
          },
          {
            "duration": 0.1875,
            "durationTicks": 48,
            "midi": 74,
            "name": "D5",
            "ticks": 42096,
            "time": 167.58663604166668,
            "velocity": 0.5039370078740157
          },
          {
            "duration": 0.375,
            "durationTicks": 96,
            "midi": 84,
            "name": "C6",
            "ticks": 42144,
            "time": 167.77413604166668,
            "velocity": 0.5039370078740157
          },
          {
            "duration": 0.1875,
            "durationTicks": 48,
            "midi": 81,
            "name": "A5",
            "ticks": 42144,
            "time": 167.77413604166668,
            "velocity": 0.5039370078740157
          },
          {
            "duration": 0.1875,
            "durationTicks": 48,
            "midi": 72,
            "name": "C5",
            "ticks": 42192,
            "time": 167.96163604166668,
            "velocity": 0.5039370078740157
          },
          {
            "duration": 0.375,
            "durationTicks": 96,
            "midi": 83,
            "name": "B5",
            "ticks": 42240,
            "time": 168.14913604166668,
            "velocity": 0.5039370078740157
          },
          {
            "duration": 0.1875,
            "durationTicks": 48,
            "midi": 79,
            "name": "G5",
            "ticks": 42240,
            "time": 168.14913604166668,
            "velocity": 0.5039370078740157
          },
          {
            "duration": 0.1875,
            "durationTicks": 48,
            "midi": 71,
            "name": "B4",
            "ticks": 42288,
            "time": 168.33663604166668,
            "velocity": 0.5039370078740157
          },
          {
            "duration": 0.375,
            "durationTicks": 96,
            "midi": 83,
            "name": "B5",
            "ticks": 42336,
            "time": 168.52413604166668,
            "velocity": 0.5039370078740157
          },
          {
            "duration": 0.1875,
            "durationTicks": 48,
            "midi": 79,
            "name": "G5",
            "ticks": 42336,
            "time": 168.52413604166668,
            "velocity": 0.5039370078740157
          },
          {
            "duration": 0.1875,
            "durationTicks": 48,
            "midi": 71,
            "name": "B4",
            "ticks": 42384,
            "time": 168.71163604166668,
            "velocity": 0.5039370078740157
          },
          {
            "duration": 0.1875,
            "durationTicks": 48,
            "midi": 76,
            "name": "E5",
            "ticks": 42432,
            "time": 168.89913604166668,
            "velocity": 0.5039370078740157
          },
          {
            "duration": 0.1875,
            "durationTicks": 48,
            "midi": 71,
            "name": "B4",
            "ticks": 42480,
            "time": 169.08663604166668,
            "velocity": 0.5039370078740157
          },
          {
            "duration": 0.1875,
            "durationTicks": 48,
            "midi": 79,
            "name": "G5",
            "ticks": 42528,
            "time": 169.27413604166668,
            "velocity": 0.5039370078740157
          },
          {
            "duration": 0.1875,
            "durationTicks": 48,
            "midi": 71,
            "name": "B4",
            "ticks": 42576,
            "time": 169.46163604166668,
            "velocity": 0.5039370078740157
          },
          {
            "duration": 0.375,
            "durationTicks": 96,
            "midi": 81,
            "name": "A5",
            "ticks": 42624,
            "time": 169.64913604166668,
            "velocity": 0.5039370078740157
          },
          {
            "duration": 0.1875,
            "durationTicks": 48,
            "midi": 77,
            "name": "F5",
            "ticks": 42624,
            "time": 169.64913604166668,
            "velocity": 0.5039370078740157
          },
          {
            "duration": 0.1875,
            "durationTicks": 48,
            "midi": 69,
            "name": "A4",
            "ticks": 42672,
            "time": 169.83663604166668,
            "velocity": 0.5039370078740157
          },
          {
            "duration": 0.375,
            "durationTicks": 96,
            "midi": 81,
            "name": "A5",
            "ticks": 42720,
            "time": 170.02413604166668,
            "velocity": 0.5039370078740157
          },
          {
            "duration": 0.1875,
            "durationTicks": 48,
            "midi": 77,
            "name": "F5",
            "ticks": 42720,
            "time": 170.02413604166668,
            "velocity": 0.5039370078740157
          },
          {
            "duration": 0.1875,
            "durationTicks": 48,
            "midi": 69,
            "name": "A4",
            "ticks": 42768,
            "time": 170.21163604166668,
            "velocity": 0.5039370078740157
          },
          {
            "duration": 0.375,
            "durationTicks": 96,
            "midi": 79,
            "name": "G5",
            "ticks": 42816,
            "time": 170.39913604166668,
            "velocity": 0.5039370078740157
          },
          {
            "duration": 0.1875,
            "durationTicks": 48,
            "midi": 76,
            "name": "E5",
            "ticks": 42816,
            "time": 170.39913604166668,
            "velocity": 0.5039370078740157
          },
          {
            "duration": 0.1875,
            "durationTicks": 48,
            "midi": 69,
            "name": "A4",
            "ticks": 42864,
            "time": 170.58663604166668,
            "velocity": 0.5039370078740157
          },
          {
            "duration": 0.375,
            "durationTicks": 96,
            "midi": 77,
            "name": "F5",
            "ticks": 42912,
            "time": 170.77413604166668,
            "velocity": 0.5039370078740157
          },
          {
            "duration": 0.1875,
            "durationTicks": 48,
            "midi": 74,
            "name": "D5",
            "ticks": 42912,
            "time": 170.77413604166668,
            "velocity": 0.5039370078740157
          },
          {
            "duration": 0.1875,
            "durationTicks": 48,
            "midi": 65,
            "name": "F4",
            "ticks": 42960,
            "time": 170.96163604166668,
            "velocity": 0.5039370078740157
          },
          {
            "duration": 0.75,
            "durationTicks": 192,
            "midi": 79,
            "name": "G5",
            "ticks": 43008,
            "time": 171.14913604166668,
            "velocity": 0.5039370078740157
          },
          {
            "duration": 0.1875,
            "durationTicks": 48,
            "midi": 67,
            "name": "G4",
            "ticks": 43056,
            "time": 171.33663604166668,
            "velocity": 0.5039370078740157
          },
          {
            "duration": 0.1875,
            "durationTicks": 48,
            "midi": 74,
            "name": "D5",
            "ticks": 43104,
            "time": 171.52413604166668,
            "velocity": 0.5039370078740157
          },
          {
            "duration": 0.1875,
            "durationTicks": 48,
            "midi": 67,
            "name": "G4",
            "ticks": 43152,
            "time": 171.71163604166668,
            "velocity": 0.5039370078740157
          },
          {
            "duration": 0.375,
            "durationTicks": 96,
            "midi": 72,
            "name": "C5",
            "ticks": 43200,
            "time": 171.89913604166668,
            "velocity": 0.5039370078740157
          },
          {
            "duration": 0.375,
            "durationTicks": 96,
            "midi": 67,
            "name": "G4",
            "ticks": 43296,
            "time": 172.27413604166668,
            "velocity": 0.5039370078740157
          },
          {
            "duration": 0.375,
            "durationTicks": 96,
            "midi": 67,
            "name": "G4",
            "ticks": 43392,
            "time": 172.64913604166668,
            "velocity": 0.5039370078740157
          },
          {
            "duration": 0.375,
            "durationTicks": 96,
            "midi": 65,
            "name": "F4",
            "ticks": 43488,
            "time": 173.02413604166668,
            "velocity": 0.5039370078740157
          },
          {
            "duration": 0.375,
            "durationTicks": 96,
            "midi": 65,
            "name": "F4",
            "ticks": 43584,
            "time": 173.39913604166668,
            "velocity": 0.5039370078740157
          },
          {
            "duration": 0.375,
            "durationTicks": 96,
            "midi": 63,
            "name": "D#4",
            "ticks": 43680,
            "time": 173.77413604166668,
            "velocity": 0.5039370078740157
          },
          {
            "duration": 0.75,
            "durationTicks": 192,
            "midi": 65,
            "name": "F4",
            "ticks": 43776,
            "time": 174.14913604166668,
            "velocity": 0.5039370078740157
          },
          {
            "duration": 0.375,
            "durationTicks": 96,
            "midi": 60,
            "name": "C4",
            "ticks": 43968,
            "time": 174.89913604166668,
            "velocity": 0.5039370078740157
          },
          {
            "duration": 0.375,
            "durationTicks": 96,
            "midi": 65,
            "name": "F4",
            "ticks": 44064,
            "time": 175.27413604166668,
            "velocity": 0.5039370078740157
          },
          {
            "duration": 1.125,
            "durationTicks": 288,
            "midi": 67,
            "name": "G4",
            "ticks": 44160,
            "time": 175.64913604166668,
            "velocity": 0.5039370078740157
          },
          {
            "duration": 1.125,
            "durationTicks": 288,
            "midi": 63,
            "name": "D#4",
            "ticks": 44160,
            "time": 175.64913604166668,
            "velocity": 0.5039370078740157
          },
          {
            "duration": 1.125,
            "durationTicks": 288,
            "midi": 59,
            "name": "B3",
            "ticks": 44160,
            "time": 175.64913604166668,
            "velocity": 0.5039370078740157
          },
          {
            "duration": 0.375,
            "durationTicks": 96,
            "midi": 68,
            "name": "G#4",
            "ticks": 44448,
            "time": 176.77413604166668,
            "velocity": 0.5039370078740157
          },
          {
            "duration": 0.375,
            "durationTicks": 96,
            "midi": 65,
            "name": "F4",
            "ticks": 44448,
            "time": 176.77413604166668,
            "velocity": 0.5039370078740157
          },
          {
            "duration": 0.375,
            "durationTicks": 96,
            "midi": 59,
            "name": "B3",
            "ticks": 44448,
            "time": 176.77413604166668,
            "velocity": 0.5039370078740157
          },
          {
            "duration": 0.75,
            "durationTicks": 192,
            "midi": 55,
            "name": "G3",
            "ticks": 44544,
            "time": 177.14913604166668,
            "velocity": 0.5039370078740157
          },
          {
            "duration": 0.75,
            "durationTicks": 192,
            "midi": 59,
            "name": "B3",
            "ticks": 44560,
            "time": 177.21163604166668,
            "velocity": 0.5039370078740157
          },
          {
            "duration": 0.75,
            "durationTicks": 192,
            "midi": 62,
            "name": "D4",
            "ticks": 44574,
            "time": 177.26632354166668,
            "velocity": 0.5039370078740157
          },
          {
            "duration": 0.75,
            "durationTicks": 192,
            "midi": 67,
            "name": "G4",
            "ticks": 44590,
            "time": 177.32882354166668,
            "velocity": 0.5039370078740157
          },
          {
            "duration": 0.375,
            "durationTicks": 96,
            "midi": 81,
            "name": "A5",
            "ticks": 44736,
            "time": 177.89913604166668,
            "velocity": 0.5039370078740157
          },
          {
            "duration": 0.375,
            "durationTicks": 96,
            "midi": 69,
            "name": "A4",
            "ticks": 44736,
            "time": 177.89913604166668,
            "velocity": 0.5039370078740157
          },
          {
            "duration": 0.375,
            "durationTicks": 96,
            "midi": 83,
            "name": "B5",
            "ticks": 44832,
            "time": 178.27413604166668,
            "velocity": 0.5039370078740157
          },
          {
            "duration": 0.375,
            "durationTicks": 96,
            "midi": 71,
            "name": "B4",
            "ticks": 44832,
            "time": 178.27413604166668,
            "velocity": 0.5039370078740157
          },
          {
            "duration": 0.375,
            "durationTicks": 96,
            "midi": 72,
            "name": "C5",
            "ticks": 44928,
            "time": 178.64913604166668,
            "velocity": 0.5039370078740157
          },
          {
            "duration": 0.3125,
            "durationTicks": 80,
            "midi": 76,
            "name": "E5",
            "ticks": 44944,
            "time": 178.71163604166668,
            "velocity": 0.5039370078740157
          },
          {
            "duration": 0.2578125,
            "durationTicks": 66,
            "midi": 81,
            "name": "A5",
            "ticks": 44958,
            "time": 178.76632354166668,
            "velocity": 0.5039370078740157
          },
          {
            "duration": 0.1953125,
            "durationTicks": 50,
            "midi": 84,
            "name": "C6",
            "ticks": 44974,
            "time": 178.82882354166668,
            "velocity": 0.5039370078740157
          },
          {
            "duration": 0.375,
            "durationTicks": 96,
            "midi": 84,
            "name": "C6",
            "ticks": 45024,
            "time": 179.02413604166668,
            "velocity": 0.5039370078740157
          },
          {
            "duration": 0.375,
            "durationTicks": 96,
            "midi": 81,
            "name": "A5",
            "ticks": 45024,
            "time": 179.02413604166668,
            "velocity": 0.5039370078740157
          },
          {
            "duration": 0.375,
            "durationTicks": 96,
            "midi": 76,
            "name": "E5",
            "ticks": 45024,
            "time": 179.02413604166668,
            "velocity": 0.5039370078740157
          },
          {
            "duration": 0.375,
            "durationTicks": 96,
            "midi": 72,
            "name": "C5",
            "ticks": 45024,
            "time": 179.02413604166668,
            "velocity": 0.5039370078740157
          },
          {
            "duration": 0.375,
            "durationTicks": 96,
            "midi": 86,
            "name": "D6",
            "ticks": 45120,
            "time": 179.39913604166668,
            "velocity": 0.5039370078740157
          },
          {
            "duration": 0.375,
            "durationTicks": 96,
            "midi": 74,
            "name": "D5",
            "ticks": 45120,
            "time": 179.39913604166668,
            "velocity": 0.5039370078740157
          },
          {
            "duration": 0.375,
            "durationTicks": 96,
            "midi": 84,
            "name": "C6",
            "ticks": 45216,
            "time": 179.77413604166668,
            "velocity": 0.5039370078740157
          },
          {
            "duration": 0.375,
            "durationTicks": 96,
            "midi": 72,
            "name": "C5",
            "ticks": 45216,
            "time": 179.77413604166668,
            "velocity": 0.5039370078740157
          },
          {
            "duration": 0.75,
            "durationTicks": 192,
            "midi": 83,
            "name": "B5",
            "ticks": 45312,
            "time": 180.14913604166668,
            "velocity": 0.5039370078740157
          },
          {
            "duration": 0.75,
            "durationTicks": 192,
            "midi": 79,
            "name": "G5",
            "ticks": 45312,
            "time": 180.14913604166668,
            "velocity": 0.5039370078740157
          },
          {
            "duration": 0.75,
            "durationTicks": 192,
            "midi": 76,
            "name": "E5",
            "ticks": 45312,
            "time": 180.14913604166668,
            "velocity": 0.5039370078740157
          },
          {
            "duration": 0.75,
            "durationTicks": 192,
            "midi": 71,
            "name": "B4",
            "ticks": 45312,
            "time": 180.14913604166668,
            "velocity": 0.5039370078740157
          },
          {
            "duration": 0.375,
            "durationTicks": 96,
            "midi": 76,
            "name": "E5",
            "ticks": 45504,
            "time": 180.89913604166668,
            "velocity": 0.5039370078740157
          },
          {
            "duration": 0.375,
            "durationTicks": 96,
            "midi": 64,
            "name": "E4",
            "ticks": 45504,
            "time": 180.89913604166668,
            "velocity": 0.5039370078740157
          },
          {
            "duration": 0.375,
            "durationTicks": 96,
            "midi": 79,
            "name": "G5",
            "ticks": 45600,
            "time": 181.27413604166668,
            "velocity": 0.5039370078740157
          },
          {
            "duration": 0.375,
            "durationTicks": 96,
            "midi": 67,
            "name": "G4",
            "ticks": 45600,
            "time": 181.27413604166668,
            "velocity": 0.5039370078740157
          },
          {
            "duration": 0.375,
            "durationTicks": 96,
            "midi": 69,
            "name": "A4",
            "ticks": 45696,
            "time": 181.64913604166668,
            "velocity": 0.5039370078740157
          },
          {
            "duration": 0.375,
            "durationTicks": 96,
            "midi": 72,
            "name": "C5",
            "ticks": 45712,
            "time": 181.71163604166668,
            "velocity": 0.5039370078740157
          },
          {
            "duration": 0.2578125,
            "durationTicks": 66,
            "midi": 81,
            "name": "A5",
            "ticks": 45726,
            "time": 181.76632354166668,
            "velocity": 0.5039370078740157
          },
          {
            "duration": 0.375,
            "durationTicks": 96,
            "midi": 81,
            "name": "A5",
            "ticks": 45792,
            "time": 182.02413604166668,
            "velocity": 0.5039370078740157
          },
          {
            "duration": 0.375,
            "durationTicks": 96,
            "midi": 69,
            "name": "A4",
            "ticks": 45792,
            "time": 182.02413604166668,
            "velocity": 0.5039370078740157
          },
          {
            "duration": 0.375,
            "durationTicks": 96,
            "midi": 79,
            "name": "G5",
            "ticks": 45888,
            "time": 182.39913604166668,
            "velocity": 0.5039370078740157
          },
          {
            "duration": 0.375,
            "durationTicks": 96,
            "midi": 67,
            "name": "G4",
            "ticks": 45888,
            "time": 182.39913604166668,
            "velocity": 0.5039370078740157
          },
          {
            "duration": 0.375,
            "durationTicks": 96,
            "midi": 77,
            "name": "F5",
            "ticks": 45984,
            "time": 182.77413604166668,
            "velocity": 0.5039370078740157
          },
          {
            "duration": 0.375,
            "durationTicks": 96,
            "midi": 65,
            "name": "F4",
            "ticks": 45984,
            "time": 182.77413604166668,
            "velocity": 0.5039370078740157
          },
          {
            "duration": 1.125,
            "durationTicks": 288,
            "midi": 79,
            "name": "G5",
            "ticks": 46080,
            "time": 183.14913604166668,
            "velocity": 0.5039370078740157
          },
          {
            "duration": 1.125,
            "durationTicks": 288,
            "midi": 74,
            "name": "D5",
            "ticks": 46080,
            "time": 183.14913604166668,
            "velocity": 0.5039370078740157
          },
          {
            "duration": 1.125,
            "durationTicks": 288,
            "midi": 72,
            "name": "C5",
            "ticks": 46080,
            "time": 183.14913604166668,
            "velocity": 0.5039370078740157
          },
          {
            "duration": 1.125,
            "durationTicks": 288,
            "midi": 67,
            "name": "G4",
            "ticks": 46080,
            "time": 183.14913604166668,
            "velocity": 0.5039370078740157
          },
          {
            "duration": 0.375,
            "durationTicks": 96,
            "midi": 79,
            "name": "G5",
            "ticks": 46368,
            "time": 184.27413604166668,
            "velocity": 0.5039370078740157
          },
          {
            "duration": 0.375,
            "durationTicks": 96,
            "midi": 67,
            "name": "G4",
            "ticks": 46368,
            "time": 184.27413604166668,
            "velocity": 0.5039370078740157
          },
          {
            "duration": 0.375,
            "durationTicks": 96,
            "midi": 79,
            "name": "G5",
            "ticks": 46464,
            "time": 184.64913604166668,
            "velocity": 0.5039370078740157
          },
          {
            "duration": 0.375,
            "durationTicks": 96,
            "midi": 67,
            "name": "G4",
            "ticks": 46464,
            "time": 184.64913604166668,
            "velocity": 0.5039370078740157
          },
          {
            "duration": 0.375,
            "durationTicks": 96,
            "midi": 77,
            "name": "F5",
            "ticks": 46560,
            "time": 185.02413604166668,
            "velocity": 0.5039370078740157
          },
          {
            "duration": 0.375,
            "durationTicks": 96,
            "midi": 65,
            "name": "F4",
            "ticks": 46560,
            "time": 185.02413604166668,
            "velocity": 0.5039370078740157
          },
          {
            "duration": 0.375,
            "durationTicks": 96,
            "midi": 77,
            "name": "F5",
            "ticks": 46656,
            "time": 185.39913604166668,
            "velocity": 0.5039370078740157
          },
          {
            "duration": 0.375,
            "durationTicks": 96,
            "midi": 65,
            "name": "F4",
            "ticks": 46656,
            "time": 185.39913604166668,
            "velocity": 0.5039370078740157
          },
          {
            "duration": 0.375,
            "durationTicks": 96,
            "midi": 75,
            "name": "D#5",
            "ticks": 46752,
            "time": 185.77413604166668,
            "velocity": 0.5039370078740157
          },
          {
            "duration": 0.375,
            "durationTicks": 96,
            "midi": 63,
            "name": "D#4",
            "ticks": 46752,
            "time": 185.77413604166668,
            "velocity": 0.5039370078740157
          },
          {
            "duration": 0.75,
            "durationTicks": 192,
            "midi": 77,
            "name": "F5",
            "ticks": 46848,
            "time": 186.14913604166668,
            "velocity": 0.5039370078740157
          },
          {
            "duration": 0.75,
            "durationTicks": 192,
            "midi": 65,
            "name": "F4",
            "ticks": 46848,
            "time": 186.14913604166668,
            "velocity": 0.5039370078740157
          },
          {
            "duration": 0.375,
            "durationTicks": 96,
            "midi": 79,
            "name": "G5",
            "ticks": 47040,
            "time": 186.89913604166668,
            "velocity": 0.5039370078740157
          },
          {
            "duration": 0.375,
            "durationTicks": 96,
            "midi": 67,
            "name": "G4",
            "ticks": 47040,
            "time": 186.89913604166668,
            "velocity": 0.5039370078740157
          },
          {
            "duration": 0.375,
            "durationTicks": 96,
            "midi": 80,
            "name": "G#5",
            "ticks": 47136,
            "time": 187.27413604166668,
            "velocity": 0.5039370078740157
          },
          {
            "duration": 0.375,
            "durationTicks": 96,
            "midi": 68,
            "name": "G#4",
            "ticks": 47136,
            "time": 187.27413604166668,
            "velocity": 0.5039370078740157
          },
          {
            "duration": 0.375,
            "durationTicks": 96,
            "midi": 82,
            "name": "A#5",
            "ticks": 47232,
            "time": 187.64913604166668,
            "velocity": 0.5039370078740157
          },
          {
            "duration": 0.375,
            "durationTicks": 96,
            "midi": 70,
            "name": "A#4",
            "ticks": 47232,
            "time": 187.64913604166668,
            "velocity": 0.5039370078740157
          },
          {
            "duration": 0.375,
            "durationTicks": 96,
            "midi": 80,
            "name": "G#5",
            "ticks": 47328,
            "time": 188.02413604166668,
            "velocity": 0.5039370078740157
          },
          {
            "duration": 0.375,
            "durationTicks": 96,
            "midi": 68,
            "name": "G#4",
            "ticks": 47328,
            "time": 188.02413604166668,
            "velocity": 0.5039370078740157
          },
          {
            "duration": 0.375,
            "durationTicks": 96,
            "midi": 80,
            "name": "G#5",
            "ticks": 47424,
            "time": 188.39913604166668,
            "velocity": 0.5039370078740157
          },
          {
            "duration": 0.375,
            "durationTicks": 96,
            "midi": 68,
            "name": "G#4",
            "ticks": 47424,
            "time": 188.39913604166668,
            "velocity": 0.5039370078740157
          },
          {
            "duration": 0.375,
            "durationTicks": 96,
            "midi": 79,
            "name": "G5",
            "ticks": 47520,
            "time": 188.77413604166668,
            "velocity": 0.5039370078740157
          },
          {
            "duration": 0.375,
            "durationTicks": 96,
            "midi": 67,
            "name": "G4",
            "ticks": 47520,
            "time": 188.77413604166668,
            "velocity": 0.5039370078740157
          },
          {
            "duration": 0.75,
            "durationTicks": 192,
            "midi": 80,
            "name": "G#5",
            "ticks": 47616,
            "time": 189.14913604166668,
            "velocity": 0.5039370078740157
          },
          {
            "duration": 0.75,
            "durationTicks": 192,
            "midi": 68,
            "name": "G#4",
            "ticks": 47616,
            "time": 189.14913604166668,
            "velocity": 0.5039370078740157
          },
          {
            "duration": 0.25,
            "durationTicks": 64,
            "midi": 79,
            "name": "G5",
            "ticks": 47808,
            "time": 189.89913604166668,
            "velocity": 0.5039370078740157
          },
          {
            "duration": 0.25,
            "durationTicks": 64,
            "midi": 67,
            "name": "G4",
            "ticks": 47808,
            "time": 189.89913604166668,
            "velocity": 0.5039370078740157
          },
          {
            "duration": 0.2578125,
            "durationTicks": 66,
            "midi": 80,
            "name": "G#5",
            "ticks": 47872,
            "time": 190.14913604166668,
            "velocity": 0.5039370078740157
          },
          {
            "duration": 0.2578125,
            "durationTicks": 66,
            "midi": 68,
            "name": "G#4",
            "ticks": 47872,
            "time": 190.14913604166668,
            "velocity": 0.5039370078740157
          },
          {
            "duration": 0.25,
            "durationTicks": 64,
            "midi": 82,
            "name": "A#5",
            "ticks": 47938,
            "time": 190.40694854166668,
            "velocity": 0.5039370078740157
          },
          {
            "duration": 0.25,
            "durationTicks": 64,
            "midi": 70,
            "name": "A#4",
            "ticks": 47938,
            "time": 190.40694854166668,
            "velocity": 0.5039370078740157
          },
          {
            "duration": 1.5078125,
            "durationTicks": 386,
            "midi": 72,
            "name": "C5",
            "ticks": 48000,
            "time": 190.64913604166668,
            "velocity": 0.5039370078740157
          },
          {
            "duration": 1.5078125,
            "durationTicks": 386,
            "midi": 77,
            "name": "F5",
            "ticks": 48016,
            "time": 190.71163604166668,
            "velocity": 0.5039370078740157
          },
          {
            "duration": 1.5078125,
            "durationTicks": 386,
            "midi": 80,
            "name": "G#5",
            "ticks": 48030,
            "time": 190.76632354166668,
            "velocity": 0.5039370078740157
          },
          {
            "duration": 1.5078125,
            "durationTicks": 386,
            "midi": 84,
            "name": "C6",
            "ticks": 48046,
            "time": 190.82882354166668,
            "velocity": 0.5039370078740157
          },
          {
            "duration": 0.375,
            "durationTicks": 96,
            "midi": 80,
            "name": "G#5",
            "ticks": 48576,
            "time": 192.89913604166668,
            "velocity": 0.5039370078740157
          },
          {
            "duration": 0.375,
            "durationTicks": 96,
            "midi": 68,
            "name": "G#4",
            "ticks": 48576,
            "time": 192.89913604166668,
            "velocity": 0.5039370078740157
          },
          {
            "duration": 0.375,
            "durationTicks": 96,
            "midi": 82,
            "name": "A#5",
            "ticks": 48672,
            "time": 193.27413604166668,
            "velocity": 0.5039370078740157
          },
          {
            "duration": 0.375,
            "durationTicks": 96,
            "midi": 70,
            "name": "A#4",
            "ticks": 48672,
            "time": 193.27413604166668,
            "velocity": 0.5039370078740157
          },
          {
            "duration": 1.5,
            "durationTicks": 384,
            "midi": 72,
            "name": "C5",
            "ticks": 48768,
            "time": 193.64913604166668,
            "velocity": 0.5039370078740157
          },
          {
            "duration": 1.5,
            "durationTicks": 384,
            "midi": 77,
            "name": "F5",
            "ticks": 48784,
            "time": 193.71163604166668,
            "velocity": 0.5039370078740157
          },
          {
            "duration": 1.5,
            "durationTicks": 384,
            "midi": 80,
            "name": "G#5",
            "ticks": 48798,
            "time": 193.76632354166668,
            "velocity": 0.5039370078740157
          },
          {
            "duration": 1.5,
            "durationTicks": 384,
            "midi": 84,
            "name": "C6",
            "ticks": 48814,
            "time": 193.82882354166668,
            "velocity": 0.5039370078740157
          },
          {
            "duration": 0.375,
            "durationTicks": 96,
            "midi": 84,
            "name": "C6",
            "ticks": 49248,
            "time": 195.52413604166668,
            "velocity": 0.5039370078740157
          },
          {
            "duration": 0.375,
            "durationTicks": 96,
            "midi": 72,
            "name": "C5",
            "ticks": 49248,
            "time": 195.52413604166668,
            "velocity": 0.5039370078740157
          },
          {
            "duration": 0.375,
            "durationTicks": 96,
            "midi": 83,
            "name": "B5",
            "ticks": 49344,
            "time": 195.89913604166668,
            "velocity": 0.5039370078740157
          },
          {
            "duration": 0.375,
            "durationTicks": 96,
            "midi": 71,
            "name": "B4",
            "ticks": 49344,
            "time": 195.89913604166668,
            "velocity": 0.5039370078740157
          },
          {
            "duration": 0.375,
            "durationTicks": 96,
            "midi": 84,
            "name": "C6",
            "ticks": 49440,
            "time": 196.27413604166668,
            "velocity": 0.5039370078740157
          },
          {
            "duration": 0.375,
            "durationTicks": 96,
            "midi": 72,
            "name": "C5",
            "ticks": 49440,
            "time": 196.27413604166668,
            "velocity": 0.5039370078740157
          },
          {
            "duration": 1.5,
            "durationTicks": 384,
            "midi": 74,
            "name": "D5",
            "ticks": 49536,
            "time": 196.64913604166668,
            "velocity": 0.5039370078740157
          },
          {
            "duration": 1.5,
            "durationTicks": 384,
            "midi": 86,
            "name": "D6",
            "ticks": 49552,
            "time": 196.71163604166668,
            "velocity": 0.5039370078740157
          },
          {
            "duration": 0.375,
            "durationTicks": 96,
            "midi": 79,
            "name": "G5",
            "ticks": 50016,
            "time": 198.52413604166668,
            "velocity": 0.5039370078740157
          },
          {
            "duration": 0.375,
            "durationTicks": 96,
            "midi": 84,
            "name": "C6",
            "ticks": 50112,
            "time": 198.89913604166668,
            "velocity": 0.5039370078740157
          },
          {
            "duration": 0.4635416666666572,
            "durationTicks": 96,
            "midi": 83,
            "name": "B5",
            "ticks": 50186,
            "time": 199.18819854166668,
            "velocity": 0.5039370078740157
          },
          {
            "duration": 1.5,
            "durationTicks": 288,
            "midi": 84,
            "name": "C6",
            "ticks": 50272,
            "time": 199.59965687500002,
            "velocity": 0.5039370078740157
          },
          {
            "duration": 0.5,
            "durationTicks": 96,
            "midi": 65,
            "name": "F4",
            "ticks": 50560,
            "time": 201.09965687500002,
            "velocity": 0.5039370078740157
          },
          {
            "duration": 0.5,
            "durationTicks": 96,
            "midi": 69,
            "name": "A4",
            "ticks": 50656,
            "time": 201.59965687500002,
            "velocity": 0.5039370078740157
          },
          {
            "duration": 0.5,
            "durationTicks": 96,
            "midi": 71,
            "name": "B4",
            "ticks": 50752,
            "time": 202.09965687500002,
            "velocity": 0.5039370078740157
          },
          {
            "duration": 0.5,
            "durationTicks": 96,
            "midi": 77,
            "name": "F5",
            "ticks": 50848,
            "time": 202.59965687500002,
            "velocity": 0.5039370078740157
          },
          {
            "duration": 0.5,
            "durationTicks": 96,
            "midi": 81,
            "name": "A5",
            "ticks": 50944,
            "time": 203.09965687500002,
            "velocity": 0.5039370078740157
          },
          {
            "duration": 0.5,
            "durationTicks": 96,
            "midi": 83,
            "name": "B5",
            "ticks": 51040,
            "time": 203.59965687500002,
            "velocity": 0.5039370078740157
          },
          {
            "duration": 15.96875,
            "durationTicks": 3066,
            "midi": 77,
            "name": "F5",
            "ticks": 51136,
            "time": 204.09965687500002,
            "velocity": 0.5039370078740157
          },
          {
            "duration": 15.96875,
            "durationTicks": 3066,
            "midi": 81,
            "name": "A5",
            "ticks": 51152,
            "time": 204.18299020833334,
            "velocity": 0.5039370078740157
          },
          {
            "duration": 16.072916666666657,
            "durationTicks": 3086,
            "midi": 83,
            "name": "B5",
            "ticks": 51166,
            "time": 204.25590687500002,
            "velocity": 0.5039370078740157
          },
          {
            "duration": 16,
            "durationTicks": 3072,
            "midi": 88,
            "name": "E6",
            "ticks": 51182,
            "time": 204.33924020833334,
            "velocity": 0.5039370078740157
          }
        ],
        "endOfTrackTicks": 54786
      },
      {
        "channel": 1,
        "controlChanges": {
          "0": [
            {
              "number": 0,
              "ticks": 0,
              "time": 0,
              "value": 0
            }
          ],
          "6": [
            {
              "number": 6,
              "ticks": 0,
              "time": 0,
              "value": 0.1889763779527559
            }
          ],
          "7": [
            {
              "number": 7,
              "ticks": 0,
              "time": 0,
              "value": 1
            }
          ],
          "10": [
            {
              "number": 10,
              "ticks": 0,
              "time": 0,
              "value": 0.5039370078740157
            },
            {
              "number": 10,
              "ticks": 0,
              "time": 0,
              "value": 0.5039370078740157
            }
          ],
          "32": [
            {
              "number": 32,
              "ticks": 0,
              "time": 0,
              "value": 0
            }
          ],
          "64": [
            {
              "number": 64,
              "ticks": 0,
              "time": 0,
              "value": 1
            },
            {
              "number": 64,
              "ticks": 768,
              "time": 3,
              "value": 1
            },
            {
              "number": 64,
              "ticks": 1536,
              "time": 6,
              "value": 1
            },
            {
              "number": 64,
              "ticks": 2304,
              "time": 9,
              "value": 1
            },
            {
              "number": 64,
              "ticks": 2616,
              "time": 10.21875,
              "value": 1
            },
            {
              "number": 64,
              "ticks": 3082,
              "time": 12.0390625,
              "value": 1
            },
            {
              "number": 64,
              "ticks": 3840,
              "time": 15,
              "value": 1
            },
            {
              "number": 64,
              "ticks": 5386,
              "time": 21.0390625,
              "value": 1
            },
            {
              "number": 64,
              "ticks": 6144,
              "time": 24,
              "value": 1
            },
            {
              "number": 64,
              "ticks": 6912,
              "time": 27,
              "value": 1
            },
            {
              "number": 64,
              "ticks": 7600,
              "time": 29.6875,
              "value": 1
            },
            {
              "number": 64,
              "ticks": 8448,
              "time": 33,
              "value": 1
            },
            {
              "number": 64,
              "ticks": 9064,
              "time": 35.40625,
              "value": 1
            },
            {
              "number": 64,
              "ticks": 9984,
              "time": 39,
              "value": 1
            },
            {
              "number": 64,
              "ticks": 10328,
              "time": 40.34375,
              "value": 1
            },
            {
              "number": 64,
              "ticks": 10752,
              "time": 42,
              "value": 1
            },
            {
              "number": 64,
              "ticks": 11520,
              "time": 45,
              "value": 1
            },
            {
              "number": 64,
              "ticks": 12156,
              "time": 47.484375,
              "value": 0
            },
            {
              "number": 64,
              "ticks": 12288,
              "time": 48,
              "value": 1
            },
            {
              "number": 64,
              "ticks": 12674,
              "time": 49.5078125,
              "value": 0
            },
            {
              "number": 64,
              "ticks": 13050,
              "time": 50.9765625,
              "value": 0
            },
            {
              "number": 64,
              "ticks": 13056,
              "time": 51,
              "value": 1
            },
            {
              "number": 64,
              "ticks": 13144,
              "time": 51.34375,
              "value": 1
            },
            {
              "number": 64,
              "ticks": 13824,
              "time": 54,
              "value": 1
            },
            {
              "number": 64,
              "ticks": 14102,
              "time": 55.0859375,
              "value": 0
            },
            {
              "number": 64,
              "ticks": 14592,
              "time": 57,
              "value": 1
            },
            {
              "number": 64,
              "ticks": 14950,
              "time": 58.3984375,
              "value": 0
            },
            {
              "number": 64,
              "ticks": 15360,
              "time": 60,
              "value": 1
            },
            {
              "number": 64,
              "ticks": 15712,
              "time": 61.375,
              "value": 1
            },
            {
              "number": 64,
              "ticks": 16086,
              "time": 62.8359375,
              "value": 1
            },
            {
              "number": 64,
              "ticks": 16400,
              "time": 64.0625,
              "value": 0
            },
            {
              "number": 64,
              "ticks": 16474,
              "time": 64.3515625,
              "value": 1
            },
            {
              "number": 64,
              "ticks": 16782,
              "time": 65.5546875,
              "value": 0
            },
            {
              "number": 64,
              "ticks": 16896,
              "time": 66,
              "value": 0
            },
            {
              "number": 64,
              "ticks": 17276,
              "time": 67.484375,
              "value": 1
            },
            {
              "number": 64,
              "ticks": 17468,
              "time": 68.234375,
              "value": 0
            },
            {
              "number": 64,
              "ticks": 17664,
              "time": 69,
              "value": 0
            },
            {
              "number": 64,
              "ticks": 17744,
              "time": 69.3125,
              "value": 1
            },
            {
              "number": 64,
              "ticks": 18306,
              "time": 71.5078125,
              "value": 0
            },
            {
              "number": 64,
              "ticks": 18424,
              "time": 71.96875,
              "value": 1
            },
            {
              "number": 64,
              "ticks": 19094,
              "time": 74.5859375,
              "value": 0
            },
            {
              "number": 64,
              "ticks": 19176,
              "time": 74.90625,
              "value": 1
            },
            {
              "number": 64,
              "ticks": 19868,
              "time": 77.609375,
              "value": 0
            },
            {
              "number": 64,
              "ticks": 21504,
              "time": 84,
              "value": 1
            },
            {
              "number": 64,
              "ticks": 21876,
              "time": 85.453125,
              "value": 0
            },
            {
              "number": 64,
              "ticks": 22272,
              "time": 87,
              "value": 1
            },
            {
              "number": 64,
              "ticks": 22548,
              "time": 88.078125,
              "value": 0
            },
            {
              "number": 64,
              "ticks": 22626,
              "time": 88.3828125,
              "value": 1
            },
            {
              "number": 64,
              "ticks": 22932,
              "time": 89.578125,
              "value": 0
            },
            {
              "number": 64,
              "ticks": 23040,
              "time": 90,
              "value": 1
            },
            {
              "number": 64,
              "ticks": 23128,
              "time": 90.34375,
              "value": 1
            },
            {
              "number": 64,
              "ticks": 23320,
              "time": 91.09375,
              "value": 0
            },
            {
              "number": 64,
              "ticks": 23392,
              "time": 91.375,
              "value": 1
            },
            {
              "number": 64,
              "ticks": 23606,
              "time": 92.2109375,
              "value": 0
            },
            {
              "number": 64,
              "ticks": 25350,
              "time": 99.0234375,
              "value": 1
            },
            {
              "number": 64,
              "ticks": 25624,
              "time": 100.09375,
              "value": 0
            },
            {
              "number": 64,
              "ticks": 25710,
              "time": 100.4296875,
              "value": 1
            },
            {
              "number": 64,
              "ticks": 26022,
              "time": 101.6484375,
              "value": 0
            },
            {
              "number": 64,
              "ticks": 26104,
              "time": 101.96875,
              "value": 1
            },
            {
              "number": 64,
              "ticks": 26392,
              "time": 103.09375,
              "value": 0
            },
            {
              "number": 64,
              "ticks": 26464,
              "time": 103.375,
              "value": 1
            },
            {
              "number": 64,
              "ticks": 26760,
              "time": 104.53125,
              "value": 0
            },
            {
              "number": 64,
              "ticks": 26862,
              "time": 104.9296875,
              "value": 1
            },
            {
              "number": 64,
              "ticks": 27134,
              "time": 105.9921875,
              "value": 0
            },
            {
              "number": 64,
              "ticks": 27216,
              "time": 106.3125,
              "value": 1
            },
            {
              "number": 64,
              "ticks": 27544,
              "time": 107.59375,
              "value": 0
            },
            {
              "number": 64,
              "ticks": 27620,
              "time": 107.890625,
              "value": 1
            },
            {
              "number": 64,
              "ticks": 27928,
              "time": 109.09375,
              "value": 0
            },
            {
              "number": 64,
              "ticks": 28018,
              "time": 109.4453125,
              "value": 1
            },
            {
              "number": 64,
              "ticks": 28316,
              "time": 110.609375,
              "value": 0
            },
            {
              "number": 64,
              "ticks": 28398,
              "time": 110.9296875,
              "value": 1
            },
            {
              "number": 64,
              "ticks": 28696,
              "time": 112.09375,
              "value": 0
            },
            {
              "number": 64,
              "ticks": 28792,
              "time": 112.46875,
              "value": 1
            },
            {
              "number": 64,
              "ticks": 29080,
              "time": 113.59375,
              "value": 0
            },
            {
              "number": 64,
              "ticks": 29180,
              "time": 113.984375,
              "value": 1
            },
            {
              "number": 64,
              "ticks": 29468,
              "time": 115.109375,
              "value": 0
            },
            {
              "number": 64,
              "ticks": 29536,
              "time": 115.375,
              "value": 1
            },
            {
              "number": 64,
              "ticks": 29834,
              "time": 116.5390625,
              "value": 0
            },
            {
              "number": 64,
              "ticks": 29944,
              "time": 116.96875,
              "value": 1
            },
            {
              "number": 64,
              "ticks": 30312,
              "time": 118.40625,
              "value": 0
            },
            {
              "number": 64,
              "ticks": 32608,
              "time": 127.375,
              "value": 1
            },
            {
              "number": 64,
              "ticks": 32960,
              "time": 128.75,
              "value": 0
            },
            {
              "number": 64,
              "ticks": 33024,
              "time": 129,
              "value": 1
            },
            {
              "number": 64,
              "ticks": 33352,
              "time": 130.28125,
              "value": 0
            },
            {
              "number": 64,
              "ticks": 33408,
              "time": 130.5,
              "value": 1
            },
            {
              "number": 64,
              "ticks": 34118,
              "time": 133.2734375,
              "value": 0
            },
            {
              "number": 64,
              "ticks": 34150,
              "time": 133.3984375,
              "value": 1
            },
            {
              "number": 64,
              "ticks": 34878,
              "time": 136.2421875,
              "value": 0
            },
            {
              "number": 64,
              "ticks": 34924,
              "time": 136.421875,
              "value": 1
            },
            {
              "number": 64,
              "ticks": 35632,
              "time": 139.53677116666668,
              "value": 0
            },
            {
              "number": 64,
              "ticks": 35688,
              "time": 139.80600166666667,
              "value": 1
            },
            {
              "number": 64,
              "ticks": 36448,
              "time": 143.45984416666667,
              "value": 1
            },
            {
              "number": 64,
              "ticks": 37210,
              "time": 147.12330204166668,
              "value": 1
            },
            {
              "number": 64,
              "ticks": 37796,
              "time": 149.94060691666667,
              "value": 0
            },
            {
              "number": 64,
              "ticks": 40312,
              "time": 160.61788604166668,
              "value": 1
            },
            {
              "number": 64,
              "ticks": 41022,
              "time": 163.39132354166668,
              "value": 0
            },
            {
              "number": 64,
              "ticks": 41080,
              "time": 163.61788604166668,
              "value": 1
            },
            {
              "number": 64,
              "ticks": 41458,
              "time": 165.09444854166668,
              "value": 0
            },
            {
              "number": 64,
              "ticks": 41854,
              "time": 166.64132354166668,
              "value": 1
            },
            {
              "number": 64,
              "ticks": 42114,
              "time": 167.65694854166668,
              "value": 0
            },
            {
              "number": 64,
              "ticks": 42202,
              "time": 168.00069854166668,
              "value": 1
            },
            {
              "number": 64,
              "ticks": 42524,
              "time": 169.25851104166668,
              "value": 0
            },
            {
              "number": 64,
              "ticks": 42634,
              "time": 169.68819854166668,
              "value": 1
            },
            {
              "number": 64,
              "ticks": 42876,
              "time": 170.63351104166668,
              "value": 0
            },
            {
              "number": 64,
              "ticks": 42970,
              "time": 171.00069854166668,
              "value": 1
            },
            {
              "number": 64,
              "ticks": 43194,
              "time": 171.87569854166668,
              "value": 0
            },
            {
              "number": 64,
              "ticks": 44910,
              "time": 178.57882354166668,
              "value": 1
            },
            {
              "number": 64,
              "ticks": 45212,
              "time": 179.75851104166668,
              "value": 0
            },
            {
              "number": 64,
              "ticks": 45304,
              "time": 180.11788604166668,
              "value": 1
            },
            {
              "number": 64,
              "ticks": 45582,
              "time": 181.20382354166668,
              "value": 0
            },
            {
              "number": 64,
              "ticks": 45682,
              "time": 181.59444854166668,
              "value": 1
            },
            {
              "number": 64,
              "ticks": 45956,
              "time": 182.66476104166668,
              "value": 0
            },
            {
              "number": 64,
              "ticks": 46062,
              "time": 183.07882354166668,
              "value": 1
            },
            {
              "number": 64,
              "ticks": 46350,
              "time": 184.20382354166668,
              "value": 0
            },
            {
              "number": 64,
              "ticks": 46446,
              "time": 184.57882354166668,
              "value": 1
            },
            {
              "number": 64,
              "ticks": 46724,
              "time": 185.66476104166668,
              "value": 0
            },
            {
              "number": 64,
              "ticks": 46824,
              "time": 186.05538604166668,
              "value": 1
            },
            {
              "number": 64,
              "ticks": 47104,
              "time": 187.14913604166668,
              "value": 0
            },
            {
              "number": 64,
              "ticks": 47204,
              "time": 187.53976104166668,
              "value": 1
            },
            {
              "number": 64,
              "ticks": 47506,
              "time": 188.71944854166668,
              "value": 0
            },
            {
              "number": 64,
              "ticks": 47612,
              "time": 189.13351104166668,
              "value": 1
            },
            {
              "number": 64,
              "ticks": 47876,
              "time": 190.16476104166668,
              "value": 0
            },
            {
              "number": 64,
              "ticks": 47976,
              "time": 190.55538604166668,
              "value": 1
            },
            {
              "number": 64,
              "ticks": 48644,
              "time": 193.16476104166668,
              "value": 0
            },
            {
              "number": 64,
              "ticks": 48754,
              "time": 193.59444854166668,
              "value": 1
            },
            {
              "number": 64,
              "ticks": 49422,
              "time": 196.20382354166668,
              "value": 0
            },
            {
              "number": 64,
              "ticks": 49512,
              "time": 196.55538604166668,
              "value": 1
            },
            {
              "number": 64,
              "ticks": 49908,
              "time": 198.10226104166668,
              "value": 0
            },
            {
              "number": 64,
              "ticks": 50278,
              "time": 199.63090687500002,
              "value": 1
            },
            {
              "number": 64,
              "ticks": 54786,
              "time": 223.11007354166668,
              "value": 0
            }
          ],
          "100": [
            {
              "number": 100,
              "ticks": 0,
              "time": 0,
              "value": 0
            }
          ],
          "101": [
            {
              "number": 101,
              "ticks": 0,
              "time": 0,
              "value": 0
            }
          ],
          "120": [
            {
              "number": 120,
              "ticks": 54786,
              "time": 223.11007354166668,
              "value": 0
            }
          ],
          "123": [
            {
              "number": 123,
              "ticks": 54786,
              "time": 223.11007354166668,
              "value": 0
            }
          ]
        },
        "pitchBends": [
          {
            "ticks": 0,
            "time": 0,
            "value": 0
          }
        ],
        "instrument": {
          "family": "piano",
          "number": 0,
          "name": "acoustic grand piano"
        },
        "name": "Piano 1",
        "notes": [
          {
            "duration": 3,
            "durationTicks": 768,
            "midi": 65,
            "name": "F4",
            "ticks": 0,
            "time": 0,
            "velocity": 0.5039370078740157
          },
          {
            "duration": 3,
            "durationTicks": 768,
            "midi": 72,
            "name": "C5",
            "ticks": 16,
            "time": 0.0625,
            "velocity": 0.5039370078740157
          },
          {
            "duration": 3,
            "durationTicks": 768,
            "midi": 64,
            "name": "E4",
            "ticks": 768,
            "time": 3,
            "velocity": 0.5039370078740157
          },
          {
            "duration": 3,
            "durationTicks": 768,
            "midi": 71,
            "name": "B4",
            "ticks": 784,
            "time": 3.0625,
            "velocity": 0.5039370078740157
          },
          {
            "duration": 1.5,
            "durationTicks": 384,
            "midi": 62,
            "name": "D4",
            "ticks": 1536,
            "time": 6,
            "velocity": 0.5039370078740157
          },
          {
            "duration": 1.5,
            "durationTicks": 384,
            "midi": 69,
            "name": "A4",
            "ticks": 1552,
            "time": 6.0625,
            "velocity": 0.5039370078740157
          },
          {
            "duration": 4.5,
            "durationTicks": 1152,
            "midi": 61,
            "name": "C#4",
            "ticks": 1920,
            "time": 7.5,
            "velocity": 0.5039370078740157
          },
          {
            "duration": 4.5,
            "durationTicks": 1152,
            "midi": 66,
            "name": "F#4",
            "ticks": 1936,
            "time": 7.5625,
            "velocity": 0.5039370078740157
          },
          {
            "duration": 4.5,
            "durationTicks": 1152,
            "midi": 71,
            "name": "B4",
            "ticks": 1950,
            "time": 7.6171875,
            "velocity": 0.5039370078740157
          },
          {
            "duration": 9,
            "durationTicks": 2304,
            "midi": 64,
            "name": "E4",
            "ticks": 3072,
            "time": 12,
            "velocity": 0.5039370078740157
          },
          {
            "duration": 9,
            "durationTicks": 2304,
            "midi": 59,
            "name": "B3",
            "ticks": 3072,
            "time": 12,
            "velocity": 0.5039370078740157
          },
          {
            "duration": 9,
            "durationTicks": 2304,
            "midi": 53,
            "name": "F3",
            "ticks": 3072,
            "time": 12,
            "velocity": 0.5039370078740157
          },
          {
            "duration": 6,
            "durationTicks": 1536,
            "midi": 64,
            "name": "E4",
            "ticks": 5376,
            "time": 21,
            "velocity": 0.5039370078740157
          },
          {
            "duration": 6,
            "durationTicks": 1536,
            "midi": 59,
            "name": "B3",
            "ticks": 5376,
            "time": 21,
            "velocity": 0.5039370078740157
          },
          {
            "duration": 6,
            "durationTicks": 1536,
            "midi": 53,
            "name": "F3",
            "ticks": 5376,
            "time": 21,
            "velocity": 0.5039370078740157
          },
          {
            "duration": 3,
            "durationTicks": 768,
            "midi": 65,
            "name": "F4",
            "ticks": 6912,
            "time": 27,
            "velocity": 0.5039370078740157
          },
          {
            "duration": 3,
            "durationTicks": 768,
            "midi": 60,
            "name": "C4",
            "ticks": 6912,
            "time": 27,
            "velocity": 0.5039370078740157
          },
          {
            "duration": 3,
            "durationTicks": 768,
            "midi": 55,
            "name": "G3",
            "ticks": 6912,
            "time": 27,
            "velocity": 0.5039370078740157
          },
          {
            "duration": 3,
            "durationTicks": 768,
            "midi": 64,
            "name": "E4",
            "ticks": 7680,
            "time": 30,
            "velocity": 0.5039370078740157
          },
          {
            "duration": 3,
            "durationTicks": 768,
            "midi": 59,
            "name": "B3",
            "ticks": 7680,
            "time": 30,
            "velocity": 0.5039370078740157
          },
          {
            "duration": 3,
            "durationTicks": 768,
            "midi": 53,
            "name": "F3",
            "ticks": 7680,
            "time": 30,
            "velocity": 0.5039370078740157
          },
          {
            "duration": 3,
            "durationTicks": 768,
            "midi": 62,
            "name": "D4",
            "ticks": 8448,
            "time": 33,
            "velocity": 0.5039370078740157
          },
          {
            "duration": 3,
            "durationTicks": 768,
            "midi": 57,
            "name": "A3",
            "ticks": 8448,
            "time": 33,
            "velocity": 0.5039370078740157
          },
          {
            "duration": 3,
            "durationTicks": 768,
            "midi": 52,
            "name": "E3",
            "ticks": 8448,
            "time": 33,
            "velocity": 0.5039370078740157
          },
          {
            "duration": 1.5,
            "durationTicks": 384,
            "midi": 60,
            "name": "C4",
            "ticks": 9216,
            "time": 36,
            "velocity": 0.5039370078740157
          },
          {
            "duration": 1.5,
            "durationTicks": 384,
            "midi": 55,
            "name": "G3",
            "ticks": 9216,
            "time": 36,
            "velocity": 0.5039370078740157
          },
          {
            "duration": 1.5,
            "durationTicks": 384,
            "midi": 50,
            "name": "D3",
            "ticks": 9216,
            "time": 36,
            "velocity": 0.5039370078740157
          },
          {
            "duration": 1.5,
            "durationTicks": 384,
            "midi": 62,
            "name": "D4",
            "ticks": 9600,
            "time": 37.5,
            "velocity": 0.5039370078740157
          },
          {
            "duration": 1.5,
            "durationTicks": 384,
            "midi": 57,
            "name": "A3",
            "ticks": 9600,
            "time": 37.5,
            "velocity": 0.5039370078740157
          },
          {
            "duration": 1.5,
            "durationTicks": 384,
            "midi": 52,
            "name": "E3",
            "ticks": 9600,
            "time": 37.5,
            "velocity": 0.5039370078740157
          },
          {
            "duration": 3,
            "durationTicks": 768,
            "midi": 64,
            "name": "E4",
            "ticks": 9984,
            "time": 39,
            "velocity": 0.5039370078740157
          },
          {
            "duration": 3,
            "durationTicks": 768,
            "midi": 59,
            "name": "B3",
            "ticks": 9984,
            "time": 39,
            "velocity": 0.5039370078740157
          },
          {
            "duration": 3,
            "durationTicks": 768,
            "midi": 57,
            "name": "A3",
            "ticks": 9984,
            "time": 39,
            "velocity": 0.5039370078740157
          },
          {
            "duration": 3,
            "durationTicks": 768,
            "midi": 41,
            "name": "F2",
            "ticks": 9984,
            "time": 39,
            "velocity": 0.5039370078740157
          },
          {
            "duration": 0.375,
            "durationTicks": 96,
            "midi": 43,
            "name": "G2",
            "ticks": 10752,
            "time": 42,
            "velocity": 0.5039370078740157
          },
          {
            "duration": 0.375,
            "durationTicks": 96,
            "midi": 53,
            "name": "F3",
            "ticks": 10848,
            "time": 42.375,
            "velocity": 0.5039370078740157
          },
          {
            "duration": 0.375,
            "durationTicks": 96,
            "midi": 55,
            "name": "G3",
            "ticks": 10944,
            "time": 42.75,
            "velocity": 0.5039370078740157
          },
          {
            "duration": 1.875,
            "durationTicks": 480,
            "midi": 62,
            "name": "D4",
            "ticks": 11040,
            "time": 43.125,
            "velocity": 0.5039370078740157
          },
          {
            "duration": 3,
            "durationTicks": 768,
            "midi": 62,
            "name": "D4",
            "ticks": 11520,
            "time": 45,
            "velocity": 0.5039370078740157
          },
          {
            "duration": 3,
            "durationTicks": 768,
            "midi": 57,
            "name": "A3",
            "ticks": 11520,
            "time": 45,
            "velocity": 0.5039370078740157
          },
          {
            "duration": 3,
            "durationTicks": 768,
            "midi": 52,
            "name": "E3",
            "ticks": 11520,
            "time": 45,
            "velocity": 0.5039370078740157
          },
          {
            "duration": 3,
            "durationTicks": 768,
            "midi": 36,
            "name": "C2",
            "ticks": 11520,
            "time": 45,
            "velocity": 0.5039370078740157
          },
          {
            "duration": 0.375,
            "durationTicks": 96,
            "midi": 48,
            "name": "C3",
            "ticks": 12288,
            "time": 48,
            "velocity": 0.5039370078740157
          },
          {
            "duration": 0.375,
            "durationTicks": 96,
            "midi": 57,
            "name": "A3",
            "ticks": 12384,
            "time": 48.375,
            "velocity": 0.5039370078740157
          },
          {
            "duration": 0.375,
            "durationTicks": 96,
            "midi": 62,
            "name": "D4",
            "ticks": 12480,
            "time": 48.75,
            "velocity": 0.5039370078740157
          },
          {
            "duration": 1.875,
            "durationTicks": 480,
            "midi": 67,
            "name": "G4",
            "ticks": 12576,
            "time": 49.125,
            "velocity": 0.5039370078740157
          },
          {
            "duration": 3,
            "durationTicks": 768,
            "midi": 50,
            "name": "D3",
            "ticks": 13056,
            "time": 51,
            "velocity": 0.5039370078740157
          },
          {
            "duration": 3,
            "durationTicks": 768,
            "midi": 57,
            "name": "A3",
            "ticks": 13056,
            "time": 51,
            "velocity": 0.5039370078740157
          },
          {
            "duration": 3,
            "durationTicks": 768,
            "midi": 52,
            "name": "E3",
            "ticks": 13824,
            "time": 54,
            "velocity": 0.5039370078740157
          },
          {
            "duration": 3,
            "durationTicks": 768,
            "midi": 63,
            "name": "D#4",
            "ticks": 14592,
            "time": 57,
            "velocity": 0.5039370078740157
          },
          {
            "duration": 3,
            "durationTicks": 768,
            "midi": 60,
            "name": "C4",
            "ticks": 14592,
            "time": 57,
            "velocity": 0.5039370078740157
          },
          {
            "duration": 3,
            "durationTicks": 768,
            "midi": 53,
            "name": "F3",
            "ticks": 14592,
            "time": 57,
            "velocity": 0.5039370078740157
          },
          {
            "duration": 1.5,
            "durationTicks": 384,
            "midi": 65,
            "name": "F4",
            "ticks": 15360,
            "time": 60,
            "velocity": 0.5039370078740157
          },
          {
            "duration": 1.5,
            "durationTicks": 384,
            "midi": 62,
            "name": "D4",
            "ticks": 15360,
            "time": 60,
            "velocity": 0.5039370078740157
          },
          {
            "duration": 1.5,
            "durationTicks": 384,
            "midi": 60,
            "name": "C4",
            "ticks": 15360,
            "time": 60,
            "velocity": 0.5039370078740157
          },
          {
            "duration": 1.5,
            "durationTicks": 384,
            "midi": 55,
            "name": "G3",
            "ticks": 15360,
            "time": 60,
            "velocity": 0.5039370078740157
          },
          {
            "duration": 1.5,
            "durationTicks": 384,
            "midi": 59,
            "name": "B3",
            "ticks": 15744,
            "time": 61.5,
            "velocity": 0.5039370078740157
          },
          {
            "duration": 1.5,
            "durationTicks": 384,
            "midi": 52,
            "name": "E3",
            "ticks": 15744,
            "time": 61.5,
            "velocity": 0.5039370078740157
          },
          {
            "duration": 0.375,
            "durationTicks": 96,
            "midi": 41,
            "name": "F2",
            "ticks": 16128,
            "time": 63,
            "velocity": 0.5039370078740157
          },
          {
            "duration": 0.375,
            "durationTicks": 96,
            "midi": 48,
            "name": "C3",
            "ticks": 16224,
            "time": 63.375,
            "velocity": 0.5039370078740157
          },
          {
            "duration": 0.375,
            "durationTicks": 96,
            "midi": 50,
            "name": "D3",
            "ticks": 16320,
            "time": 63.75,
            "velocity": 0.5039370078740157
          },
          {
            "duration": 0.375,
            "durationTicks": 96,
            "midi": 57,
            "name": "A3",
            "ticks": 16416,
            "time": 64.125,
            "velocity": 0.5039370078740157
          },
          {
            "duration": 0.375,
            "durationTicks": 96,
            "midi": 40,
            "name": "E2",
            "ticks": 16512,
            "time": 64.5,
            "velocity": 0.5039370078740157
          },
          {
            "duration": 0.375,
            "durationTicks": 96,
            "midi": 50,
            "name": "D3",
            "ticks": 16608,
            "time": 64.875,
            "velocity": 0.5039370078740157
          },
          {
            "duration": 0.375,
            "durationTicks": 96,
            "midi": 52,
            "name": "E3",
            "ticks": 16704,
            "time": 65.25,
            "velocity": 0.5039370078740157
          },
          {
            "duration": 0.375,
            "durationTicks": 96,
            "midi": 56,
            "name": "G#3",
            "ticks": 16800,
            "time": 65.625,
            "velocity": 0.5039370078740157
          },
          {
            "duration": 0.375,
            "durationTicks": 96,
            "midi": 45,
            "name": "A2",
            "ticks": 16896,
            "time": 66,
            "velocity": 0.5039370078740157
          },
          {
            "duration": 0.375,
            "durationTicks": 96,
            "midi": 52,
            "name": "E3",
            "ticks": 16992,
            "time": 66.375,
            "velocity": 0.5039370078740157
          },
          {
            "duration": 0.375,
            "durationTicks": 96,
            "midi": 57,
            "name": "A3",
            "ticks": 17088,
            "time": 66.75,
            "velocity": 0.5039370078740157
          },
          {
            "duration": 0.375,
            "durationTicks": 96,
            "midi": 60,
            "name": "C4",
            "ticks": 17184,
            "time": 67.125,
            "velocity": 0.5039370078740157
          },
          {
            "duration": 0.75,
            "durationTicks": 192,
            "midi": 43,
            "name": "G2",
            "ticks": 17280,
            "time": 67.5,
            "velocity": 0.5039370078740157
          },
          {
            "duration": 0.75,
            "durationTicks": 192,
            "midi": 55,
            "name": "G3",
            "ticks": 17472,
            "time": 68.25,
            "velocity": 0.5039370078740157
          },
          {
            "duration": 0.75,
            "durationTicks": 192,
            "midi": 48,
            "name": "C3",
            "ticks": 17472,
            "time": 68.25,
            "velocity": 0.5039370078740157
          },
          {
            "duration": 0.375,
            "durationTicks": 96,
            "midi": 41,
            "name": "F2",
            "ticks": 17664,
            "time": 69,
            "velocity": 0.5039370078740157
          },
          {
            "duration": 0.375,
            "durationTicks": 96,
            "midi": 48,
            "name": "C3",
            "ticks": 17760,
            "time": 69.375,
            "velocity": 0.5039370078740157
          },
          {
            "duration": 0.375,
            "durationTicks": 96,
            "midi": 53,
            "name": "F3",
            "ticks": 17856,
            "time": 69.75,
            "velocity": 0.5039370078740157
          },
          {
            "duration": 0.375,
            "durationTicks": 96,
            "midi": 57,
            "name": "A3",
            "ticks": 17952,
            "time": 70.125,
            "velocity": 0.5039370078740157
          },
          {
            "duration": 0.375,
            "durationTicks": 96,
            "midi": 40,
            "name": "E2",
            "ticks": 18048,
            "time": 70.5,
            "velocity": 0.5039370078740157
          },
          {
            "duration": 0.375,
            "durationTicks": 96,
            "midi": 47,
            "name": "B2",
            "ticks": 18144,
            "time": 70.875,
            "velocity": 0.5039370078740157
          },
          {
            "duration": 0.375,
            "durationTicks": 96,
            "midi": 52,
            "name": "E3",
            "ticks": 18240,
            "time": 71.25,
            "velocity": 0.5039370078740157
          },
          {
            "duration": 0.375,
            "durationTicks": 96,
            "midi": 56,
            "name": "G#3",
            "ticks": 18336,
            "time": 71.625,
            "velocity": 0.5039370078740157
          },
          {
            "duration": 0.375,
            "durationTicks": 96,
            "midi": 45,
            "name": "A2",
            "ticks": 18432,
            "time": 72,
            "velocity": 0.5039370078740157
          },
          {
            "duration": 0.375,
            "durationTicks": 96,
            "midi": 52,
            "name": "E3",
            "ticks": 18528,
            "time": 72.375,
            "velocity": 0.5039370078740157
          },
          {
            "duration": 0.375,
            "durationTicks": 96,
            "midi": 57,
            "name": "A3",
            "ticks": 18624,
            "time": 72.75,
            "velocity": 0.5039370078740157
          },
          {
            "duration": 0.375,
            "durationTicks": 96,
            "midi": 60,
            "name": "C4",
            "ticks": 18720,
            "time": 73.125,
            "velocity": 0.5039370078740157
          },
          {
            "duration": 0.375,
            "durationTicks": 96,
            "midi": 64,
            "name": "E4",
            "ticks": 18816,
            "time": 73.5,
            "velocity": 0.5039370078740157
          },
          {
            "duration": 0.375,
            "durationTicks": 96,
            "midi": 60,
            "name": "C4",
            "ticks": 18912,
            "time": 73.875,
            "velocity": 0.5039370078740157
          },
          {
            "duration": 0.375,
            "durationTicks": 96,
            "midi": 65,
            "name": "F4",
            "ticks": 19008,
            "time": 74.25,
            "velocity": 0.5039370078740157
          },
          {
            "duration": 0.375,
            "durationTicks": 96,
            "midi": 60,
            "name": "C4",
            "ticks": 19104,
            "time": 74.625,
            "velocity": 0.5039370078740157
          },
          {
            "duration": 0.375,
            "durationTicks": 96,
            "midi": 38,
            "name": "D2",
            "ticks": 19200,
            "time": 75,
            "velocity": 0.5039370078740157
          },
          {
            "duration": 0.375,
            "durationTicks": 96,
            "midi": 45,
            "name": "A2",
            "ticks": 19296,
            "time": 75.375,
            "velocity": 0.5039370078740157
          },
          {
            "duration": 0.375,
            "durationTicks": 96,
            "midi": 50,
            "name": "D3",
            "ticks": 19392,
            "time": 75.75,
            "velocity": 0.5039370078740157
          },
          {
            "duration": 0.375,
            "durationTicks": 96,
            "midi": 54,
            "name": "F#3",
            "ticks": 19488,
            "time": 76.125,
            "velocity": 0.5039370078740157
          },
          {
            "duration": 0.375,
            "durationTicks": 96,
            "midi": 57,
            "name": "A3",
            "ticks": 19584,
            "time": 76.5,
            "velocity": 0.5039370078740157
          },
          {
            "duration": 0.375,
            "durationTicks": 96,
            "midi": 54,
            "name": "F#3",
            "ticks": 19680,
            "time": 76.875,
            "velocity": 0.5039370078740157
          },
          {
            "duration": 0.375,
            "durationTicks": 96,
            "midi": 60,
            "name": "C4",
            "ticks": 19776,
            "time": 77.25,
            "velocity": 0.5039370078740157
          },
          {
            "duration": 0.375,
            "durationTicks": 96,
            "midi": 57,
            "name": "A3",
            "ticks": 19872,
            "time": 77.625,
            "velocity": 0.5039370078740157
          },
          {
            "duration": 3,
            "durationTicks": 768,
            "midi": 53,
            "name": "F3",
            "ticks": 19968,
            "time": 78,
            "velocity": 0.5039370078740157
          },
          {
            "duration": 3,
            "durationTicks": 768,
            "midi": 43,
            "name": "G2",
            "ticks": 19968,
            "time": 78,
            "velocity": 0.5039370078740157
          },
          {
            "duration": 3,
            "durationTicks": 768,
            "midi": 60,
            "name": "C4",
            "ticks": 20736,
            "time": 81,
            "velocity": 0.5039370078740157
          },
          {
            "duration": 3,
            "durationTicks": 768,
            "midi": 57,
            "name": "A3",
            "ticks": 20736,
            "time": 81,
            "velocity": 0.5039370078740157
          },
          {
            "duration": 3,
            "durationTicks": 768,
            "midi": 50,
            "name": "D3",
            "ticks": 20736,
            "time": 81,
            "velocity": 0.5039370078740157
          },
          {
            "duration": 0.375,
            "durationTicks": 96,
            "midi": 43,
            "name": "G2",
            "ticks": 21504,
            "time": 84,
            "velocity": 0.5039370078740157
          },
          {
            "duration": 0.375,
            "durationTicks": 96,
            "midi": 47,
            "name": "B2",
            "ticks": 21600,
            "time": 84.375,
            "velocity": 0.5039370078740157
          },
          {
            "duration": 0.375,
            "durationTicks": 96,
            "midi": 53,
            "name": "F3",
            "ticks": 21696,
            "time": 84.75,
            "velocity": 0.5039370078740157
          },
          {
            "duration": 0.375,
            "durationTicks": 96,
            "midi": 57,
            "name": "A3",
            "ticks": 21792,
            "time": 85.125,
            "velocity": 0.5039370078740157
          },
          {
            "duration": 1.5,
            "durationTicks": 384,
            "midi": 62,
            "name": "D4",
            "ticks": 21888,
            "time": 85.5,
            "velocity": 0.5039370078740157
          },
          {
            "duration": 0.375,
            "durationTicks": 96,
            "midi": 57,
            "name": "A3",
            "ticks": 22272,
            "time": 87,
            "velocity": 0.5039370078740157
          },
          {
            "duration": 0.375,
            "durationTicks": 96,
            "midi": 64,
            "name": "E4",
            "ticks": 22368,
            "time": 87.375,
            "velocity": 0.5039370078740157
          },
          {
            "duration": 0.375,
            "durationTicks": 96,
            "midi": 72,
            "name": "C5",
            "ticks": 22464,
            "time": 87.75,
            "velocity": 0.5039370078740157
          },
          {
            "duration": 0.375,
            "durationTicks": 96,
            "midi": 64,
            "name": "E4",
            "ticks": 22560,
            "time": 88.125,
            "velocity": 0.5039370078740157
          },
          {
            "duration": 0.375,
            "durationTicks": 96,
            "midi": 55,
            "name": "G3",
            "ticks": 22656,
            "time": 88.5,
            "velocity": 0.5039370078740157
          },
          {
            "duration": 0.375,
            "durationTicks": 96,
            "midi": 64,
            "name": "E4",
            "ticks": 22752,
            "time": 88.875,
            "velocity": 0.5039370078740157
          },
          {
            "duration": 0.375,
            "durationTicks": 96,
            "midi": 71,
            "name": "B4",
            "ticks": 22848,
            "time": 89.25,
            "velocity": 0.5039370078740157
          },
          {
            "duration": 0.375,
            "durationTicks": 96,
            "midi": 64,
            "name": "E4",
            "ticks": 22944,
            "time": 89.625,
            "velocity": 0.5039370078740157
          },
          {
            "duration": 0.375,
            "durationTicks": 96,
            "midi": 53,
            "name": "F3",
            "ticks": 23040,
            "time": 90,
            "velocity": 0.5039370078740157
          },
          {
            "duration": 0.375,
            "durationTicks": 96,
            "midi": 60,
            "name": "C4",
            "ticks": 23136,
            "time": 90.375,
            "velocity": 0.5039370078740157
          },
          {
            "duration": 0.375,
            "durationTicks": 96,
            "midi": 69,
            "name": "A4",
            "ticks": 23232,
            "time": 90.75,
            "velocity": 0.5039370078740157
          },
          {
            "duration": 0.375,
            "durationTicks": 96,
            "midi": 60,
            "name": "C4",
            "ticks": 23328,
            "time": 91.125,
            "velocity": 0.5039370078740157
          },
          {
            "duration": 0.375,
            "durationTicks": 96,
            "midi": 52,
            "name": "E3",
            "ticks": 23424,
            "time": 91.5,
            "velocity": 0.5039370078740157
          },
          {
            "duration": 0.375,
            "durationTicks": 96,
            "midi": 60,
            "name": "C4",
            "ticks": 23520,
            "time": 91.875,
            "velocity": 0.5039370078740157
          },
          {
            "duration": 0.75,
            "durationTicks": 192,
            "midi": 67,
            "name": "G4",
            "ticks": 23616,
            "time": 92.25,
            "velocity": 0.5039370078740157
          },
          {
            "duration": 1.5,
            "durationTicks": 384,
            "midi": 60,
            "name": "C4",
            "ticks": 23808,
            "time": 93,
            "velocity": 0.5039370078740157
          },
          {
            "duration": 1.5,
            "durationTicks": 384,
            "midi": 55,
            "name": "G3",
            "ticks": 23808,
            "time": 93,
            "velocity": 0.5039370078740157
          },
          {
            "duration": 1.5,
            "durationTicks": 384,
            "midi": 51,
            "name": "D#3",
            "ticks": 23808,
            "time": 93,
            "velocity": 0.5039370078740157
          },
          {
            "duration": 1.5,
            "durationTicks": 384,
            "midi": 60,
            "name": "C4",
            "ticks": 24192,
            "time": 94.5,
            "velocity": 0.5039370078740157
          },
          {
            "duration": 1.5,
            "durationTicks": 384,
            "midi": 53,
            "name": "F3",
            "ticks": 24192,
            "time": 94.5,
            "velocity": 0.5039370078740157
          },
          {
            "duration": 1.5,
            "durationTicks": 384,
            "midi": 50,
            "name": "D3",
            "ticks": 24192,
            "time": 94.5,
            "velocity": 0.5039370078740157
          },
          {
            "duration": 1.5,
            "durationTicks": 384,
            "midi": 49,
            "name": "C#3",
            "ticks": 24576,
            "time": 96,
            "velocity": 0.5039370078740157
          },
          {
            "duration": 1.5,
            "durationTicks": 384,
            "midi": 53,
            "name": "F3",
            "ticks": 24960,
            "time": 97.5,
            "velocity": 0.5039370078740157
          },
          {
            "duration": 1.5,
            "durationTicks": 384,
            "midi": 43,
            "name": "G2",
            "ticks": 24960,
            "time": 97.5,
            "velocity": 0.5039370078740157
          },
          {
            "duration": 0.375,
            "durationTicks": 96,
            "midi": 45,
            "name": "A2",
            "ticks": 25344,
            "time": 99,
            "velocity": 0.5039370078740157
          },
          {
            "duration": 0.375,
            "durationTicks": 96,
            "midi": 52,
            "name": "E3",
            "ticks": 25440,
            "time": 99.375,
            "velocity": 0.5039370078740157
          },
          {
            "duration": 0.375,
            "durationTicks": 96,
            "midi": 60,
            "name": "C4",
            "ticks": 25536,
            "time": 99.75,
            "velocity": 0.5039370078740157
          },
          {
            "duration": 0.375,
            "durationTicks": 96,
            "midi": 52,
            "name": "E3",
            "ticks": 25632,
            "time": 100.125,
            "velocity": 0.5039370078740157
          },
          {
            "duration": 0.375,
            "durationTicks": 96,
            "midi": 43,
            "name": "G2",
            "ticks": 25728,
            "time": 100.5,
            "velocity": 0.5039370078740157
          },
          {
            "duration": 0.375,
            "durationTicks": 96,
            "midi": 52,
            "name": "E3",
            "ticks": 25824,
            "time": 100.875,
            "velocity": 0.5039370078740157
          },
          {
            "duration": 0.375,
            "durationTicks": 96,
            "midi": 57,
            "name": "A3",
            "ticks": 25920,
            "time": 101.25,
            "velocity": 0.5039370078740157
          },
          {
            "duration": 0.375,
            "durationTicks": 96,
            "midi": 52,
            "name": "E3",
            "ticks": 26016,
            "time": 101.625,
            "velocity": 0.5039370078740157
          },
          {
            "duration": 0.375,
            "durationTicks": 96,
            "midi": 41,
            "name": "F2",
            "ticks": 26112,
            "time": 102,
            "velocity": 0.5039370078740157
          },
          {
            "duration": 0.375,
            "durationTicks": 96,
            "midi": 48,
            "name": "C3",
            "ticks": 26208,
            "time": 102.375,
            "velocity": 0.5039370078740157
          },
          {
            "duration": 0.375,
            "durationTicks": 96,
            "midi": 57,
            "name": "A3",
            "ticks": 26304,
            "time": 102.75,
            "velocity": 0.5039370078740157
          },
          {
            "duration": 0.375,
            "durationTicks": 96,
            "midi": 48,
            "name": "C3",
            "ticks": 26400,
            "time": 103.125,
            "velocity": 0.5039370078740157
          },
          {
            "duration": 0.375,
            "durationTicks": 96,
            "midi": 40,
            "name": "E2",
            "ticks": 26496,
            "time": 103.5,
            "velocity": 0.5039370078740157
          },
          {
            "duration": 0.375,
            "durationTicks": 96,
            "midi": 48,
            "name": "C3",
            "ticks": 26592,
            "time": 103.875,
            "velocity": 0.5039370078740157
          },
          {
            "duration": 0.375,
            "durationTicks": 96,
            "midi": 55,
            "name": "G3",
            "ticks": 26688,
            "time": 104.25,
            "velocity": 0.5039370078740157
          },
          {
            "duration": 0.375,
            "durationTicks": 96,
            "midi": 48,
            "name": "C3",
            "ticks": 26784,
            "time": 104.625,
            "velocity": 0.5039370078740157
          },
          {
            "duration": 0.375,
            "durationTicks": 96,
            "midi": 51,
            "name": "D#3",
            "ticks": 26880,
            "time": 105,
            "velocity": 0.5039370078740157
          },
          {
            "duration": 0.375,
            "durationTicks": 96,
            "midi": 55,
            "name": "G3",
            "ticks": 26976,
            "time": 105.375,
            "velocity": 0.5039370078740157
          },
          {
            "duration": 0.375,
            "durationTicks": 96,
            "midi": 60,
            "name": "C4",
            "ticks": 27072,
            "time": 105.75,
            "velocity": 0.5039370078740157
          },
          {
            "duration": 0.375,
            "durationTicks": 96,
            "midi": 55,
            "name": "G3",
            "ticks": 27168,
            "time": 106.125,
            "velocity": 0.5039370078740157
          },
          {
            "duration": 0.375,
            "durationTicks": 96,
            "midi": 50,
            "name": "D3",
            "ticks": 27264,
            "time": 106.5,
            "velocity": 0.5039370078740157
          },
          {
            "duration": 0.375,
            "durationTicks": 96,
            "midi": 53,
            "name": "F3",
            "ticks": 27360,
            "time": 106.875,
            "velocity": 0.5039370078740157
          },
          {
            "duration": 0.375,
            "durationTicks": 96,
            "midi": 60,
            "name": "C4",
            "ticks": 27456,
            "time": 107.25,
            "velocity": 0.5039370078740157
          },
          {
            "duration": 0.375,
            "durationTicks": 96,
            "midi": 53,
            "name": "F3",
            "ticks": 27552,
            "time": 107.625,
            "velocity": 0.5039370078740157
          },
          {
            "duration": 0.375,
            "durationTicks": 96,
            "midi": 49,
            "name": "C#3",
            "ticks": 27648,
            "time": 108,
            "velocity": 0.5039370078740157
          },
          {
            "duration": 0.375,
            "durationTicks": 96,
            "midi": 53,
            "name": "F3",
            "ticks": 27744,
            "time": 108.375,
            "velocity": 0.5039370078740157
          },
          {
            "duration": 0.375,
            "durationTicks": 96,
            "midi": 58,
            "name": "A#3",
            "ticks": 27840,
            "time": 108.75,
            "velocity": 0.5039370078740157
          },
          {
            "duration": 0.375,
            "durationTicks": 96,
            "midi": 53,
            "name": "F3",
            "ticks": 27936,
            "time": 109.125,
            "velocity": 0.5039370078740157
          },
          {
            "duration": 0.375,
            "durationTicks": 96,
            "midi": 48,
            "name": "C3",
            "ticks": 28032,
            "time": 109.5,
            "velocity": 0.5039370078740157
          },
          {
            "duration": 0.375,
            "durationTicks": 96,
            "midi": 52,
            "name": "E3",
            "ticks": 28128,
            "time": 109.875,
            "velocity": 0.5039370078740157
          },
          {
            "duration": 0.375,
            "durationTicks": 96,
            "midi": 58,
            "name": "A#3",
            "ticks": 28224,
            "time": 110.25,
            "velocity": 0.5039370078740157
          },
          {
            "duration": 0.375,
            "durationTicks": 96,
            "midi": 52,
            "name": "E3",
            "ticks": 28320,
            "time": 110.625,
            "velocity": 0.5039370078740157
          },
          {
            "duration": 0.375,
            "durationTicks": 96,
            "midi": 41,
            "name": "F2",
            "ticks": 28416,
            "time": 111,
            "velocity": 0.5039370078740157
          },
          {
            "duration": 0.375,
            "durationTicks": 96,
            "midi": 48,
            "name": "C3",
            "ticks": 28512,
            "time": 111.375,
            "velocity": 0.5039370078740157
          },
          {
            "duration": 0.375,
            "durationTicks": 96,
            "midi": 56,
            "name": "G#3",
            "ticks": 28608,
            "time": 111.75,
            "velocity": 0.5039370078740157
          },
          {
            "duration": 0.375,
            "durationTicks": 96,
            "midi": 48,
            "name": "C3",
            "ticks": 28704,
            "time": 112.125,
            "velocity": 0.5039370078740157
          },
          {
            "duration": 0.375,
            "durationTicks": 96,
            "midi": 39,
            "name": "D#2",
            "ticks": 28800,
            "time": 112.5,
            "velocity": 0.5039370078740157
          },
          {
            "duration": 0.375,
            "durationTicks": 96,
            "midi": 48,
            "name": "C3",
            "ticks": 28896,
            "time": 112.875,
            "velocity": 0.5039370078740157
          },
          {
            "duration": 0.375,
            "durationTicks": 96,
            "midi": 56,
            "name": "G#3",
            "ticks": 28992,
            "time": 113.25,
            "velocity": 0.5039370078740157
          },
          {
            "duration": 0.375,
            "durationTicks": 96,
            "midi": 48,
            "name": "C3",
            "ticks": 29088,
            "time": 113.625,
            "velocity": 0.5039370078740157
          },
          {
            "duration": 0.375,
            "durationTicks": 96,
            "midi": 38,
            "name": "D2",
            "ticks": 29184,
            "time": 114,
            "velocity": 0.5039370078740157
          },
          {
            "duration": 0.375,
            "durationTicks": 96,
            "midi": 50,
            "name": "D3",
            "ticks": 29280,
            "time": 114.375,
            "velocity": 0.5039370078740157
          },
          {
            "duration": 0.375,
            "durationTicks": 96,
            "midi": 53,
            "name": "F3",
            "ticks": 29376,
            "time": 114.75,
            "velocity": 0.5039370078740157
          },
          {
            "duration": 0.375,
            "durationTicks": 96,
            "midi": 56,
            "name": "G#3",
            "ticks": 29472,
            "time": 115.125,
            "velocity": 0.5039370078740157
          },
          {
            "duration": 0.375,
            "durationTicks": 96,
            "midi": 60,
            "name": "C4",
            "ticks": 29568,
            "time": 115.5,
            "velocity": 0.5039370078740157
          },
          {
            "duration": 0.375,
            "durationTicks": 96,
            "midi": 56,
            "name": "G#3",
            "ticks": 29664,
            "time": 115.875,
            "velocity": 0.5039370078740157
          },
          {
            "duration": 0.375,
            "durationTicks": 96,
            "midi": 53,
            "name": "F3",
            "ticks": 29760,
            "time": 116.25,
            "velocity": 0.5039370078740157
          },
          {
            "duration": 0.375,
            "durationTicks": 96,
            "midi": 56,
            "name": "G#3",
            "ticks": 29856,
            "time": 116.625,
            "velocity": 0.5039370078740157
          },
          {
            "duration": 0.375,
            "durationTicks": 96,
            "midi": 43,
            "name": "G2",
            "ticks": 29952,
            "time": 117,
            "velocity": 0.5039370078740157
          },
          {
            "duration": 0.375,
            "durationTicks": 96,
            "midi": 50,
            "name": "D3",
            "ticks": 30048,
            "time": 117.375,
            "velocity": 0.5039370078740157
          },
          {
            "duration": 0.375,
            "durationTicks": 96,
            "midi": 55,
            "name": "G3",
            "ticks": 30144,
            "time": 117.75,
            "velocity": 0.5039370078740157
          },
          {
            "duration": 0.375,
            "durationTicks": 96,
            "midi": 59,
            "name": "B3",
            "ticks": 30240,
            "time": 118.125,
            "velocity": 0.5039370078740157
          },
          {
            "duration": 1.5,
            "durationTicks": 384,
            "midi": 62,
            "name": "D4",
            "ticks": 30336,
            "time": 118.5,
            "velocity": 0.5039370078740157
          },
          {
            "duration": 3,
            "durationTicks": 768,
            "midi": 64,
            "name": "E4",
            "ticks": 30720,
            "time": 120,
            "velocity": 0.5039370078740157
          },
          {
            "duration": 3,
            "durationTicks": 768,
            "midi": 59,
            "name": "B3",
            "ticks": 30720,
            "time": 120,
            "velocity": 0.5039370078740157
          },
          {
            "duration": 3,
            "durationTicks": 768,
            "midi": 57,
            "name": "A3",
            "ticks": 30720,
            "time": 120,
            "velocity": 0.5039370078740157
          },
          {
            "duration": 3,
            "durationTicks": 768,
            "midi": 53,
            "name": "F3",
            "ticks": 30720,
            "time": 120,
            "velocity": 0.5039370078740157
          },
          {
            "duration": 3,
            "durationTicks": 768,
            "midi": 65,
            "name": "F4",
            "ticks": 31488,
            "time": 123,
            "velocity": 0.5039370078740157
          },
          {
            "duration": 3,
            "durationTicks": 768,
            "midi": 69,
            "name": "A4",
            "ticks": 31504,
            "time": 123.0625,
            "velocity": 0.5039370078740157
          },
          {
            "duration": 3,
            "durationTicks": 768,
            "midi": 71,
            "name": "B4",
            "ticks": 31518,
            "time": 123.1171875,
            "velocity": 0.5039370078740157
          },
          {
            "duration": 0.1875,
            "durationTicks": 48,
            "midi": 64,
            "name": "E4",
            "ticks": 32640,
            "time": 127.5,
            "velocity": 0.5039370078740157
          },
          {
            "duration": 0.1875,
            "durationTicks": 48,
            "midi": 67,
            "name": "G4",
            "ticks": 32688,
            "time": 127.6875,
            "velocity": 0.5039370078740157
          },
          {
            "duration": 0.1875,
            "durationTicks": 48,
            "midi": 69,
            "name": "A4",
            "ticks": 32736,
            "time": 127.875,
            "velocity": 0.5039370078740157
          },
          {
            "duration": 0.1875,
            "durationTicks": 48,
            "midi": 74,
            "name": "D5",
            "ticks": 32784,
            "time": 128.0625,
            "velocity": 0.5039370078740157
          },
          {
            "duration": 0.1875,
            "durationTicks": 48,
            "midi": 64,
            "name": "E4",
            "ticks": 32832,
            "time": 128.25,
            "velocity": 0.5039370078740157
          },
          {
            "duration": 0.1875,
            "durationTicks": 48,
            "midi": 67,
            "name": "G4",
            "ticks": 32880,
            "time": 128.4375,
            "velocity": 0.5039370078740157
          },
          {
            "duration": 0.1875,
            "durationTicks": 48,
            "midi": 69,
            "name": "A4",
            "ticks": 32928,
            "time": 128.625,
            "velocity": 0.5039370078740157
          },
          {
            "duration": 0.1875,
            "durationTicks": 48,
            "midi": 74,
            "name": "D5",
            "ticks": 32976,
            "time": 128.8125,
            "velocity": 0.5039370078740157
          },
          {
            "duration": 0.1875,
            "durationTicks": 48,
            "midi": 64,
            "name": "E4",
            "ticks": 33024,
            "time": 129,
            "velocity": 0.5039370078740157
          },
          {
            "duration": 0.1875,
            "durationTicks": 48,
            "midi": 67,
            "name": "G4",
            "ticks": 33072,
            "time": 129.1875,
            "velocity": 0.5039370078740157
          },
          {
            "duration": 0.1875,
            "durationTicks": 48,
            "midi": 69,
            "name": "A4",
            "ticks": 33120,
            "time": 129.375,
            "velocity": 0.5039370078740157
          },
          {
            "duration": 0.1875,
            "durationTicks": 48,
            "midi": 74,
            "name": "D5",
            "ticks": 33168,
            "time": 129.5625,
            "velocity": 0.5039370078740157
          },
          {
            "duration": 0.1875,
            "durationTicks": 48,
            "midi": 64,
            "name": "E4",
            "ticks": 33216,
            "time": 129.75,
            "velocity": 0.5039370078740157
          },
          {
            "duration": 0.1875,
            "durationTicks": 48,
            "midi": 67,
            "name": "G4",
            "ticks": 33264,
            "time": 129.9375,
            "velocity": 0.5039370078740157
          },
          {
            "duration": 0.1875,
            "durationTicks": 48,
            "midi": 69,
            "name": "A4",
            "ticks": 33312,
            "time": 130.125,
            "velocity": 0.5039370078740157
          },
          {
            "duration": 0.1875,
            "durationTicks": 48,
            "midi": 74,
            "name": "D5",
            "ticks": 33360,
            "time": 130.3125,
            "velocity": 0.5039370078740157
          },
          {
            "duration": 0.1875,
            "durationTicks": 48,
            "midi": 66,
            "name": "F#4",
            "ticks": 33408,
            "time": 130.5,
            "velocity": 0.5039370078740157
          },
          {
            "duration": 0.1875,
            "durationTicks": 48,
            "midi": 69,
            "name": "A4",
            "ticks": 33456,
            "time": 130.6875,
            "velocity": 0.5039370078740157
          },
          {
            "duration": 0.1875,
            "durationTicks": 48,
            "midi": 71,
            "name": "B4",
            "ticks": 33504,
            "time": 130.875,
            "velocity": 0.5039370078740157
          },
          {
            "duration": 0.1875,
            "durationTicks": 48,
            "midi": 76,
            "name": "E5",
            "ticks": 33552,
            "time": 131.0625,
            "velocity": 0.5039370078740157
          },
          {
            "duration": 0.1875,
            "durationTicks": 48,
            "midi": 66,
            "name": "F#4",
            "ticks": 33600,
            "time": 131.25,
            "velocity": 0.5039370078740157
          },
          {
            "duration": 0.1875,
            "durationTicks": 48,
            "midi": 69,
            "name": "A4",
            "ticks": 33648,
            "time": 131.4375,
            "velocity": 0.5039370078740157
          },
          {
            "duration": 0.1875,
            "durationTicks": 48,
            "midi": 71,
            "name": "B4",
            "ticks": 33696,
            "time": 131.625,
            "velocity": 0.5039370078740157
          },
          {
            "duration": 0.1875,
            "durationTicks": 48,
            "midi": 76,
            "name": "E5",
            "ticks": 33744,
            "time": 131.8125,
            "velocity": 0.5039370078740157
          },
          {
            "duration": 0.1875,
            "durationTicks": 48,
            "midi": 66,
            "name": "F#4",
            "ticks": 33792,
            "time": 132,
            "velocity": 0.5039370078740157
          },
          {
            "duration": 0.1875,
            "durationTicks": 48,
            "midi": 69,
            "name": "A4",
            "ticks": 33840,
            "time": 132.1875,
            "velocity": 0.5039370078740157
          },
          {
            "duration": 0.1875,
            "durationTicks": 48,
            "midi": 71,
            "name": "B4",
            "ticks": 33888,
            "time": 132.375,
            "velocity": 0.5039370078740157
          },
          {
            "duration": 0.1875,
            "durationTicks": 48,
            "midi": 76,
            "name": "E5",
            "ticks": 33936,
            "time": 132.5625,
            "velocity": 0.5039370078740157
          },
          {
            "duration": 0.1875,
            "durationTicks": 48,
            "midi": 66,
            "name": "F#4",
            "ticks": 33984,
            "time": 132.75,
            "velocity": 0.5039370078740157
          },
          {
            "duration": 0.1875,
            "durationTicks": 48,
            "midi": 69,
            "name": "A4",
            "ticks": 34032,
            "time": 132.9375,
            "velocity": 0.5039370078740157
          },
          {
            "duration": 0.1875,
            "durationTicks": 48,
            "midi": 71,
            "name": "B4",
            "ticks": 34080,
            "time": 133.125,
            "velocity": 0.5039370078740157
          },
          {
            "duration": 0.1875,
            "durationTicks": 48,
            "midi": 76,
            "name": "E5",
            "ticks": 34128,
            "time": 133.3125,
            "velocity": 0.5039370078740157
          },
          {
            "duration": 0.1875,
            "durationTicks": 48,
            "midi": 66,
            "name": "F#4",
            "ticks": 34176,
            "time": 133.5,
            "velocity": 0.5039370078740157
          },
          {
            "duration": 0.1875,
            "durationTicks": 48,
            "midi": 69,
            "name": "A4",
            "ticks": 34224,
            "time": 133.6875,
            "velocity": 0.5039370078740157
          },
          {
            "duration": 0.1875,
            "durationTicks": 48,
            "midi": 71,
            "name": "B4",
            "ticks": 34272,
            "time": 133.875,
            "velocity": 0.5039370078740157
          },
          {
            "duration": 0.1875,
            "durationTicks": 48,
            "midi": 76,
            "name": "E5",
            "ticks": 34320,
            "time": 134.0625,
            "velocity": 0.5039370078740157
          },
          {
            "duration": 0.1875,
            "durationTicks": 48,
            "midi": 62,
            "name": "D4",
            "ticks": 34368,
            "time": 134.25,
            "velocity": 0.5039370078740157
          },
          {
            "duration": 0.1875,
            "durationTicks": 48,
            "midi": 65,
            "name": "F4",
            "ticks": 34416,
            "time": 134.4375,
            "velocity": 0.5039370078740157
          },
          {
            "duration": 0.1875,
            "durationTicks": 48,
            "midi": 67,
            "name": "G4",
            "ticks": 34464,
            "time": 134.625,
            "velocity": 0.5039370078740157
          },
          {
            "duration": 0.1875,
            "durationTicks": 48,
            "midi": 72,
            "name": "C5",
            "ticks": 34512,
            "time": 134.8125,
            "velocity": 0.5039370078740157
          },
          {
            "duration": 0.1875,
            "durationTicks": 48,
            "midi": 62,
            "name": "D4",
            "ticks": 34560,
            "time": 135,
            "velocity": 0.5039370078740157
          },
          {
            "duration": 0.1875,
            "durationTicks": 48,
            "midi": 65,
            "name": "F4",
            "ticks": 34608,
            "time": 135.1875,
            "velocity": 0.5039370078740157
          },
          {
            "duration": 0.1875,
            "durationTicks": 48,
            "midi": 67,
            "name": "G4",
            "ticks": 34656,
            "time": 135.375,
            "velocity": 0.5039370078740157
          },
          {
            "duration": 0.1875,
            "durationTicks": 48,
            "midi": 72,
            "name": "C5",
            "ticks": 34704,
            "time": 135.5625,
            "velocity": 0.5039370078740157
          },
          {
            "duration": 0.1875,
            "durationTicks": 48,
            "midi": 62,
            "name": "D4",
            "ticks": 34752,
            "time": 135.75,
            "velocity": 0.5039370078740157
          },
          {
            "duration": 0.1875,
            "durationTicks": 48,
            "midi": 65,
            "name": "F4",
            "ticks": 34800,
            "time": 135.9375,
            "velocity": 0.5039370078740157
          },
          {
            "duration": 0.1875,
            "durationTicks": 48,
            "midi": 67,
            "name": "G4",
            "ticks": 34848,
            "time": 136.125,
            "velocity": 0.5039370078740157
          },
          {
            "duration": 0.1875,
            "durationTicks": 48,
            "midi": 72,
            "name": "C5",
            "ticks": 34896,
            "time": 136.3125,
            "velocity": 0.5039370078740157
          },
          {
            "duration": 0.18802083333332575,
            "durationTicks": 48,
            "midi": 64,
            "name": "E4",
            "ticks": 34940,
            "time": 136.484375,
            "velocity": 0.5039370078740157
          },
          {
            "duration": 0.19947916666666288,
            "durationTicks": 48,
            "midi": 67,
            "name": "G4",
            "ticks": 34984,
            "time": 136.65625,
            "velocity": 0.5039370078740157
          },
          {
            "duration": 0.20000000000001705,
            "durationTicks": 48,
            "midi": 69,
            "name": "A4",
            "ticks": 35032,
            "time": 136.85572916666666,
            "velocity": 0.5039370078740157
          },
          {
            "duration": 0.19999999999998863,
            "durationTicks": 48,
            "midi": 74,
            "name": "D5",
            "ticks": 35080,
            "time": 137.05572916666668,
            "velocity": 0.5039370078740157
          },
          {
            "duration": 0.19999999999998863,
            "durationTicks": 48,
            "midi": 64,
            "name": "E4",
            "ticks": 35126,
            "time": 137.24739583333334,
            "velocity": 0.5039370078740157
          },
          {
            "duration": 0.2041666041666872,
            "durationTicks": 48,
            "midi": 67,
            "name": "G4",
            "ticks": 35172,
            "time": 137.4390625,
            "velocity": 0.5039370078740157
          },
          {
            "duration": 0.21428549999998836,
            "durationTicks": 48,
            "midi": 69,
            "name": "A4",
            "ticks": 35216,
            "time": 137.6253719791667,
            "velocity": 0.5039370078740157
          },
          {
            "duration": 0.21428550000001678,
            "durationTicks": 48,
            "midi": 74,
            "name": "D5",
            "ticks": 35264,
            "time": 137.83965747916668,
            "velocity": 0.5039370078740157
          },
          {
            "duration": 0.21428549999998836,
            "durationTicks": 48,
            "midi": 64,
            "name": "E4",
            "ticks": 35312,
            "time": 138.0539429791667,
            "velocity": 0.5039370078740157
          },
          {
            "duration": 0.21428550000001678,
            "durationTicks": 48,
            "midi": 67,
            "name": "G4",
            "ticks": 35360,
            "time": 138.26822847916668,
            "velocity": 0.5039370078740157
          },
          {
            "duration": 0.21428550000001678,
            "durationTicks": 48,
            "midi": 69,
            "name": "A4",
            "ticks": 35406,
            "time": 138.47358541666668,
            "velocity": 0.5039370078740157
          },
          {
            "duration": 0.22252724999998463,
            "durationTicks": 48,
            "midi": 74,
            "name": "D5",
            "ticks": 35450,
            "time": 138.6700137916667,
            "velocity": 0.5039370078740157
          },
          {
            "duration": 0.23076900000000933,
            "durationTicks": 48,
            "midi": 64,
            "name": "E4",
            "ticks": 35496,
            "time": 138.88292566666667,
            "velocity": 0.5039370078740157
          },
          {
            "duration": 0.23076900000000933,
            "durationTicks": 48,
            "midi": 67,
            "name": "G4",
            "ticks": 35544,
            "time": 139.11369466666667,
            "velocity": 0.5039370078740157
          },
          {
            "duration": 0.2307689999999809,
            "durationTicks": 48,
            "midi": 69,
            "name": "A4",
            "ticks": 35592,
            "time": 139.34446366666668,
            "velocity": 0.5039370078740157
          },
          {
            "duration": 0.23076900000000933,
            "durationTicks": 48,
            "midi": 74,
            "name": "D5",
            "ticks": 35640,
            "time": 139.57523266666666,
            "velocity": 0.5039370078740157
          },
          {
            "duration": 3.692304000000007,
            "durationTicks": 768,
            "midi": 53,
            "name": "F3",
            "ticks": 35688,
            "time": 139.80600166666667,
            "velocity": 0.5039370078740157
          },
          {
            "duration": 3.692304000000007,
            "durationTicks": 768,
            "midi": 41,
            "name": "F2",
            "ticks": 35688,
            "time": 139.80600166666667,
            "velocity": 0.5039370078740157
          },
          {
            "duration": 3.6923039999999787,
            "durationTicks": 768,
            "midi": 52,
            "name": "E3",
            "ticks": 36456,
            "time": 143.49830566666668,
            "velocity": 0.5039370078740157
          },
          {
            "duration": 3.6923039999999787,
            "durationTicks": 768,
            "midi": 40,
            "name": "E2",
            "ticks": 36456,
            "time": 143.49830566666668,
            "velocity": 0.5039370078740157
          },
          {
            "duration": 0.9230760000000089,
            "durationTicks": 192,
            "midi": 39,
            "name": "D#2",
            "ticks": 37224,
            "time": 147.19060966666666,
            "velocity": 0.5039370078740157
          },
          {
            "duration": 1.8461519999999894,
            "durationTicks": 384,
            "midi": 56,
            "name": "G#3",
            "ticks": 37416,
            "time": 148.11368566666667,
            "velocity": 0.5039370078740157
          },
          {
            "duration": 1.8461519999999894,
            "durationTicks": 384,
            "midi": 51,
            "name": "D#3",
            "ticks": 37416,
            "time": 148.11368566666667,
            "velocity": 0.5039370078740157
          },
          {
            "duration": 1.8461519999999894,
            "durationTicks": 384,
            "midi": 39,
            "name": "D#2",
            "ticks": 37416,
            "time": 148.11368566666667,
            "velocity": 0.5039370078740157
          },
          {
            "duration": 0.9230760000000089,
            "durationTicks": 192,
            "midi": 56,
            "name": "G#3",
            "ticks": 37800,
            "time": 149.95983766666666,
            "velocity": 0.5039370078740157
          },
          {
            "duration": 0.9230760000000089,
            "durationTicks": 192,
            "midi": 51,
            "name": "D#3",
            "ticks": 37800,
            "time": 149.95983766666666,
            "velocity": 0.5039370078740157
          },
          {
            "duration": 0.9230760000000089,
            "durationTicks": 192,
            "midi": 39,
            "name": "D#2",
            "ticks": 37800,
            "time": 149.95983766666666,
            "velocity": 0.5039370078740157
          },
          {
            "duration": 3.6724723750000123,
            "durationTicks": 768,
            "midi": 45,
            "name": "A2",
            "ticks": 37992,
            "time": 150.88291366666667,
            "velocity": 0.5039370078740157
          },
          {
            "duration": 3.6724723750000123,
            "durationTicks": 768,
            "midi": 33,
            "name": "A1",
            "ticks": 37992,
            "time": 150.88291366666667,
            "velocity": 0.5039370078740157
          },
          {
            "duration": 3,
            "durationTicks": 768,
            "midi": 53,
            "name": "F3",
            "ticks": 38784,
            "time": 154.64913604166668,
            "velocity": 0.5039370078740157
          },
          {
            "duration": 3,
            "durationTicks": 768,
            "midi": 57,
            "name": "A3",
            "ticks": 38800,
            "time": 154.71163604166668,
            "velocity": 0.5039370078740157
          },
          {
            "duration": 3,
            "durationTicks": 768,
            "midi": 59,
            "name": "B3",
            "ticks": 38814,
            "time": 154.76632354166668,
            "velocity": 0.5039370078740157
          },
          {
            "duration": 3,
            "durationTicks": 768,
            "midi": 64,
            "name": "E4",
            "ticks": 38830,
            "time": 154.82882354166668,
            "velocity": 0.5039370078740157
          },
          {
            "duration": 3,
            "durationTicks": 768,
            "midi": 52,
            "name": "E3",
            "ticks": 39552,
            "time": 157.64913604166668,
            "velocity": 0.5039370078740157
          },
          {
            "duration": 3,
            "durationTicks": 768,
            "midi": 55,
            "name": "G3",
            "ticks": 39568,
            "time": 157.71163604166668,
            "velocity": 0.5039370078740157
          },
          {
            "duration": 3,
            "durationTicks": 768,
            "midi": 60,
            "name": "C4",
            "ticks": 39582,
            "time": 157.76632354166668,
            "velocity": 0.5039370078740157
          },
          {
            "duration": 3,
            "durationTicks": 768,
            "midi": 62,
            "name": "D4",
            "ticks": 39598,
            "time": 157.82882354166668,
            "velocity": 0.5039370078740157
          },
          {
            "duration": 0.375,
            "durationTicks": 96,
            "midi": 50,
            "name": "D3",
            "ticks": 40320,
            "time": 160.64913604166668,
            "velocity": 0.5039370078740157
          },
          {
            "duration": 0.375,
            "durationTicks": 96,
            "midi": 57,
            "name": "A3",
            "ticks": 40416,
            "time": 161.02413604166668,
            "velocity": 0.5039370078740157
          },
          {
            "duration": 0.375,
            "durationTicks": 96,
            "midi": 64,
            "name": "E4",
            "ticks": 40512,
            "time": 161.39913604166668,
            "velocity": 0.5039370078740157
          },
          {
            "duration": 1.875,
            "durationTicks": 480,
            "midi": 65,
            "name": "F4",
            "ticks": 40608,
            "time": 161.77413604166668,
            "velocity": 0.5039370078740157
          },
          {
            "duration": 0.375,
            "durationTicks": 96,
            "midi": 47,
            "name": "B2",
            "ticks": 41088,
            "time": 163.64913604166668,
            "velocity": 0.5039370078740157
          },
          {
            "duration": 0.375,
            "durationTicks": 96,
            "midi": 54,
            "name": "F#3",
            "ticks": 41184,
            "time": 164.02413604166668,
            "velocity": 0.5039370078740157
          },
          {
            "duration": 0.375,
            "durationTicks": 96,
            "midi": 57,
            "name": "A3",
            "ticks": 41280,
            "time": 164.39913604166668,
            "velocity": 0.5039370078740157
          },
          {
            "duration": 0.375,
            "durationTicks": 96,
            "midi": 59,
            "name": "B3",
            "ticks": 41376,
            "time": 164.77413604166668,
            "velocity": 0.5039370078740157
          },
          {
            "duration": 1.5,
            "durationTicks": 384,
            "midi": 52,
            "name": "E3",
            "ticks": 41472,
            "time": 165.14913604166668,
            "velocity": 0.5039370078740157
          },
          {
            "duration": 0.375,
            "durationTicks": 96,
            "midi": 57,
            "name": "A3",
            "ticks": 41856,
            "time": 166.64913604166668,
            "velocity": 0.5039370078740157
          },
          {
            "duration": 0.375,
            "durationTicks": 96,
            "midi": 64,
            "name": "E4",
            "ticks": 41952,
            "time": 167.02413604166668,
            "velocity": 0.5039370078740157
          },
          {
            "duration": 0.375,
            "durationTicks": 96,
            "midi": 69,
            "name": "A4",
            "ticks": 42048,
            "time": 167.39913604166668,
            "velocity": 0.5039370078740157
          },
          {
            "duration": 0.375,
            "durationTicks": 96,
            "midi": 64,
            "name": "E4",
            "ticks": 42144,
            "time": 167.77413604166668,
            "velocity": 0.5039370078740157
          },
          {
            "duration": 0.375,
            "durationTicks": 96,
            "midi": 55,
            "name": "G3",
            "ticks": 42240,
            "time": 168.14913604166668,
            "velocity": 0.5039370078740157
          },
          {
            "duration": 0.375,
            "durationTicks": 96,
            "midi": 64,
            "name": "E4",
            "ticks": 42336,
            "time": 168.52413604166668,
            "velocity": 0.5039370078740157
          },
          {
            "duration": 0.375,
            "durationTicks": 96,
            "midi": 67,
            "name": "G4",
            "ticks": 42432,
            "time": 168.89913604166668,
            "velocity": 0.5039370078740157
          },
          {
            "duration": 0.375,
            "durationTicks": 96,
            "midi": 64,
            "name": "E4",
            "ticks": 42528,
            "time": 169.27413604166668,
            "velocity": 0.5039370078740157
          },
          {
            "duration": 0.375,
            "durationTicks": 96,
            "midi": 53,
            "name": "F3",
            "ticks": 42624,
            "time": 169.64913604166668,
            "velocity": 0.5039370078740157
          },
          {
            "duration": 0.375,
            "durationTicks": 96,
            "midi": 60,
            "name": "C4",
            "ticks": 42720,
            "time": 170.02413604166668,
            "velocity": 0.5039370078740157
          },
          {
            "duration": 0.375,
            "durationTicks": 96,
            "midi": 65,
            "name": "F4",
            "ticks": 42816,
            "time": 170.39913604166668,
            "velocity": 0.5039370078740157
          },
          {
            "duration": 0.375,
            "durationTicks": 96,
            "midi": 60,
            "name": "C4",
            "ticks": 42912,
            "time": 170.77413604166668,
            "velocity": 0.5039370078740157
          },
          {
            "duration": 0.375,
            "durationTicks": 96,
            "midi": 52,
            "name": "E3",
            "ticks": 43008,
            "time": 171.14913604166668,
            "velocity": 0.5039370078740157
          },
          {
            "duration": 0.375,
            "durationTicks": 96,
            "midi": 60,
            "name": "C4",
            "ticks": 43104,
            "time": 171.52413604166668,
            "velocity": 0.5039370078740157
          },
          {
            "duration": 0.75,
            "durationTicks": 192,
            "midi": 64,
            "name": "E4",
            "ticks": 43200,
            "time": 171.89913604166668,
            "velocity": 0.5039370078740157
          },
          {
            "duration": 1.5,
            "durationTicks": 384,
            "midi": 60,
            "name": "C4",
            "ticks": 43392,
            "time": 172.64913604166668,
            "velocity": 0.5039370078740157
          },
          {
            "duration": 1.5,
            "durationTicks": 384,
            "midi": 58,
            "name": "A#3",
            "ticks": 43392,
            "time": 172.64913604166668,
            "velocity": 0.5039370078740157
          },
          {
            "duration": 1.5,
            "durationTicks": 384,
            "midi": 55,
            "name": "G3",
            "ticks": 43392,
            "time": 172.64913604166668,
            "velocity": 0.5039370078740157
          },
          {
            "duration": 1.5,
            "durationTicks": 384,
            "midi": 51,
            "name": "D#3",
            "ticks": 43392,
            "time": 172.64913604166668,
            "velocity": 0.5039370078740157
          },
          {
            "duration": 1.5,
            "durationTicks": 384,
            "midi": 60,
            "name": "C4",
            "ticks": 43776,
            "time": 174.14913604166668,
            "velocity": 0.5039370078740157
          },
          {
            "duration": 1.5,
            "durationTicks": 384,
            "midi": 53,
            "name": "F3",
            "ticks": 43776,
            "time": 174.14913604166668,
            "velocity": 0.5039370078740157
          },
          {
            "duration": 1.5,
            "durationTicks": 384,
            "midi": 50,
            "name": "D3",
            "ticks": 43776,
            "time": 174.14913604166668,
            "velocity": 0.5039370078740157
          },
          {
            "duration": 1.5,
            "durationTicks": 384,
            "midi": 49,
            "name": "C#3",
            "ticks": 44160,
            "time": 175.64913604166668,
            "velocity": 0.5039370078740157
          },
          {
            "duration": 1.5,
            "durationTicks": 384,
            "midi": 53,
            "name": "F3",
            "ticks": 44544,
            "time": 177.14913604166668,
            "velocity": 0.5039370078740157
          },
          {
            "duration": 1.5,
            "durationTicks": 384,
            "midi": 43,
            "name": "G2",
            "ticks": 44544,
            "time": 177.14913604166668,
            "velocity": 0.5039370078740157
          },
          {
            "duration": 0.375,
            "durationTicks": 96,
            "midi": 45,
            "name": "A2",
            "ticks": 44928,
            "time": 178.64913604166668,
            "velocity": 0.5039370078740157
          },
          {
            "duration": 0.375,
            "durationTicks": 96,
            "midi": 52,
            "name": "E3",
            "ticks": 45024,
            "time": 179.02413604166668,
            "velocity": 0.5039370078740157
          },
          {
            "duration": 0.375,
            "durationTicks": 96,
            "midi": 60,
            "name": "C4",
            "ticks": 45120,
            "time": 179.39913604166668,
            "velocity": 0.5039370078740157
          },
          {
            "duration": 0.375,
            "durationTicks": 96,
            "midi": 52,
            "name": "E3",
            "ticks": 45216,
            "time": 179.77413604166668,
            "velocity": 0.5039370078740157
          },
          {
            "duration": 0.375,
            "durationTicks": 96,
            "midi": 43,
            "name": "G2",
            "ticks": 45312,
            "time": 180.14913604166668,
            "velocity": 0.5039370078740157
          },
          {
            "duration": 0.375,
            "durationTicks": 96,
            "midi": 52,
            "name": "E3",
            "ticks": 45408,
            "time": 180.52413604166668,
            "velocity": 0.5039370078740157
          },
          {
            "duration": 0.375,
            "durationTicks": 96,
            "midi": 57,
            "name": "A3",
            "ticks": 45504,
            "time": 180.89913604166668,
            "velocity": 0.5039370078740157
          },
          {
            "duration": 0.375,
            "durationTicks": 96,
            "midi": 52,
            "name": "E3",
            "ticks": 45600,
            "time": 181.27413604166668,
            "velocity": 0.5039370078740157
          },
          {
            "duration": 0.375,
            "durationTicks": 96,
            "midi": 41,
            "name": "F2",
            "ticks": 45696,
            "time": 181.64913604166668,
            "velocity": 0.5039370078740157
          },
          {
            "duration": 0.375,
            "durationTicks": 96,
            "midi": 48,
            "name": "C3",
            "ticks": 45792,
            "time": 182.02413604166668,
            "velocity": 0.5039370078740157
          },
          {
            "duration": 0.375,
            "durationTicks": 96,
            "midi": 57,
            "name": "A3",
            "ticks": 45888,
            "time": 182.39913604166668,
            "velocity": 0.5039370078740157
          },
          {
            "duration": 0.375,
            "durationTicks": 96,
            "midi": 48,
            "name": "C3",
            "ticks": 45984,
            "time": 182.77413604166668,
            "velocity": 0.5039370078740157
          },
          {
            "duration": 0.375,
            "durationTicks": 96,
            "midi": 40,
            "name": "E2",
            "ticks": 46080,
            "time": 183.14913604166668,
            "velocity": 0.5039370078740157
          },
          {
            "duration": 0.375,
            "durationTicks": 96,
            "midi": 48,
            "name": "C3",
            "ticks": 46176,
            "time": 183.52413604166668,
            "velocity": 0.5039370078740157
          },
          {
            "duration": 0.375,
            "durationTicks": 96,
            "midi": 55,
            "name": "G3",
            "ticks": 46272,
            "time": 183.89913604166668,
            "velocity": 0.5039370078740157
          },
          {
            "duration": 0.375,
            "durationTicks": 96,
            "midi": 48,
            "name": "C3",
            "ticks": 46368,
            "time": 184.27413604166668,
            "velocity": 0.5039370078740157
          },
          {
            "duration": 0.375,
            "durationTicks": 96,
            "midi": 51,
            "name": "D#3",
            "ticks": 46464,
            "time": 184.64913604166668,
            "velocity": 0.5039370078740157
          },
          {
            "duration": 0.375,
            "durationTicks": 96,
            "midi": 55,
            "name": "G3",
            "ticks": 46560,
            "time": 185.02413604166668,
            "velocity": 0.5039370078740157
          },
          {
            "duration": 0.375,
            "durationTicks": 96,
            "midi": 60,
            "name": "C4",
            "ticks": 46656,
            "time": 185.39913604166668,
            "velocity": 0.5039370078740157
          },
          {
            "duration": 0.375,
            "durationTicks": 96,
            "midi": 55,
            "name": "G3",
            "ticks": 46752,
            "time": 185.77413604166668,
            "velocity": 0.5039370078740157
          },
          {
            "duration": 0.375,
            "durationTicks": 96,
            "midi": 50,
            "name": "D3",
            "ticks": 46848,
            "time": 186.14913604166668,
            "velocity": 0.5039370078740157
          },
          {
            "duration": 0.375,
            "durationTicks": 96,
            "midi": 53,
            "name": "F3",
            "ticks": 46944,
            "time": 186.52413604166668,
            "velocity": 0.5039370078740157
          },
          {
            "duration": 0.375,
            "durationTicks": 96,
            "midi": 60,
            "name": "C4",
            "ticks": 47040,
            "time": 186.89913604166668,
            "velocity": 0.5039370078740157
          },
          {
            "duration": 0.375,
            "durationTicks": 96,
            "midi": 53,
            "name": "F3",
            "ticks": 47136,
            "time": 187.27413604166668,
            "velocity": 0.5039370078740157
          },
          {
            "duration": 0.375,
            "durationTicks": 96,
            "midi": 49,
            "name": "C#3",
            "ticks": 47232,
            "time": 187.64913604166668,
            "velocity": 0.5039370078740157
          },
          {
            "duration": 0.375,
            "durationTicks": 96,
            "midi": 53,
            "name": "F3",
            "ticks": 47328,
            "time": 188.02413604166668,
            "velocity": 0.5039370078740157
          },
          {
            "duration": 0.375,
            "durationTicks": 96,
            "midi": 58,
            "name": "A#3",
            "ticks": 47424,
            "time": 188.39913604166668,
            "velocity": 0.5039370078740157
          },
          {
            "duration": 0.375,
            "durationTicks": 96,
            "midi": 53,
            "name": "F3",
            "ticks": 47520,
            "time": 188.77413604166668,
            "velocity": 0.5039370078740157
          },
          {
            "duration": 0.375,
            "durationTicks": 96,
            "midi": 48,
            "name": "C3",
            "ticks": 47616,
            "time": 189.14913604166668,
            "velocity": 0.5039370078740157
          },
          {
            "duration": 0.375,
            "durationTicks": 96,
            "midi": 52,
            "name": "E3",
            "ticks": 47712,
            "time": 189.52413604166668,
            "velocity": 0.5039370078740157
          },
          {
            "duration": 0.375,
            "durationTicks": 96,
            "midi": 58,
            "name": "A#3",
            "ticks": 47808,
            "time": 189.89913604166668,
            "velocity": 0.5039370078740157
          },
          {
            "duration": 0.375,
            "durationTicks": 96,
            "midi": 52,
            "name": "E3",
            "ticks": 47904,
            "time": 190.27413604166668,
            "velocity": 0.5039370078740157
          },
          {
            "duration": 0.375,
            "durationTicks": 96,
            "midi": 41,
            "name": "F2",
            "ticks": 48000,
            "time": 190.64913604166668,
            "velocity": 0.5039370078740157
          },
          {
            "duration": 0.375,
            "durationTicks": 96,
            "midi": 48,
            "name": "C3",
            "ticks": 48096,
            "time": 191.02413604166668,
            "velocity": 0.5039370078740157
          },
          {
            "duration": 0.375,
            "durationTicks": 96,
            "midi": 56,
            "name": "G#3",
            "ticks": 48192,
            "time": 191.39913604166668,
            "velocity": 0.5039370078740157
          },
          {
            "duration": 0.375,
            "durationTicks": 96,
            "midi": 48,
            "name": "C3",
            "ticks": 48288,
            "time": 191.77413604166668,
            "velocity": 0.5039370078740157
          },
          {
            "duration": 0.375,
            "durationTicks": 96,
            "midi": 39,
            "name": "D#2",
            "ticks": 48384,
            "time": 192.14913604166668,
            "velocity": 0.5039370078740157
          },
          {
            "duration": 0.375,
            "durationTicks": 96,
            "midi": 48,
            "name": "C3",
            "ticks": 48480,
            "time": 192.52413604166668,
            "velocity": 0.5039370078740157
          },
          {
            "duration": 0.375,
            "durationTicks": 96,
            "midi": 56,
            "name": "G#3",
            "ticks": 48576,
            "time": 192.89913604166668,
            "velocity": 0.5039370078740157
          },
          {
            "duration": 0.375,
            "durationTicks": 96,
            "midi": 48,
            "name": "C3",
            "ticks": 48672,
            "time": 193.27413604166668,
            "velocity": 0.5039370078740157
          },
          {
            "duration": 0.375,
            "durationTicks": 96,
            "midi": 38,
            "name": "D2",
            "ticks": 48768,
            "time": 193.64913604166668,
            "velocity": 0.5039370078740157
          },
          {
            "duration": 0.375,
            "durationTicks": 96,
            "midi": 50,
            "name": "D3",
            "ticks": 48864,
            "time": 194.02413604166668,
            "velocity": 0.5039370078740157
          },
          {
            "duration": 0.375,
            "durationTicks": 96,
            "midi": 53,
            "name": "F3",
            "ticks": 48960,
            "time": 194.39913604166668,
            "velocity": 0.5039370078740157
          },
          {
            "duration": 0.375,
            "durationTicks": 96,
            "midi": 56,
            "name": "G#3",
            "ticks": 49056,
            "time": 194.77413604166668,
            "velocity": 0.5039370078740157
          },
          {
            "duration": 0.375,
            "durationTicks": 96,
            "midi": 60,
            "name": "C4",
            "ticks": 49152,
            "time": 195.14913604166668,
            "velocity": 0.5039370078740157
          },
          {
            "duration": 0.375,
            "durationTicks": 96,
            "midi": 56,
            "name": "G#3",
            "ticks": 49248,
            "time": 195.52413604166668,
            "velocity": 0.5039370078740157
          },
          {
            "duration": 0.375,
            "durationTicks": 96,
            "midi": 53,
            "name": "F3",
            "ticks": 49344,
            "time": 195.89913604166668,
            "velocity": 0.5039370078740157
          },
          {
            "duration": 0.375,
            "durationTicks": 96,
            "midi": 56,
            "name": "G#3",
            "ticks": 49440,
            "time": 196.27413604166668,
            "velocity": 0.5039370078740157
          },
          {
            "duration": 0.375,
            "durationTicks": 96,
            "midi": 43,
            "name": "G2",
            "ticks": 49536,
            "time": 196.64913604166668,
            "velocity": 0.5039370078740157
          },
          {
            "duration": 0.375,
            "durationTicks": 96,
            "midi": 50,
            "name": "D3",
            "ticks": 49632,
            "time": 197.02413604166668,
            "velocity": 0.5039370078740157
          },
          {
            "duration": 0.375,
            "durationTicks": 96,
            "midi": 55,
            "name": "G3",
            "ticks": 49728,
            "time": 197.39913604166668,
            "velocity": 0.5039370078740157
          },
          {
            "duration": 0.375,
            "durationTicks": 96,
            "midi": 59,
            "name": "B3",
            "ticks": 49824,
            "time": 197.77413604166668,
            "velocity": 0.5039370078740157
          },
          {
            "duration": 1.6171875,
            "durationTicks": 384,
            "midi": 62,
            "name": "D4",
            "ticks": 49920,
            "time": 198.14913604166668,
            "velocity": 0.5039370078740157
          },
          {
            "duration": 4,
            "durationTicks": 768,
            "midi": 64,
            "name": "E4",
            "ticks": 50272,
            "time": 199.59965687500002,
            "velocity": 0.5039370078740157
          },
          {
            "duration": 4,
            "durationTicks": 768,
            "midi": 59,
            "name": "B3",
            "ticks": 50272,
            "time": 199.59965687500002,
            "velocity": 0.5039370078740157
          },
          {
            "duration": 4,
            "durationTicks": 768,
            "midi": 57,
            "name": "A3",
            "ticks": 50272,
            "time": 199.59965687500002,
            "velocity": 0.5039370078740157
          },
          {
            "duration": 4,
            "durationTicks": 768,
            "midi": 53,
            "name": "F3",
            "ticks": 50272,
            "time": 199.59965687500002,
            "velocity": 0.5039370078740157
          }
        ],
        "endOfTrackTicks": 54786
      }
    ]
  }