{
  "header": {
    "PPQ": 96,
    "timeSignature": [
      4,
      4
    ],
    "bpm": 229.99961666730556,
    "name": "Megalovania"
  },
  "tempo": [
    {
      "absoluteTime": 0,
      "seconds": 0,
      "bpm": 229.99961666730556
    }
  ],
  "timeSignature": [
    {
      "absoluteTime": 0,
      "seconds": 0,
      "numerator": 4,
      "denominator": 2,
      "click": 24,
      "notesQ": 8
    }
  ],
  "startTime": 0,
  "duration": 158.60896000000116,
  "tracks": [
    {
      "startTime": 0,
      "duration": 0,
      "length": 0,
      "notes": [],
      "controlChanges": {},
      "id": 0,
      "name": "Megalovania"
    },
    {
      "startTime": 0,
      "duration": 0,
      "length": 0,
      "notes": [],
      "controlChanges": {},
      "id": 1
    },
    {
      "startTime": 15.652199999999999,
      "duration": 150.130685000003,
      "length": 1234,
      "notes": [
        {
          "name": "G3",
          "midi": 55,
          "time": 15.652199999999999,
          "velocity": 0.2440944881889764,
          "duration": 0.1304350000000003
        },
        {
          "name": "G3",
          "midi": 55,
          "time": 15.91307,
          "velocity": 0.3779527559055118,
          "duration": 0.1304350000000003
        },
        {
          "name": "G3",
          "midi": 55,
          "time": 16.173939999999998,
          "velocity": 0.5118110236220472,
          "duration": 0.13043499999999852
        },
        {
          "name": "G3",
          "midi": 55,
          "time": 16.434809999999995,
          "velocity": 0.6456692913385826,
          "duration": 0.13043499999999852
        },
        {
          "name": "A3",
          "midi": 57,
          "time": 16.695679999999992,
          "velocity": 0.6614173228346457,
          "duration": 0.13043499999999852
        },
        {
          "name": "A#2",
          "midi": 46,
          "time": 16.695679999999992,
          "velocity": 0.3858267716535433,
          "duration": 0.13043499999999852
        },
        {
          "name": "C2",
          "midi": 36,
          "time": 16.695679999999992,
          "velocity": 0.6456692913385826,
          "duration": 0.13043499999999852
        },
        {
          "name": "E2",
          "midi": 40,
          "time": 16.95654999999999,
          "velocity": 0.6456692913385826,
          "duration": 0.13043499999999852
        },
        {
          "name": "A#2",
          "midi": 46,
          "time": 16.95654999999999,
          "velocity": 0.3858267716535433,
          "duration": 0.13043499999999852
        },
        {
          "name": "A#2",
          "midi": 46,
          "time": 17.217419999999986,
          "velocity": 0.3858267716535433,
          "duration": 0.13043499999999852
        },
        {
          "name": "C2",
          "midi": 36,
          "time": 17.217419999999986,
          "velocity": 0.6456692913385826,
          "duration": 0.13043499999999852
        },
        {
          "name": "E2",
          "midi": 40,
          "time": 17.478289999999983,
          "velocity": 0.6377952755905512,
          "duration": 0.13043499999999852
        },
        {
          "name": "A#2",
          "midi": 46,
          "time": 17.478289999999983,
          "velocity": 0.3858267716535433,
          "duration": 0.13043499999999852
        },
        {
          "name": "C2",
          "midi": 36,
          "time": 17.608724999999982,
          "velocity": 0.6377952755905512,
          "duration": 0.13043499999999852
        },
        {
          "name": "A#2",
          "midi": 46,
          "time": 17.73915999999998,
          "velocity": 0.3858267716535433,
          "duration": 0.13043499999999852
        },
        {
          "name": "C2",
          "midi": 36,
          "time": 17.86959499999998,
          "velocity": 0.6377952755905512,
          "duration": 0.13043499999999852
        },
        {
          "name": "E2",
          "midi": 40,
          "time": 18.000029999999978,
          "velocity": 0.6377952755905512,
          "duration": 0.13043499999999852
        },
        {
          "name": "A#2",
          "midi": 46,
          "time": 18.000029999999978,
          "velocity": 0.3858267716535433,
          "duration": 0.13043499999999852
        },
        {
          "name": "C2",
          "midi": 36,
          "time": 18.130464999999976,
          "velocity": 0.6299212598425197,
          "duration": 0.13043499999999852
        },
        {
          "name": "A#2",
          "midi": 46,
          "time": 18.260899999999975,
          "velocity": 0.3858267716535433,
          "duration": 0.13043499999999852
        },
        {
          "name": "C2",
          "midi": 36,
          "time": 18.260899999999975,
          "velocity": 0.6299212598425197,
          "duration": 0.13043499999999852
        },
        {
          "name": "E2",
          "midi": 40,
          "time": 18.52176999999997,
          "velocity": 0.6299212598425197,
          "duration": 0.13043499999999852
        },
        {
          "name": "C2",
          "midi": 36,
          "time": 18.52176999999997,
          "velocity": 0.6299212598425197,
          "duration": 0.13043499999999852
        },
        {
          "name": "A#2",
          "midi": 46,
          "time": 18.52176999999997,
          "velocity": 0.3858267716535433,
          "duration": 0.13043499999999852
        },
        {
          "name": "A#2",
          "midi": 46,
          "time": 18.78263999999997,
          "velocity": 0.3858267716535433,
          "duration": 0.13043499999999852
        },
        {
          "name": "C2",
          "midi": 36,
          "time": 18.78263999999997,
          "velocity": 0.6456692913385826,
          "duration": 0.13043499999999852
        },
        {
          "name": "E2",
          "midi": 40,
          "time": 19.043509999999966,
          "velocity": 0.6456692913385826,
          "duration": 0.13043499999999852
        },
        {
          "name": "A#2",
          "midi": 46,
          "time": 19.043509999999966,
          "velocity": 0.3858267716535433,
          "duration": 0.13043499999999852
        },
        {
          "name": "A#2",
          "midi": 46,
          "time": 19.304379999999963,
          "velocity": 0.3858267716535433,
          "duration": 0.13043499999999852
        },
        {
          "name": "C2",
          "midi": 36,
          "time": 19.304379999999963,
          "velocity": 0.6456692913385826,
          "duration": 0.13043499999999852
        },
        {
          "name": "A#2",
          "midi": 46,
          "time": 19.56524999999996,
          "velocity": 0.3858267716535433,
          "duration": 0.13043499999999852
        },
        {
          "name": "E2",
          "midi": 40,
          "time": 19.56524999999996,
          "velocity": 0.6377952755905512,
          "duration": 0.13043499999999852
        },
        {
          "name": "C2",
          "midi": 36,
          "time": 19.69568499999996,
          "velocity": 0.6377952755905512,
          "duration": 0.13043499999999852
        },
        {
          "name": "A#2",
          "midi": 46,
          "time": 19.826119999999957,
          "velocity": 0.3858267716535433,
          "duration": 0.13043499999999852
        },
        {
          "name": "C2",
          "midi": 36,
          "time": 19.956554999999955,
          "velocity": 0.6377952755905512,
          "duration": 0.13043499999999852
        },
        {
          "name": "A#2",
          "midi": 46,
          "time": 20.086989999999954,
          "velocity": 0.3858267716535433,
          "duration": 0.13043499999999852
        },
        {
          "name": "E2",
          "midi": 40,
          "time": 20.086989999999954,
          "velocity": 0.6377952755905512,
          "duration": 0.13043499999999852
        },
        {
          "name": "C2",
          "midi": 36,
          "time": 20.217424999999952,
          "velocity": 0.6299212598425197,
          "duration": 0.13043499999999852
        },
        {
          "name": "A#2",
          "midi": 46,
          "time": 20.34785999999995,
          "velocity": 0.3858267716535433,
          "duration": 0.13043499999999852
        },
        {
          "name": "C2",
          "midi": 36,
          "time": 20.34785999999995,
          "velocity": 0.6299212598425197,
          "duration": 0.13043499999999852
        },
        {
          "name": "A#2",
          "midi": 46,
          "time": 20.608729999999948,
          "velocity": 0.3858267716535433,
          "duration": 0.13043499999999852
        },
        {
          "name": "C2",
          "midi": 36,
          "time": 20.608729999999948,
          "velocity": 0.6299212598425197,
          "duration": 0.13043499999999852
        },
        {
          "name": "E2",
          "midi": 40,
          "time": 20.608729999999948,
          "velocity": 0.6299212598425197,
          "duration": 0.13043499999999852
        },
        {
          "name": "A#2",
          "midi": 46,
          "time": 20.869599999999945,
          "velocity": 0.3858267716535433,
          "duration": 0.13043499999999852
        },
        {
          "name": "C2",
          "midi": 36,
          "time": 20.869599999999945,
          "velocity": 0.6456692913385826,
          "duration": 0.13043499999999852
        },
        {
          "name": "A#2",
          "midi": 46,
          "time": 21.130469999999942,
          "velocity": 0.3858267716535433,
          "duration": 0.13043499999999852
        },
        {
          "name": "E2",
          "midi": 40,
          "time": 21.130469999999942,
          "velocity": 0.6456692913385826,
          "duration": 0.13043499999999852
        },
        {
          "name": "A#2",
          "midi": 46,
          "time": 21.39133999999994,
          "velocity": 0.3858267716535433,
          "duration": 0.13043499999999852
        },
        {
          "name": "C2",
          "midi": 36,
          "time": 21.39133999999994,
          "velocity": 0.6456692913385826,
          "duration": 0.13043499999999852
        },
        {
          "name": "A#2",
          "midi": 46,
          "time": 21.652209999999936,
          "velocity": 0.3858267716535433,
          "duration": 0.13043499999999852
        },
        {
          "name": "E2",
          "midi": 40,
          "time": 21.652209999999936,
          "velocity": 0.6377952755905512,
          "duration": 0.13043499999999852
        },
        {
          "name": "C2",
          "midi": 36,
          "time": 21.782644999999935,
          "velocity": 0.6377952755905512,
          "duration": 0.13043499999999852
        },
        {
          "name": "A#2",
          "midi": 46,
          "time": 21.913079999999933,
          "velocity": 0.3858267716535433,
          "duration": 0.13043499999999852
        },
        {
          "name": "C2",
          "midi": 36,
          "time": 22.043514999999932,
          "velocity": 0.6377952755905512,
          "duration": 0.13043499999999852
        },
        {
          "name": "A#2",
          "midi": 46,
          "time": 22.17394999999993,
          "velocity": 0.3858267716535433,
          "duration": 0.13043499999999852
        },
        {
          "name": "E2",
          "midi": 40,
          "time": 22.17394999999993,
          "velocity": 0.6377952755905512,
          "duration": 0.13043499999999852
        },
        {
          "name": "C2",
          "midi": 36,
          "time": 22.30438499999993,
          "velocity": 0.6299212598425197,
          "duration": 0.13043499999999852
        },
        {
          "name": "A#2",
          "midi": 46,
          "time": 22.434819999999927,
          "velocity": 0.3858267716535433,
          "duration": 0.13043499999999852
        },
        {
          "name": "C2",
          "midi": 36,
          "time": 22.434819999999927,
          "velocity": 0.6299212598425197,
          "duration": 0.13043499999999852
        },
        {
          "name": "A#2",
          "midi": 46,
          "time": 22.695689999999924,
          "velocity": 0.3858267716535433,
          "duration": 0.13043499999999852
        },
        {
          "name": "C2",
          "midi": 36,
          "time": 22.695689999999924,
          "velocity": 0.6299212598425197,
          "duration": 0.13043499999999852
        },
        {
          "name": "E2",
          "midi": 40,
          "time": 22.695689999999924,
          "velocity": 0.6299212598425197,
          "duration": 0.13043499999999852
        },
        {
          "name": "A#2",
          "midi": 46,
          "time": 22.95655999999992,
          "velocity": 0.3858267716535433,
          "duration": 0.13043499999999852
        },
        {
          "name": "C2",
          "midi": 36,
          "time": 22.95655999999992,
          "velocity": 0.6456692913385826,
          "duration": 0.13043499999999852
        },
        {
          "name": "A#2",
          "midi": 46,
          "time": 23.21742999999992,
          "velocity": 0.3858267716535433,
          "duration": 0.13043499999999852
        },
        {
          "name": "E2",
          "midi": 40,
          "time": 23.21742999999992,
          "velocity": 0.6456692913385826,
          "duration": 0.13043499999999852
        },
        {
          "name": "A#2",
          "midi": 46,
          "time": 23.478299999999916,
          "velocity": 0.3858267716535433,
          "duration": 0.13043499999999852
        },
        {
          "name": "C2",
          "midi": 36,
          "time": 23.478299999999916,
          "velocity": 0.6456692913385826,
          "duration": 0.13043499999999852
        },
        {
          "name": "E2",
          "midi": 40,
          "time": 23.608734999999914,
          "velocity": 0.6377952755905512,
          "duration": 0.13043499999999852
        },
        {
          "name": "A#2",
          "midi": 46,
          "time": 23.739169999999913,
          "velocity": 0.3858267716535433,
          "duration": 0.13043499999999852
        },
        {
          "name": "C2",
          "midi": 36,
          "time": 23.86960499999991,
          "velocity": 0.6377952755905512,
          "duration": 0.13043499999999852
        },
        {
          "name": "E2",
          "midi": 40,
          "time": 23.86960499999991,
          "velocity": 0.6377952755905512,
          "duration": 0.13043499999999852
        },
        {
          "name": "A#2",
          "midi": 46,
          "time": 24.00003999999991,
          "velocity": 0.3858267716535433,
          "duration": 0.13043499999999852
        },
        {
          "name": "C2",
          "midi": 36,
          "time": 24.130474999999908,
          "velocity": 0.6377952755905512,
          "duration": 0.13043499999999852
        },
        {
          "name": "E2",
          "midi": 40,
          "time": 24.260909999999907,
          "velocity": 0.6377952755905512,
          "duration": 0.13043499999999852
        },
        {
          "name": "A#2",
          "midi": 46,
          "time": 24.260909999999907,
          "velocity": 0.3858267716535433,
          "duration": 0.13043499999999852
        },
        {
          "name": "C2",
          "midi": 36,
          "time": 24.391344999999905,
          "velocity": 0.6299212598425197,
          "duration": 0.13043499999999852
        },
        {
          "name": "A#2",
          "midi": 46,
          "time": 24.521779999999904,
          "velocity": 0.3858267716535433,
          "duration": 0.13043499999999852
        },
        {
          "name": "C2",
          "midi": 36,
          "time": 24.521779999999904,
          "velocity": 0.6299212598425197,
          "duration": 0.13043499999999852
        },
        {
          "name": "E2",
          "midi": 40,
          "time": 24.521779999999904,
          "velocity": 0.6377952755905512,
          "duration": 0.13043499999999852
        },
        {
          "name": "E2",
          "midi": 40,
          "time": 24.7826499999999,
          "velocity": 0.6299212598425197,
          "duration": 0.13043499999999852
        },
        {
          "name": "C2",
          "midi": 36,
          "time": 24.7826499999999,
          "velocity": 0.6299212598425197,
          "duration": 0.13043499999999852
        },
        {
          "name": "A#2",
          "midi": 46,
          "time": 24.7826499999999,
          "velocity": 0.3858267716535433,
          "duration": 0.13043499999999852
        },
        {
          "name": "A3",
          "midi": 57,
          "time": 25.043519999999898,
          "velocity": 0.6456692913385826,
          "duration": 0.13043499999999852
        },
        {
          "name": "A#2",
          "midi": 46,
          "time": 25.043519999999898,
          "velocity": 0.3858267716535433,
          "duration": 0.13043499999999852
        },
        {
          "name": "C2",
          "midi": 36,
          "time": 25.043519999999898,
          "velocity": 0.6456692913385826,
          "duration": 0.13043499999999852
        },
        {
          "name": "E2",
          "midi": 40,
          "time": 25.304389999999895,
          "velocity": 0.6456692913385826,
          "duration": 0.13043499999999852
        },
        {
          "name": "A#2",
          "midi": 46,
          "time": 25.304389999999895,
          "velocity": 0.3858267716535433,
          "duration": 0.13043499999999852
        },
        {
          "name": "A#2",
          "midi": 46,
          "time": 25.565259999999892,
          "velocity": 0.3858267716535433,
          "duration": 0.13043499999999852
        },
        {
          "name": "C2",
          "midi": 36,
          "time": 25.565259999999892,
          "velocity": 0.6456692913385826,
          "duration": 0.13043499999999852
        },
        {
          "name": "E2",
          "midi": 40,
          "time": 25.82612999999989,
          "velocity": 0.6377952755905512,
          "duration": 0.13043499999999852
        },
        {
          "name": "A#2",
          "midi": 46,
          "time": 25.82612999999989,
          "velocity": 0.3858267716535433,
          "duration": 0.13043499999999852
        },
        {
          "name": "C2",
          "midi": 36,
          "time": 25.956564999999888,
          "velocity": 0.6377952755905512,
          "duration": 0.13043499999999852
        },
        {
          "name": "A#2",
          "midi": 46,
          "time": 26.086999999999886,
          "velocity": 0.3858267716535433,
          "duration": 0.13043499999999852
        },
        {
          "name": "C2",
          "midi": 36,
          "time": 26.217434999999885,
          "velocity": 0.6377952755905512,
          "duration": 0.13043499999999852
        },
        {
          "name": "E2",
          "midi": 40,
          "time": 26.347869999999883,
          "velocity": 0.6377952755905512,
          "duration": 0.13043499999999852
        },
        {
          "name": "A#2",
          "midi": 46,
          "time": 26.347869999999883,
          "velocity": 0.3858267716535433,
          "duration": 0.13043499999999852
        },
        {
          "name": "C2",
          "midi": 36,
          "time": 26.47830499999988,
          "velocity": 0.6299212598425197,
          "duration": 0.13043499999999852
        },
        {
          "name": "A#2",
          "midi": 46,
          "time": 26.60873999999988,
          "velocity": 0.3858267716535433,
          "duration": 0.13043499999999852
        },
        {
          "name": "C2",
          "midi": 36,
          "time": 26.60873999999988,
          "velocity": 0.6299212598425197,
          "duration": 0.13043499999999852
        },
        {
          "name": "E2",
          "midi": 40,
          "time": 26.869609999999877,
          "velocity": 0.6299212598425197,
          "duration": 0.13043499999999852
        },
        {
          "name": "C2",
          "midi": 36,
          "time": 26.869609999999877,
          "velocity": 0.6299212598425197,
          "duration": 0.13043499999999852
        },
        {
          "name": "A#2",
          "midi": 46,
          "time": 26.869609999999877,
          "velocity": 0.3858267716535433,
          "duration": 0.13043499999999852
        },
        {
          "name": "A#2",
          "midi": 46,
          "time": 27.130479999999874,
          "velocity": 0.3858267716535433,
          "duration": 0.13043499999999852
        },
        {
          "name": "C2",
          "midi": 36,
          "time": 27.130479999999874,
          "velocity": 0.6456692913385826,
          "duration": 0.13043499999999852
        },
        {
          "name": "E2",
          "midi": 40,
          "time": 27.39134999999987,
          "velocity": 0.6456692913385826,
          "duration": 0.13043499999999852
        },
        {
          "name": "A#2",
          "midi": 46,
          "time": 27.39134999999987,
          "velocity": 0.3858267716535433,
          "duration": 0.13043499999999852
        },
        {
          "name": "A#2",
          "midi": 46,
          "time": 27.65221999999987,
          "velocity": 0.3858267716535433,
          "duration": 0.13043499999999852
        },
        {
          "name": "C2",
          "midi": 36,
          "time": 27.65221999999987,
          "velocity": 0.6456692913385826,
          "duration": 0.13043499999999852
        },
        {
          "name": "A#2",
          "midi": 46,
          "time": 27.913089999999865,
          "velocity": 0.3858267716535433,
          "duration": 0.13043499999999852
        },
        {
          "name": "E2",
          "midi": 40,
          "time": 27.913089999999865,
          "velocity": 0.6377952755905512,
          "duration": 0.13043499999999852
        },
        {
          "name": "C2",
          "midi": 36,
          "time": 28.043524999999864,
          "velocity": 0.6377952755905512,
          "duration": 0.13043499999999852
        },
        {
          "name": "A#2",
          "midi": 46,
          "time": 28.173959999999862,
          "velocity": 0.3858267716535433,
          "duration": 0.13043499999999852
        },
        {
          "name": "C2",
          "midi": 36,
          "time": 28.30439499999986,
          "velocity": 0.6377952755905512,
          "duration": 0.13043499999999852
        },
        {
          "name": "A#2",
          "midi": 46,
          "time": 28.43482999999986,
          "velocity": 0.3858267716535433,
          "duration": 0.13043499999999852
        },
        {
          "name": "E2",
          "midi": 40,
          "time": 28.43482999999986,
          "velocity": 0.6377952755905512,
          "duration": 0.13043499999999852
        },
        {
          "name": "C2",
          "midi": 36,
          "time": 28.565264999999858,
          "velocity": 0.6299212598425197,
          "duration": 0.13043499999999852
        },
        {
          "name": "A#2",
          "midi": 46,
          "time": 28.695699999999857,
          "velocity": 0.3858267716535433,
          "duration": 0.13043499999999852
        },
        {
          "name": "C2",
          "midi": 36,
          "time": 28.695699999999857,
          "velocity": 0.6299212598425197,
          "duration": 0.13043499999999852
        },
        {
          "name": "A#2",
          "midi": 46,
          "time": 28.956569999999854,
          "velocity": 0.3858267716535433,
          "duration": 0.13043499999999852
        },
        {
          "name": "C2",
          "midi": 36,
          "time": 28.956569999999854,
          "velocity": 0.6299212598425197,
          "duration": 0.13043499999999852
        },
        {
          "name": "E2",
          "midi": 40,
          "time": 28.956569999999854,
          "velocity": 0.6299212598425197,
          "duration": 0.13043499999999852
        },
        {
          "name": "A#2",
          "midi": 46,
          "time": 29.21743999999985,
          "velocity": 0.3858267716535433,
          "duration": 0.13043499999999852
        },
        {
          "name": "C2",
          "midi": 36,
          "time": 29.21743999999985,
          "velocity": 0.6456692913385826,
          "duration": 0.13043499999999852
        },
        {
          "name": "E2",
          "midi": 40,
          "time": 29.478309999999848,
          "velocity": 0.6456692913385826,
          "duration": 0.13043499999999852
        },
        {
          "name": "A#2",
          "midi": 46,
          "time": 29.478309999999848,
          "velocity": 0.3858267716535433,
          "duration": 0.13043499999999852
        },
        {
          "name": "A#2",
          "midi": 46,
          "time": 29.739179999999845,
          "velocity": 0.3858267716535433,
          "duration": 0.13043499999999852
        },
        {
          "name": "C2",
          "midi": 36,
          "time": 29.739179999999845,
          "velocity": 0.6456692913385826,
          "duration": 0.13043499999999852
        },
        {
          "name": "E2",
          "midi": 40,
          "time": 30.000049999999842,
          "velocity": 0.6377952755905512,
          "duration": 0.13043499999999852
        },
        {
          "name": "A#2",
          "midi": 46,
          "time": 30.000049999999842,
          "velocity": 0.3858267716535433,
          "duration": 0.13043499999999852
        },
        {
          "name": "C2",
          "midi": 36,
          "time": 30.13048499999984,
          "velocity": 0.6377952755905512,
          "duration": 0.13043499999999852
        },
        {
          "name": "A#2",
          "midi": 46,
          "time": 30.26091999999984,
          "velocity": 0.3858267716535433,
          "duration": 0.13043499999999852
        },
        {
          "name": "C2",
          "midi": 36,
          "time": 30.391354999999837,
          "velocity": 0.6377952755905512,
          "duration": 0.13043499999999852
        },
        {
          "name": "E2",
          "midi": 40,
          "time": 30.521789999999836,
          "velocity": 0.6377952755905512,
          "duration": 0.13043499999999852
        },
        {
          "name": "A#2",
          "midi": 46,
          "time": 30.521789999999836,
          "velocity": 0.3858267716535433,
          "duration": 0.13043499999999852
        },
        {
          "name": "C2",
          "midi": 36,
          "time": 30.652224999999834,
          "velocity": 0.6299212598425197,
          "duration": 0.13043499999999852
        },
        {
          "name": "A#2",
          "midi": 46,
          "time": 30.782659999999833,
          "velocity": 0.3858267716535433,
          "duration": 0.13043499999999852
        },
        {
          "name": "C2",
          "midi": 36,
          "time": 30.782659999999833,
          "velocity": 0.6299212598425197,
          "duration": 0.13043499999999852
        },
        {
          "name": "E2",
          "midi": 40,
          "time": 31.04352999999983,
          "velocity": 0.6299212598425197,
          "duration": 0.13043499999999852
        },
        {
          "name": "C2",
          "midi": 36,
          "time": 31.04352999999983,
          "velocity": 0.6299212598425197,
          "duration": 0.13043499999999852
        },
        {
          "name": "A#2",
          "midi": 46,
          "time": 31.04352999999983,
          "velocity": 0.3858267716535433,
          "duration": 0.13043499999999852
        },
        {
          "name": "A#2",
          "midi": 46,
          "time": 31.304399999999827,
          "velocity": 0.3858267716535433,
          "duration": 0.13043499999999852
        },
        {
          "name": "C2",
          "midi": 36,
          "time": 31.304399999999827,
          "velocity": 0.6456692913385826,
          "duration": 0.13043499999999852
        },
        {
          "name": "E2",
          "midi": 40,
          "time": 31.565269999999824,
          "velocity": 0.6456692913385826,
          "duration": 0.13043499999999852
        },
        {
          "name": "A#2",
          "midi": 46,
          "time": 31.565269999999824,
          "velocity": 0.3858267716535433,
          "duration": 0.13043499999999852
        },
        {
          "name": "A#2",
          "midi": 46,
          "time": 31.82613999999982,
          "velocity": 0.3858267716535433,
          "duration": 0.13043499999999852
        },
        {
          "name": "C2",
          "midi": 36,
          "time": 31.82613999999982,
          "velocity": 0.6456692913385826,
          "duration": 0.13043499999999852
        },
        {
          "name": "E2",
          "midi": 40,
          "time": 31.95657499999982,
          "velocity": 0.6377952755905512,
          "duration": 0.13043500000000208
        },
        {
          "name": "A#2",
          "midi": 46,
          "time": 32.08700999999982,
          "velocity": 0.3858267716535433,
          "duration": 0.13043499999999852
        },
        {
          "name": "C2",
          "midi": 36,
          "time": 32.21744499999982,
          "velocity": 0.6377952755905512,
          "duration": 0.13043499999999852
        },
        {
          "name": "E2",
          "midi": 40,
          "time": 32.21744499999982,
          "velocity": 0.6377952755905512,
          "duration": 0.13043499999999852
        },
        {
          "name": "A#2",
          "midi": 46,
          "time": 32.34787999999982,
          "velocity": 0.3858267716535433,
          "duration": 0.13043499999999852
        },
        {
          "name": "C2",
          "midi": 36,
          "time": 32.47831499999982,
          "velocity": 0.6377952755905512,
          "duration": 0.13043499999999852
        },
        {
          "name": "A#2",
          "midi": 46,
          "time": 32.608749999999816,
          "velocity": 0.3858267716535433,
          "duration": 0.13043499999999852
        },
        {
          "name": "E2",
          "midi": 40,
          "time": 32.608749999999816,
          "velocity": 0.6377952755905512,
          "duration": 0.13043499999999852
        },
        {
          "name": "C2",
          "midi": 36,
          "time": 32.739184999999814,
          "velocity": 0.6299212598425197,
          "duration": 0.13043499999999852
        },
        {
          "name": "A#2",
          "midi": 46,
          "time": 32.86961999999981,
          "velocity": 0.3858267716535433,
          "duration": 0.13043499999999852
        },
        {
          "name": "C2",
          "midi": 36,
          "time": 32.86961999999981,
          "velocity": 0.6299212598425197,
          "duration": 0.13043499999999852
        },
        {
          "name": "E2",
          "midi": 40,
          "time": 32.86961999999981,
          "velocity": 0.6377952755905512,
          "duration": 0.13043499999999852
        },
        {
          "name": "A#2",
          "midi": 46,
          "time": 33.13048999999981,
          "velocity": 0.3858267716535433,
          "duration": 0.13043499999999852
        },
        {
          "name": "C2",
          "midi": 36,
          "time": 33.13048999999981,
          "velocity": 0.6299212598425197,
          "duration": 0.13043499999999852
        },
        {
          "name": "E2",
          "midi": 40,
          "time": 33.13048999999981,
          "velocity": 0.6299212598425197,
          "duration": 0.13043499999999852
        },
        {
          "name": "G#2",
          "midi": 44,
          "time": 33.39135999999981,
          "velocity": 0.49606299212598426,
          "duration": 0.13043499999999852
        },
        {
          "name": "A3",
          "midi": 57,
          "time": 33.39135999999981,
          "velocity": 0.6456692913385826,
          "duration": 0.13043499999999852
        },
        {
          "name": "C2",
          "midi": 36,
          "time": 33.39135999999981,
          "velocity": 0.6456692913385826,
          "duration": 0.13043499999999852
        },
        {
          "name": "G#2",
          "midi": 44,
          "time": 33.521794999999805,
          "velocity": 0.49606299212598426,
          "duration": 0.13043499999999852
        },
        {
          "name": "E2",
          "midi": 40,
          "time": 33.652229999999804,
          "velocity": 0.6456692913385826,
          "duration": 0.13043499999999852
        },
        {
          "name": "G#2",
          "midi": 44,
          "time": 33.7826649999998,
          "velocity": 0.49606299212598426,
          "duration": 0.13043499999999852
        },
        {
          "name": "G#2",
          "midi": 44,
          "time": 33.9130999999998,
          "velocity": 0.49606299212598426,
          "duration": 0.13043499999999852
        },
        {
          "name": "C2",
          "midi": 36,
          "time": 33.9130999999998,
          "velocity": 0.6456692913385826,
          "duration": 0.13043499999999852
        },
        {
          "name": "G#2",
          "midi": 44,
          "time": 34.0435349999998,
          "velocity": 0.49606299212598426,
          "duration": 0.13043499999999852
        },
        {
          "name": "E2",
          "midi": 40,
          "time": 34.1739699999998,
          "velocity": 0.6377952755905512,
          "duration": 0.13043499999999852
        },
        {
          "name": "C2",
          "midi": 36,
          "time": 34.3044049999998,
          "velocity": 0.6377952755905512,
          "duration": 0.13043499999999852
        },
        {
          "name": "G#2",
          "midi": 44,
          "time": 34.434839999999795,
          "velocity": 0.49606299212598426,
          "duration": 0.13043499999999852
        },
        {
          "name": "C2",
          "midi": 36,
          "time": 34.565274999999794,
          "velocity": 0.6377952755905512,
          "duration": 0.13043499999999852
        },
        {
          "name": "G#2",
          "midi": 44,
          "time": 34.565274999999794,
          "velocity": 0.49606299212598426,
          "duration": 0.13043499999999852
        },
        {
          "name": "E2",
          "midi": 40,
          "time": 34.69570999999979,
          "velocity": 0.6377952755905512,
          "duration": 0.13043499999999852
        },
        {
          "name": "G#2",
          "midi": 44,
          "time": 34.82614499999979,
          "velocity": 0.49606299212598426,
          "duration": 0.13043499999999852
        },
        {
          "name": "C2",
          "midi": 36,
          "time": 34.82614499999979,
          "velocity": 0.6299212598425197,
          "duration": 0.13043499999999852
        },
        {
          "name": "G#2",
          "midi": 44,
          "time": 34.95657999999979,
          "velocity": 0.49606299212598426,
          "duration": 0.13043499999999852
        },
        {
          "name": "C2",
          "midi": 36,
          "time": 34.95657999999979,
          "velocity": 0.6299212598425197,
          "duration": 0.13043499999999852
        },
        {
          "name": "G#2",
          "midi": 44,
          "time": 35.08701499999979,
          "velocity": 0.49606299212598426,
          "duration": 0.13043499999999852
        },
        {
          "name": "E2",
          "midi": 40,
          "time": 35.217449999999786,
          "velocity": 0.6299212598425197,
          "duration": 0.13043499999999852
        },
        {
          "name": "C2",
          "midi": 36,
          "time": 35.217449999999786,
          "velocity": 0.6299212598425197,
          "duration": 0.13043499999999852
        },
        {
          "name": "C2",
          "midi": 36,
          "time": 35.47831999999978,
          "velocity": 0.6456692913385826,
          "duration": 0.13043499999999852
        },
        {
          "name": "G#2",
          "midi": 44,
          "time": 35.47831999999978,
          "velocity": 0.49606299212598426,
          "duration": 0.13043499999999852
        },
        {
          "name": "G#2",
          "midi": 44,
          "time": 35.60875499999978,
          "velocity": 0.49606299212598426,
          "duration": 0.13043499999999852
        },
        {
          "name": "E2",
          "midi": 40,
          "time": 35.73918999999978,
          "velocity": 0.6456692913385826,
          "duration": 0.13043499999999852
        },
        {
          "name": "G#2",
          "midi": 44,
          "time": 35.86962499999978,
          "velocity": 0.49606299212598426,
          "duration": 0.13043499999999852
        },
        {
          "name": "C2",
          "midi": 36,
          "time": 36.00005999999978,
          "velocity": 0.6456692913385826,
          "duration": 0.13043499999999852
        },
        {
          "name": "G#2",
          "midi": 44,
          "time": 36.00005999999978,
          "velocity": 0.49606299212598426,
          "duration": 0.13043499999999852
        },
        {
          "name": "G#2",
          "midi": 44,
          "time": 36.130494999999776,
          "velocity": 0.49606299212598426,
          "duration": 0.13043499999999852
        },
        {
          "name": "E2",
          "midi": 40,
          "time": 36.260929999999775,
          "velocity": 0.6377952755905512,
          "duration": 0.13043499999999852
        },
        {
          "name": "C2",
          "midi": 36,
          "time": 36.39136499999977,
          "velocity": 0.6377952755905512,
          "duration": 0.13043499999999852
        },
        {
          "name": "G#2",
          "midi": 44,
          "time": 36.52179999999977,
          "velocity": 0.49606299212598426,
          "duration": 0.13043499999999852
        },
        {
          "name": "C2",
          "midi": 36,
          "time": 36.65223499999977,
          "velocity": 0.6377952755905512,
          "duration": 0.13043499999999852
        },
        {
          "name": "G#2",
          "midi": 44,
          "time": 36.65223499999977,
          "velocity": 0.49606299212598426,
          "duration": 0.13043499999999852
        },
        {
          "name": "E2",
          "midi": 40,
          "time": 36.78266999999977,
          "velocity": 0.6377952755905512,
          "duration": 0.13043499999999852
        },
        {
          "name": "G#2",
          "midi": 44,
          "time": 36.91310499999977,
          "velocity": 0.49606299212598426,
          "duration": 0.13043499999999852
        },
        {
          "name": "C2",
          "midi": 36,
          "time": 36.91310499999977,
          "velocity": 0.6299212598425197,
          "duration": 0.13043499999999852
        },
        {
          "name": "G#2",
          "midi": 44,
          "time": 37.043539999999766,
          "velocity": 0.49606299212598426,
          "duration": 0.13043499999999852
        },
        {
          "name": "C2",
          "midi": 36,
          "time": 37.043539999999766,
          "velocity": 0.6299212598425197,
          "duration": 0.13043499999999852
        },
        {
          "name": "G#2",
          "midi": 44,
          "time": 37.173974999999764,
          "velocity": 0.49606299212598426,
          "duration": 0.13043499999999852
        },
        {
          "name": "C2",
          "midi": 36,
          "time": 37.30440999999976,
          "velocity": 0.6299212598425197,
          "duration": 0.13043499999999852
        },
        {
          "name": "E2",
          "midi": 40,
          "time": 37.30440999999976,
          "velocity": 0.6299212598425197,
          "duration": 0.13043499999999852
        },
        {
          "name": "G#2",
          "midi": 44,
          "time": 37.56527999999976,
          "velocity": 0.49606299212598426,
          "duration": 0.13043499999999852
        },
        {
          "name": "C2",
          "midi": 36,
          "time": 37.56527999999976,
          "velocity": 0.6456692913385826,
          "duration": 0.13043499999999852
        },
        {
          "name": "G#2",
          "midi": 44,
          "time": 37.69571499999976,
          "velocity": 0.49606299212598426,
          "duration": 0.13043499999999852
        },
        {
          "name": "E2",
          "midi": 40,
          "time": 37.82614999999976,
          "velocity": 0.6456692913385826,
          "duration": 0.13043499999999852
        },
        {
          "name": "G#2",
          "midi": 44,
          "time": 37.956584999999755,
          "velocity": 0.49606299212598426,
          "duration": 0.13043499999999852
        },
        {
          "name": "G#2",
          "midi": 44,
          "time": 38.087019999999754,
          "velocity": 0.49606299212598426,
          "duration": 0.13043499999999852
        },
        {
          "name": "C2",
          "midi": 36,
          "time": 38.087019999999754,
          "velocity": 0.6456692913385826,
          "duration": 0.13043499999999852
        },
        {
          "name": "G#2",
          "midi": 44,
          "time": 38.21745499999975,
          "velocity": 0.49606299212598426,
          "duration": 0.13043499999999852
        },
        {
          "name": "E2",
          "midi": 40,
          "time": 38.34788999999975,
          "velocity": 0.6377952755905512,
          "duration": 0.13043499999999852
        },
        {
          "name": "C2",
          "midi": 36,
          "time": 38.47832499999975,
          "velocity": 0.6377952755905512,
          "duration": 0.13043499999999852
        },
        {
          "name": "G#2",
          "midi": 44,
          "time": 38.60875999999975,
          "velocity": 0.49606299212598426,
          "duration": 0.13043499999999852
        },
        {
          "name": "G#2",
          "midi": 44,
          "time": 38.73919499999975,
          "velocity": 0.49606299212598426,
          "duration": 0.13043499999999852
        },
        {
          "name": "C2",
          "midi": 36,
          "time": 38.73919499999975,
          "velocity": 0.6377952755905512,
          "duration": 0.13043499999999852
        },
        {
          "name": "E2",
          "midi": 40,
          "time": 38.869629999999745,
          "velocity": 0.6377952755905512,
          "duration": 0.13043499999999852
        },
        {
          "name": "C2",
          "midi": 36,
          "time": 39.00006499999974,
          "velocity": 0.6299212598425197,
          "duration": 0.13043499999999852
        },
        {
          "name": "G#2",
          "midi": 44,
          "time": 39.00006499999974,
          "velocity": 0.49606299212598426,
          "duration": 0.13043499999999852
        },
        {
          "name": "G#2",
          "midi": 44,
          "time": 39.13049999999974,
          "velocity": 0.49606299212598426,
          "duration": 0.13043499999999852
        },
        {
          "name": "C2",
          "midi": 36,
          "time": 39.13049999999974,
          "velocity": 0.6299212598425197,
          "duration": 0.13043499999999852
        },
        {
          "name": "G#2",
          "midi": 44,
          "time": 39.26093499999974,
          "velocity": 0.49606299212598426,
          "duration": 0.13043499999999852
        },
        {
          "name": "E2",
          "midi": 40,
          "time": 39.39136999999974,
          "velocity": 0.6299212598425197,
          "duration": 0.13043499999999852
        },
        {
          "name": "C2",
          "midi": 36,
          "time": 39.39136999999974,
          "velocity": 0.6299212598425197,
          "duration": 0.13043499999999852
        },
        {
          "name": "G#2",
          "midi": 44,
          "time": 39.652239999999736,
          "velocity": 0.49606299212598426,
          "duration": 0.13043499999999852
        },
        {
          "name": "C2",
          "midi": 36,
          "time": 39.652239999999736,
          "velocity": 0.6456692913385826,
          "duration": 0.13043499999999852
        },
        {
          "name": "G#2",
          "midi": 44,
          "time": 39.782674999999735,
          "velocity": 0.49606299212598426,
          "duration": 0.13043499999999852
        },
        {
          "name": "E2",
          "midi": 40,
          "time": 39.91310999999973,
          "velocity": 0.6456692913385826,
          "duration": 0.13043499999999852
        },
        {
          "name": "G#2",
          "midi": 44,
          "time": 40.04354499999973,
          "velocity": 0.49606299212598426,
          "duration": 0.13043499999999852
        },
        {
          "name": "G#2",
          "midi": 44,
          "time": 40.17397999999973,
          "velocity": 0.49606299212598426,
          "duration": 0.13043499999999852
        },
        {
          "name": "C2",
          "midi": 36,
          "time": 40.17397999999973,
          "velocity": 0.6456692913385826,
          "duration": 0.13043499999999852
        },
        {
          "name": "G#2",
          "midi": 44,
          "time": 40.30441499999973,
          "velocity": 0.49606299212598426,
          "duration": 0.13043499999999852
        },
        {
          "name": "E2",
          "midi": 40,
          "time": 40.30441499999973,
          "velocity": 0.6377952755905512,
          "duration": 0.13043499999999852
        },
        {
          "name": "C2",
          "midi": 36,
          "time": 40.565284999999726,
          "velocity": 0.6377952755905512,
          "duration": 0.13043499999999852
        },
        {
          "name": "E2",
          "midi": 40,
          "time": 40.565284999999726,
          "velocity": 0.6377952755905512,
          "duration": 0.13043499999999852
        },
        {
          "name": "G#2",
          "midi": 44,
          "time": 40.695719999999724,
          "velocity": 0.49606299212598426,
          "duration": 0.13043499999999852
        },
        {
          "name": "A3",
          "midi": 57,
          "time": 40.82615499999972,
          "velocity": 0.6456692913385826,
          "duration": 0.13043499999999852
        },
        {
          "name": "G#2",
          "midi": 44,
          "time": 40.82615499999972,
          "velocity": 0.49606299212598426,
          "duration": 0.13043499999999852
        },
        {
          "name": "C2",
          "midi": 36,
          "time": 40.82615499999972,
          "velocity": 0.6377952755905512,
          "duration": 0.13043499999999852
        },
        {
          "name": "E2",
          "midi": 40,
          "time": 40.95658999999972,
          "velocity": 0.6377952755905512,
          "duration": 0.13043499999999852
        },
        {
          "name": "C2",
          "midi": 36,
          "time": 41.08702499999972,
          "velocity": 0.6299212598425197,
          "duration": 0.13043499999999852
        },
        {
          "name": "C#3",
          "midi": 49,
          "time": 41.08702499999972,
          "velocity": 0.6535433070866141,
          "duration": 0.13043499999999852
        },
        {
          "name": "G#2",
          "midi": 44,
          "time": 41.21745999999972,
          "velocity": 0.49606299212598426,
          "duration": 0.13043499999999852
        },
        {
          "name": "E2",
          "midi": 40,
          "time": 41.21745999999972,
          "velocity": 0.6377952755905512,
          "duration": 0.13043499999999852
        },
        {
          "name": "C2",
          "midi": 36,
          "time": 41.21745999999972,
          "velocity": 0.6299212598425197,
          "duration": 0.13043499999999852
        },
        {
          "name": "A3",
          "midi": 57,
          "time": 41.34789499999972,
          "velocity": 0.6456692913385826,
          "duration": 0.26086999999999705
        },
        {
          "name": "G#2",
          "midi": 44,
          "time": 41.34789499999972,
          "velocity": 0.49606299212598426,
          "duration": 0.13043499999999852
        },
        {
          "name": "E2",
          "midi": 40,
          "time": 41.478329999999715,
          "velocity": 0.6299212598425197,
          "duration": 0.13043499999999852
        },
        {
          "name": "C2",
          "midi": 36,
          "time": 41.478329999999715,
          "velocity": 0.6299212598425197,
          "duration": 0.13043499999999852
        },
        {
          "name": "G#2",
          "midi": 44,
          "time": 41.478329999999715,
          "velocity": 0.49606299212598426,
          "duration": 0.13043499999999852
        },
        {
          "name": "A3",
          "midi": 57,
          "time": 41.73919999999971,
          "velocity": 0.6456692913385826,
          "duration": 0.13043499999999852
        },
        {
          "name": "A#2",
          "midi": 46,
          "time": 41.73919999999971,
          "velocity": 0.3858267716535433,
          "duration": 0.13043499999999852
        },
        {
          "name": "C2",
          "midi": 36,
          "time": 41.73919999999971,
          "velocity": 0.6456692913385826,
          "duration": 0.13043499999999852
        },
        {
          "name": "A#2",
          "midi": 46,
          "time": 42.00006999999971,
          "velocity": 0.3858267716535433,
          "duration": 0.13043499999999852
        },
        {
          "name": "E2",
          "midi": 40,
          "time": 42.00006999999971,
          "velocity": 0.6456692913385826,
          "duration": 0.13043499999999852
        },
        {
          "name": "A#2",
          "midi": 46,
          "time": 42.26093999999971,
          "velocity": 0.3858267716535433,
          "duration": 0.13043499999999852
        },
        {
          "name": "C2",
          "midi": 36,
          "time": 42.26093999999971,
          "velocity": 0.6456692913385826,
          "duration": 0.13043499999999852
        },
        {
          "name": "A#2",
          "midi": 46,
          "time": 42.521809999999704,
          "velocity": 0.3858267716535433,
          "duration": 0.13043499999999852
        },
        {
          "name": "E2",
          "midi": 40,
          "time": 42.521809999999704,
          "velocity": 0.6377952755905512,
          "duration": 0.13043499999999852
        },
        {
          "name": "C2",
          "midi": 36,
          "time": 42.6522449999997,
          "velocity": 0.6377952755905512,
          "duration": 0.13043499999999852
        },
        {
          "name": "A#2",
          "midi": 46,
          "time": 42.7826799999997,
          "velocity": 0.3858267716535433,
          "duration": 0.13043499999999852
        },
        {
          "name": "C2",
          "midi": 36,
          "time": 42.9131149999997,
          "velocity": 0.6377952755905512,
          "duration": 0.13043499999999852
        },
        {
          "name": "A#2",
          "midi": 46,
          "time": 43.0435499999997,
          "velocity": 0.3858267716535433,
          "duration": 0.13043499999999852
        },
        {
          "name": "E2",
          "midi": 40,
          "time": 43.0435499999997,
          "velocity": 0.6377952755905512,
          "duration": 0.13043499999999852
        },
        {
          "name": "C2",
          "midi": 36,
          "time": 43.173984999999696,
          "velocity": 0.6299212598425197,
          "duration": 0.13043499999999852
        },
        {
          "name": "A#2",
          "midi": 46,
          "time": 43.304419999999695,
          "velocity": 0.3858267716535433,
          "duration": 0.13043499999999852
        },
        {
          "name": "C2",
          "midi": 36,
          "time": 43.304419999999695,
          "velocity": 0.6299212598425197,
          "duration": 0.13043499999999852
        },
        {
          "name": "A#2",
          "midi": 46,
          "time": 43.56528999999969,
          "velocity": 0.3858267716535433,
          "duration": 0.13043499999999852
        },
        {
          "name": "C2",
          "midi": 36,
          "time": 43.56528999999969,
          "velocity": 0.6299212598425197,
          "duration": 0.13043499999999852
        },
        {
          "name": "E2",
          "midi": 40,
          "time": 43.56528999999969,
          "velocity": 0.6299212598425197,
          "duration": 0.13043499999999852
        },
        {
          "name": "A#2",
          "midi": 46,
          "time": 43.82615999999969,
          "velocity": 0.3858267716535433,
          "duration": 0.13043499999999852
        },
        {
          "name": "C2",
          "midi": 36,
          "time": 43.82615999999969,
          "velocity": 0.6456692913385826,
          "duration": 0.13043499999999852
        },
        {
          "name": "A#2",
          "midi": 46,
          "time": 44.087029999999686,
          "velocity": 0.3858267716535433,
          "duration": 0.13043499999999852
        },
        {
          "name": "E2",
          "midi": 40,
          "time": 44.087029999999686,
          "velocity": 0.6456692913385826,
          "duration": 0.13043499999999852
        },
        {
          "name": "A#2",
          "midi": 46,
          "time": 44.34789999999968,
          "velocity": 0.3858267716535433,
          "duration": 0.13043499999999852
        },
        {
          "name": "C2",
          "midi": 36,
          "time": 44.34789999999968,
          "velocity": 0.6456692913385826,
          "duration": 0.13043499999999852
        },
        {
          "name": "E2",
          "midi": 40,
          "time": 44.60876999999968,
          "velocity": 0.6377952755905512,
          "duration": 0.13043499999999852
        },
        {
          "name": "A#2",
          "midi": 46,
          "time": 44.60876999999968,
          "velocity": 0.3858267716535433,
          "duration": 0.13043499999999852
        },
        {
          "name": "C2",
          "midi": 36,
          "time": 44.73920499999968,
          "velocity": 0.6377952755905512,
          "duration": 0.13043499999999852
        },
        {
          "name": "A#2",
          "midi": 46,
          "time": 44.86963999999968,
          "velocity": 0.3858267716535433,
          "duration": 0.13043499999999852
        },
        {
          "name": "C2",
          "midi": 36,
          "time": 45.000074999999676,
          "velocity": 0.6377952755905512,
          "duration": 0.13043499999999852
        },
        {
          "name": "E2",
          "midi": 40,
          "time": 45.130509999999674,
          "velocity": 0.6377952755905512,
          "duration": 0.13043499999999852
        },
        {
          "name": "A#2",
          "midi": 46,
          "time": 45.130509999999674,
          "velocity": 0.3858267716535433,
          "duration": 0.13043499999999852
        },
        {
          "name": "C2",
          "midi": 36,
          "time": 45.26094499999967,
          "velocity": 0.6299212598425197,
          "duration": 0.13043499999999852
        },
        {
          "name": "A#2",
          "midi": 46,
          "time": 45.39137999999967,
          "velocity": 0.3858267716535433,
          "duration": 0.13043499999999852
        },
        {
          "name": "C2",
          "midi": 36,
          "time": 45.39137999999967,
          "velocity": 0.6299212598425197,
          "duration": 0.13043499999999852
        },
        {
          "name": "E2",
          "midi": 40,
          "time": 45.65224999999967,
          "velocity": 0.6299212598425197,
          "duration": 0.13043499999999852
        },
        {
          "name": "C2",
          "midi": 36,
          "time": 45.65224999999967,
          "velocity": 0.6299212598425197,
          "duration": 0.13043499999999852
        },
        {
          "name": "A#2",
          "midi": 46,
          "time": 45.65224999999967,
          "velocity": 0.3858267716535433,
          "duration": 0.13043499999999852
        },
        {
          "name": "A#2",
          "midi": 46,
          "time": 45.913119999999665,
          "velocity": 0.3858267716535433,
          "duration": 0.13043499999999852
        },
        {
          "name": "C2",
          "midi": 36,
          "time": 45.913119999999665,
          "velocity": 0.6456692913385826,
          "duration": 0.13043499999999852
        },
        {
          "name": "A#2",
          "midi": 46,
          "time": 46.17398999999966,
          "velocity": 0.3858267716535433,
          "duration": 0.13043499999999852
        },
        {
          "name": "E2",
          "midi": 40,
          "time": 46.17398999999966,
          "velocity": 0.6456692913385826,
          "duration": 0.13043499999999852
        },
        {
          "name": "A#2",
          "midi": 46,
          "time": 46.43485999999966,
          "velocity": 0.3858267716535433,
          "duration": 0.13043499999999852
        },
        {
          "name": "C2",
          "midi": 36,
          "time": 46.43485999999966,
          "velocity": 0.6456692913385826,
          "duration": 0.13043499999999852
        },
        {
          "name": "A#2",
          "midi": 46,
          "time": 46.69572999999966,
          "velocity": 0.3858267716535433,
          "duration": 0.13043499999999852
        },
        {
          "name": "E2",
          "midi": 40,
          "time": 46.69572999999966,
          "velocity": 0.6377952755905512,
          "duration": 0.13043499999999852
        },
        {
          "name": "C2",
          "midi": 36,
          "time": 46.826164999999655,
          "velocity": 0.6377952755905512,
          "duration": 0.13043499999999852
        },
        {
          "name": "A#2",
          "midi": 46,
          "time": 46.95659999999965,
          "velocity": 0.3858267716535433,
          "duration": 0.13043499999999852
        },
        {
          "name": "C2",
          "midi": 36,
          "time": 47.08703499999965,
          "velocity": 0.6377952755905512,
          "duration": 0.13043499999999852
        },
        {
          "name": "A#2",
          "midi": 46,
          "time": 47.21746999999965,
          "velocity": 0.3858267716535433,
          "duration": 0.13043499999999852
        },
        {
          "name": "E2",
          "midi": 40,
          "time": 47.21746999999965,
          "velocity": 0.6377952755905512,
          "duration": 0.13043499999999852
        },
        {
          "name": "C2",
          "midi": 36,
          "time": 47.34790499999965,
          "velocity": 0.6299212598425197,
          "duration": 0.13043499999999852
        },
        {
          "name": "A#2",
          "midi": 46,
          "time": 47.47833999999965,
          "velocity": 0.3858267716535433,
          "duration": 0.13043499999999852
        },
        {
          "name": "C2",
          "midi": 36,
          "time": 47.47833999999965,
          "velocity": 0.6299212598425197,
          "duration": 0.13043499999999852
        },
        {
          "name": "A#2",
          "midi": 46,
          "time": 47.739209999999645,
          "velocity": 0.3858267716535433,
          "duration": 0.13043499999999852
        },
        {
          "name": "C2",
          "midi": 36,
          "time": 47.739209999999645,
          "velocity": 0.6299212598425197,
          "duration": 0.13043499999999852
        },
        {
          "name": "E2",
          "midi": 40,
          "time": 47.739209999999645,
          "velocity": 0.6299212598425197,
          "duration": 0.13043499999999852
        },
        {
          "name": "A#2",
          "midi": 46,
          "time": 48.00007999999964,
          "velocity": 0.3858267716535433,
          "duration": 0.13043499999999852
        },
        {
          "name": "C2",
          "midi": 36,
          "time": 48.00007999999964,
          "velocity": 0.6456692913385826,
          "duration": 0.13043499999999852
        },
        {
          "name": "A#2",
          "midi": 46,
          "time": 48.26094999999964,
          "velocity": 0.3858267716535433,
          "duration": 0.13043499999999852
        },
        {
          "name": "E2",
          "midi": 40,
          "time": 48.26094999999964,
          "velocity": 0.6456692913385826,
          "duration": 0.13043499999999852
        },
        {
          "name": "A#2",
          "midi": 46,
          "time": 48.521819999999636,
          "velocity": 0.3858267716535433,
          "duration": 0.13043499999999852
        },
        {
          "name": "C2",
          "midi": 36,
          "time": 48.521819999999636,
          "velocity": 0.6456692913385826,
          "duration": 0.13043499999999852
        },
        {
          "name": "E2",
          "midi": 40,
          "time": 48.652254999999634,
          "velocity": 0.6377952755905512,
          "duration": 0.13043499999999852
        },
        {
          "name": "A#2",
          "midi": 46,
          "time": 48.78268999999963,
          "velocity": 0.3858267716535433,
          "duration": 0.13043499999999852
        },
        {
          "name": "C2",
          "midi": 36,
          "time": 48.91312499999963,
          "velocity": 0.6377952755905512,
          "duration": 0.13043499999999852
        },
        {
          "name": "E2",
          "midi": 40,
          "time": 48.91312499999963,
          "velocity": 0.6377952755905512,
          "duration": 0.13043499999999852
        },
        {
          "name": "A#2",
          "midi": 46,
          "time": 49.04355999999963,
          "velocity": 0.3858267716535433,
          "duration": 0.13043499999999852
        },
        {
          "name": "C2",
          "midi": 36,
          "time": 49.17399499999963,
          "velocity": 0.6377952755905512,
          "duration": 0.13043499999999852
        },
        {
          "name": "A3",
          "midi": 57,
          "time": 49.17399499999963,
          "velocity": 0.6456692913385826,
          "duration": 0.13043499999999852
        },
        {
          "name": "E2",
          "midi": 40,
          "time": 49.30442999999963,
          "velocity": 0.6377952755905512,
          "duration": 0.13043499999999852
        },
        {
          "name": "A#2",
          "midi": 46,
          "time": 49.30442999999963,
          "velocity": 0.3858267716535433,
          "duration": 0.13043499999999852
        },
        {
          "name": "C#3",
          "midi": 49,
          "time": 49.434864999999625,
          "velocity": 0.6535433070866141,
          "duration": 0.13043499999999852
        },
        {
          "name": "C2",
          "midi": 36,
          "time": 49.434864999999625,
          "velocity": 0.6299212598425197,
          "duration": 0.13043499999999852
        },
        {
          "name": "A#2",
          "midi": 46,
          "time": 49.565299999999624,
          "velocity": 0.3858267716535433,
          "duration": 0.13043499999999852
        },
        {
          "name": "C2",
          "midi": 36,
          "time": 49.565299999999624,
          "velocity": 0.6299212598425197,
          "duration": 0.13043499999999852
        },
        {
          "name": "E2",
          "midi": 40,
          "time": 49.565299999999624,
          "velocity": 0.6377952755905512,
          "duration": 0.13043499999999852
        },
        {
          "name": "A3",
          "midi": 57,
          "time": 49.69573499999962,
          "velocity": 0.6456692913385826,
          "duration": 0.26086999999999705
        },
        {
          "name": "E2",
          "midi": 40,
          "time": 49.82616999999962,
          "velocity": 0.6299212598425197,
          "duration": 0.13043499999999852
        },
        {
          "name": "C2",
          "midi": 36,
          "time": 49.82616999999962,
          "velocity": 0.6299212598425197,
          "duration": 0.13043499999999852
        },
        {
          "name": "A#2",
          "midi": 46,
          "time": 49.82616999999962,
          "velocity": 0.3858267716535433,
          "duration": 0.13043499999999852
        },
        {
          "name": "A3",
          "midi": 57,
          "time": 50.08703999999962,
          "velocity": 0.6456692913385826,
          "duration": 0.13043499999999852
        },
        {
          "name": "A#2",
          "midi": 46,
          "time": 50.08703999999962,
          "velocity": 0.3858267716535433,
          "duration": 0.13043499999999852
        },
        {
          "name": "C2",
          "midi": 36,
          "time": 50.08703999999962,
          "velocity": 0.6456692913385826,
          "duration": 0.13043499999999852
        },
        {
          "name": "A3",
          "midi": 57,
          "time": 50.08703999999962,
          "velocity": 0.6456692913385826,
          "duration": 0.13043499999999852
        },
        {
          "name": "A#2",
          "midi": 46,
          "time": 50.347909999999615,
          "velocity": 0.3858267716535433,
          "duration": 0.13043499999999852
        },
        {
          "name": "E2",
          "midi": 40,
          "time": 50.347909999999615,
          "velocity": 0.6456692913385826,
          "duration": 0.13043499999999852
        },
        {
          "name": "A#2",
          "midi": 46,
          "time": 50.60877999999961,
          "velocity": 0.3858267716535433,
          "duration": 0.13043499999999852
        },
        {
          "name": "C2",
          "midi": 36,
          "time": 50.60877999999961,
          "velocity": 0.6456692913385826,
          "duration": 0.13043499999999852
        },
        {
          "name": "A#2",
          "midi": 46,
          "time": 50.86964999999961,
          "velocity": 0.3858267716535433,
          "duration": 0.13043499999999852
        },
        {
          "name": "E2",
          "midi": 40,
          "time": 50.86964999999961,
          "velocity": 0.6377952755905512,
          "duration": 0.13043499999999852
        },
        {
          "name": "C2",
          "midi": 36,
          "time": 51.00008499999961,
          "velocity": 0.6377952755905512,
          "duration": 0.13043499999999852
        },
        {
          "name": "A#2",
          "midi": 46,
          "time": 51.130519999999606,
          "velocity": 0.3858267716535433,
          "duration": 0.13043499999999852
        },
        {
          "name": "C2",
          "midi": 36,
          "time": 51.260954999999605,
          "velocity": 0.6377952755905512,
          "duration": 0.13043499999999852
        },
        {
          "name": "A#2",
          "midi": 46,
          "time": 51.3913899999996,
          "velocity": 0.3858267716535433,
          "duration": 0.13043499999999852
        },
        {
          "name": "E2",
          "midi": 40,
          "time": 51.3913899999996,
          "velocity": 0.6377952755905512,
          "duration": 0.13043499999999852
        },
        {
          "name": "C2",
          "midi": 36,
          "time": 51.5218249999996,
          "velocity": 0.6299212598425197,
          "duration": 0.13043499999999852
        },
        {
          "name": "A#2",
          "midi": 46,
          "time": 51.6522599999996,
          "velocity": 0.3858267716535433,
          "duration": 0.13043499999999852
        },
        {
          "name": "C2",
          "midi": 36,
          "time": 51.6522599999996,
          "velocity": 0.6299212598425197,
          "duration": 0.13043499999999852
        },
        {
          "name": "A#2",
          "midi": 46,
          "time": 51.9131299999996,
          "velocity": 0.3858267716535433,
          "duration": 0.13043499999999852
        },
        {
          "name": "C2",
          "midi": 36,
          "time": 51.9131299999996,
          "velocity": 0.6299212598425197,
          "duration": 0.13043499999999852
        },
        {
          "name": "E2",
          "midi": 40,
          "time": 51.9131299999996,
          "velocity": 0.6299212598425197,
          "duration": 0.13043499999999852
        },
        {
          "name": "A#2",
          "midi": 46,
          "time": 52.173999999999594,
          "velocity": 0.3858267716535433,
          "duration": 0.13043499999999852
        },
        {
          "name": "C2",
          "midi": 36,
          "time": 52.173999999999594,
          "velocity": 0.6456692913385826,
          "duration": 0.13043499999999852
        },
        {
          "name": "A#2",
          "midi": 46,
          "time": 52.43486999999959,
          "velocity": 0.3858267716535433,
          "duration": 0.13043499999999852
        },
        {
          "name": "E2",
          "midi": 40,
          "time": 52.43486999999959,
          "velocity": 0.6456692913385826,
          "duration": 0.13043499999999852
        },
        {
          "name": "A#2",
          "midi": 46,
          "time": 52.69573999999959,
          "velocity": 0.3858267716535433,
          "duration": 0.13043499999999852
        },
        {
          "name": "C2",
          "midi": 36,
          "time": 52.69573999999959,
          "velocity": 0.6456692913385826,
          "duration": 0.13043499999999852
        },
        {
          "name": "E2",
          "midi": 40,
          "time": 52.956609999999586,
          "velocity": 0.6377952755905512,
          "duration": 0.13043499999999852
        },
        {
          "name": "A#2",
          "midi": 46,
          "time": 52.956609999999586,
          "velocity": 0.3858267716535433,
          "duration": 0.13043499999999852
        },
        {
          "name": "C2",
          "midi": 36,
          "time": 53.087044999999584,
          "velocity": 0.6377952755905512,
          "duration": 0.13043499999999852
        },
        {
          "name": "A#2",
          "midi": 46,
          "time": 53.21747999999958,
          "velocity": 0.3858267716535433,
          "duration": 0.13043499999999852
        },
        {
          "name": "C2",
          "midi": 36,
          "time": 53.34791499999958,
          "velocity": 0.6377952755905512,
          "duration": 0.13043499999999852
        },
        {
          "name": "E2",
          "midi": 40,
          "time": 53.47834999999958,
          "velocity": 0.6377952755905512,
          "duration": 0.13043499999999852
        },
        {
          "name": "A#2",
          "midi": 46,
          "time": 53.47834999999958,
          "velocity": 0.3858267716535433,
          "duration": 0.13043499999999852
        },
        {
          "name": "C2",
          "midi": 36,
          "time": 53.60878499999958,
          "velocity": 0.6299212598425197,
          "duration": 0.13043499999999852
        },
        {
          "name": "A#2",
          "midi": 46,
          "time": 53.73921999999958,
          "velocity": 0.3858267716535433,
          "duration": 0.13043499999999852
        },
        {
          "name": "C2",
          "midi": 36,
          "time": 53.73921999999958,
          "velocity": 0.6299212598425197,
          "duration": 0.13043499999999852
        },
        {
          "name": "E2",
          "midi": 40,
          "time": 54.000089999999574,
          "velocity": 0.6299212598425197,
          "duration": 0.13043499999999852
        },
        {
          "name": "C2",
          "midi": 36,
          "time": 54.000089999999574,
          "velocity": 0.6299212598425197,
          "duration": 0.13043499999999852
        },
        {
          "name": "A#2",
          "midi": 46,
          "time": 54.000089999999574,
          "velocity": 0.3858267716535433,
          "duration": 0.13043499999999852
        },
        {
          "name": "A#2",
          "midi": 46,
          "time": 54.26095999999957,
          "velocity": 0.3858267716535433,
          "duration": 0.13043499999999852
        },
        {
          "name": "C2",
          "midi": 36,
          "time": 54.26095999999957,
          "velocity": 0.6456692913385826,
          "duration": 0.13043499999999852
        },
        {
          "name": "A#2",
          "midi": 46,
          "time": 54.52182999999957,
          "velocity": 0.3858267716535433,
          "duration": 0.13043499999999852
        },
        {
          "name": "E2",
          "midi": 40,
          "time": 54.52182999999957,
          "velocity": 0.6456692913385826,
          "duration": 0.13043499999999852
        },
        {
          "name": "A#2",
          "midi": 46,
          "time": 54.782699999999565,
          "velocity": 0.3858267716535433,
          "duration": 0.13043499999999852
        },
        {
          "name": "C2",
          "midi": 36,
          "time": 54.782699999999565,
          "velocity": 0.6456692913385826,
          "duration": 0.13043499999999852
        },
        {
          "name": "A#2",
          "midi": 46,
          "time": 55.04356999999956,
          "velocity": 0.3858267716535433,
          "duration": 0.13043499999999852
        },
        {
          "name": "E2",
          "midi": 40,
          "time": 55.04356999999956,
          "velocity": 0.6377952755905512,
          "duration": 0.13043499999999852
        },
        {
          "name": "C2",
          "midi": 36,
          "time": 55.17400499999956,
          "velocity": 0.6377952755905512,
          "duration": 0.13043499999999852
        },
        {
          "name": "A#2",
          "midi": 46,
          "time": 55.30443999999956,
          "velocity": 0.3858267716535433,
          "duration": 0.13043499999999852
        },
        {
          "name": "C2",
          "midi": 36,
          "time": 55.43487499999956,
          "velocity": 0.6377952755905512,
          "duration": 0.13043499999999852
        },
        {
          "name": "A#2",
          "midi": 46,
          "time": 55.565309999999556,
          "velocity": 0.3858267716535433,
          "duration": 0.13043499999999852
        },
        {
          "name": "E2",
          "midi": 40,
          "time": 55.565309999999556,
          "velocity": 0.6377952755905512,
          "duration": 0.13043499999999852
        },
        {
          "name": "C2",
          "midi": 36,
          "time": 55.695744999999555,
          "velocity": 0.6299212598425197,
          "duration": 0.13043499999999852
        },
        {
          "name": "A#2",
          "midi": 46,
          "time": 55.82617999999955,
          "velocity": 0.3858267716535433,
          "duration": 0.13043499999999852
        },
        {
          "name": "C2",
          "midi": 36,
          "time": 55.82617999999955,
          "velocity": 0.6299212598425197,
          "duration": 0.13043499999999852
        },
        {
          "name": "A#2",
          "midi": 46,
          "time": 56.08704999999955,
          "velocity": 0.3858267716535433,
          "duration": 0.13043499999999852
        },
        {
          "name": "C2",
          "midi": 36,
          "time": 56.08704999999955,
          "velocity": 0.6299212598425197,
          "duration": 0.13043499999999852
        },
        {
          "name": "E2",
          "midi": 40,
          "time": 56.08704999999955,
          "velocity": 0.6299212598425197,
          "duration": 0.13043499999999852
        },
        {
          "name": "A#2",
          "midi": 46,
          "time": 56.34791999999955,
          "velocity": 0.3858267716535433,
          "duration": 0.13043499999999852
        },
        {
          "name": "C2",
          "midi": 36,
          "time": 56.34791999999955,
          "velocity": 0.6456692913385826,
          "duration": 0.13043499999999852
        },
        {
          "name": "A#2",
          "midi": 46,
          "time": 56.608789999999544,
          "velocity": 0.3858267716535433,
          "duration": 0.13043499999999852
        },
        {
          "name": "E2",
          "midi": 40,
          "time": 56.608789999999544,
          "velocity": 0.6456692913385826,
          "duration": 0.13043499999999852
        },
        {
          "name": "A#2",
          "midi": 46,
          "time": 56.86965999999954,
          "velocity": 0.3858267716535433,
          "duration": 0.13043499999999852
        },
        {
          "name": "C2",
          "midi": 36,
          "time": 56.86965999999954,
          "velocity": 0.6456692913385826,
          "duration": 0.13043499999999852
        },
        {
          "name": "E2",
          "midi": 40,
          "time": 57.00009499999954,
          "velocity": 0.6377952755905512,
          "duration": 0.13043499999999852
        },
        {
          "name": "A#2",
          "midi": 46,
          "time": 57.13052999999954,
          "velocity": 0.3858267716535433,
          "duration": 0.13043499999999852
        },
        {
          "name": "C2",
          "midi": 36,
          "time": 57.26096499999954,
          "velocity": 0.6377952755905512,
          "duration": 0.13043499999999852
        },
        {
          "name": "E2",
          "midi": 40,
          "time": 57.26096499999954,
          "velocity": 0.6377952755905512,
          "duration": 0.13043499999999852
        },
        {
          "name": "A#2",
          "midi": 46,
          "time": 57.391399999999535,
          "velocity": 0.3858267716535433,
          "duration": 0.13043499999999852
        },
        {
          "name": "C2",
          "midi": 36,
          "time": 57.521834999999534,
          "velocity": 0.6377952755905512,
          "duration": 0.13043499999999852
        },
        {
          "name": "A3",
          "midi": 57,
          "time": 57.521834999999534,
          "velocity": 0.6456692913385826,
          "duration": 0.13043499999999852
        },
        {
          "name": "E2",
          "midi": 40,
          "time": 57.65226999999953,
          "velocity": 0.6377952755905512,
          "duration": 0.13043499999999852
        },
        {
          "name": "A#2",
          "midi": 46,
          "time": 57.65226999999953,
          "velocity": 0.3858267716535433,
          "duration": 0.13043499999999852
        },
        {
          "name": "C#3",
          "midi": 49,
          "time": 57.78270499999953,
          "velocity": 0.6535433070866141,
          "duration": 0.13043499999999852
        },
        {
          "name": "C2",
          "midi": 36,
          "time": 57.78270499999953,
          "velocity": 0.6299212598425197,
          "duration": 0.13043499999999852
        },
        {
          "name": "E2",
          "midi": 40,
          "time": 57.78270499999953,
          "velocity": 0.6377952755905512,
          "duration": 0.13043499999999852
        },
        {
          "name": "A#2",
          "midi": 46,
          "time": 57.91313999999953,
          "velocity": 0.3858267716535433,
          "duration": 0.13043499999999852
        },
        {
          "name": "C2",
          "midi": 36,
          "time": 57.91313999999953,
          "velocity": 0.6299212598425197,
          "duration": 0.13043499999999852
        },
        {
          "name": "E2",
          "midi": 40,
          "time": 58.04357499999953,
          "velocity": 0.6299212598425197,
          "duration": 0.13043499999999852
        },
        {
          "name": "A3",
          "midi": 57,
          "time": 58.04357499999953,
          "velocity": 0.6456692913385826,
          "duration": 0.26086999999999705
        },
        {
          "name": "E2",
          "midi": 40,
          "time": 58.17400999999953,
          "velocity": 0.6299212598425197,
          "duration": 0.13043499999999852
        },
        {
          "name": "C2",
          "midi": 36,
          "time": 58.17400999999953,
          "velocity": 0.6299212598425197,
          "duration": 0.13043499999999852
        },
        {
          "name": "A#2",
          "midi": 46,
          "time": 58.17400999999953,
          "velocity": 0.3858267716535433,
          "duration": 0.13043499999999852
        },
        {
          "name": "A3",
          "midi": 57,
          "time": 58.434879999999524,
          "velocity": 0.6456692913385826,
          "duration": 0.13043499999999852
        },
        {
          "name": "A3",
          "midi": 57,
          "time": 58.434879999999524,
          "velocity": 0.6456692913385826,
          "duration": 0.13043499999999852
        },
        {
          "name": "A#2",
          "midi": 46,
          "time": 58.434879999999524,
          "velocity": 0.3858267716535433,
          "duration": 0.13043499999999852
        },
        {
          "name": "C2",
          "midi": 36,
          "time": 58.434879999999524,
          "velocity": 0.6456692913385826,
          "duration": 0.13043499999999852
        },
        {
          "name": "A3",
          "midi": 57,
          "time": 58.434879999999524,
          "velocity": 0.6456692913385826,
          "duration": 0.13043499999999852
        },
        {
          "name": "A#2",
          "midi": 46,
          "time": 58.69574999999952,
          "velocity": 0.3858267716535433,
          "duration": 0.13043499999999852
        },
        {
          "name": "E2",
          "midi": 40,
          "time": 58.69574999999952,
          "velocity": 0.6456692913385826,
          "duration": 0.13043499999999852
        },
        {
          "name": "C2",
          "midi": 36,
          "time": 58.95661999999952,
          "velocity": 0.6456692913385826,
          "duration": 0.13043499999999852
        },
        {
          "name": "A#2",
          "midi": 46,
          "time": 58.95661999999952,
          "velocity": 0.3858267716535433,
          "duration": 0.13043499999999852
        },
        {
          "name": "E2",
          "midi": 40,
          "time": 59.217489999999515,
          "velocity": 0.6377952755905512,
          "duration": 0.13043499999999852
        },
        {
          "name": "A#2",
          "midi": 46,
          "time": 59.217489999999515,
          "velocity": 0.3858267716535433,
          "duration": 0.13043499999999852
        },
        {
          "name": "C2",
          "midi": 36,
          "time": 59.34792499999951,
          "velocity": 0.6377952755905512,
          "duration": 0.13043499999999852
        },
        {
          "name": "A#2",
          "midi": 46,
          "time": 59.47835999999951,
          "velocity": 0.3858267716535433,
          "duration": 0.13043499999999852
        },
        {
          "name": "C2",
          "midi": 36,
          "time": 59.60879499999951,
          "velocity": 0.6377952755905512,
          "duration": 0.13043499999999852
        },
        {
          "name": "E2",
          "midi": 40,
          "time": 59.73922999999951,
          "velocity": 0.6377952755905512,
          "duration": 0.13043499999999852
        },
        {
          "name": "A#2",
          "midi": 46,
          "time": 59.73922999999951,
          "velocity": 0.3858267716535433,
          "duration": 0.13043499999999852
        },
        {
          "name": "C2",
          "midi": 36,
          "time": 59.86966499999951,
          "velocity": 0.6299212598425197,
          "duration": 0.13043499999999852
        },
        {
          "name": "C2",
          "midi": 36,
          "time": 60.000099999999506,
          "velocity": 0.6299212598425197,
          "duration": 0.13043499999999852
        },
        {
          "name": "A#2",
          "midi": 46,
          "time": 60.000099999999506,
          "velocity": 0.3858267716535433,
          "duration": 0.13043499999999852
        },
        {
          "name": "A#2",
          "midi": 46,
          "time": 60.2609699999995,
          "velocity": 0.3858267716535433,
          "duration": 0.13043499999999852
        },
        {
          "name": "C2",
          "midi": 36,
          "time": 60.2609699999995,
          "velocity": 0.6299212598425197,
          "duration": 0.13043499999999852
        },
        {
          "name": "E2",
          "midi": 40,
          "time": 60.2609699999995,
          "velocity": 0.6299212598425197,
          "duration": 0.13043499999999852
        },
        {
          "name": "A#2",
          "midi": 46,
          "time": 60.5218399999995,
          "velocity": 0.3858267716535433,
          "duration": 0.13043499999999852
        },
        {
          "name": "C2",
          "midi": 36,
          "time": 60.5218399999995,
          "velocity": 0.6456692913385826,
          "duration": 0.13043499999999852
        },
        {
          "name": "A#2",
          "midi": 46,
          "time": 60.7827099999995,
          "velocity": 0.3858267716535433,
          "duration": 0.13043499999999852
        },
        {
          "name": "E2",
          "midi": 40,
          "time": 60.7827099999995,
          "velocity": 0.6456692913385826,
          "duration": 0.13043499999999852
        },
        {
          "name": "C2",
          "midi": 36,
          "time": 61.043579999999494,
          "velocity": 0.6456692913385826,
          "duration": 0.13043499999999852
        },
        {
          "name": "A#2",
          "midi": 46,
          "time": 61.043579999999494,
          "velocity": 0.3858267716535433,
          "duration": 0.13043499999999852
        },
        {
          "name": "A#2",
          "midi": 46,
          "time": 61.30444999999949,
          "velocity": 0.3858267716535433,
          "duration": 0.13043499999999852
        },
        {
          "name": "E2",
          "midi": 40,
          "time": 61.30444999999949,
          "velocity": 0.6377952755905512,
          "duration": 0.13043499999999852
        },
        {
          "name": "C2",
          "midi": 36,
          "time": 61.43488499999949,
          "velocity": 0.6377952755905512,
          "duration": 0.13043499999999852
        },
        {
          "name": "A#2",
          "midi": 46,
          "time": 61.56531999999949,
          "velocity": 0.3858267716535433,
          "duration": 0.13043499999999852
        },
        {
          "name": "C2",
          "midi": 36,
          "time": 61.69575499999949,
          "velocity": 0.6377952755905512,
          "duration": 0.13043499999999852
        },
        {
          "name": "A#2",
          "midi": 46,
          "time": 61.826189999999485,
          "velocity": 0.3858267716535433,
          "duration": 0.13043499999999852
        },
        {
          "name": "E2",
          "midi": 40,
          "time": 61.826189999999485,
          "velocity": 0.6377952755905512,
          "duration": 0.13043499999999852
        },
        {
          "name": "C2",
          "midi": 36,
          "time": 61.956624999999484,
          "velocity": 0.6299212598425197,
          "duration": 0.13043499999999852
        },
        {
          "name": "C2",
          "midi": 36,
          "time": 62.08705999999948,
          "velocity": 0.6299212598425197,
          "duration": 0.13043499999999852
        },
        {
          "name": "A#2",
          "midi": 46,
          "time": 62.08705999999948,
          "velocity": 0.3858267716535433,
          "duration": 0.13043499999999852
        },
        {
          "name": "E2",
          "midi": 40,
          "time": 62.34792999999948,
          "velocity": 0.6299212598425197,
          "duration": 0.13043499999999852
        },
        {
          "name": "C2",
          "midi": 36,
          "time": 62.34792999999948,
          "velocity": 0.6299212598425197,
          "duration": 0.13043499999999852
        },
        {
          "name": "A#2",
          "midi": 46,
          "time": 62.34792999999948,
          "velocity": 0.3858267716535433,
          "duration": 0.13043499999999852
        },
        {
          "name": "A#2",
          "midi": 46,
          "time": 62.608799999999476,
          "velocity": 0.3858267716535433,
          "duration": 0.13043499999999852
        },
        {
          "name": "C2",
          "midi": 36,
          "time": 62.608799999999476,
          "velocity": 0.6456692913385826,
          "duration": 0.13043499999999852
        },
        {
          "name": "A#2",
          "midi": 46,
          "time": 62.86966999999947,
          "velocity": 0.3858267716535433,
          "duration": 0.13043499999999852
        },
        {
          "name": "E2",
          "midi": 40,
          "time": 62.86966999999947,
          "velocity": 0.6456692913385826,
          "duration": 0.13043499999999852
        },
        {
          "name": "C2",
          "midi": 36,
          "time": 63.13053999999947,
          "velocity": 0.6456692913385826,
          "duration": 0.13043499999999852
        },
        {
          "name": "A#2",
          "midi": 46,
          "time": 63.13053999999947,
          "velocity": 0.3858267716535433,
          "duration": 0.13043499999999852
        },
        {
          "name": "E2",
          "midi": 40,
          "time": 63.39140999999947,
          "velocity": 0.6377952755905512,
          "duration": 0.13043499999999852
        },
        {
          "name": "A#2",
          "midi": 46,
          "time": 63.39140999999947,
          "velocity": 0.3858267716535433,
          "duration": 0.13043499999999852
        },
        {
          "name": "C2",
          "midi": 36,
          "time": 63.521844999999466,
          "velocity": 0.6377952755905512,
          "duration": 0.13043499999999852
        },
        {
          "name": "A#2",
          "midi": 46,
          "time": 63.652279999999465,
          "velocity": 0.3858267716535433,
          "duration": 0.13043499999999852
        },
        {
          "name": "C2",
          "midi": 36,
          "time": 63.78271499999946,
          "velocity": 0.6377952755905512,
          "duration": 0.13043499999999852
        },
        {
          "name": "E2",
          "midi": 40,
          "time": 63.91314999999946,
          "velocity": 0.6377952755905512,
          "duration": 0.13043500000000563
        },
        {
          "name": "A#2",
          "midi": 46,
          "time": 63.91314999999946,
          "velocity": 0.3858267716535433,
          "duration": 0.13043500000000563
        },
        {
          "name": "C2",
          "midi": 36,
          "time": 64.04358499999947,
          "velocity": 0.6299212598425197,
          "duration": 0.13043500000000563
        },
        {
          "name": "C2",
          "midi": 36,
          "time": 64.17401999999947,
          "velocity": 0.6299212598425197,
          "duration": 0.13043500000000563
        },
        {
          "name": "A#2",
          "midi": 46,
          "time": 64.17401999999947,
          "velocity": 0.3858267716535433,
          "duration": 0.13043500000000563
        },
        {
          "name": "E2",
          "midi": 40,
          "time": 64.43488999999948,
          "velocity": 0.6299212598425197,
          "duration": 0.13043500000000563
        },
        {
          "name": "C2",
          "midi": 36,
          "time": 64.43488999999948,
          "velocity": 0.6299212598425197,
          "duration": 0.13043500000000563
        },
        {
          "name": "A#2",
          "midi": 46,
          "time": 64.43488999999948,
          "velocity": 0.3858267716535433,
          "duration": 0.13043500000000563
        },
        {
          "name": "A#2",
          "midi": 46,
          "time": 64.6957599999995,
          "velocity": 0.3858267716535433,
          "duration": 0.13043500000000563
        },
        {
          "name": "C2",
          "midi": 36,
          "time": 64.6957599999995,
          "velocity": 0.6456692913385826,
          "duration": 0.13043500000000563
        },
        {
          "name": "A#2",
          "midi": 46,
          "time": 64.9566299999995,
          "velocity": 0.3858267716535433,
          "duration": 0.13043500000000563
        },
        {
          "name": "E2",
          "midi": 40,
          "time": 64.9566299999995,
          "velocity": 0.6456692913385826,
          "duration": 0.13043500000000563
        },
        {
          "name": "C2",
          "midi": 36,
          "time": 65.21749999999952,
          "velocity": 0.6456692913385826,
          "duration": 0.13043500000000563
        },
        {
          "name": "A#2",
          "midi": 46,
          "time": 65.21749999999952,
          "velocity": 0.3858267716535433,
          "duration": 0.13043500000000563
        },
        {
          "name": "E2",
          "midi": 40,
          "time": 65.34793499999952,
          "velocity": 0.6377952755905512,
          "duration": 0.13043500000000563
        },
        {
          "name": "A#2",
          "midi": 46,
          "time": 65.47836999999953,
          "velocity": 0.3858267716535433,
          "duration": 0.13043500000000563
        },
        {
          "name": "E2",
          "midi": 40,
          "time": 65.60880499999953,
          "velocity": 0.6377952755905512,
          "duration": 0.13043500000000563
        },
        {
          "name": "C2",
          "midi": 36,
          "time": 65.60880499999953,
          "velocity": 0.6377952755905512,
          "duration": 0.13043500000000563
        },
        {
          "name": "A#2",
          "midi": 46,
          "time": 65.73923999999954,
          "velocity": 0.3858267716535433,
          "duration": 0.13043500000000563
        },
        {
          "name": "A3",
          "midi": 57,
          "time": 65.86967499999955,
          "velocity": 0.6456692913385826,
          "duration": 0.13043500000000563
        },
        {
          "name": "C2",
          "midi": 36,
          "time": 65.86967499999955,
          "velocity": 0.6377952755905512,
          "duration": 0.13043500000000563
        },
        {
          "name": "A#2",
          "midi": 46,
          "time": 66.00010999999955,
          "velocity": 0.3858267716535433,
          "duration": 0.13043500000000563
        },
        {
          "name": "E2",
          "midi": 40,
          "time": 66.00010999999955,
          "velocity": 0.6377952755905512,
          "duration": 0.13043500000000563
        },
        {
          "name": "E2",
          "midi": 40,
          "time": 66.13054499999956,
          "velocity": 0.6377952755905512,
          "duration": 0.13043500000000563
        },
        {
          "name": "C2",
          "midi": 36,
          "time": 66.13054499999956,
          "velocity": 0.6299212598425197,
          "duration": 0.13043500000000563
        },
        {
          "name": "C#3",
          "midi": 49,
          "time": 66.13054499999956,
          "velocity": 0.6535433070866141,
          "duration": 0.13043500000000563
        },
        {
          "name": "C2",
          "midi": 36,
          "time": 66.26097999999956,
          "velocity": 0.6299212598425197,
          "duration": 0.13043500000000563
        },
        {
          "name": "A#2",
          "midi": 46,
          "time": 66.26097999999956,
          "velocity": 0.3858267716535433,
          "duration": 0.13043500000000563
        },
        {
          "name": "A3",
          "midi": 57,
          "time": 66.39141499999957,
          "velocity": 0.6456692913385826,
          "duration": 0.26087000000001126
        },
        {
          "name": "E2",
          "midi": 40,
          "time": 66.39141499999957,
          "velocity": 0.6299212598425197,
          "duration": 0.13043500000000563
        },
        {
          "name": "E2",
          "midi": 40,
          "time": 66.52184999999957,
          "velocity": 0.6299212598425197,
          "duration": 0.13043500000000563
        },
        {
          "name": "C2",
          "midi": 36,
          "time": 66.52184999999957,
          "velocity": 0.6299212598425197,
          "duration": 0.13043500000000563
        },
        {
          "name": "A#2",
          "midi": 46,
          "time": 66.52184999999957,
          "velocity": 0.3858267716535433,
          "duration": 0.13043500000000563
        },
        {
          "name": "A3",
          "midi": 57,
          "time": 66.78271999999959,
          "velocity": 0.6456692913385826,
          "duration": 0.13043500000000563
        },
        {
          "name": "A#2",
          "midi": 46,
          "time": 66.78271999999959,
          "velocity": 0.3858267716535433,
          "duration": 0.13043500000000563
        },
        {
          "name": "C2",
          "midi": 36,
          "time": 66.78271999999959,
          "velocity": 0.6456692913385826,
          "duration": 0.13043500000000563
        },
        {
          "name": "A3",
          "midi": 57,
          "time": 66.78271999999959,
          "velocity": 0.6456692913385826,
          "duration": 0.13043500000000563
        },
        {
          "name": "A3",
          "midi": 57,
          "time": 66.78271999999959,
          "velocity": 0.6456692913385826,
          "duration": 0.13043500000000563
        },
        {
          "name": "A#2",
          "midi": 46,
          "time": 67.0435899999996,
          "velocity": 0.3858267716535433,
          "duration": 0.13043500000000563
        },
        {
          "name": "E2",
          "midi": 40,
          "time": 67.0435899999996,
          "velocity": 0.6456692913385826,
          "duration": 0.13043500000000563
        },
        {
          "name": "C2",
          "midi": 36,
          "time": 67.30445999999961,
          "velocity": 0.6456692913385826,
          "duration": 0.13043500000000563
        },
        {
          "name": "A#2",
          "midi": 46,
          "time": 67.30445999999961,
          "velocity": 0.3858267716535433,
          "duration": 0.13043500000000563
        },
        {
          "name": "E2",
          "midi": 40,
          "time": 67.56532999999962,
          "velocity": 0.6377952755905512,
          "duration": 0.13043500000000563
        },
        {
          "name": "A#2",
          "midi": 46,
          "time": 67.56532999999962,
          "velocity": 0.3858267716535433,
          "duration": 0.13043500000000563
        },
        {
          "name": "C2",
          "midi": 36,
          "time": 67.69576499999962,
          "velocity": 0.6377952755905512,
          "duration": 0.13043500000000563
        },
        {
          "name": "A#2",
          "midi": 46,
          "time": 67.82619999999963,
          "velocity": 0.3858267716535433,
          "duration": 0.13043500000000563
        },
        {
          "name": "C2",
          "midi": 36,
          "time": 67.95663499999964,
          "velocity": 0.6377952755905512,
          "duration": 0.13043500000000563
        },
        {
          "name": "E2",
          "midi": 40,
          "time": 68.08706999999964,
          "velocity": 0.6377952755905512,
          "duration": 0.13043500000000563
        },
        {
          "name": "A#2",
          "midi": 46,
          "time": 68.08706999999964,
          "velocity": 0.3858267716535433,
          "duration": 0.13043500000000563
        },
        {
          "name": "C2",
          "midi": 36,
          "time": 68.21750499999965,
          "velocity": 0.6299212598425197,
          "duration": 0.13043500000000563
        },
        {
          "name": "C2",
          "midi": 36,
          "time": 68.34793999999965,
          "velocity": 0.6299212598425197,
          "duration": 0.13043500000000563
        },
        {
          "name": "A#2",
          "midi": 46,
          "time": 68.34793999999965,
          "velocity": 0.3858267716535433,
          "duration": 0.13043500000000563
        },
        {
          "name": "A#2",
          "midi": 46,
          "time": 68.60880999999966,
          "velocity": 0.3858267716535433,
          "duration": 0.13043500000000563
        },
        {
          "name": "C2",
          "midi": 36,
          "time": 68.60880999999966,
          "velocity": 0.6299212598425197,
          "duration": 0.13043500000000563
        },
        {
          "name": "E2",
          "midi": 40,
          "time": 68.60880999999966,
          "velocity": 0.6299212598425197,
          "duration": 0.13043500000000563
        },
        {
          "name": "A#2",
          "midi": 46,
          "time": 68.86967999999968,
          "velocity": 0.3858267716535433,
          "duration": 0.13043500000000563
        },
        {
          "name": "C2",
          "midi": 36,
          "time": 68.86967999999968,
          "velocity": 0.6456692913385826,
          "duration": 0.13043500000000563
        },
        {
          "name": "A#2",
          "midi": 46,
          "time": 69.13054999999969,
          "velocity": 0.3858267716535433,
          "duration": 0.13043500000000563
        },
        {
          "name": "E2",
          "midi": 40,
          "time": 69.13054999999969,
          "velocity": 0.6456692913385826,
          "duration": 0.13043500000000563
        },
        {
          "name": "C2",
          "midi": 36,
          "time": 69.3914199999997,
          "velocity": 0.6456692913385826,
          "duration": 0.13043500000000563
        },
        {
          "name": "A#2",
          "midi": 46,
          "time": 69.3914199999997,
          "velocity": 0.3858267716535433,
          "duration": 0.13043500000000563
        },
        {
          "name": "A#2",
          "midi": 46,
          "time": 69.65228999999971,
          "velocity": 0.3858267716535433,
          "duration": 0.13043500000000563
        },
        {
          "name": "E2",
          "midi": 40,
          "time": 69.65228999999971,
          "velocity": 0.6377952755905512,
          "duration": 0.13043500000000563
        },
        {
          "name": "C2",
          "midi": 36,
          "time": 69.78272499999972,
          "velocity": 0.6377952755905512,
          "duration": 0.13043500000000563
        },
        {
          "name": "A#2",
          "midi": 46,
          "time": 69.91315999999972,
          "velocity": 0.3858267716535433,
          "duration": 0.13043500000000563
        },
        {
          "name": "C2",
          "midi": 36,
          "time": 70.04359499999973,
          "velocity": 0.6377952755905512,
          "duration": 0.13043500000000563
        },
        {
          "name": "A#2",
          "midi": 46,
          "time": 70.17402999999973,
          "velocity": 0.3858267716535433,
          "duration": 0.13043500000000563
        },
        {
          "name": "E2",
          "midi": 40,
          "time": 70.17402999999973,
          "velocity": 0.6377952755905512,
          "duration": 0.13043500000000563
        },
        {
          "name": "C2",
          "midi": 36,
          "time": 70.30446499999974,
          "velocity": 0.6299212598425197,
          "duration": 0.13043500000000563
        },
        {
          "name": "C2",
          "midi": 36,
          "time": 70.43489999999974,
          "velocity": 0.6299212598425197,
          "duration": 0.13043500000000563
        },
        {
          "name": "A#2",
          "midi": 46,
          "time": 70.43489999999974,
          "velocity": 0.3858267716535433,
          "duration": 0.13043500000000563
        },
        {
          "name": "E2",
          "midi": 40,
          "time": 70.69576999999975,
          "velocity": 0.6299212598425197,
          "duration": 0.13043500000000563
        },
        {
          "name": "C2",
          "midi": 36,
          "time": 70.69576999999975,
          "velocity": 0.6299212598425197,
          "duration": 0.13043500000000563
        },
        {
          "name": "A#2",
          "midi": 46,
          "time": 70.69576999999975,
          "velocity": 0.3858267716535433,
          "duration": 0.13043500000000563
        },
        {
          "name": "A#2",
          "midi": 46,
          "time": 70.95663999999977,
          "velocity": 0.3858267716535433,
          "duration": 0.13043500000000563
        },
        {
          "name": "C2",
          "midi": 36,
          "time": 70.95663999999977,
          "velocity": 0.6456692913385826,
          "duration": 0.13043500000000563
        },
        {
          "name": "A#2",
          "midi": 46,
          "time": 71.21750999999978,
          "velocity": 0.3858267716535433,
          "duration": 0.13043500000000563
        },
        {
          "name": "E2",
          "midi": 40,
          "time": 71.21750999999978,
          "velocity": 0.6456692913385826,
          "duration": 0.13043500000000563
        },
        {
          "name": "C2",
          "midi": 36,
          "time": 71.47837999999979,
          "velocity": 0.6456692913385826,
          "duration": 0.13043500000000563
        },
        {
          "name": "A#2",
          "midi": 46,
          "time": 71.47837999999979,
          "velocity": 0.3858267716535433,
          "duration": 0.13043500000000563
        },
        {
          "name": "E2",
          "midi": 40,
          "time": 71.7392499999998,
          "velocity": 0.6377952755905512,
          "duration": 0.13043500000000563
        },
        {
          "name": "A#2",
          "midi": 46,
          "time": 71.7392499999998,
          "velocity": 0.3858267716535433,
          "duration": 0.13043500000000563
        },
        {
          "name": "C2",
          "midi": 36,
          "time": 71.8696849999998,
          "velocity": 0.6377952755905512,
          "duration": 0.13043500000000563
        },
        {
          "name": "A#2",
          "midi": 46,
          "time": 72.00011999999981,
          "velocity": 0.3858267716535433,
          "duration": 0.13043500000000563
        },
        {
          "name": "C2",
          "midi": 36,
          "time": 72.13055499999982,
          "velocity": 0.6377952755905512,
          "duration": 0.13043500000000563
        },
        {
          "name": "E2",
          "midi": 40,
          "time": 72.26098999999982,
          "velocity": 0.6377952755905512,
          "duration": 0.13043500000000563
        },
        {
          "name": "A#2",
          "midi": 46,
          "time": 72.26098999999982,
          "velocity": 0.3858267716535433,
          "duration": 0.13043500000000563
        },
        {
          "name": "C2",
          "midi": 36,
          "time": 72.39142499999983,
          "velocity": 0.6299212598425197,
          "duration": 0.13043500000000563
        },
        {
          "name": "C2",
          "midi": 36,
          "time": 72.52185999999983,
          "velocity": 0.6299212598425197,
          "duration": 0.13043500000000563
        },
        {
          "name": "A#2",
          "midi": 46,
          "time": 72.52185999999983,
          "velocity": 0.3858267716535433,
          "duration": 0.13043500000000563
        },
        {
          "name": "E2",
          "midi": 40,
          "time": 72.78272999999984,
          "velocity": 0.6299212598425197,
          "duration": 0.13043500000000563
        },
        {
          "name": "C2",
          "midi": 36,
          "time": 72.78272999999984,
          "velocity": 0.6299212598425197,
          "duration": 0.13043500000000563
        },
        {
          "name": "A#2",
          "midi": 46,
          "time": 72.78272999999984,
          "velocity": 0.3858267716535433,
          "duration": 0.13043500000000563
        },
        {
          "name": "A#2",
          "midi": 46,
          "time": 73.04359999999986,
          "velocity": 0.3858267716535433,
          "duration": 0.13043500000000563
        },
        {
          "name": "C2",
          "midi": 36,
          "time": 73.04359999999986,
          "velocity": 0.6456692913385826,
          "duration": 0.13043500000000563
        },
        {
          "name": "A#2",
          "midi": 46,
          "time": 73.30446999999987,
          "velocity": 0.3858267716535433,
          "duration": 0.13043500000000563
        },
        {
          "name": "E2",
          "midi": 40,
          "time": 73.30446999999987,
          "velocity": 0.6456692913385826,
          "duration": 0.13043500000000563
        },
        {
          "name": "C2",
          "midi": 36,
          "time": 73.56533999999988,
          "velocity": 0.6456692913385826,
          "duration": 0.13043500000000563
        },
        {
          "name": "A#2",
          "midi": 46,
          "time": 73.56533999999988,
          "velocity": 0.3858267716535433,
          "duration": 0.13043500000000563
        },
        {
          "name": "E2",
          "midi": 40,
          "time": 73.69577499999988,
          "velocity": 0.6377952755905512,
          "duration": 0.13043500000000563
        },
        {
          "name": "A#2",
          "midi": 46,
          "time": 73.82620999999989,
          "velocity": 0.3858267716535433,
          "duration": 0.13043500000000563
        },
        {
          "name": "E2",
          "midi": 40,
          "time": 73.9566449999999,
          "velocity": 0.6377952755905512,
          "duration": 0.13043500000000563
        },
        {
          "name": "C2",
          "midi": 36,
          "time": 73.9566449999999,
          "velocity": 0.6377952755905512,
          "duration": 0.13043500000000563
        },
        {
          "name": "A#2",
          "midi": 46,
          "time": 74.0870799999999,
          "velocity": 0.3858267716535433,
          "duration": 0.13043500000000563
        },
        {
          "name": "A3",
          "midi": 57,
          "time": 74.2175149999999,
          "velocity": 0.6456692913385826,
          "duration": 0.13043500000000563
        },
        {
          "name": "C2",
          "midi": 36,
          "time": 74.2175149999999,
          "velocity": 0.6377952755905512,
          "duration": 0.13043500000000563
        },
        {
          "name": "A#2",
          "midi": 46,
          "time": 74.34794999999991,
          "velocity": 0.3858267716535433,
          "duration": 0.13043500000000563
        },
        {
          "name": "E2",
          "midi": 40,
          "time": 74.34794999999991,
          "velocity": 0.6377952755905512,
          "duration": 0.13043500000000563
        },
        {
          "name": "E2",
          "midi": 40,
          "time": 74.47838499999992,
          "velocity": 0.6377952755905512,
          "duration": 0.13043500000000563
        },
        {
          "name": "C2",
          "midi": 36,
          "time": 74.47838499999992,
          "velocity": 0.6299212598425197,
          "duration": 0.13043500000000563
        },
        {
          "name": "C#3",
          "midi": 49,
          "time": 74.47838499999992,
          "velocity": 0.6535433070866141,
          "duration": 0.13043500000000563
        },
        {
          "name": "C2",
          "midi": 36,
          "time": 74.60881999999992,
          "velocity": 0.6299212598425197,
          "duration": 0.13043500000000563
        },
        {
          "name": "A#2",
          "midi": 46,
          "time": 74.60881999999992,
          "velocity": 0.3858267716535433,
          "duration": 0.13043500000000563
        },
        {
          "name": "A3",
          "midi": 57,
          "time": 74.73925499999993,
          "velocity": 0.6456692913385826,
          "duration": 0.26087000000001126
        },
        {
          "name": "E2",
          "midi": 40,
          "time": 74.73925499999993,
          "velocity": 0.6299212598425197,
          "duration": 0.13043500000000563
        },
        {
          "name": "E2",
          "midi": 40,
          "time": 74.86968999999993,
          "velocity": 0.6299212598425197,
          "duration": 0.13043500000000563
        },
        {
          "name": "C2",
          "midi": 36,
          "time": 74.86968999999993,
          "velocity": 0.6299212598425197,
          "duration": 0.13043500000000563
        },
        {
          "name": "A#2",
          "midi": 46,
          "time": 74.86968999999993,
          "velocity": 0.3858267716535433,
          "duration": 0.13043500000000563
        },
        {
          "name": "A3",
          "midi": 57,
          "time": 75.13055999999995,
          "velocity": 0.6456692913385826,
          "duration": 0.13043500000000563
        },
        {
          "name": "A3",
          "midi": 57,
          "time": 75.13055999999995,
          "velocity": 0.6456692913385826,
          "duration": 0.13043500000000563
        },
        {
          "name": "A#2",
          "midi": 46,
          "time": 75.13055999999995,
          "velocity": 0.3858267716535433,
          "duration": 0.13043500000000563
        },
        {
          "name": "C2",
          "midi": 36,
          "time": 75.13055999999995,
          "velocity": 0.6456692913385826,
          "duration": 0.13043500000000563
        },
        {
          "name": "A3",
          "midi": 57,
          "time": 75.13055999999995,
          "velocity": 0.6456692913385826,
          "duration": 0.13043500000000563
        },
        {
          "name": "E2",
          "midi": 40,
          "time": 75.39142999999996,
          "velocity": 0.6456692913385826,
          "duration": 0.13043500000000563
        },
        {
          "name": "A#2",
          "midi": 46,
          "time": 75.39142999999996,
          "velocity": 0.3858267716535433,
          "duration": 0.13043500000000563
        },
        {
          "name": "C2",
          "midi": 36,
          "time": 75.65229999999997,
          "velocity": 0.6456692913385826,
          "duration": 0.13043500000000563
        },
        {
          "name": "A#2",
          "midi": 46,
          "time": 75.65229999999997,
          "velocity": 0.3858267716535433,
          "duration": 0.13043500000000563
        },
        {
          "name": "A#2",
          "midi": 46,
          "time": 75.91316999999998,
          "velocity": 0.3858267716535433,
          "duration": 0.13043500000000563
        },
        {
          "name": "E2",
          "midi": 40,
          "time": 75.91316999999998,
          "velocity": 0.6377952755905512,
          "duration": 0.13043500000000563
        },
        {
          "name": "C2",
          "midi": 36,
          "time": 76.04360499999999,
          "velocity": 0.6377952755905512,
          "duration": 0.13043500000000563
        },
        {
          "name": "A#2",
          "midi": 46,
          "time": 76.17403999999999,
          "velocity": 0.3858267716535433,
          "duration": 0.13043500000000563
        },
        {
          "name": "C2",
          "midi": 36,
          "time": 76.304475,
          "velocity": 0.6377952755905512,
          "duration": 0.13043500000000563
        },
        {
          "name": "A#2",
          "midi": 46,
          "time": 76.43491,
          "velocity": 0.3858267716535433,
          "duration": 0.13043500000000563
        },
        {
          "name": "E2",
          "midi": 40,
          "time": 76.43491,
          "velocity": 0.6377952755905512,
          "duration": 0.13043500000000563
        },
        {
          "name": "C2",
          "midi": 36,
          "time": 76.56534500000001,
          "velocity": 0.6299212598425197,
          "duration": 0.13043500000000563
        },
        {
          "name": "C2",
          "midi": 36,
          "time": 76.69578000000001,
          "velocity": 0.6299212598425197,
          "duration": 0.13043500000000563
        },
        {
          "name": "A#2",
          "midi": 46,
          "time": 76.69578000000001,
          "velocity": 0.3858267716535433,
          "duration": 0.13043500000000563
        },
        {
          "name": "E2",
          "midi": 40,
          "time": 76.95665000000002,
          "velocity": 0.6299212598425197,
          "duration": 0.13043500000000563
        },
        {
          "name": "C2",
          "midi": 36,
          "time": 76.95665000000002,
          "velocity": 0.6299212598425197,
          "duration": 0.13043500000000563
        },
        {
          "name": "A#2",
          "midi": 46,
          "time": 76.95665000000002,
          "velocity": 0.3858267716535433,
          "duration": 0.13043500000000563
        },
        {
          "name": "A#2",
          "midi": 46,
          "time": 77.21752000000004,
          "velocity": 0.3858267716535433,
          "duration": 0.13043500000000563
        },
        {
          "name": "C2",
          "midi": 36,
          "time": 77.21752000000004,
          "velocity": 0.6456692913385826,
          "duration": 0.13043500000000563
        },
        {
          "name": "E2",
          "midi": 40,
          "time": 77.47839000000005,
          "velocity": 0.6456692913385826,
          "duration": 0.13043500000000563
        },
        {
          "name": "A#2",
          "midi": 46,
          "time": 77.47839000000005,
          "velocity": 0.3858267716535433,
          "duration": 0.13043500000000563
        },
        {
          "name": "C2",
          "midi": 36,
          "time": 77.73926000000006,
          "velocity": 0.6456692913385826,
          "duration": 0.13043500000000563
        },
        {
          "name": "A#2",
          "midi": 46,
          "time": 77.73926000000006,
          "velocity": 0.3858267716535433,
          "duration": 0.13043500000000563
        },
        {
          "name": "E2",
          "midi": 40,
          "time": 78.00013000000007,
          "velocity": 0.6377952755905512,
          "duration": 0.13043500000000563
        },
        {
          "name": "A#2",
          "midi": 46,
          "time": 78.00013000000007,
          "velocity": 0.3858267716535433,
          "duration": 0.13043500000000563
        },
        {
          "name": "C2",
          "midi": 36,
          "time": 78.13056500000008,
          "velocity": 0.6377952755905512,
          "duration": 0.13043500000000563
        },
        {
          "name": "A#2",
          "midi": 46,
          "time": 78.26100000000008,
          "velocity": 0.3858267716535433,
          "duration": 0.13043500000000563
        },
        {
          "name": "C2",
          "midi": 36,
          "time": 78.39143500000009,
          "velocity": 0.6377952755905512,
          "duration": 0.13043500000000563
        },
        {
          "name": "E2",
          "midi": 40,
          "time": 78.52187000000009,
          "velocity": 0.6377952755905512,
          "duration": 0.13043500000000563
        },
        {
          "name": "A#2",
          "midi": 46,
          "time": 78.52187000000009,
          "velocity": 0.3858267716535433,
          "duration": 0.13043500000000563
        },
        {
          "name": "C2",
          "midi": 36,
          "time": 78.6523050000001,
          "velocity": 0.6299212598425197,
          "duration": 0.13043500000000563
        },
        {
          "name": "C2",
          "midi": 36,
          "time": 78.7827400000001,
          "velocity": 0.6299212598425197,
          "duration": 0.13043500000000563
        },
        {
          "name": "A#2",
          "midi": 46,
          "time": 78.7827400000001,
          "velocity": 0.3858267716535433,
          "duration": 0.13043500000000563
        },
        {
          "name": "A#2",
          "midi": 46,
          "time": 79.04361000000011,
          "velocity": 0.3858267716535433,
          "duration": 0.13043500000000563
        },
        {
          "name": "C2",
          "midi": 36,
          "time": 79.04361000000011,
          "velocity": 0.6299212598425197,
          "duration": 0.13043500000000563
        },
        {
          "name": "E2",
          "midi": 40,
          "time": 79.04361000000011,
          "velocity": 0.6299212598425197,
          "duration": 0.13043500000000563
        },
        {
          "name": "A#2",
          "midi": 46,
          "time": 79.30448000000013,
          "velocity": 0.3858267716535433,
          "duration": 0.13043500000000563
        },
        {
          "name": "C2",
          "midi": 36,
          "time": 79.30448000000013,
          "velocity": 0.6456692913385826,
          "duration": 0.13043500000000563
        },
        {
          "name": "E2",
          "midi": 40,
          "time": 79.56535000000014,
          "velocity": 0.6456692913385826,
          "duration": 0.13043500000000563
        },
        {
          "name": "A#2",
          "midi": 46,
          "time": 79.56535000000014,
          "velocity": 0.3858267716535433,
          "duration": 0.13043500000000563
        },
        {
          "name": "C2",
          "midi": 36,
          "time": 79.82622000000015,
          "velocity": 0.6456692913385826,
          "duration": 0.13043500000000563
        },
        {
          "name": "A#2",
          "midi": 46,
          "time": 79.82622000000015,
          "velocity": 0.3858267716535433,
          "duration": 0.13043500000000563
        },
        {
          "name": "A#2",
          "midi": 46,
          "time": 80.08709000000016,
          "velocity": 0.3858267716535433,
          "duration": 0.13043500000000563
        },
        {
          "name": "E2",
          "midi": 40,
          "time": 80.08709000000016,
          "velocity": 0.6377952755905512,
          "duration": 0.13043500000000563
        },
        {
          "name": "C2",
          "midi": 36,
          "time": 80.21752500000017,
          "velocity": 0.6377952755905512,
          "duration": 0.13043500000000563
        },
        {
          "name": "A#2",
          "midi": 46,
          "time": 80.34796000000017,
          "velocity": 0.3858267716535433,
          "duration": 0.13043500000000563
        },
        {
          "name": "C2",
          "midi": 36,
          "time": 80.47839500000018,
          "velocity": 0.6377952755905512,
          "duration": 0.13043500000000563
        },
        {
          "name": "A#2",
          "midi": 46,
          "time": 80.60883000000018,
          "velocity": 0.3858267716535433,
          "duration": 0.13043500000000563
        },
        {
          "name": "E2",
          "midi": 40,
          "time": 80.60883000000018,
          "velocity": 0.6377952755905512,
          "duration": 0.13043500000000563
        },
        {
          "name": "C2",
          "midi": 36,
          "time": 80.73926500000019,
          "velocity": 0.6299212598425197,
          "duration": 0.13043500000000563
        },
        {
          "name": "C2",
          "midi": 36,
          "time": 80.8697000000002,
          "velocity": 0.6299212598425197,
          "duration": 0.13043500000000563
        },
        {
          "name": "A#2",
          "midi": 46,
          "time": 80.8697000000002,
          "velocity": 0.3858267716535433,
          "duration": 0.13043500000000563
        },
        {
          "name": "A#2",
          "midi": 46,
          "time": 81.1305700000002,
          "velocity": 0.3858267716535433,
          "duration": 0.13043500000000563
        },
        {
          "name": "C2",
          "midi": 36,
          "time": 81.1305700000002,
          "velocity": 0.6299212598425197,
          "duration": 0.13043500000000563
        },
        {
          "name": "E2",
          "midi": 40,
          "time": 81.1305700000002,
          "velocity": 0.6299212598425197,
          "duration": 0.13043500000000563
        },
        {
          "name": "A#2",
          "midi": 46,
          "time": 81.39144000000022,
          "velocity": 0.3858267716535433,
          "duration": 0.13043500000000563
        },
        {
          "name": "C2",
          "midi": 36,
          "time": 81.39144000000022,
          "velocity": 0.6456692913385826,
          "duration": 0.13043500000000563
        },
        {
          "name": "E2",
          "midi": 40,
          "time": 81.65231000000023,
          "velocity": 0.6456692913385826,
          "duration": 0.13043500000000563
        },
        {
          "name": "A#2",
          "midi": 46,
          "time": 81.65231000000023,
          "velocity": 0.3858267716535433,
          "duration": 0.13043500000000563
        },
        {
          "name": "C2",
          "midi": 36,
          "time": 81.91318000000024,
          "velocity": 0.6456692913385826,
          "duration": 0.13043500000000563
        },
        {
          "name": "A#2",
          "midi": 46,
          "time": 81.91318000000024,
          "velocity": 0.3858267716535433,
          "duration": 0.13043500000000563
        },
        {
          "name": "E2",
          "midi": 40,
          "time": 82.04361500000024,
          "velocity": 0.6377952755905512,
          "duration": 0.13043500000000563
        },
        {
          "name": "A#2",
          "midi": 46,
          "time": 82.17405000000025,
          "velocity": 0.3858267716535433,
          "duration": 0.13043500000000563
        },
        {
          "name": "E2",
          "midi": 40,
          "time": 82.30448500000026,
          "velocity": 0.6377952755905512,
          "duration": 0.13043500000000563
        },
        {
          "name": "C2",
          "midi": 36,
          "time": 82.30448500000026,
          "velocity": 0.6377952755905512,
          "duration": 0.13043500000000563
        },
        {
          "name": "A#2",
          "midi": 46,
          "time": 82.43492000000026,
          "velocity": 0.3858267716535433,
          "duration": 0.13043500000000563
        },
        {
          "name": "A3",
          "midi": 57,
          "time": 82.56535500000027,
          "velocity": 0.6456692913385826,
          "duration": 0.13043500000000563
        },
        {
          "name": "C2",
          "midi": 36,
          "time": 82.56535500000027,
          "velocity": 0.6377952755905512,
          "duration": 0.13043500000000563
        },
        {
          "name": "E2",
          "midi": 40,
          "time": 82.69579000000027,
          "velocity": 0.6377952755905512,
          "duration": 0.13043500000000563
        },
        {
          "name": "A#2",
          "midi": 46,
          "time": 82.69579000000027,
          "velocity": 0.3858267716535433,
          "duration": 0.13043500000000563
        },
        {
          "name": "E2",
          "midi": 40,
          "time": 82.82622500000028,
          "velocity": 0.6377952755905512,
          "duration": 0.13043500000000563
        },
        {
          "name": "C2",
          "midi": 36,
          "time": 82.82622500000028,
          "velocity": 0.6299212598425197,
          "duration": 0.13043500000000563
        },
        {
          "name": "C#3",
          "midi": 49,
          "time": 82.82622500000028,
          "velocity": 0.6456692913385826,
          "duration": 0.13043500000000563
        },
        {
          "name": "A#2",
          "midi": 46,
          "time": 82.95666000000028,
          "velocity": 0.3858267716535433,
          "duration": 0.13043500000000563
        },
        {
          "name": "C2",
          "midi": 36,
          "time": 82.95666000000028,
          "velocity": 0.6299212598425197,
          "duration": 0.13043500000000563
        },
        {
          "name": "A3",
          "midi": 57,
          "time": 83.08709500000029,
          "velocity": 0.6456692913385826,
          "duration": 0.26087000000001126
        },
        {
          "name": "E2",
          "midi": 40,
          "time": 83.08709500000029,
          "velocity": 0.6299212598425197,
          "duration": 0.13043500000000563
        },
        {
          "name": "A#2",
          "midi": 46,
          "time": 83.2175300000003,
          "velocity": 0.3858267716535433,
          "duration": 0.13043500000000563
        },
        {
          "name": "E2",
          "midi": 40,
          "time": 83.2175300000003,
          "velocity": 0.6299212598425197,
          "duration": 0.13043500000000563
        },
        {
          "name": "C2",
          "midi": 36,
          "time": 83.2175300000003,
          "velocity": 0.6299212598425197,
          "duration": 0.13043500000000563
        },
        {
          "name": "G#2",
          "midi": 44,
          "time": 83.4784000000003,
          "velocity": 0.3858267716535433,
          "duration": 0.13043500000000563
        },
        {
          "name": "C2",
          "midi": 36,
          "time": 83.4784000000003,
          "velocity": 0.6299212598425197,
          "duration": 0.13043500000000563
        },
        {
          "name": "A3",
          "midi": 57,
          "time": 83.4784000000003,
          "velocity": 0.6456692913385826,
          "duration": 0.13043500000000563
        },
        {
          "name": "G#2",
          "midi": 44,
          "time": 83.73927000000032,
          "velocity": 0.3858267716535433,
          "duration": 0.13043500000000563
        },
        {
          "name": "G#2",
          "midi": 44,
          "time": 84.00014000000033,
          "velocity": 0.3858267716535433,
          "duration": 0.13043500000000563
        },
        {
          "name": "E2",
          "midi": 40,
          "time": 84.00014000000033,
          "velocity": 0.6299212598425197,
          "duration": 0.13043500000000563
        },
        {
          "name": "G#2",
          "midi": 44,
          "time": 84.26101000000034,
          "velocity": 0.3858267716535433,
          "duration": 0.13043500000000563
        },
        {
          "name": "C2",
          "midi": 36,
          "time": 84.39144500000035,
          "velocity": 0.6299212598425197,
          "duration": 0.13043500000000563
        },
        {
          "name": "G#2",
          "midi": 44,
          "time": 84.52188000000035,
          "velocity": 0.3858267716535433,
          "duration": 0.13043500000000563
        },
        {
          "name": "C2",
          "midi": 36,
          "time": 84.65231500000036,
          "velocity": 0.6299212598425197,
          "duration": 0.13043500000000563
        },
        {
          "name": "G#2",
          "midi": 44,
          "time": 84.78275000000036,
          "velocity": 0.3858267716535433,
          "duration": 0.13043500000000563
        },
        {
          "name": "C2",
          "midi": 36,
          "time": 84.91318500000037,
          "velocity": 0.6299212598425197,
          "duration": 0.13043500000000563
        },
        {
          "name": "G#2",
          "midi": 44,
          "time": 85.04362000000037,
          "velocity": 0.3858267716535433,
          "duration": 0.13043500000000563
        },
        {
          "name": "C2",
          "midi": 36,
          "time": 85.04362000000037,
          "velocity": 0.6299212598425197,
          "duration": 0.13043500000000563
        },
        {
          "name": "E2",
          "midi": 40,
          "time": 85.04362000000037,
          "velocity": 0.6299212598425197,
          "duration": 0.13043500000000563
        },
        {
          "name": "G#2",
          "midi": 44,
          "time": 85.30449000000038,
          "velocity": 0.3858267716535433,
          "duration": 0.13043500000000563
        },
        {
          "name": "E2",
          "midi": 40,
          "time": 85.43492500000039,
          "velocity": 0.6299212598425197,
          "duration": 0.13043500000000563
        },
        {
          "name": "G#2",
          "midi": 44,
          "time": 85.5653600000004,
          "velocity": 0.3858267716535433,
          "duration": 0.13043500000000563
        },
        {
          "name": "C2",
          "midi": 36,
          "time": 85.5653600000004,
          "velocity": 0.6299212598425197,
          "duration": 0.13043500000000563
        },
        {
          "name": "G#2",
          "midi": 44,
          "time": 85.82623000000041,
          "velocity": 0.3858267716535433,
          "duration": 0.13043500000000563
        },
        {
          "name": "G#2",
          "midi": 44,
          "time": 86.08710000000042,
          "velocity": 0.3858267716535433,
          "duration": 0.13043500000000563
        },
        {
          "name": "E2",
          "midi": 40,
          "time": 86.08710000000042,
          "velocity": 0.6299212598425197,
          "duration": 0.13043500000000563
        },
        {
          "name": "G#2",
          "midi": 44,
          "time": 86.34797000000043,
          "velocity": 0.3858267716535433,
          "duration": 0.13043500000000563
        },
        {
          "name": "C2",
          "midi": 36,
          "time": 86.47840500000044,
          "velocity": 0.6299212598425197,
          "duration": 0.13043500000000563
        },
        {
          "name": "G#2",
          "midi": 44,
          "time": 86.60884000000044,
          "velocity": 0.3858267716535433,
          "duration": 0.13043500000000563
        },
        {
          "name": "C2",
          "midi": 36,
          "time": 86.73927500000045,
          "velocity": 0.6299212598425197,
          "duration": 0.13043500000000563
        },
        {
          "name": "G#2",
          "midi": 44,
          "time": 86.86971000000045,
          "velocity": 0.3858267716535433,
          "duration": 0.13043500000000563
        },
        {
          "name": "C2",
          "midi": 36,
          "time": 87.00014500000046,
          "velocity": 0.6299212598425197,
          "duration": 0.13043500000000563
        },
        {
          "name": "G#2",
          "midi": 44,
          "time": 87.13058000000046,
          "velocity": 0.3858267716535433,
          "duration": 0.13043500000000563
        },
        {
          "name": "C2",
          "midi": 36,
          "time": 87.13058000000046,
          "velocity": 0.6299212598425197,
          "duration": 0.13043500000000563
        },
        {
          "name": "E2",
          "midi": 40,
          "time": 87.13058000000046,
          "velocity": 0.6299212598425197,
          "duration": 0.13043500000000563
        },
        {
          "name": "G#2",
          "midi": 44,
          "time": 87.39145000000048,
          "velocity": 0.3858267716535433,
          "duration": 0.13043500000000563
        },
        {
          "name": "E2",
          "midi": 40,
          "time": 87.52188500000048,
          "velocity": 0.6299212598425197,
          "duration": 0.13043500000000563
        },
        {
          "name": "G#2",
          "midi": 44,
          "time": 87.65232000000049,
          "velocity": 0.3858267716535433,
          "duration": 0.13043500000000563
        },
        {
          "name": "C2",
          "midi": 36,
          "time": 87.65232000000049,
          "velocity": 0.6299212598425197,
          "duration": 0.13043500000000563
        },
        {
          "name": "G#2",
          "midi": 44,
          "time": 87.9131900000005,
          "velocity": 0.3858267716535433,
          "duration": 0.13043500000000563
        },
        {
          "name": "G#2",
          "midi": 44,
          "time": 88.17406000000051,
          "velocity": 0.3858267716535433,
          "duration": 0.13043500000000563
        },
        {
          "name": "E2",
          "midi": 40,
          "time": 88.17406000000051,
          "velocity": 0.6299212598425197,
          "duration": 0.13043500000000563
        },
        {
          "name": "G#2",
          "midi": 44,
          "time": 88.43493000000052,
          "velocity": 0.3858267716535433,
          "duration": 0.13043500000000563
        },
        {
          "name": "C2",
          "midi": 36,
          "time": 88.56536500000053,
          "velocity": 0.6299212598425197,
          "duration": 0.13043500000000563
        },
        {
          "name": "G#2",
          "midi": 44,
          "time": 88.69580000000053,
          "velocity": 0.3858267716535433,
          "duration": 0.13043500000000563
        },
        {
          "name": "C2",
          "midi": 36,
          "time": 88.82623500000054,
          "velocity": 0.6299212598425197,
          "duration": 0.13043500000000563
        },
        {
          "name": "G#2",
          "midi": 44,
          "time": 88.95667000000054,
          "velocity": 0.3858267716535433,
          "duration": 0.13043500000000563
        },
        {
          "name": "C2",
          "midi": 36,
          "time": 89.08710500000055,
          "velocity": 0.6299212598425197,
          "duration": 0.13043500000000563
        },
        {
          "name": "G#2",
          "midi": 44,
          "time": 89.21754000000055,
          "velocity": 0.3858267716535433,
          "duration": 0.13043500000000563
        },
        {
          "name": "C2",
          "midi": 36,
          "time": 89.21754000000055,
          "velocity": 0.6299212598425197,
          "duration": 0.13043500000000563
        },
        {
          "name": "E2",
          "midi": 40,
          "time": 89.21754000000055,
          "velocity": 0.6299212598425197,
          "duration": 0.13043500000000563
        },
        {
          "name": "G#2",
          "midi": 44,
          "time": 89.47841000000057,
          "velocity": 0.3858267716535433,
          "duration": 0.13043500000000563
        },
        {
          "name": "E2",
          "midi": 40,
          "time": 89.60884500000057,
          "velocity": 0.6299212598425197,
          "duration": 0.13043500000000563
        },
        {
          "name": "G#2",
          "midi": 44,
          "time": 89.73928000000058,
          "velocity": 0.3858267716535433,
          "duration": 0.13043500000000563
        },
        {
          "name": "C2",
          "midi": 36,
          "time": 89.73928000000058,
          "velocity": 0.6299212598425197,
          "duration": 0.13043500000000563
        },
        {
          "name": "G#2",
          "midi": 44,
          "time": 90.00015000000059,
          "velocity": 0.3858267716535433,
          "duration": 0.13043500000000563
        },
        {
          "name": "G#2",
          "midi": 44,
          "time": 90.2610200000006,
          "velocity": 0.3858267716535433,
          "duration": 0.13043500000000563
        },
        {
          "name": "E2",
          "midi": 40,
          "time": 90.2610200000006,
          "velocity": 0.6299212598425197,
          "duration": 0.13043500000000563
        },
        {
          "name": "G#2",
          "midi": 44,
          "time": 90.52189000000061,
          "velocity": 0.3858267716535433,
          "duration": 0.13043500000000563
        },
        {
          "name": "C2",
          "midi": 36,
          "time": 90.65232500000062,
          "velocity": 0.6299212598425197,
          "duration": 0.13043500000000563
        },
        {
          "name": "G#2",
          "midi": 44,
          "time": 90.78276000000062,
          "velocity": 0.3858267716535433,
          "duration": 0.13043500000000563
        },
        {
          "name": "C2",
          "midi": 36,
          "time": 90.91319500000063,
          "velocity": 0.6299212598425197,
          "duration": 0.13043500000000563
        },
        {
          "name": "G#2",
          "midi": 44,
          "time": 91.04363000000063,
          "velocity": 0.3858267716535433,
          "duration": 0.13043500000000563
        },
        {
          "name": "C2",
          "midi": 36,
          "time": 91.17406500000064,
          "velocity": 0.6299212598425197,
          "duration": 0.13043500000000563
        },
        {
          "name": "G#2",
          "midi": 44,
          "time": 91.30450000000064,
          "velocity": 0.3858267716535433,
          "duration": 0.13043500000000563
        },
        {
          "name": "C2",
          "midi": 36,
          "time": 91.30450000000064,
          "velocity": 0.6299212598425197,
          "duration": 0.13043500000000563
        },
        {
          "name": "E2",
          "midi": 40,
          "time": 91.30450000000064,
          "velocity": 0.6299212598425197,
          "duration": 0.13043500000000563
        },
        {
          "name": "G#2",
          "midi": 44,
          "time": 91.56537000000066,
          "velocity": 0.3858267716535433,
          "duration": 0.13043500000000563
        },
        {
          "name": "E2",
          "midi": 40,
          "time": 91.69580500000066,
          "velocity": 0.6299212598425197,
          "duration": 0.13043500000000563
        },
        {
          "name": "G#2",
          "midi": 44,
          "time": 91.82624000000067,
          "velocity": 0.3858267716535433,
          "duration": 0.13043500000000563
        },
        {
          "name": "C2",
          "midi": 36,
          "time": 91.82624000000067,
          "velocity": 0.6299212598425197,
          "duration": 0.13043500000000563
        },
        {
          "name": "G#2",
          "midi": 44,
          "time": 92.08711000000068,
          "velocity": 0.3858267716535433,
          "duration": 0.13043500000000563
        },
        {
          "name": "G#2",
          "midi": 44,
          "time": 92.34798000000069,
          "velocity": 0.3858267716535433,
          "duration": 0.13043500000000563
        },
        {
          "name": "E2",
          "midi": 40,
          "time": 92.34798000000069,
          "velocity": 0.6299212598425197,
          "duration": 0.13043500000000563
        },
        {
          "name": "G#2",
          "midi": 44,
          "time": 92.6088500000007,
          "velocity": 0.3858267716535433,
          "duration": 0.13043500000000563
        },
        {
          "name": "C2",
          "midi": 36,
          "time": 92.7392850000007,
          "velocity": 0.6299212598425197,
          "duration": 0.13043500000000563
        },
        {
          "name": "G#2",
          "midi": 44,
          "time": 92.86972000000071,
          "velocity": 0.3858267716535433,
          "duration": 0.13043500000000563
        },
        {
          "name": "C2",
          "midi": 36,
          "time": 93.00015500000072,
          "velocity": 0.6299212598425197,
          "duration": 0.13043500000000563
        },
        {
          "name": "G#2",
          "midi": 44,
          "time": 93.13059000000072,
          "velocity": 0.3858267716535433,
          "duration": 0.13043500000000563
        },
        {
          "name": "C2",
          "midi": 36,
          "time": 93.26102500000073,
          "velocity": 0.6299212598425197,
          "duration": 0.13043500000000563
        },
        {
          "name": "G#2",
          "midi": 44,
          "time": 93.39146000000073,
          "velocity": 0.3858267716535433,
          "duration": 0.13043500000000563
        },
        {
          "name": "C2",
          "midi": 36,
          "time": 93.39146000000073,
          "velocity": 0.6299212598425197,
          "duration": 0.13043500000000563
        },
        {
          "name": "E2",
          "midi": 40,
          "time": 93.39146000000073,
          "velocity": 0.6299212598425197,
          "duration": 0.13043500000000563
        },
        {
          "name": "G#2",
          "midi": 44,
          "time": 93.65233000000075,
          "velocity": 0.3858267716535433,
          "duration": 0.13043500000000563
        },
        {
          "name": "E2",
          "midi": 40,
          "time": 93.78276500000075,
          "velocity": 0.6299212598425197,
          "duration": 0.13043500000000563
        },
        {
          "name": "G#2",
          "midi": 44,
          "time": 93.91320000000076,
          "velocity": 0.3858267716535433,
          "duration": 0.13043500000000563
        },
        {
          "name": "C2",
          "midi": 36,
          "time": 93.91320000000076,
          "velocity": 0.6299212598425197,
          "duration": 0.13043500000000563
        },
        {
          "name": "G#2",
          "midi": 44,
          "time": 94.17407000000077,
          "velocity": 0.3858267716535433,
          "duration": 0.13043500000000563
        },
        {
          "name": "G#2",
          "midi": 44,
          "time": 94.43494000000078,
          "velocity": 0.3858267716535433,
          "duration": 0.13043500000000563
        },
        {
          "name": "E2",
          "midi": 40,
          "time": 94.43494000000078,
          "velocity": 0.6299212598425197,
          "duration": 0.13043500000000563
        },
        {
          "name": "G#2",
          "midi": 44,
          "time": 94.69581000000079,
          "velocity": 0.3858267716535433,
          "duration": 0.13043500000000563
        },
        {
          "name": "C2",
          "midi": 36,
          "time": 94.8262450000008,
          "velocity": 0.6299212598425197,
          "duration": 0.13043500000000563
        },
        {
          "name": "G#2",
          "midi": 44,
          "time": 94.9566800000008,
          "velocity": 0.3858267716535433,
          "duration": 0.13043500000000563
        },
        {
          "name": "C2",
          "midi": 36,
          "time": 95.08711500000081,
          "velocity": 0.6299212598425197,
          "duration": 0.13043500000000563
        },
        {
          "name": "G#2",
          "midi": 44,
          "time": 95.21755000000081,
          "velocity": 0.3858267716535433,
          "duration": 0.13043500000000563
        },
        {
          "name": "C2",
          "midi": 36,
          "time": 95.34798500000082,
          "velocity": 0.6299212598425197,
          "duration": 0.13043500000000563
        },
        {
          "name": "G#2",
          "midi": 44,
          "time": 95.47842000000082,
          "velocity": 0.3858267716535433,
          "duration": 0.13043500000000563
        },
        {
          "name": "C2",
          "midi": 36,
          "time": 95.47842000000082,
          "velocity": 0.6299212598425197,
          "duration": 0.13043500000000563
        },
        {
          "name": "E2",
          "midi": 40,
          "time": 95.47842000000082,
          "velocity": 0.6299212598425197,
          "duration": 0.13043500000000563
        },
        {
          "name": "G#2",
          "midi": 44,
          "time": 95.73929000000084,
          "velocity": 0.3858267716535433,
          "duration": 0.13043500000000563
        },
        {
          "name": "E2",
          "midi": 40,
          "time": 95.86972500000084,
          "velocity": 0.6299212598425197,
          "duration": 0.13043500000000563
        },
        {
          "name": "G#2",
          "midi": 44,
          "time": 96.00016000000085,
          "velocity": 0.3858267716535433,
          "duration": 0.13043500000000563
        },
        {
          "name": "C2",
          "midi": 36,
          "time": 96.00016000000085,
          "velocity": 0.6299212598425197,
          "duration": 0.13043500000000563
        },
        {
          "name": "G#2",
          "midi": 44,
          "time": 96.26103000000086,
          "velocity": 0.3858267716535433,
          "duration": 0.13043500000000563
        },
        {
          "name": "E2",
          "midi": 40,
          "time": 96.52190000000087,
          "velocity": 0.6299212598425197,
          "duration": 0.13043500000000563
        },
        {
          "name": "G#2",
          "midi": 44,
          "time": 96.52190000000087,
          "velocity": 0.3858267716535433,
          "duration": 0.13043500000000563
        },
        {
          "name": "G#2",
          "midi": 44,
          "time": 96.78277000000088,
          "velocity": 0.3858267716535433,
          "duration": 0.13043500000000563
        },
        {
          "name": "C2",
          "midi": 36,
          "time": 96.91320500000089,
          "velocity": 0.6299212598425197,
          "duration": 0.13043500000000563
        },
        {
          "name": "G#2",
          "midi": 44,
          "time": 97.04364000000089,
          "velocity": 0.3858267716535433,
          "duration": 0.13043500000000563
        },
        {
          "name": "C2",
          "midi": 36,
          "time": 97.1740750000009,
          "velocity": 0.6299212598425197,
          "duration": 0.13043500000000563
        },
        {
          "name": "G#2",
          "midi": 44,
          "time": 97.3045100000009,
          "velocity": 0.3858267716535433,
          "duration": 0.13043500000000563
        },
        {
          "name": "C2",
          "midi": 36,
          "time": 97.43494500000091,
          "velocity": 0.6299212598425197,
          "duration": 0.13043500000000563
        },
        {
          "name": "E2",
          "midi": 40,
          "time": 97.56538000000091,
          "velocity": 0.6299212598425197,
          "duration": 0.13043500000000563
        },
        {
          "name": "C2",
          "midi": 36,
          "time": 97.56538000000091,
          "velocity": 0.6299212598425197,
          "duration": 0.13043500000000563
        },
        {
          "name": "G#2",
          "midi": 44,
          "time": 97.56538000000091,
          "velocity": 0.3858267716535433,
          "duration": 0.13043500000000563
        },
        {
          "name": "G#2",
          "midi": 44,
          "time": 97.82625000000093,
          "velocity": 0.3858267716535433,
          "duration": 0.13043500000000563
        },
        {
          "name": "E2",
          "midi": 40,
          "time": 97.95668500000093,
          "velocity": 0.6299212598425197,
          "duration": 0.13043500000000563
        },
        {
          "name": "G#2",
          "midi": 44,
          "time": 98.08712000000094,
          "velocity": 0.3858267716535433,
          "duration": 0.13043500000000563
        },
        {
          "name": "C2",
          "midi": 36,
          "time": 98.08712000000094,
          "velocity": 0.6299212598425197,
          "duration": 0.13043500000000563
        },
        {
          "name": "G#2",
          "midi": 44,
          "time": 98.34799000000095,
          "velocity": 0.3858267716535433,
          "duration": 0.13043500000000563
        },
        {
          "name": "E2",
          "midi": 40,
          "time": 98.60886000000096,
          "velocity": 0.6299212598425197,
          "duration": 0.13043500000000563
        },
        {
          "name": "G#2",
          "midi": 44,
          "time": 98.60886000000096,
          "velocity": 0.3858267716535433,
          "duration": 0.13043500000000563
        },
        {
          "name": "G#2",
          "midi": 44,
          "time": 98.86973000000097,
          "velocity": 0.3858267716535433,
          "duration": 0.13043500000000563
        },
        {
          "name": "C2",
          "midi": 36,
          "time": 99.00016500000098,
          "velocity": 0.6299212598425197,
          "duration": 0.13043500000000563
        },
        {
          "name": "G#2",
          "midi": 44,
          "time": 99.13060000000098,
          "velocity": 0.3858267716535433,
          "duration": 0.13043500000000563
        },
        {
          "name": "C2",
          "midi": 36,
          "time": 99.26103500000099,
          "velocity": 0.6299212598425197,
          "duration": 0.13043500000000563
        },
        {
          "name": "G#2",
          "midi": 44,
          "time": 99.391470000001,
          "velocity": 0.3858267716535433,
          "duration": 0.13043500000000563
        },
        {
          "name": "C2",
          "midi": 36,
          "time": 99.521905000001,
          "velocity": 0.6299212598425197,
          "duration": 0.13043500000000563
        },
        {
          "name": "E2",
          "midi": 40,
          "time": 99.652340000001,
          "velocity": 0.6299212598425197,
          "duration": 0.13043500000000563
        },
        {
          "name": "C2",
          "midi": 36,
          "time": 99.652340000001,
          "velocity": 0.6299212598425197,
          "duration": 0.13043500000000563
        },
        {
          "name": "G#2",
          "midi": 44,
          "time": 99.652340000001,
          "velocity": 0.3858267716535433,
          "duration": 0.13043500000000563
        },
        {
          "name": "G#2",
          "midi": 44,
          "time": 99.91321000000102,
          "velocity": 0.3858267716535433,
          "duration": 0.13043500000000563
        },
        {
          "name": "E2",
          "midi": 40,
          "time": 100.04364500000102,
          "velocity": 0.6299212598425197,
          "duration": 0.13043500000000563
        },
        {
          "name": "C2",
          "midi": 36,
          "time": 100.17408000000103,
          "velocity": 0.6299212598425197,
          "duration": 0.13043500000000563
        },
        {
          "name": "G#2",
          "midi": 44,
          "time": 100.17408000000103,
          "velocity": 0.3858267716535433,
          "duration": 0.13043500000000563
        },
        {
          "name": "G3",
          "midi": 55,
          "time": 100.17408000000103,
          "velocity": 0.6456692913385826,
          "duration": 0.13043500000000563
        },
        {
          "name": "G#2",
          "midi": 44,
          "time": 100.43495000000104,
          "velocity": 0.3858267716535433,
          "duration": 0.13043500000000563
        },
        {
          "name": "E2",
          "midi": 40,
          "time": 100.69582000000105,
          "velocity": 0.6299212598425197,
          "duration": 0.13043500000000563
        },
        {
          "name": "G#2",
          "midi": 44,
          "time": 100.69582000000105,
          "velocity": 0.3858267716535433,
          "duration": 0.13043500000000563
        },
        {
          "name": "G#2",
          "midi": 44,
          "time": 100.95669000000106,
          "velocity": 0.3858267716535433,
          "duration": 0.13043500000000563
        },
        {
          "name": "C2",
          "midi": 36,
          "time": 101.08712500000107,
          "velocity": 0.6299212598425197,
          "duration": 0.13043500000000563
        },
        {
          "name": "G#2",
          "midi": 44,
          "time": 101.21756000000107,
          "velocity": 0.3858267716535433,
          "duration": 0.13043500000000563
        },
        {
          "name": "C2",
          "midi": 36,
          "time": 101.34799500000108,
          "velocity": 0.6299212598425197,
          "duration": 0.13043500000000563
        },
        {
          "name": "G#2",
          "midi": 44,
          "time": 101.47843000000108,
          "velocity": 0.3858267716535433,
          "duration": 0.13043500000000563
        },
        {
          "name": "C2",
          "midi": 36,
          "time": 101.60886500000109,
          "velocity": 0.6299212598425197,
          "duration": 0.13043500000000563
        },
        {
          "name": "E2",
          "midi": 40,
          "time": 101.7393000000011,
          "velocity": 0.6299212598425197,
          "duration": 0.13043500000000563
        },
        {
          "name": "C2",
          "midi": 36,
          "time": 101.7393000000011,
          "velocity": 0.6299212598425197,
          "duration": 0.13043500000000563
        },
        {
          "name": "G#2",
          "midi": 44,
          "time": 101.7393000000011,
          "velocity": 0.3858267716535433,
          "duration": 0.13043500000000563
        },
        {
          "name": "G#2",
          "midi": 44,
          "time": 102.0001700000011,
          "velocity": 0.3858267716535433,
          "duration": 0.13043500000000563
        },
        {
          "name": "E2",
          "midi": 40,
          "time": 102.13060500000111,
          "velocity": 0.6299212598425197,
          "duration": 0.13043500000000563
        },
        {
          "name": "C2",
          "midi": 36,
          "time": 102.26104000000112,
          "velocity": 0.6299212598425197,
          "duration": 0.13043500000000563
        },
        {
          "name": "G#2",
          "midi": 44,
          "time": 102.26104000000112,
          "velocity": 0.3858267716535433,
          "duration": 0.13043500000000563
        },
        {
          "name": "G#2",
          "midi": 44,
          "time": 102.52191000000113,
          "velocity": 0.3858267716535433,
          "duration": 0.13043500000000563
        },
        {
          "name": "E2",
          "midi": 40,
          "time": 102.78278000000114,
          "velocity": 0.6299212598425197,
          "duration": 0.13043500000000563
        },
        {
          "name": "G#2",
          "midi": 44,
          "time": 102.78278000000114,
          "velocity": 0.3858267716535433,
          "duration": 0.13043500000000563
        },
        {
          "name": "G#2",
          "midi": 44,
          "time": 103.04365000000115,
          "velocity": 0.3858267716535433,
          "duration": 0.13043500000000563
        },
        {
          "name": "C2",
          "midi": 36,
          "time": 103.17408500000116,
          "velocity": 0.6299212598425197,
          "duration": 0.13043500000000563
        },
        {
          "name": "G#2",
          "midi": 44,
          "time": 103.30452000000116,
          "velocity": 0.3858267716535433,
          "duration": 0.13043500000000563
        },
        {
          "name": "C2",
          "midi": 36,
          "time": 103.43495500000117,
          "velocity": 0.6299212598425197,
          "duration": 0.13043500000000563
        },
        {
          "name": "G#2",
          "midi": 44,
          "time": 103.56539000000117,
          "velocity": 0.3858267716535433,
          "duration": 0.13043500000000563
        },
        {
          "name": "C2",
          "midi": 36,
          "time": 103.69582500000118,
          "velocity": 0.6299212598425197,
          "duration": 0.13043500000000563
        },
        {
          "name": "E2",
          "midi": 40,
          "time": 103.82626000000118,
          "velocity": 0.6299212598425197,
          "duration": 0.13043500000000563
        },
        {
          "name": "C2",
          "midi": 36,
          "time": 103.82626000000118,
          "velocity": 0.6299212598425197,
          "duration": 0.13043500000000563
        },
        {
          "name": "G#2",
          "midi": 44,
          "time": 103.82626000000118,
          "velocity": 0.3858267716535433,
          "duration": 0.13043500000000563
        },
        {
          "name": "G#2",
          "midi": 44,
          "time": 104.0871300000012,
          "velocity": 0.3858267716535433,
          "duration": 0.13043500000000563
        },
        {
          "name": "E2",
          "midi": 40,
          "time": 104.2175650000012,
          "velocity": 0.6299212598425197,
          "duration": 0.13043500000000563
        },
        {
          "name": "G#2",
          "midi": 44,
          "time": 104.3480000000012,
          "velocity": 0.3858267716535433,
          "duration": 0.13043500000000563
        },
        {
          "name": "C2",
          "midi": 36,
          "time": 104.3480000000012,
          "velocity": 0.6299212598425197,
          "duration": 0.13043500000000563
        },
        {
          "name": "G#2",
          "midi": 44,
          "time": 104.60887000000122,
          "velocity": 0.3858267716535433,
          "duration": 0.13043500000000563
        },
        {
          "name": "G#2",
          "midi": 44,
          "time": 104.86974000000123,
          "velocity": 0.3858267716535433,
          "duration": 0.13043500000000563
        },
        {
          "name": "E2",
          "midi": 40,
          "time": 104.86974000000123,
          "velocity": 0.6299212598425197,
          "duration": 0.13043500000000563
        },
        {
          "name": "G#2",
          "midi": 44,
          "time": 105.13061000000124,
          "velocity": 0.3858267716535433,
          "duration": 0.13043500000000563
        },
        {
          "name": "C2",
          "midi": 36,
          "time": 105.26104500000125,
          "velocity": 0.6299212598425197,
          "duration": 0.13043500000000563
        },
        {
          "name": "G#2",
          "midi": 44,
          "time": 105.39148000000125,
          "velocity": 0.3858267716535433,
          "duration": 0.13043500000000563
        },
        {
          "name": "C2",
          "midi": 36,
          "time": 105.52191500000126,
          "velocity": 0.6299212598425197,
          "duration": 0.13043500000000563
        },
        {
          "name": "G#2",
          "midi": 44,
          "time": 105.65235000000126,
          "velocity": 0.3858267716535433,
          "duration": 0.13043500000000563
        },
        {
          "name": "C2",
          "midi": 36,
          "time": 105.78278500000127,
          "velocity": 0.6299212598425197,
          "duration": 0.13043500000000563
        },
        {
          "name": "E2",
          "midi": 40,
          "time": 105.91322000000127,
          "velocity": 0.6299212598425197,
          "duration": 0.13043500000000563
        },
        {
          "name": "C2",
          "midi": 36,
          "time": 105.91322000000127,
          "velocity": 0.6299212598425197,
          "duration": 0.13043500000000563
        },
        {
          "name": "G#2",
          "midi": 44,
          "time": 105.91322000000127,
          "velocity": 0.3858267716535433,
          "duration": 0.13043500000000563
        },
        {
          "name": "G#2",
          "midi": 44,
          "time": 106.17409000000129,
          "velocity": 0.3858267716535433,
          "duration": 0.13043500000000563
        },
        {
          "name": "E2",
          "midi": 40,
          "time": 106.30452500000129,
          "velocity": 0.6299212598425197,
          "duration": 0.13043500000000563
        },
        {
          "name": "C2",
          "midi": 36,
          "time": 106.4349600000013,
          "velocity": 0.6299212598425197,
          "duration": 0.13043500000000563
        },
        {
          "name": "G#2",
          "midi": 44,
          "time": 106.4349600000013,
          "velocity": 0.3858267716535433,
          "duration": 0.13043500000000563
        },
        {
          "name": "G#2",
          "midi": 44,
          "time": 106.69583000000131,
          "velocity": 0.3858267716535433,
          "duration": 0.13043500000000563
        },
        {
          "name": "E2",
          "midi": 40,
          "time": 106.95670000000132,
          "velocity": 0.6299212598425197,
          "duration": 0.13043500000000563
        },
        {
          "name": "G#2",
          "midi": 44,
          "time": 106.95670000000132,
          "velocity": 0.3858267716535433,
          "duration": 0.13043500000000563
        },
        {
          "name": "G#2",
          "midi": 44,
          "time": 107.21757000000133,
          "velocity": 0.3858267716535433,
          "duration": 0.13043500000000563
        },
        {
          "name": "C2",
          "midi": 36,
          "time": 107.34800500000134,
          "velocity": 0.6299212598425197,
          "duration": 0.13043500000000563
        },
        {
          "name": "G#2",
          "midi": 44,
          "time": 107.47844000000134,
          "velocity": 0.3858267716535433,
          "duration": 0.13043500000000563
        },
        {
          "name": "C2",
          "midi": 36,
          "time": 107.60887500000135,
          "velocity": 0.6299212598425197,
          "duration": 0.13043500000000563
        },
        {
          "name": "G#2",
          "midi": 44,
          "time": 107.73931000000135,
          "velocity": 0.3858267716535433,
          "duration": 0.13043500000000563
        },
        {
          "name": "C2",
          "midi": 36,
          "time": 107.86974500000136,
          "velocity": 0.6299212598425197,
          "duration": 0.13043500000000563
        },
        {
          "name": "E2",
          "midi": 40,
          "time": 108.00018000000136,
          "velocity": 0.6299212598425197,
          "duration": 0.13043500000000563
        },
        {
          "name": "C2",
          "midi": 36,
          "time": 108.00018000000136,
          "velocity": 0.6299212598425197,
          "duration": 0.13043500000000563
        },
        {
          "name": "G#2",
          "midi": 44,
          "time": 108.00018000000136,
          "velocity": 0.3858267716535433,
          "duration": 0.13043500000000563
        },
        {
          "name": "G#2",
          "midi": 44,
          "time": 108.26105000000138,
          "velocity": 0.3858267716535433,
          "duration": 0.13043500000000563
        },
        {
          "name": "E2",
          "midi": 40,
          "time": 108.39148500000138,
          "velocity": 0.6299212598425197,
          "duration": 0.13043500000000563
        },
        {
          "name": "C2",
          "midi": 36,
          "time": 108.52192000000139,
          "velocity": 0.6299212598425197,
          "duration": 0.13043500000000563
        },
        {
          "name": "G#2",
          "midi": 44,
          "time": 108.52192000000139,
          "velocity": 0.3858267716535433,
          "duration": 0.13043500000000563
        },
        {
          "name": "G#2",
          "midi": 44,
          "time": 108.7827900000014,
          "velocity": 0.3858267716535433,
          "duration": 0.13043500000000563
        },
        {
          "name": "E2",
          "midi": 40,
          "time": 109.04366000000141,
          "velocity": 0.6299212598425197,
          "duration": 0.13043500000000563
        },
        {
          "name": "G#2",
          "midi": 44,
          "time": 109.04366000000141,
          "velocity": 0.3858267716535433,
          "duration": 0.13043500000000563
        },
        {
          "name": "G#2",
          "midi": 44,
          "time": 109.30453000000142,
          "velocity": 0.3858267716535433,
          "duration": 0.13043500000000563
        },
        {
          "name": "C2",
          "midi": 36,
          "time": 109.43496500000143,
          "velocity": 0.6299212598425197,
          "duration": 0.13043500000000563
        },
        {
          "name": "G#2",
          "midi": 44,
          "time": 109.56540000000143,
          "velocity": 0.3858267716535433,
          "duration": 0.13043500000000563
        },
        {
          "name": "C2",
          "midi": 36,
          "time": 109.69583500000144,
          "velocity": 0.6299212598425197,
          "duration": 0.13043500000000563
        },
        {
          "name": "G#2",
          "midi": 44,
          "time": 109.82627000000144,
          "velocity": 0.3858267716535433,
          "duration": 0.13043500000000563
        },
        {
          "name": "C2",
          "midi": 36,
          "time": 109.95670500000145,
          "velocity": 0.6299212598425197,
          "duration": 0.13043500000000563
        },
        {
          "name": "E2",
          "midi": 40,
          "time": 110.08714000000145,
          "velocity": 0.6299212598425197,
          "duration": 0.13043500000000563
        },
        {
          "name": "C2",
          "midi": 36,
          "time": 110.08714000000145,
          "velocity": 0.6299212598425197,
          "duration": 0.13043500000000563
        },
        {
          "name": "G#2",
          "midi": 44,
          "time": 110.08714000000145,
          "velocity": 0.3858267716535433,
          "duration": 0.13043500000000563
        },
        {
          "name": "G#2",
          "midi": 44,
          "time": 110.34801000000147,
          "velocity": 0.3858267716535433,
          "duration": 0.13043500000000563
        },
        {
          "name": "E2",
          "midi": 40,
          "time": 110.47844500000147,
          "velocity": 0.6299212598425197,
          "duration": 0.13043500000000563
        },
        {
          "name": "C2",
          "midi": 36,
          "time": 110.60888000000148,
          "velocity": 0.6299212598425197,
          "duration": 0.13043500000000563
        },
        {
          "name": "G#2",
          "midi": 44,
          "time": 110.60888000000148,
          "velocity": 0.3858267716535433,
          "duration": 0.13043500000000563
        },
        {
          "name": "G#2",
          "midi": 44,
          "time": 110.86975000000149,
          "velocity": 0.3858267716535433,
          "duration": 0.13043500000000563
        },
        {
          "name": "E2",
          "midi": 40,
          "time": 111.1306200000015,
          "velocity": 0.6299212598425197,
          "duration": 0.13043500000000563
        },
        {
          "name": "G#2",
          "midi": 44,
          "time": 111.1306200000015,
          "velocity": 0.3858267716535433,
          "duration": 0.13043500000000563
        },
        {
          "name": "G#2",
          "midi": 44,
          "time": 111.39149000000151,
          "velocity": 0.3858267716535433,
          "duration": 0.13043500000000563
        },
        {
          "name": "C2",
          "midi": 36,
          "time": 111.52192500000152,
          "velocity": 0.6299212598425197,
          "duration": 0.13043500000000563
        },
        {
          "name": "G#2",
          "midi": 44,
          "time": 111.65236000000152,
          "velocity": 0.3858267716535433,
          "duration": 0.13043500000000563
        },
        {
          "name": "C2",
          "midi": 36,
          "time": 111.78279500000153,
          "velocity": 0.6299212598425197,
          "duration": 0.13043500000000563
        },
        {
          "name": "G#2",
          "midi": 44,
          "time": 111.91323000000153,
          "velocity": 0.3858267716535433,
          "duration": 0.13043500000000563
        },
        {
          "name": "C2",
          "midi": 36,
          "time": 112.04366500000154,
          "velocity": 0.6299212598425197,
          "duration": 0.13043500000000563
        },
        {
          "name": "E2",
          "midi": 40,
          "time": 112.17410000000154,
          "velocity": 0.6299212598425197,
          "duration": 0.13043500000000563
        },
        {
          "name": "C2",
          "midi": 36,
          "time": 112.17410000000154,
          "velocity": 0.6299212598425197,
          "duration": 0.13043500000000563
        },
        {
          "name": "G#2",
          "midi": 44,
          "time": 112.17410000000154,
          "velocity": 0.3858267716535433,
          "duration": 0.13043500000000563
        },
        {
          "name": "G#2",
          "midi": 44,
          "time": 112.43497000000156,
          "velocity": 0.3858267716535433,
          "duration": 0.13043500000000563
        },
        {
          "name": "E2",
          "midi": 40,
          "time": 112.56540500000156,
          "velocity": 0.6299212598425197,
          "duration": 0.13043500000000563
        },
        {
          "name": "A3",
          "midi": 57,
          "time": 115.95671500000157,
          "velocity": 0.6456692913385826,
          "duration": 0.13043500000000563
        },
        {
          "name": "C#3",
          "midi": 49,
          "time": 116.21758500000158,
          "velocity": 0.6377952755905512,
          "duration": 0.13043500000000563
        },
        {
          "name": "A3",
          "midi": 57,
          "time": 116.47845500000159,
          "velocity": 0.6456692913385826,
          "duration": 0.26086999999999705
        },
        {
          "name": "A3",
          "midi": 57,
          "time": 116.86976000000159,
          "velocity": 0.6456692913385826,
          "duration": 0.13043500000000563
        },
        {
          "name": "A#2",
          "midi": 46,
          "time": 116.86976000000159,
          "velocity": 0.3858267716535433,
          "duration": 0.13043500000000563
        },
        {
          "name": "C2",
          "midi": 36,
          "time": 116.86976000000159,
          "velocity": 0.6456692913385826,
          "duration": 0.13043500000000563
        },
        {
          "name": "E2",
          "midi": 40,
          "time": 117.1306300000016,
          "velocity": 0.6456692913385826,
          "duration": 0.13043500000000563
        },
        {
          "name": "A#2",
          "midi": 46,
          "time": 117.1306300000016,
          "velocity": 0.3858267716535433,
          "duration": 0.13043500000000563
        },
        {
          "name": "A#2",
          "midi": 46,
          "time": 117.39150000000161,
          "velocity": 0.3858267716535433,
          "duration": 0.13043500000000563
        },
        {
          "name": "C2",
          "midi": 36,
          "time": 117.39150000000161,
          "velocity": 0.6456692913385826,
          "duration": 0.13043500000000563
        },
        {
          "name": "E2",
          "midi": 40,
          "time": 117.65237000000162,
          "velocity": 0.6377952755905512,
          "duration": 0.13043500000000563
        },
        {
          "name": "A#2",
          "midi": 46,
          "time": 117.65237000000162,
          "velocity": 0.3858267716535433,
          "duration": 0.13043500000000563
        },
        {
          "name": "C2",
          "midi": 36,
          "time": 117.78280500000163,
          "velocity": 0.6377952755905512,
          "duration": 0.13043500000000563
        },
        {
          "name": "A#2",
          "midi": 46,
          "time": 117.91324000000164,
          "velocity": 0.3858267716535433,
          "duration": 0.13043500000000563
        },
        {
          "name": "C2",
          "midi": 36,
          "time": 118.04367500000164,
          "velocity": 0.6377952755905512,
          "duration": 0.13043500000000563
        },
        {
          "name": "E2",
          "midi": 40,
          "time": 118.17411000000165,
          "velocity": 0.6377952755905512,
          "duration": 0.13043500000000563
        },
        {
          "name": "A#2",
          "midi": 46,
          "time": 118.17411000000165,
          "velocity": 0.3858267716535433,
          "duration": 0.13043500000000563
        },
        {
          "name": "C2",
          "midi": 36,
          "time": 118.30454500000165,
          "velocity": 0.6299212598425197,
          "duration": 0.13043500000000563
        },
        {
          "name": "A#2",
          "midi": 46,
          "time": 118.43498000000166,
          "velocity": 0.3858267716535433,
          "duration": 0.13043500000000563
        },
        {
          "name": "C2",
          "midi": 36,
          "time": 118.43498000000166,
          "velocity": 0.6299212598425197,
          "duration": 0.13043500000000563
        },
        {
          "name": "E2",
          "midi": 40,
          "time": 118.69585000000167,
          "velocity": 0.6299212598425197,
          "duration": 0.13043500000000563
        },
        {
          "name": "C2",
          "midi": 36,
          "time": 118.69585000000167,
          "velocity": 0.6299212598425197,
          "duration": 0.13043500000000563
        },
        {
          "name": "A#2",
          "midi": 46,
          "time": 118.69585000000167,
          "velocity": 0.3858267716535433,
          "duration": 0.13043500000000563
        },
        {
          "name": "A#2",
          "midi": 46,
          "time": 118.95672000000168,
          "velocity": 0.3858267716535433,
          "duration": 0.13043500000000563
        },
        {
          "name": "C2",
          "midi": 36,
          "time": 118.95672000000168,
          "velocity": 0.6456692913385826,
          "duration": 0.13043500000000563
        },
        {
          "name": "E2",
          "midi": 40,
          "time": 119.21759000000169,
          "velocity": 0.6456692913385826,
          "duration": 0.13043500000000563
        },
        {
          "name": "A#2",
          "midi": 46,
          "time": 119.21759000000169,
          "velocity": 0.3858267716535433,
          "duration": 0.13043500000000563
        },
        {
          "name": "A#2",
          "midi": 46,
          "time": 119.4784600000017,
          "velocity": 0.3858267716535433,
          "duration": 0.13043500000000563
        },
        {
          "name": "C2",
          "midi": 36,
          "time": 119.4784600000017,
          "velocity": 0.6456692913385826,
          "duration": 0.13043500000000563
        },
        {
          "name": "A#2",
          "midi": 46,
          "time": 119.73933000000171,
          "velocity": 0.3858267716535433,
          "duration": 0.13043500000000563
        },
        {
          "name": "E2",
          "midi": 40,
          "time": 119.73933000000171,
          "velocity": 0.6377952755905512,
          "duration": 0.13043500000000563
        },
        {
          "name": "C2",
          "midi": 36,
          "time": 119.86976500000172,
          "velocity": 0.6377952755905512,
          "duration": 0.13043500000000563
        },
        {
          "name": "A#2",
          "midi": 46,
          "time": 120.00020000000173,
          "velocity": 0.3858267716535433,
          "duration": 0.13043500000000563
        },
        {
          "name": "C2",
          "midi": 36,
          "time": 120.13063500000173,
          "velocity": 0.6377952755905512,
          "duration": 0.13043500000000563
        },
        {
          "name": "A#2",
          "midi": 46,
          "time": 120.26107000000174,
          "velocity": 0.3858267716535433,
          "duration": 0.13043500000000563
        },
        {
          "name": "E2",
          "midi": 40,
          "time": 120.26107000000174,
          "velocity": 0.6377952755905512,
          "duration": 0.13043500000000563
        },
        {
          "name": "C2",
          "midi": 36,
          "time": 120.39150500000174,
          "velocity": 0.6299212598425197,
          "duration": 0.13043500000000563
        },
        {
          "name": "A#2",
          "midi": 46,
          "time": 120.52194000000175,
          "velocity": 0.3858267716535433,
          "duration": 0.13043500000000563
        },
        {
          "name": "C2",
          "midi": 36,
          "time": 120.52194000000175,
          "velocity": 0.6299212598425197,
          "duration": 0.13043500000000563
        },
        {
          "name": "A#2",
          "midi": 46,
          "time": 120.78281000000176,
          "velocity": 0.3858267716535433,
          "duration": 0.13043500000000563
        },
        {
          "name": "C2",
          "midi": 36,
          "time": 120.78281000000176,
          "velocity": 0.6299212598425197,
          "duration": 0.13043500000000563
        },
        {
          "name": "E2",
          "midi": 40,
          "time": 120.78281000000176,
          "velocity": 0.6299212598425197,
          "duration": 0.13043500000000563
        },
        {
          "name": "A#2",
          "midi": 46,
          "time": 121.04368000000177,
          "velocity": 0.3858267716535433,
          "duration": 0.13043500000000563
        },
        {
          "name": "C2",
          "midi": 36,
          "time": 121.04368000000177,
          "velocity": 0.6456692913385826,
          "duration": 0.13043500000000563
        },
        {
          "name": "E2",
          "midi": 40,
          "time": 121.30455000000178,
          "velocity": 0.6456692913385826,
          "duration": 0.13043500000000563
        },
        {
          "name": "A#2",
          "midi": 46,
          "time": 121.30455000000178,
          "velocity": 0.3858267716535433,
          "duration": 0.13043500000000563
        },
        {
          "name": "A#2",
          "midi": 46,
          "time": 121.5654200000018,
          "velocity": 0.3858267716535433,
          "duration": 0.13043500000000563
        },
        {
          "name": "C2",
          "midi": 36,
          "time": 121.5654200000018,
          "velocity": 0.6456692913385826,
          "duration": 0.13043500000000563
        },
        {
          "name": "E2",
          "midi": 40,
          "time": 121.8262900000018,
          "velocity": 0.6377952755905512,
          "duration": 0.13043500000000563
        },
        {
          "name": "A#2",
          "midi": 46,
          "time": 121.8262900000018,
          "velocity": 0.3858267716535433,
          "duration": 0.13043500000000563
        },
        {
          "name": "C2",
          "midi": 36,
          "time": 121.95672500000181,
          "velocity": 0.6377952755905512,
          "duration": 0.13043500000000563
        },
        {
          "name": "A#2",
          "midi": 46,
          "time": 122.08716000000182,
          "velocity": 0.3858267716535433,
          "duration": 0.13043500000000563
        },
        {
          "name": "C2",
          "midi": 36,
          "time": 122.21759500000182,
          "velocity": 0.6377952755905512,
          "duration": 0.13043500000000563
        },
        {
          "name": "E2",
          "midi": 40,
          "time": 122.34803000000183,
          "velocity": 0.6377952755905512,
          "duration": 0.13043500000000563
        },
        {
          "name": "A#2",
          "midi": 46,
          "time": 122.34803000000183,
          "velocity": 0.3858267716535433,
          "duration": 0.13043500000000563
        },
        {
          "name": "C2",
          "midi": 36,
          "time": 122.47846500000183,
          "velocity": 0.6299212598425197,
          "duration": 0.13043500000000563
        },
        {
          "name": "A#2",
          "midi": 46,
          "time": 122.60890000000184,
          "velocity": 0.3858267716535433,
          "duration": 0.13043500000000563
        },
        {
          "name": "C2",
          "midi": 36,
          "time": 122.60890000000184,
          "velocity": 0.6299212598425197,
          "duration": 0.13043500000000563
        },
        {
          "name": "E2",
          "midi": 40,
          "time": 122.86977000000185,
          "velocity": 0.6299212598425197,
          "duration": 0.13043500000000563
        },
        {
          "name": "C2",
          "midi": 36,
          "time": 122.86977000000185,
          "velocity": 0.6299212598425197,
          "duration": 0.13043500000000563
        },
        {
          "name": "A#2",
          "midi": 46,
          "time": 122.86977000000185,
          "velocity": 0.3858267716535433,
          "duration": 0.13043500000000563
        },
        {
          "name": "A#2",
          "midi": 46,
          "time": 123.13064000000186,
          "velocity": 0.3858267716535433,
          "duration": 0.13043500000000563
        },
        {
          "name": "C2",
          "midi": 36,
          "time": 123.13064000000186,
          "velocity": 0.6456692913385826,
          "duration": 0.13043500000000563
        },
        {
          "name": "E2",
          "midi": 40,
          "time": 123.39151000000187,
          "velocity": 0.6456692913385826,
          "duration": 0.13043500000000563
        },
        {
          "name": "A#2",
          "midi": 46,
          "time": 123.39151000000187,
          "velocity": 0.3858267716535433,
          "duration": 0.13043500000000563
        },
        {
          "name": "A#2",
          "midi": 46,
          "time": 123.65238000000188,
          "velocity": 0.3858267716535433,
          "duration": 0.13043500000000563
        },
        {
          "name": "C2",
          "midi": 36,
          "time": 123.65238000000188,
          "velocity": 0.6456692913385826,
          "duration": 0.13043500000000563
        },
        {
          "name": "E2",
          "midi": 40,
          "time": 123.78281500000189,
          "velocity": 0.6377952755905512,
          "duration": 0.13043500000000563
        },
        {
          "name": "A#2",
          "midi": 46,
          "time": 123.9132500000019,
          "velocity": 0.3858267716535433,
          "duration": 0.13043500000000563
        },
        {
          "name": "C2",
          "midi": 36,
          "time": 124.0436850000019,
          "velocity": 0.6377952755905512,
          "duration": 0.13043500000000563
        },
        {
          "name": "E2",
          "midi": 40,
          "time": 124.0436850000019,
          "velocity": 0.6377952755905512,
          "duration": 0.13043500000000563
        },
        {
          "name": "A#2",
          "midi": 46,
          "time": 124.1741200000019,
          "velocity": 0.3858267716535433,
          "duration": 0.13043500000000563
        },
        {
          "name": "A3",
          "midi": 57,
          "time": 124.30455500000191,
          "velocity": 0.6456692913385826,
          "duration": 0.13043500000000563
        },
        {
          "name": "C2",
          "midi": 36,
          "time": 124.30455500000191,
          "velocity": 0.6377952755905512,
          "duration": 0.13043500000000563
        },
        {
          "name": "A#2",
          "midi": 46,
          "time": 124.43499000000192,
          "velocity": 0.3858267716535433,
          "duration": 0.13043500000000563
        },
        {
          "name": "E2",
          "midi": 40,
          "time": 124.43499000000192,
          "velocity": 0.6377952755905512,
          "duration": 0.13043500000000563
        },
        {
          "name": "C#3",
          "midi": 49,
          "time": 124.56542500000192,
          "velocity": 0.6377952755905512,
          "duration": 0.13043500000000563
        },
        {
          "name": "C2",
          "midi": 36,
          "time": 124.56542500000192,
          "velocity": 0.6299212598425197,
          "duration": 0.13043500000000563
        },
        {
          "name": "A#2",
          "midi": 46,
          "time": 124.69586000000193,
          "velocity": 0.3858267716535433,
          "duration": 0.13043500000000563
        },
        {
          "name": "C2",
          "midi": 36,
          "time": 124.69586000000193,
          "velocity": 0.6299212598425197,
          "duration": 0.13043500000000563
        },
        {
          "name": "E2",
          "midi": 40,
          "time": 124.69586000000193,
          "velocity": 0.6377952755905512,
          "duration": 0.13043500000000563
        },
        {
          "name": "A3",
          "midi": 57,
          "time": 124.82629500000193,
          "velocity": 0.6456692913385826,
          "duration": 0.26087000000001126
        },
        {
          "name": "A#2",
          "midi": 46,
          "time": 124.95673000000194,
          "velocity": 0.3858267716535433,
          "duration": 0.13043500000000563
        },
        {
          "name": "C2",
          "midi": 36,
          "time": 124.95673000000194,
          "velocity": 0.6299212598425197,
          "duration": 0.13043500000000563
        },
        {
          "name": "E2",
          "midi": 40,
          "time": 124.95673000000194,
          "velocity": 0.6299212598425197,
          "duration": 0.13043500000000563
        },
        {
          "name": "A3",
          "midi": 57,
          "time": 125.21760000000195,
          "velocity": 0.6456692913385826,
          "duration": 0.13043500000000563
        },
        {
          "name": "A#2",
          "midi": 46,
          "time": 125.21760000000195,
          "velocity": 0.3858267716535433,
          "duration": 0.13043500000000563
        },
        {
          "name": "C2",
          "midi": 36,
          "time": 125.21760000000195,
          "velocity": 0.6456692913385826,
          "duration": 0.13043500000000563
        },
        {
          "name": "A3",
          "midi": 57,
          "time": 125.21760000000195,
          "velocity": 0.6456692913385826,
          "duration": 0.13043500000000563
        },
        {
          "name": "E2",
          "midi": 40,
          "time": 125.47847000000196,
          "velocity": 0.6456692913385826,
          "duration": 0.13043500000000563
        },
        {
          "name": "A#2",
          "midi": 46,
          "time": 125.47847000000196,
          "velocity": 0.3858267716535433,
          "duration": 0.13043500000000563
        },
        {
          "name": "A#2",
          "midi": 46,
          "time": 125.73934000000197,
          "velocity": 0.3858267716535433,
          "duration": 0.13043500000000563
        },
        {
          "name": "C2",
          "midi": 36,
          "time": 125.73934000000197,
          "velocity": 0.6456692913385826,
          "duration": 0.13043500000000563
        },
        {
          "name": "E2",
          "midi": 40,
          "time": 126.00021000000199,
          "velocity": 0.6377952755905512,
          "duration": 0.13043500000000563
        },
        {
          "name": "A#2",
          "midi": 46,
          "time": 126.00021000000199,
          "velocity": 0.3858267716535433,
          "duration": 0.13043500000000563
        },
        {
          "name": "C2",
          "midi": 36,
          "time": 126.13064500000199,
          "velocity": 0.6377952755905512,
          "duration": 0.13043500000000563
        },
        {
          "name": "A#2",
          "midi": 46,
          "time": 126.261080000002,
          "velocity": 0.3858267716535433,
          "duration": 0.13043500000000563
        },
        {
          "name": "C2",
          "midi": 36,
          "time": 126.391515000002,
          "velocity": 0.6377952755905512,
          "duration": 0.13043500000000563
        },
        {
          "name": "E2",
          "midi": 40,
          "time": 126.52195000000201,
          "velocity": 0.6377952755905512,
          "duration": 0.13043500000000563
        },
        {
          "name": "A#2",
          "midi": 46,
          "time": 126.52195000000201,
          "velocity": 0.3858267716535433,
          "duration": 0.13043500000000563
        },
        {
          "name": "C2",
          "midi": 36,
          "time": 126.65238500000201,
          "velocity": 0.6299212598425197,
          "duration": 0.13043500000000563
        },
        {
          "name": "A#2",
          "midi": 46,
          "time": 126.78282000000202,
          "velocity": 0.3858267716535433,
          "duration": 0.13043500000000563
        },
        {
          "name": "C2",
          "midi": 36,
          "time": 126.78282000000202,
          "velocity": 0.6299212598425197,
          "duration": 0.13043500000000563
        },
        {
          "name": "E2",
          "midi": 40,
          "time": 127.04369000000203,
          "velocity": 0.6299212598425197,
          "duration": 0.13043500000000563
        },
        {
          "name": "C2",
          "midi": 36,
          "time": 127.04369000000203,
          "velocity": 0.6299212598425197,
          "duration": 0.13043500000000563
        },
        {
          "name": "A#2",
          "midi": 46,
          "time": 127.04369000000203,
          "velocity": 0.3858267716535433,
          "duration": 0.13043500000000563
        },
        {
          "name": "A#2",
          "midi": 46,
          "time": 127.30456000000204,
          "velocity": 0.3858267716535433,
          "duration": 0.13043500000000563
        },
        {
          "name": "C2",
          "midi": 36,
          "time": 127.30456000000204,
          "velocity": 0.6456692913385826,
          "duration": 0.13043500000000563
        },
        {
          "name": "E2",
          "midi": 40,
          "time": 127.56543000000205,
          "velocity": 0.6456692913385826,
          "duration": 0.13043500000000563
        },
        {
          "name": "A#2",
          "midi": 46,
          "time": 127.56543000000205,
          "velocity": 0.3858267716535433,
          "duration": 0.13043500000000563
        },
        {
          "name": "A#2",
          "midi": 46,
          "time": 127.82630000000206,
          "velocity": 0.3858267716535433,
          "duration": 0.13043500000000563
        },
        {
          "name": "C2",
          "midi": 36,
          "time": 127.82630000000206,
          "velocity": 0.6456692913385826,
          "duration": 0.13043500000000563
        },
        {
          "name": "A#2",
          "midi": 46,
          "time": 128.08717000000206,
          "velocity": 0.3858267716535433,
          "duration": 0.13043500000000563
        },
        {
          "name": "E2",
          "midi": 40,
          "time": 128.08717000000206,
          "velocity": 0.6377952755905512,
          "duration": 0.13043500000000563
        },
        {
          "name": "C2",
          "midi": 36,
          "time": 128.21760500000207,
          "velocity": 0.6377952755905512,
          "duration": 0.13043500000000563
        },
        {
          "name": "A#2",
          "midi": 46,
          "time": 128.34804000000207,
          "velocity": 0.3858267716535433,
          "duration": 0.13043500000000563
        },
        {
          "name": "C2",
          "midi": 36,
          "time": 128.47847500000208,
          "velocity": 0.6377952755905512,
          "duration": 0.13043500000000563
        },
        {
          "name": "A#2",
          "midi": 46,
          "time": 128.60891000000208,
          "velocity": 0.3858267716535433,
          "duration": 0.13043500000000563
        },
        {
          "name": "E2",
          "midi": 40,
          "time": 128.60891000000208,
          "velocity": 0.6377952755905512,
          "duration": 0.13043500000000563
        },
        {
          "name": "C2",
          "midi": 36,
          "time": 128.7393450000021,
          "velocity": 0.6299212598425197,
          "duration": 0.13043500000000563
        },
        {
          "name": "A#2",
          "midi": 46,
          "time": 128.8697800000021,
          "velocity": 0.3858267716535433,
          "duration": 0.13043500000000563
        },
        {
          "name": "C2",
          "midi": 36,
          "time": 128.8697800000021,
          "velocity": 0.6299212598425197,
          "duration": 0.13043500000000563
        },
        {
          "name": "A#2",
          "midi": 46,
          "time": 129.1306500000021,
          "velocity": 0.3858267716535433,
          "duration": 0.13043500000000563
        },
        {
          "name": "C2",
          "midi": 36,
          "time": 129.1306500000021,
          "velocity": 0.6299212598425197,
          "duration": 0.13043500000000563
        },
        {
          "name": "E2",
          "midi": 40,
          "time": 129.1306500000021,
          "velocity": 0.6299212598425197,
          "duration": 0.13043500000000563
        },
        {
          "name": "A#2",
          "midi": 46,
          "time": 129.39152000000212,
          "velocity": 0.3858267716535433,
          "duration": 0.13043500000000563
        },
        {
          "name": "C2",
          "midi": 36,
          "time": 129.39152000000212,
          "velocity": 0.6456692913385826,
          "duration": 0.13043500000000563
        },
        {
          "name": "E2",
          "midi": 40,
          "time": 129.65239000000213,
          "velocity": 0.6456692913385826,
          "duration": 0.13043500000000563
        },
        {
          "name": "A#2",
          "midi": 46,
          "time": 129.65239000000213,
          "velocity": 0.3858267716535433,
          "duration": 0.13043500000000563
        },
        {
          "name": "A#2",
          "midi": 46,
          "time": 129.91326000000214,
          "velocity": 0.3858267716535433,
          "duration": 0.13043500000000563
        },
        {
          "name": "C2",
          "midi": 36,
          "time": 129.91326000000214,
          "velocity": 0.6456692913385826,
          "duration": 0.13043500000000563
        },
        {
          "name": "E2",
          "midi": 40,
          "time": 130.17413000000215,
          "velocity": 0.6377952755905512,
          "duration": 0.13043500000000563
        },
        {
          "name": "A#2",
          "midi": 46,
          "time": 130.17413000000215,
          "velocity": 0.3858267716535433,
          "duration": 0.13043500000000563
        },
        {
          "name": "C2",
          "midi": 36,
          "time": 130.30456500000216,
          "velocity": 0.6377952755905512,
          "duration": 0.13043500000000563
        },
        {
          "name": "A#2",
          "midi": 46,
          "time": 130.43500000000216,
          "velocity": 0.3858267716535433,
          "duration": 0.13043500000000563
        },
        {
          "name": "C2",
          "midi": 36,
          "time": 130.56543500000217,
          "velocity": 0.6377952755905512,
          "duration": 0.13043500000000563
        },
        {
          "name": "E2",
          "midi": 40,
          "time": 130.69587000000217,
          "velocity": 0.6377952755905512,
          "duration": 0.13043500000000563
        },
        {
          "name": "A#2",
          "midi": 46,
          "time": 130.69587000000217,
          "velocity": 0.3858267716535433,
          "duration": 0.13043500000000563
        },
        {
          "name": "C2",
          "midi": 36,
          "time": 130.82630500000218,
          "velocity": 0.6299212598425197,
          "duration": 0.13043500000000563
        },
        {
          "name": "A#2",
          "midi": 46,
          "time": 130.95674000000218,
          "velocity": 0.3858267716535433,
          "duration": 0.13043500000000563
        },
        {
          "name": "C2",
          "midi": 36,
          "time": 130.95674000000218,
          "velocity": 0.6299212598425197,
          "duration": 0.13043500000000563
        },
        {
          "name": "E2",
          "midi": 40,
          "time": 131.2176100000022,
          "velocity": 0.6299212598425197,
          "duration": 0.13043500000000563
        },
        {
          "name": "C2",
          "midi": 36,
          "time": 131.2176100000022,
          "velocity": 0.6299212598425197,
          "duration": 0.13043500000000563
        },
        {
          "name": "A#2",
          "midi": 46,
          "time": 131.2176100000022,
          "velocity": 0.3858267716535433,
          "duration": 0.13043500000000563
        },
        {
          "name": "A#2",
          "midi": 46,
          "time": 131.4784800000022,
          "velocity": 0.3858267716535433,
          "duration": 0.13043500000000563
        },
        {
          "name": "C2",
          "midi": 36,
          "time": 131.4784800000022,
          "velocity": 0.6456692913385826,
          "duration": 0.13043500000000563
        },
        {
          "name": "E2",
          "midi": 40,
          "time": 131.73935000000222,
          "velocity": 0.6456692913385826,
          "duration": 0.13043500000000563
        },
        {
          "name": "A#2",
          "midi": 46,
          "time": 131.73935000000222,
          "velocity": 0.3858267716535433,
          "duration": 0.13043500000000563
        },
        {
          "name": "A#2",
          "midi": 46,
          "time": 132.00022000000223,
          "velocity": 0.3858267716535433,
          "duration": 0.13043500000000563
        },
        {
          "name": "C2",
          "midi": 36,
          "time": 132.00022000000223,
          "velocity": 0.6456692913385826,
          "duration": 0.13043500000000563
        },
        {
          "name": "E2",
          "midi": 40,
          "time": 132.13065500000224,
          "velocity": 0.6377952755905512,
          "duration": 0.13043500000000563
        },
        {
          "name": "A#2",
          "midi": 46,
          "time": 132.26109000000224,
          "velocity": 0.3858267716535433,
          "duration": 0.13043500000000563
        },
        {
          "name": "C2",
          "midi": 36,
          "time": 132.39152500000225,
          "velocity": 0.6377952755905512,
          "duration": 0.13043500000000563
        },
        {
          "name": "E2",
          "midi": 40,
          "time": 132.39152500000225,
          "velocity": 0.6377952755905512,
          "duration": 0.13043500000000563
        },
        {
          "name": "A#2",
          "midi": 46,
          "time": 132.52196000000225,
          "velocity": 0.3858267716535433,
          "duration": 0.13043500000000563
        },
        {
          "name": "A3",
          "midi": 57,
          "time": 132.65239500000226,
          "velocity": 0.6456692913385826,
          "duration": 0.13043500000000563
        },
        {
          "name": "C2",
          "midi": 36,
          "time": 132.65239500000226,
          "velocity": 0.6377952755905512,
          "duration": 0.13043500000000563
        },
        {
          "name": "A#2",
          "midi": 46,
          "time": 132.78283000000226,
          "velocity": 0.3858267716535433,
          "duration": 0.13043500000000563
        },
        {
          "name": "E2",
          "midi": 40,
          "time": 132.78283000000226,
          "velocity": 0.6377952755905512,
          "duration": 0.13043500000000563
        },
        {
          "name": "C#3",
          "midi": 49,
          "time": 132.91326500000227,
          "velocity": 0.6377952755905512,
          "duration": 0.13043500000000563
        },
        {
          "name": "C2",
          "midi": 36,
          "time": 132.91326500000227,
          "velocity": 0.6299212598425197,
          "duration": 0.13043500000000563
        },
        {
          "name": "E2",
          "midi": 40,
          "time": 132.91326500000227,
          "velocity": 0.6377952755905512,
          "duration": 0.13043500000000563
        },
        {
          "name": "A#2",
          "midi": 46,
          "time": 133.04370000000227,
          "velocity": 0.3858267716535433,
          "duration": 0.13043500000000563
        },
        {
          "name": "C2",
          "midi": 36,
          "time": 133.04370000000227,
          "velocity": 0.6299212598425197,
          "duration": 0.13043500000000563
        },
        {
          "name": "A3",
          "midi": 57,
          "time": 133.17413500000228,
          "velocity": 0.6456692913385826,
          "duration": 0.26087000000001126
        },
        {
          "name": "E2",
          "midi": 40,
          "time": 133.17413500000228,
          "velocity": 0.6299212598425197,
          "duration": 0.13043500000000563
        },
        {
          "name": "A#2",
          "midi": 46,
          "time": 133.3045700000023,
          "velocity": 0.3858267716535433,
          "duration": 0.13043500000000563
        },
        {
          "name": "C2",
          "midi": 36,
          "time": 133.3045700000023,
          "velocity": 0.6299212598425197,
          "duration": 0.13043500000000563
        },
        {
          "name": "E2",
          "midi": 40,
          "time": 133.3045700000023,
          "velocity": 0.6299212598425197,
          "duration": 0.13043500000000563
        },
        {
          "name": "A3",
          "midi": 57,
          "time": 133.5654400000023,
          "velocity": 0.6456692913385826,
          "duration": 0.13043500000000563
        },
        {
          "name": "A#2",
          "midi": 46,
          "time": 133.5654400000023,
          "velocity": 0.3858267716535433,
          "duration": 0.13043500000000563
        },
        {
          "name": "C2",
          "midi": 36,
          "time": 133.5654400000023,
          "velocity": 0.6456692913385826,
          "duration": 0.13043500000000563
        },
        {
          "name": "A#2",
          "midi": 46,
          "time": 133.8263100000023,
          "velocity": 0.3858267716535433,
          "duration": 0.13043500000000563
        },
        {
          "name": "E2",
          "midi": 40,
          "time": 133.8263100000023,
          "velocity": 0.6456692913385826,
          "duration": 0.13043500000000563
        },
        {
          "name": "A#2",
          "midi": 46,
          "time": 134.08718000000232,
          "velocity": 0.3858267716535433,
          "duration": 0.13043500000000563
        },
        {
          "name": "C2",
          "midi": 36,
          "time": 134.08718000000232,
          "velocity": 0.6456692913385826,
          "duration": 0.13043500000000563
        },
        {
          "name": "A#2",
          "midi": 46,
          "time": 134.34805000000233,
          "velocity": 0.3858267716535433,
          "duration": 0.13043500000000563
        },
        {
          "name": "E2",
          "midi": 40,
          "time": 134.34805000000233,
          "velocity": 0.6377952755905512,
          "duration": 0.13043500000000563
        },
        {
          "name": "C2",
          "midi": 36,
          "time": 134.47848500000234,
          "velocity": 0.6377952755905512,
          "duration": 0.13043500000000563
        },
        {
          "name": "A#2",
          "midi": 46,
          "time": 134.60892000000234,
          "velocity": 0.3858267716535433,
          "duration": 0.13043500000000563
        },
        {
          "name": "C2",
          "midi": 36,
          "time": 134.73935500000235,
          "velocity": 0.6377952755905512,
          "duration": 0.13043500000000563
        },
        {
          "name": "A#2",
          "midi": 46,
          "time": 134.86979000000235,
          "velocity": 0.3858267716535433,
          "duration": 0.13043500000000563
        },
        {
          "name": "E2",
          "midi": 40,
          "time": 134.86979000000235,
          "velocity": 0.6377952755905512,
          "duration": 0.13043500000000563
        },
        {
          "name": "C2",
          "midi": 36,
          "time": 135.00022500000236,
          "velocity": 0.6299212598425197,
          "duration": 0.13043500000000563
        },
        {
          "name": "A#2",
          "midi": 46,
          "time": 135.13066000000236,
          "velocity": 0.3858267716535433,
          "duration": 0.13043500000000563
        },
        {
          "name": "C2",
          "midi": 36,
          "time": 135.13066000000236,
          "velocity": 0.6299212598425197,
          "duration": 0.13043500000000563
        },
        {
          "name": "A#2",
          "midi": 46,
          "time": 135.39153000000238,
          "velocity": 0.3858267716535433,
          "duration": 0.13043500000000563
        },
        {
          "name": "C2",
          "midi": 36,
          "time": 135.39153000000238,
          "velocity": 0.6299212598425197,
          "duration": 0.13043500000000563
        },
        {
          "name": "E2",
          "midi": 40,
          "time": 135.39153000000238,
          "velocity": 0.6299212598425197,
          "duration": 0.13043500000000563
        },
        {
          "name": "A#2",
          "midi": 46,
          "time": 135.6524000000024,
          "velocity": 0.3858267716535433,
          "duration": 0.13043500000000563
        },
        {
          "name": "C2",
          "midi": 36,
          "time": 135.6524000000024,
          "velocity": 0.6456692913385826,
          "duration": 0.13043500000000563
        },
        {
          "name": "A#2",
          "midi": 46,
          "time": 135.9132700000024,
          "velocity": 0.3858267716535433,
          "duration": 0.13043500000000563
        },
        {
          "name": "E2",
          "midi": 40,
          "time": 135.9132700000024,
          "velocity": 0.6456692913385826,
          "duration": 0.13043500000000563
        },
        {
          "name": "A#2",
          "midi": 46,
          "time": 136.1741400000024,
          "velocity": 0.3858267716535433,
          "duration": 0.13043500000000563
        },
        {
          "name": "C2",
          "midi": 36,
          "time": 136.1741400000024,
          "velocity": 0.6456692913385826,
          "duration": 0.13043500000000563
        },
        {
          "name": "E2",
          "midi": 40,
          "time": 136.43501000000242,
          "velocity": 0.6377952755905512,
          "duration": 0.13043500000000563
        },
        {
          "name": "A#2",
          "midi": 46,
          "time": 136.43501000000242,
          "velocity": 0.3858267716535433,
          "duration": 0.13043500000000563
        },
        {
          "name": "C2",
          "midi": 36,
          "time": 136.56544500000243,
          "velocity": 0.6377952755905512,
          "duration": 0.13043500000000563
        },
        {
          "name": "A#2",
          "midi": 46,
          "time": 136.69588000000243,
          "velocity": 0.3858267716535433,
          "duration": 0.13043500000000563
        },
        {
          "name": "C2",
          "midi": 36,
          "time": 136.82631500000244,
          "velocity": 0.6377952755905512,
          "duration": 0.13043500000000563
        },
        {
          "name": "E2",
          "midi": 40,
          "time": 136.95675000000244,
          "velocity": 0.6377952755905512,
          "duration": 0.13043500000000563
        },
        {
          "name": "A#2",
          "midi": 46,
          "time": 136.95675000000244,
          "velocity": 0.3858267716535433,
          "duration": 0.13043500000000563
        },
        {
          "name": "C2",
          "midi": 36,
          "time": 137.08718500000245,
          "velocity": 0.6299212598425197,
          "duration": 0.13043500000000563
        },
        {
          "name": "A#2",
          "midi": 46,
          "time": 137.21762000000246,
          "velocity": 0.3858267716535433,
          "duration": 0.13043500000000563
        },
        {
          "name": "C2",
          "midi": 36,
          "time": 137.21762000000246,
          "velocity": 0.6299212598425197,
          "duration": 0.13043500000000563
        },
        {
          "name": "E2",
          "midi": 40,
          "time": 137.47849000000247,
          "velocity": 0.6299212598425197,
          "duration": 0.13043500000000563
        },
        {
          "name": "C2",
          "midi": 36,
          "time": 137.47849000000247,
          "velocity": 0.6299212598425197,
          "duration": 0.13043500000000563
        },
        {
          "name": "A#2",
          "midi": 46,
          "time": 137.47849000000247,
          "velocity": 0.3858267716535433,
          "duration": 0.13043500000000563
        },
        {
          "name": "A#2",
          "midi": 46,
          "time": 137.73936000000248,
          "velocity": 0.3858267716535433,
          "duration": 0.13043500000000563
        },
        {
          "name": "C2",
          "midi": 36,
          "time": 137.73936000000248,
          "velocity": 0.6456692913385826,
          "duration": 0.13043500000000563
        },
        {
          "name": "A#2",
          "midi": 46,
          "time": 138.0002300000025,
          "velocity": 0.3858267716535433,
          "duration": 0.13043500000000563
        },
        {
          "name": "E2",
          "midi": 40,
          "time": 138.0002300000025,
          "velocity": 0.6456692913385826,
          "duration": 0.13043500000000563
        },
        {
          "name": "A#2",
          "midi": 46,
          "time": 138.2611000000025,
          "velocity": 0.3858267716535433,
          "duration": 0.13043500000000563
        },
        {
          "name": "C2",
          "midi": 36,
          "time": 138.2611000000025,
          "velocity": 0.6456692913385826,
          "duration": 0.13043500000000563
        },
        {
          "name": "A#2",
          "midi": 46,
          "time": 138.5219700000025,
          "velocity": 0.3858267716535433,
          "duration": 0.13043500000000563
        },
        {
          "name": "E2",
          "midi": 40,
          "time": 138.5219700000025,
          "velocity": 0.6377952755905512,
          "duration": 0.13043500000000563
        },
        {
          "name": "C2",
          "midi": 36,
          "time": 138.65240500000252,
          "velocity": 0.6377952755905512,
          "duration": 0.13043500000000563
        },
        {
          "name": "A#2",
          "midi": 46,
          "time": 138.78284000000252,
          "velocity": 0.3858267716535433,
          "duration": 0.13043500000000563
        },
        {
          "name": "C2",
          "midi": 36,
          "time": 138.91327500000253,
          "velocity": 0.6377952755905512,
          "duration": 0.13043500000000563
        },
        {
          "name": "A#2",
          "midi": 46,
          "time": 139.04371000000253,
          "velocity": 0.3858267716535433,
          "duration": 0.13043500000000563
        },
        {
          "name": "E2",
          "midi": 40,
          "time": 139.04371000000253,
          "velocity": 0.6377952755905512,
          "duration": 0.13043500000000563
        },
        {
          "name": "C2",
          "midi": 36,
          "time": 139.17414500000254,
          "velocity": 0.6299212598425197,
          "duration": 0.13043500000000563
        },
        {
          "name": "A#2",
          "midi": 46,
          "time": 139.30458000000255,
          "velocity": 0.3858267716535433,
          "duration": 0.13043500000000563
        },
        {
          "name": "C2",
          "midi": 36,
          "time": 139.30458000000255,
          "velocity": 0.6299212598425197,
          "duration": 0.13043500000000563
        },
        {
          "name": "A#2",
          "midi": 46,
          "time": 139.56545000000256,
          "velocity": 0.3858267716535433,
          "duration": 0.13043500000000563
        },
        {
          "name": "C2",
          "midi": 36,
          "time": 139.56545000000256,
          "velocity": 0.6299212598425197,
          "duration": 0.13043500000000563
        },
        {
          "name": "E2",
          "midi": 40,
          "time": 139.56545000000256,
          "velocity": 0.6299212598425197,
          "duration": 0.13043500000000563
        },
        {
          "name": "A#2",
          "midi": 46,
          "time": 139.82632000000257,
          "velocity": 0.3858267716535433,
          "duration": 0.13043500000000563
        },
        {
          "name": "C2",
          "midi": 36,
          "time": 139.82632000000257,
          "velocity": 0.6456692913385826,
          "duration": 0.13043500000000563
        },
        {
          "name": "A#2",
          "midi": 46,
          "time": 140.08719000000258,
          "velocity": 0.3858267716535433,
          "duration": 0.13043500000000563
        },
        {
          "name": "E2",
          "midi": 40,
          "time": 140.08719000000258,
          "velocity": 0.6456692913385826,
          "duration": 0.13043500000000563
        },
        {
          "name": "A#2",
          "midi": 46,
          "time": 140.3480600000026,
          "velocity": 0.3858267716535433,
          "duration": 0.13043500000000563
        },
        {
          "name": "C2",
          "midi": 36,
          "time": 140.3480600000026,
          "velocity": 0.6456692913385826,
          "duration": 0.13043500000000563
        },
        {
          "name": "E2",
          "midi": 40,
          "time": 140.4784950000026,
          "velocity": 0.6377952755905512,
          "duration": 0.13043500000000563
        },
        {
          "name": "A#2",
          "midi": 46,
          "time": 140.6089300000026,
          "velocity": 0.3858267716535433,
          "duration": 0.13043500000000563
        },
        {
          "name": "C2",
          "midi": 36,
          "time": 140.7393650000026,
          "velocity": 0.6377952755905512,
          "duration": 0.13043500000000563
        },
        {
          "name": "E2",
          "midi": 40,
          "time": 140.7393650000026,
          "velocity": 0.6377952755905512,
          "duration": 0.13043500000000563
        },
        {
          "name": "A#2",
          "midi": 46,
          "time": 140.8698000000026,
          "velocity": 0.3858267716535433,
          "duration": 0.13043500000000563
        },
        {
          "name": "C2",
          "midi": 36,
          "time": 141.00023500000262,
          "velocity": 0.6377952755905512,
          "duration": 0.13043500000000563
        },
        {
          "name": "A3",
          "midi": 57,
          "time": 141.00023500000262,
          "velocity": 0.6456692913385826,
          "duration": 0.13043500000000563
        },
        {
          "name": "E2",
          "midi": 40,
          "time": 141.13067000000262,
          "velocity": 0.6377952755905512,
          "duration": 0.13043500000000563
        },
        {
          "name": "A#2",
          "midi": 46,
          "time": 141.13067000000262,
          "velocity": 0.3858267716535433,
          "duration": 0.13043500000000563
        },
        {
          "name": "C#3",
          "midi": 49,
          "time": 141.26110500000263,
          "velocity": 0.6377952755905512,
          "duration": 0.13043500000000563
        },
        {
          "name": "C2",
          "midi": 36,
          "time": 141.26110500000263,
          "velocity": 0.6299212598425197,
          "duration": 0.13043500000000563
        },
        {
          "name": "A#2",
          "midi": 46,
          "time": 141.39154000000264,
          "velocity": 0.3858267716535433,
          "duration": 0.13043500000000563
        },
        {
          "name": "C2",
          "midi": 36,
          "time": 141.39154000000264,
          "velocity": 0.6299212598425197,
          "duration": 0.13043500000000563
        },
        {
          "name": "E2",
          "midi": 40,
          "time": 141.39154000000264,
          "velocity": 0.6377952755905512,
          "duration": 0.13043500000000563
        },
        {
          "name": "A3",
          "midi": 57,
          "time": 141.52197500000264,
          "velocity": 0.6456692913385826,
          "duration": 0.26087000000001126
        },
        {
          "name": "E2",
          "midi": 40,
          "time": 141.65241000000265,
          "velocity": 0.6299212598425197,
          "duration": 0.13043500000000563
        },
        {
          "name": "C2",
          "midi": 36,
          "time": 141.65241000000265,
          "velocity": 0.6299212598425197,
          "duration": 0.13043500000000563
        },
        {
          "name": "A#2",
          "midi": 46,
          "time": 141.65241000000265,
          "velocity": 0.3858267716535433,
          "duration": 0.13043500000000563
        },
        {
          "name": "A3",
          "midi": 57,
          "time": 141.91328000000266,
          "velocity": 0.6456692913385826,
          "duration": 0.13043500000000563
        },
        {
          "name": "A#2",
          "midi": 46,
          "time": 141.91328000000266,
          "velocity": 0.3858267716535433,
          "duration": 0.13043500000000563
        },
        {
          "name": "C2",
          "midi": 36,
          "time": 141.91328000000266,
          "velocity": 0.6456692913385826,
          "duration": 0.13043500000000563
        },
        {
          "name": "A3",
          "midi": 57,
          "time": 141.91328000000266,
          "velocity": 0.6456692913385826,
          "duration": 0.13043500000000563
        },
        {
          "name": "A#2",
          "midi": 46,
          "time": 142.17415000000267,
          "velocity": 0.3858267716535433,
          "duration": 0.13043500000000563
        },
        {
          "name": "E2",
          "midi": 40,
          "time": 142.17415000000267,
          "velocity": 0.6456692913385826,
          "duration": 0.13043500000000563
        },
        {
          "name": "A#2",
          "midi": 46,
          "time": 142.43502000000268,
          "velocity": 0.3858267716535433,
          "duration": 0.13043500000000563
        },
        {
          "name": "C2",
          "midi": 36,
          "time": 142.43502000000268,
          "velocity": 0.6456692913385826,
          "duration": 0.13043500000000563
        },
        {
          "name": "A#2",
          "midi": 46,
          "time": 142.6958900000027,
          "velocity": 0.3858267716535433,
          "duration": 0.13043500000000563
        },
        {
          "name": "E2",
          "midi": 40,
          "time": 142.6958900000027,
          "velocity": 0.6377952755905512,
          "duration": 0.13043500000000563
        },
        {
          "name": "C2",
          "midi": 36,
          "time": 142.8263250000027,
          "velocity": 0.6377952755905512,
          "duration": 0.13043500000000563
        },
        {
          "name": "A#2",
          "midi": 46,
          "time": 142.9567600000027,
          "velocity": 0.3858267716535433,
          "duration": 0.13043500000000563
        },
        {
          "name": "C2",
          "midi": 36,
          "time": 143.0871950000027,
          "velocity": 0.6377952755905512,
          "duration": 0.13043500000000563
        },
        {
          "name": "A#2",
          "midi": 46,
          "time": 143.2176300000027,
          "velocity": 0.3858267716535433,
          "duration": 0.13043500000000563
        },
        {
          "name": "E2",
          "midi": 40,
          "time": 143.2176300000027,
          "velocity": 0.6377952755905512,
          "duration": 0.13043500000000563
        },
        {
          "name": "C2",
          "midi": 36,
          "time": 143.34806500000272,
          "velocity": 0.6299212598425197,
          "duration": 0.13043500000000563
        },
        {
          "name": "A#2",
          "midi": 46,
          "time": 143.47850000000273,
          "velocity": 0.3858267716535433,
          "duration": 0.13043500000000563
        },
        {
          "name": "C2",
          "midi": 36,
          "time": 143.47850000000273,
          "velocity": 0.6299212598425197,
          "duration": 0.13043500000000563
        },
        {
          "name": "A#2",
          "midi": 46,
          "time": 143.73937000000274,
          "velocity": 0.3858267716535433,
          "duration": 0.13043500000000563
        },
        {
          "name": "C2",
          "midi": 36,
          "time": 143.73937000000274,
          "velocity": 0.6299212598425197,
          "duration": 0.13043500000000563
        },
        {
          "name": "E2",
          "midi": 40,
          "time": 143.73937000000274,
          "velocity": 0.6299212598425197,
          "duration": 0.13043500000000563
        },
        {
          "name": "A#2",
          "midi": 46,
          "time": 144.00024000000275,
          "velocity": 0.3858267716535433,
          "duration": 0.13043500000000563
        },
        {
          "name": "C2",
          "midi": 36,
          "time": 144.00024000000275,
          "velocity": 0.6456692913385826,
          "duration": 0.13043500000000563
        },
        {
          "name": "A#2",
          "midi": 46,
          "time": 144.26111000000276,
          "velocity": 0.3858267716535433,
          "duration": 0.13043500000000563
        },
        {
          "name": "E2",
          "midi": 40,
          "time": 144.26111000000276,
          "velocity": 0.6456692913385826,
          "duration": 0.13043500000000563
        },
        {
          "name": "A#2",
          "midi": 46,
          "time": 144.52198000000277,
          "velocity": 0.3858267716535433,
          "duration": 0.13043500000000563
        },
        {
          "name": "C2",
          "midi": 36,
          "time": 144.52198000000277,
          "velocity": 0.6456692913385826,
          "duration": 0.13043500000000563
        },
        {
          "name": "E2",
          "midi": 40,
          "time": 144.78285000000278,
          "velocity": 0.6377952755905512,
          "duration": 0.13043500000000563
        },
        {
          "name": "A#2",
          "midi": 46,
          "time": 144.78285000000278,
          "velocity": 0.3858267716535433,
          "duration": 0.13043500000000563
        },
        {
          "name": "C2",
          "midi": 36,
          "time": 144.9132850000028,
          "velocity": 0.6377952755905512,
          "duration": 0.13043500000000563
        },
        {
          "name": "A#2",
          "midi": 46,
          "time": 145.0437200000028,
          "velocity": 0.3858267716535433,
          "duration": 0.13043500000000563
        },
        {
          "name": "C2",
          "midi": 36,
          "time": 145.1741550000028,
          "velocity": 0.6377952755905512,
          "duration": 0.13043500000000563
        },
        {
          "name": "E2",
          "midi": 40,
          "time": 145.3045900000028,
          "velocity": 0.6377952755905512,
          "duration": 0.13043500000000563
        },
        {
          "name": "A#2",
          "midi": 46,
          "time": 145.3045900000028,
          "velocity": 0.3858267716535433,
          "duration": 0.13043500000000563
        },
        {
          "name": "C2",
          "midi": 36,
          "time": 145.4350250000028,
          "velocity": 0.6299212598425197,
          "duration": 0.13043500000000563
        },
        {
          "name": "A#2",
          "midi": 46,
          "time": 145.56546000000282,
          "velocity": 0.3858267716535433,
          "duration": 0.13043500000000563
        },
        {
          "name": "C2",
          "midi": 36,
          "time": 145.56546000000282,
          "velocity": 0.6299212598425197,
          "duration": 0.13043500000000563
        },
        {
          "name": "E2",
          "midi": 40,
          "time": 145.82633000000283,
          "velocity": 0.6299212598425197,
          "duration": 0.13043500000000563
        },
        {
          "name": "C2",
          "midi": 36,
          "time": 145.82633000000283,
          "velocity": 0.6299212598425197,
          "duration": 0.13043500000000563
        },
        {
          "name": "A#2",
          "midi": 46,
          "time": 145.82633000000283,
          "velocity": 0.3858267716535433,
          "duration": 0.13043500000000563
        },
        {
          "name": "A#2",
          "midi": 46,
          "time": 146.08720000000284,
          "velocity": 0.3858267716535433,
          "duration": 0.13043500000000563
        },
        {
          "name": "C2",
          "midi": 36,
          "time": 146.08720000000284,
          "velocity": 0.6456692913385826,
          "duration": 0.13043500000000563
        },
        {
          "name": "A#2",
          "midi": 46,
          "time": 146.34807000000285,
          "velocity": 0.3858267716535433,
          "duration": 0.13043500000000563
        },
        {
          "name": "E2",
          "midi": 40,
          "time": 146.34807000000285,
          "velocity": 0.6456692913385826,
          "duration": 0.13043500000000563
        },
        {
          "name": "A#2",
          "midi": 46,
          "time": 146.60894000000286,
          "velocity": 0.3858267716535433,
          "duration": 0.13043500000000563
        },
        {
          "name": "C2",
          "midi": 36,
          "time": 146.60894000000286,
          "velocity": 0.6456692913385826,
          "duration": 0.13043500000000563
        },
        {
          "name": "A#2",
          "midi": 46,
          "time": 146.86981000000287,
          "velocity": 0.3858267716535433,
          "duration": 0.13043500000000563
        },
        {
          "name": "E2",
          "midi": 40,
          "time": 146.86981000000287,
          "velocity": 0.6377952755905512,
          "duration": 0.13043500000000563
        },
        {
          "name": "C2",
          "midi": 36,
          "time": 147.00024500000288,
          "velocity": 0.6377952755905512,
          "duration": 0.13043500000000563
        },
        {
          "name": "A#2",
          "midi": 46,
          "time": 147.13068000000288,
          "velocity": 0.3858267716535433,
          "duration": 0.13043500000000563
        },
        {
          "name": "C2",
          "midi": 36,
          "time": 147.2611150000029,
          "velocity": 0.6377952755905512,
          "duration": 0.13043500000000563
        },
        {
          "name": "A#2",
          "midi": 46,
          "time": 147.3915500000029,
          "velocity": 0.3858267716535433,
          "duration": 0.13043500000000563
        },
        {
          "name": "E2",
          "midi": 40,
          "time": 147.3915500000029,
          "velocity": 0.6377952755905512,
          "duration": 0.13043500000000563
        },
        {
          "name": "C2",
          "midi": 36,
          "time": 147.5219850000029,
          "velocity": 0.6299212598425197,
          "duration": 0.13043500000000563
        },
        {
          "name": "A#2",
          "midi": 46,
          "time": 147.6524200000029,
          "velocity": 0.3858267716535433,
          "duration": 0.13043500000000563
        },
        {
          "name": "C2",
          "midi": 36,
          "time": 147.6524200000029,
          "velocity": 0.6299212598425197,
          "duration": 0.13043500000000563
        },
        {
          "name": "A#2",
          "midi": 46,
          "time": 147.91329000000292,
          "velocity": 0.3858267716535433,
          "duration": 0.13043500000000563
        },
        {
          "name": "C2",
          "midi": 36,
          "time": 147.91329000000292,
          "velocity": 0.6299212598425197,
          "duration": 0.13043500000000563
        },
        {
          "name": "E2",
          "midi": 40,
          "time": 147.91329000000292,
          "velocity": 0.6299212598425197,
          "duration": 0.13043500000000563
        },
        {
          "name": "A#2",
          "midi": 46,
          "time": 148.17416000000293,
          "velocity": 0.3858267716535433,
          "duration": 0.13043500000000563
        },
        {
          "name": "C2",
          "midi": 36,
          "time": 148.17416000000293,
          "velocity": 0.6456692913385826,
          "duration": 0.13043500000000563
        },
        {
          "name": "A#2",
          "midi": 46,
          "time": 148.43503000000294,
          "velocity": 0.3858267716535433,
          "duration": 0.13043500000000563
        },
        {
          "name": "E2",
          "midi": 40,
          "time": 148.43503000000294,
          "velocity": 0.6456692913385826,
          "duration": 0.13043500000000563
        },
        {
          "name": "A#2",
          "midi": 46,
          "time": 148.69590000000295,
          "velocity": 0.3858267716535433,
          "duration": 0.13043500000000563
        },
        {
          "name": "C2",
          "midi": 36,
          "time": 148.69590000000295,
          "velocity": 0.6456692913385826,
          "duration": 0.13043500000000563
        },
        {
          "name": "E2",
          "midi": 40,
          "time": 148.82633500000296,
          "velocity": 0.6377952755905512,
          "duration": 0.13043500000000563
        },
        {
          "name": "A#2",
          "midi": 46,
          "time": 148.95677000000296,
          "velocity": 0.3858267716535433,
          "duration": 0.13043500000000563
        },
        {
          "name": "C2",
          "midi": 36,
          "time": 149.08720500000297,
          "velocity": 0.6377952755905512,
          "duration": 0.13043500000000563
        },
        {
          "name": "E2",
          "midi": 40,
          "time": 149.08720500000297,
          "velocity": 0.6377952755905512,
          "duration": 0.13043500000000563
        },
        {
          "name": "A#2",
          "midi": 46,
          "time": 149.21764000000297,
          "velocity": 0.3858267716535433,
          "duration": 0.13043500000000563
        },
        {
          "name": "C2",
          "midi": 36,
          "time": 149.34807500000298,
          "velocity": 0.6377952755905512,
          "duration": 0.13043500000000563
        },
        {
          "name": "A3",
          "midi": 57,
          "time": 149.34807500000298,
          "velocity": 0.6456692913385826,
          "duration": 0.13043500000000563
        },
        {
          "name": "E2",
          "midi": 40,
          "time": 149.47851000000298,
          "velocity": 0.6377952755905512,
          "duration": 0.13043500000000563
        },
        {
          "name": "A#2",
          "midi": 46,
          "time": 149.47851000000298,
          "velocity": 0.3858267716535433,
          "duration": 0.13043500000000563
        },
        {
          "name": "C#3",
          "midi": 49,
          "time": 149.608945000003,
          "velocity": 0.6377952755905512,
          "duration": 0.13043500000000563
        },
        {
          "name": "C2",
          "midi": 36,
          "time": 149.608945000003,
          "velocity": 0.6299212598425197,
          "duration": 0.13043500000000563
        },
        {
          "name": "E2",
          "midi": 40,
          "time": 149.608945000003,
          "velocity": 0.6377952755905512,
          "duration": 0.13043500000000563
        },
        {
          "name": "A#2",
          "midi": 46,
          "time": 149.739380000003,
          "velocity": 0.3858267716535433,
          "duration": 0.13043500000000563
        },
        {
          "name": "C2",
          "midi": 36,
          "time": 149.739380000003,
          "velocity": 0.6299212598425197,
          "duration": 0.13043500000000563
        },
        {
          "name": "E2",
          "midi": 40,
          "time": 149.869815000003,
          "velocity": 0.6299212598425197,
          "duration": 0.13043500000000563
        },
        {
          "name": "A3",
          "midi": 57,
          "time": 149.869815000003,
          "velocity": 0.6456692913385826,
          "duration": 0.26087000000001126
        },
        {
          "name": "E2",
          "midi": 40,
          "time": 150.000250000003,
          "velocity": 0.6299212598425197,
          "duration": 0.13043500000000563
        },
        {
          "name": "C2",
          "midi": 36,
          "time": 150.000250000003,
          "velocity": 0.6299212598425197,
          "duration": 0.13043500000000563
        },
        {
          "name": "A#2",
          "midi": 46,
          "time": 150.000250000003,
          "velocity": 0.3858267716535433,
          "duration": 0.13043500000000563
        }
      ],
      "controlChanges": {
        "6": [
          {
            "number": 6,
            "time": 0,
            "value": 0.09448818897637795
          }
        ],
        "7": [
          {
            "number": 7,
            "time": 0,
            "value": 0.8267716535433071
          }
        ],
        "10": [
          {
            "number": 10,
            "time": 0,
            "value": 0.5039370078740157
          }
        ],
        "64": [
          {
            "number": 64,
            "time": 0,
            "value": 0
          }
        ],
        "91": [
          {
            "number": 91,
            "time": 0,
            "value": 0.14960629921259844
          }
        ],
        "100": [
          {
            "number": 100,
            "time": 0,
            "value": 0
          }
        ],
        "101": [
          {
            "number": 101,
            "time": 0,
            "value": 0
          }
        ]
      },
      "id": 2,
      "instrumentNumber": 0,
      "instrument": "standard kit",
      "instrumentFamily": "drums",
      "channelNumber": 9,
      "isPercussion": true
    },
    {
      "startTime": 0,
      "duration": 158.60896000000116,
      "length": 795,
      "notes": [
        {
          "name": "D4",
          "midi": 62,
          "time": 0,
          "velocity": 0.6377952755905512,
          "duration": 0.130435
        },
        {
          "name": "D4",
          "midi": 62,
          "time": 0.130435,
          "velocity": 0.6456692913385826,
          "duration": 0.130435
        },
        {
          "name": "D5",
          "midi": 74,
          "time": 0.26087,
          "velocity": 0.6456692913385826,
          "duration": 0.26087
        },
        {
          "name": "A4",
          "midi": 69,
          "time": 0.52174,
          "velocity": 0.6456692913385826,
          "duration": 0.391305
        },
        {
          "name": "G#4",
          "midi": 68,
          "time": 0.913045,
          "velocity": 0.6456692913385826,
          "duration": 0.26087000000000005
        },
        {
          "name": "G4",
          "midi": 67,
          "time": 1.173915,
          "velocity": 0.6456692913385826,
          "duration": 0.26086999999999994
        },
        {
          "name": "F4",
          "midi": 65,
          "time": 1.434785,
          "velocity": 0.6456692913385826,
          "duration": 0.26086999999999994
        },
        {
          "name": "D4",
          "midi": 62,
          "time": 1.695655,
          "velocity": 0.6456692913385826,
          "duration": 0.13043500000000008
        },
        {
          "name": "F4",
          "midi": 65,
          "time": 1.82609,
          "velocity": 0.6456692913385826,
          "duration": 0.13043500000000008
        },
        {
          "name": "G4",
          "midi": 67,
          "time": 1.956525,
          "velocity": 0.6456692913385826,
          "duration": 0.13043499999999986
        },
        {
          "name": "C4",
          "midi": 60,
          "time": 2.08696,
          "velocity": 0.6456692913385826,
          "duration": 0.13043499999999986
        },
        {
          "name": "C4",
          "midi": 60,
          "time": 2.217395,
          "velocity": 0.6456692913385826,
          "duration": 0.13043499999999986
        },
        {
          "name": "D5",
          "midi": 74,
          "time": 2.3478299999999996,
          "velocity": 0.6456692913385826,
          "duration": 0.26087000000000016
        },
        {
          "name": "A4",
          "midi": 69,
          "time": 2.6087,
          "velocity": 0.6456692913385826,
          "duration": 0.391305
        },
        {
          "name": "G#4",
          "midi": 68,
          "time": 3.000005,
          "velocity": 0.6456692913385826,
          "duration": 0.26087000000000016
        },
        {
          "name": "G4",
          "midi": 67,
          "time": 3.260875,
          "velocity": 0.6456692913385826,
          "duration": 0.26087000000000016
        },
        {
          "name": "F4",
          "midi": 65,
          "time": 3.521745,
          "velocity": 0.6456692913385826,
          "duration": 0.26087000000000016
        },
        {
          "name": "D4",
          "midi": 62,
          "time": 3.7826150000000003,
          "velocity": 0.6456692913385826,
          "duration": 0.13043499999999986
        },
        {
          "name": "F4",
          "midi": 65,
          "time": 3.91305,
          "velocity": 0.6456692913385826,
          "duration": 0.1304350000000003
        },
        {
          "name": "G4",
          "midi": 67,
          "time": 4.043485,
          "velocity": 0.6456692913385826,
          "duration": 0.1304350000000003
        },
        {
          "name": "B3",
          "midi": 59,
          "time": 4.173920000000001,
          "velocity": 0.6456692913385826,
          "duration": 0.1304350000000003
        },
        {
          "name": "B3",
          "midi": 59,
          "time": 4.304355000000001,
          "velocity": 0.6456692913385826,
          "duration": 0.1304350000000003
        },
        {
          "name": "D5",
          "midi": 74,
          "time": 4.434790000000001,
          "velocity": 0.6456692913385826,
          "duration": 0.2608699999999997
        },
        {
          "name": "A4",
          "midi": 69,
          "time": 4.695660000000001,
          "velocity": 0.6456692913385826,
          "duration": 0.391305
        },
        {
          "name": "G#4",
          "midi": 68,
          "time": 5.086965000000001,
          "velocity": 0.6456692913385826,
          "duration": 0.2608699999999997
        },
        {
          "name": "G4",
          "midi": 67,
          "time": 5.347835000000001,
          "velocity": 0.6456692913385826,
          "duration": 0.2608699999999997
        },
        {
          "name": "F4",
          "midi": 65,
          "time": 5.6087050000000005,
          "velocity": 0.6456692913385826,
          "duration": 0.2608699999999997
        },
        {
          "name": "D4",
          "midi": 62,
          "time": 5.869575,
          "velocity": 0.6456692913385826,
          "duration": 0.1304350000000003
        },
        {
          "name": "F4",
          "midi": 65,
          "time": 6.0000100000000005,
          "velocity": 0.6456692913385826,
          "duration": 0.1304350000000003
        },
        {
          "name": "G4",
          "midi": 67,
          "time": 6.130445000000001,
          "velocity": 0.6456692913385826,
          "duration": 0.1304350000000003
        },
        {
          "name": "A#3",
          "midi": 58,
          "time": 6.260880000000001,
          "velocity": 0.6456692913385826,
          "duration": 0.1304350000000003
        },
        {
          "name": "A#3",
          "midi": 58,
          "time": 6.391315000000001,
          "velocity": 0.6456692913385826,
          "duration": 0.1304350000000003
        },
        {
          "name": "D5",
          "midi": 74,
          "time": 6.521750000000002,
          "velocity": 0.6456692913385826,
          "duration": 0.2608699999999997
        },
        {
          "name": "A4",
          "midi": 69,
          "time": 6.782620000000001,
          "velocity": 0.6456692913385826,
          "duration": 0.391305
        },
        {
          "name": "G#4",
          "midi": 68,
          "time": 7.173925000000001,
          "velocity": 0.6456692913385826,
          "duration": 0.2608699999999997
        },
        {
          "name": "G4",
          "midi": 67,
          "time": 7.434795000000001,
          "velocity": 0.6456692913385826,
          "duration": 0.2608699999999997
        },
        {
          "name": "F4",
          "midi": 65,
          "time": 7.695665000000001,
          "velocity": 0.6456692913385826,
          "duration": 0.2608699999999997
        },
        {
          "name": "D4",
          "midi": 62,
          "time": 7.956535000000001,
          "velocity": 0.6456692913385826,
          "duration": 0.1304350000000003
        },
        {
          "name": "F4",
          "midi": 65,
          "time": 8.08697,
          "velocity": 0.6456692913385826,
          "duration": 0.1304350000000003
        },
        {
          "name": "G4",
          "midi": 67,
          "time": 8.217405000000001,
          "velocity": 0.6456692913385826,
          "duration": 0.1304350000000003
        },
        {
          "name": "D4",
          "midi": 62,
          "time": 8.347840000000001,
          "velocity": 0.6456692913385826,
          "duration": 0.1304350000000003
        },
        {
          "name": "D4",
          "midi": 62,
          "time": 8.478275000000002,
          "velocity": 0.6456692913385826,
          "duration": 0.1304350000000003
        },
        {
          "name": "D5",
          "midi": 74,
          "time": 8.608710000000002,
          "velocity": 0.6456692913385826,
          "duration": 0.2608700000000006
        },
        {
          "name": "A4",
          "midi": 69,
          "time": 8.869580000000003,
          "velocity": 0.6456692913385826,
          "duration": 0.3913049999999991
        },
        {
          "name": "G#4",
          "midi": 68,
          "time": 9.260885000000002,
          "velocity": 0.6456692913385826,
          "duration": 0.2608700000000006
        },
        {
          "name": "G4",
          "midi": 67,
          "time": 9.521755000000002,
          "velocity": 0.6456692913385826,
          "duration": 0.2608700000000006
        },
        {
          "name": "F4",
          "midi": 65,
          "time": 9.782625000000003,
          "velocity": 0.6456692913385826,
          "duration": 0.2608700000000006
        },
        {
          "name": "D4",
          "midi": 62,
          "time": 10.043495000000004,
          "velocity": 0.6456692913385826,
          "duration": 0.1304350000000003
        },
        {
          "name": "F4",
          "midi": 65,
          "time": 10.173930000000004,
          "velocity": 0.6456692913385826,
          "duration": 0.1304350000000003
        },
        {
          "name": "G4",
          "midi": 67,
          "time": 10.304365000000004,
          "velocity": 0.6456692913385826,
          "duration": 0.1304350000000003
        },
        {
          "name": "C4",
          "midi": 60,
          "time": 10.434800000000005,
          "velocity": 0.6456692913385826,
          "duration": 0.1304350000000003
        },
        {
          "name": "C4",
          "midi": 60,
          "time": 10.565235000000005,
          "velocity": 0.6456692913385826,
          "duration": 0.1304350000000003
        },
        {
          "name": "D5",
          "midi": 74,
          "time": 10.695670000000005,
          "velocity": 0.6456692913385826,
          "duration": 0.2608700000000006
        },
        {
          "name": "A4",
          "midi": 69,
          "time": 10.956540000000006,
          "velocity": 0.6456692913385826,
          "duration": 0.3913050000000009
        },
        {
          "name": "G#4",
          "midi": 68,
          "time": 11.347845000000007,
          "velocity": 0.6456692913385826,
          "duration": 0.2608700000000006
        },
        {
          "name": "G4",
          "midi": 67,
          "time": 11.608715000000007,
          "velocity": 0.6456692913385826,
          "duration": 0.2608700000000006
        },
        {
          "name": "F4",
          "midi": 65,
          "time": 11.869585000000008,
          "velocity": 0.6456692913385826,
          "duration": 0.2608700000000006
        },
        {
          "name": "D4",
          "midi": 62,
          "time": 12.130455000000008,
          "velocity": 0.6456692913385826,
          "duration": 0.1304350000000003
        },
        {
          "name": "F4",
          "midi": 65,
          "time": 12.260890000000009,
          "velocity": 0.6456692913385826,
          "duration": 0.1304350000000003
        },
        {
          "name": "G4",
          "midi": 67,
          "time": 12.391325000000009,
          "velocity": 0.6456692913385826,
          "duration": 0.1304350000000003
        },
        {
          "name": "B3",
          "midi": 59,
          "time": 12.52176000000001,
          "velocity": 0.6456692913385826,
          "duration": 0.1304350000000003
        },
        {
          "name": "B3",
          "midi": 59,
          "time": 12.65219500000001,
          "velocity": 0.6456692913385826,
          "duration": 0.1304350000000003
        },
        {
          "name": "D5",
          "midi": 74,
          "time": 12.78263000000001,
          "velocity": 0.6456692913385826,
          "duration": 0.2608700000000006
        },
        {
          "name": "A4",
          "midi": 69,
          "time": 13.04350000000001,
          "velocity": 0.6456692913385826,
          "duration": 0.3913050000000009
        },
        {
          "name": "G#4",
          "midi": 68,
          "time": 13.434805000000011,
          "velocity": 0.6456692913385826,
          "duration": 0.2608700000000006
        },
        {
          "name": "G4",
          "midi": 67,
          "time": 13.695675000000012,
          "velocity": 0.6456692913385826,
          "duration": 0.2608700000000006
        },
        {
          "name": "F4",
          "midi": 65,
          "time": 13.956545000000013,
          "velocity": 0.6456692913385826,
          "duration": 0.2608700000000006
        },
        {
          "name": "D4",
          "midi": 62,
          "time": 14.217415000000013,
          "velocity": 0.6456692913385826,
          "duration": 0.1304350000000003
        },
        {
          "name": "F4",
          "midi": 65,
          "time": 14.347850000000014,
          "velocity": 0.6456692913385826,
          "duration": 0.1304350000000003
        },
        {
          "name": "G4",
          "midi": 67,
          "time": 14.478285000000014,
          "velocity": 0.6456692913385826,
          "duration": 0.1304350000000003
        },
        {
          "name": "A#3",
          "midi": 58,
          "time": 14.608720000000014,
          "velocity": 0.6456692913385826,
          "duration": 0.1304350000000003
        },
        {
          "name": "A#3",
          "midi": 58,
          "time": 14.739155000000014,
          "velocity": 0.6456692913385826,
          "duration": 0.1304350000000003
        },
        {
          "name": "D5",
          "midi": 74,
          "time": 14.869590000000015,
          "velocity": 0.6456692913385826,
          "duration": 0.2608700000000006
        },
        {
          "name": "A4",
          "midi": 69,
          "time": 15.130460000000015,
          "velocity": 0.6456692913385826,
          "duration": 0.3913050000000009
        },
        {
          "name": "G#4",
          "midi": 68,
          "time": 15.521765000000016,
          "velocity": 0.6456692913385826,
          "duration": 0.2608700000000006
        },
        {
          "name": "G4",
          "midi": 67,
          "time": 15.782635000000017,
          "velocity": 0.6456692913385826,
          "duration": 0.2608700000000006
        },
        {
          "name": "F4",
          "midi": 65,
          "time": 16.043505000000017,
          "velocity": 0.6456692913385826,
          "duration": 0.2608700000000006
        },
        {
          "name": "D4",
          "midi": 62,
          "time": 16.304375000000018,
          "velocity": 0.6456692913385826,
          "duration": 0.13043499999999852
        },
        {
          "name": "F4",
          "midi": 65,
          "time": 16.434810000000017,
          "velocity": 0.6456692913385826,
          "duration": 0.13043499999999852
        },
        {
          "name": "G4",
          "midi": 67,
          "time": 16.565245000000015,
          "velocity": 0.6456692913385826,
          "duration": 0.13043499999999852
        },
        {
          "name": "D5",
          "midi": 74,
          "time": 16.695680000000014,
          "velocity": 0.7244094488188977,
          "duration": 0.13043499999999852
        },
        {
          "name": "D5",
          "midi": 74,
          "time": 16.826115000000012,
          "velocity": 0.7244094488188977,
          "duration": 0.13043499999999852
        },
        {
          "name": "D6",
          "midi": 86,
          "time": 16.95655000000001,
          "velocity": 0.7244094488188977,
          "duration": 0.2608700000000006
        },
        {
          "name": "A5",
          "midi": 81,
          "time": 17.21742000000001,
          "velocity": 0.7244094488188977,
          "duration": 0.3913049999999991
        },
        {
          "name": "G#5",
          "midi": 80,
          "time": 17.60872500000001,
          "velocity": 0.7244094488188977,
          "duration": 0.2608700000000006
        },
        {
          "name": "G5",
          "midi": 79,
          "time": 17.86959500000001,
          "velocity": 0.7244094488188977,
          "duration": 0.2608700000000006
        },
        {
          "name": "F5",
          "midi": 77,
          "time": 18.13046500000001,
          "velocity": 0.7244094488188977,
          "duration": 0.2608700000000006
        },
        {
          "name": "D5",
          "midi": 74,
          "time": 18.391335000000012,
          "velocity": 0.7244094488188977,
          "duration": 0.13043499999999852
        },
        {
          "name": "F5",
          "midi": 77,
          "time": 18.52177000000001,
          "velocity": 0.7244094488188977,
          "duration": 0.13043499999999852
        },
        {
          "name": "G5",
          "midi": 79,
          "time": 18.65220500000001,
          "velocity": 0.7244094488188977,
          "duration": 0.13043499999999852
        },
        {
          "name": "C5",
          "midi": 72,
          "time": 18.782640000000008,
          "velocity": 0.7244094488188977,
          "duration": 0.13043499999999852
        },
        {
          "name": "C5",
          "midi": 72,
          "time": 18.913075000000006,
          "velocity": 0.7244094488188977,
          "duration": 0.13043499999999852
        },
        {
          "name": "D6",
          "midi": 86,
          "time": 19.043510000000005,
          "velocity": 0.7244094488188977,
          "duration": 0.2608700000000006
        },
        {
          "name": "A5",
          "midi": 81,
          "time": 19.304380000000005,
          "velocity": 0.7244094488188977,
          "duration": 0.3913049999999991
        },
        {
          "name": "G#5",
          "midi": 80,
          "time": 19.695685000000005,
          "velocity": 0.7244094488188977,
          "duration": 0.2608700000000006
        },
        {
          "name": "G5",
          "midi": 79,
          "time": 19.956555000000005,
          "velocity": 0.7244094488188977,
          "duration": 0.2608700000000006
        },
        {
          "name": "F5",
          "midi": 77,
          "time": 20.217425000000006,
          "velocity": 0.7244094488188977,
          "duration": 0.2608700000000006
        },
        {
          "name": "D5",
          "midi": 74,
          "time": 20.478295000000006,
          "velocity": 0.7244094488188977,
          "duration": 0.13043499999999852
        },
        {
          "name": "F5",
          "midi": 77,
          "time": 20.608730000000005,
          "velocity": 0.7244094488188977,
          "duration": 0.13043499999999852
        },
        {
          "name": "G5",
          "midi": 79,
          "time": 20.739165000000003,
          "velocity": 0.7244094488188977,
          "duration": 0.13043499999999852
        },
        {
          "name": "B4",
          "midi": 71,
          "time": 20.869600000000002,
          "velocity": 0.7244094488188977,
          "duration": 0.13043499999999852
        },
        {
          "name": "B4",
          "midi": 71,
          "time": 21.000035,
          "velocity": 0.7244094488188977,
          "duration": 0.13043499999999852
        },
        {
          "name": "D6",
          "midi": 86,
          "time": 21.13047,
          "velocity": 0.7244094488188977,
          "duration": 0.2608700000000006
        },
        {
          "name": "A5",
          "midi": 81,
          "time": 21.39134,
          "velocity": 0.7244094488188977,
          "duration": 0.3913049999999991
        },
        {
          "name": "G#5",
          "midi": 80,
          "time": 21.782645,
          "velocity": 0.7244094488188977,
          "duration": 0.2608700000000006
        },
        {
          "name": "G5",
          "midi": 79,
          "time": 22.043515,
          "velocity": 0.7244094488188977,
          "duration": 0.2608700000000006
        },
        {
          "name": "F5",
          "midi": 77,
          "time": 22.304385,
          "velocity": 0.7244094488188977,
          "duration": 0.2608700000000006
        },
        {
          "name": "D5",
          "midi": 74,
          "time": 22.565255,
          "velocity": 0.7244094488188977,
          "duration": 0.13043499999999852
        },
        {
          "name": "F5",
          "midi": 77,
          "time": 22.69569,
          "velocity": 0.7244094488188977,
          "duration": 0.13043499999999852
        },
        {
          "name": "G5",
          "midi": 79,
          "time": 22.826124999999998,
          "velocity": 0.7244094488188977,
          "duration": 0.13043499999999852
        },
        {
          "name": "A#4",
          "midi": 70,
          "time": 22.956559999999996,
          "velocity": 0.7244094488188977,
          "duration": 0.13043499999999852
        },
        {
          "name": "A#4",
          "midi": 70,
          "time": 23.086994999999995,
          "velocity": 0.7244094488188977,
          "duration": 0.13043499999999852
        },
        {
          "name": "D6",
          "midi": 86,
          "time": 23.217429999999993,
          "velocity": 0.7244094488188977,
          "duration": 0.2608700000000006
        },
        {
          "name": "A5",
          "midi": 81,
          "time": 23.478299999999994,
          "velocity": 0.7244094488188977,
          "duration": 0.3913049999999991
        },
        {
          "name": "G#5",
          "midi": 80,
          "time": 23.869604999999993,
          "velocity": 0.7244094488188977,
          "duration": 0.2608700000000006
        },
        {
          "name": "G5",
          "midi": 79,
          "time": 24.130474999999993,
          "velocity": 0.7244094488188977,
          "duration": 0.2608700000000006
        },
        {
          "name": "F5",
          "midi": 77,
          "time": 24.391344999999994,
          "velocity": 0.7244094488188977,
          "duration": 0.2608700000000006
        },
        {
          "name": "D5",
          "midi": 74,
          "time": 24.652214999999995,
          "velocity": 0.7244094488188977,
          "duration": 0.13043499999999852
        },
        {
          "name": "F5",
          "midi": 77,
          "time": 24.782649999999993,
          "velocity": 0.7244094488188977,
          "duration": 0.13043499999999852
        },
        {
          "name": "G5",
          "midi": 79,
          "time": 24.91308499999999,
          "velocity": 0.7244094488188977,
          "duration": 0.13043499999999852
        },
        {
          "name": "D5",
          "midi": 74,
          "time": 25.04351999999999,
          "velocity": 0.7244094488188977,
          "duration": 0.13043499999999852
        },
        {
          "name": "D5",
          "midi": 74,
          "time": 25.17395499999999,
          "velocity": 0.7244094488188977,
          "duration": 0.13043499999999852
        },
        {
          "name": "D6",
          "midi": 86,
          "time": 25.304389999999987,
          "velocity": 0.7244094488188977,
          "duration": 0.2608700000000006
        },
        {
          "name": "A5",
          "midi": 81,
          "time": 25.565259999999988,
          "velocity": 0.7244094488188977,
          "duration": 0.3913049999999991
        },
        {
          "name": "G#5",
          "midi": 80,
          "time": 25.956564999999987,
          "velocity": 0.7244094488188977,
          "duration": 0.2608700000000006
        },
        {
          "name": "G5",
          "midi": 79,
          "time": 26.217434999999988,
          "velocity": 0.7244094488188977,
          "duration": 0.2608700000000006
        },
        {
          "name": "F5",
          "midi": 77,
          "time": 26.478304999999988,
          "velocity": 0.7244094488188977,
          "duration": 0.2608700000000006
        },
        {
          "name": "D5",
          "midi": 74,
          "time": 26.73917499999999,
          "velocity": 0.7244094488188977,
          "duration": 0.13043499999999852
        },
        {
          "name": "F5",
          "midi": 77,
          "time": 26.869609999999987,
          "velocity": 0.7244094488188977,
          "duration": 0.13043499999999852
        },
        {
          "name": "G5",
          "midi": 79,
          "time": 27.000044999999986,
          "velocity": 0.7244094488188977,
          "duration": 0.13043499999999852
        },
        {
          "name": "C5",
          "midi": 72,
          "time": 27.130479999999984,
          "velocity": 0.7244094488188977,
          "duration": 0.13043499999999852
        },
        {
          "name": "C5",
          "midi": 72,
          "time": 27.260914999999983,
          "velocity": 0.7244094488188977,
          "duration": 0.13043499999999852
        },
        {
          "name": "D6",
          "midi": 86,
          "time": 27.39134999999998,
          "velocity": 0.7244094488188977,
          "duration": 0.2608700000000006
        },
        {
          "name": "A5",
          "midi": 81,
          "time": 27.652219999999982,
          "velocity": 0.7244094488188977,
          "duration": 0.3913049999999991
        },
        {
          "name": "G#5",
          "midi": 80,
          "time": 28.04352499999998,
          "velocity": 0.7244094488188977,
          "duration": 0.2608700000000006
        },
        {
          "name": "G5",
          "midi": 79,
          "time": 28.30439499999998,
          "velocity": 0.7244094488188977,
          "duration": 0.2608700000000006
        },
        {
          "name": "F5",
          "midi": 77,
          "time": 28.565264999999982,
          "velocity": 0.7244094488188977,
          "duration": 0.2608700000000006
        },
        {
          "name": "D5",
          "midi": 74,
          "time": 28.826134999999983,
          "velocity": 0.7244094488188977,
          "duration": 0.13043499999999852
        },
        {
          "name": "F5",
          "midi": 77,
          "time": 28.95656999999998,
          "velocity": 0.7244094488188977,
          "duration": 0.13043499999999852
        },
        {
          "name": "G5",
          "midi": 79,
          "time": 29.08700499999998,
          "velocity": 0.7244094488188977,
          "duration": 0.13043499999999852
        },
        {
          "name": "B4",
          "midi": 71,
          "time": 29.21743999999998,
          "velocity": 0.7244094488188977,
          "duration": 0.13043499999999852
        },
        {
          "name": "B4",
          "midi": 71,
          "time": 29.347874999999977,
          "velocity": 0.7244094488188977,
          "duration": 0.13043499999999852
        },
        {
          "name": "D6",
          "midi": 86,
          "time": 29.478309999999976,
          "velocity": 0.7244094488188977,
          "duration": 0.2608700000000006
        },
        {
          "name": "A5",
          "midi": 81,
          "time": 29.739179999999976,
          "velocity": 0.7244094488188977,
          "duration": 0.3913049999999991
        },
        {
          "name": "G#5",
          "midi": 80,
          "time": 30.130484999999975,
          "velocity": 0.7244094488188977,
          "duration": 0.2608700000000006
        },
        {
          "name": "G5",
          "midi": 79,
          "time": 30.391354999999976,
          "velocity": 0.7244094488188977,
          "duration": 0.2608700000000006
        },
        {
          "name": "F5",
          "midi": 77,
          "time": 30.652224999999977,
          "velocity": 0.7244094488188977,
          "duration": 0.2608700000000006
        },
        {
          "name": "D5",
          "midi": 74,
          "time": 30.913094999999977,
          "velocity": 0.7244094488188977,
          "duration": 0.13043499999999852
        },
        {
          "name": "F5",
          "midi": 77,
          "time": 31.043529999999976,
          "velocity": 0.7244094488188977,
          "duration": 0.13043499999999852
        },
        {
          "name": "G5",
          "midi": 79,
          "time": 31.173964999999974,
          "velocity": 0.7244094488188977,
          "duration": 0.13043499999999852
        },
        {
          "name": "A#4",
          "midi": 70,
          "time": 31.304399999999973,
          "velocity": 0.7244094488188977,
          "duration": 0.13043499999999852
        },
        {
          "name": "A#4",
          "midi": 70,
          "time": 31.43483499999997,
          "velocity": 0.7244094488188977,
          "duration": 0.13043499999999852
        },
        {
          "name": "D6",
          "midi": 86,
          "time": 31.56526999999997,
          "velocity": 0.7244094488188977,
          "duration": 0.2608700000000006
        },
        {
          "name": "A5",
          "midi": 81,
          "time": 31.82613999999997,
          "velocity": 0.7244094488188977,
          "duration": 0.3913049999999991
        },
        {
          "name": "G#5",
          "midi": 80,
          "time": 32.21744499999997,
          "velocity": 0.7244094488188977,
          "duration": 0.26086999999999705
        },
        {
          "name": "G5",
          "midi": 79,
          "time": 32.47831499999997,
          "velocity": 0.7244094488188977,
          "duration": 0.26086999999999705
        },
        {
          "name": "F5",
          "midi": 77,
          "time": 32.739184999999964,
          "velocity": 0.7244094488188977,
          "duration": 0.26086999999999705
        },
        {
          "name": "D5",
          "midi": 74,
          "time": 33.00005499999996,
          "velocity": 0.7244094488188977,
          "duration": 0.13043499999999852
        },
        {
          "name": "F5",
          "midi": 77,
          "time": 33.13048999999996,
          "velocity": 0.7244094488188977,
          "duration": 0.13043499999999852
        },
        {
          "name": "G5",
          "midi": 79,
          "time": 33.26092499999996,
          "velocity": 0.7244094488188977,
          "duration": 0.13043499999999852
        },
        {
          "name": "F5",
          "midi": 77,
          "time": 33.391359999999956,
          "velocity": 0.7244094488188977,
          "duration": 0.13043499999999852
        },
        {
          "name": "F5",
          "midi": 77,
          "time": 33.65222999999995,
          "velocity": 0.7244094488188977,
          "duration": 0.13043499999999852
        },
        {
          "name": "F5",
          "midi": 77,
          "time": 33.78266499999995,
          "velocity": 0.7244094488188977,
          "duration": 0.26086999999999705
        },
        {
          "name": "F5",
          "midi": 77,
          "time": 34.04353499999995,
          "velocity": 0.7244094488188977,
          "duration": 0.26086999999999705
        },
        {
          "name": "F5",
          "midi": 77,
          "time": 34.304404999999946,
          "velocity": 0.7244094488188977,
          "duration": 0.26086999999999705
        },
        {
          "name": "D5",
          "midi": 74,
          "time": 34.56527499999994,
          "velocity": 0.7244094488188977,
          "duration": 0.26086999999999705
        },
        {
          "name": "D5",
          "midi": 74,
          "time": 34.82614499999994,
          "velocity": 0.7244094488188977,
          "duration": 0.6521749999999997
        },
        {
          "name": "F5",
          "midi": 77,
          "time": 35.47831999999994,
          "velocity": 0.7244094488188977,
          "duration": 0.26086999999999705
        },
        {
          "name": "F5",
          "midi": 77,
          "time": 35.73918999999994,
          "velocity": 0.7244094488188977,
          "duration": 0.13043499999999852
        },
        {
          "name": "F5",
          "midi": 77,
          "time": 35.869624999999935,
          "velocity": 0.7244094488188977,
          "duration": 0.26086999999999705
        },
        {
          "name": "G5",
          "midi": 79,
          "time": 36.13049499999993,
          "velocity": 0.7244094488188977,
          "duration": 0.26086999999999705
        },
        {
          "name": "G#5",
          "midi": 80,
          "time": 36.39136499999993,
          "velocity": 0.7244094488188977,
          "duration": 0.26086999999999705
        },
        {
          "name": "G5",
          "midi": 79,
          "time": 36.652234999999926,
          "velocity": 0.7244094488188977,
          "duration": 0.13043499999999852
        },
        {
          "name": "F5",
          "midi": 77,
          "time": 36.782669999999925,
          "velocity": 0.7244094488188977,
          "duration": 0.13043499999999852
        },
        {
          "name": "D5",
          "midi": 74,
          "time": 36.91310499999992,
          "velocity": 0.7244094488188977,
          "duration": 0.13043499999999852
        },
        {
          "name": "F5",
          "midi": 77,
          "time": 37.04353999999992,
          "velocity": 0.7244094488188977,
          "duration": 0.13043499999999852
        },
        {
          "name": "G5",
          "midi": 79,
          "time": 37.17397499999992,
          "velocity": 0.7244094488188977,
          "duration": 0.3913050000000027
        },
        {
          "name": "F5",
          "midi": 77,
          "time": 37.56527999999992,
          "velocity": 0.7244094488188977,
          "duration": 0.13043499999999852
        },
        {
          "name": "F5",
          "midi": 77,
          "time": 37.82614999999992,
          "velocity": 0.7244094488188977,
          "duration": 0.13043499999999852
        },
        {
          "name": "F5",
          "midi": 77,
          "time": 37.95658499999992,
          "velocity": 0.7244094488188977,
          "duration": 0.26086999999999705
        },
        {
          "name": "G5",
          "midi": 79,
          "time": 38.217454999999916,
          "velocity": 0.7244094488188977,
          "duration": 0.26086999999999705
        },
        {
          "name": "G#5",
          "midi": 80,
          "time": 38.47832499999991,
          "velocity": 0.7244094488188977,
          "duration": 0.26086999999999705
        },
        {
          "name": "A5",
          "midi": 81,
          "time": 38.73919499999991,
          "velocity": 0.7244094488188977,
          "duration": 0.26086999999999705
        },
        {
          "name": "C6",
          "midi": 84,
          "time": 39.00006499999991,
          "velocity": 0.7244094488188977,
          "duration": 0.13043499999999852
        },
        {
          "name": "A5",
          "midi": 81,
          "time": 39.260934999999904,
          "velocity": 0.7244094488188977,
          "duration": 0.3913050000000027
        },
        {
          "name": "D6",
          "midi": 86,
          "time": 39.65223999999991,
          "velocity": 0.7244094488188977,
          "duration": 0.26086999999999705
        },
        {
          "name": "D6",
          "midi": 86,
          "time": 39.913109999999904,
          "velocity": 0.7244094488188977,
          "duration": 0.26086999999999705
        },
        {
          "name": "D6",
          "midi": 86,
          "time": 40.1739799999999,
          "velocity": 0.7244094488188977,
          "duration": 0.13043499999999852
        },
        {
          "name": "A5",
          "midi": 81,
          "time": 40.3044149999999,
          "velocity": 0.7244094488188977,
          "duration": 0.13043499999999852
        },
        {
          "name": "D6",
          "midi": 86,
          "time": 40.4348499999999,
          "velocity": 0.7244094488188977,
          "duration": 0.13043499999999852
        },
        {
          "name": "C6",
          "midi": 84,
          "time": 40.565284999999896,
          "velocity": 0.7244094488188977,
          "duration": 1.173915000000001
        },
        {
          "name": "F5",
          "midi": 77,
          "time": 41.7391999999999,
          "velocity": 0.7244094488188977,
          "duration": 0.13043499999999852
        },
        {
          "name": "A5",
          "midi": 81,
          "time": 41.7391999999999,
          "velocity": 0.7244094488188977,
          "duration": 0.13043499999999852
        },
        {
          "name": "A5",
          "midi": 81,
          "time": 42.000069999999894,
          "velocity": 0.7244094488188977,
          "duration": 0.13043499999999852
        },
        {
          "name": "F5",
          "midi": 77,
          "time": 42.000069999999894,
          "velocity": 0.7244094488188977,
          "duration": 0.13043499999999852
        },
        {
          "name": "F5",
          "midi": 77,
          "time": 42.13050499999989,
          "velocity": 0.7244094488188977,
          "duration": 0.26086999999999705
        },
        {
          "name": "A5",
          "midi": 81,
          "time": 42.13050499999989,
          "velocity": 0.7244094488188977,
          "duration": 0.26086999999999705
        },
        {
          "name": "F5",
          "midi": 77,
          "time": 42.39137499999989,
          "velocity": 0.7244094488188977,
          "duration": 0.26086999999999705
        },
        {
          "name": "A5",
          "midi": 81,
          "time": 42.39137499999989,
          "velocity": 0.7244094488188977,
          "duration": 0.26086999999999705
        },
        {
          "name": "F5",
          "midi": 77,
          "time": 42.65224499999989,
          "velocity": 0.7244094488188977,
          "duration": 0.26086999999999705
        },
        {
          "name": "A5",
          "midi": 81,
          "time": 42.65224499999989,
          "velocity": 0.7244094488188977,
          "duration": 0.26086999999999705
        },
        {
          "name": "D5",
          "midi": 74,
          "time": 42.913114999999884,
          "velocity": 0.7244094488188977,
          "duration": 0.26086999999999705
        },
        {
          "name": "G5",
          "midi": 79,
          "time": 42.913114999999884,
          "velocity": 0.7244094488188977,
          "duration": 0.26086999999999705
        },
        {
          "name": "D5",
          "midi": 74,
          "time": 43.17398499999988,
          "velocity": 0.7244094488188977,
          "duration": 0.6521749999999997
        },
        {
          "name": "G5",
          "midi": 79,
          "time": 43.17398499999988,
          "velocity": 0.7244094488188977,
          "duration": 0.6521749999999997
        },
        {
          "name": "A5",
          "midi": 81,
          "time": 43.82615999999988,
          "velocity": 0.7244094488188977,
          "duration": 0.13043499999999852
        },
        {
          "name": "F5",
          "midi": 77,
          "time": 43.82615999999988,
          "velocity": 0.7244094488188977,
          "duration": 0.13043499999999852
        },
        {
          "name": "A5",
          "midi": 81,
          "time": 44.08702999999988,
          "velocity": 0.7244094488188977,
          "duration": 0.13043499999999852
        },
        {
          "name": "F5",
          "midi": 77,
          "time": 44.08702999999988,
          "velocity": 0.7244094488188977,
          "duration": 0.13043499999999852
        },
        {
          "name": "F5",
          "midi": 77,
          "time": 44.217464999999876,
          "velocity": 0.7244094488188977,
          "duration": 0.26086999999999705
        },
        {
          "name": "A5",
          "midi": 81,
          "time": 44.217464999999876,
          "velocity": 0.7244094488188977,
          "duration": 0.26086999999999705
        },
        {
          "name": "F5",
          "midi": 77,
          "time": 44.47833499999987,
          "velocity": 0.7244094488188977,
          "duration": 0.26086999999999705
        },
        {
          "name": "A5",
          "midi": 81,
          "time": 44.47833499999987,
          "velocity": 0.7244094488188977,
          "duration": 0.26086999999999705
        },
        {
          "name": "D5",
          "midi": 74,
          "time": 44.73920499999987,
          "velocity": 0.7244094488188977,
          "duration": 0.26086999999999705
        },
        {
          "name": "G5",
          "midi": 79,
          "time": 44.73920499999987,
          "velocity": 0.7244094488188977,
          "duration": 0.26086999999999705
        },
        {
          "name": "F5",
          "midi": 77,
          "time": 45.00007499999987,
          "velocity": 0.7244094488188977,
          "duration": 0.26086999999999705
        },
        {
          "name": "A5",
          "midi": 81,
          "time": 45.00007499999987,
          "velocity": 0.7244094488188977,
          "duration": 0.26086999999999705
        },
        {
          "name": "A5",
          "midi": 81,
          "time": 45.260944999999865,
          "velocity": 0.7244094488188977,
          "duration": 0.26086999999999705
        },
        {
          "name": "D6",
          "midi": 86,
          "time": 45.260944999999865,
          "velocity": 0.7244094488188977,
          "duration": 0.26086999999999705
        },
        {
          "name": "F5",
          "midi": 77,
          "time": 45.52181499999986,
          "velocity": 0.7244094488188977,
          "duration": 0.13043499999999852
        },
        {
          "name": "A5",
          "midi": 81,
          "time": 45.52181499999986,
          "velocity": 0.7244094488188977,
          "duration": 0.13043499999999852
        },
        {
          "name": "G5",
          "midi": 79,
          "time": 45.65224999999986,
          "velocity": 0.7244094488188977,
          "duration": 0.26086999999999705
        },
        {
          "name": "D5",
          "midi": 74,
          "time": 45.65224999999986,
          "velocity": 0.7244094488188977,
          "duration": 0.26086999999999705
        },
        {
          "name": "D6",
          "midi": 86,
          "time": 45.91311999999986,
          "velocity": 0.7244094488188977,
          "duration": 0.26086999999999705
        },
        {
          "name": "F5",
          "midi": 77,
          "time": 45.91311999999986,
          "velocity": 0.7244094488188977,
          "duration": 0.26086999999999705
        },
        {
          "name": "A5",
          "midi": 81,
          "time": 46.173989999999854,
          "velocity": 0.7244094488188977,
          "duration": 0.26086999999999705
        },
        {
          "name": "F5",
          "midi": 77,
          "time": 46.173989999999854,
          "velocity": 0.7244094488188977,
          "duration": 0.26086999999999705
        },
        {
          "name": "G5",
          "midi": 79,
          "time": 46.43485999999985,
          "velocity": 0.7244094488188977,
          "duration": 0.26086999999999705
        },
        {
          "name": "D5",
          "midi": 74,
          "time": 46.43485999999985,
          "velocity": 0.7244094488188977,
          "duration": 0.26086999999999705
        },
        {
          "name": "F5",
          "midi": 77,
          "time": 46.69572999999985,
          "velocity": 0.7244094488188977,
          "duration": 0.26086999999999705
        },
        {
          "name": "D5",
          "midi": 74,
          "time": 46.69572999999985,
          "velocity": 0.7244094488188977,
          "duration": 0.26086999999999705
        },
        {
          "name": "F5",
          "midi": 77,
          "time": 46.956599999999845,
          "velocity": 0.7244094488188977,
          "duration": 0.26086999999999705
        },
        {
          "name": "C6",
          "midi": 84,
          "time": 46.956599999999845,
          "velocity": 0.7244094488188977,
          "duration": 0.26086999999999705
        },
        {
          "name": "F5",
          "midi": 77,
          "time": 47.21746999999984,
          "velocity": 0.7244094488188977,
          "duration": 0.26086999999999705
        },
        {
          "name": "G5",
          "midi": 79,
          "time": 47.21746999999984,
          "velocity": 0.7244094488188977,
          "duration": 0.26086999999999705
        },
        {
          "name": "D5",
          "midi": 74,
          "time": 47.47833999999984,
          "velocity": 0.7244094488188977,
          "duration": 0.26086999999999705
        },
        {
          "name": "F5",
          "midi": 77,
          "time": 47.47833999999984,
          "velocity": 0.7244094488188977,
          "duration": 0.26086999999999705
        },
        {
          "name": "D5",
          "midi": 74,
          "time": 47.73920999999984,
          "velocity": 0.7244094488188977,
          "duration": 0.26086999999999705
        },
        {
          "name": "E5",
          "midi": 76,
          "time": 47.73920999999984,
          "velocity": 0.7244094488188977,
          "duration": 0.26086999999999705
        },
        {
          "name": "A#4",
          "midi": 70,
          "time": 48.00007999999983,
          "velocity": 0.7244094488188977,
          "duration": 0.26086999999999705
        },
        {
          "name": "C5",
          "midi": 72,
          "time": 48.26094999999983,
          "velocity": 0.7244094488188977,
          "duration": 0.13043499999999852
        },
        {
          "name": "D5",
          "midi": 74,
          "time": 48.39138499999983,
          "velocity": 0.7244094488188977,
          "duration": 0.13043499999999852
        },
        {
          "name": "F5",
          "midi": 77,
          "time": 48.652254999999826,
          "velocity": 0.7244094488188977,
          "duration": 0.26086999999999705
        },
        {
          "name": "A#4",
          "midi": 70,
          "time": 48.652254999999826,
          "velocity": 0.7244094488188977,
          "duration": 0.26086999999999705
        },
        {
          "name": "C5",
          "midi": 72,
          "time": 48.91312499999982,
          "velocity": 0.7244094488188977,
          "duration": 1.173915000000001
        },
        {
          "name": "E5",
          "midi": 76,
          "time": 48.91312499999982,
          "velocity": 0.7244094488188977,
          "duration": 1.173915000000001
        },
        {
          "name": "C6",
          "midi": 84,
          "time": 48.91312499999982,
          "velocity": 0.7244094488188977,
          "duration": 1.173915000000001
        },
        {
          "name": "F5",
          "midi": 77,
          "time": 51.13051999999983,
          "velocity": 0.7244094488188977,
          "duration": 0.13043499999999852
        },
        {
          "name": "D5",
          "midi": 74,
          "time": 51.260954999999825,
          "velocity": 0.7244094488188977,
          "duration": 0.13043499999999852
        },
        {
          "name": "F5",
          "midi": 77,
          "time": 51.391389999999824,
          "velocity": 0.7244094488188977,
          "duration": 0.13043499999999852
        },
        {
          "name": "G5",
          "midi": 79,
          "time": 51.52182499999982,
          "velocity": 0.7244094488188977,
          "duration": 0.13043499999999852
        },
        {
          "name": "G#5",
          "midi": 80,
          "time": 51.65225999999982,
          "velocity": 0.7244094488188977,
          "duration": 0.13043499999999852
        },
        {
          "name": "G5",
          "midi": 79,
          "time": 51.78269499999982,
          "velocity": 0.7244094488188977,
          "duration": 0.13043499999999852
        },
        {
          "name": "F5",
          "midi": 77,
          "time": 51.91312999999982,
          "velocity": 0.7244094488188977,
          "duration": 0.13043499999999852
        },
        {
          "name": "D5",
          "midi": 74,
          "time": 52.043564999999816,
          "velocity": 0.7244094488188977,
          "duration": 0.13043499999999852
        },
        {
          "name": "G#5",
          "midi": 80,
          "time": 52.173999999999815,
          "velocity": 0.7244094488188977,
          "duration": 0.06521750000000281
        },
        {
          "name": "G5",
          "midi": 79,
          "time": 52.23921749999982,
          "velocity": 0.7244094488188977,
          "duration": 0.06521750000000281
        },
        {
          "name": "F5",
          "midi": 77,
          "time": 52.30443499999982,
          "velocity": 0.7244094488188977,
          "duration": 0.06521750000000281
        },
        {
          "name": "D5",
          "midi": 74,
          "time": 52.36965249999982,
          "velocity": 0.7244094488188977,
          "duration": 0.06521750000000281
        },
        {
          "name": "F5",
          "midi": 77,
          "time": 52.434869999999826,
          "velocity": 0.7244094488188977,
          "duration": 0.13043499999999852
        },
        {
          "name": "G5",
          "midi": 79,
          "time": 52.69573999999982,
          "velocity": 0.7244094488188977,
          "duration": 1.0434800000000024
        },
        {
          "name": "C5",
          "midi": 72,
          "time": 52.69573999999982,
          "velocity": 0.7244094488188977,
          "duration": 1.0434800000000024
        },
        {
          "name": "G#5",
          "midi": 80,
          "time": 53.869654999999824,
          "velocity": 0.7244094488188977,
          "duration": 0.26086999999999705
        },
        {
          "name": "A5",
          "midi": 81,
          "time": 54.13052499999982,
          "velocity": 0.7244094488188977,
          "duration": 0.13043499999999852
        },
        {
          "name": "C6",
          "midi": 84,
          "time": 54.26095999999982,
          "velocity": 0.7244094488188977,
          "duration": 0.13043499999999852
        },
        {
          "name": "A5",
          "midi": 81,
          "time": 54.52182999999982,
          "velocity": 0.7244094488188977,
          "duration": 0.13043499999999852
        },
        {
          "name": "G#5",
          "midi": 80,
          "time": 54.652264999999815,
          "velocity": 0.7244094488188977,
          "duration": 0.13043499999999852
        },
        {
          "name": "G5",
          "midi": 79,
          "time": 54.782699999999814,
          "velocity": 0.7244094488188977,
          "duration": 0.13043499999999852
        },
        {
          "name": "F5",
          "midi": 77,
          "time": 54.91313499999981,
          "velocity": 0.7244094488188977,
          "duration": 0.13043499999999852
        },
        {
          "name": "D5",
          "midi": 74,
          "time": 55.04356999999981,
          "velocity": 0.7244094488188977,
          "duration": 0.13043499999999852
        },
        {
          "name": "E5",
          "midi": 76,
          "time": 55.17400499999981,
          "velocity": 0.7244094488188977,
          "duration": 0.13043499999999852
        },
        {
          "name": "F5",
          "midi": 77,
          "time": 55.30443999999981,
          "velocity": 0.7244094488188977,
          "duration": 0.26086999999999705
        },
        {
          "name": "G5",
          "midi": 79,
          "time": 55.565309999999805,
          "velocity": 0.7244094488188977,
          "duration": 0.26086999999999705
        },
        {
          "name": "A5",
          "midi": 81,
          "time": 55.8261799999998,
          "velocity": 0.7244094488188977,
          "duration": 0.26086999999999705
        },
        {
          "name": "C6",
          "midi": 84,
          "time": 56.0870499999998,
          "velocity": 0.7244094488188977,
          "duration": 0.26086999999999705
        },
        {
          "name": "C#6",
          "midi": 85,
          "time": 56.347919999999796,
          "velocity": 0.7244094488188977,
          "duration": 0.26086999999999705
        },
        {
          "name": "C#5",
          "midi": 73,
          "time": 56.347919999999796,
          "velocity": 0.7244094488188977,
          "duration": 0.26086999999999705
        },
        {
          "name": "G#5",
          "midi": 80,
          "time": 56.60878999999979,
          "velocity": 0.7244094488188977,
          "duration": 0.26086999999999705
        },
        {
          "name": "G#5",
          "midi": 80,
          "time": 56.86965999999979,
          "velocity": 0.7244094488188977,
          "duration": 0.13043499999999852
        },
        {
          "name": "G5",
          "midi": 79,
          "time": 57.00009499999979,
          "velocity": 0.7244094488188977,
          "duration": 0.13043499999999852
        },
        {
          "name": "F5",
          "midi": 77,
          "time": 57.13052999999979,
          "velocity": 0.7244094488188977,
          "duration": 0.13043499999999852
        },
        {
          "name": "G5",
          "midi": 79,
          "time": 57.260964999999786,
          "velocity": 0.7244094488188977,
          "duration": 1.173915000000001
        },
        {
          "name": "D#5",
          "midi": 75,
          "time": 57.260964999999786,
          "velocity": 0.7244094488188977,
          "duration": 1.173915000000001
        },
        {
          "name": "F4",
          "midi": 65,
          "time": 58.43487999999979,
          "velocity": 0.7244094488188977,
          "duration": 0.26086999999999705
        },
        {
          "name": "G4",
          "midi": 67,
          "time": 58.695749999999784,
          "velocity": 0.7244094488188977,
          "duration": 0.26086999999999705
        },
        {
          "name": "F4",
          "midi": 65,
          "time": 58.95661999999978,
          "velocity": 0.7244094488188977,
          "duration": 0.26086999999999705
        },
        {
          "name": "A4",
          "midi": 69,
          "time": 58.95661999999978,
          "velocity": 0.7244094488188977,
          "duration": 0.26086999999999705
        },
        {
          "name": "F5",
          "midi": 77,
          "time": 59.21748999999978,
          "velocity": 0.7244094488188977,
          "duration": 0.26086999999999705
        },
        {
          "name": "C5",
          "midi": 72,
          "time": 59.478359999999775,
          "velocity": 0.7244094488188977,
          "duration": 0.5217400000000012
        },
        {
          "name": "E5",
          "midi": 76,
          "time": 59.478359999999775,
          "velocity": 0.7244094488188977,
          "duration": 0.5217400000000012
        },
        {
          "name": "A4",
          "midi": 69,
          "time": 60.000099999999776,
          "velocity": 0.7244094488188977,
          "duration": 0.5217400000000012
        },
        {
          "name": "D5",
          "midi": 74,
          "time": 60.000099999999776,
          "velocity": 0.7244094488188977,
          "duration": 0.5217400000000012
        },
        {
          "name": "E5",
          "midi": 76,
          "time": 60.52183999999978,
          "velocity": 0.7244094488188977,
          "duration": 0.5217400000000012
        },
        {
          "name": "G4",
          "midi": 67,
          "time": 60.52183999999978,
          "velocity": 0.7244094488188977,
          "duration": 0.5217400000000012
        },
        {
          "name": "A4",
          "midi": 69,
          "time": 61.04357999999978,
          "velocity": 0.7244094488188977,
          "duration": 0.5217400000000012
        },
        {
          "name": "F5",
          "midi": 77,
          "time": 61.04357999999978,
          "velocity": 0.7244094488188977,
          "duration": 0.5217400000000012
        },
        {
          "name": "C5",
          "midi": 72,
          "time": 61.56531999999978,
          "velocity": 0.7244094488188977,
          "duration": 0.5217400000000012
        },
        {
          "name": "G5",
          "midi": 79,
          "time": 61.56531999999978,
          "velocity": 0.7244094488188977,
          "duration": 0.5217400000000012
        },
        {
          "name": "A4",
          "midi": 69,
          "time": 62.08705999999978,
          "velocity": 0.7244094488188977,
          "duration": 0.5217400000000012
        },
        {
          "name": "E5",
          "midi": 76,
          "time": 62.08705999999978,
          "velocity": 0.7244094488188977,
          "duration": 0.5217400000000012
        },
        {
          "name": "A5",
          "midi": 81,
          "time": 62.60879999999978,
          "velocity": 0.7244094488188977,
          "duration": 1.0434800000000024
        },
        {
          "name": "D5",
          "midi": 74,
          "time": 62.60879999999978,
          "velocity": 0.7244094488188977,
          "duration": 1.0434800000000024
        },
        {
          "name": "A5",
          "midi": 81,
          "time": 63.652279999999784,
          "velocity": 0.7244094488188977,
          "duration": 0.13043499999999852
        },
        {
          "name": "G#5",
          "midi": 80,
          "time": 63.78271499999978,
          "velocity": 0.7244094488188977,
          "duration": 0.13043499999999852
        },
        {
          "name": "G5",
          "midi": 79,
          "time": 63.91314999999978,
          "velocity": 0.7244094488188977,
          "duration": 0.13043499999999852
        },
        {
          "name": "F#5",
          "midi": 78,
          "time": 64.04358499999978,
          "velocity": 0.7244094488188977,
          "duration": 0.13043500000000563
        },
        {
          "name": "F5",
          "midi": 77,
          "time": 64.17401999999979,
          "velocity": 0.7244094488188977,
          "duration": 0.13043500000000563
        },
        {
          "name": "E5",
          "midi": 76,
          "time": 64.30445499999979,
          "velocity": 0.7244094488188977,
          "duration": 0.13043500000000563
        },
        {
          "name": "D#5",
          "midi": 75,
          "time": 64.4348899999998,
          "velocity": 0.7244094488188977,
          "duration": 0.13043500000000563
        },
        {
          "name": "D5",
          "midi": 74,
          "time": 64.5653249999998,
          "velocity": 0.7244094488188977,
          "duration": 0.13043500000000563
        },
        {
          "name": "C#5",
          "midi": 73,
          "time": 64.69575999999981,
          "velocity": 0.7244094488188977,
          "duration": 0.9130449999999968
        },
        {
          "name": "G#4",
          "midi": 68,
          "time": 64.69575999999981,
          "velocity": 0.7244094488188977,
          "duration": 0.9130449999999968
        },
        {
          "name": "A#4",
          "midi": 70,
          "time": 65.6088049999998,
          "velocity": 0.7244094488188977,
          "duration": 1.1739149999999938
        },
        {
          "name": "D#5",
          "midi": 75,
          "time": 65.6088049999998,
          "velocity": 0.7244094488188977,
          "duration": 1.1739149999999938
        },
        {
          "name": "F5",
          "midi": 77,
          "time": 67.8261999999998,
          "velocity": 0.7244094488188977,
          "duration": 0.13043500000000563
        },
        {
          "name": "D5",
          "midi": 74,
          "time": 67.9566349999998,
          "velocity": 0.7244094488188977,
          "duration": 0.13043500000000563
        },
        {
          "name": "F5",
          "midi": 77,
          "time": 68.08706999999981,
          "velocity": 0.7244094488188977,
          "duration": 0.13043500000000563
        },
        {
          "name": "G5",
          "midi": 79,
          "time": 68.21750499999982,
          "velocity": 0.7244094488188977,
          "duration": 0.13043500000000563
        },
        {
          "name": "G#5",
          "midi": 80,
          "time": 68.34793999999982,
          "velocity": 0.7244094488188977,
          "duration": 0.13043500000000563
        },
        {
          "name": "G5",
          "midi": 79,
          "time": 68.47837499999983,
          "velocity": 0.7244094488188977,
          "duration": 0.13043500000000563
        },
        {
          "name": "F5",
          "midi": 77,
          "time": 68.60880999999983,
          "velocity": 0.7244094488188977,
          "duration": 0.13043500000000563
        },
        {
          "name": "D5",
          "midi": 74,
          "time": 68.73924499999984,
          "velocity": 0.7244094488188977,
          "duration": 0.13043500000000563
        },
        {
          "name": "G#5",
          "midi": 80,
          "time": 68.86967999999985,
          "velocity": 0.7244094488188977,
          "duration": 0.06521750000000281
        },
        {
          "name": "G5",
          "midi": 79,
          "time": 68.93489749999985,
          "velocity": 0.7244094488188977,
          "duration": 0.06521750000000281
        },
        {
          "name": "F5",
          "midi": 77,
          "time": 69.00011499999985,
          "velocity": 0.7244094488188977,
          "duration": 0.06521750000000281
        },
        {
          "name": "D5",
          "midi": 74,
          "time": 69.06533249999985,
          "velocity": 0.7244094488188977,
          "duration": 0.06521750000000281
        },
        {
          "name": "F5",
          "midi": 77,
          "time": 69.13054999999986,
          "velocity": 0.7244094488188977,
          "duration": 0.13043500000000563
        },
        {
          "name": "G5",
          "midi": 79,
          "time": 69.39141999999987,
          "velocity": 0.7244094488188977,
          "duration": 1.0434800000000024
        },
        {
          "name": "C5",
          "midi": 72,
          "time": 69.39141999999987,
          "velocity": 0.7244094488188977,
          "duration": 1.0434800000000024
        },
        {
          "name": "G#5",
          "midi": 80,
          "time": 70.56533499999988,
          "velocity": 0.7244094488188977,
          "duration": 0.26086999999999705
        },
        {
          "name": "A5",
          "midi": 81,
          "time": 70.82620499999987,
          "velocity": 0.7244094488188977,
          "duration": 0.13043500000000563
        },
        {
          "name": "C6",
          "midi": 84,
          "time": 70.95663999999988,
          "velocity": 0.7244094488188977,
          "duration": 0.13043500000000563
        },
        {
          "name": "A5",
          "midi": 81,
          "time": 71.21750999999989,
          "velocity": 0.7244094488188977,
          "duration": 0.13043500000000563
        },
        {
          "name": "G#5",
          "midi": 80,
          "time": 71.3479449999999,
          "velocity": 0.7244094488188977,
          "duration": 0.13043500000000563
        },
        {
          "name": "G5",
          "midi": 79,
          "time": 71.4783799999999,
          "velocity": 0.7244094488188977,
          "duration": 0.13043500000000563
        },
        {
          "name": "F5",
          "midi": 77,
          "time": 71.60881499999991,
          "velocity": 0.7244094488188977,
          "duration": 0.13043500000000563
        },
        {
          "name": "D5",
          "midi": 74,
          "time": 71.73924999999991,
          "velocity": 0.7244094488188977,
          "duration": 0.13043500000000563
        },
        {
          "name": "E5",
          "midi": 76,
          "time": 71.86968499999992,
          "velocity": 0.7244094488188977,
          "duration": 0.13043500000000563
        },
        {
          "name": "F5",
          "midi": 77,
          "time": 72.00011999999992,
          "velocity": 0.7244094488188977,
          "duration": 0.26086999999999705
        },
        {
          "name": "G5",
          "midi": 79,
          "time": 72.26098999999992,
          "velocity": 0.7244094488188977,
          "duration": 0.26086999999999705
        },
        {
          "name": "A5",
          "midi": 81,
          "time": 72.52185999999992,
          "velocity": 0.7244094488188977,
          "duration": 0.26086999999999705
        },
        {
          "name": "C6",
          "midi": 84,
          "time": 72.78272999999992,
          "velocity": 0.7244094488188977,
          "duration": 0.26086999999999705
        },
        {
          "name": "C#6",
          "midi": 85,
          "time": 73.04359999999991,
          "velocity": 0.7244094488188977,
          "duration": 0.26086999999999705
        },
        {
          "name": "C#5",
          "midi": 73,
          "time": 73.04359999999991,
          "velocity": 0.7244094488188977,
          "duration": 0.26086999999999705
        },
        {
          "name": "G#5",
          "midi": 80,
          "time": 73.30446999999991,
          "velocity": 0.7244094488188977,
          "duration": 0.26086999999999705
        },
        {
          "name": "G#5",
          "midi": 80,
          "time": 73.5653399999999,
          "velocity": 0.7244094488188977,
          "duration": 0.13043500000000563
        },
        {
          "name": "G5",
          "midi": 79,
          "time": 73.69577499999991,
          "velocity": 0.7244094488188977,
          "duration": 0.13043500000000563
        },
        {
          "name": "F5",
          "midi": 77,
          "time": 73.82620999999992,
          "velocity": 0.7244094488188977,
          "duration": 0.13043500000000563
        },
        {
          "name": "G5",
          "midi": 79,
          "time": 73.95664499999992,
          "velocity": 0.7244094488188977,
          "duration": 1.1739149999999938
        },
        {
          "name": "D#5",
          "midi": 75,
          "time": 73.95664499999992,
          "velocity": 0.7244094488188977,
          "duration": 1.1739149999999938
        },
        {
          "name": "F4",
          "midi": 65,
          "time": 75.13055999999992,
          "velocity": 0.7244094488188977,
          "duration": 0.26086999999999705
        },
        {
          "name": "G4",
          "midi": 67,
          "time": 75.39142999999991,
          "velocity": 0.7244094488188977,
          "duration": 0.26086999999999705
        },
        {
          "name": "F4",
          "midi": 65,
          "time": 75.65229999999991,
          "velocity": 0.7244094488188977,
          "duration": 0.26086999999999705
        },
        {
          "name": "A4",
          "midi": 69,
          "time": 75.65229999999991,
          "velocity": 0.7244094488188977,
          "duration": 0.26086999999999705
        },
        {
          "name": "F5",
          "midi": 77,
          "time": 75.91316999999991,
          "velocity": 0.7244094488188977,
          "duration": 0.26086999999999705
        },
        {
          "name": "C5",
          "midi": 72,
          "time": 76.1740399999999,
          "velocity": 0.7244094488188977,
          "duration": 0.5217399999999941
        },
        {
          "name": "E5",
          "midi": 76,
          "time": 76.1740399999999,
          "velocity": 0.7244094488188977,
          "duration": 0.5217399999999941
        },
        {
          "name": "A4",
          "midi": 69,
          "time": 76.6957799999999,
          "velocity": 0.7244094488188977,
          "duration": 0.5217399999999941
        },
        {
          "name": "D5",
          "midi": 74,
          "time": 76.6957799999999,
          "velocity": 0.7244094488188977,
          "duration": 0.5217399999999941
        },
        {
          "name": "E5",
          "midi": 76,
          "time": 77.2175199999999,
          "velocity": 0.7244094488188977,
          "duration": 0.5217399999999941
        },
        {
          "name": "G4",
          "midi": 67,
          "time": 77.2175199999999,
          "velocity": 0.7244094488188977,
          "duration": 0.5217399999999941
        },
        {
          "name": "A4",
          "midi": 69,
          "time": 77.73925999999989,
          "velocity": 0.7244094488188977,
          "duration": 0.5217399999999941
        },
        {
          "name": "F5",
          "midi": 77,
          "time": 77.73925999999989,
          "velocity": 0.7244094488188977,
          "duration": 0.5217399999999941
        },
        {
          "name": "C5",
          "midi": 72,
          "time": 78.26099999999988,
          "velocity": 0.7244094488188977,
          "duration": 0.5217399999999941
        },
        {
          "name": "G5",
          "midi": 79,
          "time": 78.26099999999988,
          "velocity": 0.7244094488188977,
          "duration": 0.5217399999999941
        },
        {
          "name": "A4",
          "midi": 69,
          "time": 78.78273999999988,
          "velocity": 0.7244094488188977,
          "duration": 0.5217399999999941
        },
        {
          "name": "E5",
          "midi": 76,
          "time": 78.78273999999988,
          "velocity": 0.7244094488188977,
          "duration": 0.5217399999999941
        },
        {
          "name": "A5",
          "midi": 81,
          "time": 79.30447999999987,
          "velocity": 0.7244094488188977,
          "duration": 1.0434800000000024
        },
        {
          "name": "D5",
          "midi": 74,
          "time": 79.30447999999987,
          "velocity": 0.7244094488188977,
          "duration": 1.0434800000000024
        },
        {
          "name": "A5",
          "midi": 81,
          "time": 80.34795999999987,
          "velocity": 0.7244094488188977,
          "duration": 0.13043500000000563
        },
        {
          "name": "G#5",
          "midi": 80,
          "time": 80.47839499999988,
          "velocity": 0.7244094488188977,
          "duration": 0.13043500000000563
        },
        {
          "name": "G5",
          "midi": 79,
          "time": 80.60882999999988,
          "velocity": 0.7244094488188977,
          "duration": 0.13043500000000563
        },
        {
          "name": "F#5",
          "midi": 78,
          "time": 80.73926499999989,
          "velocity": 0.7244094488188977,
          "duration": 0.13043500000000563
        },
        {
          "name": "F5",
          "midi": 77,
          "time": 80.8696999999999,
          "velocity": 0.7244094488188977,
          "duration": 0.13043500000000563
        },
        {
          "name": "E5",
          "midi": 76,
          "time": 81.0001349999999,
          "velocity": 0.7244094488188977,
          "duration": 0.13043500000000563
        },
        {
          "name": "D#5",
          "midi": 75,
          "time": 81.1305699999999,
          "velocity": 0.7244094488188977,
          "duration": 0.13043500000000563
        },
        {
          "name": "D5",
          "midi": 74,
          "time": 81.26100499999991,
          "velocity": 0.7244094488188977,
          "duration": 0.13043500000000563
        },
        {
          "name": "C#5",
          "midi": 73,
          "time": 81.39143999999992,
          "velocity": 0.7244094488188977,
          "duration": 0.9130449999999968
        },
        {
          "name": "G#4",
          "midi": 68,
          "time": 81.39143999999992,
          "velocity": 0.7244094488188977,
          "duration": 0.9130449999999968
        },
        {
          "name": "A#4",
          "midi": 70,
          "time": 82.30448499999991,
          "velocity": 0.7244094488188977,
          "duration": 1.1739149999999938
        },
        {
          "name": "D#5",
          "midi": 75,
          "time": 82.30448499999991,
          "velocity": 0.7244094488188977,
          "duration": 1.1739149999999938
        },
        {
          "name": "A#3",
          "midi": 58,
          "time": 83.47839999999991,
          "velocity": 0.8188976377952756,
          "duration": 1.5652199999999965
        },
        {
          "name": "F4",
          "midi": 65,
          "time": 85.0436199999999,
          "velocity": 0.8188976377952756,
          "duration": 0.5217399999999941
        },
        {
          "name": "E4",
          "midi": 64,
          "time": 85.5653599999999,
          "velocity": 0.8188976377952756,
          "duration": 1.0434800000000024
        },
        {
          "name": "D4",
          "midi": 62,
          "time": 86.6088399999999,
          "velocity": 0.8188976377952756,
          "duration": 1.0434800000000024
        },
        {
          "name": "F4",
          "midi": 65,
          "time": 87.6523199999999,
          "velocity": 0.8188976377952756,
          "duration": 2.086960000000005
        },
        {
          "name": "A#3",
          "midi": 58,
          "time": 91.82623999999991,
          "velocity": 0.8188976377952756,
          "duration": 1.5652199999999965
        },
        {
          "name": "F4",
          "midi": 65,
          "time": 93.39145999999991,
          "velocity": 0.8188976377952756,
          "duration": 0.5217399999999941
        },
        {
          "name": "E4",
          "midi": 64,
          "time": 93.9131999999999,
          "velocity": 0.8188976377952756,
          "duration": 1.0434800000000024
        },
        {
          "name": "D4",
          "midi": 62,
          "time": 94.9566799999999,
          "velocity": 0.8188976377952756,
          "duration": 1.0434800000000024
        },
        {
          "name": "D4",
          "midi": 62,
          "time": 96.00015999999991,
          "velocity": 0.8188976377952756,
          "duration": 2.086960000000005
        },
        {
          "name": "D4",
          "midi": 62,
          "time": 100.17407999999992,
          "velocity": 0.8188976377952756,
          "duration": 0.13043500000000563
        },
        {
          "name": "D4",
          "midi": 62,
          "time": 100.30451499999992,
          "velocity": 0.8188976377952756,
          "duration": 0.13043500000000563
        },
        {
          "name": "D5",
          "midi": 74,
          "time": 100.43494999999993,
          "velocity": 0.8188976377952756,
          "duration": 0.26086999999999705
        },
        {
          "name": "A4",
          "midi": 69,
          "time": 100.69581999999993,
          "velocity": 0.8188976377952756,
          "duration": 0.3913050000000027
        },
        {
          "name": "G#4",
          "midi": 68,
          "time": 101.08712499999993,
          "velocity": 0.8188976377952756,
          "duration": 0.26086999999999705
        },
        {
          "name": "G4",
          "midi": 67,
          "time": 101.34799499999993,
          "velocity": 0.8188976377952756,
          "duration": 0.26086999999999705
        },
        {
          "name": "F4",
          "midi": 65,
          "time": 101.60886499999992,
          "velocity": 0.8188976377952756,
          "duration": 0.26086999999999705
        },
        {
          "name": "D4",
          "midi": 62,
          "time": 101.86973499999992,
          "velocity": 0.8188976377952756,
          "duration": 0.13043500000000563
        },
        {
          "name": "F4",
          "midi": 65,
          "time": 102.00016999999993,
          "velocity": 0.8188976377952756,
          "duration": 0.13043500000000563
        },
        {
          "name": "G4",
          "midi": 67,
          "time": 102.13060499999993,
          "velocity": 0.8188976377952756,
          "duration": 0.13043500000000563
        },
        {
          "name": "C4",
          "midi": 60,
          "time": 102.26103999999994,
          "velocity": 0.8188976377952756,
          "duration": 0.13043500000000563
        },
        {
          "name": "C4",
          "midi": 60,
          "time": 102.39147499999994,
          "velocity": 0.8188976377952756,
          "duration": 0.13043500000000563
        },
        {
          "name": "D5",
          "midi": 74,
          "time": 102.52190999999995,
          "velocity": 0.8188976377952756,
          "duration": 0.26086999999999705
        },
        {
          "name": "A4",
          "midi": 69,
          "time": 102.78277999999995,
          "velocity": 0.8188976377952756,
          "duration": 0.3913050000000027
        },
        {
          "name": "G#4",
          "midi": 68,
          "time": 103.17408499999995,
          "velocity": 0.8188976377952756,
          "duration": 0.26086999999999705
        },
        {
          "name": "G4",
          "midi": 67,
          "time": 103.43495499999995,
          "velocity": 0.8188976377952756,
          "duration": 0.26086999999999705
        },
        {
          "name": "F4",
          "midi": 65,
          "time": 103.69582499999994,
          "velocity": 0.8188976377952756,
          "duration": 0.26086999999999705
        },
        {
          "name": "D4",
          "midi": 62,
          "time": 103.95669499999994,
          "velocity": 0.8188976377952756,
          "duration": 0.13043500000000563
        },
        {
          "name": "F4",
          "midi": 65,
          "time": 104.08712999999995,
          "velocity": 0.8188976377952756,
          "duration": 0.13043500000000563
        },
        {
          "name": "G4",
          "midi": 67,
          "time": 104.21756499999995,
          "velocity": 0.8188976377952756,
          "duration": 0.13043500000000563
        },
        {
          "name": "B3",
          "midi": 59,
          "time": 104.34799999999996,
          "velocity": 0.8188976377952756,
          "duration": 0.13043500000000563
        },
        {
          "name": "B3",
          "midi": 59,
          "time": 104.47843499999996,
          "velocity": 0.8188976377952756,
          "duration": 0.13043500000000563
        },
        {
          "name": "D5",
          "midi": 74,
          "time": 104.60886999999997,
          "velocity": 0.8188976377952756,
          "duration": 0.26086999999999705
        },
        {
          "name": "A4",
          "midi": 69,
          "time": 104.86973999999996,
          "velocity": 0.8188976377952756,
          "duration": 0.3913050000000027
        },
        {
          "name": "G#4",
          "midi": 68,
          "time": 105.26104499999997,
          "velocity": 0.8188976377952756,
          "duration": 0.26086999999999705
        },
        {
          "name": "G4",
          "midi": 67,
          "time": 105.52191499999996,
          "velocity": 0.8188976377952756,
          "duration": 0.26086999999999705
        },
        {
          "name": "F4",
          "midi": 65,
          "time": 105.78278499999996,
          "velocity": 0.8188976377952756,
          "duration": 0.26086999999999705
        },
        {
          "name": "D4",
          "midi": 62,
          "time": 106.04365499999996,
          "velocity": 0.8188976377952756,
          "duration": 0.13043500000000563
        },
        {
          "name": "F4",
          "midi": 65,
          "time": 106.17408999999996,
          "velocity": 0.8188976377952756,
          "duration": 0.13043500000000563
        },
        {
          "name": "G4",
          "midi": 67,
          "time": 106.30452499999997,
          "velocity": 0.8188976377952756,
          "duration": 0.13043500000000563
        },
        {
          "name": "B3",
          "midi": 59,
          "time": 106.43495999999998,
          "velocity": 0.8188976377952756,
          "duration": 0.13043500000000563
        },
        {
          "name": "B3",
          "midi": 59,
          "time": 106.56539499999998,
          "velocity": 0.8188976377952756,
          "duration": 0.13043500000000563
        },
        {
          "name": "D5",
          "midi": 74,
          "time": 106.69582999999999,
          "velocity": 0.8188976377952756,
          "duration": 0.26086999999999705
        },
        {
          "name": "A4",
          "midi": 69,
          "time": 106.95669999999998,
          "velocity": 0.8188976377952756,
          "duration": 0.3913050000000027
        },
        {
          "name": "G#4",
          "midi": 68,
          "time": 107.34800499999999,
          "velocity": 0.8188976377952756,
          "duration": 0.26086999999999705
        },
        {
          "name": "G4",
          "midi": 67,
          "time": 107.60887499999998,
          "velocity": 0.8188976377952756,
          "duration": 0.26086999999999705
        },
        {
          "name": "F4",
          "midi": 65,
          "time": 107.86974499999998,
          "velocity": 0.8188976377952756,
          "duration": 0.26086999999999705
        },
        {
          "name": "D4",
          "midi": 62,
          "time": 108.13061499999998,
          "velocity": 0.8188976377952756,
          "duration": 0.13043500000000563
        },
        {
          "name": "F4",
          "midi": 65,
          "time": 108.26104999999998,
          "velocity": 0.8188976377952756,
          "duration": 0.13043500000000563
        },
        {
          "name": "G4",
          "midi": 67,
          "time": 108.39148499999999,
          "velocity": 0.8188976377952756,
          "duration": 0.13043500000000563
        },
        {
          "name": "D4",
          "midi": 62,
          "time": 108.52192,
          "velocity": 0.8188976377952756,
          "duration": 0.13043500000000563
        },
        {
          "name": "D4",
          "midi": 62,
          "time": 108.652355,
          "velocity": 0.8188976377952756,
          "duration": 0.13043500000000563
        },
        {
          "name": "D5",
          "midi": 74,
          "time": 108.78279,
          "velocity": 0.8188976377952756,
          "duration": 0.26086999999999705
        },
        {
          "name": "A4",
          "midi": 69,
          "time": 109.04366,
          "velocity": 0.8188976377952756,
          "duration": 0.3913050000000027
        },
        {
          "name": "G#4",
          "midi": 68,
          "time": 109.434965,
          "velocity": 0.8188976377952756,
          "duration": 0.26086999999999705
        },
        {
          "name": "G4",
          "midi": 67,
          "time": 109.695835,
          "velocity": 0.8188976377952756,
          "duration": 0.26086999999999705
        },
        {
          "name": "F4",
          "midi": 65,
          "time": 109.956705,
          "velocity": 0.8188976377952756,
          "duration": 0.26086999999999705
        },
        {
          "name": "D4",
          "midi": 62,
          "time": 110.217575,
          "velocity": 0.8188976377952756,
          "duration": 0.13043500000000563
        },
        {
          "name": "F4",
          "midi": 65,
          "time": 110.34801,
          "velocity": 0.8188976377952756,
          "duration": 0.13043500000000563
        },
        {
          "name": "G4",
          "midi": 67,
          "time": 110.47844500000001,
          "velocity": 0.8188976377952756,
          "duration": 0.13043500000000563
        },
        {
          "name": "C4",
          "midi": 60,
          "time": 110.60888000000001,
          "velocity": 0.8188976377952756,
          "duration": 0.13043500000000563
        },
        {
          "name": "C4",
          "midi": 60,
          "time": 110.73931500000002,
          "velocity": 0.8188976377952756,
          "duration": 0.13043500000000563
        },
        {
          "name": "D5",
          "midi": 74,
          "time": 110.86975000000002,
          "velocity": 0.8188976377952756,
          "duration": 0.26086999999999705
        },
        {
          "name": "A4",
          "midi": 69,
          "time": 111.13062000000002,
          "velocity": 0.8188976377952756,
          "duration": 0.3913050000000027
        },
        {
          "name": "G#4",
          "midi": 68,
          "time": 111.52192500000002,
          "velocity": 0.8188976377952756,
          "duration": 0.26086999999999705
        },
        {
          "name": "G4",
          "midi": 67,
          "time": 111.78279500000002,
          "velocity": 0.8188976377952756,
          "duration": 0.26086999999999705
        },
        {
          "name": "F4",
          "midi": 65,
          "time": 112.04366500000002,
          "velocity": 0.8188976377952756,
          "duration": 0.26086999999999705
        },
        {
          "name": "D4",
          "midi": 62,
          "time": 112.30453500000002,
          "velocity": 0.8188976377952756,
          "duration": 0.13043500000000563
        },
        {
          "name": "F4",
          "midi": 65,
          "time": 112.43497000000002,
          "velocity": 0.8188976377952756,
          "duration": 0.13043500000000563
        },
        {
          "name": "G4",
          "midi": 67,
          "time": 112.56540500000003,
          "velocity": 0.8188976377952756,
          "duration": 0.13043500000000563
        },
        {
          "name": "D5",
          "midi": 74,
          "time": 112.95671000000003,
          "velocity": 0.8188976377952756,
          "duration": 0.19565249999999423
        },
        {
          "name": "F5",
          "midi": 77,
          "time": 112.95671000000003,
          "velocity": 0.8188976377952756,
          "duration": 0.26086999999999705
        },
        {
          "name": "A4",
          "midi": 69,
          "time": 113.21758000000003,
          "velocity": 0.8188976377952756,
          "duration": 0.13043500000000563
        },
        {
          "name": "E5",
          "midi": 76,
          "time": 113.21758000000003,
          "velocity": 0.8188976377952756,
          "duration": 0.13043500000000563
        },
        {
          "name": "G#4",
          "midi": 68,
          "time": 113.60888500000003,
          "velocity": 0.8188976377952756,
          "duration": 0.26086999999999705
        },
        {
          "name": "C5",
          "midi": 72,
          "time": 113.60888500000003,
          "velocity": 0.8188976377952756,
          "duration": 0.26086999999999705
        },
        {
          "name": "G4",
          "midi": 67,
          "time": 113.86975500000003,
          "velocity": 0.8188976377952756,
          "duration": 0.13043500000000563
        },
        {
          "name": "E5",
          "midi": 76,
          "time": 113.86975500000003,
          "velocity": 0.8188976377952756,
          "duration": 0.13043500000000563
        },
        {
          "name": "F4",
          "midi": 65,
          "time": 114.13062500000004,
          "velocity": 0.8188976377952756,
          "duration": 0.26086999999999705
        },
        {
          "name": "D5",
          "midi": 74,
          "time": 114.13062500000004,
          "velocity": 0.8188976377952756,
          "duration": 0.26086999999999705
        },
        {
          "name": "C4",
          "midi": 60,
          "time": 114.39149500000003,
          "velocity": 0.8188976377952756,
          "duration": 0.13043500000000563
        },
        {
          "name": "A4",
          "midi": 69,
          "time": 114.39149500000003,
          "velocity": 0.8188976377952756,
          "duration": 0.13043500000000563
        },
        {
          "name": "E4",
          "midi": 64,
          "time": 114.52193000000004,
          "velocity": 0.8188976377952756,
          "duration": 0.13043500000000563
        },
        {
          "name": "C5",
          "midi": 72,
          "time": 114.52193000000004,
          "velocity": 0.8188976377952756,
          "duration": 0.13043500000000563
        },
        {
          "name": "D5",
          "midi": 74,
          "time": 114.65236500000005,
          "velocity": 0.8188976377952756,
          "duration": 0.13043500000000563
        },
        {
          "name": "F4",
          "midi": 65,
          "time": 114.65236500000005,
          "velocity": 0.8188976377952756,
          "duration": 0.13043500000000563
        },
        {
          "name": "D5",
          "midi": 74,
          "time": 115.04367000000005,
          "velocity": 0.8188976377952756,
          "duration": 0.19565249999999423
        },
        {
          "name": "F5",
          "midi": 77,
          "time": 115.04367000000005,
          "velocity": 0.8188976377952756,
          "duration": 0.26086999999999705
        },
        {
          "name": "E5",
          "midi": 76,
          "time": 115.30454000000005,
          "velocity": 0.8188976377952756,
          "duration": 0.13043500000000563
        },
        {
          "name": "A4",
          "midi": 69,
          "time": 115.30454000000005,
          "velocity": 0.8188976377952756,
          "duration": 0.13043500000000563
        },
        {
          "name": "G#4",
          "midi": 68,
          "time": 115.69584500000005,
          "velocity": 0.8188976377952756,
          "duration": 0.26086999999999705
        },
        {
          "name": "C5",
          "midi": 72,
          "time": 115.69584500000005,
          "velocity": 0.8188976377952756,
          "duration": 0.26086999999999705
        },
        {
          "name": "E5",
          "midi": 76,
          "time": 115.95671500000005,
          "velocity": 0.8188976377952756,
          "duration": 0.13043500000000563
        },
        {
          "name": "G4",
          "midi": 67,
          "time": 115.95671500000005,
          "velocity": 0.8188976377952756,
          "duration": 0.13043500000000563
        },
        {
          "name": "F4",
          "midi": 65,
          "time": 116.21758500000006,
          "velocity": 0.8188976377952756,
          "duration": 0.26086999999999705
        },
        {
          "name": "D5",
          "midi": 74,
          "time": 116.21758500000006,
          "velocity": 0.8188976377952756,
          "duration": 0.26086999999999705
        },
        {
          "name": "A4",
          "midi": 69,
          "time": 116.47845500000005,
          "velocity": 0.8188976377952756,
          "duration": 0.13043500000000563
        },
        {
          "name": "C4",
          "midi": 60,
          "time": 116.47845500000005,
          "velocity": 0.8188976377952756,
          "duration": 0.13043500000000563
        },
        {
          "name": "E4",
          "midi": 64,
          "time": 116.60889000000006,
          "velocity": 0.8188976377952756,
          "duration": 0.13043500000000563
        },
        {
          "name": "C5",
          "midi": 72,
          "time": 116.60889000000006,
          "velocity": 0.8188976377952756,
          "duration": 0.13043500000000563
        },
        {
          "name": "F4",
          "midi": 65,
          "time": 116.73932500000006,
          "velocity": 0.8188976377952756,
          "duration": 0.13043500000000563
        },
        {
          "name": "D5",
          "midi": 74,
          "time": 116.73932500000006,
          "velocity": 0.8188976377952756,
          "duration": 0.13043500000000563
        },
        {
          "name": "A#4",
          "midi": 70,
          "time": 116.86976000000007,
          "velocity": 0.6692913385826772,
          "duration": 0.26086999999999705
        },
        {
          "name": "F4",
          "midi": 65,
          "time": 116.86976000000007,
          "velocity": 0.6692913385826772,
          "duration": 0.26086999999999705
        },
        {
          "name": "F4",
          "midi": 65,
          "time": 117.13063000000007,
          "velocity": 0.6850393700787402,
          "duration": 0.26086999999999705
        },
        {
          "name": "A#4",
          "midi": 70,
          "time": 117.13063000000007,
          "velocity": 0.6850393700787402,
          "duration": 0.26086999999999705
        },
        {
          "name": "A#4",
          "midi": 70,
          "time": 117.39150000000006,
          "velocity": 0.6850393700787402,
          "duration": 0.13043500000000563
        },
        {
          "name": "F4",
          "midi": 65,
          "time": 117.39150000000006,
          "velocity": 0.6850393700787402,
          "duration": 0.13043500000000563
        },
        {
          "name": "A#4",
          "midi": 70,
          "time": 117.52193500000007,
          "velocity": 0.6850393700787402,
          "duration": 0.26086999999999705
        },
        {
          "name": "F4",
          "midi": 65,
          "time": 117.52193500000007,
          "velocity": 0.6850393700787402,
          "duration": 0.26086999999999705
        },
        {
          "name": "F4",
          "midi": 65,
          "time": 117.78280500000007,
          "velocity": 0.6850393700787402,
          "duration": 0.26086999999999705
        },
        {
          "name": "A#4",
          "midi": 70,
          "time": 117.78280500000007,
          "velocity": 0.6850393700787402,
          "duration": 0.26086999999999705
        },
        {
          "name": "A#4",
          "midi": 70,
          "time": 118.04367500000006,
          "velocity": 0.6850393700787402,
          "duration": 0.26086999999999705
        },
        {
          "name": "F4",
          "midi": 65,
          "time": 118.04367500000006,
          "velocity": 0.6850393700787402,
          "duration": 0.26086999999999705
        },
        {
          "name": "F4",
          "midi": 65,
          "time": 118.30454500000006,
          "velocity": 0.6850393700787402,
          "duration": 0.26086999999999705
        },
        {
          "name": "A#4",
          "midi": 70,
          "time": 118.30454500000006,
          "velocity": 0.6850393700787402,
          "duration": 0.26086999999999705
        },
        {
          "name": "A#4",
          "midi": 70,
          "time": 118.56541500000006,
          "velocity": 0.6850393700787402,
          "duration": 0.13043500000000563
        },
        {
          "name": "F4",
          "midi": 65,
          "time": 118.56541500000006,
          "velocity": 0.6850393700787402,
          "duration": 0.13043500000000563
        },
        {
          "name": "F4",
          "midi": 65,
          "time": 118.69585000000006,
          "velocity": 0.6850393700787402,
          "duration": 0.26086999999999705
        },
        {
          "name": "A#4",
          "midi": 70,
          "time": 118.69585000000006,
          "velocity": 0.6850393700787402,
          "duration": 0.26086999999999705
        },
        {
          "name": "C5",
          "midi": 72,
          "time": 118.95672000000006,
          "velocity": 0.6850393700787402,
          "duration": 0.26086999999999705
        },
        {
          "name": "G4",
          "midi": 67,
          "time": 118.95672000000006,
          "velocity": 0.6850393700787402,
          "duration": 0.26086999999999705
        },
        {
          "name": "G4",
          "midi": 67,
          "time": 119.21759000000006,
          "velocity": 0.6850393700787402,
          "duration": 0.26086999999999705
        },
        {
          "name": "C5",
          "midi": 72,
          "time": 119.21759000000006,
          "velocity": 0.6850393700787402,
          "duration": 0.26086999999999705
        },
        {
          "name": "C5",
          "midi": 72,
          "time": 119.47846000000006,
          "velocity": 0.6850393700787402,
          "duration": 0.13043500000000563
        },
        {
          "name": "G4",
          "midi": 67,
          "time": 119.47846000000006,
          "velocity": 0.6850393700787402,
          "duration": 0.13043500000000563
        },
        {
          "name": "C5",
          "midi": 72,
          "time": 119.60889500000006,
          "velocity": 0.6850393700787402,
          "duration": 0.26086999999999705
        },
        {
          "name": "G4",
          "midi": 67,
          "time": 119.60889500000006,
          "velocity": 0.6850393700787402,
          "duration": 0.26086999999999705
        },
        {
          "name": "G4",
          "midi": 67,
          "time": 119.86976500000006,
          "velocity": 0.6850393700787402,
          "duration": 0.26086999999999705
        },
        {
          "name": "C5",
          "midi": 72,
          "time": 119.86976500000006,
          "velocity": 0.6850393700787402,
          "duration": 0.26086999999999705
        },
        {
          "name": "C5",
          "midi": 72,
          "time": 120.13063500000005,
          "velocity": 0.6850393700787402,
          "duration": 0.26086999999999705
        },
        {
          "name": "G4",
          "midi": 67,
          "time": 120.13063500000005,
          "velocity": 0.6850393700787402,
          "duration": 0.26086999999999705
        },
        {
          "name": "G4",
          "midi": 67,
          "time": 120.39150500000005,
          "velocity": 0.6850393700787402,
          "duration": 0.26086999999999705
        },
        {
          "name": "C5",
          "midi": 72,
          "time": 120.39150500000005,
          "velocity": 0.6850393700787402,
          "duration": 0.26086999999999705
        },
        {
          "name": "C5",
          "midi": 72,
          "time": 120.65237500000005,
          "velocity": 0.6850393700787402,
          "duration": 0.13043500000000563
        },
        {
          "name": "G4",
          "midi": 67,
          "time": 120.65237500000005,
          "velocity": 0.6850393700787402,
          "duration": 0.13043500000000563
        },
        {
          "name": "G4",
          "midi": 67,
          "time": 120.78281000000005,
          "velocity": 0.6850393700787402,
          "duration": 0.26086999999999705
        },
        {
          "name": "C5",
          "midi": 72,
          "time": 120.78281000000005,
          "velocity": 0.6850393700787402,
          "duration": 0.26086999999999705
        },
        {
          "name": "D5",
          "midi": 74,
          "time": 121.04368000000005,
          "velocity": 0.6850393700787402,
          "duration": 0.26086999999999705
        },
        {
          "name": "A4",
          "midi": 69,
          "time": 121.04368000000005,
          "velocity": 0.6850393700787402,
          "duration": 0.26086999999999705
        },
        {
          "name": "A4",
          "midi": 69,
          "time": 121.30455000000005,
          "velocity": 0.6850393700787402,
          "duration": 0.26086999999999705
        },
        {
          "name": "D5",
          "midi": 74,
          "time": 121.30455000000005,
          "velocity": 0.6850393700787402,
          "duration": 0.26086999999999705
        },
        {
          "name": "D5",
          "midi": 74,
          "time": 121.56542000000005,
          "velocity": 0.6850393700787402,
          "duration": 0.13043500000000563
        },
        {
          "name": "A4",
          "midi": 69,
          "time": 121.56542000000005,
          "velocity": 0.6850393700787402,
          "duration": 0.13043500000000563
        },
        {
          "name": "D5",
          "midi": 74,
          "time": 121.69585500000005,
          "velocity": 0.6850393700787402,
          "duration": 0.26086999999999705
        },
        {
          "name": "A4",
          "midi": 69,
          "time": 121.69585500000005,
          "velocity": 0.6850393700787402,
          "duration": 0.26086999999999705
        },
        {
          "name": "G#4",
          "midi": 68,
          "time": 121.95672500000005,
          "velocity": 0.6850393700787402,
          "duration": 0.26086999999999705
        },
        {
          "name": "C#5",
          "midi": 73,
          "time": 121.95672500000005,
          "velocity": 0.6850393700787402,
          "duration": 0.26086999999999705
        },
        {
          "name": "C#5",
          "midi": 73,
          "time": 122.21759500000005,
          "velocity": 0.6850393700787402,
          "duration": 0.26086999999999705
        },
        {
          "name": "G#4",
          "midi": 68,
          "time": 122.21759500000005,
          "velocity": 0.6850393700787402,
          "duration": 0.26086999999999705
        },
        {
          "name": "G#4",
          "midi": 68,
          "time": 122.47846500000004,
          "velocity": 0.6850393700787402,
          "duration": 0.26086999999999705
        },
        {
          "name": "C#5",
          "midi": 73,
          "time": 122.47846500000004,
          "velocity": 0.6850393700787402,
          "duration": 0.26086999999999705
        },
        {
          "name": "C#5",
          "midi": 73,
          "time": 122.73933500000004,
          "velocity": 0.6850393700787402,
          "duration": 0.13043500000000563
        },
        {
          "name": "G#4",
          "midi": 68,
          "time": 122.73933500000004,
          "velocity": 0.6850393700787402,
          "duration": 0.13043500000000563
        },
        {
          "name": "G#4",
          "midi": 68,
          "time": 122.86977000000005,
          "velocity": 0.6850393700787402,
          "duration": 0.26086999999999705
        },
        {
          "name": "C#5",
          "midi": 73,
          "time": 122.86977000000005,
          "velocity": 0.6850393700787402,
          "duration": 0.26086999999999705
        },
        {
          "name": "C5",
          "midi": 72,
          "time": 123.13064000000004,
          "velocity": 0.6850393700787402,
          "duration": 0.26086999999999705
        },
        {
          "name": "G4",
          "midi": 67,
          "time": 123.13064000000004,
          "velocity": 0.6850393700787402,
          "duration": 0.26086999999999705
        },
        {
          "name": "G4",
          "midi": 67,
          "time": 123.39151000000004,
          "velocity": 0.6850393700787402,
          "duration": 0.26086999999999705
        },
        {
          "name": "C5",
          "midi": 72,
          "time": 123.39151000000004,
          "velocity": 0.6850393700787402,
          "duration": 0.26086999999999705
        },
        {
          "name": "C5",
          "midi": 72,
          "time": 123.65238000000004,
          "velocity": 0.6850393700787402,
          "duration": 0.13043500000000563
        },
        {
          "name": "G4",
          "midi": 67,
          "time": 123.65238000000004,
          "velocity": 0.6850393700787402,
          "duration": 0.13043500000000563
        },
        {
          "name": "C5",
          "midi": 72,
          "time": 123.78281500000004,
          "velocity": 0.6850393700787402,
          "duration": 0.26086999999999705
        },
        {
          "name": "G4",
          "midi": 67,
          "time": 123.78281500000004,
          "velocity": 0.6850393700787402,
          "duration": 0.26086999999999705
        },
        {
          "name": "G4",
          "midi": 67,
          "time": 124.04368500000004,
          "velocity": 0.6850393700787402,
          "duration": 0.26086999999999705
        },
        {
          "name": "B4",
          "midi": 71,
          "time": 124.04368500000004,
          "velocity": 0.6850393700787402,
          "duration": 0.26086999999999705
        },
        {
          "name": "B4",
          "midi": 71,
          "time": 124.30455500000004,
          "velocity": 0.6850393700787402,
          "duration": 0.26086999999999705
        },
        {
          "name": "G4",
          "midi": 67,
          "time": 124.30455500000004,
          "velocity": 0.6850393700787402,
          "duration": 0.26086999999999705
        },
        {
          "name": "G4",
          "midi": 67,
          "time": 124.56542500000003,
          "velocity": 0.6850393700787402,
          "duration": 0.26086999999999705
        },
        {
          "name": "B4",
          "midi": 71,
          "time": 124.56542500000003,
          "velocity": 0.6850393700787402,
          "duration": 0.26086999999999705
        },
        {
          "name": "B4",
          "midi": 71,
          "time": 124.82629500000003,
          "velocity": 0.6850393700787402,
          "duration": 0.13043500000000563
        },
        {
          "name": "G4",
          "midi": 67,
          "time": 124.82629500000003,
          "velocity": 0.6850393700787402,
          "duration": 0.13043500000000563
        },
        {
          "name": "G4",
          "midi": 67,
          "time": 124.95673000000004,
          "velocity": 0.6850393700787402,
          "duration": 0.26086999999999705
        },
        {
          "name": "B4",
          "midi": 71,
          "time": 124.95673000000004,
          "velocity": 0.6850393700787402,
          "duration": 0.26086999999999705
        },
        {
          "name": "A#4",
          "midi": 70,
          "time": 125.21760000000003,
          "velocity": 0.6850393700787402,
          "duration": 0.26086999999999705
        },
        {
          "name": "F4",
          "midi": 65,
          "time": 125.21760000000003,
          "velocity": 0.6850393700787402,
          "duration": 0.26086999999999705
        },
        {
          "name": "F4",
          "midi": 65,
          "time": 125.47847000000003,
          "velocity": 0.6850393700787402,
          "duration": 0.26086999999999705
        },
        {
          "name": "A#4",
          "midi": 70,
          "time": 125.47847000000003,
          "velocity": 0.6850393700787402,
          "duration": 0.26086999999999705
        },
        {
          "name": "A#4",
          "midi": 70,
          "time": 125.73934000000003,
          "velocity": 0.6850393700787402,
          "duration": 0.13043500000000563
        },
        {
          "name": "F4",
          "midi": 65,
          "time": 125.73934000000003,
          "velocity": 0.6850393700787402,
          "duration": 0.13043500000000563
        },
        {
          "name": "A#4",
          "midi": 70,
          "time": 125.86977500000003,
          "velocity": 0.6850393700787402,
          "duration": 0.26086999999999705
        },
        {
          "name": "F4",
          "midi": 65,
          "time": 125.86977500000003,
          "velocity": 0.6850393700787402,
          "duration": 0.26086999999999705
        },
        {
          "name": "F4",
          "midi": 65,
          "time": 126.13064500000003,
          "velocity": 0.6850393700787402,
          "duration": 0.26086999999999705
        },
        {
          "name": "A#4",
          "midi": 70,
          "time": 126.13064500000003,
          "velocity": 0.6850393700787402,
          "duration": 0.26086999999999705
        },
        {
          "name": "A#4",
          "midi": 70,
          "time": 126.39151500000003,
          "velocity": 0.6850393700787402,
          "duration": 0.26086999999999705
        },
        {
          "name": "F4",
          "midi": 65,
          "time": 126.39151500000003,
          "velocity": 0.6850393700787402,
          "duration": 0.26086999999999705
        },
        {
          "name": "F4",
          "midi": 65,
          "time": 126.65238500000002,
          "velocity": 0.6850393700787402,
          "duration": 0.26086999999999705
        },
        {
          "name": "A#4",
          "midi": 70,
          "time": 126.65238500000002,
          "velocity": 0.6850393700787402,
          "duration": 0.26086999999999705
        },
        {
          "name": "A#4",
          "midi": 70,
          "time": 126.91325500000002,
          "velocity": 0.6850393700787402,
          "duration": 0.13043500000000563
        },
        {
          "name": "F4",
          "midi": 65,
          "time": 126.91325500000002,
          "velocity": 0.6850393700787402,
          "duration": 0.13043500000000563
        },
        {
          "name": "F4",
          "midi": 65,
          "time": 127.04369000000003,
          "velocity": 0.6850393700787402,
          "duration": 0.26086999999999705
        },
        {
          "name": "A#4",
          "midi": 70,
          "time": 127.04369000000003,
          "velocity": 0.6850393700787402,
          "duration": 0.26086999999999705
        },
        {
          "name": "C5",
          "midi": 72,
          "time": 127.30456000000002,
          "velocity": 0.6850393700787402,
          "duration": 0.26086999999999705
        },
        {
          "name": "G4",
          "midi": 67,
          "time": 127.30456000000002,
          "velocity": 0.6850393700787402,
          "duration": 0.26086999999999705
        },
        {
          "name": "G4",
          "midi": 67,
          "time": 127.56543000000002,
          "velocity": 0.6850393700787402,
          "duration": 0.26086999999999705
        },
        {
          "name": "C5",
          "midi": 72,
          "time": 127.56543000000002,
          "velocity": 0.6850393700787402,
          "duration": 0.26086999999999705
        },
        {
          "name": "C5",
          "midi": 72,
          "time": 127.82630000000002,
          "velocity": 0.6850393700787402,
          "duration": 0.13043500000000563
        },
        {
          "name": "G4",
          "midi": 67,
          "time": 127.82630000000002,
          "velocity": 0.6850393700787402,
          "duration": 0.13043500000000563
        },
        {
          "name": "C5",
          "midi": 72,
          "time": 127.95673500000002,
          "velocity": 0.6850393700787402,
          "duration": 0.26086999999999705
        },
        {
          "name": "G4",
          "midi": 67,
          "time": 127.95673500000002,
          "velocity": 0.6850393700787402,
          "duration": 0.26086999999999705
        },
        {
          "name": "G4",
          "midi": 67,
          "time": 128.21760500000002,
          "velocity": 0.6850393700787402,
          "duration": 0.26087000000001126
        },
        {
          "name": "C5",
          "midi": 72,
          "time": 128.21760500000002,
          "velocity": 0.6850393700787402,
          "duration": 0.26087000000001126
        },
        {
          "name": "C5",
          "midi": 72,
          "time": 128.47847500000003,
          "velocity": 0.6850393700787402,
          "duration": 0.26087000000001126
        },
        {
          "name": "G4",
          "midi": 67,
          "time": 128.47847500000003,
          "velocity": 0.6850393700787402,
          "duration": 0.26087000000001126
        },
        {
          "name": "G4",
          "midi": 67,
          "time": 128.73934500000004,
          "velocity": 0.6850393700787402,
          "duration": 0.26087000000001126
        },
        {
          "name": "C5",
          "midi": 72,
          "time": 128.73934500000004,
          "velocity": 0.6850393700787402,
          "duration": 0.26087000000001126
        },
        {
          "name": "C5",
          "midi": 72,
          "time": 129.00021500000005,
          "velocity": 0.6850393700787402,
          "duration": 0.13043500000000563
        },
        {
          "name": "G4",
          "midi": 67,
          "time": 129.00021500000005,
          "velocity": 0.6850393700787402,
          "duration": 0.13043500000000563
        },
        {
          "name": "G4",
          "midi": 67,
          "time": 129.13065000000006,
          "velocity": 0.6850393700787402,
          "duration": 0.26087000000001126
        },
        {
          "name": "C5",
          "midi": 72,
          "time": 129.13065000000006,
          "velocity": 0.6850393700787402,
          "duration": 0.26087000000001126
        },
        {
          "name": "D5",
          "midi": 74,
          "time": 129.39152000000007,
          "velocity": 0.6850393700787402,
          "duration": 0.26087000000001126
        },
        {
          "name": "A4",
          "midi": 69,
          "time": 129.39152000000007,
          "velocity": 0.6850393700787402,
          "duration": 0.26087000000001126
        },
        {
          "name": "A4",
          "midi": 69,
          "time": 129.65239000000008,
          "velocity": 0.6850393700787402,
          "duration": 0.26087000000001126
        },
        {
          "name": "D5",
          "midi": 74,
          "time": 129.65239000000008,
          "velocity": 0.6850393700787402,
          "duration": 0.26087000000001126
        },
        {
          "name": "D5",
          "midi": 74,
          "time": 129.9132600000001,
          "velocity": 0.6850393700787402,
          "duration": 0.13043500000000563
        },
        {
          "name": "A4",
          "midi": 69,
          "time": 129.9132600000001,
          "velocity": 0.6850393700787402,
          "duration": 0.13043500000000563
        },
        {
          "name": "D5",
          "midi": 74,
          "time": 130.0436950000001,
          "velocity": 0.6850393700787402,
          "duration": 0.26087000000001126
        },
        {
          "name": "A4",
          "midi": 69,
          "time": 130.0436950000001,
          "velocity": 0.6850393700787402,
          "duration": 0.26087000000001126
        },
        {
          "name": "A4",
          "midi": 69,
          "time": 130.3045650000001,
          "velocity": 0.6850393700787402,
          "duration": 0.26087000000001126
        },
        {
          "name": "D5",
          "midi": 74,
          "time": 130.3045650000001,
          "velocity": 0.6850393700787402,
          "duration": 0.26087000000001126
        },
        {
          "name": "D5",
          "midi": 74,
          "time": 130.56543500000012,
          "velocity": 0.6850393700787402,
          "duration": 0.26087000000001126
        },
        {
          "name": "A4",
          "midi": 69,
          "time": 130.56543500000012,
          "velocity": 0.6850393700787402,
          "duration": 0.26087000000001126
        },
        {
          "name": "A4",
          "midi": 69,
          "time": 130.82630500000013,
          "velocity": 0.6850393700787402,
          "duration": 0.26087000000001126
        },
        {
          "name": "D5",
          "midi": 74,
          "time": 130.82630500000013,
          "velocity": 0.6850393700787402,
          "duration": 0.26087000000001126
        },
        {
          "name": "D5",
          "midi": 74,
          "time": 131.08717500000014,
          "velocity": 0.6850393700787402,
          "duration": 0.13043500000000563
        },
        {
          "name": "A4",
          "midi": 69,
          "time": 131.08717500000014,
          "velocity": 0.6850393700787402,
          "duration": 0.13043500000000563
        },
        {
          "name": "A4",
          "midi": 69,
          "time": 131.21761000000015,
          "velocity": 0.6850393700787402,
          "duration": 0.26087000000001126
        },
        {
          "name": "D5",
          "midi": 74,
          "time": 131.21761000000015,
          "velocity": 0.6850393700787402,
          "duration": 0.26087000000001126
        },
        {
          "name": "D5",
          "midi": 74,
          "time": 131.47848000000016,
          "velocity": 0.6771653543307087,
          "duration": 0.26087000000001126
        },
        {
          "name": "A4",
          "midi": 69,
          "time": 131.47848000000016,
          "velocity": 0.6771653543307087,
          "duration": 0.26087000000001126
        },
        {
          "name": "A4",
          "midi": 69,
          "time": 131.73935000000017,
          "velocity": 0.6771653543307087,
          "duration": 0.26087000000001126
        },
        {
          "name": "D5",
          "midi": 74,
          "time": 131.73935000000017,
          "velocity": 0.6771653543307087,
          "duration": 0.26087000000001126
        },
        {
          "name": "D5",
          "midi": 74,
          "time": 132.00022000000018,
          "velocity": 0.6771653543307087,
          "duration": 0.13043500000000563
        },
        {
          "name": "A4",
          "midi": 69,
          "time": 132.00022000000018,
          "velocity": 0.6771653543307087,
          "duration": 0.13043500000000563
        },
        {
          "name": "D5",
          "midi": 74,
          "time": 132.1306550000002,
          "velocity": 0.6771653543307087,
          "duration": 0.26087000000001126
        },
        {
          "name": "A4",
          "midi": 69,
          "time": 132.1306550000002,
          "velocity": 0.6771653543307087,
          "duration": 0.26087000000001126
        },
        {
          "name": "A4",
          "midi": 69,
          "time": 132.3915250000002,
          "velocity": 0.6771653543307087,
          "duration": 0.26087000000001126
        },
        {
          "name": "D5",
          "midi": 74,
          "time": 132.3915250000002,
          "velocity": 0.6771653543307087,
          "duration": 0.26087000000001126
        },
        {
          "name": "D5",
          "midi": 74,
          "time": 132.6523950000002,
          "velocity": 0.6771653543307087,
          "duration": 0.26087000000001126
        },
        {
          "name": "A4",
          "midi": 69,
          "time": 132.6523950000002,
          "velocity": 0.6771653543307087,
          "duration": 0.26087000000001126
        },
        {
          "name": "A4",
          "midi": 69,
          "time": 132.91326500000022,
          "velocity": 0.6771653543307087,
          "duration": 0.26087000000001126
        },
        {
          "name": "D5",
          "midi": 74,
          "time": 132.91326500000022,
          "velocity": 0.6771653543307087,
          "duration": 0.26087000000001126
        },
        {
          "name": "D5",
          "midi": 74,
          "time": 133.17413500000023,
          "velocity": 0.6771653543307087,
          "duration": 0.13043500000000563
        },
        {
          "name": "A4",
          "midi": 69,
          "time": 133.17413500000023,
          "velocity": 0.6771653543307087,
          "duration": 0.13043500000000563
        },
        {
          "name": "A4",
          "midi": 69,
          "time": 133.30457000000024,
          "velocity": 0.6771653543307087,
          "duration": 0.26087000000001126
        },
        {
          "name": "D5",
          "midi": 74,
          "time": 133.30457000000024,
          "velocity": 0.6771653543307087,
          "duration": 0.26087000000001126
        },
        {
          "name": "A#4",
          "midi": 70,
          "time": 133.56544000000025,
          "velocity": 0.6771653543307087,
          "duration": 0.26087000000001126
        },
        {
          "name": "F4",
          "midi": 65,
          "time": 133.56544000000025,
          "velocity": 0.6771653543307087,
          "duration": 0.26087000000001126
        },
        {
          "name": "F4",
          "midi": 65,
          "time": 133.82631000000026,
          "velocity": 0.6771653543307087,
          "duration": 0.26087000000001126
        },
        {
          "name": "A#4",
          "midi": 70,
          "time": 133.82631000000026,
          "velocity": 0.6771653543307087,
          "duration": 0.26087000000001126
        },
        {
          "name": "A#4",
          "midi": 70,
          "time": 134.08718000000027,
          "velocity": 0.6771653543307087,
          "duration": 0.13043500000000563
        },
        {
          "name": "F4",
          "midi": 65,
          "time": 134.08718000000027,
          "velocity": 0.6771653543307087,
          "duration": 0.13043500000000563
        },
        {
          "name": "A#4",
          "midi": 70,
          "time": 134.21761500000028,
          "velocity": 0.6771653543307087,
          "duration": 0.26087000000001126
        },
        {
          "name": "F4",
          "midi": 65,
          "time": 134.21761500000028,
          "velocity": 0.6771653543307087,
          "duration": 0.26087000000001126
        },
        {
          "name": "F4",
          "midi": 65,
          "time": 134.4784850000003,
          "velocity": 0.6771653543307087,
          "duration": 0.26087000000001126
        },
        {
          "name": "A#4",
          "midi": 70,
          "time": 134.4784850000003,
          "velocity": 0.6771653543307087,
          "duration": 0.26087000000001126
        },
        {
          "name": "A#4",
          "midi": 70,
          "time": 134.7393550000003,
          "velocity": 0.6771653543307087,
          "duration": 0.26087000000001126
        },
        {
          "name": "F4",
          "midi": 65,
          "time": 134.7393550000003,
          "velocity": 0.6771653543307087,
          "duration": 0.26087000000001126
        },
        {
          "name": "F4",
          "midi": 65,
          "time": 135.0002250000003,
          "velocity": 0.6771653543307087,
          "duration": 0.26087000000001126
        },
        {
          "name": "A#4",
          "midi": 70,
          "time": 135.0002250000003,
          "velocity": 0.6771653543307087,
          "duration": 0.26087000000001126
        },
        {
          "name": "A#4",
          "midi": 70,
          "time": 135.26109500000032,
          "velocity": 0.6771653543307087,
          "duration": 0.13043500000000563
        },
        {
          "name": "F4",
          "midi": 65,
          "time": 135.26109500000032,
          "velocity": 0.6771653543307087,
          "duration": 0.13043500000000563
        },
        {
          "name": "F4",
          "midi": 65,
          "time": 135.39153000000033,
          "velocity": 0.6771653543307087,
          "duration": 0.26087000000001126
        },
        {
          "name": "A#4",
          "midi": 70,
          "time": 135.39153000000033,
          "velocity": 0.6771653543307087,
          "duration": 0.26087000000001126
        },
        {
          "name": "C5",
          "midi": 72,
          "time": 135.65240000000034,
          "velocity": 0.6771653543307087,
          "duration": 0.26087000000001126
        },
        {
          "name": "G4",
          "midi": 67,
          "time": 135.65240000000034,
          "velocity": 0.6771653543307087,
          "duration": 0.26087000000001126
        },
        {
          "name": "G4",
          "midi": 67,
          "time": 135.91327000000035,
          "velocity": 0.6771653543307087,
          "duration": 0.26087000000001126
        },
        {
          "name": "C5",
          "midi": 72,
          "time": 135.91327000000035,
          "velocity": 0.6771653543307087,
          "duration": 0.26087000000001126
        },
        {
          "name": "C5",
          "midi": 72,
          "time": 136.17414000000036,
          "velocity": 0.6771653543307087,
          "duration": 0.13043500000000563
        },
        {
          "name": "G4",
          "midi": 67,
          "time": 136.17414000000036,
          "velocity": 0.6771653543307087,
          "duration": 0.13043500000000563
        },
        {
          "name": "C5",
          "midi": 72,
          "time": 136.30457500000037,
          "velocity": 0.6771653543307087,
          "duration": 0.26087000000001126
        },
        {
          "name": "G4",
          "midi": 67,
          "time": 136.30457500000037,
          "velocity": 0.6771653543307087,
          "duration": 0.26087000000001126
        },
        {
          "name": "G4",
          "midi": 67,
          "time": 136.56544500000038,
          "velocity": 0.6771653543307087,
          "duration": 0.26087000000001126
        },
        {
          "name": "C5",
          "midi": 72,
          "time": 136.56544500000038,
          "velocity": 0.6771653543307087,
          "duration": 0.26087000000001126
        },
        {
          "name": "C5",
          "midi": 72,
          "time": 136.8263150000004,
          "velocity": 0.6771653543307087,
          "duration": 0.26087000000001126
        },
        {
          "name": "G4",
          "midi": 67,
          "time": 136.8263150000004,
          "velocity": 0.6771653543307087,
          "duration": 0.26087000000001126
        },
        {
          "name": "G4",
          "midi": 67,
          "time": 137.0871850000004,
          "velocity": 0.6771653543307087,
          "duration": 0.26087000000001126
        },
        {
          "name": "C5",
          "midi": 72,
          "time": 137.0871850000004,
          "velocity": 0.6771653543307087,
          "duration": 0.26087000000001126
        },
        {
          "name": "C5",
          "midi": 72,
          "time": 137.34805500000041,
          "velocity": 0.6771653543307087,
          "duration": 0.13043500000000563
        },
        {
          "name": "G4",
          "midi": 67,
          "time": 137.34805500000041,
          "velocity": 0.6771653543307087,
          "duration": 0.13043500000000563
        },
        {
          "name": "G4",
          "midi": 67,
          "time": 137.47849000000042,
          "velocity": 0.6771653543307087,
          "duration": 0.26087000000001126
        },
        {
          "name": "C5",
          "midi": 72,
          "time": 137.47849000000042,
          "velocity": 0.6771653543307087,
          "duration": 0.26087000000001126
        },
        {
          "name": "D5",
          "midi": 74,
          "time": 137.73936000000043,
          "velocity": 0.6771653543307087,
          "duration": 0.26087000000001126
        },
        {
          "name": "A4",
          "midi": 69,
          "time": 137.73936000000043,
          "velocity": 0.6771653543307087,
          "duration": 0.26087000000001126
        },
        {
          "name": "A4",
          "midi": 69,
          "time": 138.00023000000044,
          "velocity": 0.6771653543307087,
          "duration": 0.26087000000001126
        },
        {
          "name": "D5",
          "midi": 74,
          "time": 138.00023000000044,
          "velocity": 0.6771653543307087,
          "duration": 0.26087000000001126
        },
        {
          "name": "D5",
          "midi": 74,
          "time": 138.26110000000045,
          "velocity": 0.6771653543307087,
          "duration": 0.13043500000000563
        },
        {
          "name": "A4",
          "midi": 69,
          "time": 138.26110000000045,
          "velocity": 0.6771653543307087,
          "duration": 0.13043500000000563
        },
        {
          "name": "D5",
          "midi": 74,
          "time": 138.39153500000046,
          "velocity": 0.6771653543307087,
          "duration": 0.26087000000001126
        },
        {
          "name": "A4",
          "midi": 69,
          "time": 138.39153500000046,
          "velocity": 0.6771653543307087,
          "duration": 0.26087000000001126
        },
        {
          "name": "G#4",
          "midi": 68,
          "time": 138.65240500000047,
          "velocity": 0.6771653543307087,
          "duration": 0.26087000000001126
        },
        {
          "name": "C#5",
          "midi": 73,
          "time": 138.65240500000047,
          "velocity": 0.6771653543307087,
          "duration": 0.26087000000001126
        },
        {
          "name": "C#5",
          "midi": 73,
          "time": 138.91327500000048,
          "velocity": 0.6771653543307087,
          "duration": 0.26087000000001126
        },
        {
          "name": "G#4",
          "midi": 68,
          "time": 138.91327500000048,
          "velocity": 0.6771653543307087,
          "duration": 0.26087000000001126
        },
        {
          "name": "G#4",
          "midi": 68,
          "time": 139.1741450000005,
          "velocity": 0.6771653543307087,
          "duration": 0.26087000000001126
        },
        {
          "name": "C#5",
          "midi": 73,
          "time": 139.1741450000005,
          "velocity": 0.6771653543307087,
          "duration": 0.26087000000001126
        },
        {
          "name": "C#5",
          "midi": 73,
          "time": 139.4350150000005,
          "velocity": 0.6771653543307087,
          "duration": 0.13043500000000563
        },
        {
          "name": "G#4",
          "midi": 68,
          "time": 139.4350150000005,
          "velocity": 0.6771653543307087,
          "duration": 0.13043500000000563
        },
        {
          "name": "G#4",
          "midi": 68,
          "time": 139.5654500000005,
          "velocity": 0.6771653543307087,
          "duration": 0.26087000000001126
        },
        {
          "name": "C#5",
          "midi": 73,
          "time": 139.5654500000005,
          "velocity": 0.6771653543307087,
          "duration": 0.26087000000001126
        },
        {
          "name": "C5",
          "midi": 72,
          "time": 139.82632000000052,
          "velocity": 0.6771653543307087,
          "duration": 0.26087000000001126
        },
        {
          "name": "G4",
          "midi": 67,
          "time": 139.82632000000052,
          "velocity": 0.6771653543307087,
          "duration": 0.26087000000001126
        },
        {
          "name": "G4",
          "midi": 67,
          "time": 140.08719000000053,
          "velocity": 0.6771653543307087,
          "duration": 0.26087000000001126
        },
        {
          "name": "C5",
          "midi": 72,
          "time": 140.08719000000053,
          "velocity": 0.6771653543307087,
          "duration": 0.26087000000001126
        },
        {
          "name": "C5",
          "midi": 72,
          "time": 140.34806000000054,
          "velocity": 0.6771653543307087,
          "duration": 0.13043500000000563
        },
        {
          "name": "G4",
          "midi": 67,
          "time": 140.34806000000054,
          "velocity": 0.6771653543307087,
          "duration": 0.13043500000000563
        },
        {
          "name": "C5",
          "midi": 72,
          "time": 140.47849500000055,
          "velocity": 0.6771653543307087,
          "duration": 0.26087000000001126
        },
        {
          "name": "G4",
          "midi": 67,
          "time": 140.47849500000055,
          "velocity": 0.6771653543307087,
          "duration": 0.26087000000001126
        },
        {
          "name": "G4",
          "midi": 67,
          "time": 140.73936500000056,
          "velocity": 0.6771653543307087,
          "duration": 0.26087000000001126
        },
        {
          "name": "B4",
          "midi": 71,
          "time": 140.73936500000056,
          "velocity": 0.6771653543307087,
          "duration": 0.26087000000001126
        },
        {
          "name": "B4",
          "midi": 71,
          "time": 141.00023500000057,
          "velocity": 0.6771653543307087,
          "duration": 0.26087000000001126
        },
        {
          "name": "G4",
          "midi": 67,
          "time": 141.00023500000057,
          "velocity": 0.6771653543307087,
          "duration": 0.26087000000001126
        },
        {
          "name": "G4",
          "midi": 67,
          "time": 141.26110500000058,
          "velocity": 0.6771653543307087,
          "duration": 0.26087000000001126
        },
        {
          "name": "B4",
          "midi": 71,
          "time": 141.26110500000058,
          "velocity": 0.6771653543307087,
          "duration": 0.26087000000001126
        },
        {
          "name": "B4",
          "midi": 71,
          "time": 141.5219750000006,
          "velocity": 0.6771653543307087,
          "duration": 0.13043500000000563
        },
        {
          "name": "G4",
          "midi": 67,
          "time": 141.5219750000006,
          "velocity": 0.6771653543307087,
          "duration": 0.13043500000000563
        },
        {
          "name": "G4",
          "midi": 67,
          "time": 141.6524100000006,
          "velocity": 0.6771653543307087,
          "duration": 0.26087000000001126
        },
        {
          "name": "B4",
          "midi": 71,
          "time": 141.6524100000006,
          "velocity": 0.6771653543307087,
          "duration": 0.26087000000001126
        },
        {
          "name": "A#4",
          "midi": 70,
          "time": 141.9132800000006,
          "velocity": 0.6771653543307087,
          "duration": 0.26087000000001126
        },
        {
          "name": "F4",
          "midi": 65,
          "time": 141.9132800000006,
          "velocity": 0.6771653543307087,
          "duration": 0.26087000000001126
        },
        {
          "name": "F4",
          "midi": 65,
          "time": 142.17415000000062,
          "velocity": 0.6771653543307087,
          "duration": 0.26087000000001126
        },
        {
          "name": "A#4",
          "midi": 70,
          "time": 142.17415000000062,
          "velocity": 0.6771653543307087,
          "duration": 0.26087000000001126
        },
        {
          "name": "A#4",
          "midi": 70,
          "time": 142.43502000000063,
          "velocity": 0.6771653543307087,
          "duration": 0.13043500000000563
        },
        {
          "name": "F4",
          "midi": 65,
          "time": 142.43502000000063,
          "velocity": 0.6771653543307087,
          "duration": 0.13043500000000563
        },
        {
          "name": "A#4",
          "midi": 70,
          "time": 142.56545500000064,
          "velocity": 0.6771653543307087,
          "duration": 0.26087000000001126
        },
        {
          "name": "F4",
          "midi": 65,
          "time": 142.56545500000064,
          "velocity": 0.6771653543307087,
          "duration": 0.26087000000001126
        },
        {
          "name": "F4",
          "midi": 65,
          "time": 142.82632500000065,
          "velocity": 0.6771653543307087,
          "duration": 0.26087000000001126
        },
        {
          "name": "A#4",
          "midi": 70,
          "time": 142.82632500000065,
          "velocity": 0.6771653543307087,
          "duration": 0.26087000000001126
        },
        {
          "name": "A#4",
          "midi": 70,
          "time": 143.08719500000066,
          "velocity": 0.6771653543307087,
          "duration": 0.26087000000001126
        },
        {
          "name": "F4",
          "midi": 65,
          "time": 143.08719500000066,
          "velocity": 0.6771653543307087,
          "duration": 0.26087000000001126
        },
        {
          "name": "F4",
          "midi": 65,
          "time": 143.34806500000067,
          "velocity": 0.6771653543307087,
          "duration": 0.26087000000001126
        },
        {
          "name": "A#4",
          "midi": 70,
          "time": 143.34806500000067,
          "velocity": 0.6771653543307087,
          "duration": 0.26087000000001126
        },
        {
          "name": "A#4",
          "midi": 70,
          "time": 143.60893500000068,
          "velocity": 0.6771653543307087,
          "duration": 0.13043500000000563
        },
        {
          "name": "F4",
          "midi": 65,
          "time": 143.60893500000068,
          "velocity": 0.6771653543307087,
          "duration": 0.13043500000000563
        },
        {
          "name": "F4",
          "midi": 65,
          "time": 143.7393700000007,
          "velocity": 0.6771653543307087,
          "duration": 0.26087000000001126
        },
        {
          "name": "A#4",
          "midi": 70,
          "time": 143.7393700000007,
          "velocity": 0.6771653543307087,
          "duration": 0.26087000000001126
        },
        {
          "name": "C5",
          "midi": 72,
          "time": 144.0002400000007,
          "velocity": 0.6771653543307087,
          "duration": 0.26087000000001126
        },
        {
          "name": "G4",
          "midi": 67,
          "time": 144.0002400000007,
          "velocity": 0.6771653543307087,
          "duration": 0.26087000000001126
        },
        {
          "name": "G4",
          "midi": 67,
          "time": 144.2611100000007,
          "velocity": 0.6771653543307087,
          "duration": 0.26087000000001126
        },
        {
          "name": "C5",
          "midi": 72,
          "time": 144.2611100000007,
          "velocity": 0.6771653543307087,
          "duration": 0.26087000000001126
        },
        {
          "name": "C5",
          "midi": 72,
          "time": 144.52198000000072,
          "velocity": 0.6771653543307087,
          "duration": 0.13043500000000563
        },
        {
          "name": "G4",
          "midi": 67,
          "time": 144.52198000000072,
          "velocity": 0.6771653543307087,
          "duration": 0.13043500000000563
        },
        {
          "name": "C5",
          "midi": 72,
          "time": 144.65241500000073,
          "velocity": 0.6771653543307087,
          "duration": 0.26087000000001126
        },
        {
          "name": "G4",
          "midi": 67,
          "time": 144.65241500000073,
          "velocity": 0.6771653543307087,
          "duration": 0.26087000000001126
        },
        {
          "name": "G4",
          "midi": 67,
          "time": 144.91328500000074,
          "velocity": 0.6771653543307087,
          "duration": 0.26087000000001126
        },
        {
          "name": "C5",
          "midi": 72,
          "time": 144.91328500000074,
          "velocity": 0.6771653543307087,
          "duration": 0.26087000000001126
        },
        {
          "name": "C5",
          "midi": 72,
          "time": 145.17415500000075,
          "velocity": 0.6771653543307087,
          "duration": 0.26087000000001126
        },
        {
          "name": "G4",
          "midi": 67,
          "time": 145.17415500000075,
          "velocity": 0.6771653543307087,
          "duration": 0.26087000000001126
        },
        {
          "name": "G4",
          "midi": 67,
          "time": 145.43502500000076,
          "velocity": 0.6771653543307087,
          "duration": 0.26087000000001126
        },
        {
          "name": "C5",
          "midi": 72,
          "time": 145.43502500000076,
          "velocity": 0.6771653543307087,
          "duration": 0.26087000000001126
        },
        {
          "name": "C5",
          "midi": 72,
          "time": 145.69589500000077,
          "velocity": 0.6850393700787402,
          "duration": 0.13043500000000563
        },
        {
          "name": "G4",
          "midi": 67,
          "time": 145.69589500000077,
          "velocity": 0.6850393700787402,
          "duration": 0.13043500000000563
        },
        {
          "name": "G4",
          "midi": 67,
          "time": 145.82633000000078,
          "velocity": 0.6850393700787402,
          "duration": 0.26087000000001126
        },
        {
          "name": "C5",
          "midi": 72,
          "time": 145.82633000000078,
          "velocity": 0.6850393700787402,
          "duration": 0.26087000000001126
        },
        {
          "name": "D4",
          "midi": 62,
          "time": 146.0872000000008,
          "velocity": 0.6850393700787402,
          "duration": 0.13043500000000563
        },
        {
          "name": "D4",
          "midi": 62,
          "time": 146.2176350000008,
          "velocity": 0.6850393700787402,
          "duration": 0.13043500000000563
        },
        {
          "name": "D5",
          "midi": 74,
          "time": 146.3480700000008,
          "velocity": 0.6850393700787402,
          "duration": 0.26087000000001126
        },
        {
          "name": "A4",
          "midi": 69,
          "time": 146.6089400000008,
          "velocity": 0.6850393700787402,
          "duration": 0.39130499999998847
        },
        {
          "name": "G#4",
          "midi": 68,
          "time": 147.0002450000008,
          "velocity": 0.6850393700787402,
          "duration": 0.26087000000001126
        },
        {
          "name": "G4",
          "midi": 67,
          "time": 147.2611150000008,
          "velocity": 0.6850393700787402,
          "duration": 0.26087000000001126
        },
        {
          "name": "F4",
          "midi": 65,
          "time": 147.52198500000083,
          "velocity": 0.6850393700787402,
          "duration": 0.26087000000001126
        },
        {
          "name": "D4",
          "midi": 62,
          "time": 147.78285500000084,
          "velocity": 0.6850393700787402,
          "duration": 0.13043500000000563
        },
        {
          "name": "F4",
          "midi": 65,
          "time": 147.91329000000084,
          "velocity": 0.6850393700787402,
          "duration": 0.13043500000000563
        },
        {
          "name": "G4",
          "midi": 67,
          "time": 148.04372500000085,
          "velocity": 0.6850393700787402,
          "duration": 0.13043500000000563
        },
        {
          "name": "D4",
          "midi": 62,
          "time": 148.17416000000085,
          "velocity": 0.6850393700787402,
          "duration": 0.13043500000000563
        },
        {
          "name": "D4",
          "midi": 62,
          "time": 148.30459500000086,
          "velocity": 0.6850393700787402,
          "duration": 0.13043500000000563
        },
        {
          "name": "D5",
          "midi": 74,
          "time": 148.43503000000086,
          "velocity": 0.6850393700787402,
          "duration": 0.26087000000001126
        },
        {
          "name": "A4",
          "midi": 69,
          "time": 148.69590000000088,
          "velocity": 0.6850393700787402,
          "duration": 0.39130499999998847
        },
        {
          "name": "G#4",
          "midi": 68,
          "time": 149.08720500000086,
          "velocity": 0.6850393700787402,
          "duration": 0.26087000000001126
        },
        {
          "name": "G4",
          "midi": 67,
          "time": 149.34807500000088,
          "velocity": 0.6850393700787402,
          "duration": 0.26087000000001126
        },
        {
          "name": "F4",
          "midi": 65,
          "time": 149.6089450000009,
          "velocity": 0.6850393700787402,
          "duration": 0.26087000000001126
        },
        {
          "name": "D4",
          "midi": 62,
          "time": 149.8698150000009,
          "velocity": 0.6850393700787402,
          "duration": 0.13043500000000563
        },
        {
          "name": "F4",
          "midi": 65,
          "time": 150.0002500000009,
          "velocity": 0.6850393700787402,
          "duration": 0.13043500000000563
        },
        {
          "name": "G4",
          "midi": 67,
          "time": 150.1306850000009,
          "velocity": 0.6850393700787402,
          "duration": 0.13043500000000563
        },
        {
          "name": "A#3",
          "midi": 58,
          "time": 150.26112000000091,
          "velocity": 0.6850393700787402,
          "duration": 0.13043500000000563
        },
        {
          "name": "A#3",
          "midi": 58,
          "time": 150.39155500000092,
          "velocity": 0.6850393700787402,
          "duration": 0.13043500000000563
        },
        {
          "name": "D5",
          "midi": 74,
          "time": 150.52199000000093,
          "velocity": 0.6850393700787402,
          "duration": 0.26087000000001126
        },
        {
          "name": "A4",
          "midi": 69,
          "time": 150.78286000000094,
          "velocity": 0.6850393700787402,
          "duration": 0.39130499999998847
        },
        {
          "name": "G#4",
          "midi": 68,
          "time": 151.17416500000093,
          "velocity": 0.6850393700787402,
          "duration": 0.26087000000001126
        },
        {
          "name": "G4",
          "midi": 67,
          "time": 151.43503500000094,
          "velocity": 0.6850393700787402,
          "duration": 0.26087000000001126
        },
        {
          "name": "F4",
          "midi": 65,
          "time": 151.69590500000095,
          "velocity": 0.6850393700787402,
          "duration": 0.26087000000001126
        },
        {
          "name": "D4",
          "midi": 62,
          "time": 151.95677500000096,
          "velocity": 0.6850393700787402,
          "duration": 0.13043500000000563
        },
        {
          "name": "F4",
          "midi": 65,
          "time": 152.08721000000097,
          "velocity": 0.6850393700787402,
          "duration": 0.13043500000000563
        },
        {
          "name": "G4",
          "midi": 67,
          "time": 152.21764500000097,
          "velocity": 0.6850393700787402,
          "duration": 0.13043500000000563
        },
        {
          "name": "C4",
          "midi": 60,
          "time": 152.34808000000098,
          "velocity": 0.6850393700787402,
          "duration": 0.13043500000000563
        },
        {
          "name": "C4",
          "midi": 60,
          "time": 152.47851500000098,
          "velocity": 0.6850393700787402,
          "duration": 0.13043500000000563
        },
        {
          "name": "D5",
          "midi": 74,
          "time": 152.608950000001,
          "velocity": 0.6850393700787402,
          "duration": 0.26087000000001126
        },
        {
          "name": "A4",
          "midi": 69,
          "time": 152.869820000001,
          "velocity": 0.6850393700787402,
          "duration": 0.39130499999998847
        },
        {
          "name": "G#4",
          "midi": 68,
          "time": 153.261125000001,
          "velocity": 0.6850393700787402,
          "duration": 0.26087000000001126
        },
        {
          "name": "G4",
          "midi": 67,
          "time": 153.521995000001,
          "velocity": 0.6850393700787402,
          "duration": 0.26087000000001126
        },
        {
          "name": "F4",
          "midi": 65,
          "time": 153.782865000001,
          "velocity": 0.6850393700787402,
          "duration": 0.26087000000001126
        },
        {
          "name": "D4",
          "midi": 62,
          "time": 154.04373500000102,
          "velocity": 0.6850393700787402,
          "duration": 0.13043500000000563
        },
        {
          "name": "F4",
          "midi": 65,
          "time": 154.17417000000103,
          "velocity": 0.6850393700787402,
          "duration": 0.13043500000000563
        },
        {
          "name": "G4",
          "midi": 67,
          "time": 154.30460500000103,
          "velocity": 0.6850393700787402,
          "duration": 0.13043500000000563
        },
        {
          "name": "D4",
          "midi": 62,
          "time": 154.43504000000104,
          "velocity": 0.6850393700787402,
          "duration": 0.13043500000000563
        },
        {
          "name": "D4",
          "midi": 62,
          "time": 154.56547500000104,
          "velocity": 0.6850393700787402,
          "duration": 0.13043500000000563
        },
        {
          "name": "D5",
          "midi": 74,
          "time": 154.69591000000105,
          "velocity": 0.6850393700787402,
          "duration": 0.26087000000001126
        },
        {
          "name": "A4",
          "midi": 69,
          "time": 154.95678000000106,
          "velocity": 0.6850393700787402,
          "duration": 0.39130499999998847
        },
        {
          "name": "G#4",
          "midi": 68,
          "time": 155.34808500000105,
          "velocity": 0.6850393700787402,
          "duration": 0.26087000000001126
        },
        {
          "name": "G4",
          "midi": 67,
          "time": 155.60895500000106,
          "velocity": 0.6850393700787402,
          "duration": 0.26087000000001126
        },
        {
          "name": "F4",
          "midi": 65,
          "time": 155.86982500000107,
          "velocity": 0.6850393700787402,
          "duration": 0.26087000000001126
        },
        {
          "name": "D4",
          "midi": 62,
          "time": 156.13069500000108,
          "velocity": 0.6850393700787402,
          "duration": 0.13043500000000563
        },
        {
          "name": "F4",
          "midi": 65,
          "time": 156.2611300000011,
          "velocity": 0.6850393700787402,
          "duration": 0.13043500000000563
        },
        {
          "name": "G4",
          "midi": 67,
          "time": 156.3915650000011,
          "velocity": 0.6850393700787402,
          "duration": 0.13043500000000563
        },
        {
          "name": "D4",
          "midi": 62,
          "time": 156.5220000000011,
          "velocity": 0.6850393700787402,
          "duration": 0.13043500000000563
        },
        {
          "name": "D4",
          "midi": 62,
          "time": 156.6524350000011,
          "velocity": 0.6850393700787402,
          "duration": 0.13043500000000563
        },
        {
          "name": "D5",
          "midi": 74,
          "time": 156.7828700000011,
          "velocity": 0.6850393700787402,
          "duration": 0.26087000000001126
        },
        {
          "name": "A4",
          "midi": 69,
          "time": 157.04374000000112,
          "velocity": 0.6929133858267716,
          "duration": 0.39130499999998847
        },
        {
          "name": "G#4",
          "midi": 68,
          "time": 157.4350450000011,
          "velocity": 0.6929133858267716,
          "duration": 0.26087000000001126
        },
        {
          "name": "G4",
          "midi": 67,
          "time": 157.69591500000112,
          "velocity": 0.6929133858267716,
          "duration": 0.26087000000001126
        },
        {
          "name": "F4",
          "midi": 65,
          "time": 157.95678500000113,
          "velocity": 0.6929133858267716,
          "duration": 0.26087000000001126
        },
        {
          "name": "D4",
          "midi": 62,
          "time": 158.21765500000114,
          "velocity": 0.6929133858267716,
          "duration": 0.13043500000000563
        },
        {
          "name": "F4",
          "midi": 65,
          "time": 158.34809000000115,
          "velocity": 0.6929133858267716,
          "duration": 0.13043500000000563
        },
        {
          "name": "G4",
          "midi": 67,
          "time": 158.47852500000116,
          "velocity": 0.6929133858267716,
          "duration": 0.13043500000000563
        }
      ],
      "controlChanges": {
        "6": [
          {
            "number": 6,
            "time": 0,
            "value": 0.09448818897637795
          }
        ],
        "7": [
          {
            "number": 7,
            "time": 0,
            "value": 0.7874015748031497
          }
        ],
        "10": [
          {
            "number": 10,
            "time": 0,
            "value": 0.4015748031496063
          }
        ],
        "64": [
          {
            "number": 64,
            "time": 0,
            "value": 0
          }
        ],
        "91": [
          {
            "number": 91,
            "time": 0,
            "value": 0.3779527559055118
          }
        ],
        "100": [
          {
            "number": 100,
            "time": 0,
            "value": 0
          }
        ],
        "101": [
          {
            "number": 101,
            "time": 0,
            "value": 0
          }
        ]
      },
      "id": 3,
      "instrumentNumber": 0,
      "instrument": "acoustic grand piano",
      "instrumentFamily": "piano",
      "channelNumber": 0,
      "isPercussion": false
    },
    {
      "startTime": 8.34784,
      "duration": 150.26112000000037,
      "length": 1174,
      "notes": [
        {
          "name": "D3",
          "midi": 50,
          "time": 8.34784,
          "velocity": 0.5433070866141733,
          "duration": 0.2608700000000006
        },
        {
          "name": "D3",
          "midi": 50,
          "time": 8.60871,
          "velocity": 0.6299212598425197,
          "duration": 0.2608700000000006
        },
        {
          "name": "D3",
          "midi": 50,
          "time": 8.869580000000001,
          "velocity": 0.5984251968503937,
          "duration": 0.1304350000000003
        },
        {
          "name": "D3",
          "midi": 50,
          "time": 9.000015000000001,
          "velocity": 0.5984251968503937,
          "duration": 0.2608700000000006
        },
        {
          "name": "D3",
          "midi": 50,
          "time": 9.260885000000002,
          "velocity": 0.5905511811023622,
          "duration": 0.2608700000000006
        },
        {
          "name": "D3",
          "midi": 50,
          "time": 9.521755000000002,
          "velocity": 0.5826771653543307,
          "duration": 0.2608700000000006
        },
        {
          "name": "D3",
          "midi": 50,
          "time": 9.782625000000003,
          "velocity": 0.6062992125984252,
          "duration": 0.2608700000000006
        },
        {
          "name": "D3",
          "midi": 50,
          "time": 10.043495000000004,
          "velocity": 0.5984251968503937,
          "duration": 0.1304350000000003
        },
        {
          "name": "D3",
          "midi": 50,
          "time": 10.173930000000004,
          "velocity": 0.6220472440944882,
          "duration": 0.2608700000000006
        },
        {
          "name": "C3",
          "midi": 48,
          "time": 10.434800000000005,
          "velocity": 0.5826771653543307,
          "duration": 0.2608700000000006
        },
        {
          "name": "C3",
          "midi": 48,
          "time": 10.695670000000005,
          "velocity": 0.5984251968503937,
          "duration": 0.2608700000000006
        },
        {
          "name": "C3",
          "midi": 48,
          "time": 10.956540000000006,
          "velocity": 0.5826771653543307,
          "duration": 0.1304350000000003
        },
        {
          "name": "C3",
          "midi": 48,
          "time": 11.086975000000006,
          "velocity": 0.5905511811023622,
          "duration": 0.2608700000000006
        },
        {
          "name": "C3",
          "midi": 48,
          "time": 11.347845000000007,
          "velocity": 0.5826771653543307,
          "duration": 0.2608700000000006
        },
        {
          "name": "C3",
          "midi": 48,
          "time": 11.608715000000007,
          "velocity": 0.5748031496062992,
          "duration": 0.2608700000000006
        },
        {
          "name": "C3",
          "midi": 48,
          "time": 11.869585000000008,
          "velocity": 0.5826771653543307,
          "duration": 0.2608700000000006
        },
        {
          "name": "C3",
          "midi": 48,
          "time": 12.130455000000008,
          "velocity": 0.5511811023622047,
          "duration": 0.1304350000000003
        },
        {
          "name": "C3",
          "midi": 48,
          "time": 12.260890000000009,
          "velocity": 0.5905511811023622,
          "duration": 0.2608700000000006
        },
        {
          "name": "B2",
          "midi": 47,
          "time": 12.52176000000001,
          "velocity": 0.5905511811023622,
          "duration": 0.2608700000000006
        },
        {
          "name": "B2",
          "midi": 47,
          "time": 12.78263000000001,
          "velocity": 0.5748031496062992,
          "duration": 0.2608700000000006
        },
        {
          "name": "B2",
          "midi": 47,
          "time": 13.04350000000001,
          "velocity": 0.6062992125984252,
          "duration": 0.1304350000000003
        },
        {
          "name": "B2",
          "midi": 47,
          "time": 13.17393500000001,
          "velocity": 0.6062992125984252,
          "duration": 0.2608700000000006
        },
        {
          "name": "B2",
          "midi": 47,
          "time": 13.434805000000011,
          "velocity": 0.6220472440944882,
          "duration": 0.2608700000000006
        },
        {
          "name": "B2",
          "midi": 47,
          "time": 13.695675000000012,
          "velocity": 0.5984251968503937,
          "duration": 0.2608700000000006
        },
        {
          "name": "B2",
          "midi": 47,
          "time": 13.956545000000013,
          "velocity": 0.5984251968503937,
          "duration": 0.2608700000000006
        },
        {
          "name": "B2",
          "midi": 47,
          "time": 14.217415000000013,
          "velocity": 0.5984251968503937,
          "duration": 0.1304350000000003
        },
        {
          "name": "B2",
          "midi": 47,
          "time": 14.347850000000014,
          "velocity": 0.5984251968503937,
          "duration": 0.2608700000000006
        },
        {
          "name": "A#2",
          "midi": 46,
          "time": 14.608720000000014,
          "velocity": 0.5748031496062992,
          "duration": 0.2608700000000006
        },
        {
          "name": "A#2",
          "midi": 46,
          "time": 14.869590000000015,
          "velocity": 0.5984251968503937,
          "duration": 0.2608700000000006
        },
        {
          "name": "A#2",
          "midi": 46,
          "time": 15.130460000000015,
          "velocity": 0.5826771653543307,
          "duration": 0.1304350000000003
        },
        {
          "name": "A#2",
          "midi": 46,
          "time": 15.260895000000016,
          "velocity": 0.5669291338582677,
          "duration": 0.2608700000000006
        },
        {
          "name": "C3",
          "midi": 48,
          "time": 15.521765000000016,
          "velocity": 0.5905511811023622,
          "duration": 0.2608700000000006
        },
        {
          "name": "C3",
          "midi": 48,
          "time": 15.782635000000017,
          "velocity": 0.6141732283464567,
          "duration": 0.2608700000000006
        },
        {
          "name": "C3",
          "midi": 48,
          "time": 16.043505000000017,
          "velocity": 0.5826771653543307,
          "duration": 0.2608700000000006
        },
        {
          "name": "C3",
          "midi": 48,
          "time": 16.304375000000018,
          "velocity": 0.5905511811023622,
          "duration": 0.13043499999999852
        },
        {
          "name": "C3",
          "midi": 48,
          "time": 16.434810000000017,
          "velocity": 0.5905511811023622,
          "duration": 0.2608700000000006
        },
        {
          "name": "D2",
          "midi": 38,
          "time": 16.695680000000017,
          "velocity": 0.6456692913385826,
          "duration": 0.2608700000000006
        },
        {
          "name": "D3",
          "midi": 50,
          "time": 16.695680000000017,
          "velocity": 0.6456692913385826,
          "duration": 0.2608700000000006
        },
        {
          "name": "D3",
          "midi": 50,
          "time": 16.956550000000018,
          "velocity": 0.5984251968503937,
          "duration": 0.2608700000000006
        },
        {
          "name": "D2",
          "midi": 38,
          "time": 16.956550000000018,
          "velocity": 0.5984251968503937,
          "duration": 0.2608700000000006
        },
        {
          "name": "D3",
          "midi": 50,
          "time": 17.21742000000002,
          "velocity": 0.6220472440944882,
          "duration": 0.13043499999999852
        },
        {
          "name": "D2",
          "midi": 38,
          "time": 17.21742000000002,
          "velocity": 0.6220472440944882,
          "duration": 0.13043499999999852
        },
        {
          "name": "D2",
          "midi": 38,
          "time": 17.347855000000017,
          "velocity": 0.6220472440944882,
          "duration": 0.2608700000000006
        },
        {
          "name": "D3",
          "midi": 50,
          "time": 17.347855000000017,
          "velocity": 0.6220472440944882,
          "duration": 0.2608700000000006
        },
        {
          "name": "D2",
          "midi": 38,
          "time": 17.608725000000018,
          "velocity": 0.5748031496062992,
          "duration": 0.2608700000000006
        },
        {
          "name": "D3",
          "midi": 50,
          "time": 17.608725000000018,
          "velocity": 0.5748031496062992,
          "duration": 0.2608700000000006
        },
        {
          "name": "D3",
          "midi": 50,
          "time": 17.869595000000018,
          "velocity": 0.5905511811023622,
          "duration": 0.2608700000000006
        },
        {
          "name": "D2",
          "midi": 38,
          "time": 17.869595000000018,
          "velocity": 0.5905511811023622,
          "duration": 0.2608700000000006
        },
        {
          "name": "D2",
          "midi": 38,
          "time": 18.13046500000002,
          "velocity": 0.5748031496062992,
          "duration": 0.2608700000000006
        },
        {
          "name": "D3",
          "midi": 50,
          "time": 18.13046500000002,
          "velocity": 0.5748031496062992,
          "duration": 0.2608700000000006
        },
        {
          "name": "D2",
          "midi": 38,
          "time": 18.39133500000002,
          "velocity": 0.6141732283464567,
          "duration": 0.13043499999999852
        },
        {
          "name": "D3",
          "midi": 50,
          "time": 18.39133500000002,
          "velocity": 0.6141732283464567,
          "duration": 0.13043499999999852
        },
        {
          "name": "D2",
          "midi": 38,
          "time": 18.521770000000018,
          "velocity": 0.5826771653543307,
          "duration": 0.2608700000000006
        },
        {
          "name": "D3",
          "midi": 50,
          "time": 18.521770000000018,
          "velocity": 0.5826771653543307,
          "duration": 0.2608700000000006
        },
        {
          "name": "C3",
          "midi": 48,
          "time": 18.78264000000002,
          "velocity": 0.5748031496062992,
          "duration": 0.2608700000000006
        },
        {
          "name": "C2",
          "midi": 36,
          "time": 18.78264000000002,
          "velocity": 0.5748031496062992,
          "duration": 0.2608700000000006
        },
        {
          "name": "C3",
          "midi": 48,
          "time": 19.04351000000002,
          "velocity": 0.5826771653543307,
          "duration": 0.2608700000000006
        },
        {
          "name": "C2",
          "midi": 36,
          "time": 19.04351000000002,
          "velocity": 0.5826771653543307,
          "duration": 0.2608700000000006
        },
        {
          "name": "C3",
          "midi": 48,
          "time": 19.30438000000002,
          "velocity": 0.6299212598425197,
          "duration": 0.13043499999999852
        },
        {
          "name": "C2",
          "midi": 36,
          "time": 19.30438000000002,
          "velocity": 0.6299212598425197,
          "duration": 0.13043499999999852
        },
        {
          "name": "C2",
          "midi": 36,
          "time": 19.434815000000018,
          "velocity": 0.6299212598425197,
          "duration": 0.2608700000000006
        },
        {
          "name": "C3",
          "midi": 48,
          "time": 19.434815000000018,
          "velocity": 0.6299212598425197,
          "duration": 0.2608700000000006
        },
        {
          "name": "C3",
          "midi": 48,
          "time": 19.69568500000002,
          "velocity": 0.6062992125984252,
          "duration": 0.2608700000000006
        },
        {
          "name": "C2",
          "midi": 36,
          "time": 19.69568500000002,
          "velocity": 0.6062992125984252,
          "duration": 0.2608700000000006
        },
        {
          "name": "C2",
          "midi": 36,
          "time": 19.95655500000002,
          "velocity": 0.6141732283464567,
          "duration": 0.2608700000000006
        },
        {
          "name": "C3",
          "midi": 48,
          "time": 19.95655500000002,
          "velocity": 0.6141732283464567,
          "duration": 0.2608700000000006
        },
        {
          "name": "C3",
          "midi": 48,
          "time": 20.21742500000002,
          "velocity": 0.6141732283464567,
          "duration": 0.2608700000000006
        },
        {
          "name": "C2",
          "midi": 36,
          "time": 20.21742500000002,
          "velocity": 0.6141732283464567,
          "duration": 0.2608700000000006
        },
        {
          "name": "C2",
          "midi": 36,
          "time": 20.47829500000002,
          "velocity": 0.6062992125984252,
          "duration": 0.13043499999999852
        },
        {
          "name": "C3",
          "midi": 48,
          "time": 20.47829500000002,
          "velocity": 0.6062992125984252,
          "duration": 0.13043499999999852
        },
        {
          "name": "C3",
          "midi": 48,
          "time": 20.60873000000002,
          "velocity": 0.5905511811023622,
          "duration": 0.2608700000000006
        },
        {
          "name": "C2",
          "midi": 36,
          "time": 20.60873000000002,
          "velocity": 0.5905511811023622,
          "duration": 0.2608700000000006
        },
        {
          "name": "B1",
          "midi": 35,
          "time": 20.86960000000002,
          "velocity": 0.6062992125984252,
          "duration": 0.2608700000000006
        },
        {
          "name": "B2",
          "midi": 47,
          "time": 20.86960000000002,
          "velocity": 0.6062992125984252,
          "duration": 0.2608700000000006
        },
        {
          "name": "B1",
          "midi": 35,
          "time": 21.13047000000002,
          "velocity": 0.6062992125984252,
          "duration": 0.2608700000000006
        },
        {
          "name": "B2",
          "midi": 47,
          "time": 21.13047000000002,
          "velocity": 0.6062992125984252,
          "duration": 0.2608700000000006
        },
        {
          "name": "B1",
          "midi": 35,
          "time": 21.39134000000002,
          "velocity": 0.5826771653543307,
          "duration": 0.13043499999999852
        },
        {
          "name": "B2",
          "midi": 47,
          "time": 21.39134000000002,
          "velocity": 0.5826771653543307,
          "duration": 0.13043499999999852
        },
        {
          "name": "B1",
          "midi": 35,
          "time": 21.52177500000002,
          "velocity": 0.5984251968503937,
          "duration": 0.2608700000000006
        },
        {
          "name": "B2",
          "midi": 47,
          "time": 21.52177500000002,
          "velocity": 0.5984251968503937,
          "duration": 0.2608700000000006
        },
        {
          "name": "B1",
          "midi": 35,
          "time": 21.78264500000002,
          "velocity": 0.5748031496062992,
          "duration": 0.2608700000000006
        },
        {
          "name": "B2",
          "midi": 47,
          "time": 21.78264500000002,
          "velocity": 0.5748031496062992,
          "duration": 0.2608700000000006
        },
        {
          "name": "B1",
          "midi": 35,
          "time": 22.04351500000002,
          "velocity": 0.6062992125984252,
          "duration": 0.2608700000000006
        },
        {
          "name": "B2",
          "midi": 47,
          "time": 22.04351500000002,
          "velocity": 0.6062992125984252,
          "duration": 0.2608700000000006
        },
        {
          "name": "B1",
          "midi": 35,
          "time": 22.30438500000002,
          "velocity": 0.5905511811023622,
          "duration": 0.2608700000000006
        },
        {
          "name": "B2",
          "midi": 47,
          "time": 22.30438500000002,
          "velocity": 0.5905511811023622,
          "duration": 0.2608700000000006
        },
        {
          "name": "B1",
          "midi": 35,
          "time": 22.565255000000022,
          "velocity": 0.6141732283464567,
          "duration": 0.13043499999999852
        },
        {
          "name": "B2",
          "midi": 47,
          "time": 22.565255000000022,
          "velocity": 0.6141732283464567,
          "duration": 0.13043499999999852
        },
        {
          "name": "B1",
          "midi": 35,
          "time": 22.69569000000002,
          "velocity": 0.6299212598425197,
          "duration": 0.2608700000000006
        },
        {
          "name": "B2",
          "midi": 47,
          "time": 22.69569000000002,
          "velocity": 0.6299212598425197,
          "duration": 0.2608700000000006
        },
        {
          "name": "A#1",
          "midi": 34,
          "time": 22.95656000000002,
          "velocity": 0.6062992125984252,
          "duration": 0.2608700000000006
        },
        {
          "name": "A#2",
          "midi": 46,
          "time": 22.95656000000002,
          "velocity": 0.6062992125984252,
          "duration": 0.2608700000000006
        },
        {
          "name": "A#1",
          "midi": 34,
          "time": 23.21743000000002,
          "velocity": 0.5984251968503937,
          "duration": 0.2608700000000006
        },
        {
          "name": "A#2",
          "midi": 46,
          "time": 23.21743000000002,
          "velocity": 0.5984251968503937,
          "duration": 0.2608700000000006
        },
        {
          "name": "A#1",
          "midi": 34,
          "time": 23.478300000000022,
          "velocity": 0.5669291338582677,
          "duration": 0.13043499999999852
        },
        {
          "name": "A#2",
          "midi": 46,
          "time": 23.478300000000022,
          "velocity": 0.5669291338582677,
          "duration": 0.13043499999999852
        },
        {
          "name": "A#1",
          "midi": 34,
          "time": 23.60873500000002,
          "velocity": 0.5984251968503937,
          "duration": 0.2608700000000006
        },
        {
          "name": "A#2",
          "midi": 46,
          "time": 23.60873500000002,
          "velocity": 0.5984251968503937,
          "duration": 0.2608700000000006
        },
        {
          "name": "C2",
          "midi": 36,
          "time": 23.86960500000002,
          "velocity": 0.5669291338582677,
          "duration": 0.2608700000000006
        },
        {
          "name": "C3",
          "midi": 48,
          "time": 23.86960500000002,
          "velocity": 0.5669291338582677,
          "duration": 0.2608700000000006
        },
        {
          "name": "C2",
          "midi": 36,
          "time": 24.130475000000022,
          "velocity": 0.5826771653543307,
          "duration": 0.2608700000000006
        },
        {
          "name": "C3",
          "midi": 48,
          "time": 24.130475000000022,
          "velocity": 0.5826771653543307,
          "duration": 0.2608700000000006
        },
        {
          "name": "C2",
          "midi": 36,
          "time": 24.391345000000022,
          "velocity": 0.6220472440944882,
          "duration": 0.2608700000000006
        },
        {
          "name": "C3",
          "midi": 48,
          "time": 24.391345000000022,
          "velocity": 0.6220472440944882,
          "duration": 0.2608700000000006
        },
        {
          "name": "C2",
          "midi": 36,
          "time": 24.652215000000023,
          "velocity": 0.6220472440944882,
          "duration": 0.13043499999999852
        },
        {
          "name": "C3",
          "midi": 48,
          "time": 24.652215000000023,
          "velocity": 0.6220472440944882,
          "duration": 0.13043499999999852
        },
        {
          "name": "C2",
          "midi": 36,
          "time": 24.78265000000002,
          "velocity": 0.6062992125984252,
          "duration": 0.2608700000000006
        },
        {
          "name": "C3",
          "midi": 48,
          "time": 24.78265000000002,
          "velocity": 0.6062992125984252,
          "duration": 0.2608700000000006
        },
        {
          "name": "D2",
          "midi": 38,
          "time": 25.043520000000022,
          "velocity": 0.5826771653543307,
          "duration": 0.2608700000000006
        },
        {
          "name": "D3",
          "midi": 50,
          "time": 25.043520000000022,
          "velocity": 0.5826771653543307,
          "duration": 0.2608700000000006
        },
        {
          "name": "D2",
          "midi": 38,
          "time": 25.304390000000023,
          "velocity": 0.5748031496062992,
          "duration": 0.2608700000000006
        },
        {
          "name": "D3",
          "midi": 50,
          "time": 25.304390000000023,
          "velocity": 0.5748031496062992,
          "duration": 0.2608700000000006
        },
        {
          "name": "D2",
          "midi": 38,
          "time": 25.565260000000023,
          "velocity": 0.6535433070866141,
          "duration": 0.13043499999999852
        },
        {
          "name": "D3",
          "midi": 50,
          "time": 25.565260000000023,
          "velocity": 0.6535433070866141,
          "duration": 0.13043499999999852
        },
        {
          "name": "D2",
          "midi": 38,
          "time": 25.695695000000022,
          "velocity": 0.5905511811023622,
          "duration": 0.2608700000000006
        },
        {
          "name": "D3",
          "midi": 50,
          "time": 25.695695000000022,
          "velocity": 0.5905511811023622,
          "duration": 0.2608700000000006
        },
        {
          "name": "D2",
          "midi": 38,
          "time": 25.956565000000023,
          "velocity": 0.5984251968503937,
          "duration": 0.2608700000000006
        },
        {
          "name": "D3",
          "midi": 50,
          "time": 25.956565000000023,
          "velocity": 0.5984251968503937,
          "duration": 0.2608700000000006
        },
        {
          "name": "D2",
          "midi": 38,
          "time": 26.217435000000023,
          "velocity": 0.5984251968503937,
          "duration": 0.2608700000000006
        },
        {
          "name": "D3",
          "midi": 50,
          "time": 26.217435000000023,
          "velocity": 0.5984251968503937,
          "duration": 0.2608700000000006
        },
        {
          "name": "D2",
          "midi": 38,
          "time": 26.478305000000024,
          "velocity": 0.6377952755905512,
          "duration": 0.2608700000000006
        },
        {
          "name": "D3",
          "midi": 50,
          "time": 26.478305000000024,
          "velocity": 0.6377952755905512,
          "duration": 0.2608700000000006
        },
        {
          "name": "D2",
          "midi": 38,
          "time": 26.739175000000024,
          "velocity": 0.6062992125984252,
          "duration": 0.13043499999999852
        },
        {
          "name": "D3",
          "midi": 50,
          "time": 26.739175000000024,
          "velocity": 0.6062992125984252,
          "duration": 0.13043499999999852
        },
        {
          "name": "D2",
          "midi": 38,
          "time": 26.869610000000023,
          "velocity": 0.5748031496062992,
          "duration": 0.2608700000000006
        },
        {
          "name": "D3",
          "midi": 50,
          "time": 26.869610000000023,
          "velocity": 0.5748031496062992,
          "duration": 0.2608700000000006
        },
        {
          "name": "C2",
          "midi": 36,
          "time": 27.130480000000023,
          "velocity": 0.5748031496062992,
          "duration": 0.2608700000000006
        },
        {
          "name": "C3",
          "midi": 48,
          "time": 27.130480000000023,
          "velocity": 0.5748031496062992,
          "duration": 0.2608700000000006
        },
        {
          "name": "C2",
          "midi": 36,
          "time": 27.391350000000024,
          "velocity": 0.6141732283464567,
          "duration": 0.2608700000000006
        },
        {
          "name": "C3",
          "midi": 48,
          "time": 27.391350000000024,
          "velocity": 0.6141732283464567,
          "duration": 0.2608700000000006
        },
        {
          "name": "C2",
          "midi": 36,
          "time": 27.652220000000025,
          "velocity": 0.6141732283464567,
          "duration": 0.13043499999999852
        },
        {
          "name": "C3",
          "midi": 48,
          "time": 27.652220000000025,
          "velocity": 0.6141732283464567,
          "duration": 0.13043499999999852
        },
        {
          "name": "C2",
          "midi": 36,
          "time": 27.782655000000023,
          "velocity": 0.5826771653543307,
          "duration": 0.2608700000000006
        },
        {
          "name": "C3",
          "midi": 48,
          "time": 27.782655000000023,
          "velocity": 0.5826771653543307,
          "duration": 0.2608700000000006
        },
        {
          "name": "C2",
          "midi": 36,
          "time": 28.043525000000024,
          "velocity": 0.6141732283464567,
          "duration": 0.2608700000000006
        },
        {
          "name": "C3",
          "midi": 48,
          "time": 28.043525000000024,
          "velocity": 0.6141732283464567,
          "duration": 0.2608700000000006
        },
        {
          "name": "C2",
          "midi": 36,
          "time": 28.304395000000024,
          "velocity": 0.6220472440944882,
          "duration": 0.2608700000000006
        },
        {
          "name": "C3",
          "midi": 48,
          "time": 28.304395000000024,
          "velocity": 0.6220472440944882,
          "duration": 0.2608700000000006
        },
        {
          "name": "C2",
          "midi": 36,
          "time": 28.565265000000025,
          "velocity": 0.5905511811023622,
          "duration": 0.2608700000000006
        },
        {
          "name": "C3",
          "midi": 48,
          "time": 28.565265000000025,
          "velocity": 0.5905511811023622,
          "duration": 0.2608700000000006
        },
        {
          "name": "C2",
          "midi": 36,
          "time": 28.826135000000026,
          "velocity": 0.6062992125984252,
          "duration": 0.13043499999999852
        },
        {
          "name": "C3",
          "midi": 48,
          "time": 28.826135000000026,
          "velocity": 0.6062992125984252,
          "duration": 0.13043499999999852
        },
        {
          "name": "C2",
          "midi": 36,
          "time": 28.956570000000024,
          "velocity": 0.5905511811023622,
          "duration": 0.2608700000000006
        },
        {
          "name": "C3",
          "midi": 48,
          "time": 28.956570000000024,
          "velocity": 0.5905511811023622,
          "duration": 0.2608700000000006
        },
        {
          "name": "B1",
          "midi": 35,
          "time": 29.217440000000025,
          "velocity": 0.5590551181102362,
          "duration": 0.2608700000000006
        },
        {
          "name": "B2",
          "midi": 47,
          "time": 29.217440000000025,
          "velocity": 0.5590551181102362,
          "duration": 0.2608700000000006
        },
        {
          "name": "B1",
          "midi": 35,
          "time": 29.478310000000025,
          "velocity": 0.6220472440944882,
          "duration": 0.2608700000000006
        },
        {
          "name": "B2",
          "midi": 47,
          "time": 29.478310000000025,
          "velocity": 0.6220472440944882,
          "duration": 0.2608700000000006
        },
        {
          "name": "B1",
          "midi": 35,
          "time": 29.739180000000026,
          "velocity": 0.5905511811023622,
          "duration": 0.13043499999999852
        },
        {
          "name": "B2",
          "midi": 47,
          "time": 29.739180000000026,
          "velocity": 0.5905511811023622,
          "duration": 0.13043499999999852
        },
        {
          "name": "B2",
          "midi": 47,
          "time": 29.869615000000024,
          "velocity": 0.6062992125984252,
          "duration": 0.2608700000000006
        },
        {
          "name": "B1",
          "midi": 35,
          "time": 29.869615000000024,
          "velocity": 0.6062992125984252,
          "duration": 0.2608700000000006
        },
        {
          "name": "B1",
          "midi": 35,
          "time": 30.130485000000025,
          "velocity": 0.6141732283464567,
          "duration": 0.2608700000000006
        },
        {
          "name": "B2",
          "midi": 47,
          "time": 30.130485000000025,
          "velocity": 0.6141732283464567,
          "duration": 0.2608700000000006
        },
        {
          "name": "B2",
          "midi": 47,
          "time": 30.391355000000026,
          "velocity": 0.5905511811023622,
          "duration": 0.2608700000000006
        },
        {
          "name": "B1",
          "midi": 35,
          "time": 30.391355000000026,
          "velocity": 0.5905511811023622,
          "duration": 0.2608700000000006
        },
        {
          "name": "B1",
          "midi": 35,
          "time": 30.652225000000026,
          "velocity": 0.5748031496062992,
          "duration": 0.2608700000000006
        },
        {
          "name": "B2",
          "midi": 47,
          "time": 30.652225000000026,
          "velocity": 0.5748031496062992,
          "duration": 0.2608700000000006
        },
        {
          "name": "B2",
          "midi": 47,
          "time": 30.913095000000027,
          "velocity": 0.5826771653543307,
          "duration": 0.13043499999999852
        },
        {
          "name": "B1",
          "midi": 35,
          "time": 30.913095000000027,
          "velocity": 0.5826771653543307,
          "duration": 0.13043499999999852
        },
        {
          "name": "B1",
          "midi": 35,
          "time": 31.043530000000025,
          "velocity": 0.5984251968503937,
          "duration": 0.2608700000000006
        },
        {
          "name": "B2",
          "midi": 47,
          "time": 31.043530000000025,
          "velocity": 0.5984251968503937,
          "duration": 0.2608700000000006
        },
        {
          "name": "A#1",
          "midi": 34,
          "time": 31.304400000000026,
          "velocity": 0.6220472440944882,
          "duration": 0.2608700000000006
        },
        {
          "name": "A#2",
          "midi": 46,
          "time": 31.304400000000026,
          "velocity": 0.6220472440944882,
          "duration": 0.2608700000000006
        },
        {
          "name": "A#1",
          "midi": 34,
          "time": 31.565270000000027,
          "velocity": 0.5905511811023622,
          "duration": 0.2608700000000006
        },
        {
          "name": "A#2",
          "midi": 46,
          "time": 31.565270000000027,
          "velocity": 0.5905511811023622,
          "duration": 0.2608700000000006
        },
        {
          "name": "A#1",
          "midi": 34,
          "time": 31.826140000000027,
          "velocity": 0.5905511811023622,
          "duration": 0.13043499999999852
        },
        {
          "name": "A#2",
          "midi": 46,
          "time": 31.826140000000027,
          "velocity": 0.5905511811023622,
          "duration": 0.13043499999999852
        },
        {
          "name": "A#2",
          "midi": 46,
          "time": 31.956575000000026,
          "velocity": 0.6062992125984252,
          "duration": 0.2608700000000006
        },
        {
          "name": "A#1",
          "midi": 34,
          "time": 31.956575000000026,
          "velocity": 0.6062992125984252,
          "duration": 0.2608700000000006
        },
        {
          "name": "C2",
          "midi": 36,
          "time": 32.217445000000026,
          "velocity": 0.6377952755905512,
          "duration": 0.26086999999999705
        },
        {
          "name": "C3",
          "midi": 48,
          "time": 32.217445000000026,
          "velocity": 0.6377952755905512,
          "duration": 0.26086999999999705
        },
        {
          "name": "C3",
          "midi": 48,
          "time": 32.47831500000002,
          "velocity": 0.5905511811023622,
          "duration": 0.26086999999999705
        },
        {
          "name": "C2",
          "midi": 36,
          "time": 32.47831500000002,
          "velocity": 0.5905511811023622,
          "duration": 0.26086999999999705
        },
        {
          "name": "C2",
          "midi": 36,
          "time": 32.73918500000002,
          "velocity": 0.6220472440944882,
          "duration": 0.26086999999999705
        },
        {
          "name": "C3",
          "midi": 48,
          "time": 32.73918500000002,
          "velocity": 0.6220472440944882,
          "duration": 0.26086999999999705
        },
        {
          "name": "C3",
          "midi": 48,
          "time": 33.00005500000002,
          "velocity": 0.6220472440944882,
          "duration": 0.13043499999999852
        },
        {
          "name": "C2",
          "midi": 36,
          "time": 33.00005500000002,
          "velocity": 0.6220472440944882,
          "duration": 0.13043499999999852
        },
        {
          "name": "C2",
          "midi": 36,
          "time": 33.130490000000016,
          "velocity": 0.6299212598425197,
          "duration": 0.26086999999999705
        },
        {
          "name": "C3",
          "midi": 48,
          "time": 33.130490000000016,
          "velocity": 0.6299212598425197,
          "duration": 0.26086999999999705
        },
        {
          "name": "A3",
          "midi": 57,
          "time": 33.39136000000001,
          "velocity": 0.6535433070866141,
          "duration": 0.26086999999999705
        },
        {
          "name": "D3",
          "midi": 50,
          "time": 33.39136000000001,
          "velocity": 0.6535433070866141,
          "duration": 0.26086999999999705
        },
        {
          "name": "D3",
          "midi": 50,
          "time": 33.65223000000001,
          "velocity": 0.6062992125984252,
          "duration": 0.26086999999999705
        },
        {
          "name": "A3",
          "midi": 57,
          "time": 33.65223000000001,
          "velocity": 0.6062992125984252,
          "duration": 0.26086999999999705
        },
        {
          "name": "A3",
          "midi": 57,
          "time": 33.91310000000001,
          "velocity": 0.5826771653543307,
          "duration": 0.13043499999999852
        },
        {
          "name": "D3",
          "midi": 50,
          "time": 33.91310000000001,
          "velocity": 0.5826771653543307,
          "duration": 0.13043499999999852
        },
        {
          "name": "D3",
          "midi": 50,
          "time": 34.043535000000006,
          "velocity": 0.6299212598425197,
          "duration": 0.26086999999999705
        },
        {
          "name": "A3",
          "midi": 57,
          "time": 34.043535000000006,
          "velocity": 0.6299212598425197,
          "duration": 0.26086999999999705
        },
        {
          "name": "D3",
          "midi": 50,
          "time": 34.304405,
          "velocity": 0.6377952755905512,
          "duration": 0.26086999999999705
        },
        {
          "name": "A3",
          "midi": 57,
          "time": 34.304405,
          "velocity": 0.6377952755905512,
          "duration": 0.26086999999999705
        },
        {
          "name": "A3",
          "midi": 57,
          "time": 34.565275,
          "velocity": 0.5984251968503937,
          "duration": 0.26086999999999705
        },
        {
          "name": "D3",
          "midi": 50,
          "time": 34.565275,
          "velocity": 0.5984251968503937,
          "duration": 0.26086999999999705
        },
        {
          "name": "A3",
          "midi": 57,
          "time": 34.826145,
          "velocity": 0.5905511811023622,
          "duration": 0.26086999999999705
        },
        {
          "name": "D3",
          "midi": 50,
          "time": 34.826145,
          "velocity": 0.5905511811023622,
          "duration": 0.26086999999999705
        },
        {
          "name": "D3",
          "midi": 50,
          "time": 35.087014999999994,
          "velocity": 0.5984251968503937,
          "duration": 0.13043499999999852
        },
        {
          "name": "A3",
          "midi": 57,
          "time": 35.087014999999994,
          "velocity": 0.5984251968503937,
          "duration": 0.13043499999999852
        },
        {
          "name": "D3",
          "midi": 50,
          "time": 35.21744999999999,
          "velocity": 0.5748031496062992,
          "duration": 0.26086999999999705
        },
        {
          "name": "A3",
          "midi": 57,
          "time": 35.21744999999999,
          "velocity": 0.5748031496062992,
          "duration": 0.26086999999999705
        },
        {
          "name": "G3",
          "midi": 55,
          "time": 35.47831999999999,
          "velocity": 0.6062992125984252,
          "duration": 0.26086999999999705
        },
        {
          "name": "C3",
          "midi": 48,
          "time": 35.47831999999999,
          "velocity": 0.6062992125984252,
          "duration": 0.26086999999999705
        },
        {
          "name": "C3",
          "midi": 48,
          "time": 35.73918999999999,
          "velocity": 0.5905511811023622,
          "duration": 0.26086999999999705
        },
        {
          "name": "G3",
          "midi": 55,
          "time": 35.73918999999999,
          "velocity": 0.5905511811023622,
          "duration": 0.26086999999999705
        },
        {
          "name": "C3",
          "midi": 48,
          "time": 36.00005999999998,
          "velocity": 0.6220472440944882,
          "duration": 0.13043499999999852
        },
        {
          "name": "G3",
          "midi": 55,
          "time": 36.00005999999998,
          "velocity": 0.6220472440944882,
          "duration": 0.13043499999999852
        },
        {
          "name": "C3",
          "midi": 48,
          "time": 36.13049499999998,
          "velocity": 0.6220472440944882,
          "duration": 0.26086999999999705
        },
        {
          "name": "G3",
          "midi": 55,
          "time": 36.13049499999998,
          "velocity": 0.6220472440944882,
          "duration": 0.26086999999999705
        },
        {
          "name": "G3",
          "midi": 55,
          "time": 36.39136499999998,
          "velocity": 0.6456692913385826,
          "duration": 0.26086999999999705
        },
        {
          "name": "C3",
          "midi": 48,
          "time": 36.39136499999998,
          "velocity": 0.6456692913385826,
          "duration": 0.26086999999999705
        },
        {
          "name": "C3",
          "midi": 48,
          "time": 36.652234999999976,
          "velocity": 0.5905511811023622,
          "duration": 0.26086999999999705
        },
        {
          "name": "G3",
          "midi": 55,
          "time": 36.652234999999976,
          "velocity": 0.5905511811023622,
          "duration": 0.26086999999999705
        },
        {
          "name": "C3",
          "midi": 48,
          "time": 36.91310499999997,
          "velocity": 0.5984251968503937,
          "duration": 0.26086999999999705
        },
        {
          "name": "G3",
          "midi": 55,
          "time": 36.91310499999997,
          "velocity": 0.5984251968503937,
          "duration": 0.26086999999999705
        },
        {
          "name": "G3",
          "midi": 55,
          "time": 37.17397499999997,
          "velocity": 0.5590551181102362,
          "duration": 0.13043499999999852
        },
        {
          "name": "C3",
          "midi": 48,
          "time": 37.17397499999997,
          "velocity": 0.5590551181102362,
          "duration": 0.13043499999999852
        },
        {
          "name": "C3",
          "midi": 48,
          "time": 37.30440999999997,
          "velocity": 0.5984251968503937,
          "duration": 0.26086999999999705
        },
        {
          "name": "G3",
          "midi": 55,
          "time": 37.30440999999997,
          "velocity": 0.5984251968503937,
          "duration": 0.26086999999999705
        },
        {
          "name": "B2",
          "midi": 47,
          "time": 37.565279999999966,
          "velocity": 0.6062992125984252,
          "duration": 0.26086999999999705
        },
        {
          "name": "G3",
          "midi": 55,
          "time": 37.565279999999966,
          "velocity": 0.6062992125984252,
          "duration": 0.26086999999999705
        },
        {
          "name": "B2",
          "midi": 47,
          "time": 37.82614999999996,
          "velocity": 0.5826771653543307,
          "duration": 0.26086999999999705
        },
        {
          "name": "G3",
          "midi": 55,
          "time": 37.82614999999996,
          "velocity": 0.5826771653543307,
          "duration": 0.26086999999999705
        },
        {
          "name": "B2",
          "midi": 47,
          "time": 38.08701999999996,
          "velocity": 0.6062992125984252,
          "duration": 0.13043499999999852
        },
        {
          "name": "G3",
          "midi": 55,
          "time": 38.08701999999996,
          "velocity": 0.6062992125984252,
          "duration": 0.13043499999999852
        },
        {
          "name": "G3",
          "midi": 55,
          "time": 38.21745499999996,
          "velocity": 0.6062992125984252,
          "duration": 0.26086999999999705
        },
        {
          "name": "B2",
          "midi": 47,
          "time": 38.21745499999996,
          "velocity": 0.6062992125984252,
          "duration": 0.26086999999999705
        },
        {
          "name": "G3",
          "midi": 55,
          "time": 38.478324999999955,
          "velocity": 0.6299212598425197,
          "duration": 0.26086999999999705
        },
        {
          "name": "B2",
          "midi": 47,
          "time": 38.478324999999955,
          "velocity": 0.6299212598425197,
          "duration": 0.26086999999999705
        },
        {
          "name": "B2",
          "midi": 47,
          "time": 38.73919499999995,
          "velocity": 0.6299212598425197,
          "duration": 0.26086999999999705
        },
        {
          "name": "G3",
          "midi": 55,
          "time": 38.73919499999995,
          "velocity": 0.6299212598425197,
          "duration": 0.26086999999999705
        },
        {
          "name": "G3",
          "midi": 55,
          "time": 39.00006499999995,
          "velocity": 0.5748031496062992,
          "duration": 0.26086999999999705
        },
        {
          "name": "B2",
          "midi": 47,
          "time": 39.00006499999995,
          "velocity": 0.5748031496062992,
          "duration": 0.26086999999999705
        },
        {
          "name": "B2",
          "midi": 47,
          "time": 39.26093499999995,
          "velocity": 0.5905511811023622,
          "duration": 0.13043499999999852
        },
        {
          "name": "G3",
          "midi": 55,
          "time": 39.26093499999995,
          "velocity": 0.5905511811023622,
          "duration": 0.13043499999999852
        },
        {
          "name": "B2",
          "midi": 47,
          "time": 39.391369999999945,
          "velocity": 0.6141732283464567,
          "duration": 0.26086999999999705
        },
        {
          "name": "G3",
          "midi": 55,
          "time": 39.391369999999945,
          "velocity": 0.6141732283464567,
          "duration": 0.26086999999999705
        },
        {
          "name": "A#2",
          "midi": 46,
          "time": 39.65223999999994,
          "velocity": 0.5669291338582677,
          "duration": 0.26086999999999705
        },
        {
          "name": "F3",
          "midi": 53,
          "time": 39.65223999999994,
          "velocity": 0.5669291338582677,
          "duration": 0.26086999999999705
        },
        {
          "name": "A#2",
          "midi": 46,
          "time": 39.91310999999994,
          "velocity": 0.5905511811023622,
          "duration": 0.26086999999999705
        },
        {
          "name": "F3",
          "midi": 53,
          "time": 39.91310999999994,
          "velocity": 0.5905511811023622,
          "duration": 0.26086999999999705
        },
        {
          "name": "A#2",
          "midi": 46,
          "time": 40.173979999999936,
          "velocity": 0.6141732283464567,
          "duration": 0.13043499999999852
        },
        {
          "name": "F3",
          "midi": 53,
          "time": 40.173979999999936,
          "velocity": 0.6141732283464567,
          "duration": 0.13043499999999852
        },
        {
          "name": "F3",
          "midi": 53,
          "time": 40.304414999999935,
          "velocity": 0.6141732283464567,
          "duration": 0.26086999999999705
        },
        {
          "name": "A#2",
          "midi": 46,
          "time": 40.304414999999935,
          "velocity": 0.6141732283464567,
          "duration": 0.26086999999999705
        },
        {
          "name": "G3",
          "midi": 55,
          "time": 40.56528499999993,
          "velocity": 0.6299212598425197,
          "duration": 0.26086999999999705
        },
        {
          "name": "C3",
          "midi": 48,
          "time": 40.56528499999993,
          "velocity": 0.6299212598425197,
          "duration": 0.26086999999999705
        },
        {
          "name": "G3",
          "midi": 55,
          "time": 40.82615499999993,
          "velocity": 0.6062992125984252,
          "duration": 0.26086999999999705
        },
        {
          "name": "C3",
          "midi": 48,
          "time": 40.82615499999993,
          "velocity": 0.6062992125984252,
          "duration": 0.26086999999999705
        },
        {
          "name": "G3",
          "midi": 55,
          "time": 41.087024999999926,
          "velocity": 0.5984251968503937,
          "duration": 0.26086999999999705
        },
        {
          "name": "C3",
          "midi": 48,
          "time": 41.087024999999926,
          "velocity": 0.5984251968503937,
          "duration": 0.26086999999999705
        },
        {
          "name": "G3",
          "midi": 55,
          "time": 41.34789499999992,
          "velocity": 0.6062992125984252,
          "duration": 0.13043499999999852
        },
        {
          "name": "C3",
          "midi": 48,
          "time": 41.34789499999992,
          "velocity": 0.6062992125984252,
          "duration": 0.13043499999999852
        },
        {
          "name": "C3",
          "midi": 48,
          "time": 41.47832999999992,
          "velocity": 0.6062992125984252,
          "duration": 0.26086999999999705
        },
        {
          "name": "G3",
          "midi": 55,
          "time": 41.47832999999992,
          "velocity": 0.6062992125984252,
          "duration": 0.26086999999999705
        },
        {
          "name": "D3",
          "midi": 50,
          "time": 41.73919999999992,
          "velocity": 0.6220472440944882,
          "duration": 0.26086999999999705
        },
        {
          "name": "A3",
          "midi": 57,
          "time": 41.73919999999992,
          "velocity": 0.6220472440944882,
          "duration": 0.26086999999999705
        },
        {
          "name": "A3",
          "midi": 57,
          "time": 42.000069999999916,
          "velocity": 0.5748031496062992,
          "duration": 0.26086999999999705
        },
        {
          "name": "D3",
          "midi": 50,
          "time": 42.000069999999916,
          "velocity": 0.5748031496062992,
          "duration": 0.26086999999999705
        },
        {
          "name": "A3",
          "midi": 57,
          "time": 42.26093999999991,
          "velocity": 0.5905511811023622,
          "duration": 0.13043499999999852
        },
        {
          "name": "D3",
          "midi": 50,
          "time": 42.26093999999991,
          "velocity": 0.5905511811023622,
          "duration": 0.13043499999999852
        },
        {
          "name": "D3",
          "midi": 50,
          "time": 42.39137499999991,
          "velocity": 0.5905511811023622,
          "duration": 0.26086999999999705
        },
        {
          "name": "A3",
          "midi": 57,
          "time": 42.39137499999991,
          "velocity": 0.5905511811023622,
          "duration": 0.26086999999999705
        },
        {
          "name": "D3",
          "midi": 50,
          "time": 42.65224499999991,
          "velocity": 0.6456692913385826,
          "duration": 0.26086999999999705
        },
        {
          "name": "A3",
          "midi": 57,
          "time": 42.65224499999991,
          "velocity": 0.6456692913385826,
          "duration": 0.26086999999999705
        },
        {
          "name": "D3",
          "midi": 50,
          "time": 42.913114999999905,
          "velocity": 0.6141732283464567,
          "duration": 0.26086999999999705
        },
        {
          "name": "A3",
          "midi": 57,
          "time": 42.913114999999905,
          "velocity": 0.6141732283464567,
          "duration": 0.26086999999999705
        },
        {
          "name": "D3",
          "midi": 50,
          "time": 43.1739849999999,
          "velocity": 0.6220472440944882,
          "duration": 0.26086999999999705
        },
        {
          "name": "A3",
          "midi": 57,
          "time": 43.1739849999999,
          "velocity": 0.6220472440944882,
          "duration": 0.26086999999999705
        },
        {
          "name": "D3",
          "midi": 50,
          "time": 43.4348549999999,
          "velocity": 0.5826771653543307,
          "duration": 0.13043499999999852
        },
        {
          "name": "A3",
          "midi": 57,
          "time": 43.4348549999999,
          "velocity": 0.5826771653543307,
          "duration": 0.13043499999999852
        },
        {
          "name": "A3",
          "midi": 57,
          "time": 43.5652899999999,
          "velocity": 0.5984251968503937,
          "duration": 0.26086999999999705
        },
        {
          "name": "D3",
          "midi": 50,
          "time": 43.5652899999999,
          "velocity": 0.5984251968503937,
          "duration": 0.26086999999999705
        },
        {
          "name": "G3",
          "midi": 55,
          "time": 43.826159999999895,
          "velocity": 0.5748031496062992,
          "duration": 0.26086999999999705
        },
        {
          "name": "C3",
          "midi": 48,
          "time": 43.826159999999895,
          "velocity": 0.5748031496062992,
          "duration": 0.26086999999999705
        },
        {
          "name": "G3",
          "midi": 55,
          "time": 44.08702999999989,
          "velocity": 0.5984251968503937,
          "duration": 0.26086999999999705
        },
        {
          "name": "C3",
          "midi": 48,
          "time": 44.08702999999989,
          "velocity": 0.5984251968503937,
          "duration": 0.26086999999999705
        },
        {
          "name": "G3",
          "midi": 55,
          "time": 44.34789999999989,
          "velocity": 0.5826771653543307,
          "duration": 0.13043499999999852
        },
        {
          "name": "C3",
          "midi": 48,
          "time": 44.34789999999989,
          "velocity": 0.5826771653543307,
          "duration": 0.13043499999999852
        },
        {
          "name": "C3",
          "midi": 48,
          "time": 44.47833499999989,
          "velocity": 0.6220472440944882,
          "duration": 0.26086999999999705
        },
        {
          "name": "G3",
          "midi": 55,
          "time": 44.47833499999989,
          "velocity": 0.6220472440944882,
          "duration": 0.26086999999999705
        },
        {
          "name": "C3",
          "midi": 48,
          "time": 44.739204999999885,
          "velocity": 0.5984251968503937,
          "duration": 0.26086999999999705
        },
        {
          "name": "G3",
          "midi": 55,
          "time": 44.739204999999885,
          "velocity": 0.5984251968503937,
          "duration": 0.26086999999999705
        },
        {
          "name": "C3",
          "midi": 48,
          "time": 45.00007499999988,
          "velocity": 0.6299212598425197,
          "duration": 0.26086999999999705
        },
        {
          "name": "G3",
          "midi": 55,
          "time": 45.00007499999988,
          "velocity": 0.6299212598425197,
          "duration": 0.26086999999999705
        },
        {
          "name": "C3",
          "midi": 48,
          "time": 45.26094499999988,
          "velocity": 0.6062992125984252,
          "duration": 0.26086999999999705
        },
        {
          "name": "G3",
          "midi": 55,
          "time": 45.26094499999988,
          "velocity": 0.6062992125984252,
          "duration": 0.26086999999999705
        },
        {
          "name": "C3",
          "midi": 48,
          "time": 45.521814999999876,
          "velocity": 0.6062992125984252,
          "duration": 0.13043499999999852
        },
        {
          "name": "G3",
          "midi": 55,
          "time": 45.521814999999876,
          "velocity": 0.6062992125984252,
          "duration": 0.13043499999999852
        },
        {
          "name": "G3",
          "midi": 55,
          "time": 45.652249999999874,
          "velocity": 0.5905511811023622,
          "duration": 0.26086999999999705
        },
        {
          "name": "C3",
          "midi": 48,
          "time": 45.652249999999874,
          "velocity": 0.5905511811023622,
          "duration": 0.26086999999999705
        },
        {
          "name": "G3",
          "midi": 55,
          "time": 45.91311999999987,
          "velocity": 0.5826771653543307,
          "duration": 0.26086999999999705
        },
        {
          "name": "B2",
          "midi": 47,
          "time": 45.91311999999987,
          "velocity": 0.5826771653543307,
          "duration": 0.26086999999999705
        },
        {
          "name": "G3",
          "midi": 55,
          "time": 46.17398999999987,
          "velocity": 0.6141732283464567,
          "duration": 0.26086999999999705
        },
        {
          "name": "B2",
          "midi": 47,
          "time": 46.17398999999987,
          "velocity": 0.6141732283464567,
          "duration": 0.26086999999999705
        },
        {
          "name": "G3",
          "midi": 55,
          "time": 46.434859999999865,
          "velocity": 0.5984251968503937,
          "duration": 0.13043499999999852
        },
        {
          "name": "B2",
          "midi": 47,
          "time": 46.434859999999865,
          "velocity": 0.5984251968503937,
          "duration": 0.13043499999999852
        },
        {
          "name": "G3",
          "midi": 55,
          "time": 46.565294999999864,
          "velocity": 0.6614173228346457,
          "duration": 0.26086999999999705
        },
        {
          "name": "B2",
          "midi": 47,
          "time": 46.565294999999864,
          "velocity": 0.6614173228346457,
          "duration": 0.26086999999999705
        },
        {
          "name": "G3",
          "midi": 55,
          "time": 46.82616499999986,
          "velocity": 0.5905511811023622,
          "duration": 0.26086999999999705
        },
        {
          "name": "B2",
          "midi": 47,
          "time": 46.82616499999986,
          "velocity": 0.5905511811023622,
          "duration": 0.26086999999999705
        },
        {
          "name": "G3",
          "midi": 55,
          "time": 47.08703499999986,
          "velocity": 0.6141732283464567,
          "duration": 0.26086999999999705
        },
        {
          "name": "B2",
          "midi": 47,
          "time": 47.08703499999986,
          "velocity": 0.6141732283464567,
          "duration": 0.26086999999999705
        },
        {
          "name": "G3",
          "midi": 55,
          "time": 47.347904999999855,
          "velocity": 0.6062992125984252,
          "duration": 0.26086999999999705
        },
        {
          "name": "B2",
          "midi": 47,
          "time": 47.347904999999855,
          "velocity": 0.6062992125984252,
          "duration": 0.26086999999999705
        },
        {
          "name": "G3",
          "midi": 55,
          "time": 47.60877499999985,
          "velocity": 0.5984251968503937,
          "duration": 0.13043499999999852
        },
        {
          "name": "B2",
          "midi": 47,
          "time": 47.60877499999985,
          "velocity": 0.5984251968503937,
          "duration": 0.13043499999999852
        },
        {
          "name": "G3",
          "midi": 55,
          "time": 47.73920999999985,
          "velocity": 0.5905511811023622,
          "duration": 0.26086999999999705
        },
        {
          "name": "B2",
          "midi": 47,
          "time": 47.73920999999985,
          "velocity": 0.5905511811023622,
          "duration": 0.26086999999999705
        },
        {
          "name": "F3",
          "midi": 53,
          "time": 48.00007999999985,
          "velocity": 0.6299212598425197,
          "duration": 0.26086999999999705
        },
        {
          "name": "A#2",
          "midi": 46,
          "time": 48.00007999999985,
          "velocity": 0.6299212598425197,
          "duration": 0.26086999999999705
        },
        {
          "name": "F3",
          "midi": 53,
          "time": 48.260949999999845,
          "velocity": 0.5826771653543307,
          "duration": 0.26086999999999705
        },
        {
          "name": "A#2",
          "midi": 46,
          "time": 48.260949999999845,
          "velocity": 0.5826771653543307,
          "duration": 0.26086999999999705
        },
        {
          "name": "F3",
          "midi": 53,
          "time": 48.52181999999984,
          "velocity": 0.5905511811023622,
          "duration": 0.13043499999999852
        },
        {
          "name": "A#2",
          "midi": 46,
          "time": 48.52181999999984,
          "velocity": 0.5905511811023622,
          "duration": 0.13043499999999852
        },
        {
          "name": "F3",
          "midi": 53,
          "time": 48.65225499999984,
          "velocity": 0.5905511811023622,
          "duration": 0.26086999999999705
        },
        {
          "name": "A#2",
          "midi": 46,
          "time": 48.65225499999984,
          "velocity": 0.5905511811023622,
          "duration": 0.26086999999999705
        },
        {
          "name": "G3",
          "midi": 55,
          "time": 48.91312499999984,
          "velocity": 0.6141732283464567,
          "duration": 0.26086999999999705
        },
        {
          "name": "C3",
          "midi": 48,
          "time": 48.91312499999984,
          "velocity": 0.6141732283464567,
          "duration": 0.26086999999999705
        },
        {
          "name": "C3",
          "midi": 48,
          "time": 49.173994999999834,
          "velocity": 0.5984251968503937,
          "duration": 0.26086999999999705
        },
        {
          "name": "G3",
          "midi": 55,
          "time": 49.173994999999834,
          "velocity": 0.5984251968503937,
          "duration": 0.26086999999999705
        },
        {
          "name": "G3",
          "midi": 55,
          "time": 49.43486499999983,
          "velocity": 0.5905511811023622,
          "duration": 0.26086999999999705
        },
        {
          "name": "C3",
          "midi": 48,
          "time": 49.43486499999983,
          "velocity": 0.5905511811023622,
          "duration": 0.26086999999999705
        },
        {
          "name": "C3",
          "midi": 48,
          "time": 49.69573499999983,
          "velocity": 0.5669291338582677,
          "duration": 0.13043499999999852
        },
        {
          "name": "G3",
          "midi": 55,
          "time": 49.69573499999983,
          "velocity": 0.5669291338582677,
          "duration": 0.13043499999999852
        },
        {
          "name": "C3",
          "midi": 48,
          "time": 49.82616999999983,
          "velocity": 0.5590551181102362,
          "duration": 0.26086999999999705
        },
        {
          "name": "G3",
          "midi": 55,
          "time": 49.82616999999983,
          "velocity": 0.5590551181102362,
          "duration": 0.26086999999999705
        },
        {
          "name": "F3",
          "midi": 53,
          "time": 50.087039999999824,
          "velocity": 0.5748031496062992,
          "duration": 0.26086999999999705
        },
        {
          "name": "A#2",
          "midi": 46,
          "time": 50.087039999999824,
          "velocity": 0.5748031496062992,
          "duration": 0.26086999999999705
        },
        {
          "name": "F3",
          "midi": 53,
          "time": 50.34790999999982,
          "velocity": 0.5984251968503937,
          "duration": 0.26086999999999705
        },
        {
          "name": "A#2",
          "midi": 46,
          "time": 50.34790999999982,
          "velocity": 0.5984251968503937,
          "duration": 0.26086999999999705
        },
        {
          "name": "F3",
          "midi": 53,
          "time": 50.60877999999982,
          "velocity": 0.6220472440944882,
          "duration": 0.13043499999999852
        },
        {
          "name": "A#2",
          "midi": 46,
          "time": 50.60877999999982,
          "velocity": 0.6220472440944882,
          "duration": 0.13043499999999852
        },
        {
          "name": "F3",
          "midi": 53,
          "time": 50.73921499999982,
          "velocity": 0.5984251968503937,
          "duration": 0.26086999999999705
        },
        {
          "name": "A#2",
          "midi": 46,
          "time": 50.73921499999982,
          "velocity": 0.5984251968503937,
          "duration": 0.26086999999999705
        },
        {
          "name": "F3",
          "midi": 53,
          "time": 51.000084999999814,
          "velocity": 0.5984251968503937,
          "duration": 0.26086999999999705
        },
        {
          "name": "A#2",
          "midi": 46,
          "time": 51.000084999999814,
          "velocity": 0.5984251968503937,
          "duration": 0.26086999999999705
        },
        {
          "name": "F3",
          "midi": 53,
          "time": 51.26095499999981,
          "velocity": 0.5984251968503937,
          "duration": 0.26086999999999705
        },
        {
          "name": "A#2",
          "midi": 46,
          "time": 51.26095499999981,
          "velocity": 0.5984251968503937,
          "duration": 0.26086999999999705
        },
        {
          "name": "F3",
          "midi": 53,
          "time": 51.52182499999981,
          "velocity": 0.6141732283464567,
          "duration": 0.26086999999999705
        },
        {
          "name": "A#2",
          "midi": 46,
          "time": 51.52182499999981,
          "velocity": 0.6141732283464567,
          "duration": 0.26086999999999705
        },
        {
          "name": "F3",
          "midi": 53,
          "time": 51.782694999999805,
          "velocity": 0.6141732283464567,
          "duration": 0.13043499999999852
        },
        {
          "name": "A#2",
          "midi": 46,
          "time": 51.782694999999805,
          "velocity": 0.6141732283464567,
          "duration": 0.13043499999999852
        },
        {
          "name": "F3",
          "midi": 53,
          "time": 51.9131299999998,
          "velocity": 0.6062992125984252,
          "duration": 0.26086999999999705
        },
        {
          "name": "A#2",
          "midi": 46,
          "time": 51.9131299999998,
          "velocity": 0.6062992125984252,
          "duration": 0.26086999999999705
        },
        {
          "name": "G3",
          "midi": 55,
          "time": 52.1739999999998,
          "velocity": 0.6220472440944882,
          "duration": 0.26086999999999705
        },
        {
          "name": "C3",
          "midi": 48,
          "time": 52.1739999999998,
          "velocity": 0.6220472440944882,
          "duration": 0.26086999999999705
        },
        {
          "name": "G3",
          "midi": 55,
          "time": 52.4348699999998,
          "velocity": 0.5590551181102362,
          "duration": 0.26086999999999705
        },
        {
          "name": "C3",
          "midi": 48,
          "time": 52.4348699999998,
          "velocity": 0.5590551181102362,
          "duration": 0.26086999999999705
        },
        {
          "name": "G3",
          "midi": 55,
          "time": 52.695739999999795,
          "velocity": 0.6141732283464567,
          "duration": 0.13043499999999852
        },
        {
          "name": "C3",
          "midi": 48,
          "time": 52.695739999999795,
          "velocity": 0.6141732283464567,
          "duration": 0.13043499999999852
        },
        {
          "name": "G3",
          "midi": 55,
          "time": 52.82617499999979,
          "velocity": 0.6141732283464567,
          "duration": 0.26086999999999705
        },
        {
          "name": "C3",
          "midi": 48,
          "time": 52.82617499999979,
          "velocity": 0.6141732283464567,
          "duration": 0.26086999999999705
        },
        {
          "name": "G3",
          "midi": 55,
          "time": 53.08704499999979,
          "velocity": 0.5748031496062992,
          "duration": 0.26086999999999705
        },
        {
          "name": "C3",
          "midi": 48,
          "time": 53.08704499999979,
          "velocity": 0.5748031496062992,
          "duration": 0.26086999999999705
        },
        {
          "name": "G3",
          "midi": 55,
          "time": 53.34791499999979,
          "velocity": 0.5748031496062992,
          "duration": 0.26086999999999705
        },
        {
          "name": "C3",
          "midi": 48,
          "time": 53.34791499999979,
          "velocity": 0.5748031496062992,
          "duration": 0.26086999999999705
        },
        {
          "name": "G3",
          "midi": 55,
          "time": 53.608784999999784,
          "velocity": 0.6062992125984252,
          "duration": 0.26086999999999705
        },
        {
          "name": "C3",
          "midi": 48,
          "time": 53.608784999999784,
          "velocity": 0.6062992125984252,
          "duration": 0.26086999999999705
        },
        {
          "name": "G3",
          "midi": 55,
          "time": 53.86965499999978,
          "velocity": 0.5511811023622047,
          "duration": 0.13043499999999852
        },
        {
          "name": "C3",
          "midi": 48,
          "time": 53.86965499999978,
          "velocity": 0.5511811023622047,
          "duration": 0.13043499999999852
        },
        {
          "name": "G3",
          "midi": 55,
          "time": 54.00008999999978,
          "velocity": 0.5826771653543307,
          "duration": 0.26086999999999705
        },
        {
          "name": "C3",
          "midi": 48,
          "time": 54.00008999999978,
          "velocity": 0.5826771653543307,
          "duration": 0.26086999999999705
        },
        {
          "name": "A3",
          "midi": 57,
          "time": 54.26095999999978,
          "velocity": 0.6614173228346457,
          "duration": 0.26086999999999705
        },
        {
          "name": "D3",
          "midi": 50,
          "time": 54.26095999999978,
          "velocity": 0.6614173228346457,
          "duration": 0.26086999999999705
        },
        {
          "name": "A3",
          "midi": 57,
          "time": 54.521829999999774,
          "velocity": 0.5984251968503937,
          "duration": 0.26086999999999705
        },
        {
          "name": "D3",
          "midi": 50,
          "time": 54.521829999999774,
          "velocity": 0.5984251968503937,
          "duration": 0.26086999999999705
        },
        {
          "name": "A3",
          "midi": 57,
          "time": 54.78269999999977,
          "velocity": 0.5669291338582677,
          "duration": 0.13043499999999852
        },
        {
          "name": "D3",
          "midi": 50,
          "time": 54.78269999999977,
          "velocity": 0.5669291338582677,
          "duration": 0.13043499999999852
        },
        {
          "name": "A3",
          "midi": 57,
          "time": 54.91313499999977,
          "velocity": 0.6141732283464567,
          "duration": 0.26086999999999705
        },
        {
          "name": "D3",
          "midi": 50,
          "time": 54.91313499999977,
          "velocity": 0.6141732283464567,
          "duration": 0.26086999999999705
        },
        {
          "name": "A3",
          "midi": 57,
          "time": 55.17400499999977,
          "velocity": 0.6062992125984252,
          "duration": 0.26086999999999705
        },
        {
          "name": "D3",
          "midi": 50,
          "time": 55.17400499999977,
          "velocity": 0.6062992125984252,
          "duration": 0.26086999999999705
        },
        {
          "name": "A3",
          "midi": 57,
          "time": 55.434874999999764,
          "velocity": 0.5984251968503937,
          "duration": 0.26086999999999705
        },
        {
          "name": "D3",
          "midi": 50,
          "time": 55.434874999999764,
          "velocity": 0.5984251968503937,
          "duration": 0.26086999999999705
        },
        {
          "name": "A3",
          "midi": 57,
          "time": 55.69574499999976,
          "velocity": 0.6062992125984252,
          "duration": 0.26086999999999705
        },
        {
          "name": "D3",
          "midi": 50,
          "time": 55.69574499999976,
          "velocity": 0.6062992125984252,
          "duration": 0.26086999999999705
        },
        {
          "name": "A3",
          "midi": 57,
          "time": 55.95661499999976,
          "velocity": 0.6141732283464567,
          "duration": 0.13043499999999852
        },
        {
          "name": "D3",
          "midi": 50,
          "time": 55.95661499999976,
          "velocity": 0.6141732283464567,
          "duration": 0.13043499999999852
        },
        {
          "name": "A3",
          "midi": 57,
          "time": 56.087049999999756,
          "velocity": 0.5826771653543307,
          "duration": 0.26086999999999705
        },
        {
          "name": "D3",
          "midi": 50,
          "time": 56.087049999999756,
          "velocity": 0.5826771653543307,
          "duration": 0.26086999999999705
        },
        {
          "name": "G#3",
          "midi": 56,
          "time": 56.34791999999975,
          "velocity": 0.5905511811023622,
          "duration": 0.26086999999999705
        },
        {
          "name": "C#3",
          "midi": 49,
          "time": 56.34791999999975,
          "velocity": 0.5905511811023622,
          "duration": 0.26086999999999705
        },
        {
          "name": "G#3",
          "midi": 56,
          "time": 56.60878999999975,
          "velocity": 0.5905511811023622,
          "duration": 0.26086999999999705
        },
        {
          "name": "C#3",
          "midi": 49,
          "time": 56.60878999999975,
          "velocity": 0.5905511811023622,
          "duration": 0.26086999999999705
        },
        {
          "name": "G#3",
          "midi": 56,
          "time": 56.86965999999975,
          "velocity": 0.5905511811023622,
          "duration": 0.13043499999999852
        },
        {
          "name": "C#3",
          "midi": 49,
          "time": 56.86965999999975,
          "velocity": 0.5905511811023622,
          "duration": 0.13043499999999852
        },
        {
          "name": "G#3",
          "midi": 56,
          "time": 57.000094999999746,
          "velocity": 0.6456692913385826,
          "duration": 0.26086999999999705
        },
        {
          "name": "C#3",
          "midi": 49,
          "time": 57.000094999999746,
          "velocity": 0.6456692913385826,
          "duration": 0.26086999999999705
        },
        {
          "name": "A#3",
          "midi": 58,
          "time": 57.26096499999974,
          "velocity": 0.6062992125984252,
          "duration": 0.26086999999999705
        },
        {
          "name": "D#3",
          "midi": 51,
          "time": 57.26096499999974,
          "velocity": 0.6062992125984252,
          "duration": 0.26086999999999705
        },
        {
          "name": "A#3",
          "midi": 58,
          "time": 57.52183499999974,
          "velocity": 0.6062992125984252,
          "duration": 0.26086999999999705
        },
        {
          "name": "D#3",
          "midi": 51,
          "time": 57.52183499999974,
          "velocity": 0.6062992125984252,
          "duration": 0.26086999999999705
        },
        {
          "name": "A#3",
          "midi": 58,
          "time": 57.78270499999974,
          "velocity": 0.5984251968503937,
          "duration": 0.26086999999999705
        },
        {
          "name": "D#3",
          "midi": 51,
          "time": 57.78270499999974,
          "velocity": 0.5984251968503937,
          "duration": 0.26086999999999705
        },
        {
          "name": "A#3",
          "midi": 58,
          "time": 58.043574999999734,
          "velocity": 0.5669291338582677,
          "duration": 0.13043499999999852
        },
        {
          "name": "D#3",
          "midi": 51,
          "time": 58.043574999999734,
          "velocity": 0.5669291338582677,
          "duration": 0.13043499999999852
        },
        {
          "name": "A#3",
          "midi": 58,
          "time": 58.17400999999973,
          "velocity": 0.6141732283464567,
          "duration": 0.26086999999999705
        },
        {
          "name": "D#3",
          "midi": 51,
          "time": 58.17400999999973,
          "velocity": 0.6141732283464567,
          "duration": 0.26086999999999705
        },
        {
          "name": "F3",
          "midi": 53,
          "time": 58.43487999999973,
          "velocity": 0.5590551181102362,
          "duration": 0.26086999999999705
        },
        {
          "name": "A#2",
          "midi": 46,
          "time": 58.43487999999973,
          "velocity": 0.5590551181102362,
          "duration": 0.26086999999999705
        },
        {
          "name": "F3",
          "midi": 53,
          "time": 58.69574999999973,
          "velocity": 0.6299212598425197,
          "duration": 0.26086999999999705
        },
        {
          "name": "A#2",
          "midi": 46,
          "time": 58.69574999999973,
          "velocity": 0.6299212598425197,
          "duration": 0.26086999999999705
        },
        {
          "name": "A#2",
          "midi": 46,
          "time": 58.956619999999724,
          "velocity": 0.6141732283464567,
          "duration": 0.13043499999999852
        },
        {
          "name": "F3",
          "midi": 53,
          "time": 58.956619999999724,
          "velocity": 0.6141732283464567,
          "duration": 0.13043499999999852
        },
        {
          "name": "A#2",
          "midi": 46,
          "time": 59.08705499999972,
          "velocity": 0.5905511811023622,
          "duration": 0.26086999999999705
        },
        {
          "name": "F3",
          "midi": 53,
          "time": 59.08705499999972,
          "velocity": 0.5905511811023622,
          "duration": 0.26086999999999705
        },
        {
          "name": "A#2",
          "midi": 46,
          "time": 59.34792499999972,
          "velocity": 0.5905511811023622,
          "duration": 0.26086999999999705
        },
        {
          "name": "F3",
          "midi": 53,
          "time": 59.34792499999972,
          "velocity": 0.5905511811023622,
          "duration": 0.26086999999999705
        },
        {
          "name": "A#2",
          "midi": 46,
          "time": 59.608794999999716,
          "velocity": 0.6299212598425197,
          "duration": 0.26086999999999705
        },
        {
          "name": "F3",
          "midi": 53,
          "time": 59.608794999999716,
          "velocity": 0.6299212598425197,
          "duration": 0.26086999999999705
        },
        {
          "name": "A#2",
          "midi": 46,
          "time": 59.86966499999971,
          "velocity": 0.5984251968503937,
          "duration": 0.26086999999999705
        },
        {
          "name": "F3",
          "midi": 53,
          "time": 59.86966499999971,
          "velocity": 0.5984251968503937,
          "duration": 0.26086999999999705
        },
        {
          "name": "A#2",
          "midi": 46,
          "time": 60.13053499999971,
          "velocity": 0.6062992125984252,
          "duration": 0.13043499999999852
        },
        {
          "name": "F3",
          "midi": 53,
          "time": 60.13053499999971,
          "velocity": 0.6062992125984252,
          "duration": 0.13043499999999852
        },
        {
          "name": "F3",
          "midi": 53,
          "time": 60.26096999999971,
          "velocity": 0.6377952755905512,
          "duration": 0.26086999999999705
        },
        {
          "name": "A#2",
          "midi": 46,
          "time": 60.26096999999971,
          "velocity": 0.6377952755905512,
          "duration": 0.26086999999999705
        },
        {
          "name": "G3",
          "midi": 55,
          "time": 60.521839999999706,
          "velocity": 0.5905511811023622,
          "duration": 0.26086999999999705
        },
        {
          "name": "C3",
          "midi": 48,
          "time": 60.521839999999706,
          "velocity": 0.5905511811023622,
          "duration": 0.26086999999999705
        },
        {
          "name": "G3",
          "midi": 55,
          "time": 60.7827099999997,
          "velocity": 0.5905511811023622,
          "duration": 0.26086999999999705
        },
        {
          "name": "C3",
          "midi": 48,
          "time": 60.7827099999997,
          "velocity": 0.5905511811023622,
          "duration": 0.26086999999999705
        },
        {
          "name": "C3",
          "midi": 48,
          "time": 61.0435799999997,
          "velocity": 0.6141732283464567,
          "duration": 0.13043499999999852
        },
        {
          "name": "G3",
          "midi": 55,
          "time": 61.0435799999997,
          "velocity": 0.6141732283464567,
          "duration": 0.13043499999999852
        },
        {
          "name": "C3",
          "midi": 48,
          "time": 61.1740149999997,
          "velocity": 0.5984251968503937,
          "duration": 0.26086999999999705
        },
        {
          "name": "G3",
          "midi": 55,
          "time": 61.1740149999997,
          "velocity": 0.5984251968503937,
          "duration": 0.26086999999999705
        },
        {
          "name": "C3",
          "midi": 48,
          "time": 61.434884999999696,
          "velocity": 0.6141732283464567,
          "duration": 0.26086999999999705
        },
        {
          "name": "G3",
          "midi": 55,
          "time": 61.434884999999696,
          "velocity": 0.6141732283464567,
          "duration": 0.26086999999999705
        },
        {
          "name": "C3",
          "midi": 48,
          "time": 61.69575499999969,
          "velocity": 0.5905511811023622,
          "duration": 0.26086999999999705
        },
        {
          "name": "G3",
          "midi": 55,
          "time": 61.69575499999969,
          "velocity": 0.5905511811023622,
          "duration": 0.26086999999999705
        },
        {
          "name": "C3",
          "midi": 48,
          "time": 61.95662499999969,
          "velocity": 0.6141732283464567,
          "duration": 0.26086999999999705
        },
        {
          "name": "G3",
          "midi": 55,
          "time": 61.95662499999969,
          "velocity": 0.6141732283464567,
          "duration": 0.26086999999999705
        },
        {
          "name": "C3",
          "midi": 48,
          "time": 62.21749499999969,
          "velocity": 0.6062992125984252,
          "duration": 0.13043499999999852
        },
        {
          "name": "G3",
          "midi": 55,
          "time": 62.21749499999969,
          "velocity": 0.6062992125984252,
          "duration": 0.13043499999999852
        },
        {
          "name": "G3",
          "midi": 55,
          "time": 62.347929999999685,
          "velocity": 0.6062992125984252,
          "duration": 0.26086999999999705
        },
        {
          "name": "C3",
          "midi": 48,
          "time": 62.347929999999685,
          "velocity": 0.6062992125984252,
          "duration": 0.26086999999999705
        },
        {
          "name": "A3",
          "midi": 57,
          "time": 62.60879999999968,
          "velocity": 0.5984251968503937,
          "duration": 0.26086999999999705
        },
        {
          "name": "D3",
          "midi": 50,
          "time": 62.60879999999968,
          "velocity": 0.5984251968503937,
          "duration": 0.26086999999999705
        },
        {
          "name": "A3",
          "midi": 57,
          "time": 62.86966999999968,
          "velocity": 0.5984251968503937,
          "duration": 0.26086999999999705
        },
        {
          "name": "D3",
          "midi": 50,
          "time": 62.86966999999968,
          "velocity": 0.5984251968503937,
          "duration": 0.26086999999999705
        },
        {
          "name": "D3",
          "midi": 50,
          "time": 63.13053999999968,
          "velocity": 0.6377952755905512,
          "duration": 0.13043499999999852
        },
        {
          "name": "A3",
          "midi": 57,
          "time": 63.13053999999968,
          "velocity": 0.6377952755905512,
          "duration": 0.13043499999999852
        },
        {
          "name": "D3",
          "midi": 50,
          "time": 63.260974999999675,
          "velocity": 0.5748031496062992,
          "duration": 0.26086999999999705
        },
        {
          "name": "A3",
          "midi": 57,
          "time": 63.260974999999675,
          "velocity": 0.5748031496062992,
          "duration": 0.26086999999999705
        },
        {
          "name": "D3",
          "midi": 50,
          "time": 63.52184499999967,
          "velocity": 0.5905511811023622,
          "duration": 0.26086999999999705
        },
        {
          "name": "A3",
          "midi": 57,
          "time": 63.52184499999967,
          "velocity": 0.5905511811023622,
          "duration": 0.26086999999999705
        },
        {
          "name": "D3",
          "midi": 50,
          "time": 63.78271499999967,
          "velocity": 0.6299212598425197,
          "duration": 0.26086999999999705
        },
        {
          "name": "A3",
          "midi": 57,
          "time": 63.78271499999967,
          "velocity": 0.6299212598425197,
          "duration": 0.26086999999999705
        },
        {
          "name": "D3",
          "midi": 50,
          "time": 64.04358499999967,
          "velocity": 0.5905511811023622,
          "duration": 0.26086999999999705
        },
        {
          "name": "A3",
          "midi": 57,
          "time": 64.04358499999967,
          "velocity": 0.5905511811023622,
          "duration": 0.26086999999999705
        },
        {
          "name": "D3",
          "midi": 50,
          "time": 64.30445499999966,
          "velocity": 0.5826771653543307,
          "duration": 0.13043500000000563
        },
        {
          "name": "A3",
          "midi": 57,
          "time": 64.30445499999966,
          "velocity": 0.5826771653543307,
          "duration": 0.13043500000000563
        },
        {
          "name": "D3",
          "midi": 50,
          "time": 64.43488999999967,
          "velocity": 0.6141732283464567,
          "duration": 0.26086999999999705
        },
        {
          "name": "A3",
          "midi": 57,
          "time": 64.43488999999967,
          "velocity": 0.6141732283464567,
          "duration": 0.26086999999999705
        },
        {
          "name": "G#3",
          "midi": 56,
          "time": 64.69575999999967,
          "velocity": 0.5590551181102362,
          "duration": 0.26086999999999705
        },
        {
          "name": "C#3",
          "midi": 49,
          "time": 64.69575999999967,
          "velocity": 0.5590551181102362,
          "duration": 0.26086999999999705
        },
        {
          "name": "G#3",
          "midi": 56,
          "time": 64.95662999999966,
          "velocity": 0.5826771653543307,
          "duration": 0.26086999999999705
        },
        {
          "name": "C#3",
          "midi": 49,
          "time": 64.95662999999966,
          "velocity": 0.5826771653543307,
          "duration": 0.26086999999999705
        },
        {
          "name": "C#3",
          "midi": 49,
          "time": 65.21749999999966,
          "velocity": 0.6141732283464567,
          "duration": 0.13043500000000563
        },
        {
          "name": "G#3",
          "midi": 56,
          "time": 65.21749999999966,
          "velocity": 0.6141732283464567,
          "duration": 0.13043500000000563
        },
        {
          "name": "C#3",
          "midi": 49,
          "time": 65.34793499999967,
          "velocity": 0.6141732283464567,
          "duration": 0.26086999999999705
        },
        {
          "name": "G#3",
          "midi": 56,
          "time": 65.34793499999967,
          "velocity": 0.6141732283464567,
          "duration": 0.26086999999999705
        },
        {
          "name": "D#3",
          "midi": 51,
          "time": 65.60880499999966,
          "velocity": 0.6299212598425197,
          "duration": 0.26086999999999705
        },
        {
          "name": "A#3",
          "midi": 58,
          "time": 65.60880499999966,
          "velocity": 0.6299212598425197,
          "duration": 0.26086999999999705
        },
        {
          "name": "D#3",
          "midi": 51,
          "time": 65.86967499999966,
          "velocity": 0.6141732283464567,
          "duration": 0.26086999999999705
        },
        {
          "name": "A#3",
          "midi": 58,
          "time": 65.86967499999966,
          "velocity": 0.6141732283464567,
          "duration": 0.26086999999999705
        },
        {
          "name": "D#3",
          "midi": 51,
          "time": 66.13054499999966,
          "velocity": 0.5984251968503937,
          "duration": 0.26086999999999705
        },
        {
          "name": "A#3",
          "midi": 58,
          "time": 66.13054499999966,
          "velocity": 0.5984251968503937,
          "duration": 0.26086999999999705
        },
        {
          "name": "D#3",
          "midi": 51,
          "time": 66.39141499999965,
          "velocity": 0.5826771653543307,
          "duration": 0.13043500000000563
        },
        {
          "name": "A#3",
          "midi": 58,
          "time": 66.39141499999965,
          "velocity": 0.5826771653543307,
          "duration": 0.13043500000000563
        },
        {
          "name": "A#3",
          "midi": 58,
          "time": 66.52184999999966,
          "velocity": 0.5826771653543307,
          "duration": 0.26086999999999705
        },
        {
          "name": "D#3",
          "midi": 51,
          "time": 66.52184999999966,
          "velocity": 0.5826771653543307,
          "duration": 0.26086999999999705
        },
        {
          "name": "F3",
          "midi": 53,
          "time": 66.78271999999966,
          "velocity": 0.5433070866141733,
          "duration": 0.26086999999999705
        },
        {
          "name": "A#2",
          "midi": 46,
          "time": 66.78271999999966,
          "velocity": 0.5433070866141733,
          "duration": 0.26086999999999705
        },
        {
          "name": "F3",
          "midi": 53,
          "time": 67.04358999999965,
          "velocity": 0.5905511811023622,
          "duration": 0.26086999999999705
        },
        {
          "name": "A#2",
          "midi": 46,
          "time": 67.04358999999965,
          "velocity": 0.5905511811023622,
          "duration": 0.26086999999999705
        },
        {
          "name": "F3",
          "midi": 53,
          "time": 67.30445999999965,
          "velocity": 0.5984251968503937,
          "duration": 0.13043500000000563
        },
        {
          "name": "A#2",
          "midi": 46,
          "time": 67.30445999999965,
          "velocity": 0.5984251968503937,
          "duration": 0.13043500000000563
        },
        {
          "name": "F3",
          "midi": 53,
          "time": 67.43489499999966,
          "velocity": 0.6141732283464567,
          "duration": 0.26086999999999705
        },
        {
          "name": "A#2",
          "midi": 46,
          "time": 67.43489499999966,
          "velocity": 0.6141732283464567,
          "duration": 0.26086999999999705
        },
        {
          "name": "F3",
          "midi": 53,
          "time": 67.69576499999965,
          "velocity": 0.5511811023622047,
          "duration": 0.26086999999999705
        },
        {
          "name": "A#2",
          "midi": 46,
          "time": 67.69576499999965,
          "velocity": 0.5511811023622047,
          "duration": 0.26086999999999705
        },
        {
          "name": "F3",
          "midi": 53,
          "time": 67.95663499999965,
          "velocity": 0.5826771653543307,
          "duration": 0.26086999999999705
        },
        {
          "name": "A#2",
          "midi": 46,
          "time": 67.95663499999965,
          "velocity": 0.5826771653543307,
          "duration": 0.26086999999999705
        },
        {
          "name": "F3",
          "midi": 53,
          "time": 68.21750499999965,
          "velocity": 0.5905511811023622,
          "duration": 0.26086999999999705
        },
        {
          "name": "A#2",
          "midi": 46,
          "time": 68.21750499999965,
          "velocity": 0.5905511811023622,
          "duration": 0.26086999999999705
        },
        {
          "name": "F3",
          "midi": 53,
          "time": 68.47837499999964,
          "velocity": 0.5590551181102362,
          "duration": 0.13043500000000563
        },
        {
          "name": "A#2",
          "midi": 46,
          "time": 68.47837499999964,
          "velocity": 0.5590551181102362,
          "duration": 0.13043500000000563
        },
        {
          "name": "F3",
          "midi": 53,
          "time": 68.60880999999965,
          "velocity": 0.5748031496062992,
          "duration": 0.26086999999999705
        },
        {
          "name": "A#2",
          "midi": 46,
          "time": 68.60880999999965,
          "velocity": 0.5748031496062992,
          "duration": 0.26086999999999705
        },
        {
          "name": "G3",
          "midi": 55,
          "time": 68.86967999999965,
          "velocity": 0.6220472440944882,
          "duration": 0.26086999999999705
        },
        {
          "name": "C3",
          "midi": 48,
          "time": 68.86967999999965,
          "velocity": 0.6220472440944882,
          "duration": 0.26086999999999705
        },
        {
          "name": "G3",
          "midi": 55,
          "time": 69.13054999999964,
          "velocity": 0.6062992125984252,
          "duration": 0.26086999999999705
        },
        {
          "name": "C3",
          "midi": 48,
          "time": 69.13054999999964,
          "velocity": 0.6062992125984252,
          "duration": 0.26086999999999705
        },
        {
          "name": "G3",
          "midi": 55,
          "time": 69.39141999999964,
          "velocity": 0.6141732283464567,
          "duration": 0.13043500000000563
        },
        {
          "name": "C3",
          "midi": 48,
          "time": 69.39141999999964,
          "velocity": 0.6141732283464567,
          "duration": 0.13043500000000563
        },
        {
          "name": "G3",
          "midi": 55,
          "time": 69.52185499999965,
          "velocity": 0.6062992125984252,
          "duration": 0.26086999999999705
        },
        {
          "name": "C3",
          "midi": 48,
          "time": 69.52185499999965,
          "velocity": 0.6062992125984252,
          "duration": 0.26086999999999705
        },
        {
          "name": "G3",
          "midi": 55,
          "time": 69.78272499999964,
          "velocity": 0.6141732283464567,
          "duration": 0.26086999999999705
        },
        {
          "name": "C3",
          "midi": 48,
          "time": 69.78272499999964,
          "velocity": 0.6141732283464567,
          "duration": 0.26086999999999705
        },
        {
          "name": "G3",
          "midi": 55,
          "time": 70.04359499999964,
          "velocity": 0.5748031496062992,
          "duration": 0.26086999999999705
        },
        {
          "name": "C3",
          "midi": 48,
          "time": 70.04359499999964,
          "velocity": 0.5748031496062992,
          "duration": 0.26086999999999705
        },
        {
          "name": "G3",
          "midi": 55,
          "time": 70.30446499999964,
          "velocity": 0.5984251968503937,
          "duration": 0.26086999999999705
        },
        {
          "name": "C3",
          "midi": 48,
          "time": 70.30446499999964,
          "velocity": 0.5984251968503937,
          "duration": 0.26086999999999705
        },
        {
          "name": "G3",
          "midi": 55,
          "time": 70.56533499999964,
          "velocity": 0.6062992125984252,
          "duration": 0.13043500000000563
        },
        {
          "name": "C3",
          "midi": 48,
          "time": 70.56533499999964,
          "velocity": 0.6062992125984252,
          "duration": 0.13043500000000563
        },
        {
          "name": "G3",
          "midi": 55,
          "time": 70.69576999999964,
          "velocity": 0.5905511811023622,
          "duration": 0.26086999999999705
        },
        {
          "name": "C3",
          "midi": 48,
          "time": 70.69576999999964,
          "velocity": 0.5905511811023622,
          "duration": 0.26086999999999705
        },
        {
          "name": "A3",
          "midi": 57,
          "time": 70.95663999999964,
          "velocity": 0.5984251968503937,
          "duration": 0.26086999999999705
        },
        {
          "name": "D3",
          "midi": 50,
          "time": 70.95663999999964,
          "velocity": 0.5984251968503937,
          "duration": 0.26086999999999705
        },
        {
          "name": "A3",
          "midi": 57,
          "time": 71.21750999999963,
          "velocity": 0.5984251968503937,
          "duration": 0.26086999999999705
        },
        {
          "name": "D3",
          "midi": 50,
          "time": 71.21750999999963,
          "velocity": 0.5984251968503937,
          "duration": 0.26086999999999705
        },
        {
          "name": "A3",
          "midi": 57,
          "time": 71.47837999999963,
          "velocity": 0.5984251968503937,
          "duration": 0.13043500000000563
        },
        {
          "name": "D3",
          "midi": 50,
          "time": 71.47837999999963,
          "velocity": 0.5984251968503937,
          "duration": 0.13043500000000563
        },
        {
          "name": "A3",
          "midi": 57,
          "time": 71.60881499999964,
          "velocity": 0.6220472440944882,
          "duration": 0.26086999999999705
        },
        {
          "name": "D3",
          "midi": 50,
          "time": 71.60881499999964,
          "velocity": 0.6220472440944882,
          "duration": 0.26086999999999705
        },
        {
          "name": "A3",
          "midi": 57,
          "time": 71.86968499999963,
          "velocity": 0.5905511811023622,
          "duration": 0.26086999999999705
        },
        {
          "name": "D3",
          "midi": 50,
          "time": 71.86968499999963,
          "velocity": 0.5905511811023622,
          "duration": 0.26086999999999705
        },
        {
          "name": "A3",
          "midi": 57,
          "time": 72.13055499999963,
          "velocity": 0.6141732283464567,
          "duration": 0.26086999999999705
        },
        {
          "name": "D3",
          "midi": 50,
          "time": 72.13055499999963,
          "velocity": 0.6141732283464567,
          "duration": 0.26086999999999705
        },
        {
          "name": "A3",
          "midi": 57,
          "time": 72.39142499999963,
          "velocity": 0.6062992125984252,
          "duration": 0.26086999999999705
        },
        {
          "name": "D3",
          "midi": 50,
          "time": 72.39142499999963,
          "velocity": 0.6062992125984252,
          "duration": 0.26086999999999705
        },
        {
          "name": "A3",
          "midi": 57,
          "time": 72.65229499999963,
          "velocity": 0.6141732283464567,
          "duration": 0.13043500000000563
        },
        {
          "name": "D3",
          "midi": 50,
          "time": 72.65229499999963,
          "velocity": 0.6141732283464567,
          "duration": 0.13043500000000563
        },
        {
          "name": "A3",
          "midi": 57,
          "time": 72.78272999999963,
          "velocity": 0.6062992125984252,
          "duration": 0.26086999999999705
        },
        {
          "name": "D3",
          "midi": 50,
          "time": 72.78272999999963,
          "velocity": 0.6062992125984252,
          "duration": 0.26086999999999705
        },
        {
          "name": "G#3",
          "midi": 56,
          "time": 73.04359999999963,
          "velocity": 0.5433070866141733,
          "duration": 0.26086999999999705
        },
        {
          "name": "C#3",
          "midi": 49,
          "time": 73.04359999999963,
          "velocity": 0.5433070866141733,
          "duration": 0.26086999999999705
        },
        {
          "name": "G#3",
          "midi": 56,
          "time": 73.30446999999963,
          "velocity": 0.6220472440944882,
          "duration": 0.26086999999999705
        },
        {
          "name": "C#3",
          "midi": 49,
          "time": 73.30446999999963,
          "velocity": 0.6220472440944882,
          "duration": 0.26086999999999705
        },
        {
          "name": "G#3",
          "midi": 56,
          "time": 73.56533999999962,
          "velocity": 0.5984251968503937,
          "duration": 0.13043500000000563
        },
        {
          "name": "C#3",
          "midi": 49,
          "time": 73.56533999999962,
          "velocity": 0.5984251968503937,
          "duration": 0.13043500000000563
        },
        {
          "name": "G#3",
          "midi": 56,
          "time": 73.69577499999963,
          "velocity": 0.6141732283464567,
          "duration": 0.26086999999999705
        },
        {
          "name": "C#3",
          "midi": 49,
          "time": 73.69577499999963,
          "velocity": 0.6141732283464567,
          "duration": 0.26086999999999705
        },
        {
          "name": "A#3",
          "midi": 58,
          "time": 73.95664499999963,
          "velocity": 0.6141732283464567,
          "duration": 0.26086999999999705
        },
        {
          "name": "D#3",
          "midi": 51,
          "time": 73.95664499999963,
          "velocity": 0.6141732283464567,
          "duration": 0.26086999999999705
        },
        {
          "name": "A#3",
          "midi": 58,
          "time": 74.21751499999962,
          "velocity": 0.5984251968503937,
          "duration": 0.26086999999999705
        },
        {
          "name": "D#3",
          "midi": 51,
          "time": 74.21751499999962,
          "velocity": 0.5984251968503937,
          "duration": 0.26086999999999705
        },
        {
          "name": "A#3",
          "midi": 58,
          "time": 74.47838499999962,
          "velocity": 0.5984251968503937,
          "duration": 0.26086999999999705
        },
        {
          "name": "D#3",
          "midi": 51,
          "time": 74.47838499999962,
          "velocity": 0.5984251968503937,
          "duration": 0.26086999999999705
        },
        {
          "name": "A#3",
          "midi": 58,
          "time": 74.73925499999962,
          "velocity": 0.5984251968503937,
          "duration": 0.13043500000000563
        },
        {
          "name": "D#3",
          "midi": 51,
          "time": 74.73925499999962,
          "velocity": 0.5984251968503937,
          "duration": 0.13043500000000563
        },
        {
          "name": "A#3",
          "midi": 58,
          "time": 74.86968999999962,
          "velocity": 0.6299212598425197,
          "duration": 0.26086999999999705
        },
        {
          "name": "D#3",
          "midi": 51,
          "time": 74.86968999999962,
          "velocity": 0.6299212598425197,
          "duration": 0.26086999999999705
        },
        {
          "name": "A#2",
          "midi": 46,
          "time": 75.13055999999962,
          "velocity": 0.5669291338582677,
          "duration": 0.26086999999999705
        },
        {
          "name": "F3",
          "midi": 53,
          "time": 75.13055999999962,
          "velocity": 0.5669291338582677,
          "duration": 0.26086999999999705
        },
        {
          "name": "F3",
          "midi": 53,
          "time": 75.39142999999962,
          "velocity": 0.5748031496062992,
          "duration": 0.26086999999999705
        },
        {
          "name": "A#2",
          "midi": 46,
          "time": 75.39142999999962,
          "velocity": 0.5748031496062992,
          "duration": 0.26086999999999705
        },
        {
          "name": "A#2",
          "midi": 46,
          "time": 75.65229999999961,
          "velocity": 0.5826771653543307,
          "duration": 0.13043500000000563
        },
        {
          "name": "F3",
          "midi": 53,
          "time": 75.65229999999961,
          "velocity": 0.5826771653543307,
          "duration": 0.13043500000000563
        },
        {
          "name": "A#2",
          "midi": 46,
          "time": 75.78273499999962,
          "velocity": 0.6141732283464567,
          "duration": 0.26086999999999705
        },
        {
          "name": "F3",
          "midi": 53,
          "time": 75.78273499999962,
          "velocity": 0.6141732283464567,
          "duration": 0.26086999999999705
        },
        {
          "name": "F3",
          "midi": 53,
          "time": 76.04360499999962,
          "velocity": 0.5905511811023622,
          "duration": 0.26086999999999705
        },
        {
          "name": "A#2",
          "midi": 46,
          "time": 76.04360499999962,
          "velocity": 0.5905511811023622,
          "duration": 0.26086999999999705
        },
        {
          "name": "A#2",
          "midi": 46,
          "time": 76.30447499999961,
          "velocity": 0.5984251968503937,
          "duration": 0.26086999999999705
        },
        {
          "name": "F3",
          "midi": 53,
          "time": 76.30447499999961,
          "velocity": 0.5984251968503937,
          "duration": 0.26086999999999705
        },
        {
          "name": "F3",
          "midi": 53,
          "time": 76.56534499999961,
          "velocity": 0.6062992125984252,
          "duration": 0.26086999999999705
        },
        {
          "name": "A#2",
          "midi": 46,
          "time": 76.56534499999961,
          "velocity": 0.6062992125984252,
          "duration": 0.26086999999999705
        },
        {
          "name": "A#2",
          "midi": 46,
          "time": 76.8262149999996,
          "velocity": 0.5826771653543307,
          "duration": 0.13043500000000563
        },
        {
          "name": "F3",
          "midi": 53,
          "time": 76.8262149999996,
          "velocity": 0.5826771653543307,
          "duration": 0.13043500000000563
        },
        {
          "name": "F3",
          "midi": 53,
          "time": 76.95664999999961,
          "velocity": 0.5984251968503937,
          "duration": 0.26086999999999705
        },
        {
          "name": "A#2",
          "midi": 46,
          "time": 76.95664999999961,
          "velocity": 0.5984251968503937,
          "duration": 0.26086999999999705
        },
        {
          "name": "C3",
          "midi": 48,
          "time": 77.21751999999961,
          "velocity": 0.6456692913385826,
          "duration": 0.26086999999999705
        },
        {
          "name": "G3",
          "midi": 55,
          "time": 77.21751999999961,
          "velocity": 0.6456692913385826,
          "duration": 0.26086999999999705
        },
        {
          "name": "G3",
          "midi": 55,
          "time": 77.4783899999996,
          "velocity": 0.6141732283464567,
          "duration": 0.26086999999999705
        },
        {
          "name": "C3",
          "midi": 48,
          "time": 77.4783899999996,
          "velocity": 0.6141732283464567,
          "duration": 0.26086999999999705
        },
        {
          "name": "C3",
          "midi": 48,
          "time": 77.7392599999996,
          "velocity": 0.6062992125984252,
          "duration": 0.13043500000000563
        },
        {
          "name": "G3",
          "midi": 55,
          "time": 77.7392599999996,
          "velocity": 0.6062992125984252,
          "duration": 0.13043500000000563
        },
        {
          "name": "C3",
          "midi": 48,
          "time": 77.86969499999961,
          "velocity": 0.6141732283464567,
          "duration": 0.26086999999999705
        },
        {
          "name": "G3",
          "midi": 55,
          "time": 77.86969499999961,
          "velocity": 0.6141732283464567,
          "duration": 0.26086999999999705
        },
        {
          "name": "G3",
          "midi": 55,
          "time": 78.1305649999996,
          "velocity": 0.6456692913385826,
          "duration": 0.26086999999999705
        },
        {
          "name": "C3",
          "midi": 48,
          "time": 78.1305649999996,
          "velocity": 0.6456692913385826,
          "duration": 0.26086999999999705
        },
        {
          "name": "C3",
          "midi": 48,
          "time": 78.3914349999996,
          "velocity": 0.5905511811023622,
          "duration": 0.26086999999999705
        },
        {
          "name": "G3",
          "midi": 55,
          "time": 78.3914349999996,
          "velocity": 0.5905511811023622,
          "duration": 0.26086999999999705
        },
        {
          "name": "G3",
          "midi": 55,
          "time": 78.6523049999996,
          "velocity": 0.5905511811023622,
          "duration": 0.26086999999999705
        },
        {
          "name": "C3",
          "midi": 48,
          "time": 78.6523049999996,
          "velocity": 0.5905511811023622,
          "duration": 0.26086999999999705
        },
        {
          "name": "C3",
          "midi": 48,
          "time": 78.9131749999996,
          "velocity": 0.5984251968503937,
          "duration": 0.13043500000000563
        },
        {
          "name": "G3",
          "midi": 55,
          "time": 78.9131749999996,
          "velocity": 0.5984251968503937,
          "duration": 0.13043500000000563
        },
        {
          "name": "G3",
          "midi": 55,
          "time": 79.0436099999996,
          "velocity": 0.5905511811023622,
          "duration": 0.26086999999999705
        },
        {
          "name": "C3",
          "midi": 48,
          "time": 79.0436099999996,
          "velocity": 0.5905511811023622,
          "duration": 0.26086999999999705
        },
        {
          "name": "D3",
          "midi": 50,
          "time": 79.3044799999996,
          "velocity": 0.6535433070866141,
          "duration": 0.26086999999999705
        },
        {
          "name": "A3",
          "midi": 57,
          "time": 79.3044799999996,
          "velocity": 0.6535433070866141,
          "duration": 0.26086999999999705
        },
        {
          "name": "A3",
          "midi": 57,
          "time": 79.5653499999996,
          "velocity": 0.5748031496062992,
          "duration": 0.26086999999999705
        },
        {
          "name": "D3",
          "midi": 50,
          "time": 79.5653499999996,
          "velocity": 0.5748031496062992,
          "duration": 0.26086999999999705
        },
        {
          "name": "D3",
          "midi": 50,
          "time": 79.8262199999996,
          "velocity": 0.5905511811023622,
          "duration": 0.13043500000000563
        },
        {
          "name": "A3",
          "midi": 57,
          "time": 79.8262199999996,
          "velocity": 0.5905511811023622,
          "duration": 0.13043500000000563
        },
        {
          "name": "D3",
          "midi": 50,
          "time": 79.9566549999996,
          "velocity": 0.5748031496062992,
          "duration": 0.26086999999999705
        },
        {
          "name": "A3",
          "midi": 57,
          "time": 79.9566549999996,
          "velocity": 0.5748031496062992,
          "duration": 0.26086999999999705
        },
        {
          "name": "A3",
          "midi": 57,
          "time": 80.2175249999996,
          "velocity": 0.6299212598425197,
          "duration": 0.26086999999999705
        },
        {
          "name": "D3",
          "midi": 50,
          "time": 80.2175249999996,
          "velocity": 0.6299212598425197,
          "duration": 0.26086999999999705
        },
        {
          "name": "D3",
          "midi": 50,
          "time": 80.4783949999996,
          "velocity": 0.6141732283464567,
          "duration": 0.26086999999999705
        },
        {
          "name": "A3",
          "midi": 57,
          "time": 80.4783949999996,
          "velocity": 0.6141732283464567,
          "duration": 0.26086999999999705
        },
        {
          "name": "A3",
          "midi": 57,
          "time": 80.73926499999959,
          "velocity": 0.6062992125984252,
          "duration": 0.26086999999999705
        },
        {
          "name": "D3",
          "midi": 50,
          "time": 80.73926499999959,
          "velocity": 0.6062992125984252,
          "duration": 0.26086999999999705
        },
        {
          "name": "D3",
          "midi": 50,
          "time": 81.00013499999959,
          "velocity": 0.6299212598425197,
          "duration": 0.13043500000000563
        },
        {
          "name": "A3",
          "midi": 57,
          "time": 81.00013499999959,
          "velocity": 0.6299212598425197,
          "duration": 0.13043500000000563
        },
        {
          "name": "A3",
          "midi": 57,
          "time": 81.1305699999996,
          "velocity": 0.5905511811023622,
          "duration": 0.26086999999999705
        },
        {
          "name": "D3",
          "midi": 50,
          "time": 81.1305699999996,
          "velocity": 0.5905511811023622,
          "duration": 0.26086999999999705
        },
        {
          "name": "C#3",
          "midi": 49,
          "time": 81.39143999999959,
          "velocity": 0.6141732283464567,
          "duration": 0.26086999999999705
        },
        {
          "name": "G#3",
          "midi": 56,
          "time": 81.39143999999959,
          "velocity": 0.6141732283464567,
          "duration": 0.26086999999999705
        },
        {
          "name": "G#3",
          "midi": 56,
          "time": 81.65230999999959,
          "velocity": 0.5905511811023622,
          "duration": 0.26086999999999705
        },
        {
          "name": "C#3",
          "midi": 49,
          "time": 81.65230999999959,
          "velocity": 0.5905511811023622,
          "duration": 0.26086999999999705
        },
        {
          "name": "C#3",
          "midi": 49,
          "time": 81.91317999999958,
          "velocity": 0.5826771653543307,
          "duration": 0.13043500000000563
        },
        {
          "name": "G#3",
          "midi": 56,
          "time": 81.91317999999958,
          "velocity": 0.5826771653543307,
          "duration": 0.13043500000000563
        },
        {
          "name": "C#3",
          "midi": 49,
          "time": 82.04361499999959,
          "velocity": 0.6141732283464567,
          "duration": 0.26086999999999705
        },
        {
          "name": "G#3",
          "midi": 56,
          "time": 82.04361499999959,
          "velocity": 0.6141732283464567,
          "duration": 0.26086999999999705
        },
        {
          "name": "A#3",
          "midi": 58,
          "time": 82.30448499999959,
          "velocity": 0.6377952755905512,
          "duration": 0.26086999999999705
        },
        {
          "name": "D#3",
          "midi": 51,
          "time": 82.30448499999959,
          "velocity": 0.6377952755905512,
          "duration": 0.26086999999999705
        },
        {
          "name": "A#3",
          "midi": 58,
          "time": 82.56535499999958,
          "velocity": 0.5748031496062992,
          "duration": 0.26086999999999705
        },
        {
          "name": "D#3",
          "midi": 51,
          "time": 82.56535499999958,
          "velocity": 0.5748031496062992,
          "duration": 0.26086999999999705
        },
        {
          "name": "A#3",
          "midi": 58,
          "time": 82.82622499999958,
          "velocity": 0.5669291338582677,
          "duration": 0.26086999999999705
        },
        {
          "name": "D#3",
          "midi": 51,
          "time": 82.82622499999958,
          "velocity": 0.5669291338582677,
          "duration": 0.26086999999999705
        },
        {
          "name": "A#3",
          "midi": 58,
          "time": 83.08709499999958,
          "velocity": 0.5905511811023622,
          "duration": 0.13043500000000563
        },
        {
          "name": "D#3",
          "midi": 51,
          "time": 83.08709499999958,
          "velocity": 0.5905511811023622,
          "duration": 0.13043500000000563
        },
        {
          "name": "A#3",
          "midi": 58,
          "time": 83.21752999999958,
          "velocity": 0.5905511811023622,
          "duration": 0.26086999999999705
        },
        {
          "name": "D#3",
          "midi": 51,
          "time": 83.21752999999958,
          "velocity": 0.5905511811023622,
          "duration": 0.26086999999999705
        },
        {
          "name": "A#2",
          "midi": 46,
          "time": 83.47839999999958,
          "velocity": 0.6141732283464567,
          "duration": 0.26086999999999705
        },
        {
          "name": "F3",
          "midi": 53,
          "time": 83.47839999999958,
          "velocity": 0.6141732283464567,
          "duration": 0.26086999999999705
        },
        {
          "name": "A#2",
          "midi": 46,
          "time": 83.73926999999958,
          "velocity": 0.5905511811023622,
          "duration": 0.26086999999999705
        },
        {
          "name": "F3",
          "midi": 53,
          "time": 83.73926999999958,
          "velocity": 0.5905511811023622,
          "duration": 0.26086999999999705
        },
        {
          "name": "A#2",
          "midi": 46,
          "time": 84.00013999999958,
          "velocity": 0.5826771653543307,
          "duration": 0.13043500000000563
        },
        {
          "name": "F3",
          "midi": 53,
          "time": 84.00013999999958,
          "velocity": 0.5826771653543307,
          "duration": 0.13043500000000563
        },
        {
          "name": "F3",
          "midi": 53,
          "time": 84.13057499999958,
          "velocity": 0.5826771653543307,
          "duration": 0.26086999999999705
        },
        {
          "name": "A#2",
          "midi": 46,
          "time": 84.13057499999958,
          "velocity": 0.5826771653543307,
          "duration": 0.26086999999999705
        },
        {
          "name": "A#2",
          "midi": 46,
          "time": 84.39144499999958,
          "velocity": 0.5748031496062992,
          "duration": 0.26086999999999705
        },
        {
          "name": "F3",
          "midi": 53,
          "time": 84.39144499999958,
          "velocity": 0.5748031496062992,
          "duration": 0.26086999999999705
        },
        {
          "name": "A#2",
          "midi": 46,
          "time": 84.65231499999958,
          "velocity": 0.5748031496062992,
          "duration": 0.26086999999999705
        },
        {
          "name": "F3",
          "midi": 53,
          "time": 84.65231499999958,
          "velocity": 0.5748031496062992,
          "duration": 0.26086999999999705
        },
        {
          "name": "A#2",
          "midi": 46,
          "time": 84.91318499999957,
          "velocity": 0.5905511811023622,
          "duration": 0.26086999999999705
        },
        {
          "name": "F3",
          "midi": 53,
          "time": 84.91318499999957,
          "velocity": 0.5905511811023622,
          "duration": 0.26086999999999705
        },
        {
          "name": "A#2",
          "midi": 46,
          "time": 85.17405499999957,
          "velocity": 0.5905511811023622,
          "duration": 0.13043500000000563
        },
        {
          "name": "F3",
          "midi": 53,
          "time": 85.17405499999957,
          "velocity": 0.5905511811023622,
          "duration": 0.13043500000000563
        },
        {
          "name": "A#2",
          "midi": 46,
          "time": 85.30448999999957,
          "velocity": 0.6220472440944882,
          "duration": 0.26086999999999705
        },
        {
          "name": "F3",
          "midi": 53,
          "time": 85.30448999999957,
          "velocity": 0.6220472440944882,
          "duration": 0.26086999999999705
        },
        {
          "name": "G3",
          "midi": 55,
          "time": 85.56535999999957,
          "velocity": 0.6062992125984252,
          "duration": 0.26086999999999705
        },
        {
          "name": "C3",
          "midi": 48,
          "time": 85.56535999999957,
          "velocity": 0.6062992125984252,
          "duration": 0.26086999999999705
        },
        {
          "name": "C3",
          "midi": 48,
          "time": 85.82622999999957,
          "velocity": 0.5905511811023622,
          "duration": 0.26086999999999705
        },
        {
          "name": "G3",
          "midi": 55,
          "time": 85.82622999999957,
          "velocity": 0.5905511811023622,
          "duration": 0.26086999999999705
        },
        {
          "name": "G3",
          "midi": 55,
          "time": 86.08709999999957,
          "velocity": 0.6141732283464567,
          "duration": 0.13043500000000563
        },
        {
          "name": "C3",
          "midi": 48,
          "time": 86.08709999999957,
          "velocity": 0.6141732283464567,
          "duration": 0.13043500000000563
        },
        {
          "name": "C3",
          "midi": 48,
          "time": 86.21753499999957,
          "velocity": 0.5984251968503937,
          "duration": 0.26086999999999705
        },
        {
          "name": "G3",
          "midi": 55,
          "time": 86.21753499999957,
          "velocity": 0.5984251968503937,
          "duration": 0.26086999999999705
        },
        {
          "name": "C3",
          "midi": 48,
          "time": 86.47840499999957,
          "velocity": 0.5905511811023622,
          "duration": 0.26086999999999705
        },
        {
          "name": "G3",
          "midi": 55,
          "time": 86.47840499999957,
          "velocity": 0.5905511811023622,
          "duration": 0.26086999999999705
        },
        {
          "name": "C3",
          "midi": 48,
          "time": 86.73927499999957,
          "velocity": 0.5905511811023622,
          "duration": 0.26086999999999705
        },
        {
          "name": "G3",
          "midi": 55,
          "time": 86.73927499999957,
          "velocity": 0.5905511811023622,
          "duration": 0.26086999999999705
        },
        {
          "name": "C3",
          "midi": 48,
          "time": 87.00014499999956,
          "velocity": 0.5590551181102362,
          "duration": 0.26086999999999705
        },
        {
          "name": "G3",
          "midi": 55,
          "time": 87.00014499999956,
          "velocity": 0.5590551181102362,
          "duration": 0.26086999999999705
        },
        {
          "name": "C3",
          "midi": 48,
          "time": 87.26101499999956,
          "velocity": 0.5905511811023622,
          "duration": 0.13043500000000563
        },
        {
          "name": "G3",
          "midi": 55,
          "time": 87.26101499999956,
          "velocity": 0.5905511811023622,
          "duration": 0.13043500000000563
        },
        {
          "name": "C3",
          "midi": 48,
          "time": 87.39144999999957,
          "velocity": 0.6062992125984252,
          "duration": 0.26086999999999705
        },
        {
          "name": "G3",
          "midi": 55,
          "time": 87.39144999999957,
          "velocity": 0.6062992125984252,
          "duration": 0.26086999999999705
        },
        {
          "name": "G3",
          "midi": 55,
          "time": 87.65231999999956,
          "velocity": 0.6062992125984252,
          "duration": 0.26086999999999705
        },
        {
          "name": "B2",
          "midi": 47,
          "time": 87.65231999999956,
          "velocity": 0.6062992125984252,
          "duration": 0.26086999999999705
        },
        {
          "name": "G3",
          "midi": 55,
          "time": 87.91318999999956,
          "velocity": 0.6062992125984252,
          "duration": 0.26086999999999705
        },
        {
          "name": "B2",
          "midi": 47,
          "time": 87.91318999999956,
          "velocity": 0.6062992125984252,
          "duration": 0.26086999999999705
        },
        {
          "name": "G3",
          "midi": 55,
          "time": 88.17405999999956,
          "velocity": 0.5984251968503937,
          "duration": 0.13043500000000563
        },
        {
          "name": "B2",
          "midi": 47,
          "time": 88.17405999999956,
          "velocity": 0.5984251968503937,
          "duration": 0.13043500000000563
        },
        {
          "name": "G3",
          "midi": 55,
          "time": 88.30449499999956,
          "velocity": 0.5984251968503937,
          "duration": 0.26086999999999705
        },
        {
          "name": "B2",
          "midi": 47,
          "time": 88.30449499999956,
          "velocity": 0.5984251968503937,
          "duration": 0.26086999999999705
        },
        {
          "name": "B2",
          "midi": 47,
          "time": 88.56536499999956,
          "velocity": 0.5984251968503937,
          "duration": 0.26086999999999705
        },
        {
          "name": "G3",
          "midi": 55,
          "time": 88.56536499999956,
          "velocity": 0.5984251968503937,
          "duration": 0.26086999999999705
        },
        {
          "name": "G3",
          "midi": 55,
          "time": 88.82623499999956,
          "velocity": 0.5984251968503937,
          "duration": 0.26086999999999705
        },
        {
          "name": "B2",
          "midi": 47,
          "time": 88.82623499999956,
          "velocity": 0.5984251968503937,
          "duration": 0.26086999999999705
        },
        {
          "name": "B2",
          "midi": 47,
          "time": 89.08710499999955,
          "velocity": 0.6141732283464567,
          "duration": 0.26086999999999705
        },
        {
          "name": "G3",
          "midi": 55,
          "time": 89.08710499999955,
          "velocity": 0.6141732283464567,
          "duration": 0.26086999999999705
        },
        {
          "name": "G3",
          "midi": 55,
          "time": 89.34797499999955,
          "velocity": 0.5826771653543307,
          "duration": 0.13043500000000563
        },
        {
          "name": "B2",
          "midi": 47,
          "time": 89.34797499999955,
          "velocity": 0.5826771653543307,
          "duration": 0.13043500000000563
        },
        {
          "name": "G3",
          "midi": 55,
          "time": 89.47840999999956,
          "velocity": 0.6062992125984252,
          "duration": 0.26086999999999705
        },
        {
          "name": "B2",
          "midi": 47,
          "time": 89.47840999999956,
          "velocity": 0.6062992125984252,
          "duration": 0.26086999999999705
        },
        {
          "name": "B2",
          "midi": 47,
          "time": 89.73927999999955,
          "velocity": 0.6141732283464567,
          "duration": 0.26086999999999705
        },
        {
          "name": "G3",
          "midi": 55,
          "time": 89.73927999999955,
          "velocity": 0.6141732283464567,
          "duration": 0.26086999999999705
        },
        {
          "name": "B2",
          "midi": 47,
          "time": 90.00014999999955,
          "velocity": 0.5669291338582677,
          "duration": 0.26086999999999705
        },
        {
          "name": "G3",
          "midi": 55,
          "time": 90.00014999999955,
          "velocity": 0.5669291338582677,
          "duration": 0.26086999999999705
        },
        {
          "name": "B2",
          "midi": 47,
          "time": 90.26101999999955,
          "velocity": 0.5590551181102362,
          "duration": 0.13043500000000563
        },
        {
          "name": "G3",
          "midi": 55,
          "time": 90.26101999999955,
          "velocity": 0.5590551181102362,
          "duration": 0.13043500000000563
        },
        {
          "name": "B2",
          "midi": 47,
          "time": 90.39145499999955,
          "velocity": 0.5905511811023622,
          "duration": 0.26086999999999705
        },
        {
          "name": "G3",
          "midi": 55,
          "time": 90.39145499999955,
          "velocity": 0.5905511811023622,
          "duration": 0.26086999999999705
        },
        {
          "name": "B2",
          "midi": 47,
          "time": 90.65232499999955,
          "velocity": 0.6141732283464567,
          "duration": 0.26086999999999705
        },
        {
          "name": "G3",
          "midi": 55,
          "time": 90.65232499999955,
          "velocity": 0.6141732283464567,
          "duration": 0.26086999999999705
        },
        {
          "name": "B2",
          "midi": 47,
          "time": 90.91319499999955,
          "velocity": 0.6141732283464567,
          "duration": 0.26086999999999705
        },
        {
          "name": "G3",
          "midi": 55,
          "time": 90.91319499999955,
          "velocity": 0.6141732283464567,
          "duration": 0.26086999999999705
        },
        {
          "name": "B2",
          "midi": 47,
          "time": 91.17406499999954,
          "velocity": 0.5748031496062992,
          "duration": 0.26086999999999705
        },
        {
          "name": "G3",
          "midi": 55,
          "time": 91.17406499999954,
          "velocity": 0.5748031496062992,
          "duration": 0.26086999999999705
        },
        {
          "name": "B2",
          "midi": 47,
          "time": 91.43493499999954,
          "velocity": 0.6141732283464567,
          "duration": 0.13043500000000563
        },
        {
          "name": "G3",
          "midi": 55,
          "time": 91.43493499999954,
          "velocity": 0.6141732283464567,
          "duration": 0.13043500000000563
        },
        {
          "name": "B2",
          "midi": 47,
          "time": 91.56536999999955,
          "velocity": 0.6062992125984252,
          "duration": 0.26086999999999705
        },
        {
          "name": "G3",
          "midi": 55,
          "time": 91.56536999999955,
          "velocity": 0.6062992125984252,
          "duration": 0.26086999999999705
        },
        {
          "name": "A#2",
          "midi": 46,
          "time": 91.82623999999954,
          "velocity": 0.5748031496062992,
          "duration": 0.26086999999999705
        },
        {
          "name": "F3",
          "midi": 53,
          "time": 91.82623999999954,
          "velocity": 0.5748031496062992,
          "duration": 0.26086999999999705
        },
        {
          "name": "A#2",
          "midi": 46,
          "time": 92.08710999999954,
          "velocity": 0.6062992125984252,
          "duration": 0.26086999999999705
        },
        {
          "name": "F3",
          "midi": 53,
          "time": 92.08710999999954,
          "velocity": 0.6062992125984252,
          "duration": 0.26086999999999705
        },
        {
          "name": "A#2",
          "midi": 46,
          "time": 92.34797999999954,
          "velocity": 0.6141732283464567,
          "duration": 0.13043500000000563
        },
        {
          "name": "F3",
          "midi": 53,
          "time": 92.34797999999954,
          "velocity": 0.6141732283464567,
          "duration": 0.13043500000000563
        },
        {
          "name": "A#2",
          "midi": 46,
          "time": 92.47841499999954,
          "velocity": 0.6141732283464567,
          "duration": 0.26086999999999705
        },
        {
          "name": "F3",
          "midi": 53,
          "time": 92.47841499999954,
          "velocity": 0.6141732283464567,
          "duration": 0.26086999999999705
        },
        {
          "name": "A#2",
          "midi": 46,
          "time": 92.73928499999954,
          "velocity": 0.5511811023622047,
          "duration": 0.26086999999999705
        },
        {
          "name": "F3",
          "midi": 53,
          "time": 92.73928499999954,
          "velocity": 0.5511811023622047,
          "duration": 0.26086999999999705
        },
        {
          "name": "A#2",
          "midi": 46,
          "time": 93.00015499999954,
          "velocity": 0.6535433070866141,
          "duration": 0.26086999999999705
        },
        {
          "name": "F3",
          "midi": 53,
          "time": 93.00015499999954,
          "velocity": 0.6535433070866141,
          "duration": 0.26086999999999705
        },
        {
          "name": "A#2",
          "midi": 46,
          "time": 93.26102499999953,
          "velocity": 0.5748031496062992,
          "duration": 0.26086999999999705
        },
        {
          "name": "F3",
          "midi": 53,
          "time": 93.26102499999953,
          "velocity": 0.5748031496062992,
          "duration": 0.26086999999999705
        },
        {
          "name": "A#2",
          "midi": 46,
          "time": 93.52189499999953,
          "velocity": 0.6062992125984252,
          "duration": 0.13043500000000563
        },
        {
          "name": "F3",
          "midi": 53,
          "time": 93.52189499999953,
          "velocity": 0.6062992125984252,
          "duration": 0.13043500000000563
        },
        {
          "name": "A#2",
          "midi": 46,
          "time": 93.65232999999954,
          "velocity": 0.5748031496062992,
          "duration": 0.13043500000000563
        },
        {
          "name": "F3",
          "midi": 53,
          "time": 93.65232999999954,
          "velocity": 0.5748031496062992,
          "duration": 0.13043500000000563
        },
        {
          "name": "A#2",
          "midi": 46,
          "time": 93.78276499999954,
          "velocity": 0.6220472440944882,
          "duration": 0.13043500000000563
        },
        {
          "name": "F3",
          "midi": 53,
          "time": 93.78276499999954,
          "velocity": 0.6220472440944882,
          "duration": 0.13043500000000563
        },
        {
          "name": "C3",
          "midi": 48,
          "time": 93.91319999999955,
          "velocity": 0.6377952755905512,
          "duration": 0.26086999999999705
        },
        {
          "name": "G3",
          "midi": 55,
          "time": 93.91319999999955,
          "velocity": 0.6377952755905512,
          "duration": 0.26086999999999705
        },
        {
          "name": "C3",
          "midi": 48,
          "time": 94.17406999999955,
          "velocity": 0.6062992125984252,
          "duration": 0.26086999999999705
        },
        {
          "name": "G3",
          "midi": 55,
          "time": 94.17406999999955,
          "velocity": 0.6062992125984252,
          "duration": 0.26086999999999705
        },
        {
          "name": "C3",
          "midi": 48,
          "time": 94.43493999999954,
          "velocity": 0.5905511811023622,
          "duration": 0.13043500000000563
        },
        {
          "name": "G3",
          "midi": 55,
          "time": 94.43493999999954,
          "velocity": 0.5905511811023622,
          "duration": 0.13043500000000563
        },
        {
          "name": "C3",
          "midi": 48,
          "time": 94.56537499999955,
          "velocity": 0.6141732283464567,
          "duration": 0.26086999999999705
        },
        {
          "name": "G3",
          "midi": 55,
          "time": 94.56537499999955,
          "velocity": 0.6141732283464567,
          "duration": 0.26086999999999705
        },
        {
          "name": "C3",
          "midi": 48,
          "time": 94.82624499999955,
          "velocity": 0.6377952755905512,
          "duration": 0.26086999999999705
        },
        {
          "name": "G3",
          "midi": 55,
          "time": 94.82624499999955,
          "velocity": 0.6377952755905512,
          "duration": 0.26086999999999705
        },
        {
          "name": "C3",
          "midi": 48,
          "time": 95.08711499999954,
          "velocity": 0.6220472440944882,
          "duration": 0.26086999999999705
        },
        {
          "name": "G3",
          "midi": 55,
          "time": 95.08711499999954,
          "velocity": 0.6220472440944882,
          "duration": 0.26086999999999705
        },
        {
          "name": "C3",
          "midi": 48,
          "time": 95.34798499999954,
          "velocity": 0.5984251968503937,
          "duration": 0.26086999999999705
        },
        {
          "name": "G3",
          "midi": 55,
          "time": 95.34798499999954,
          "velocity": 0.5984251968503937,
          "duration": 0.26086999999999705
        },
        {
          "name": "C3",
          "midi": 48,
          "time": 95.60885499999954,
          "velocity": 0.6299212598425197,
          "duration": 0.13043500000000563
        },
        {
          "name": "G3",
          "midi": 55,
          "time": 95.60885499999954,
          "velocity": 0.6299212598425197,
          "duration": 0.13043500000000563
        },
        {
          "name": "C3",
          "midi": 48,
          "time": 95.73928999999954,
          "velocity": 0.6141732283464567,
          "duration": 0.26086999999999705
        },
        {
          "name": "G3",
          "midi": 55,
          "time": 95.73928999999954,
          "velocity": 0.6141732283464567,
          "duration": 0.26086999999999705
        },
        {
          "name": "D3",
          "midi": 50,
          "time": 96.00015999999954,
          "velocity": 0.6062992125984252,
          "duration": 0.26086999999999705
        },
        {
          "name": "A3",
          "midi": 57,
          "time": 96.00015999999954,
          "velocity": 0.6062992125984252,
          "duration": 0.26086999999999705
        },
        {
          "name": "A3",
          "midi": 57,
          "time": 96.26102999999954,
          "velocity": 0.5905511811023622,
          "duration": 0.26086999999999705
        },
        {
          "name": "D3",
          "midi": 50,
          "time": 96.26102999999954,
          "velocity": 0.5905511811023622,
          "duration": 0.26086999999999705
        },
        {
          "name": "D3",
          "midi": 50,
          "time": 96.52189999999953,
          "velocity": 0.6062992125984252,
          "duration": 0.13043500000000563
        },
        {
          "name": "A3",
          "midi": 57,
          "time": 96.52189999999953,
          "velocity": 0.6062992125984252,
          "duration": 0.13043500000000563
        },
        {
          "name": "D3",
          "midi": 50,
          "time": 96.65233499999954,
          "velocity": 0.5905511811023622,
          "duration": 0.26086999999999705
        },
        {
          "name": "A3",
          "midi": 57,
          "time": 96.65233499999954,
          "velocity": 0.5905511811023622,
          "duration": 0.26086999999999705
        },
        {
          "name": "A3",
          "midi": 57,
          "time": 96.91320499999954,
          "velocity": 0.6299212598425197,
          "duration": 0.26086999999999705
        },
        {
          "name": "D3",
          "midi": 50,
          "time": 96.91320499999954,
          "velocity": 0.6299212598425197,
          "duration": 0.26086999999999705
        },
        {
          "name": "D3",
          "midi": 50,
          "time": 97.17407499999953,
          "velocity": 0.5748031496062992,
          "duration": 0.26086999999999705
        },
        {
          "name": "A3",
          "midi": 57,
          "time": 97.17407499999953,
          "velocity": 0.5748031496062992,
          "duration": 0.26086999999999705
        },
        {
          "name": "A3",
          "midi": 57,
          "time": 97.43494499999953,
          "velocity": 0.5984251968503937,
          "duration": 0.26086999999999705
        },
        {
          "name": "D3",
          "midi": 50,
          "time": 97.43494499999953,
          "velocity": 0.5984251968503937,
          "duration": 0.26086999999999705
        },
        {
          "name": "D3",
          "midi": 50,
          "time": 97.69581499999953,
          "velocity": 0.5433070866141733,
          "duration": 0.13043500000000563
        },
        {
          "name": "A3",
          "midi": 57,
          "time": 97.69581499999953,
          "velocity": 0.5433070866141733,
          "duration": 0.13043500000000563
        },
        {
          "name": "A3",
          "midi": 57,
          "time": 97.82624999999953,
          "velocity": 0.5905511811023622,
          "duration": 0.26086999999999705
        },
        {
          "name": "D3",
          "midi": 50,
          "time": 97.82624999999953,
          "velocity": 0.5905511811023622,
          "duration": 0.26086999999999705
        },
        {
          "name": "D3",
          "midi": 50,
          "time": 98.08711999999953,
          "velocity": 0.6062992125984252,
          "duration": 0.26086999999999705
        },
        {
          "name": "A3",
          "midi": 57,
          "time": 98.08711999999953,
          "velocity": 0.6062992125984252,
          "duration": 0.26086999999999705
        },
        {
          "name": "A3",
          "midi": 57,
          "time": 98.34798999999953,
          "velocity": 0.6141732283464567,
          "duration": 0.26086999999999705
        },
        {
          "name": "D3",
          "midi": 50,
          "time": 98.34798999999953,
          "velocity": 0.6141732283464567,
          "duration": 0.26086999999999705
        },
        {
          "name": "D3",
          "midi": 50,
          "time": 98.60885999999952,
          "velocity": 0.5748031496062992,
          "duration": 0.13043500000000563
        },
        {
          "name": "A3",
          "midi": 57,
          "time": 98.60885999999952,
          "velocity": 0.5748031496062992,
          "duration": 0.13043500000000563
        },
        {
          "name": "D3",
          "midi": 50,
          "time": 98.73929499999953,
          "velocity": 0.5984251968503937,
          "duration": 0.26086999999999705
        },
        {
          "name": "A3",
          "midi": 57,
          "time": 98.73929499999953,
          "velocity": 0.5984251968503937,
          "duration": 0.26086999999999705
        },
        {
          "name": "A3",
          "midi": 57,
          "time": 99.00016499999953,
          "velocity": 0.6220472440944882,
          "duration": 0.26086999999999705
        },
        {
          "name": "D3",
          "midi": 50,
          "time": 99.00016499999953,
          "velocity": 0.6220472440944882,
          "duration": 0.26086999999999705
        },
        {
          "name": "D3",
          "midi": 50,
          "time": 99.26103499999952,
          "velocity": 0.5905511811023622,
          "duration": 0.26086999999999705
        },
        {
          "name": "A3",
          "midi": 57,
          "time": 99.26103499999952,
          "velocity": 0.5905511811023622,
          "duration": 0.26086999999999705
        },
        {
          "name": "A3",
          "midi": 57,
          "time": 99.52190499999952,
          "velocity": 0.5905511811023622,
          "duration": 0.26086999999999705
        },
        {
          "name": "D3",
          "midi": 50,
          "time": 99.52190499999952,
          "velocity": 0.5905511811023622,
          "duration": 0.26086999999999705
        },
        {
          "name": "D3",
          "midi": 50,
          "time": 99.78277499999952,
          "velocity": 0.5984251968503937,
          "duration": 0.13043500000000563
        },
        {
          "name": "A3",
          "midi": 57,
          "time": 99.78277499999952,
          "velocity": 0.5984251968503937,
          "duration": 0.13043500000000563
        },
        {
          "name": "A3",
          "midi": 57,
          "time": 99.91320999999952,
          "velocity": 0.6141732283464567,
          "duration": 0.26086999999999705
        },
        {
          "name": "D3",
          "midi": 50,
          "time": 99.91320999999952,
          "velocity": 0.6141732283464567,
          "duration": 0.26086999999999705
        },
        {
          "name": "F3",
          "midi": 53,
          "time": 100.17407999999952,
          "velocity": 0.5826771653543307,
          "duration": 0.26086999999999705
        },
        {
          "name": "A#2",
          "midi": 46,
          "time": 100.17407999999952,
          "velocity": 0.5826771653543307,
          "duration": 0.26086999999999705
        },
        {
          "name": "A#2",
          "midi": 46,
          "time": 100.43494999999952,
          "velocity": 0.5748031496062992,
          "duration": 0.26086999999999705
        },
        {
          "name": "F3",
          "midi": 53,
          "time": 100.43494999999952,
          "velocity": 0.5748031496062992,
          "duration": 0.26086999999999705
        },
        {
          "name": "F3",
          "midi": 53,
          "time": 100.69581999999951,
          "velocity": 0.6062992125984252,
          "duration": 0.13043500000000563
        },
        {
          "name": "A#2",
          "midi": 46,
          "time": 100.69581999999951,
          "velocity": 0.6062992125984252,
          "duration": 0.13043500000000563
        },
        {
          "name": "F3",
          "midi": 53,
          "time": 100.82625499999952,
          "velocity": 0.5905511811023622,
          "duration": 0.26086999999999705
        },
        {
          "name": "A#2",
          "midi": 46,
          "time": 100.82625499999952,
          "velocity": 0.5905511811023622,
          "duration": 0.26086999999999705
        },
        {
          "name": "F3",
          "midi": 53,
          "time": 101.08712499999952,
          "velocity": 0.6141732283464567,
          "duration": 0.26086999999999705
        },
        {
          "name": "A#2",
          "midi": 46,
          "time": 101.08712499999952,
          "velocity": 0.6141732283464567,
          "duration": 0.26086999999999705
        },
        {
          "name": "F3",
          "midi": 53,
          "time": 101.34799499999951,
          "velocity": 0.5669291338582677,
          "duration": 0.26086999999999705
        },
        {
          "name": "A#2",
          "midi": 46,
          "time": 101.34799499999951,
          "velocity": 0.5669291338582677,
          "duration": 0.26086999999999705
        },
        {
          "name": "F3",
          "midi": 53,
          "time": 101.60886499999951,
          "velocity": 0.6141732283464567,
          "duration": 0.26086999999999705
        },
        {
          "name": "A#2",
          "midi": 46,
          "time": 101.60886499999951,
          "velocity": 0.6141732283464567,
          "duration": 0.26086999999999705
        },
        {
          "name": "F3",
          "midi": 53,
          "time": 101.86973499999951,
          "velocity": 0.5590551181102362,
          "duration": 0.13043500000000563
        },
        {
          "name": "A#2",
          "midi": 46,
          "time": 101.86973499999951,
          "velocity": 0.5590551181102362,
          "duration": 0.13043500000000563
        },
        {
          "name": "F3",
          "midi": 53,
          "time": 102.00016999999951,
          "velocity": 0.5984251968503937,
          "duration": 0.26086999999999705
        },
        {
          "name": "A#2",
          "midi": 46,
          "time": 102.00016999999951,
          "velocity": 0.5984251968503937,
          "duration": 0.26086999999999705
        },
        {
          "name": "G3",
          "midi": 55,
          "time": 102.26103999999951,
          "velocity": 0.6535433070866141,
          "duration": 0.26086999999999705
        },
        {
          "name": "C3",
          "midi": 48,
          "time": 102.26103999999951,
          "velocity": 0.6535433070866141,
          "duration": 0.26086999999999705
        },
        {
          "name": "C3",
          "midi": 48,
          "time": 102.52190999999951,
          "velocity": 0.5905511811023622,
          "duration": 0.26086999999999705
        },
        {
          "name": "G3",
          "midi": 55,
          "time": 102.52190999999951,
          "velocity": 0.5905511811023622,
          "duration": 0.26086999999999705
        },
        {
          "name": "G3",
          "midi": 55,
          "time": 102.7827799999995,
          "velocity": 0.5669291338582677,
          "duration": 0.13043500000000563
        },
        {
          "name": "C3",
          "midi": 48,
          "time": 102.7827799999995,
          "velocity": 0.5669291338582677,
          "duration": 0.13043500000000563
        },
        {
          "name": "G3",
          "midi": 55,
          "time": 102.91321499999951,
          "velocity": 0.5905511811023622,
          "duration": 0.26086999999999705
        },
        {
          "name": "C3",
          "midi": 48,
          "time": 102.91321499999951,
          "velocity": 0.5905511811023622,
          "duration": 0.26086999999999705
        },
        {
          "name": "G3",
          "midi": 55,
          "time": 103.17408499999951,
          "velocity": 0.6062992125984252,
          "duration": 0.26086999999999705
        },
        {
          "name": "C3",
          "midi": 48,
          "time": 103.17408499999951,
          "velocity": 0.6062992125984252,
          "duration": 0.26086999999999705
        },
        {
          "name": "G3",
          "midi": 55,
          "time": 103.4349549999995,
          "velocity": 0.5826771653543307,
          "duration": 0.26086999999999705
        },
        {
          "name": "C3",
          "midi": 48,
          "time": 103.4349549999995,
          "velocity": 0.5826771653543307,
          "duration": 0.26086999999999705
        },
        {
          "name": "G3",
          "midi": 55,
          "time": 103.6958249999995,
          "velocity": 0.6062992125984252,
          "duration": 0.26086999999999705
        },
        {
          "name": "C3",
          "midi": 48,
          "time": 103.6958249999995,
          "velocity": 0.6062992125984252,
          "duration": 0.26086999999999705
        },
        {
          "name": "G3",
          "midi": 55,
          "time": 103.9566949999995,
          "velocity": 0.5748031496062992,
          "duration": 0.13043500000000563
        },
        {
          "name": "C3",
          "midi": 48,
          "time": 103.9566949999995,
          "velocity": 0.5748031496062992,
          "duration": 0.13043500000000563
        },
        {
          "name": "G3",
          "midi": 55,
          "time": 104.0871299999995,
          "velocity": 0.6141732283464567,
          "duration": 0.26086999999999705
        },
        {
          "name": "C3",
          "midi": 48,
          "time": 104.0871299999995,
          "velocity": 0.6141732283464567,
          "duration": 0.26086999999999705
        },
        {
          "name": "B2",
          "midi": 47,
          "time": 104.3479999999995,
          "velocity": 0.5905511811023622,
          "duration": 0.26086999999999705
        },
        {
          "name": "G3",
          "midi": 55,
          "time": 104.3479999999995,
          "velocity": 0.5905511811023622,
          "duration": 0.26086999999999705
        },
        {
          "name": "B2",
          "midi": 47,
          "time": 104.6088699999995,
          "velocity": 0.6062992125984252,
          "duration": 0.26086999999999705
        },
        {
          "name": "G3",
          "midi": 55,
          "time": 104.6088699999995,
          "velocity": 0.6062992125984252,
          "duration": 0.26086999999999705
        },
        {
          "name": "G3",
          "midi": 55,
          "time": 104.8697399999995,
          "velocity": 0.6299212598425197,
          "duration": 0.13043500000000563
        },
        {
          "name": "B2",
          "midi": 47,
          "time": 104.8697399999995,
          "velocity": 0.6299212598425197,
          "duration": 0.13043500000000563
        },
        {
          "name": "B2",
          "midi": 47,
          "time": 105.0001749999995,
          "velocity": 0.5984251968503937,
          "duration": 0.26086999999999705
        },
        {
          "name": "G3",
          "midi": 55,
          "time": 105.0001749999995,
          "velocity": 0.5984251968503937,
          "duration": 0.26086999999999705
        },
        {
          "name": "B2",
          "midi": 47,
          "time": 105.2610449999995,
          "velocity": 0.5748031496062992,
          "duration": 0.26086999999999705
        },
        {
          "name": "G3",
          "midi": 55,
          "time": 105.2610449999995,
          "velocity": 0.5748031496062992,
          "duration": 0.26086999999999705
        },
        {
          "name": "B2",
          "midi": 47,
          "time": 105.5219149999995,
          "velocity": 0.6062992125984252,
          "duration": 0.26086999999999705
        },
        {
          "name": "G3",
          "midi": 55,
          "time": 105.5219149999995,
          "velocity": 0.6062992125984252,
          "duration": 0.26086999999999705
        },
        {
          "name": "B2",
          "midi": 47,
          "time": 105.78278499999949,
          "velocity": 0.5826771653543307,
          "duration": 0.26086999999999705
        },
        {
          "name": "G3",
          "midi": 55,
          "time": 105.78278499999949,
          "velocity": 0.5826771653543307,
          "duration": 0.26086999999999705
        },
        {
          "name": "G3",
          "midi": 55,
          "time": 106.04365499999949,
          "velocity": 0.6141732283464567,
          "duration": 0.13043500000000563
        },
        {
          "name": "B2",
          "midi": 47,
          "time": 106.04365499999949,
          "velocity": 0.6141732283464567,
          "duration": 0.13043500000000563
        },
        {
          "name": "B2",
          "midi": 47,
          "time": 106.1740899999995,
          "velocity": 0.5748031496062992,
          "duration": 0.26086999999999705
        },
        {
          "name": "G3",
          "midi": 55,
          "time": 106.1740899999995,
          "velocity": 0.5748031496062992,
          "duration": 0.26086999999999705
        },
        {
          "name": "B2",
          "midi": 47,
          "time": 106.43495999999949,
          "velocity": 0.5905511811023622,
          "duration": 0.26086999999999705
        },
        {
          "name": "G3",
          "midi": 55,
          "time": 106.43495999999949,
          "velocity": 0.5905511811023622,
          "duration": 0.26086999999999705
        },
        {
          "name": "B2",
          "midi": 47,
          "time": 106.69582999999949,
          "velocity": 0.6062992125984252,
          "duration": 0.26086999999999705
        },
        {
          "name": "G3",
          "midi": 55,
          "time": 106.69582999999949,
          "velocity": 0.6062992125984252,
          "duration": 0.26086999999999705
        },
        {
          "name": "G3",
          "midi": 55,
          "time": 106.95669999999949,
          "velocity": 0.6299212598425197,
          "duration": 0.13043500000000563
        },
        {
          "name": "B2",
          "midi": 47,
          "time": 106.95669999999949,
          "velocity": 0.6299212598425197,
          "duration": 0.13043500000000563
        },
        {
          "name": "B2",
          "midi": 47,
          "time": 107.08713499999949,
          "velocity": 0.5984251968503937,
          "duration": 0.26086999999999705
        },
        {
          "name": "G3",
          "midi": 55,
          "time": 107.08713499999949,
          "velocity": 0.5984251968503937,
          "duration": 0.26086999999999705
        },
        {
          "name": "B2",
          "midi": 47,
          "time": 107.34800499999949,
          "velocity": 0.5748031496062992,
          "duration": 0.26086999999999705
        },
        {
          "name": "G3",
          "midi": 55,
          "time": 107.34800499999949,
          "velocity": 0.5748031496062992,
          "duration": 0.26086999999999705
        },
        {
          "name": "B2",
          "midi": 47,
          "time": 107.60887499999949,
          "velocity": 0.6062992125984252,
          "duration": 0.26086999999999705
        },
        {
          "name": "G3",
          "midi": 55,
          "time": 107.60887499999949,
          "velocity": 0.6062992125984252,
          "duration": 0.26086999999999705
        },
        {
          "name": "B2",
          "midi": 47,
          "time": 107.86974499999948,
          "velocity": 0.5826771653543307,
          "duration": 0.26086999999999705
        },
        {
          "name": "G3",
          "midi": 55,
          "time": 107.86974499999948,
          "velocity": 0.5826771653543307,
          "duration": 0.26086999999999705
        },
        {
          "name": "G3",
          "midi": 55,
          "time": 108.13061499999948,
          "velocity": 0.6141732283464567,
          "duration": 0.13043500000000563
        },
        {
          "name": "B2",
          "midi": 47,
          "time": 108.13061499999948,
          "velocity": 0.6141732283464567,
          "duration": 0.13043500000000563
        },
        {
          "name": "B2",
          "midi": 47,
          "time": 108.26104999999949,
          "velocity": 0.5748031496062992,
          "duration": 0.26086999999999705
        },
        {
          "name": "G3",
          "midi": 55,
          "time": 108.26104999999949,
          "velocity": 0.5748031496062992,
          "duration": 0.26086999999999705
        },
        {
          "name": "F3",
          "midi": 53,
          "time": 108.52191999999948,
          "velocity": 0.6220472440944882,
          "duration": 0.26086999999999705
        },
        {
          "name": "A#2",
          "midi": 46,
          "time": 108.52191999999948,
          "velocity": 0.6220472440944882,
          "duration": 0.26086999999999705
        },
        {
          "name": "F3",
          "midi": 53,
          "time": 108.78278999999948,
          "velocity": 0.5905511811023622,
          "duration": 0.26086999999999705
        },
        {
          "name": "A#2",
          "midi": 46,
          "time": 108.78278999999948,
          "velocity": 0.5905511811023622,
          "duration": 0.26086999999999705
        },
        {
          "name": "A#2",
          "midi": 46,
          "time": 109.04365999999948,
          "velocity": 0.6141732283464567,
          "duration": 0.13043500000000563
        },
        {
          "name": "F3",
          "midi": 53,
          "time": 109.04365999999948,
          "velocity": 0.6141732283464567,
          "duration": 0.13043500000000563
        },
        {
          "name": "F3",
          "midi": 53,
          "time": 109.17409499999948,
          "velocity": 0.5905511811023622,
          "duration": 0.26086999999999705
        },
        {
          "name": "A#2",
          "midi": 46,
          "time": 109.17409499999948,
          "velocity": 0.5905511811023622,
          "duration": 0.26086999999999705
        },
        {
          "name": "A#2",
          "midi": 46,
          "time": 109.43496499999948,
          "velocity": 0.5905511811023622,
          "duration": 0.26086999999999705
        },
        {
          "name": "F3",
          "midi": 53,
          "time": 109.43496499999948,
          "velocity": 0.5905511811023622,
          "duration": 0.26086999999999705
        },
        {
          "name": "F3",
          "midi": 53,
          "time": 109.69583499999948,
          "velocity": 0.6220472440944882,
          "duration": 0.26086999999999705
        },
        {
          "name": "A#2",
          "midi": 46,
          "time": 109.69583499999948,
          "velocity": 0.6220472440944882,
          "duration": 0.26086999999999705
        },
        {
          "name": "A#2",
          "midi": 46,
          "time": 109.95670499999947,
          "velocity": 0.5984251968503937,
          "duration": 0.26086999999999705
        },
        {
          "name": "F3",
          "midi": 53,
          "time": 109.95670499999947,
          "velocity": 0.5984251968503937,
          "duration": 0.26086999999999705
        },
        {
          "name": "F3",
          "midi": 53,
          "time": 110.21757499999947,
          "velocity": 0.5905511811023622,
          "duration": 0.13043500000000563
        },
        {
          "name": "A#2",
          "midi": 46,
          "time": 110.21757499999947,
          "velocity": 0.5905511811023622,
          "duration": 0.13043500000000563
        },
        {
          "name": "F3",
          "midi": 53,
          "time": 110.34800999999948,
          "velocity": 0.5748031496062992,
          "duration": 0.26086999999999705
        },
        {
          "name": "A#2",
          "midi": 46,
          "time": 110.34800999999948,
          "velocity": 0.5748031496062992,
          "duration": 0.26086999999999705
        },
        {
          "name": "C3",
          "midi": 48,
          "time": 110.60887999999947,
          "velocity": 0.6141732283464567,
          "duration": 0.26086999999999705
        },
        {
          "name": "G3",
          "midi": 55,
          "time": 110.60887999999947,
          "velocity": 0.6141732283464567,
          "duration": 0.26086999999999705
        },
        {
          "name": "G3",
          "midi": 55,
          "time": 110.86974999999947,
          "velocity": 0.6062992125984252,
          "duration": 0.26086999999999705
        },
        {
          "name": "C3",
          "midi": 48,
          "time": 110.86974999999947,
          "velocity": 0.6062992125984252,
          "duration": 0.26086999999999705
        },
        {
          "name": "C3",
          "midi": 48,
          "time": 111.13061999999947,
          "velocity": 0.5590551181102362,
          "duration": 0.13043500000000563
        },
        {
          "name": "G3",
          "midi": 55,
          "time": 111.13061999999947,
          "velocity": 0.5590551181102362,
          "duration": 0.13043500000000563
        },
        {
          "name": "G3",
          "midi": 55,
          "time": 111.26105499999947,
          "velocity": 0.6220472440944882,
          "duration": 0.26086999999999705
        },
        {
          "name": "C3",
          "midi": 48,
          "time": 111.26105499999947,
          "velocity": 0.6220472440944882,
          "duration": 0.26086999999999705
        },
        {
          "name": "C3",
          "midi": 48,
          "time": 111.52192499999947,
          "velocity": 0.6299212598425197,
          "duration": 0.26086999999999705
        },
        {
          "name": "G3",
          "midi": 55,
          "time": 111.52192499999947,
          "velocity": 0.6299212598425197,
          "duration": 0.26086999999999705
        },
        {
          "name": "G3",
          "midi": 55,
          "time": 111.78279499999947,
          "velocity": 0.5826771653543307,
          "duration": 0.26086999999999705
        },
        {
          "name": "C3",
          "midi": 48,
          "time": 111.78279499999947,
          "velocity": 0.5826771653543307,
          "duration": 0.26086999999999705
        },
        {
          "name": "C3",
          "midi": 48,
          "time": 112.04366499999946,
          "velocity": 0.5905511811023622,
          "duration": 0.26086999999999705
        },
        {
          "name": "G3",
          "midi": 55,
          "time": 112.04366499999946,
          "velocity": 0.5905511811023622,
          "duration": 0.26086999999999705
        },
        {
          "name": "G3",
          "midi": 55,
          "time": 112.30453499999946,
          "velocity": 0.5905511811023622,
          "duration": 0.13043500000000563
        },
        {
          "name": "C3",
          "midi": 48,
          "time": 112.30453499999946,
          "velocity": 0.5905511811023622,
          "duration": 0.13043500000000563
        },
        {
          "name": "G3",
          "midi": 55,
          "time": 112.43496999999947,
          "velocity": 0.5826771653543307,
          "duration": 0.26086999999999705
        },
        {
          "name": "C3",
          "midi": 48,
          "time": 112.43496999999947,
          "velocity": 0.5826771653543307,
          "duration": 0.26086999999999705
        },
        {
          "name": "A3",
          "midi": 57,
          "time": 112.69583999999946,
          "velocity": 0.6535433070866141,
          "duration": 0.13043500000000563
        },
        {
          "name": "D3",
          "midi": 50,
          "time": 112.69583999999946,
          "velocity": 0.6535433070866141,
          "duration": 0.13043500000000563
        },
        {
          "name": "D4",
          "midi": 62,
          "time": 112.69583999999946,
          "velocity": 0.6535433070866141,
          "duration": 0.13043500000000563
        },
        {
          "name": "A3",
          "midi": 57,
          "time": 112.82627499999947,
          "velocity": 0.6535433070866141,
          "duration": 0.13043500000000563
        },
        {
          "name": "D4",
          "midi": 62,
          "time": 112.82627499999947,
          "velocity": 0.6535433070866141,
          "duration": 0.13043500000000563
        },
        {
          "name": "D3",
          "midi": 50,
          "time": 112.82627499999947,
          "velocity": 0.6535433070866141,
          "duration": 0.13043500000000563
        },
        {
          "name": "A3",
          "midi": 57,
          "time": 114.78279999999947,
          "velocity": 0.6535433070866141,
          "duration": 0.13043500000000563
        },
        {
          "name": "D3",
          "midi": 50,
          "time": 114.78279999999947,
          "velocity": 0.6535433070866141,
          "duration": 0.13043500000000563
        },
        {
          "name": "D4",
          "midi": 62,
          "time": 114.78279999999947,
          "velocity": 0.6535433070866141,
          "duration": 0.13043500000000563
        },
        {
          "name": "D3",
          "midi": 50,
          "time": 114.91323499999947,
          "velocity": 0.6535433070866141,
          "duration": 0.13043500000000563
        },
        {
          "name": "D4",
          "midi": 62,
          "time": 114.91323499999947,
          "velocity": 0.6535433070866141,
          "duration": 0.13043500000000563
        },
        {
          "name": "A3",
          "midi": 57,
          "time": 114.91323499999947,
          "velocity": 0.6535433070866141,
          "duration": 0.13043500000000563
        },
        {
          "name": "A3",
          "midi": 57,
          "time": 115.95671499999948,
          "velocity": 0.5826771653543307,
          "duration": 0.26086999999999705
        },
        {
          "name": "D3",
          "midi": 50,
          "time": 115.95671499999948,
          "velocity": 0.5826771653543307,
          "duration": 0.26086999999999705
        },
        {
          "name": "D3",
          "midi": 50,
          "time": 116.21758499999947,
          "velocity": 0.5905511811023622,
          "duration": 0.26086999999999705
        },
        {
          "name": "A3",
          "midi": 57,
          "time": 116.21758499999947,
          "velocity": 0.5905511811023622,
          "duration": 0.26086999999999705
        },
        {
          "name": "A3",
          "midi": 57,
          "time": 116.47845499999947,
          "velocity": 0.5905511811023622,
          "duration": 0.13043500000000563
        },
        {
          "name": "D3",
          "midi": 50,
          "time": 116.47845499999947,
          "velocity": 0.5905511811023622,
          "duration": 0.13043500000000563
        },
        {
          "name": "A3",
          "midi": 57,
          "time": 116.60888999999948,
          "velocity": 0.5826771653543307,
          "duration": 0.26086999999999705
        },
        {
          "name": "D3",
          "midi": 50,
          "time": 116.60888999999948,
          "velocity": 0.5826771653543307,
          "duration": 0.26086999999999705
        },
        {
          "name": "F3",
          "midi": 53,
          "time": 116.86975999999947,
          "velocity": 0.5590551181102362,
          "duration": 0.26086999999999705
        },
        {
          "name": "A#2",
          "midi": 46,
          "time": 116.86975999999947,
          "velocity": 0.5590551181102362,
          "duration": 0.26086999999999705
        },
        {
          "name": "A#2",
          "midi": 46,
          "time": 117.13062999999947,
          "velocity": 0.6220472440944882,
          "duration": 0.26086999999999705
        },
        {
          "name": "F3",
          "midi": 53,
          "time": 117.13062999999947,
          "velocity": 0.6220472440944882,
          "duration": 0.26086999999999705
        },
        {
          "name": "F3",
          "midi": 53,
          "time": 117.39149999999947,
          "velocity": 0.6141732283464567,
          "duration": 0.13043500000000563
        },
        {
          "name": "A#2",
          "midi": 46,
          "time": 117.39149999999947,
          "velocity": 0.6141732283464567,
          "duration": 0.13043500000000563
        },
        {
          "name": "F3",
          "midi": 53,
          "time": 117.52193499999947,
          "velocity": 0.6141732283464567,
          "duration": 0.26086999999999705
        },
        {
          "name": "A#2",
          "midi": 46,
          "time": 117.52193499999947,
          "velocity": 0.6141732283464567,
          "duration": 0.26086999999999705
        },
        {
          "name": "A#2",
          "midi": 46,
          "time": 117.78280499999947,
          "velocity": 0.6141732283464567,
          "duration": 0.26086999999999705
        },
        {
          "name": "F3",
          "midi": 53,
          "time": 117.78280499999947,
          "velocity": 0.6141732283464567,
          "duration": 0.26086999999999705
        },
        {
          "name": "F3",
          "midi": 53,
          "time": 118.04367499999947,
          "velocity": 0.5905511811023622,
          "duration": 0.26086999999999705
        },
        {
          "name": "A#2",
          "midi": 46,
          "time": 118.04367499999947,
          "velocity": 0.5905511811023622,
          "duration": 0.26086999999999705
        },
        {
          "name": "A#2",
          "midi": 46,
          "time": 118.30454499999946,
          "velocity": 0.5905511811023622,
          "duration": 0.26086999999999705
        },
        {
          "name": "F3",
          "midi": 53,
          "time": 118.30454499999946,
          "velocity": 0.5905511811023622,
          "duration": 0.26086999999999705
        },
        {
          "name": "F3",
          "midi": 53,
          "time": 118.56541499999946,
          "velocity": 0.6299212598425197,
          "duration": 0.13043500000000563
        },
        {
          "name": "A#2",
          "midi": 46,
          "time": 118.56541499999946,
          "velocity": 0.6299212598425197,
          "duration": 0.13043500000000563
        },
        {
          "name": "A#2",
          "midi": 46,
          "time": 118.69584999999947,
          "velocity": 0.5984251968503937,
          "duration": 0.26086999999999705
        },
        {
          "name": "F3",
          "midi": 53,
          "time": 118.69584999999947,
          "velocity": 0.5984251968503937,
          "duration": 0.26086999999999705
        },
        {
          "name": "G3",
          "midi": 55,
          "time": 118.95671999999946,
          "velocity": 0.6062992125984252,
          "duration": 0.26086999999999705
        },
        {
          "name": "C3",
          "midi": 48,
          "time": 118.95671999999946,
          "velocity": 0.6062992125984252,
          "duration": 0.26086999999999705
        },
        {
          "name": "C3",
          "midi": 48,
          "time": 119.21758999999946,
          "velocity": 0.5826771653543307,
          "duration": 0.26086999999999705
        },
        {
          "name": "G3",
          "midi": 55,
          "time": 119.21758999999946,
          "velocity": 0.5826771653543307,
          "duration": 0.26086999999999705
        },
        {
          "name": "G3",
          "midi": 55,
          "time": 119.47845999999946,
          "velocity": 0.6141732283464567,
          "duration": 0.13043500000000563
        },
        {
          "name": "C3",
          "midi": 48,
          "time": 119.47845999999946,
          "velocity": 0.6141732283464567,
          "duration": 0.13043500000000563
        },
        {
          "name": "G3",
          "midi": 55,
          "time": 119.60889499999946,
          "velocity": 0.5905511811023622,
          "duration": 0.26086999999999705
        },
        {
          "name": "C3",
          "midi": 48,
          "time": 119.60889499999946,
          "velocity": 0.5905511811023622,
          "duration": 0.26086999999999705
        },
        {
          "name": "C3",
          "midi": 48,
          "time": 119.86976499999946,
          "velocity": 0.5748031496062992,
          "duration": 0.26086999999999705
        },
        {
          "name": "G3",
          "midi": 55,
          "time": 119.86976499999946,
          "velocity": 0.5748031496062992,
          "duration": 0.26086999999999705
        },
        {
          "name": "G3",
          "midi": 55,
          "time": 120.13063499999946,
          "velocity": 0.5826771653543307,
          "duration": 0.26086999999999705
        },
        {
          "name": "C3",
          "midi": 48,
          "time": 120.13063499999946,
          "velocity": 0.5826771653543307,
          "duration": 0.26086999999999705
        },
        {
          "name": "C3",
          "midi": 48,
          "time": 120.39150499999946,
          "velocity": 0.6141732283464567,
          "duration": 0.26086999999999705
        },
        {
          "name": "G3",
          "midi": 55,
          "time": 120.39150499999946,
          "velocity": 0.6141732283464567,
          "duration": 0.26086999999999705
        },
        {
          "name": "G3",
          "midi": 55,
          "time": 120.65237499999945,
          "velocity": 0.5984251968503937,
          "duration": 0.13043500000000563
        },
        {
          "name": "C3",
          "midi": 48,
          "time": 120.65237499999945,
          "velocity": 0.5984251968503937,
          "duration": 0.13043500000000563
        },
        {
          "name": "C3",
          "midi": 48,
          "time": 120.78280999999946,
          "velocity": 0.6141732283464567,
          "duration": 0.26086999999999705
        },
        {
          "name": "G3",
          "midi": 55,
          "time": 120.78280999999946,
          "velocity": 0.6141732283464567,
          "duration": 0.26086999999999705
        },
        {
          "name": "A3",
          "midi": 57,
          "time": 121.04367999999945,
          "velocity": 0.6692913385826772,
          "duration": 0.26086999999999705
        },
        {
          "name": "D3",
          "midi": 50,
          "time": 121.04367999999945,
          "velocity": 0.6692913385826772,
          "duration": 0.26086999999999705
        },
        {
          "name": "D3",
          "midi": 50,
          "time": 121.30454999999945,
          "velocity": 0.5905511811023622,
          "duration": 0.26086999999999705
        },
        {
          "name": "A3",
          "midi": 57,
          "time": 121.30454999999945,
          "velocity": 0.5905511811023622,
          "duration": 0.26086999999999705
        },
        {
          "name": "A3",
          "midi": 57,
          "time": 121.56541999999945,
          "velocity": 0.5669291338582677,
          "duration": 0.13043500000000563
        },
        {
          "name": "D3",
          "midi": 50,
          "time": 121.56541999999945,
          "velocity": 0.5669291338582677,
          "duration": 0.13043500000000563
        },
        {
          "name": "A3",
          "midi": 57,
          "time": 121.69585499999945,
          "velocity": 0.5984251968503937,
          "duration": 0.26086999999999705
        },
        {
          "name": "D3",
          "midi": 50,
          "time": 121.69585499999945,
          "velocity": 0.5984251968503937,
          "duration": 0.26086999999999705
        },
        {
          "name": "C#3",
          "midi": 49,
          "time": 121.95672499999945,
          "velocity": 0.5669291338582677,
          "duration": 0.26086999999999705
        },
        {
          "name": "G#3",
          "midi": 56,
          "time": 121.95672499999945,
          "velocity": 0.5669291338582677,
          "duration": 0.26086999999999705
        },
        {
          "name": "G#3",
          "midi": 56,
          "time": 122.21759499999945,
          "velocity": 0.6377952755905512,
          "duration": 0.26086999999999705
        },
        {
          "name": "C#3",
          "midi": 49,
          "time": 122.21759499999945,
          "velocity": 0.6377952755905512,
          "duration": 0.26086999999999705
        },
        {
          "name": "C#3",
          "midi": 49,
          "time": 122.47846499999945,
          "velocity": 0.6377952755905512,
          "duration": 0.26086999999999705
        },
        {
          "name": "G#3",
          "midi": 56,
          "time": 122.47846499999945,
          "velocity": 0.6377952755905512,
          "duration": 0.26086999999999705
        },
        {
          "name": "G#3",
          "midi": 56,
          "time": 122.73933499999944,
          "velocity": 0.5905511811023622,
          "duration": 0.13043500000000563
        },
        {
          "name": "C#3",
          "midi": 49,
          "time": 122.73933499999944,
          "velocity": 0.5905511811023622,
          "duration": 0.13043500000000563
        },
        {
          "name": "C#3",
          "midi": 49,
          "time": 122.86976999999945,
          "velocity": 0.6220472440944882,
          "duration": 0.26086999999999705
        },
        {
          "name": "G#3",
          "midi": 56,
          "time": 122.86976999999945,
          "velocity": 0.6220472440944882,
          "duration": 0.26086999999999705
        },
        {
          "name": "G3",
          "midi": 55,
          "time": 123.13063999999945,
          "velocity": 0.5984251968503937,
          "duration": 0.26086999999999705
        },
        {
          "name": "C3",
          "midi": 48,
          "time": 123.13063999999945,
          "velocity": 0.5984251968503937,
          "duration": 0.26086999999999705
        },
        {
          "name": "C3",
          "midi": 48,
          "time": 123.39150999999944,
          "velocity": 0.5905511811023622,
          "duration": 0.26086999999999705
        },
        {
          "name": "G3",
          "midi": 55,
          "time": 123.39150999999944,
          "velocity": 0.5905511811023622,
          "duration": 0.26086999999999705
        },
        {
          "name": "G3",
          "midi": 55,
          "time": 123.65237999999944,
          "velocity": 0.5905511811023622,
          "duration": 0.13043500000000563
        },
        {
          "name": "C3",
          "midi": 48,
          "time": 123.65237999999944,
          "velocity": 0.5905511811023622,
          "duration": 0.13043500000000563
        },
        {
          "name": "G3",
          "midi": 55,
          "time": 123.78281499999945,
          "velocity": 0.5905511811023622,
          "duration": 0.26086999999999705
        },
        {
          "name": "C3",
          "midi": 48,
          "time": 123.78281499999945,
          "velocity": 0.5905511811023622,
          "duration": 0.26086999999999705
        },
        {
          "name": "B2",
          "midi": 47,
          "time": 124.04368499999944,
          "velocity": 0.5826771653543307,
          "duration": 0.26086999999999705
        },
        {
          "name": "G3",
          "midi": 55,
          "time": 124.04368499999944,
          "velocity": 0.5826771653543307,
          "duration": 0.26086999999999705
        },
        {
          "name": "G3",
          "midi": 55,
          "time": 124.30455499999944,
          "velocity": 0.6062992125984252,
          "duration": 0.26086999999999705
        },
        {
          "name": "B2",
          "midi": 47,
          "time": 124.30455499999944,
          "velocity": 0.6062992125984252,
          "duration": 0.26086999999999705
        },
        {
          "name": "B2",
          "midi": 47,
          "time": 124.56542499999944,
          "velocity": 0.5984251968503937,
          "duration": 0.26086999999999705
        },
        {
          "name": "G3",
          "midi": 55,
          "time": 124.56542499999944,
          "velocity": 0.5984251968503937,
          "duration": 0.26086999999999705
        },
        {
          "name": "G3",
          "midi": 55,
          "time": 124.82629499999943,
          "velocity": 0.6062992125984252,
          "duration": 0.13043500000000563
        },
        {
          "name": "B2",
          "midi": 47,
          "time": 124.82629499999943,
          "velocity": 0.6062992125984252,
          "duration": 0.13043500000000563
        },
        {
          "name": "B2",
          "midi": 47,
          "time": 124.95672999999944,
          "velocity": 0.5826771653543307,
          "duration": 0.26086999999999705
        },
        {
          "name": "G3",
          "midi": 55,
          "time": 124.95672999999944,
          "velocity": 0.5826771653543307,
          "duration": 0.26086999999999705
        },
        {
          "name": "F3",
          "midi": 53,
          "time": 125.21759999999944,
          "velocity": 0.6062992125984252,
          "duration": 0.26086999999999705
        },
        {
          "name": "A#2",
          "midi": 46,
          "time": 125.21759999999944,
          "velocity": 0.6062992125984252,
          "duration": 0.26086999999999705
        },
        {
          "name": "A#2",
          "midi": 46,
          "time": 125.47846999999943,
          "velocity": 0.5905511811023622,
          "duration": 0.26086999999999705
        },
        {
          "name": "F3",
          "midi": 53,
          "time": 125.47846999999943,
          "velocity": 0.5905511811023622,
          "duration": 0.26086999999999705
        },
        {
          "name": "F3",
          "midi": 53,
          "time": 125.73933999999943,
          "velocity": 0.6141732283464567,
          "duration": 0.13043500000000563
        },
        {
          "name": "A#2",
          "midi": 46,
          "time": 125.73933999999943,
          "velocity": 0.6141732283464567,
          "duration": 0.13043500000000563
        },
        {
          "name": "F3",
          "midi": 53,
          "time": 125.86977499999944,
          "velocity": 0.5905511811023622,
          "duration": 0.26086999999999705
        },
        {
          "name": "A#2",
          "midi": 46,
          "time": 125.86977499999944,
          "velocity": 0.5905511811023622,
          "duration": 0.26086999999999705
        },
        {
          "name": "A#2",
          "midi": 46,
          "time": 126.13064499999943,
          "velocity": 0.6220472440944882,
          "duration": 0.26086999999999705
        },
        {
          "name": "F3",
          "midi": 53,
          "time": 126.13064499999943,
          "velocity": 0.6220472440944882,
          "duration": 0.26086999999999705
        },
        {
          "name": "F3",
          "midi": 53,
          "time": 126.39151499999943,
          "velocity": 0.6299212598425197,
          "duration": 0.26086999999999705
        },
        {
          "name": "A#2",
          "midi": 46,
          "time": 126.39151499999943,
          "velocity": 0.6299212598425197,
          "duration": 0.26086999999999705
        },
        {
          "name": "A#2",
          "midi": 46,
          "time": 126.65238499999943,
          "velocity": 0.5905511811023622,
          "duration": 0.26086999999999705
        },
        {
          "name": "F3",
          "midi": 53,
          "time": 126.65238499999943,
          "velocity": 0.5905511811023622,
          "duration": 0.26086999999999705
        },
        {
          "name": "F3",
          "midi": 53,
          "time": 126.91325499999942,
          "velocity": 0.6062992125984252,
          "duration": 0.13043500000000563
        },
        {
          "name": "A#2",
          "midi": 46,
          "time": 126.91325499999942,
          "velocity": 0.6062992125984252,
          "duration": 0.13043500000000563
        },
        {
          "name": "A#2",
          "midi": 46,
          "time": 127.04368999999943,
          "velocity": 0.6377952755905512,
          "duration": 0.26086999999999705
        },
        {
          "name": "F3",
          "midi": 53,
          "time": 127.04368999999943,
          "velocity": 0.6377952755905512,
          "duration": 0.26086999999999705
        },
        {
          "name": "G3",
          "midi": 55,
          "time": 127.30455999999943,
          "velocity": 0.6141732283464567,
          "duration": 0.26086999999999705
        },
        {
          "name": "C3",
          "midi": 48,
          "time": 127.30455999999943,
          "velocity": 0.6141732283464567,
          "duration": 0.26086999999999705
        },
        {
          "name": "C3",
          "midi": 48,
          "time": 127.56542999999942,
          "velocity": 0.6062992125984252,
          "duration": 0.26086999999999705
        },
        {
          "name": "G3",
          "midi": 55,
          "time": 127.56542999999942,
          "velocity": 0.6062992125984252,
          "duration": 0.26086999999999705
        },
        {
          "name": "G3",
          "midi": 55,
          "time": 127.82629999999942,
          "velocity": 0.5826771653543307,
          "duration": 0.13043500000000563
        },
        {
          "name": "C3",
          "midi": 48,
          "time": 127.82629999999942,
          "velocity": 0.5826771653543307,
          "duration": 0.13043500000000563
        },
        {
          "name": "G3",
          "midi": 55,
          "time": 127.95673499999943,
          "velocity": 0.6377952755905512,
          "duration": 0.26086999999999705
        },
        {
          "name": "C3",
          "midi": 48,
          "time": 127.95673499999943,
          "velocity": 0.6377952755905512,
          "duration": 0.26086999999999705
        },
        {
          "name": "C3",
          "midi": 48,
          "time": 128.21760499999942,
          "velocity": 0.5984251968503937,
          "duration": 0.26087000000001126
        },
        {
          "name": "G3",
          "midi": 55,
          "time": 128.21760499999942,
          "velocity": 0.5984251968503937,
          "duration": 0.26087000000001126
        },
        {
          "name": "G3",
          "midi": 55,
          "time": 128.47847499999943,
          "velocity": 0.6141732283464567,
          "duration": 0.26087000000001126
        },
        {
          "name": "C3",
          "midi": 48,
          "time": 128.47847499999943,
          "velocity": 0.6141732283464567,
          "duration": 0.26087000000001126
        },
        {
          "name": "C3",
          "midi": 48,
          "time": 128.73934499999945,
          "velocity": 0.5748031496062992,
          "duration": 0.26087000000001126
        },
        {
          "name": "G3",
          "midi": 55,
          "time": 128.73934499999945,
          "velocity": 0.5748031496062992,
          "duration": 0.26087000000001126
        },
        {
          "name": "G3",
          "midi": 55,
          "time": 129.00021499999946,
          "velocity": 0.6220472440944882,
          "duration": 0.13043500000000563
        },
        {
          "name": "C3",
          "midi": 48,
          "time": 129.00021499999946,
          "velocity": 0.6220472440944882,
          "duration": 0.13043500000000563
        },
        {
          "name": "C3",
          "midi": 48,
          "time": 129.13064999999946,
          "velocity": 0.6141732283464567,
          "duration": 0.26087000000001126
        },
        {
          "name": "G3",
          "midi": 55,
          "time": 129.13064999999946,
          "velocity": 0.6141732283464567,
          "duration": 0.26087000000001126
        },
        {
          "name": "A3",
          "midi": 57,
          "time": 129.39151999999947,
          "velocity": 0.5984251968503937,
          "duration": 0.26087000000001126
        },
        {
          "name": "D3",
          "midi": 50,
          "time": 129.39151999999947,
          "velocity": 0.5984251968503937,
          "duration": 0.26087000000001126
        },
        {
          "name": "D3",
          "midi": 50,
          "time": 129.65238999999949,
          "velocity": 0.5826771653543307,
          "duration": 0.26087000000001126
        },
        {
          "name": "A3",
          "midi": 57,
          "time": 129.65238999999949,
          "velocity": 0.5826771653543307,
          "duration": 0.26087000000001126
        },
        {
          "name": "A3",
          "midi": 57,
          "time": 129.9132599999995,
          "velocity": 0.6456692913385826,
          "duration": 0.13043500000000563
        },
        {
          "name": "D3",
          "midi": 50,
          "time": 129.9132599999995,
          "velocity": 0.6456692913385826,
          "duration": 0.13043500000000563
        },
        {
          "name": "A3",
          "midi": 57,
          "time": 130.0436949999995,
          "velocity": 0.6141732283464567,
          "duration": 0.26087000000001126
        },
        {
          "name": "D3",
          "midi": 50,
          "time": 130.0436949999995,
          "velocity": 0.6141732283464567,
          "duration": 0.26087000000001126
        },
        {
          "name": "D3",
          "midi": 50,
          "time": 130.3045649999995,
          "velocity": 0.6299212598425197,
          "duration": 0.26087000000001126
        },
        {
          "name": "A3",
          "midi": 57,
          "time": 130.3045649999995,
          "velocity": 0.6299212598425197,
          "duration": 0.26087000000001126
        },
        {
          "name": "A3",
          "midi": 57,
          "time": 130.56543499999952,
          "velocity": 0.5905511811023622,
          "duration": 0.26087000000001126
        },
        {
          "name": "D3",
          "midi": 50,
          "time": 130.56543499999952,
          "velocity": 0.5905511811023622,
          "duration": 0.26087000000001126
        },
        {
          "name": "D3",
          "midi": 50,
          "time": 130.82630499999954,
          "velocity": 0.6220472440944882,
          "duration": 0.26087000000001126
        },
        {
          "name": "A3",
          "midi": 57,
          "time": 130.82630499999954,
          "velocity": 0.6220472440944882,
          "duration": 0.26087000000001126
        },
        {
          "name": "A3",
          "midi": 57,
          "time": 131.08717499999955,
          "velocity": 0.6062992125984252,
          "duration": 0.13043500000000563
        },
        {
          "name": "D3",
          "midi": 50,
          "time": 131.08717499999955,
          "velocity": 0.6062992125984252,
          "duration": 0.13043500000000563
        },
        {
          "name": "D3",
          "midi": 50,
          "time": 131.21760999999955,
          "velocity": 0.5590551181102362,
          "duration": 0.26087000000001126
        },
        {
          "name": "A3",
          "midi": 57,
          "time": 131.21760999999955,
          "velocity": 0.5590551181102362,
          "duration": 0.26087000000001126
        },
        {
          "name": "A3",
          "midi": 57,
          "time": 131.47847999999956,
          "velocity": 0.6141732283464567,
          "duration": 0.26087000000001126
        },
        {
          "name": "D3",
          "midi": 50,
          "time": 131.47847999999956,
          "velocity": 0.6141732283464567,
          "duration": 0.26087000000001126
        },
        {
          "name": "D3",
          "midi": 50,
          "time": 131.73934999999958,
          "velocity": 0.6141732283464567,
          "duration": 0.26087000000001126
        },
        {
          "name": "A3",
          "midi": 57,
          "time": 131.73934999999958,
          "velocity": 0.6141732283464567,
          "duration": 0.26087000000001126
        },
        {
          "name": "A3",
          "midi": 57,
          "time": 132.0002199999996,
          "velocity": 0.6141732283464567,
          "duration": 0.13043500000000563
        },
        {
          "name": "D3",
          "midi": 50,
          "time": 132.0002199999996,
          "velocity": 0.6141732283464567,
          "duration": 0.13043500000000563
        },
        {
          "name": "A3",
          "midi": 57,
          "time": 132.1306549999996,
          "velocity": 0.6220472440944882,
          "duration": 0.26087000000001126
        },
        {
          "name": "D3",
          "midi": 50,
          "time": 132.1306549999996,
          "velocity": 0.6220472440944882,
          "duration": 0.26087000000001126
        },
        {
          "name": "D3",
          "midi": 50,
          "time": 132.3915249999996,
          "velocity": 0.6062992125984252,
          "duration": 0.26087000000001126
        },
        {
          "name": "A3",
          "midi": 57,
          "time": 132.3915249999996,
          "velocity": 0.6062992125984252,
          "duration": 0.26087000000001126
        },
        {
          "name": "A3",
          "midi": 57,
          "time": 132.65239499999961,
          "velocity": 0.5905511811023622,
          "duration": 0.26087000000001126
        },
        {
          "name": "D3",
          "midi": 50,
          "time": 132.65239499999961,
          "velocity": 0.5905511811023622,
          "duration": 0.26087000000001126
        },
        {
          "name": "D3",
          "midi": 50,
          "time": 132.91326499999963,
          "velocity": 0.5826771653543307,
          "duration": 0.26087000000001126
        },
        {
          "name": "A3",
          "midi": 57,
          "time": 132.91326499999963,
          "velocity": 0.5826771653543307,
          "duration": 0.26087000000001126
        },
        {
          "name": "A3",
          "midi": 57,
          "time": 133.17413499999964,
          "velocity": 0.5984251968503937,
          "duration": 0.13043500000000563
        },
        {
          "name": "D3",
          "midi": 50,
          "time": 133.17413499999964,
          "velocity": 0.5984251968503937,
          "duration": 0.13043500000000563
        },
        {
          "name": "D3",
          "midi": 50,
          "time": 133.30456999999964,
          "velocity": 0.5669291338582677,
          "duration": 0.26087000000001126
        },
        {
          "name": "A3",
          "midi": 57,
          "time": 133.30456999999964,
          "velocity": 0.5669291338582677,
          "duration": 0.26087000000001126
        },
        {
          "name": "F3",
          "midi": 53,
          "time": 133.56543999999965,
          "velocity": 0.5826771653543307,
          "duration": 0.26087000000001126
        },
        {
          "name": "A#2",
          "midi": 46,
          "time": 133.56543999999965,
          "velocity": 0.5826771653543307,
          "duration": 0.26087000000001126
        },
        {
          "name": "A#2",
          "midi": 46,
          "time": 133.82630999999967,
          "velocity": 0.5905511811023622,
          "duration": 0.26087000000001126
        },
        {
          "name": "F3",
          "midi": 53,
          "time": 133.82630999999967,
          "velocity": 0.5905511811023622,
          "duration": 0.26087000000001126
        },
        {
          "name": "F3",
          "midi": 53,
          "time": 134.08717999999968,
          "velocity": 0.5669291338582677,
          "duration": 0.13043500000000563
        },
        {
          "name": "A#2",
          "midi": 46,
          "time": 134.08717999999968,
          "velocity": 0.5669291338582677,
          "duration": 0.13043500000000563
        },
        {
          "name": "F3",
          "midi": 53,
          "time": 134.21761499999968,
          "velocity": 0.6062992125984252,
          "duration": 0.26087000000001126
        },
        {
          "name": "A#2",
          "midi": 46,
          "time": 134.21761499999968,
          "velocity": 0.6062992125984252,
          "duration": 0.26087000000001126
        },
        {
          "name": "A#2",
          "midi": 46,
          "time": 134.4784849999997,
          "velocity": 0.6220472440944882,
          "duration": 0.26087000000001126
        },
        {
          "name": "F3",
          "midi": 53,
          "time": 134.4784849999997,
          "velocity": 0.6220472440944882,
          "duration": 0.26087000000001126
        },
        {
          "name": "F3",
          "midi": 53,
          "time": 134.7393549999997,
          "velocity": 0.6141732283464567,
          "duration": 0.26087000000001126
        },
        {
          "name": "A#2",
          "midi": 46,
          "time": 134.7393549999997,
          "velocity": 0.6141732283464567,
          "duration": 0.26087000000001126
        },
        {
          "name": "A#2",
          "midi": 46,
          "time": 135.00022499999972,
          "velocity": 0.6062992125984252,
          "duration": 0.26087000000001126
        },
        {
          "name": "F3",
          "midi": 53,
          "time": 135.00022499999972,
          "velocity": 0.6062992125984252,
          "duration": 0.26087000000001126
        },
        {
          "name": "F3",
          "midi": 53,
          "time": 135.26109499999973,
          "velocity": 0.5748031496062992,
          "duration": 0.13043500000000563
        },
        {
          "name": "A#2",
          "midi": 46,
          "time": 135.26109499999973,
          "velocity": 0.5748031496062992,
          "duration": 0.13043500000000563
        },
        {
          "name": "A#2",
          "midi": 46,
          "time": 135.39152999999973,
          "velocity": 0.6456692913385826,
          "duration": 0.26087000000001126
        },
        {
          "name": "F3",
          "midi": 53,
          "time": 135.39152999999973,
          "velocity": 0.6456692913385826,
          "duration": 0.26087000000001126
        },
        {
          "name": "G3",
          "midi": 55,
          "time": 135.65239999999974,
          "velocity": 0.6220472440944882,
          "duration": 0.26087000000001126
        },
        {
          "name": "C3",
          "midi": 48,
          "time": 135.65239999999974,
          "velocity": 0.6220472440944882,
          "duration": 0.26087000000001126
        },
        {
          "name": "C3",
          "midi": 48,
          "time": 135.91326999999976,
          "velocity": 0.5590551181102362,
          "duration": 0.26087000000001126
        },
        {
          "name": "G3",
          "midi": 55,
          "time": 135.91326999999976,
          "velocity": 0.5590551181102362,
          "duration": 0.26087000000001126
        },
        {
          "name": "G3",
          "midi": 55,
          "time": 136.17413999999977,
          "velocity": 0.6299212598425197,
          "duration": 0.13043500000000563
        },
        {
          "name": "C3",
          "midi": 48,
          "time": 136.17413999999977,
          "velocity": 0.6299212598425197,
          "duration": 0.13043500000000563
        },
        {
          "name": "G3",
          "midi": 55,
          "time": 136.30457499999977,
          "velocity": 0.5748031496062992,
          "duration": 0.26087000000001126
        },
        {
          "name": "C3",
          "midi": 48,
          "time": 136.30457499999977,
          "velocity": 0.5748031496062992,
          "duration": 0.26087000000001126
        },
        {
          "name": "C3",
          "midi": 48,
          "time": 136.56544499999978,
          "velocity": 0.5984251968503937,
          "duration": 0.26087000000001126
        },
        {
          "name": "G3",
          "midi": 55,
          "time": 136.56544499999978,
          "velocity": 0.5984251968503937,
          "duration": 0.26087000000001126
        },
        {
          "name": "G3",
          "midi": 55,
          "time": 136.8263149999998,
          "velocity": 0.6141732283464567,
          "duration": 0.26087000000001126
        },
        {
          "name": "C3",
          "midi": 48,
          "time": 136.8263149999998,
          "velocity": 0.6141732283464567,
          "duration": 0.26087000000001126
        },
        {
          "name": "C3",
          "midi": 48,
          "time": 137.0871849999998,
          "velocity": 0.5984251968503937,
          "duration": 0.26087000000001126
        },
        {
          "name": "G3",
          "midi": 55,
          "time": 137.0871849999998,
          "velocity": 0.5984251968503937,
          "duration": 0.26087000000001126
        },
        {
          "name": "G3",
          "midi": 55,
          "time": 137.34805499999982,
          "velocity": 0.5905511811023622,
          "duration": 0.13043500000000563
        },
        {
          "name": "C3",
          "midi": 48,
          "time": 137.34805499999982,
          "velocity": 0.5905511811023622,
          "duration": 0.13043500000000563
        },
        {
          "name": "C3",
          "midi": 48,
          "time": 137.47848999999982,
          "velocity": 0.6062992125984252,
          "duration": 0.26087000000001126
        },
        {
          "name": "G3",
          "midi": 55,
          "time": 137.47848999999982,
          "velocity": 0.6062992125984252,
          "duration": 0.26087000000001126
        },
        {
          "name": "A3",
          "midi": 57,
          "time": 137.73935999999983,
          "velocity": 0.6141732283464567,
          "duration": 0.26087000000001126
        },
        {
          "name": "D3",
          "midi": 50,
          "time": 137.73935999999983,
          "velocity": 0.6141732283464567,
          "duration": 0.26087000000001126
        },
        {
          "name": "D3",
          "midi": 50,
          "time": 138.00022999999985,
          "velocity": 0.5826771653543307,
          "duration": 0.26087000000001126
        },
        {
          "name": "A3",
          "midi": 57,
          "time": 138.00022999999985,
          "velocity": 0.5826771653543307,
          "duration": 0.26087000000001126
        },
        {
          "name": "A3",
          "midi": 57,
          "time": 138.26109999999986,
          "velocity": 0.6141732283464567,
          "duration": 0.13043500000000563
        },
        {
          "name": "D3",
          "midi": 50,
          "time": 138.26109999999986,
          "velocity": 0.6141732283464567,
          "duration": 0.13043500000000563
        },
        {
          "name": "A3",
          "midi": 57,
          "time": 138.39153499999986,
          "velocity": 0.6062992125984252,
          "duration": 0.26087000000001126
        },
        {
          "name": "D3",
          "midi": 50,
          "time": 138.39153499999986,
          "velocity": 0.6062992125984252,
          "duration": 0.26087000000001126
        },
        {
          "name": "C#3",
          "midi": 49,
          "time": 138.65240499999987,
          "velocity": 0.5905511811023622,
          "duration": 0.26087000000001126
        },
        {
          "name": "G#3",
          "midi": 56,
          "time": 138.65240499999987,
          "velocity": 0.5905511811023622,
          "duration": 0.26087000000001126
        },
        {
          "name": "G#3",
          "midi": 56,
          "time": 138.91327499999989,
          "velocity": 0.6299212598425197,
          "duration": 0.26087000000001126
        },
        {
          "name": "C#3",
          "midi": 49,
          "time": 138.91327499999989,
          "velocity": 0.6299212598425197,
          "duration": 0.26087000000001126
        },
        {
          "name": "C#3",
          "midi": 49,
          "time": 139.1741449999999,
          "velocity": 0.5826771653543307,
          "duration": 0.26087000000001126
        },
        {
          "name": "G#3",
          "midi": 56,
          "time": 139.1741449999999,
          "velocity": 0.5826771653543307,
          "duration": 0.26087000000001126
        },
        {
          "name": "G#3",
          "midi": 56,
          "time": 139.4350149999999,
          "velocity": 0.6141732283464567,
          "duration": 0.13043500000000563
        },
        {
          "name": "C#3",
          "midi": 49,
          "time": 139.4350149999999,
          "velocity": 0.6141732283464567,
          "duration": 0.13043500000000563
        },
        {
          "name": "C#3",
          "midi": 49,
          "time": 139.5654499999999,
          "velocity": 0.6220472440944882,
          "duration": 0.26087000000001126
        },
        {
          "name": "G#3",
          "midi": 56,
          "time": 139.5654499999999,
          "velocity": 0.6220472440944882,
          "duration": 0.26087000000001126
        },
        {
          "name": "G3",
          "midi": 55,
          "time": 139.82631999999992,
          "velocity": 0.5826771653543307,
          "duration": 0.26087000000001126
        },
        {
          "name": "C3",
          "midi": 48,
          "time": 139.82631999999992,
          "velocity": 0.5826771653543307,
          "duration": 0.26087000000001126
        },
        {
          "name": "C3",
          "midi": 48,
          "time": 140.08718999999994,
          "velocity": 0.6062992125984252,
          "duration": 0.26087000000001126
        },
        {
          "name": "G3",
          "midi": 55,
          "time": 140.08718999999994,
          "velocity": 0.6062992125984252,
          "duration": 0.26087000000001126
        },
        {
          "name": "G3",
          "midi": 55,
          "time": 140.34805999999995,
          "velocity": 0.6062992125984252,
          "duration": 0.13043500000000563
        },
        {
          "name": "C3",
          "midi": 48,
          "time": 140.34805999999995,
          "velocity": 0.6062992125984252,
          "duration": 0.13043500000000563
        },
        {
          "name": "G3",
          "midi": 55,
          "time": 140.47849499999995,
          "velocity": 0.5905511811023622,
          "duration": 0.26087000000001126
        },
        {
          "name": "C3",
          "midi": 48,
          "time": 140.47849499999995,
          "velocity": 0.5905511811023622,
          "duration": 0.26087000000001126
        },
        {
          "name": "B2",
          "midi": 47,
          "time": 140.73936499999996,
          "velocity": 0.5669291338582677,
          "duration": 0.26087000000001126
        },
        {
          "name": "G3",
          "midi": 55,
          "time": 140.73936499999996,
          "velocity": 0.5669291338582677,
          "duration": 0.26087000000001126
        },
        {
          "name": "G3",
          "midi": 55,
          "time": 141.00023499999998,
          "velocity": 0.5984251968503937,
          "duration": 0.26087000000001126
        },
        {
          "name": "B2",
          "midi": 47,
          "time": 141.00023499999998,
          "velocity": 0.5984251968503937,
          "duration": 0.26087000000001126
        },
        {
          "name": "B2",
          "midi": 47,
          "time": 141.261105,
          "velocity": 0.5984251968503937,
          "duration": 0.26087000000001126
        },
        {
          "name": "G3",
          "midi": 55,
          "time": 141.261105,
          "velocity": 0.5984251968503937,
          "duration": 0.26087000000001126
        },
        {
          "name": "G3",
          "midi": 55,
          "time": 141.521975,
          "velocity": 0.6141732283464567,
          "duration": 0.13043500000000563
        },
        {
          "name": "B2",
          "midi": 47,
          "time": 141.521975,
          "velocity": 0.6141732283464567,
          "duration": 0.13043500000000563
        },
        {
          "name": "B2",
          "midi": 47,
          "time": 141.65241,
          "velocity": 0.5905511811023622,
          "duration": 0.26087000000001126
        },
        {
          "name": "G3",
          "midi": 55,
          "time": 141.65241,
          "velocity": 0.5905511811023622,
          "duration": 0.26087000000001126
        },
        {
          "name": "F3",
          "midi": 53,
          "time": 141.91328000000001,
          "velocity": 0.5905511811023622,
          "duration": 0.26087000000001126
        },
        {
          "name": "A#2",
          "midi": 46,
          "time": 141.91328000000001,
          "velocity": 0.5905511811023622,
          "duration": 0.26087000000001126
        },
        {
          "name": "A#2",
          "midi": 46,
          "time": 142.17415000000003,
          "velocity": 0.6141732283464567,
          "duration": 0.26087000000001126
        },
        {
          "name": "F3",
          "midi": 53,
          "time": 142.17415000000003,
          "velocity": 0.6141732283464567,
          "duration": 0.26087000000001126
        },
        {
          "name": "F3",
          "midi": 53,
          "time": 142.43502000000004,
          "velocity": 0.5905511811023622,
          "duration": 0.13043500000000563
        },
        {
          "name": "A#2",
          "midi": 46,
          "time": 142.43502000000004,
          "velocity": 0.5905511811023622,
          "duration": 0.13043500000000563
        },
        {
          "name": "F3",
          "midi": 53,
          "time": 142.56545500000004,
          "velocity": 0.5984251968503937,
          "duration": 0.26087000000001126
        },
        {
          "name": "A#2",
          "midi": 46,
          "time": 142.56545500000004,
          "velocity": 0.5984251968503937,
          "duration": 0.26087000000001126
        },
        {
          "name": "A#2",
          "midi": 46,
          "time": 142.82632500000005,
          "velocity": 0.5748031496062992,
          "duration": 0.26087000000001126
        },
        {
          "name": "F3",
          "midi": 53,
          "time": 142.82632500000005,
          "velocity": 0.5748031496062992,
          "duration": 0.26087000000001126
        },
        {
          "name": "F3",
          "midi": 53,
          "time": 143.08719500000007,
          "velocity": 0.5905511811023622,
          "duration": 0.26087000000001126
        },
        {
          "name": "A#2",
          "midi": 46,
          "time": 143.08719500000007,
          "velocity": 0.5905511811023622,
          "duration": 0.26087000000001126
        },
        {
          "name": "A#2",
          "midi": 46,
          "time": 143.34806500000008,
          "velocity": 0.5905511811023622,
          "duration": 0.26087000000001126
        },
        {
          "name": "F3",
          "midi": 53,
          "time": 143.34806500000008,
          "velocity": 0.5905511811023622,
          "duration": 0.26087000000001126
        },
        {
          "name": "F3",
          "midi": 53,
          "time": 143.6089350000001,
          "velocity": 0.5984251968503937,
          "duration": 0.13043500000000563
        },
        {
          "name": "A#2",
          "midi": 46,
          "time": 143.6089350000001,
          "velocity": 0.5984251968503937,
          "duration": 0.13043500000000563
        },
        {
          "name": "A#2",
          "midi": 46,
          "time": 143.7393700000001,
          "velocity": 0.5984251968503937,
          "duration": 0.26087000000001126
        },
        {
          "name": "F3",
          "midi": 53,
          "time": 143.7393700000001,
          "velocity": 0.5984251968503937,
          "duration": 0.26087000000001126
        },
        {
          "name": "G3",
          "midi": 55,
          "time": 144.0002400000001,
          "velocity": 0.6141732283464567,
          "duration": 0.26087000000001126
        },
        {
          "name": "C3",
          "midi": 48,
          "time": 144.0002400000001,
          "velocity": 0.6141732283464567,
          "duration": 0.26087000000001126
        },
        {
          "name": "C3",
          "midi": 48,
          "time": 144.26111000000012,
          "velocity": 0.5590551181102362,
          "duration": 0.26087000000001126
        },
        {
          "name": "G3",
          "midi": 55,
          "time": 144.26111000000012,
          "velocity": 0.5590551181102362,
          "duration": 0.26087000000001126
        },
        {
          "name": "G3",
          "midi": 55,
          "time": 144.52198000000013,
          "velocity": 0.5826771653543307,
          "duration": 0.13043500000000563
        },
        {
          "name": "C3",
          "midi": 48,
          "time": 144.52198000000013,
          "velocity": 0.5826771653543307,
          "duration": 0.13043500000000563
        },
        {
          "name": "G3",
          "midi": 55,
          "time": 144.65241500000013,
          "velocity": 0.6456692913385826,
          "duration": 0.26087000000001126
        },
        {
          "name": "C3",
          "midi": 48,
          "time": 144.65241500000013,
          "velocity": 0.6456692913385826,
          "duration": 0.26087000000001126
        },
        {
          "name": "C3",
          "midi": 48,
          "time": 144.91328500000014,
          "velocity": 0.6141732283464567,
          "duration": 0.26087000000001126
        },
        {
          "name": "G3",
          "midi": 55,
          "time": 144.91328500000014,
          "velocity": 0.6141732283464567,
          "duration": 0.26087000000001126
        },
        {
          "name": "G3",
          "midi": 55,
          "time": 145.17415500000016,
          "velocity": 0.6299212598425197,
          "duration": 0.26087000000001126
        },
        {
          "name": "C3",
          "midi": 48,
          "time": 145.17415500000016,
          "velocity": 0.6299212598425197,
          "duration": 0.26087000000001126
        },
        {
          "name": "C3",
          "midi": 48,
          "time": 145.43502500000017,
          "velocity": 0.5984251968503937,
          "duration": 0.26087000000001126
        },
        {
          "name": "G3",
          "midi": 55,
          "time": 145.43502500000017,
          "velocity": 0.5984251968503937,
          "duration": 0.26087000000001126
        },
        {
          "name": "G3",
          "midi": 55,
          "time": 145.69589500000018,
          "velocity": 0.6062992125984252,
          "duration": 0.13043500000000563
        },
        {
          "name": "C3",
          "midi": 48,
          "time": 145.69589500000018,
          "velocity": 0.6062992125984252,
          "duration": 0.13043500000000563
        },
        {
          "name": "C3",
          "midi": 48,
          "time": 145.82633000000018,
          "velocity": 0.5826771653543307,
          "duration": 0.26087000000001126
        },
        {
          "name": "G3",
          "midi": 55,
          "time": 145.82633000000018,
          "velocity": 0.5826771653543307,
          "duration": 0.26087000000001126
        },
        {
          "name": "A3",
          "midi": 57,
          "time": 146.0872000000002,
          "velocity": 0.5905511811023622,
          "duration": 0.26087000000001126
        },
        {
          "name": "D3",
          "midi": 50,
          "time": 146.0872000000002,
          "velocity": 0.5905511811023622,
          "duration": 0.26087000000001126
        },
        {
          "name": "D3",
          "midi": 50,
          "time": 146.3480700000002,
          "velocity": 0.5905511811023622,
          "duration": 0.26087000000001126
        },
        {
          "name": "A3",
          "midi": 57,
          "time": 146.3480700000002,
          "velocity": 0.5905511811023622,
          "duration": 0.26087000000001126
        },
        {
          "name": "A3",
          "midi": 57,
          "time": 146.60894000000022,
          "velocity": 0.5669291338582677,
          "duration": 0.13043500000000563
        },
        {
          "name": "D3",
          "midi": 50,
          "time": 146.60894000000022,
          "velocity": 0.5669291338582677,
          "duration": 0.13043500000000563
        },
        {
          "name": "A3",
          "midi": 57,
          "time": 146.73937500000022,
          "velocity": 0.5511811023622047,
          "duration": 0.26087000000001126
        },
        {
          "name": "D3",
          "midi": 50,
          "time": 146.73937500000022,
          "velocity": 0.5511811023622047,
          "duration": 0.26087000000001126
        },
        {
          "name": "D3",
          "midi": 50,
          "time": 147.00024500000023,
          "velocity": 0.6299212598425197,
          "duration": 0.26087000000001126
        },
        {
          "name": "A3",
          "midi": 57,
          "time": 147.00024500000023,
          "velocity": 0.6299212598425197,
          "duration": 0.26087000000001126
        },
        {
          "name": "A3",
          "midi": 57,
          "time": 147.26111500000025,
          "velocity": 0.6220472440944882,
          "duration": 0.26087000000001126
        },
        {
          "name": "D3",
          "midi": 50,
          "time": 147.26111500000025,
          "velocity": 0.6220472440944882,
          "duration": 0.26087000000001126
        },
        {
          "name": "D3",
          "midi": 50,
          "time": 147.52198500000026,
          "velocity": 0.5905511811023622,
          "duration": 0.26087000000001126
        },
        {
          "name": "A3",
          "midi": 57,
          "time": 147.52198500000026,
          "velocity": 0.5905511811023622,
          "duration": 0.26087000000001126
        },
        {
          "name": "A3",
          "midi": 57,
          "time": 147.78285500000027,
          "velocity": 0.5669291338582677,
          "duration": 0.13043500000000563
        },
        {
          "name": "D3",
          "midi": 50,
          "time": 147.78285500000027,
          "velocity": 0.5669291338582677,
          "duration": 0.13043500000000563
        },
        {
          "name": "D3",
          "midi": 50,
          "time": 147.91329000000027,
          "velocity": 0.6141732283464567,
          "duration": 0.26087000000001126
        },
        {
          "name": "A3",
          "midi": 57,
          "time": 147.91329000000027,
          "velocity": 0.6141732283464567,
          "duration": 0.26087000000001126
        },
        {
          "name": "A3",
          "midi": 57,
          "time": 148.17416000000028,
          "velocity": 0.5984251968503937,
          "duration": 0.26087000000001126
        },
        {
          "name": "D3",
          "midi": 50,
          "time": 148.17416000000028,
          "velocity": 0.5984251968503937,
          "duration": 0.26087000000001126
        },
        {
          "name": "D3",
          "midi": 50,
          "time": 148.4350300000003,
          "velocity": 0.5905511811023622,
          "duration": 0.26087000000001126
        },
        {
          "name": "A3",
          "midi": 57,
          "time": 148.4350300000003,
          "velocity": 0.5905511811023622,
          "duration": 0.26087000000001126
        },
        {
          "name": "A3",
          "midi": 57,
          "time": 148.6959000000003,
          "velocity": 0.5748031496062992,
          "duration": 0.13043500000000563
        },
        {
          "name": "D3",
          "midi": 50,
          "time": 148.6959000000003,
          "velocity": 0.5748031496062992,
          "duration": 0.13043500000000563
        },
        {
          "name": "A3",
          "midi": 57,
          "time": 148.8263350000003,
          "velocity": 0.6377952755905512,
          "duration": 0.26087000000001126
        },
        {
          "name": "D3",
          "midi": 50,
          "time": 148.8263350000003,
          "velocity": 0.6377952755905512,
          "duration": 0.26087000000001126
        },
        {
          "name": "D3",
          "midi": 50,
          "time": 149.08720500000032,
          "velocity": 0.6299212598425197,
          "duration": 0.26087000000001126
        },
        {
          "name": "A3",
          "midi": 57,
          "time": 149.08720500000032,
          "velocity": 0.6299212598425197,
          "duration": 0.26087000000001126
        },
        {
          "name": "A3",
          "midi": 57,
          "time": 149.34807500000034,
          "velocity": 0.6220472440944882,
          "duration": 0.26087000000001126
        },
        {
          "name": "D3",
          "midi": 50,
          "time": 149.34807500000034,
          "velocity": 0.6220472440944882,
          "duration": 0.26087000000001126
        },
        {
          "name": "D3",
          "midi": 50,
          "time": 149.60894500000035,
          "velocity": 0.5590551181102362,
          "duration": 0.26087000000001126
        },
        {
          "name": "A3",
          "midi": 57,
          "time": 149.60894500000035,
          "velocity": 0.5590551181102362,
          "duration": 0.26087000000001126
        },
        {
          "name": "A3",
          "midi": 57,
          "time": 149.86981500000036,
          "velocity": 0.5905511811023622,
          "duration": 0.13043500000000563
        },
        {
          "name": "D3",
          "midi": 50,
          "time": 149.86981500000036,
          "velocity": 0.5905511811023622,
          "duration": 0.13043500000000563
        },
        {
          "name": "D3",
          "midi": 50,
          "time": 150.00025000000036,
          "velocity": 0.5826771653543307,
          "duration": 0.26087000000001126
        },
        {
          "name": "A3",
          "midi": 57,
          "time": 150.00025000000036,
          "velocity": 0.5826771653543307,
          "duration": 0.26087000000001126
        }
      ],
      "controlChanges": {
        "6": [
          {
            "number": 6,
            "time": 0,
            "value": 0.09448818897637795
          }
        ],
        "7": [
          {
            "number": 7,
            "time": 0,
            "value": 0.7874015748031497
          }
        ],
        "10": [
          {
            "number": 10,
            "time": 0,
            "value": 0.4015748031496063
          }
        ],
        "64": [
          {
            "number": 64,
            "time": 0,
            "value": 0
          }
        ],
        "91": [
          {
            "number": 91,
            "time": 0,
            "value": 0.3779527559055118
          }
        ],
        "100": [
          {
            "number": 100,
            "time": 0,
            "value": 0
          }
        ],
        "101": [
          {
            "number": 101,
            "time": 0,
            "value": 0
          }
        ]
      },
      "id": 4,
      "instrumentNumber": 0,
      "instrument": "acoustic grand piano",
      "instrumentFamily": "piano",
      "channelNumber": 1,
      "isPercussion": false
    }
  ]
}