{
  "header": {
    "PPQ": 384,
    "timeSignature": [
      4,
      4
    ],
    "bpm": 96,
    "name": ""
  },
  "tempo": [
    {
      "absoluteTime": 0,
      "seconds": 0,
      "bpm": 96
    }
  ],
  "timeSignature": [
    {
      "absoluteTime": 0,
      "seconds": 0,
      "numerator": 4,
      "denominator": 2,
      "click": 24,
      "notesQ": 8
    }
  ],
  "startTime": 1.875,
  "duration": 446.94010416666623,
  "tracks": [
    {
      "startTime": 1.875,
      "duration": 446.94010416666623,
      "length": 2344,
      "notes": [
        {
          "name": "D#5",
          "midi": 75,
          "time": 1.875,
          "velocity": 0.2204724409448819,
          "duration": 0.3125
        },
        {
          "name": "B4",
          "midi": 71,
          "time": 1.875,
          "velocity": 0.2283464566929134,
          "duration": 0.3125
        },
        {
          "name": "E5",
          "midi": 76,
          "time": 2.1875,
          "velocity": 0.14960629921259844,
          "duration": 0.3125
        },
        {
          "name": "C#5",
          "midi": 73,
          "time": 2.1875,
          "velocity": 0.1732283464566929,
          "duration": 0.3125
        },
        {
          "name": "D#5",
          "midi": 75,
          "time": 2.5,
          "velocity": 0.15748031496062992,
          "duration": 0.3125
        },
        {
          "name": "B4",
          "midi": 71,
          "time": 2.5,
          "velocity": 0.1732283464566929,
          "duration": 0.3125
        },
        {
          "name": "E5",
          "midi": 76,
          "time": 2.8125,
          "velocity": 0.1889763779527559,
          "duration": 0.3125
        },
        {
          "name": "C#5",
          "midi": 73,
          "time": 2.8125,
          "velocity": 0.13385826771653545,
          "duration": 0.3125
        },
        {
          "name": "D#5",
          "midi": 75,
          "time": 3.125,
          "velocity": 0.2125984251968504,
          "duration": 0.3125
        },
        {
          "name": "B4",
          "midi": 71,
          "time": 3.125,
          "velocity": 0.11023622047244094,
          "duration": 0.3125
        },
        {
          "name": "E5",
          "midi": 76,
          "time": 3.4375,
          "velocity": 0.2125984251968504,
          "duration": 0.3125
        },
        {
          "name": "C#5",
          "midi": 73,
          "time": 3.4375,
          "velocity": 0.14173228346456693,
          "duration": 0.3125
        },
        {
          "name": "C#5",
          "midi": 73,
          "time": 3.75,
          "velocity": 0.25196850393700787,
          "duration": 0.3125
        },
        {
          "name": "A#4",
          "midi": 70,
          "time": 3.75,
          "velocity": 0.29133858267716534,
          "duration": 0.3125
        },
        {
          "name": "D#5",
          "midi": 75,
          "time": 4.0625,
          "velocity": 0.25984251968503935,
          "duration": 0.3125
        },
        {
          "name": "B4",
          "midi": 71,
          "time": 4.0625,
          "velocity": 0.2204724409448819,
          "duration": 0.3125
        },
        {
          "name": "C#5",
          "midi": 73,
          "time": 4.375,
          "velocity": 0.2125984251968504,
          "duration": 0.3125
        },
        {
          "name": "A#4",
          "midi": 70,
          "time": 4.375,
          "velocity": 0.1968503937007874,
          "duration": 0.3125
        },
        {
          "name": "D#5",
          "midi": 75,
          "time": 4.6875,
          "velocity": 0.1968503937007874,
          "duration": 0.3125
        },
        {
          "name": "B4",
          "midi": 71,
          "time": 4.6875,
          "velocity": 0.1889763779527559,
          "duration": 0.3125
        },
        {
          "name": "C#5",
          "midi": 73,
          "time": 5,
          "velocity": 0.1968503937007874,
          "duration": 0.3125
        },
        {
          "name": "A#4",
          "midi": 70,
          "time": 5,
          "velocity": 0.2125984251968504,
          "duration": 0.3125
        },
        {
          "name": "D#5",
          "midi": 75,
          "time": 5.3125,
          "velocity": 0.2204724409448819,
          "duration": 0.3125
        },
        {
          "name": "B4",
          "midi": 71,
          "time": 5.3125,
          "velocity": 0.18110236220472442,
          "duration": 0.3125
        },
        {
          "name": "B4",
          "midi": 71,
          "time": 5.625,
          "velocity": 0.25984251968503935,
          "duration": 0.3125
        },
        {
          "name": "G#4",
          "midi": 68,
          "time": 5.625,
          "velocity": 0.23622047244094488,
          "duration": 0.3125
        },
        {
          "name": "C#5",
          "midi": 73,
          "time": 5.9375,
          "velocity": 0.2204724409448819,
          "duration": 0.3125
        },
        {
          "name": "A#4",
          "midi": 70,
          "time": 5.9375,
          "velocity": 0.25984251968503935,
          "duration": 0.3125
        },
        {
          "name": "B4",
          "midi": 71,
          "time": 6.25,
          "velocity": 0.14960629921259844,
          "duration": 0.3125
        },
        {
          "name": "G#4",
          "midi": 68,
          "time": 6.25,
          "velocity": 0.14173228346456693,
          "duration": 0.3125
        },
        {
          "name": "C#5",
          "midi": 73,
          "time": 6.5625,
          "velocity": 0.2125984251968504,
          "duration": 0.3125
        },
        {
          "name": "A#4",
          "midi": 70,
          "time": 6.5625,
          "velocity": 0.2047244094488189,
          "duration": 0.3125
        },
        {
          "name": "B4",
          "midi": 71,
          "time": 6.875,
          "velocity": 0.2283464566929134,
          "duration": 0.3125
        },
        {
          "name": "G#4",
          "midi": 68,
          "time": 6.875,
          "velocity": 0.15748031496062992,
          "duration": 0.3125
        },
        {
          "name": "C#5",
          "midi": 73,
          "time": 7.1875,
          "velocity": 0.28346456692913385,
          "duration": 0.3125
        },
        {
          "name": "A#4",
          "midi": 70,
          "time": 7.1875,
          "velocity": 0.2283464566929134,
          "duration": 0.3125
        },
        {
          "name": "A#4",
          "midi": 70,
          "time": 7.5,
          "velocity": 0.31496062992125984,
          "duration": 0.15625
        },
        {
          "name": "G4",
          "midi": 67,
          "time": 7.5,
          "velocity": 0.30708661417322836,
          "duration": 0.15625
        },
        {
          "name": "G#4",
          "midi": 68,
          "time": 7.65625,
          "velocity": 0.25984251968503935,
          "duration": 0.15625
        },
        {
          "name": "F4",
          "midi": 65,
          "time": 7.65625,
          "velocity": 0.28346456692913385,
          "duration": 0.15625
        },
        {
          "name": "D#4",
          "midi": 63,
          "time": 7.8125,
          "velocity": 0.2755905511811024,
          "duration": 1.40625
        },
        {
          "name": "G4",
          "midi": 67,
          "time": 7.8125,
          "velocity": 0.31496062992125984,
          "duration": 1.40625
        },
        {
          "name": "D#2",
          "midi": 39,
          "time": 9.21875,
          "velocity": 0.1968503937007874,
          "duration": 0.46875
        },
        {
          "name": "A#2",
          "midi": 46,
          "time": 9.6875,
          "velocity": 0.2125984251968504,
          "duration": 0.3125
        },
        {
          "name": "D#3",
          "midi": 51,
          "time": 10,
          "velocity": 0.2440944881889764,
          "duration": 0.3125
        },
        {
          "name": "G3",
          "midi": 55,
          "time": 10.3125,
          "velocity": 0.1732283464566929,
          "duration": 0.3125
        },
        {
          "name": "A#3",
          "midi": 58,
          "time": 10.625,
          "velocity": 0.15748031496062992,
          "duration": 2.5
        },
        {
          "name": "D#4",
          "midi": 63,
          "time": 10.625,
          "velocity": 0.2047244094488189,
          "duration": 2.5
        },
        {
          "name": "G4",
          "midi": 67,
          "time": 10.625,
          "velocity": 0.13385826771653545,
          "duration": 2.5
        },
        {
          "name": "D#4",
          "midi": 63,
          "time": 13.125,
          "velocity": 0.23622047244094488,
          "duration": 0.625
        },
        {
          "name": "G#4",
          "midi": 68,
          "time": 13.75,
          "velocity": 0.23622047244094488,
          "duration": 0.625
        },
        {
          "name": "B4",
          "midi": 71,
          "time": 14.375,
          "velocity": 0.2440944881889764,
          "duration": 0.625
        },
        {
          "name": "C#2",
          "midi": 37,
          "time": 15,
          "velocity": 0.28346456692913385,
          "duration": 0.625
        },
        {
          "name": "G#4",
          "midi": 68,
          "time": 15,
          "velocity": 0.28346456692913385,
          "duration": 0.625
        },
        {
          "name": "B4",
          "midi": 71,
          "time": 15,
          "velocity": 0.1968503937007874,
          "duration": 0.625
        },
        {
          "name": "D#5",
          "midi": 75,
          "time": 15,
          "velocity": 0.30708661417322836,
          "duration": 0.625
        },
        {
          "name": "B3",
          "midi": 59,
          "time": 15.625,
          "velocity": 0.16535433070866143,
          "duration": 0.625
        },
        {
          "name": "G#3",
          "midi": 56,
          "time": 15.625,
          "velocity": 0.2283464566929134,
          "duration": 0.625
        },
        {
          "name": "D#4",
          "midi": 63,
          "time": 15.625,
          "velocity": 0.15748031496062992,
          "duration": 0.625
        },
        {
          "name": "E4",
          "midi": 64,
          "time": 16.25,
          "velocity": 0.2440944881889764,
          "duration": 0.625
        },
        {
          "name": "G#4",
          "midi": 68,
          "time": 16.25,
          "velocity": 0.28346456692913385,
          "duration": 0.625
        },
        {
          "name": "B4",
          "midi": 71,
          "time": 16.25,
          "velocity": 0.25984251968503935,
          "duration": 0.625
        },
        {
          "name": "D#5",
          "midi": 75,
          "time": 16.25,
          "velocity": 0.30708661417322836,
          "duration": 0.625
        },
        {
          "name": "G4",
          "midi": 67,
          "time": 16.875,
          "velocity": 0.2047244094488189,
          "duration": 0.625
        },
        {
          "name": "C#5",
          "midi": 73,
          "time": 16.875,
          "velocity": 0.2125984251968504,
          "duration": 0.625
        },
        {
          "name": "D#2",
          "midi": 39,
          "time": 16.875,
          "velocity": 0.1968503937007874,
          "duration": 1.875
        },
        {
          "name": "D#3",
          "midi": 51,
          "time": 16.875,
          "velocity": 0.2440944881889764,
          "duration": 1.875
        },
        {
          "name": "D#4",
          "midi": 63,
          "time": 16.875,
          "velocity": 0.2125984251968504,
          "duration": 1.875
        },
        {
          "name": "B4",
          "midi": 71,
          "time": 17.5,
          "velocity": 0.29133858267716534,
          "duration": 0.625
        },
        {
          "name": "G4",
          "midi": 67,
          "time": 17.5,
          "velocity": 0.25196850393700787,
          "duration": 1.25
        },
        {
          "name": "A#4",
          "midi": 70,
          "time": 18.125,
          "velocity": 0.29133858267716534,
          "duration": 0.625
        },
        {
          "name": "G#2",
          "midi": 44,
          "time": 18.75,
          "velocity": 0.1968503937007874,
          "duration": 0.625
        },
        {
          "name": "B4",
          "midi": 71,
          "time": 18.75,
          "velocity": 0.2755905511811024,
          "duration": 1.875
        },
        {
          "name": "G#3",
          "midi": 56,
          "time": 19.375,
          "velocity": 0.09448818897637795,
          "duration": 1.25
        },
        {
          "name": "B3",
          "midi": 59,
          "time": 19.375,
          "velocity": 0.23622047244094488,
          "duration": 1.25
        },
        {
          "name": "D#4",
          "midi": 63,
          "time": 19.375,
          "velocity": 0.2204724409448819,
          "duration": 1.25
        },
        {
          "name": "E4",
          "midi": 64,
          "time": 19.375,
          "velocity": 0.13385826771653545,
          "duration": 1.25
        },
        {
          "name": "G#3",
          "midi": 56,
          "time": 20.625,
          "velocity": 0.2283464566929134,
          "duration": 0.625
        },
        {
          "name": "G#3",
          "midi": 56,
          "time": 21.25,
          "velocity": 0.08661417322834646,
          "duration": 1.25
        },
        {
          "name": "B3",
          "midi": 59,
          "time": 21.25,
          "velocity": 0.2204724409448819,
          "duration": 1.25
        },
        {
          "name": "D#4",
          "midi": 63,
          "time": 21.25,
          "velocity": 0.1889763779527559,
          "duration": 1.25
        },
        {
          "name": "E4",
          "midi": 64,
          "time": 21.25,
          "velocity": 0.15748031496062992,
          "duration": 1.25
        },
        {
          "name": "G#4",
          "midi": 68,
          "time": 21.5625,
          "velocity": 0.23622047244094488,
          "duration": 0.3125
        },
        {
          "name": "B4",
          "midi": 71,
          "time": 21.875,
          "velocity": 0.1889763779527559,
          "duration": 0.3125
        },
        {
          "name": "D#5",
          "midi": 75,
          "time": 22.1875,
          "velocity": 0.23622047244094488,
          "duration": 0.3125
        },
        {
          "name": "C#3",
          "midi": 49,
          "time": 22.5,
          "velocity": 0.2440944881889764,
          "duration": 0.625
        },
        {
          "name": "B4",
          "midi": 71,
          "time": 22.5,
          "velocity": 0.2755905511811024,
          "duration": 1.25
        },
        {
          "name": "G#5",
          "midi": 80,
          "time": 22.5,
          "velocity": 0.30708661417322836,
          "duration": 1.25
        },
        {
          "name": "G#3",
          "midi": 56,
          "time": 23.125,
          "velocity": 0.1968503937007874,
          "duration": 1.25
        },
        {
          "name": "C#4",
          "midi": 61,
          "time": 23.125,
          "velocity": 0.2283464566929134,
          "duration": 1.25
        },
        {
          "name": "E4",
          "midi": 64,
          "time": 23.125,
          "velocity": 0.2283464566929134,
          "duration": 1.25
        },
        {
          "name": "G#4",
          "midi": 68,
          "time": 23.125,
          "velocity": 0.14960629921259844,
          "duration": 1.25
        },
        {
          "name": "B4",
          "midi": 71,
          "time": 23.75,
          "velocity": 0.30708661417322836,
          "duration": 0.625
        },
        {
          "name": "G#5",
          "midi": 80,
          "time": 23.75,
          "velocity": 0.2992125984251969,
          "duration": 0.625
        },
        {
          "name": "G#5",
          "midi": 80,
          "time": 24.375,
          "velocity": 0.2677165354330709,
          "duration": 0.625
        },
        {
          "name": "F#2",
          "midi": 42,
          "time": 24.375,
          "velocity": 0.31496062992125984,
          "duration": 0.625
        },
        {
          "name": "B4",
          "midi": 71,
          "time": 24.375,
          "velocity": 0.2992125984251969,
          "duration": 1.875
        },
        {
          "name": "F#5",
          "midi": 78,
          "time": 25,
          "velocity": 0.29133858267716534,
          "duration": 0.625
        },
        {
          "name": "A#3",
          "midi": 58,
          "time": 25,
          "velocity": 0.2204724409448819,
          "duration": 1.25
        },
        {
          "name": "C#4",
          "midi": 61,
          "time": 25,
          "velocity": 0.1732283464566929,
          "duration": 1.25
        },
        {
          "name": "F#4",
          "midi": 66,
          "time": 25,
          "velocity": 0.2440944881889764,
          "duration": 1.25
        },
        {
          "name": "E5",
          "midi": 76,
          "time": 25.625,
          "velocity": 0.23622047244094488,
          "duration": 0.625
        },
        {
          "name": "B2",
          "midi": 47,
          "time": 26.25,
          "velocity": 0.1889763779527559,
          "duration": 0.625
        },
        {
          "name": "F#4",
          "midi": 66,
          "time": 26.25,
          "velocity": 0.2440944881889764,
          "duration": 1.875
        },
        {
          "name": "A#4",
          "midi": 70,
          "time": 26.25,
          "velocity": 0.2047244094488189,
          "duration": 1.875
        },
        {
          "name": "D#5",
          "midi": 75,
          "time": 26.25,
          "velocity": 0.2440944881889764,
          "duration": 1.875
        },
        {
          "name": "F#5",
          "midi": 78,
          "time": 26.25,
          "velocity": 0.3464566929133858,
          "duration": 1.875
        },
        {
          "name": "F#3",
          "midi": 54,
          "time": 26.875,
          "velocity": 0.1968503937007874,
          "duration": 1.25
        },
        {
          "name": "A#3",
          "midi": 58,
          "time": 26.875,
          "velocity": 0.10236220472440945,
          "duration": 1.25
        },
        {
          "name": "B3",
          "midi": 59,
          "time": 26.875,
          "velocity": 0.13385826771653545,
          "duration": 1.25
        },
        {
          "name": "D#4",
          "midi": 63,
          "time": 26.875,
          "velocity": 0.1732283464566929,
          "duration": 1.25
        },
        {
          "name": "F#3",
          "midi": 54,
          "time": 28.125,
          "velocity": 0.1889763779527559,
          "duration": 0.625
        },
        {
          "name": "F#3",
          "midi": 54,
          "time": 28.75,
          "velocity": 0.2047244094488189,
          "duration": 1.25
        },
        {
          "name": "A#3",
          "midi": 58,
          "time": 28.75,
          "velocity": 0.12598425196850394,
          "duration": 1.25
        },
        {
          "name": "B3",
          "midi": 59,
          "time": 28.75,
          "velocity": 0.16535433070866143,
          "duration": 1.25
        },
        {
          "name": "D#4",
          "midi": 63,
          "time": 28.75,
          "velocity": 0.1732283464566929,
          "duration": 1.25
        },
        {
          "name": "A#4",
          "midi": 70,
          "time": 29.0625,
          "velocity": 0.3228346456692913,
          "duration": 0.3125
        },
        {
          "name": "D#5",
          "midi": 75,
          "time": 29.375,
          "velocity": 0.2283464566929134,
          "duration": 0.3125
        },
        {
          "name": "F#5",
          "midi": 78,
          "time": 29.6875,
          "velocity": 0.2992125984251969,
          "duration": 0.3125
        },
        {
          "name": "F3",
          "midi": 53,
          "time": 30,
          "velocity": 0.14960629921259844,
          "duration": 0.625
        },
        {
          "name": "B4",
          "midi": 71,
          "time": 30,
          "velocity": 0.25984251968503935,
          "duration": 1.25
        },
        {
          "name": "D#5",
          "midi": 75,
          "time": 30,
          "velocity": 0.2125984251968504,
          "duration": 1.25
        },
        {
          "name": "A#5",
          "midi": 82,
          "time": 30,
          "velocity": 0.25196850393700787,
          "duration": 1.25
        },
        {
          "name": "B3",
          "midi": 59,
          "time": 30.625,
          "velocity": 0.1968503937007874,
          "duration": 1.25
        },
        {
          "name": "D#4",
          "midi": 63,
          "time": 30.625,
          "velocity": 0.2047244094488189,
          "duration": 1.25
        },
        {
          "name": "G#4",
          "midi": 68,
          "time": 30.625,
          "velocity": 0.1968503937007874,
          "duration": 1.25
        },
        {
          "name": "B4",
          "midi": 71,
          "time": 31.25,
          "velocity": 0.2125984251968504,
          "duration": 0.625
        },
        {
          "name": "D#5",
          "midi": 75,
          "time": 31.25,
          "velocity": 0.2677165354330709,
          "duration": 0.625
        },
        {
          "name": "G#5",
          "midi": 80,
          "time": 31.25,
          "velocity": 0.2125984251968504,
          "duration": 0.625
        },
        {
          "name": "D5",
          "midi": 74,
          "time": 31.875,
          "velocity": 0.2283464566929134,
          "duration": 0.625
        },
        {
          "name": "F#5",
          "midi": 78,
          "time": 31.875,
          "velocity": 0.23622047244094488,
          "duration": 0.625
        },
        {
          "name": "A#2",
          "midi": 46,
          "time": 31.875,
          "velocity": 0.18110236220472442,
          "duration": 0.625
        },
        {
          "name": "B4",
          "midi": 71,
          "time": 31.875,
          "velocity": 0.2677165354330709,
          "duration": 1.875
        },
        {
          "name": "F5",
          "midi": 77,
          "time": 32.5,
          "velocity": 0.2677165354330709,
          "duration": 0.625
        },
        {
          "name": "D5",
          "midi": 74,
          "time": 32.5,
          "velocity": 0.25984251968503935,
          "duration": 1.25
        },
        {
          "name": "G#3",
          "midi": 56,
          "time": 32.5,
          "velocity": 0.2204724409448819,
          "duration": 1.25
        },
        {
          "name": "B3",
          "midi": 59,
          "time": 32.5,
          "velocity": 0.2125984251968504,
          "duration": 1.25
        },
        {
          "name": "D4",
          "midi": 62,
          "time": 32.5,
          "velocity": 0.1968503937007874,
          "duration": 1.25
        },
        {
          "name": "F#5",
          "midi": 78,
          "time": 33.125,
          "velocity": 0.2283464566929134,
          "duration": 0.625
        },
        {
          "name": "D#3",
          "midi": 51,
          "time": 33.75,
          "velocity": 0.2992125984251969,
          "duration": 0.625
        },
        {
          "name": "G#5",
          "midi": 80,
          "time": 33.75,
          "velocity": 0.2992125984251969,
          "duration": 1.25
        },
        {
          "name": "D#5",
          "midi": 75,
          "time": 33.75,
          "velocity": 0.2125984251968504,
          "duration": 1.875
        },
        {
          "name": "F#3",
          "midi": 54,
          "time": 34.375,
          "velocity": 0.15748031496062992,
          "duration": 1.25
        },
        {
          "name": "A#3",
          "midi": 58,
          "time": 34.375,
          "velocity": 0.1732283464566929,
          "duration": 1.25
        },
        {
          "name": "D#4",
          "midi": 63,
          "time": 34.375,
          "velocity": 0.1732283464566929,
          "duration": 1.25
        },
        {
          "name": "F#5",
          "midi": 78,
          "time": 35,
          "velocity": 0.25196850393700787,
          "duration": 0.625
        },
        {
          "name": "C#3",
          "midi": 49,
          "time": 35.625,
          "velocity": 0.2755905511811024,
          "duration": 0.625
        },
        {
          "name": "F5",
          "midi": 77,
          "time": 35.625,
          "velocity": 0.2440944881889764,
          "duration": 1.25
        },
        {
          "name": "A#4",
          "midi": 70,
          "time": 35.625,
          "velocity": 0.25196850393700787,
          "duration": 1.875
        },
        {
          "name": "F#3",
          "midi": 54,
          "time": 36.25,
          "velocity": 0.2204724409448819,
          "duration": 1.25
        },
        {
          "name": "A#3",
          "midi": 58,
          "time": 36.25,
          "velocity": 0.1968503937007874,
          "duration": 1.25
        },
        {
          "name": "D#4",
          "midi": 63,
          "time": 36.25,
          "velocity": 0.1889763779527559,
          "duration": 1.25
        },
        {
          "name": "D#5",
          "midi": 75,
          "time": 36.875,
          "velocity": 0.25984251968503935,
          "duration": 0.625
        },
        {
          "name": "B2",
          "midi": 47,
          "time": 37.5,
          "velocity": 0.2047244094488189,
          "duration": 0.625
        },
        {
          "name": "C#5",
          "midi": 73,
          "time": 37.5,
          "velocity": 0.2125984251968504,
          "duration": 0.625
        },
        {
          "name": "D#4",
          "midi": 63,
          "time": 37.5,
          "velocity": 0.2125984251968504,
          "duration": 1.875
        },
        {
          "name": "F#4",
          "midi": 66,
          "time": 37.5,
          "velocity": 0.1968503937007874,
          "duration": 1.875
        },
        {
          "name": "B4",
          "midi": 71,
          "time": 38.125,
          "velocity": 0.25984251968503935,
          "duration": 0.625
        },
        {
          "name": "F#3",
          "midi": 54,
          "time": 38.125,
          "velocity": 0.1968503937007874,
          "duration": 1.25
        },
        {
          "name": "A#3",
          "midi": 58,
          "time": 38.125,
          "velocity": 0.16535433070866143,
          "duration": 1.25
        },
        {
          "name": "B3",
          "midi": 59,
          "time": 38.125,
          "velocity": 0.13385826771653545,
          "duration": 1.25
        },
        {
          "name": "C#5",
          "midi": 73,
          "time": 38.75,
          "velocity": 0.23622047244094488,
          "duration": 0.625
        },
        {
          "name": "D#5",
          "midi": 75,
          "time": 39.375,
          "velocity": 0.29133858267716534,
          "duration": 0.625
        },
        {
          "name": "A#2",
          "midi": 46,
          "time": 39.375,
          "velocity": 0.2283464566929134,
          "duration": 0.625
        },
        {
          "name": "C#5",
          "midi": 73,
          "time": 40,
          "velocity": 0.2125984251968504,
          "duration": 0.625
        },
        {
          "name": "F3",
          "midi": 53,
          "time": 40,
          "velocity": 0.14960629921259844,
          "duration": 1.25
        },
        {
          "name": "G#3",
          "midi": 56,
          "time": 40,
          "velocity": 0.18110236220472442,
          "duration": 1.25
        },
        {
          "name": "G#4",
          "midi": 68,
          "time": 40.625,
          "velocity": 0.13385826771653545,
          "duration": 0.625
        },
        {
          "name": "D#3",
          "midi": 51,
          "time": 41.25,
          "velocity": 0.2440944881889764,
          "duration": 0.625
        },
        {
          "name": "A#4",
          "midi": 70,
          "time": 41.25,
          "velocity": 0.1968503937007874,
          "duration": 0.625
        },
        {
          "name": "G#3",
          "midi": 56,
          "time": 41.875,
          "velocity": 0.2047244094488189,
          "duration": 1.25
        },
        {
          "name": "A#3",
          "midi": 58,
          "time": 41.875,
          "velocity": 0.15748031496062992,
          "duration": 1.25
        },
        {
          "name": "C#4",
          "midi": 61,
          "time": 41.875,
          "velocity": 0.15748031496062992,
          "duration": 1.25
        },
        {
          "name": "D#4",
          "midi": 63,
          "time": 42.1875,
          "velocity": 0.25196850393700787,
          "duration": 0.3125
        },
        {
          "name": "G#4",
          "midi": 68,
          "time": 42.5,
          "velocity": 0.1968503937007874,
          "duration": 0.3125
        },
        {
          "name": "A#4",
          "midi": 70,
          "time": 42.8125,
          "velocity": 0.29133858267716534,
          "duration": 0.3125
        },
        {
          "name": "D#4",
          "midi": 63,
          "time": 43.125,
          "velocity": 0.28346456692913385,
          "duration": 0.46875
        },
        {
          "name": "E4",
          "midi": 64,
          "time": 43.125,
          "velocity": 0.23622047244094488,
          "duration": 0.46875
        },
        {
          "name": "D#3",
          "midi": 51,
          "time": 43.125,
          "velocity": 0.30708661417322836,
          "duration": 3.75
        },
        {
          "name": "A#3",
          "midi": 58,
          "time": 43.125,
          "velocity": 0.2755905511811024,
          "duration": 3.75
        },
        {
          "name": "C#4",
          "midi": 61,
          "time": 43.125,
          "velocity": 0.25984251968503935,
          "duration": 3.75
        },
        {
          "name": "G4",
          "midi": 67,
          "time": 43.541666666666664,
          "velocity": 0.25984251968503935,
          "duration": 0.3125
        },
        {
          "name": "A#4",
          "midi": 70,
          "time": 43.541666666666664,
          "velocity": 0.2992125984251969,
          "duration": 0.3125
        },
        {
          "name": "A#4",
          "midi": 70,
          "time": 43.854166666666664,
          "velocity": 0.1968503937007874,
          "duration": 0.3125
        },
        {
          "name": "C#5",
          "midi": 73,
          "time": 43.854166666666664,
          "velocity": 0.2677165354330709,
          "duration": 0.3125
        },
        {
          "name": "G#4",
          "midi": 68,
          "time": 44.166666666666664,
          "velocity": 0.25196850393700787,
          "duration": 1.09375
        },
        {
          "name": "B4",
          "midi": 71,
          "time": 44.166666666666664,
          "velocity": 0.2204724409448819,
          "duration": 1.09375
        },
        {
          "name": "G4",
          "midi": 67,
          "time": 45.206705729166664,
          "velocity": 0.25984251968503935,
          "duration": 1.7203776041666714
        },
        {
          "name": "A#4",
          "midi": 70,
          "time": 45.206705729166664,
          "velocity": 0.2755905511811024,
          "duration": 1.7203776041666714
        },
        {
          "name": "D#3",
          "midi": 51,
          "time": 46.875,
          "velocity": 0.2283464566929134,
          "duration": 1.875
        },
        {
          "name": "A#3",
          "midi": 58,
          "time": 46.875,
          "velocity": 0.2283464566929134,
          "duration": 1.875
        },
        {
          "name": "G3",
          "midi": 55,
          "time": 46.875,
          "velocity": 0.2283464566929134,
          "duration": 1.875
        },
        {
          "name": "D#4",
          "midi": 63,
          "time": 46.875,
          "velocity": 0.2283464566929134,
          "duration": 1.875
        },
        {
          "name": "A#4",
          "midi": 70,
          "time": 47.5,
          "velocity": 0.23622047244094488,
          "duration": 0.3125
        },
        {
          "name": "C#5",
          "midi": 73,
          "time": 47.5,
          "velocity": 0.2204724409448819,
          "duration": 0.3125
        },
        {
          "name": "G#4",
          "midi": 68,
          "time": 47.8125,
          "velocity": 0.2204724409448819,
          "duration": 0.9375
        },
        {
          "name": "B4",
          "midi": 71,
          "time": 47.8125,
          "velocity": 0.2125984251968504,
          "duration": 0.9375
        },
        {
          "name": "G4",
          "midi": 67,
          "time": 48.75,
          "velocity": 0.2677165354330709,
          "duration": 0.3125
        },
        {
          "name": "A#4",
          "midi": 70,
          "time": 48.75,
          "velocity": 0.1968503937007874,
          "duration": 0.3125
        },
        {
          "name": "E4",
          "midi": 64,
          "time": 49.0625,
          "velocity": 0.25984251968503935,
          "duration": 0.46875
        },
        {
          "name": "G#4",
          "midi": 68,
          "time": 49.0625,
          "velocity": 0.25984251968503935,
          "duration": 0.46875
        },
        {
          "name": "D#4",
          "midi": 63,
          "time": 49.53125,
          "velocity": 0.2440944881889764,
          "duration": 0.46875
        },
        {
          "name": "G4",
          "midi": 67,
          "time": 49.53125,
          "velocity": 0.25196850393700787,
          "duration": 0.46875
        },
        {
          "name": "C#4",
          "midi": 61,
          "time": 50,
          "velocity": 0.30708661417322836,
          "duration": 0.625
        },
        {
          "name": "E4",
          "midi": 64,
          "time": 50,
          "velocity": 0.1889763779527559,
          "duration": 0.625
        },
        {
          "name": "A#3",
          "midi": 58,
          "time": 50.625,
          "velocity": 0.2440944881889764,
          "duration": 3.75
        },
        {
          "name": "D#4",
          "midi": 63,
          "time": 50.625,
          "velocity": 0.2677165354330709,
          "duration": 3.75
        },
        {
          "name": "G#2",
          "midi": 44,
          "time": 54.375,
          "velocity": 0.2283464566929134,
          "duration": 0.625
        },
        {
          "name": "G#3",
          "midi": 56,
          "time": 55,
          "velocity": 0.14173228346456693,
          "duration": 0.625
        },
        {
          "name": "B3",
          "midi": 59,
          "time": 55,
          "velocity": 0.1732283464566929,
          "duration": 0.625
        },
        {
          "name": "D#4",
          "midi": 63,
          "time": 55,
          "velocity": 0.23622047244094488,
          "duration": 0.625
        },
        {
          "name": "G#3",
          "midi": 56,
          "time": 55.625,
          "velocity": 0.16535433070866143,
          "duration": 0.625
        },
        {
          "name": "B3",
          "midi": 59,
          "time": 55.625,
          "velocity": 0.12598425196850394,
          "duration": 0.625
        },
        {
          "name": "D#4",
          "midi": 63,
          "time": 55.625,
          "velocity": 0.1889763779527559,
          "duration": 0.625
        },
        {
          "name": "D#2",
          "midi": 39,
          "time": 56.25,
          "velocity": 0.2440944881889764,
          "duration": 0.625
        },
        {
          "name": "G#3",
          "midi": 56,
          "time": 56.875,
          "velocity": 0.18110236220472442,
          "duration": 0.625
        },
        {
          "name": "B3",
          "midi": 59,
          "time": 56.875,
          "velocity": 0.1889763779527559,
          "duration": 0.625
        },
        {
          "name": "D#4",
          "midi": 63,
          "time": 56.875,
          "velocity": 0.15748031496062992,
          "duration": 0.625
        },
        {
          "name": "G#3",
          "midi": 56,
          "time": 57.5,
          "velocity": 0.18110236220472442,
          "duration": 0.625
        },
        {
          "name": "B3",
          "midi": 59,
          "time": 57.5,
          "velocity": 0.2125984251968504,
          "duration": 0.625
        },
        {
          "name": "D#4",
          "midi": 63,
          "time": 57.5,
          "velocity": 0.1968503937007874,
          "duration": 0.625
        },
        {
          "name": "G#2",
          "midi": 44,
          "time": 58.125,
          "velocity": 0.1968503937007874,
          "duration": 0.625
        },
        {
          "name": "G#3",
          "midi": 56,
          "time": 58.75,
          "velocity": 0.2125984251968504,
          "duration": 0.625
        },
        {
          "name": "B3",
          "midi": 59,
          "time": 58.75,
          "velocity": 0.15748031496062992,
          "duration": 0.625
        },
        {
          "name": "D#4",
          "midi": 63,
          "time": 58.75,
          "velocity": 0.18110236220472442,
          "duration": 0.625
        },
        {
          "name": "G#3",
          "midi": 56,
          "time": 59.375,
          "velocity": 0.16535433070866143,
          "duration": 0.625
        },
        {
          "name": "B3",
          "midi": 59,
          "time": 59.375,
          "velocity": 0.1889763779527559,
          "duration": 0.625
        },
        {
          "name": "D#4",
          "midi": 63,
          "time": 59.375,
          "velocity": 0.1889763779527559,
          "duration": 0.625
        },
        {
          "name": "D#4",
          "midi": 63,
          "time": 60,
          "velocity": 0.2755905511811024,
          "duration": 0.625
        },
        {
          "name": "D#2",
          "midi": 39,
          "time": 60,
          "velocity": 0.2204724409448819,
          "duration": 0.625
        },
        {
          "name": "G#4",
          "midi": 68,
          "time": 60.625,
          "velocity": 0.25984251968503935,
          "duration": 0.625
        },
        {
          "name": "G3",
          "midi": 55,
          "time": 60.625,
          "velocity": 0.23622047244094488,
          "duration": 0.625
        },
        {
          "name": "A#3",
          "midi": 58,
          "time": 60.625,
          "velocity": 0.2440944881889764,
          "duration": 0.625
        },
        {
          "name": "D#4",
          "midi": 63,
          "time": 60.625,
          "velocity": 0.1732283464566929,
          "duration": 0.625
        },
        {
          "name": "G4",
          "midi": 67,
          "time": 61.25,
          "velocity": 0.18110236220472442,
          "duration": 0.625
        },
        {
          "name": "B4",
          "midi": 71,
          "time": 61.25,
          "velocity": 0.25196850393700787,
          "duration": 0.625
        },
        {
          "name": "G3",
          "midi": 55,
          "time": 61.25,
          "velocity": 0.15748031496062992,
          "duration": 0.625
        },
        {
          "name": "A#3",
          "midi": 58,
          "time": 61.25,
          "velocity": 0.16535433070866143,
          "duration": 0.625
        },
        {
          "name": "E4",
          "midi": 64,
          "time": 61.25,
          "velocity": 0.2125984251968504,
          "duration": 0.625
        },
        {
          "name": "C#2",
          "midi": 37,
          "time": 61.875,
          "velocity": 0.18110236220472442,
          "duration": 0.625
        },
        {
          "name": "G#4",
          "midi": 68,
          "time": 61.875,
          "velocity": 0.25196850393700787,
          "duration": 1.25
        },
        {
          "name": "B4",
          "midi": 71,
          "time": 61.875,
          "velocity": 0.2125984251968504,
          "duration": 1.25
        },
        {
          "name": "D#5",
          "midi": 75,
          "time": 61.875,
          "velocity": 0.25196850393700787,
          "duration": 1.25
        },
        {
          "name": "G#3",
          "midi": 56,
          "time": 62.5,
          "velocity": 0.16535433070866143,
          "duration": 0.625
        },
        {
          "name": "B3",
          "midi": 59,
          "time": 62.5,
          "velocity": 0.1889763779527559,
          "duration": 0.625
        },
        {
          "name": "D#4",
          "midi": 63,
          "time": 62.5,
          "velocity": 0.16535433070866143,
          "duration": 0.625
        },
        {
          "name": "E4",
          "midi": 64,
          "time": 62.5,
          "velocity": 0.14960629921259844,
          "duration": 0.625
        },
        {
          "name": "D#5",
          "midi": 75,
          "time": 63.125,
          "velocity": 0.28346456692913385,
          "duration": 0.625
        },
        {
          "name": "G#3",
          "midi": 56,
          "time": 63.125,
          "velocity": 0.1968503937007874,
          "duration": 0.625
        },
        {
          "name": "B3",
          "midi": 59,
          "time": 63.125,
          "velocity": 0.2283464566929134,
          "duration": 0.625
        },
        {
          "name": "D#4",
          "midi": 63,
          "time": 63.125,
          "velocity": 0.2204724409448819,
          "duration": 0.625
        },
        {
          "name": "E4",
          "midi": 64,
          "time": 63.125,
          "velocity": 0.13385826771653545,
          "duration": 0.625
        },
        {
          "name": "C#5",
          "midi": 73,
          "time": 63.75,
          "velocity": 0.2755905511811024,
          "duration": 0.625
        },
        {
          "name": "D#2",
          "midi": 39,
          "time": 63.75,
          "velocity": 0.2440944881889764,
          "duration": 0.625
        },
        {
          "name": "B4",
          "midi": 71,
          "time": 64.375,
          "velocity": 0.2440944881889764,
          "duration": 0.625
        },
        {
          "name": "G3",
          "midi": 55,
          "time": 64.375,
          "velocity": 0.1968503937007874,
          "duration": 0.625
        },
        {
          "name": "C#4",
          "midi": 61,
          "time": 64.375,
          "velocity": 0.14960629921259844,
          "duration": 0.625
        },
        {
          "name": "E4",
          "midi": 64,
          "time": 64.375,
          "velocity": 0.12598425196850394,
          "duration": 0.625
        },
        {
          "name": "G4",
          "midi": 67,
          "time": 64.375,
          "velocity": 0.16535433070866143,
          "duration": 0.625
        },
        {
          "name": "A#4",
          "midi": 70,
          "time": 65,
          "velocity": 0.2440944881889764,
          "duration": 0.625
        },
        {
          "name": "G3",
          "midi": 55,
          "time": 65,
          "velocity": 0.15748031496062992,
          "duration": 0.625
        },
        {
          "name": "C#4",
          "midi": 61,
          "time": 65,
          "velocity": 0.1889763779527559,
          "duration": 0.625
        },
        {
          "name": "E4",
          "midi": 64,
          "time": 65,
          "velocity": 0.1889763779527559,
          "duration": 0.625
        },
        {
          "name": "G4",
          "midi": 67,
          "time": 65,
          "velocity": 0.2283464566929134,
          "duration": 0.625
        },
        {
          "name": "G#2",
          "midi": 44,
          "time": 65.625,
          "velocity": 0.25984251968503935,
          "duration": 0.625
        },
        {
          "name": "B4",
          "midi": 71,
          "time": 65.625,
          "velocity": 0.25196850393700787,
          "duration": 1.875
        },
        {
          "name": "G#3",
          "midi": 56,
          "time": 66.25,
          "velocity": 0.1732283464566929,
          "duration": 0.625
        },
        {
          "name": "B3",
          "midi": 59,
          "time": 66.25,
          "velocity": 0.16535433070866143,
          "duration": 0.625
        },
        {
          "name": "D#4",
          "midi": 63,
          "time": 66.25,
          "velocity": 0.2047244094488189,
          "duration": 0.625
        },
        {
          "name": "F#4",
          "midi": 66,
          "time": 66.25,
          "velocity": 0.14960629921259844,
          "duration": 0.625
        },
        {
          "name": "G#3",
          "midi": 56,
          "time": 66.875,
          "velocity": 0.25196850393700787,
          "duration": 0.625
        },
        {
          "name": "B3",
          "midi": 59,
          "time": 66.875,
          "velocity": 0.1732283464566929,
          "duration": 0.625
        },
        {
          "name": "D#4",
          "midi": 63,
          "time": 66.875,
          "velocity": 0.1889763779527559,
          "duration": 0.625
        },
        {
          "name": "F#4",
          "midi": 66,
          "time": 66.875,
          "velocity": 0.2047244094488189,
          "duration": 0.625
        },
        {
          "name": "G#4",
          "midi": 68,
          "time": 67.5,
          "velocity": 0.28346456692913385,
          "duration": 0.625
        },
        {
          "name": "G#2",
          "midi": 44,
          "time": 67.5,
          "velocity": 0.29133858267716534,
          "duration": 0.625
        },
        {
          "name": "B4",
          "midi": 71,
          "time": 68.125,
          "velocity": 0.30708661417322836,
          "duration": 0.625
        },
        {
          "name": "G#3",
          "midi": 56,
          "time": 68.125,
          "velocity": 0.1889763779527559,
          "duration": 0.625
        },
        {
          "name": "B3",
          "midi": 59,
          "time": 68.125,
          "velocity": 0.12598425196850394,
          "duration": 0.625
        },
        {
          "name": "D#4",
          "midi": 63,
          "time": 68.125,
          "velocity": 0.18110236220472442,
          "duration": 0.625
        },
        {
          "name": "F#4",
          "midi": 66,
          "time": 68.125,
          "velocity": 0.12598425196850394,
          "duration": 0.625
        },
        {
          "name": "D#5",
          "midi": 75,
          "time": 68.75,
          "velocity": 0.30708661417322836,
          "duration": 0.625
        },
        {
          "name": "G#3",
          "midi": 56,
          "time": 68.75,
          "velocity": 0.2283464566929134,
          "duration": 0.625
        },
        {
          "name": "B3",
          "midi": 59,
          "time": 68.75,
          "velocity": 0.2125984251968504,
          "duration": 0.625
        },
        {
          "name": "D#4",
          "midi": 63,
          "time": 68.75,
          "velocity": 0.13385826771653545,
          "duration": 0.625
        },
        {
          "name": "F#4",
          "midi": 66,
          "time": 68.75,
          "velocity": 0.14173228346456693,
          "duration": 0.625
        },
        {
          "name": "C#2",
          "midi": 37,
          "time": 69.375,
          "velocity": 0.28346456692913385,
          "duration": 0.625
        },
        {
          "name": "B4",
          "midi": 71,
          "time": 69.375,
          "velocity": 0.2755905511811024,
          "duration": 1.25
        },
        {
          "name": "G#5",
          "midi": 80,
          "time": 69.375,
          "velocity": 0.2755905511811024,
          "duration": 1.25
        },
        {
          "name": "B3",
          "midi": 59,
          "time": 70,
          "velocity": 0.1968503937007874,
          "duration": 0.625
        },
        {
          "name": "C#4",
          "midi": 61,
          "time": 70,
          "velocity": 0.14173228346456693,
          "duration": 0.625
        },
        {
          "name": "E4",
          "midi": 64,
          "time": 70,
          "velocity": 0.1889763779527559,
          "duration": 0.625
        },
        {
          "name": "G#4",
          "midi": 68,
          "time": 70,
          "velocity": 0.1732283464566929,
          "duration": 0.625
        },
        {
          "name": "B4",
          "midi": 71,
          "time": 70.625,
          "velocity": 0.31496062992125984,
          "duration": 0.625
        },
        {
          "name": "G#5",
          "midi": 80,
          "time": 70.625,
          "velocity": 0.25984251968503935,
          "duration": 0.625
        },
        {
          "name": "B3",
          "midi": 59,
          "time": 70.625,
          "velocity": 0.1732283464566929,
          "duration": 0.625
        },
        {
          "name": "C#4",
          "midi": 61,
          "time": 70.625,
          "velocity": 0.1889763779527559,
          "duration": 0.625
        },
        {
          "name": "E4",
          "midi": 64,
          "time": 70.625,
          "velocity": 0.2047244094488189,
          "duration": 0.625
        },
        {
          "name": "G#4",
          "midi": 68,
          "time": 70.625,
          "velocity": 0.14960629921259844,
          "duration": 0.625
        },
        {
          "name": "B4",
          "midi": 71,
          "time": 71.25,
          "velocity": 0.28346456692913385,
          "duration": 0.625
        },
        {
          "name": "G#5",
          "midi": 80,
          "time": 71.25,
          "velocity": 0.2755905511811024,
          "duration": 0.625
        },
        {
          "name": "F#2",
          "midi": 42,
          "time": 71.25,
          "velocity": 0.1968503937007874,
          "duration": 0.625
        },
        {
          "name": "F#5",
          "midi": 78,
          "time": 71.875,
          "velocity": 0.2047244094488189,
          "duration": 0.625
        },
        {
          "name": "A#3",
          "midi": 58,
          "time": 71.875,
          "velocity": 0.11811023622047244,
          "duration": 0.625
        },
        {
          "name": "C#4",
          "midi": 61,
          "time": 71.875,
          "velocity": 0.2283464566929134,
          "duration": 0.625
        },
        {
          "name": "E4",
          "midi": 64,
          "time": 71.875,
          "velocity": 0.1968503937007874,
          "duration": 0.625
        },
        {
          "name": "F#4",
          "midi": 66,
          "time": 71.875,
          "velocity": 0.18110236220472442,
          "duration": 0.625
        },
        {
          "name": "E5",
          "midi": 76,
          "time": 72.5,
          "velocity": 0.23622047244094488,
          "duration": 0.625
        },
        {
          "name": "A#3",
          "midi": 58,
          "time": 72.5,
          "velocity": 0.15748031496062992,
          "duration": 0.625
        },
        {
          "name": "C#4",
          "midi": 61,
          "time": 72.5,
          "velocity": 0.1732283464566929,
          "duration": 0.625
        },
        {
          "name": "E4",
          "midi": 64,
          "time": 72.5,
          "velocity": 0.2440944881889764,
          "duration": 0.625
        },
        {
          "name": "F#4",
          "midi": 66,
          "time": 72.5,
          "velocity": 0.2125984251968504,
          "duration": 0.625
        },
        {
          "name": "B2",
          "midi": 47,
          "time": 73.125,
          "velocity": 0.2755905511811024,
          "duration": 0.625
        },
        {
          "name": "A#4",
          "midi": 70,
          "time": 73.125,
          "velocity": 0.23622047244094488,
          "duration": 1.875
        },
        {
          "name": "D#5",
          "midi": 75,
          "time": 73.125,
          "velocity": 0.2440944881889764,
          "duration": 1.875
        },
        {
          "name": "F#5",
          "midi": 78,
          "time": 73.125,
          "velocity": 0.2283464566929134,
          "duration": 1.875
        },
        {
          "name": "A#3",
          "midi": 58,
          "time": 73.75,
          "velocity": 0.14173228346456693,
          "duration": 0.625
        },
        {
          "name": "D#4",
          "midi": 63,
          "time": 73.75,
          "velocity": 0.1889763779527559,
          "duration": 0.625
        },
        {
          "name": "F#4",
          "midi": 66,
          "time": 73.75,
          "velocity": 0.16535433070866143,
          "duration": 0.625
        },
        {
          "name": "A#3",
          "midi": 58,
          "time": 74.375,
          "velocity": 0.1732283464566929,
          "duration": 0.625
        },
        {
          "name": "D#4",
          "midi": 63,
          "time": 74.375,
          "velocity": 0.18110236220472442,
          "duration": 0.625
        },
        {
          "name": "F#4",
          "midi": 66,
          "time": 74.375,
          "velocity": 0.16535433070866143,
          "duration": 0.625
        },
        {
          "name": "A#4",
          "midi": 70,
          "time": 75,
          "velocity": 0.2677165354330709,
          "duration": 0.625
        },
        {
          "name": "F#2",
          "midi": 42,
          "time": 75,
          "velocity": 0.2283464566929134,
          "duration": 0.625
        },
        {
          "name": "D#5",
          "midi": 75,
          "time": 75.625,
          "velocity": 0.29133858267716534,
          "duration": 0.625
        },
        {
          "name": "A#3",
          "midi": 58,
          "time": 75.625,
          "velocity": 0.2125984251968504,
          "duration": 0.625
        },
        {
          "name": "D#4",
          "midi": 63,
          "time": 75.625,
          "velocity": 0.1968503937007874,
          "duration": 0.625
        },
        {
          "name": "F#4",
          "midi": 66,
          "time": 75.625,
          "velocity": 0.1732283464566929,
          "duration": 0.625
        },
        {
          "name": "F#5",
          "midi": 78,
          "time": 76.25,
          "velocity": 0.25984251968503935,
          "duration": 0.625
        },
        {
          "name": "A#3",
          "midi": 58,
          "time": 76.25,
          "velocity": 0.18110236220472442,
          "duration": 0.625
        },
        {
          "name": "D#4",
          "midi": 63,
          "time": 76.25,
          "velocity": 0.2047244094488189,
          "duration": 0.625
        },
        {
          "name": "F#4",
          "midi": 66,
          "time": 76.25,
          "velocity": 0.1889763779527559,
          "duration": 0.625
        },
        {
          "name": "F2",
          "midi": 41,
          "time": 76.875,
          "velocity": 0.25984251968503935,
          "duration": 0.625
        },
        {
          "name": "B4",
          "midi": 71,
          "time": 76.875,
          "velocity": 0.25984251968503935,
          "duration": 1.25
        },
        {
          "name": "D#5",
          "midi": 75,
          "time": 76.875,
          "velocity": 0.2440944881889764,
          "duration": 1.25
        },
        {
          "name": "A#5",
          "midi": 82,
          "time": 76.875,
          "velocity": 0.2677165354330709,
          "duration": 1.25
        },
        {
          "name": "B3",
          "midi": 59,
          "time": 77.5,
          "velocity": 0.1732283464566929,
          "duration": 0.625
        },
        {
          "name": "D#4",
          "midi": 63,
          "time": 77.5,
          "velocity": 0.2283464566929134,
          "duration": 0.625
        },
        {
          "name": "A#4",
          "midi": 70,
          "time": 77.5,
          "velocity": 0.2047244094488189,
          "duration": 0.625
        },
        {
          "name": "B4",
          "midi": 71,
          "time": 78.125,
          "velocity": 0.23622047244094488,
          "duration": 0.625
        },
        {
          "name": "D#5",
          "midi": 75,
          "time": 78.125,
          "velocity": 0.2440944881889764,
          "duration": 0.625
        },
        {
          "name": "G#5",
          "midi": 80,
          "time": 78.125,
          "velocity": 0.28346456692913385,
          "duration": 0.625
        },
        {
          "name": "B3",
          "midi": 59,
          "time": 78.125,
          "velocity": 0.2204724409448819,
          "duration": 0.625
        },
        {
          "name": "D#4",
          "midi": 63,
          "time": 78.125,
          "velocity": 0.18110236220472442,
          "duration": 0.625
        },
        {
          "name": "G#4",
          "midi": 68,
          "time": 78.125,
          "velocity": 0.1968503937007874,
          "duration": 0.625
        },
        {
          "name": "B4",
          "midi": 71,
          "time": 78.75,
          "velocity": 0.25984251968503935,
          "duration": 0.625
        },
        {
          "name": "D5",
          "midi": 74,
          "time": 78.75,
          "velocity": 0.1968503937007874,
          "duration": 0.625
        },
        {
          "name": "F#5",
          "midi": 78,
          "time": 78.75,
          "velocity": 0.30708661417322836,
          "duration": 0.625
        },
        {
          "name": "A#2",
          "midi": 46,
          "time": 78.75,
          "velocity": 0.1889763779527559,
          "duration": 0.625
        },
        {
          "name": "D5",
          "midi": 74,
          "time": 79.375,
          "velocity": 0.25984251968503935,
          "duration": 0.625
        },
        {
          "name": "F5",
          "midi": 77,
          "time": 79.375,
          "velocity": 0.25196850393700787,
          "duration": 0.625
        },
        {
          "name": "B3",
          "midi": 59,
          "time": 79.375,
          "velocity": 0.2204724409448819,
          "duration": 0.625
        },
        {
          "name": "D4",
          "midi": 62,
          "time": 79.375,
          "velocity": 0.1732283464566929,
          "duration": 0.625
        },
        {
          "name": "G#4",
          "midi": 68,
          "time": 79.375,
          "velocity": 0.18110236220472442,
          "duration": 0.625
        },
        {
          "name": "F#5",
          "midi": 78,
          "time": 80,
          "velocity": 0.2755905511811024,
          "duration": 0.625
        },
        {
          "name": "B3",
          "midi": 59,
          "time": 80,
          "velocity": 0.15748031496062992,
          "duration": 0.625
        },
        {
          "name": "D4",
          "midi": 62,
          "time": 80,
          "velocity": 0.1968503937007874,
          "duration": 0.625
        },
        {
          "name": "F#4",
          "midi": 66,
          "time": 80,
          "velocity": 0.2125984251968504,
          "duration": 0.625
        },
        {
          "name": "D#2",
          "midi": 39,
          "time": 80.625,
          "velocity": 0.25984251968503935,
          "duration": 0.625
        },
        {
          "name": "D#3",
          "midi": 51,
          "time": 80.625,
          "velocity": 0.2204724409448819,
          "duration": 0.625
        },
        {
          "name": "A#4",
          "midi": 70,
          "time": 80.625,
          "velocity": 0.2440944881889764,
          "duration": 1.25
        },
        {
          "name": "D#5",
          "midi": 75,
          "time": 80.625,
          "velocity": 0.28346456692913385,
          "duration": 1.25
        },
        {
          "name": "G#5",
          "midi": 80,
          "time": 80.625,
          "velocity": 0.29133858267716534,
          "duration": 1.25
        },
        {
          "name": "A#3",
          "midi": 58,
          "time": 81.25,
          "velocity": 0.16535433070866143,
          "duration": 0.625
        },
        {
          "name": "D#4",
          "midi": 63,
          "time": 81.25,
          "velocity": 0.2047244094488189,
          "duration": 0.625
        },
        {
          "name": "G#4",
          "midi": 68,
          "time": 81.25,
          "velocity": 0.16535433070866143,
          "duration": 0.625
        },
        {
          "name": "F#5",
          "midi": 78,
          "time": 81.875,
          "velocity": 0.28346456692913385,
          "duration": 0.625
        },
        {
          "name": "A#3",
          "midi": 58,
          "time": 81.875,
          "velocity": 0.23622047244094488,
          "duration": 0.625
        },
        {
          "name": "D#4",
          "midi": 63,
          "time": 81.875,
          "velocity": 0.14173228346456693,
          "duration": 0.625
        },
        {
          "name": "F#4",
          "midi": 66,
          "time": 81.875,
          "velocity": 0.14960629921259844,
          "duration": 0.625
        },
        {
          "name": "C#2",
          "midi": 37,
          "time": 82.5,
          "velocity": 0.25196850393700787,
          "duration": 0.625
        },
        {
          "name": "C#3",
          "midi": 49,
          "time": 82.5,
          "velocity": 0.2440944881889764,
          "duration": 0.625
        },
        {
          "name": "A#4",
          "midi": 70,
          "time": 82.5,
          "velocity": 0.29133858267716534,
          "duration": 1.25
        },
        {
          "name": "F5",
          "midi": 77,
          "time": 82.5,
          "velocity": 0.2440944881889764,
          "duration": 1.25
        },
        {
          "name": "A#3",
          "midi": 58,
          "time": 83.125,
          "velocity": 0.14173228346456693,
          "duration": 0.625
        },
        {
          "name": "C#4",
          "midi": 61,
          "time": 83.125,
          "velocity": 0.2440944881889764,
          "duration": 0.625
        },
        {
          "name": "F4",
          "midi": 65,
          "time": 83.125,
          "velocity": 0.16535433070866143,
          "duration": 0.625
        },
        {
          "name": "D#5",
          "midi": 75,
          "time": 83.75,
          "velocity": 0.2755905511811024,
          "duration": 0.625
        },
        {
          "name": "A#3",
          "midi": 58,
          "time": 83.75,
          "velocity": 0.2283464566929134,
          "duration": 0.625
        },
        {
          "name": "C#4",
          "midi": 61,
          "time": 83.75,
          "velocity": 0.1968503937007874,
          "duration": 0.625
        },
        {
          "name": "D#4",
          "midi": 63,
          "time": 83.75,
          "velocity": 0.13385826771653545,
          "duration": 0.625
        },
        {
          "name": "D#4",
          "midi": 63,
          "time": 84.375,
          "velocity": 0.25196850393700787,
          "duration": 0.625
        },
        {
          "name": "F#4",
          "midi": 66,
          "time": 84.375,
          "velocity": 0.2047244094488189,
          "duration": 0.625
        },
        {
          "name": "C#5",
          "midi": 73,
          "time": 84.375,
          "velocity": 0.2440944881889764,
          "duration": 0.625
        },
        {
          "name": "B1",
          "midi": 35,
          "time": 84.375,
          "velocity": 0.16535433070866143,
          "duration": 0.625
        },
        {
          "name": "B2",
          "midi": 47,
          "time": 84.375,
          "velocity": 0.2125984251968504,
          "duration": 0.625
        },
        {
          "name": "B4",
          "midi": 71,
          "time": 85,
          "velocity": 0.2440944881889764,
          "duration": 0.625
        },
        {
          "name": "F#3",
          "midi": 54,
          "time": 85,
          "velocity": 0.2204724409448819,
          "duration": 0.625
        },
        {
          "name": "B3",
          "midi": 59,
          "time": 85,
          "velocity": 0.16535433070866143,
          "duration": 0.625
        },
        {
          "name": "D#4",
          "midi": 63,
          "time": 85,
          "velocity": 0.2204724409448819,
          "duration": 0.625
        },
        {
          "name": "C#5",
          "midi": 73,
          "time": 85.625,
          "velocity": 0.2677165354330709,
          "duration": 0.625
        },
        {
          "name": "F#3",
          "midi": 54,
          "time": 85.625,
          "velocity": 0.14960629921259844,
          "duration": 0.625
        },
        {
          "name": "A#3",
          "midi": 58,
          "time": 85.625,
          "velocity": 0.15748031496062992,
          "duration": 0.625
        },
        {
          "name": "D#4",
          "midi": 63,
          "time": 85.625,
          "velocity": 0.1732283464566929,
          "duration": 0.625
        },
        {
          "name": "D#5",
          "midi": 75,
          "time": 86.25,
          "velocity": 0.29133858267716534,
          "duration": 0.625
        },
        {
          "name": "A#1",
          "midi": 34,
          "time": 86.25,
          "velocity": 0.2204724409448819,
          "duration": 0.625
        },
        {
          "name": "A#2",
          "midi": 46,
          "time": 86.25,
          "velocity": 0.18110236220472442,
          "duration": 0.625
        },
        {
          "name": "C#5",
          "midi": 73,
          "time": 86.875,
          "velocity": 0.25984251968503935,
          "duration": 0.625
        },
        {
          "name": "G#3",
          "midi": 56,
          "time": 86.875,
          "velocity": 0.1732283464566929,
          "duration": 0.625
        },
        {
          "name": "C#4",
          "midi": 61,
          "time": 86.875,
          "velocity": 0.1968503937007874,
          "duration": 0.625
        },
        {
          "name": "F4",
          "midi": 65,
          "time": 86.875,
          "velocity": 0.1968503937007874,
          "duration": 0.625
        },
        {
          "name": "G#4",
          "midi": 68,
          "time": 87.5,
          "velocity": 0.29133858267716534,
          "duration": 0.625
        },
        {
          "name": "G#3",
          "midi": 56,
          "time": 87.5,
          "velocity": 0.15748031496062992,
          "duration": 0.625
        },
        {
          "name": "C#4",
          "midi": 61,
          "time": 87.5,
          "velocity": 0.12598425196850394,
          "duration": 0.625
        },
        {
          "name": "F4",
          "midi": 65,
          "time": 87.5,
          "velocity": 0.2440944881889764,
          "duration": 0.625
        },
        {
          "name": "D#2",
          "midi": 39,
          "time": 88.125,
          "velocity": 0.23622047244094488,
          "duration": 0.625
        },
        {
          "name": "D#3",
          "midi": 51,
          "time": 88.125,
          "velocity": 0.2677165354330709,
          "duration": 0.625
        },
        {
          "name": "A#4",
          "midi": 70,
          "time": 88.125,
          "velocity": 0.25984251968503935,
          "duration": 1.875
        },
        {
          "name": "A#3",
          "midi": 58,
          "time": 88.75,
          "velocity": 0.23622047244094488,
          "duration": 0.625
        },
        {
          "name": "C#4",
          "midi": 61,
          "time": 88.75,
          "velocity": 0.23622047244094488,
          "duration": 0.625
        },
        {
          "name": "D#4",
          "midi": 63,
          "time": 88.75,
          "velocity": 0.16535433070866143,
          "duration": 0.625
        },
        {
          "name": "G#4",
          "midi": 68,
          "time": 88.75,
          "velocity": 0.15748031496062992,
          "duration": 0.625
        },
        {
          "name": "A#3",
          "midi": 58,
          "time": 89.375,
          "velocity": 0.2283464566929134,
          "duration": 0.625
        },
        {
          "name": "C#4",
          "midi": 61,
          "time": 89.375,
          "velocity": 0.2125984251968504,
          "duration": 0.625
        },
        {
          "name": "D#4",
          "midi": 63,
          "time": 89.375,
          "velocity": 0.15748031496062992,
          "duration": 0.625
        },
        {
          "name": "G#4",
          "midi": 68,
          "time": 89.375,
          "velocity": 0.1968503937007874,
          "duration": 0.625
        },
        {
          "name": "D#4",
          "midi": 63,
          "time": 90,
          "velocity": 0.2992125984251969,
          "duration": 0.625
        },
        {
          "name": "D#2",
          "midi": 39,
          "time": 90,
          "velocity": 0.2755905511811024,
          "duration": 0.625
        },
        {
          "name": "D#3",
          "midi": 51,
          "time": 90,
          "velocity": 0.2283464566929134,
          "duration": 0.625
        },
        {
          "name": "G#4",
          "midi": 68,
          "time": 90.625,
          "velocity": 0.3464566929133858,
          "duration": 0.625
        },
        {
          "name": "A#3",
          "midi": 58,
          "time": 90.625,
          "velocity": 0.12598425196850394,
          "duration": 0.625
        },
        {
          "name": "C#4",
          "midi": 61,
          "time": 90.625,
          "velocity": 0.2283464566929134,
          "duration": 0.625
        },
        {
          "name": "B4",
          "midi": 71,
          "time": 91.25,
          "velocity": 0.28346456692913385,
          "duration": 0.625
        },
        {
          "name": "A#3",
          "midi": 58,
          "time": 91.25,
          "velocity": 0.1732283464566929,
          "duration": 0.625
        },
        {
          "name": "C#4",
          "midi": 61,
          "time": 91.25,
          "velocity": 0.1732283464566929,
          "duration": 0.625
        },
        {
          "name": "G4",
          "midi": 67,
          "time": 91.25,
          "velocity": 0.16535433070866143,
          "duration": 0.625
        },
        {
          "name": "C#2",
          "midi": 37,
          "time": 91.875,
          "velocity": 0.2755905511811024,
          "duration": 0.625
        },
        {
          "name": "G#4",
          "midi": 68,
          "time": 91.875,
          "velocity": 0.2125984251968504,
          "duration": 1.25
        },
        {
          "name": "B4",
          "midi": 71,
          "time": 91.875,
          "velocity": 0.2755905511811024,
          "duration": 1.25
        },
        {
          "name": "D#5",
          "midi": 75,
          "time": 91.875,
          "velocity": 0.25984251968503935,
          "duration": 1.25
        },
        {
          "name": "G#3",
          "midi": 56,
          "time": 92.5,
          "velocity": 0.1889763779527559,
          "duration": 0.625
        },
        {
          "name": "B3",
          "midi": 59,
          "time": 92.5,
          "velocity": 0.2125984251968504,
          "duration": 0.625
        },
        {
          "name": "E4",
          "midi": 64,
          "time": 92.5,
          "velocity": 0.25984251968503935,
          "duration": 0.625
        },
        {
          "name": "G#4",
          "midi": 68,
          "time": 93.125,
          "velocity": 0.2440944881889764,
          "duration": 0.625
        },
        {
          "name": "B4",
          "midi": 71,
          "time": 93.125,
          "velocity": 0.2047244094488189,
          "duration": 0.625
        },
        {
          "name": "D#5",
          "midi": 75,
          "time": 93.125,
          "velocity": 0.28346456692913385,
          "duration": 0.625
        },
        {
          "name": "G#3",
          "midi": 56,
          "time": 93.125,
          "velocity": 0.1968503937007874,
          "duration": 0.625
        },
        {
          "name": "B3",
          "midi": 59,
          "time": 93.125,
          "velocity": 0.1968503937007874,
          "duration": 0.625
        },
        {
          "name": "E4",
          "midi": 64,
          "time": 93.125,
          "velocity": 0.2283464566929134,
          "duration": 0.625
        },
        {
          "name": "C#5",
          "midi": 73,
          "time": 93.75,
          "velocity": 0.2755905511811024,
          "duration": 0.625
        },
        {
          "name": "D#2",
          "midi": 39,
          "time": 93.75,
          "velocity": 0.28346456692913385,
          "duration": 0.625
        },
        {
          "name": "B4",
          "midi": 71,
          "time": 94.375,
          "velocity": 0.28346456692913385,
          "duration": 0.625
        },
        {
          "name": "B3",
          "midi": 59,
          "time": 94.375,
          "velocity": 0.1732283464566929,
          "duration": 0.625
        },
        {
          "name": "D#4",
          "midi": 63,
          "time": 94.375,
          "velocity": 0.2125984251968504,
          "duration": 0.625
        },
        {
          "name": "G4",
          "midi": 67,
          "time": 94.375,
          "velocity": 0.1732283464566929,
          "duration": 0.625
        },
        {
          "name": "A#4",
          "midi": 70,
          "time": 95,
          "velocity": 0.2755905511811024,
          "duration": 0.625
        },
        {
          "name": "A#3",
          "midi": 58,
          "time": 95,
          "velocity": 0.1968503937007874,
          "duration": 0.625
        },
        {
          "name": "D#4",
          "midi": 63,
          "time": 95,
          "velocity": 0.13385826771653545,
          "duration": 0.625
        },
        {
          "name": "G4",
          "midi": 67,
          "time": 95,
          "velocity": 0.16535433070866143,
          "duration": 0.625
        },
        {
          "name": "G#2",
          "midi": 44,
          "time": 95.625,
          "velocity": 0.2047244094488189,
          "duration": 0.625
        },
        {
          "name": "B4",
          "midi": 71,
          "time": 95.625,
          "velocity": 0.29133858267716534,
          "duration": 1.875
        },
        {
          "name": "B3",
          "midi": 59,
          "time": 96.25,
          "velocity": 0.18110236220472442,
          "duration": 0.625
        },
        {
          "name": "D#4",
          "midi": 63,
          "time": 96.25,
          "velocity": 0.25984251968503935,
          "duration": 0.625
        },
        {
          "name": "F#4",
          "midi": 66,
          "time": 96.25,
          "velocity": 0.18110236220472442,
          "duration": 0.625
        },
        {
          "name": "B3",
          "midi": 59,
          "time": 96.875,
          "velocity": 0.2755905511811024,
          "duration": 0.625
        },
        {
          "name": "D#4",
          "midi": 63,
          "time": 96.875,
          "velocity": 0.1968503937007874,
          "duration": 0.625
        },
        {
          "name": "F#4",
          "midi": 66,
          "time": 96.875,
          "velocity": 0.1889763779527559,
          "duration": 0.625
        },
        {
          "name": "G#4",
          "midi": 68,
          "time": 97.5,
          "velocity": 0.2677165354330709,
          "duration": 0.625
        },
        {
          "name": "F#3",
          "midi": 54,
          "time": 97.5,
          "velocity": 0.25196850393700787,
          "duration": 0.9375
        },
        {
          "name": "A3",
          "midi": 57,
          "time": 97.5,
          "velocity": 0.25196850393700787,
          "duration": 0.9375
        },
        {
          "name": "C#4",
          "midi": 61,
          "time": 97.5,
          "velocity": 0.31496062992125984,
          "duration": 0.9375
        },
        {
          "name": "B4",
          "midi": 71,
          "time": 98.125,
          "velocity": 0.29133858267716534,
          "duration": 0.625
        },
        {
          "name": "B2",
          "midi": 47,
          "time": 98.4375,
          "velocity": 0.25984251968503935,
          "duration": 0.9375
        },
        {
          "name": "F#3",
          "midi": 54,
          "time": 98.4375,
          "velocity": 0.29133858267716534,
          "duration": 0.9375
        },
        {
          "name": "A3",
          "midi": 57,
          "time": 98.4375,
          "velocity": 0.29133858267716534,
          "duration": 0.9375
        },
        {
          "name": "D#5",
          "midi": 75,
          "time": 98.75,
          "velocity": 0.2677165354330709,
          "duration": 0.625
        },
        {
          "name": "E2",
          "midi": 40,
          "time": 99.375,
          "velocity": 0.2440944881889764,
          "duration": 0.625
        },
        {
          "name": "B4",
          "midi": 71,
          "time": 99.375,
          "velocity": 0.33070866141732286,
          "duration": 1.25
        },
        {
          "name": "G#5",
          "midi": 80,
          "time": 99.375,
          "velocity": 0.2755905511811024,
          "duration": 1.25
        },
        {
          "name": "B3",
          "midi": 59,
          "time": 100,
          "velocity": 0.1732283464566929,
          "duration": 0.625
        },
        {
          "name": "D#4",
          "midi": 63,
          "time": 100,
          "velocity": 0.2125984251968504,
          "duration": 0.625
        },
        {
          "name": "G#4",
          "midi": 68,
          "time": 100,
          "velocity": 0.13385826771653545,
          "duration": 0.625
        },
        {
          "name": "B4",
          "midi": 71,
          "time": 100.625,
          "velocity": 0.36220472440944884,
          "duration": 0.625
        },
        {
          "name": "G#5",
          "midi": 80,
          "time": 100.625,
          "velocity": 0.2992125984251969,
          "duration": 0.625
        },
        {
          "name": "B3",
          "midi": 59,
          "time": 100.625,
          "velocity": 0.18110236220472442,
          "duration": 0.625
        },
        {
          "name": "D#4",
          "midi": 63,
          "time": 100.625,
          "velocity": 0.1889763779527559,
          "duration": 0.625
        },
        {
          "name": "G#4",
          "midi": 68,
          "time": 100.625,
          "velocity": 0.14173228346456693,
          "duration": 0.625
        },
        {
          "name": "G#5",
          "midi": 80,
          "time": 101.25,
          "velocity": 0.2755905511811024,
          "duration": 0.625
        },
        {
          "name": "E2",
          "midi": 40,
          "time": 101.25,
          "velocity": 0.25196850393700787,
          "duration": 0.625
        },
        {
          "name": "B4",
          "midi": 71,
          "time": 101.25,
          "velocity": 0.3228346456692913,
          "duration": 1.25
        },
        {
          "name": "A#5",
          "midi": 82,
          "time": 101.875,
          "velocity": 0.25984251968503935,
          "duration": 0.625
        },
        {
          "name": "A#3",
          "midi": 58,
          "time": 101.875,
          "velocity": 0.1889763779527559,
          "duration": 0.625
        },
        {
          "name": "C#4",
          "midi": 61,
          "time": 101.875,
          "velocity": 0.1889763779527559,
          "duration": 0.625
        },
        {
          "name": "F#4",
          "midi": 66,
          "time": 101.875,
          "velocity": 0.25984251968503935,
          "duration": 0.625
        },
        {
          "name": "F#5",
          "midi": 78,
          "time": 102.5,
          "velocity": 0.2755905511811024,
          "duration": 0.3125
        },
        {
          "name": "A#3",
          "midi": 58,
          "time": 102.5,
          "velocity": 0.2125984251968504,
          "duration": 0.625
        },
        {
          "name": "C#4",
          "midi": 61,
          "time": 102.5,
          "velocity": 0.1968503937007874,
          "duration": 0.625
        },
        {
          "name": "F#4",
          "midi": 66,
          "time": 102.5,
          "velocity": 0.2047244094488189,
          "duration": 0.625
        },
        {
          "name": "E5",
          "midi": 76,
          "time": 102.8125,
          "velocity": 0.29133858267716534,
          "duration": 0.3125
        },
        {
          "name": "D#2",
          "midi": 39,
          "time": 103.125,
          "velocity": 0.2755905511811024,
          "duration": 0.625
        },
        {
          "name": "F#5",
          "midi": 78,
          "time": 103.125,
          "velocity": 0.28346456692913385,
          "duration": 1.875
        },
        {
          "name": "A#3",
          "midi": 58,
          "time": 103.75,
          "velocity": 0.23622047244094488,
          "duration": 0.625
        },
        {
          "name": "C#4",
          "midi": 61,
          "time": 103.75,
          "velocity": 0.15748031496062992,
          "duration": 0.625
        },
        {
          "name": "F#4",
          "midi": 66,
          "time": 103.75,
          "velocity": 0.1889763779527559,
          "duration": 0.625
        },
        {
          "name": "A#3",
          "midi": 58,
          "time": 104.375,
          "velocity": 0.15748031496062992,
          "duration": 0.625
        },
        {
          "name": "C#4",
          "midi": 61,
          "time": 104.375,
          "velocity": 0.23622047244094488,
          "duration": 0.625
        },
        {
          "name": "F#4",
          "midi": 66,
          "time": 104.375,
          "velocity": 0.2204724409448819,
          "duration": 0.625
        },
        {
          "name": "A#4",
          "midi": 70,
          "time": 105,
          "velocity": 0.30708661417322836,
          "duration": 0.625
        },
        {
          "name": "G#1",
          "midi": 32,
          "time": 105,
          "velocity": 0.25984251968503935,
          "duration": 0.625
        },
        {
          "name": "D#5",
          "midi": 75,
          "time": 105.625,
          "velocity": 0.29133858267716534,
          "duration": 0.625
        },
        {
          "name": "B3",
          "midi": 59,
          "time": 105.625,
          "velocity": 0.18110236220472442,
          "duration": 0.625
        },
        {
          "name": "D#4",
          "midi": 63,
          "time": 105.625,
          "velocity": 0.2125984251968504,
          "duration": 0.625
        },
        {
          "name": "F#4",
          "midi": 66,
          "time": 105.625,
          "velocity": 0.1968503937007874,
          "duration": 0.625
        },
        {
          "name": "G#4",
          "midi": 68,
          "time": 105.625,
          "velocity": 0.2283464566929134,
          "duration": 0.625
        },
        {
          "name": "F#5",
          "midi": 78,
          "time": 106.25,
          "velocity": 0.31496062992125984,
          "duration": 0.625
        },
        {
          "name": "B3",
          "midi": 59,
          "time": 106.25,
          "velocity": 0.1889763779527559,
          "duration": 0.625
        },
        {
          "name": "D#4",
          "midi": 63,
          "time": 106.25,
          "velocity": 0.16535433070866143,
          "duration": 0.625
        },
        {
          "name": "F#4",
          "midi": 66,
          "time": 106.25,
          "velocity": 0.2047244094488189,
          "duration": 0.625
        },
        {
          "name": "G#4",
          "midi": 68,
          "time": 106.25,
          "velocity": 0.1889763779527559,
          "duration": 0.625
        },
        {
          "name": "F2",
          "midi": 41,
          "time": 106.875,
          "velocity": 0.2992125984251969,
          "duration": 0.625
        },
        {
          "name": "B4",
          "midi": 71,
          "time": 106.875,
          "velocity": 0.2440944881889764,
          "duration": 1.25
        },
        {
          "name": "D#5",
          "midi": 75,
          "time": 106.875,
          "velocity": 0.2440944881889764,
          "duration": 1.25
        },
        {
          "name": "A#5",
          "midi": 82,
          "time": 106.875,
          "velocity": 0.2677165354330709,
          "duration": 1.25
        },
        {
          "name": "B3",
          "midi": 59,
          "time": 107.5,
          "velocity": 0.14173228346456693,
          "duration": 0.625
        },
        {
          "name": "D#4",
          "midi": 63,
          "time": 107.5,
          "velocity": 0.2440944881889764,
          "duration": 0.625
        },
        {
          "name": "F#4",
          "midi": 66,
          "time": 107.5,
          "velocity": 0.2125984251968504,
          "duration": 0.625
        },
        {
          "name": "A#4",
          "midi": 70,
          "time": 107.5,
          "velocity": 0.1889763779527559,
          "duration": 0.625
        },
        {
          "name": "B3",
          "midi": 59,
          "time": 108.125,
          "velocity": 0.1968503937007874,
          "duration": 0.625
        },
        {
          "name": "D#4",
          "midi": 63,
          "time": 108.125,
          "velocity": 0.25984251968503935,
          "duration": 0.625
        },
        {
          "name": "F#4",
          "midi": 66,
          "time": 108.125,
          "velocity": 0.2125984251968504,
          "duration": 0.625
        },
        {
          "name": "G#4",
          "midi": 68,
          "time": 108.125,
          "velocity": 0.1889763779527559,
          "duration": 0.625
        },
        {
          "name": "B4",
          "midi": 71,
          "time": 108.125,
          "velocity": 0.25196850393700787,
          "duration": 1.25
        },
        {
          "name": "D#5",
          "midi": 75,
          "time": 108.125,
          "velocity": 0.2283464566929134,
          "duration": 1.25
        },
        {
          "name": "G#5",
          "midi": 80,
          "time": 108.125,
          "velocity": 0.25196850393700787,
          "duration": 1.25
        },
        {
          "name": "A#1",
          "midi": 34,
          "time": 108.75,
          "velocity": 0.2125984251968504,
          "duration": 0.625
        },
        {
          "name": "D5",
          "midi": 74,
          "time": 109.375,
          "velocity": 0.23622047244094488,
          "duration": 0.3125
        },
        {
          "name": "F#5",
          "midi": 78,
          "time": 109.375,
          "velocity": 0.2283464566929134,
          "duration": 0.3125
        },
        {
          "name": "B3",
          "midi": 59,
          "time": 109.375,
          "velocity": 0.1968503937007874,
          "duration": 0.625
        },
        {
          "name": "D4",
          "midi": 62,
          "time": 109.375,
          "velocity": 0.2283464566929134,
          "duration": 0.625
        },
        {
          "name": "F#4",
          "midi": 66,
          "time": 109.375,
          "velocity": 0.2125984251968504,
          "duration": 0.625
        },
        {
          "name": "F5",
          "midi": 77,
          "time": 109.6875,
          "velocity": 0.2283464566929134,
          "duration": 0.3125
        },
        {
          "name": "E5",
          "midi": 76,
          "time": 110,
          "velocity": 0.2440944881889764,
          "duration": 0.3125
        },
        {
          "name": "B3",
          "midi": 59,
          "time": 110,
          "velocity": 0.2283464566929134,
          "duration": 0.625
        },
        {
          "name": "D4",
          "midi": 62,
          "time": 110,
          "velocity": 0.23622047244094488,
          "duration": 0.625
        },
        {
          "name": "G#4",
          "midi": 68,
          "time": 110,
          "velocity": 0.1968503937007874,
          "duration": 0.625
        },
        {
          "name": "F5",
          "midi": 77,
          "time": 110.3125,
          "velocity": 0.2992125984251969,
          "duration": 0.3125
        },
        {
          "name": "D#2",
          "midi": 39,
          "time": 110.625,
          "velocity": 0.2440944881889764,
          "duration": 0.625
        },
        {
          "name": "A#4",
          "midi": 70,
          "time": 110.625,
          "velocity": 0.2992125984251969,
          "duration": 1.25
        },
        {
          "name": "D#5",
          "midi": 75,
          "time": 110.625,
          "velocity": 0.2440944881889764,
          "duration": 1.25
        },
        {
          "name": "G#5",
          "midi": 80,
          "time": 110.625,
          "velocity": 0.25196850393700787,
          "duration": 1.25
        },
        {
          "name": "A#3",
          "midi": 58,
          "time": 111.25,
          "velocity": 0.2125984251968504,
          "duration": 0.625
        },
        {
          "name": "C#4",
          "midi": 61,
          "time": 111.25,
          "velocity": 0.2440944881889764,
          "duration": 0.625
        },
        {
          "name": "D#4",
          "midi": 63,
          "time": 111.25,
          "velocity": 0.23622047244094488,
          "duration": 0.625
        },
        {
          "name": "G#4",
          "midi": 68,
          "time": 111.25,
          "velocity": 0.2047244094488189,
          "duration": 0.625
        },
        {
          "name": "A#3",
          "midi": 58,
          "time": 111.875,
          "velocity": 0.2125984251968504,
          "duration": 0.625
        },
        {
          "name": "C#4",
          "midi": 61,
          "time": 111.875,
          "velocity": 0.16535433070866143,
          "duration": 0.625
        },
        {
          "name": "D#4",
          "midi": 63,
          "time": 111.875,
          "velocity": 0.1968503937007874,
          "duration": 0.625
        },
        {
          "name": "F#4",
          "midi": 66,
          "time": 111.875,
          "velocity": 0.1732283464566929,
          "duration": 0.625
        },
        {
          "name": "F#5",
          "midi": 78,
          "time": 111.875,
          "velocity": 0.2755905511811024,
          "duration": 1.25
        },
        {
          "name": "C#2",
          "midi": 37,
          "time": 112.5,
          "velocity": 0.2440944881889764,
          "duration": 0.625
        },
        {
          "name": "F5",
          "midi": 77,
          "time": 113.125,
          "velocity": 0.25984251968503935,
          "duration": 0.3125
        },
        {
          "name": "A#3",
          "midi": 58,
          "time": 113.125,
          "velocity": 0.1889763779527559,
          "duration": 0.625
        },
        {
          "name": "D#4",
          "midi": 63,
          "time": 113.125,
          "velocity": 0.15748031496062992,
          "duration": 0.625
        },
        {
          "name": "F#4",
          "midi": 66,
          "time": 113.125,
          "velocity": 0.2125984251968504,
          "duration": 0.625
        },
        {
          "name": "D#5",
          "midi": 75,
          "time": 113.4375,
          "velocity": 0.25196850393700787,
          "duration": 0.3125
        },
        {
          "name": "D5",
          "midi": 74,
          "time": 113.75,
          "velocity": 0.2125984251968504,
          "duration": 0.3125
        },
        {
          "name": "A#3",
          "midi": 58,
          "time": 113.75,
          "velocity": 0.25196850393700787,
          "duration": 0.625
        },
        {
          "name": "D#4",
          "midi": 63,
          "time": 113.75,
          "velocity": 0.23622047244094488,
          "duration": 0.625
        },
        {
          "name": "F#4",
          "midi": 66,
          "time": 113.75,
          "velocity": 0.1889763779527559,
          "duration": 0.625
        },
        {
          "name": "D#5",
          "midi": 75,
          "time": 114.0625,
          "velocity": 0.2125984251968504,
          "duration": 0.3125
        },
        {
          "name": "F#4",
          "midi": 66,
          "time": 114.375,
          "velocity": 0.25984251968503935,
          "duration": 0.625
        },
        {
          "name": "B4",
          "midi": 71,
          "time": 114.375,
          "velocity": 0.23622047244094488,
          "duration": 0.625
        },
        {
          "name": "D#5",
          "midi": 75,
          "time": 114.375,
          "velocity": 0.2283464566929134,
          "duration": 0.625
        },
        {
          "name": "B1",
          "midi": 35,
          "time": 114.375,
          "velocity": 0.2755905511811024,
          "duration": 0.625
        },
        {
          "name": "C#5",
          "midi": 73,
          "time": 115,
          "velocity": 0.2755905511811024,
          "duration": 0.3125
        },
        {
          "name": "B3",
          "midi": 59,
          "time": 115,
          "velocity": 0.15748031496062992,
          "duration": 0.625
        },
        {
          "name": "D#4",
          "midi": 63,
          "time": 115,
          "velocity": 0.2047244094488189,
          "duration": 0.625
        },
        {
          "name": "F#4",
          "midi": 66,
          "time": 115,
          "velocity": 0.2047244094488189,
          "duration": 0.625
        },
        {
          "name": "D#5",
          "midi": 75,
          "time": 115.3125,
          "velocity": 0.23622047244094488,
          "duration": 0.3125
        },
        {
          "name": "C#5",
          "midi": 73,
          "time": 115.625,
          "velocity": 0.2125984251968504,
          "duration": 0.3125
        },
        {
          "name": "B3",
          "midi": 59,
          "time": 115.625,
          "velocity": 0.23622047244094488,
          "duration": 0.625
        },
        {
          "name": "D#4",
          "midi": 63,
          "time": 115.625,
          "velocity": 0.2440944881889764,
          "duration": 0.625
        },
        {
          "name": "F#4",
          "midi": 66,
          "time": 115.625,
          "velocity": 0.1968503937007874,
          "duration": 0.625
        },
        {
          "name": "B4",
          "midi": 71,
          "time": 115.9375,
          "velocity": 0.25196850393700787,
          "duration": 0.3125
        },
        {
          "name": "A#1",
          "midi": 34,
          "time": 116.25,
          "velocity": 0.2440944881889764,
          "duration": 0.625
        },
        {
          "name": "A#4",
          "midi": 70,
          "time": 116.25,
          "velocity": 0.2440944881889764,
          "duration": 0.9375
        },
        {
          "name": "A#3",
          "midi": 58,
          "time": 116.875,
          "velocity": 0.1732283464566929,
          "duration": 0.625
        },
        {
          "name": "D4",
          "midi": 62,
          "time": 116.875,
          "velocity": 0.2047244094488189,
          "duration": 0.625
        },
        {
          "name": "F4",
          "midi": 65,
          "time": 116.875,
          "velocity": 0.2047244094488189,
          "duration": 0.625
        },
        {
          "name": "C5",
          "midi": 72,
          "time": 117.1875,
          "velocity": 0.2677165354330709,
          "duration": 0.3125
        },
        {
          "name": "D5",
          "midi": 74,
          "time": 117.5,
          "velocity": 0.33070866141732286,
          "duration": 0.625
        },
        {
          "name": "A#3",
          "midi": 58,
          "time": 117.5,
          "velocity": 0.18110236220472442,
          "duration": 0.625
        },
        {
          "name": "D4",
          "midi": 62,
          "time": 117.5,
          "velocity": 0.2440944881889764,
          "duration": 0.625
        },
        {
          "name": "F4",
          "midi": 65,
          "time": 117.5,
          "velocity": 0.2440944881889764,
          "duration": 0.625
        },
        {
          "name": "D#2",
          "midi": 39,
          "time": 118.125,
          "velocity": 0.25984251968503935,
          "duration": 0.625
        },
        {
          "name": "D#5",
          "midi": 75,
          "time": 118.125,
          "velocity": 0.2440944881889764,
          "duration": 3.75
        },
        {
          "name": "A#3",
          "midi": 58,
          "time": 118.75,
          "velocity": 0.25196850393700787,
          "duration": 0.625
        },
        {
          "name": "D#4",
          "midi": 63,
          "time": 118.75,
          "velocity": 0.14960629921259844,
          "duration": 0.625
        },
        {
          "name": "G4",
          "midi": 67,
          "time": 118.75,
          "velocity": 0.2440944881889764,
          "duration": 0.625
        },
        {
          "name": "A#3",
          "midi": 58,
          "time": 119.375,
          "velocity": 0.1732283464566929,
          "duration": 0.625
        },
        {
          "name": "D#4",
          "midi": 63,
          "time": 119.375,
          "velocity": 0.2283464566929134,
          "duration": 0.625
        },
        {
          "name": "G4",
          "midi": 67,
          "time": 119.375,
          "velocity": 0.2125984251968504,
          "duration": 0.625
        },
        {
          "name": "A#1",
          "midi": 34,
          "time": 120,
          "velocity": 0.1968503937007874,
          "duration": 0.625
        },
        {
          "name": "A#3",
          "midi": 58,
          "time": 120.625,
          "velocity": 0.14173228346456693,
          "duration": 0.625
        },
        {
          "name": "D#4",
          "midi": 63,
          "time": 120.625,
          "velocity": 0.2125984251968504,
          "duration": 0.625
        },
        {
          "name": "G4",
          "midi": 67,
          "time": 120.625,
          "velocity": 0.16535433070866143,
          "duration": 0.625
        },
        {
          "name": "A#3",
          "midi": 58,
          "time": 121.25,
          "velocity": 0.16535433070866143,
          "duration": 0.625
        },
        {
          "name": "D#4",
          "midi": 63,
          "time": 121.25,
          "velocity": 0.2125984251968504,
          "duration": 0.625
        },
        {
          "name": "G4",
          "midi": 67,
          "time": 121.25,
          "velocity": 0.2204724409448819,
          "duration": 0.625
        },
        {
          "name": "D#2",
          "midi": 39,
          "time": 121.875,
          "velocity": 0.2125984251968504,
          "duration": 0.625
        },
        {
          "name": "A#3",
          "midi": 58,
          "time": 122.5,
          "velocity": 0.16535433070866143,
          "duration": 0.625
        },
        {
          "name": "D#4",
          "midi": 63,
          "time": 122.5,
          "velocity": 0.2125984251968504,
          "duration": 0.625
        },
        {
          "name": "G4",
          "midi": 67,
          "time": 122.5,
          "velocity": 0.18110236220472442,
          "duration": 0.625
        },
        {
          "name": "A#3",
          "midi": 58,
          "time": 123.125,
          "velocity": 0.1968503937007874,
          "duration": 0.625
        },
        {
          "name": "D#4",
          "midi": 63,
          "time": 123.125,
          "velocity": 0.2283464566929134,
          "duration": 0.625
        },
        {
          "name": "G4",
          "midi": 67,
          "time": 123.125,
          "velocity": 0.2125984251968504,
          "duration": 0.625
        },
        {
          "name": "A#1",
          "midi": 34,
          "time": 123.75,
          "velocity": 0.2440944881889764,
          "duration": 0.625
        },
        {
          "name": "A#3",
          "midi": 58,
          "time": 124.375,
          "velocity": 0.2677165354330709,
          "duration": 0.625
        },
        {
          "name": "D#4",
          "midi": 63,
          "time": 124.375,
          "velocity": 0.2047244094488189,
          "duration": 0.625
        },
        {
          "name": "G4",
          "midi": 67,
          "time": 124.375,
          "velocity": 0.23622047244094488,
          "duration": 0.625
        },
        {
          "name": "D#5",
          "midi": 75,
          "time": 125,
          "velocity": 0.2755905511811024,
          "duration": 0.625
        },
        {
          "name": "D#5",
          "midi": 75,
          "time": 125,
          "velocity": 0.2755905511811024,
          "duration": 0.625
        },
        {
          "name": "A#3",
          "midi": 58,
          "time": 125,
          "velocity": 0.2283464566929134,
          "duration": 0.625
        },
        {
          "name": "D#4",
          "midi": 63,
          "time": 125,
          "velocity": 0.18110236220472442,
          "duration": 0.625
        },
        {
          "name": "G4",
          "midi": 67,
          "time": 125,
          "velocity": 0.2125984251968504,
          "duration": 0.625
        },
        {
          "name": "F#2",
          "midi": 42,
          "time": 125.625,
          "velocity": 0.2204724409448819,
          "duration": 0.625
        },
        {
          "name": "C#5",
          "midi": 73,
          "time": 125.625,
          "velocity": 0.25984251968503935,
          "duration": 1.25
        },
        {
          "name": "E5",
          "midi": 76,
          "time": 125.625,
          "velocity": 0.2677165354330709,
          "duration": 1.25
        },
        {
          "name": "B3",
          "midi": 59,
          "time": 126.25,
          "velocity": 0.1732283464566929,
          "duration": 0.625
        },
        {
          "name": "E4",
          "midi": 64,
          "time": 126.25,
          "velocity": 0.15748031496062992,
          "duration": 0.625
        },
        {
          "name": "G#4",
          "midi": 68,
          "time": 126.25,
          "velocity": 0.15748031496062992,
          "duration": 0.625
        },
        {
          "name": "B4",
          "midi": 71,
          "time": 126.875,
          "velocity": 0.2204724409448819,
          "duration": 0.625
        },
        {
          "name": "D#5",
          "midi": 75,
          "time": 126.875,
          "velocity": 0.3228346456692913,
          "duration": 0.625
        },
        {
          "name": "B3",
          "midi": 59,
          "time": 126.875,
          "velocity": 0.18110236220472442,
          "duration": 0.625
        },
        {
          "name": "E4",
          "midi": 64,
          "time": 126.875,
          "velocity": 0.1968503937007874,
          "duration": 0.625
        },
        {
          "name": "G#4",
          "midi": 68,
          "time": 126.875,
          "velocity": 0.14173228346456693,
          "duration": 0.625
        },
        {
          "name": "A#4",
          "midi": 70,
          "time": 127.5,
          "velocity": 0.2440944881889764,
          "duration": 0.625
        },
        {
          "name": "C#5",
          "midi": 73,
          "time": 127.5,
          "velocity": 0.25196850393700787,
          "duration": 0.625
        },
        {
          "name": "F#2",
          "midi": 42,
          "time": 127.5,
          "velocity": 0.25196850393700787,
          "duration": 0.625
        },
        {
          "name": "G#4",
          "midi": 68,
          "time": 128.125,
          "velocity": 0.15748031496062992,
          "duration": 0.625
        },
        {
          "name": "G#4",
          "midi": 68,
          "time": 128.125,
          "velocity": 0.15748031496062992,
          "duration": 0.625
        },
        {
          "name": "B4",
          "midi": 71,
          "time": 128.125,
          "velocity": 0.28346456692913385,
          "duration": 0.625
        },
        {
          "name": "B3",
          "midi": 59,
          "time": 128.125,
          "velocity": 0.2204724409448819,
          "duration": 0.625
        },
        {
          "name": "C#4",
          "midi": 61,
          "time": 128.125,
          "velocity": 0.1889763779527559,
          "duration": 0.625
        },
        {
          "name": "F#4",
          "midi": 66,
          "time": 128.75,
          "velocity": 0.14173228346456693,
          "duration": 0.625
        },
        {
          "name": "F#4",
          "midi": 66,
          "time": 128.75,
          "velocity": 0.14173228346456693,
          "duration": 0.625
        },
        {
          "name": "A#4",
          "midi": 70,
          "time": 128.75,
          "velocity": 0.2283464566929134,
          "duration": 0.625
        },
        {
          "name": "A#3",
          "midi": 58,
          "time": 128.75,
          "velocity": 0.1889763779527559,
          "duration": 0.625
        },
        {
          "name": "C#4",
          "midi": 61,
          "time": 128.75,
          "velocity": 0.16535433070866143,
          "duration": 0.625
        },
        {
          "name": "G#4",
          "midi": 68,
          "time": 129.375,
          "velocity": 0.25196850393700787,
          "duration": 0.625
        },
        {
          "name": "B4",
          "midi": 71,
          "time": 129.375,
          "velocity": 0.2440944881889764,
          "duration": 0.625
        },
        {
          "name": "B2",
          "midi": 47,
          "time": 129.375,
          "velocity": 0.28346456692913385,
          "duration": 0.625
        },
        {
          "name": "A#4",
          "midi": 70,
          "time": 130,
          "velocity": 0.2283464566929134,
          "duration": 0.625
        },
        {
          "name": "C#5",
          "midi": 73,
          "time": 130,
          "velocity": 0.2755905511811024,
          "duration": 0.625
        },
        {
          "name": "B3",
          "midi": 59,
          "time": 130,
          "velocity": 0.2047244094488189,
          "duration": 0.625
        },
        {
          "name": "C#4",
          "midi": 61,
          "time": 130,
          "velocity": 0.1732283464566929,
          "duration": 0.625
        },
        {
          "name": "E4",
          "midi": 64,
          "time": 130,
          "velocity": 0.2440944881889764,
          "duration": 0.625
        },
        {
          "name": "B4",
          "midi": 71,
          "time": 130.625,
          "velocity": 0.2992125984251969,
          "duration": 0.625
        },
        {
          "name": "D#5",
          "midi": 75,
          "time": 130.625,
          "velocity": 0.2677165354330709,
          "duration": 0.625
        },
        {
          "name": "B3",
          "midi": 59,
          "time": 130.625,
          "velocity": 0.2047244094488189,
          "duration": 0.625
        },
        {
          "name": "D#4",
          "midi": 63,
          "time": 130.625,
          "velocity": 0.2125984251968504,
          "duration": 0.625
        },
        {
          "name": "F#4",
          "midi": 66,
          "time": 130.625,
          "velocity": 0.2440944881889764,
          "duration": 0.625
        },
        {
          "name": "B2",
          "midi": 47,
          "time": 131.25,
          "velocity": 0.2677165354330709,
          "duration": 0.625
        },
        {
          "name": "B3",
          "midi": 59,
          "time": 131.875,
          "velocity": 0.2283464566929134,
          "duration": 0.625
        },
        {
          "name": "D#4",
          "midi": 63,
          "time": 131.875,
          "velocity": 0.14960629921259844,
          "duration": 0.625
        },
        {
          "name": "F#4",
          "midi": 66,
          "time": 131.875,
          "velocity": 0.1889763779527559,
          "duration": 0.625
        },
        {
          "name": "B3",
          "midi": 59,
          "time": 132.5,
          "velocity": 0.16535433070866143,
          "duration": 0.625
        },
        {
          "name": "D#4",
          "midi": 63,
          "time": 132.5,
          "velocity": 0.2125984251968504,
          "duration": 0.625
        },
        {
          "name": "F#4",
          "midi": 66,
          "time": 132.5,
          "velocity": 0.14960629921259844,
          "duration": 0.625
        },
        {
          "name": "F#2",
          "midi": 42,
          "time": 133.125,
          "velocity": 0.29133858267716534,
          "duration": 0.625
        },
        {
          "name": "C#5",
          "midi": 73,
          "time": 133.125,
          "velocity": 0.2440944881889764,
          "duration": 1.25
        },
        {
          "name": "E5",
          "midi": 76,
          "time": 133.125,
          "velocity": 0.31496062992125984,
          "duration": 1.25
        },
        {
          "name": "B3",
          "midi": 59,
          "time": 133.75,
          "velocity": 0.23622047244094488,
          "duration": 0.625
        },
        {
          "name": "E4",
          "midi": 64,
          "time": 133.75,
          "velocity": 0.23622047244094488,
          "duration": 0.625
        },
        {
          "name": "G#4",
          "midi": 68,
          "time": 133.75,
          "velocity": 0.15748031496062992,
          "duration": 0.625
        },
        {
          "name": "B4",
          "midi": 71,
          "time": 134.375,
          "velocity": 0.2992125984251969,
          "duration": 0.625
        },
        {
          "name": "D#5",
          "midi": 75,
          "time": 134.375,
          "velocity": 0.2755905511811024,
          "duration": 0.625
        },
        {
          "name": "B3",
          "midi": 59,
          "time": 134.375,
          "velocity": 0.1968503937007874,
          "duration": 0.625
        },
        {
          "name": "E4",
          "midi": 64,
          "time": 134.375,
          "velocity": 0.2125984251968504,
          "duration": 0.625
        },
        {
          "name": "G#4",
          "midi": 68,
          "time": 134.375,
          "velocity": 0.2283464566929134,
          "duration": 0.625
        },
        {
          "name": "A#4",
          "midi": 70,
          "time": 135,
          "velocity": 0.2283464566929134,
          "duration": 0.625
        },
        {
          "name": "C#5",
          "midi": 73,
          "time": 135,
          "velocity": 0.2283464566929134,
          "duration": 0.625
        },
        {
          "name": "F#2",
          "midi": 42,
          "time": 135,
          "velocity": 0.2992125984251969,
          "duration": 0.625
        },
        {
          "name": "G#4",
          "midi": 68,
          "time": 135.625,
          "velocity": 0.2283464566929134,
          "duration": 0.625
        },
        {
          "name": "G#4",
          "midi": 68,
          "time": 135.625,
          "velocity": 0.2283464566929134,
          "duration": 0.625
        },
        {
          "name": "B4",
          "midi": 71,
          "time": 135.625,
          "velocity": 0.30708661417322836,
          "duration": 0.625
        },
        {
          "name": "A#3",
          "midi": 58,
          "time": 135.625,
          "velocity": 0.1732283464566929,
          "duration": 0.625
        },
        {
          "name": "C#4",
          "midi": 61,
          "time": 135.625,
          "velocity": 0.1889763779527559,
          "duration": 0.625
        },
        {
          "name": "A#4",
          "midi": 70,
          "time": 136.25,
          "velocity": 0.23622047244094488,
          "duration": 0.625
        },
        {
          "name": "C#5",
          "midi": 73,
          "time": 136.25,
          "velocity": 0.25196850393700787,
          "duration": 0.625
        },
        {
          "name": "A#3",
          "midi": 58,
          "time": 136.25,
          "velocity": 0.2204724409448819,
          "duration": 0.625
        },
        {
          "name": "C#4",
          "midi": 61,
          "time": 136.25,
          "velocity": 0.2125984251968504,
          "duration": 0.625
        },
        {
          "name": "E4",
          "midi": 64,
          "time": 136.25,
          "velocity": 0.2125984251968504,
          "duration": 0.625
        },
        {
          "name": "B2",
          "midi": 47,
          "time": 136.875,
          "velocity": 0.29133858267716534,
          "duration": 0.625
        },
        {
          "name": "B4",
          "midi": 71,
          "time": 136.875,
          "velocity": 0.28346456692913385,
          "duration": 1.875
        },
        {
          "name": "D#5",
          "midi": 75,
          "time": 136.875,
          "velocity": 0.25196850393700787,
          "duration": 1.875
        },
        {
          "name": "B3",
          "midi": 59,
          "time": 137.5,
          "velocity": 0.18110236220472442,
          "duration": 0.625
        },
        {
          "name": "D#4",
          "midi": 63,
          "time": 137.5,
          "velocity": 0.2283464566929134,
          "duration": 0.625
        },
        {
          "name": "F#4",
          "midi": 66,
          "time": 137.5,
          "velocity": 0.1889763779527559,
          "duration": 0.625
        },
        {
          "name": "B3",
          "midi": 59,
          "time": 138.125,
          "velocity": 0.18110236220472442,
          "duration": 0.625
        },
        {
          "name": "D#4",
          "midi": 63,
          "time": 138.125,
          "velocity": 0.15748031496062992,
          "duration": 0.625
        },
        {
          "name": "F#4",
          "midi": 66,
          "time": 138.125,
          "velocity": 0.25984251968503935,
          "duration": 0.625
        },
        {
          "name": "B2",
          "midi": 47,
          "time": 138.75,
          "velocity": 0.25984251968503935,
          "duration": 0.625
        },
        {
          "name": "B3",
          "midi": 59,
          "time": 139.375,
          "velocity": 0.1732283464566929,
          "duration": 0.625
        },
        {
          "name": "D#4",
          "midi": 63,
          "time": 139.375,
          "velocity": 0.1968503937007874,
          "duration": 0.625
        },
        {
          "name": "F#4",
          "midi": 66,
          "time": 139.375,
          "velocity": 0.2283464566929134,
          "duration": 0.625
        },
        {
          "name": "D#5",
          "midi": 75,
          "time": 140,
          "velocity": 0.25984251968503935,
          "duration": 0.625
        },
        {
          "name": "B3",
          "midi": 59,
          "time": 140,
          "velocity": 0.2204724409448819,
          "duration": 0.625
        },
        {
          "name": "D#4",
          "midi": 63,
          "time": 140,
          "velocity": 0.2047244094488189,
          "duration": 0.625
        },
        {
          "name": "F#4",
          "midi": 66,
          "time": 140,
          "velocity": 0.15748031496062992,
          "duration": 0.625
        },
        {
          "name": "D#5",
          "midi": 75,
          "time": 140.625,
          "velocity": 0.23622047244094488,
          "duration": 0.15625
        },
        {
          "name": "D#3",
          "midi": 51,
          "time": 140.625,
          "velocity": 0.2440944881889764,
          "duration": 0.625
        },
        {
          "name": "F5",
          "midi": 77,
          "time": 140.78125,
          "velocity": 0.3464566929133858,
          "duration": 0.15625
        },
        {
          "name": "D#5",
          "midi": 75,
          "time": 140.9375,
          "velocity": 0.2755905511811024,
          "duration": 0.3125
        },
        {
          "name": "D5",
          "midi": 74,
          "time": 141.25,
          "velocity": 0.33858267716535434,
          "duration": 0.625
        },
        {
          "name": "A#3",
          "midi": 58,
          "time": 141.25,
          "velocity": 0.14173228346456693,
          "duration": 0.625
        },
        {
          "name": "D#4",
          "midi": 63,
          "time": 141.25,
          "velocity": 0.1968503937007874,
          "duration": 0.625
        },
        {
          "name": "F#4",
          "midi": 66,
          "time": 141.25,
          "velocity": 0.2047244094488189,
          "duration": 0.625
        },
        {
          "name": "D#5",
          "midi": 75,
          "time": 141.875,
          "velocity": 0.29133858267716534,
          "duration": 0.625
        },
        {
          "name": "A#3",
          "midi": 58,
          "time": 141.875,
          "velocity": 0.1968503937007874,
          "duration": 0.625
        },
        {
          "name": "D#4",
          "midi": 63,
          "time": 141.875,
          "velocity": 0.25984251968503935,
          "duration": 0.625
        },
        {
          "name": "F#4",
          "midi": 66,
          "time": 141.875,
          "velocity": 0.16535433070866143,
          "duration": 0.625
        },
        {
          "name": "F#5",
          "midi": 78,
          "time": 142.5,
          "velocity": 0.25984251968503935,
          "duration": 0.625
        },
        {
          "name": "A#2",
          "midi": 46,
          "time": 142.5,
          "velocity": 0.2440944881889764,
          "duration": 0.625
        },
        {
          "name": "F5",
          "midi": 77,
          "time": 143.125,
          "velocity": 0.3464566929133858,
          "duration": 0.625
        },
        {
          "name": "A#3",
          "midi": 58,
          "time": 143.125,
          "velocity": 0.2125984251968504,
          "duration": 0.625
        },
        {
          "name": "D#4",
          "midi": 63,
          "time": 143.125,
          "velocity": 0.18110236220472442,
          "duration": 0.625
        },
        {
          "name": "F#4",
          "midi": 66,
          "time": 143.125,
          "velocity": 0.2204724409448819,
          "duration": 0.625
        },
        {
          "name": "D#5",
          "midi": 75,
          "time": 143.75,
          "velocity": 0.2283464566929134,
          "duration": 0.625
        },
        {
          "name": "A#3",
          "midi": 58,
          "time": 143.75,
          "velocity": 0.2125984251968504,
          "duration": 0.625
        },
        {
          "name": "D#4",
          "midi": 63,
          "time": 143.75,
          "velocity": 0.16535433070866143,
          "duration": 0.625
        },
        {
          "name": "F#4",
          "midi": 66,
          "time": 143.75,
          "velocity": 0.1968503937007874,
          "duration": 0.625
        },
        {
          "name": "F3",
          "midi": 53,
          "time": 144.375,
          "velocity": 0.2125984251968504,
          "duration": 0.625
        },
        {
          "name": "D5",
          "midi": 74,
          "time": 144.375,
          "velocity": 0.29133858267716534,
          "duration": 1.25
        },
        {
          "name": "A#3",
          "midi": 58,
          "time": 145,
          "velocity": 0.2283464566929134,
          "duration": 0.625
        },
        {
          "name": "D4",
          "midi": 62,
          "time": 145,
          "velocity": 0.15748031496062992,
          "duration": 0.625
        },
        {
          "name": "F4",
          "midi": 65,
          "time": 145,
          "velocity": 0.1968503937007874,
          "duration": 0.625
        },
        {
          "name": "F5",
          "midi": 77,
          "time": 145.625,
          "velocity": 0.2992125984251969,
          "duration": 0.625
        },
        {
          "name": "A#3",
          "midi": 58,
          "time": 145.625,
          "velocity": 0.2047244094488189,
          "duration": 0.625
        },
        {
          "name": "D4",
          "midi": 62,
          "time": 145.625,
          "velocity": 0.2125984251968504,
          "duration": 0.625
        },
        {
          "name": "F4",
          "midi": 65,
          "time": 145.625,
          "velocity": 0.1732283464566929,
          "duration": 0.625
        },
        {
          "name": "A#2",
          "midi": 46,
          "time": 146.25,
          "velocity": 0.2283464566929134,
          "duration": 0.625
        },
        {
          "name": "A#4",
          "midi": 70,
          "time": 146.25,
          "velocity": 0.2755905511811024,
          "duration": 1.25
        },
        {
          "name": "A#3",
          "midi": 58,
          "time": 146.875,
          "velocity": 0.2125984251968504,
          "duration": 0.625
        },
        {
          "name": "D4",
          "midi": 62,
          "time": 146.875,
          "velocity": 0.25984251968503935,
          "duration": 0.625
        },
        {
          "name": "F4",
          "midi": 65,
          "time": 146.875,
          "velocity": 0.2125984251968504,
          "duration": 0.625
        },
        {
          "name": "A#4",
          "midi": 70,
          "time": 147.5,
          "velocity": 0.2204724409448819,
          "duration": 0.625
        },
        {
          "name": "A#3",
          "midi": 58,
          "time": 147.5,
          "velocity": 0.23622047244094488,
          "duration": 0.625
        },
        {
          "name": "D4",
          "midi": 62,
          "time": 147.5,
          "velocity": 0.2440944881889764,
          "duration": 0.625
        },
        {
          "name": "F4",
          "midi": 65,
          "time": 147.5,
          "velocity": 0.1889763779527559,
          "duration": 0.625
        },
        {
          "name": "D#3",
          "midi": 51,
          "time": 148.125,
          "velocity": 0.2677165354330709,
          "duration": 0.625
        },
        {
          "name": "F#5",
          "midi": 78,
          "time": 148.125,
          "velocity": 0.25984251968503935,
          "duration": 1.25
        },
        {
          "name": "A#5",
          "midi": 82,
          "time": 148.125,
          "velocity": 0.2283464566929134,
          "duration": 1.25
        },
        {
          "name": "A#3",
          "midi": 58,
          "time": 148.75,
          "velocity": 0.23622047244094488,
          "duration": 0.625
        },
        {
          "name": "D#4",
          "midi": 63,
          "time": 148.75,
          "velocity": 0.2125984251968504,
          "duration": 0.625
        },
        {
          "name": "F#4",
          "midi": 66,
          "time": 148.75,
          "velocity": 0.1968503937007874,
          "duration": 0.625
        },
        {
          "name": "F#5",
          "midi": 78,
          "time": 149.375,
          "velocity": 0.2677165354330709,
          "duration": 0.625
        },
        {
          "name": "A#5",
          "midi": 82,
          "time": 149.375,
          "velocity": 0.25196850393700787,
          "duration": 0.625
        },
        {
          "name": "A#3",
          "midi": 58,
          "time": 149.375,
          "velocity": 0.1732283464566929,
          "duration": 0.625
        },
        {
          "name": "D#4",
          "midi": 63,
          "time": 149.375,
          "velocity": 0.1889763779527559,
          "duration": 0.625
        },
        {
          "name": "F#4",
          "midi": 66,
          "time": 149.375,
          "velocity": 0.2204724409448819,
          "duration": 0.625
        },
        {
          "name": "F#5",
          "midi": 78,
          "time": 150,
          "velocity": 0.2440944881889764,
          "duration": 0.625
        },
        {
          "name": "A#5",
          "midi": 82,
          "time": 150,
          "velocity": 0.25196850393700787,
          "duration": 0.625
        },
        {
          "name": "A#2",
          "midi": 46,
          "time": 150,
          "velocity": 0.2992125984251969,
          "duration": 0.625
        },
        {
          "name": "F5",
          "midi": 77,
          "time": 150.625,
          "velocity": 0.30708661417322836,
          "duration": 0.625
        },
        {
          "name": "G#5",
          "midi": 80,
          "time": 150.625,
          "velocity": 0.2992125984251969,
          "duration": 0.625
        },
        {
          "name": "A#3",
          "midi": 58,
          "time": 150.625,
          "velocity": 0.1889763779527559,
          "duration": 0.625
        },
        {
          "name": "D#4",
          "midi": 63,
          "time": 150.625,
          "velocity": 0.15748031496062992,
          "duration": 0.625
        },
        {
          "name": "F#4",
          "midi": 66,
          "time": 150.625,
          "velocity": 0.2047244094488189,
          "duration": 0.625
        },
        {
          "name": "D#5",
          "midi": 75,
          "time": 151.25,
          "velocity": 0.25196850393700787,
          "duration": 0.625
        },
        {
          "name": "F#5",
          "midi": 78,
          "time": 151.25,
          "velocity": 0.2755905511811024,
          "duration": 0.625
        },
        {
          "name": "A#3",
          "midi": 58,
          "time": 151.25,
          "velocity": 0.2440944881889764,
          "duration": 0.625
        },
        {
          "name": "D#4",
          "midi": 63,
          "time": 151.25,
          "velocity": 0.25984251968503935,
          "duration": 0.625
        },
        {
          "name": "F#4",
          "midi": 66,
          "time": 151.25,
          "velocity": 0.2125984251968504,
          "duration": 0.625
        },
        {
          "name": "F3",
          "midi": 53,
          "time": 151.875,
          "velocity": 0.25196850393700787,
          "duration": 0.625
        },
        {
          "name": "F5",
          "midi": 77,
          "time": 151.875,
          "velocity": 0.2992125984251969,
          "duration": 1.875
        },
        {
          "name": "G#5",
          "midi": 80,
          "time": 151.875,
          "velocity": 0.2755905511811024,
          "duration": 1.875
        },
        {
          "name": "A#3",
          "midi": 58,
          "time": 152.5,
          "velocity": 0.1968503937007874,
          "duration": 0.625
        },
        {
          "name": "D4",
          "midi": 62,
          "time": 152.5,
          "velocity": 0.2125984251968504,
          "duration": 0.625
        },
        {
          "name": "F4",
          "midi": 65,
          "time": 152.5,
          "velocity": 0.1889763779527559,
          "duration": 0.625
        },
        {
          "name": "A#3",
          "midi": 58,
          "time": 153.125,
          "velocity": 0.2283464566929134,
          "duration": 0.625
        },
        {
          "name": "D4",
          "midi": 62,
          "time": 153.125,
          "velocity": 0.2047244094488189,
          "duration": 0.625
        },
        {
          "name": "F4",
          "midi": 65,
          "time": 153.125,
          "velocity": 0.2047244094488189,
          "duration": 0.625
        },
        {
          "name": "A#2",
          "midi": 46,
          "time": 153.75,
          "velocity": 0.2283464566929134,
          "duration": 0.625
        },
        {
          "name": "A#3",
          "midi": 58,
          "time": 154.375,
          "velocity": 0.14173228346456693,
          "duration": 0.625
        },
        {
          "name": "D4",
          "midi": 62,
          "time": 154.375,
          "velocity": 0.18110236220472442,
          "duration": 0.625
        },
        {
          "name": "F4",
          "midi": 65,
          "time": 154.375,
          "velocity": 0.1889763779527559,
          "duration": 0.625
        },
        {
          "name": "A#3",
          "midi": 58,
          "time": 155,
          "velocity": 0.2440944881889764,
          "duration": 0.625
        },
        {
          "name": "D4",
          "midi": 62,
          "time": 155,
          "velocity": 0.23622047244094488,
          "duration": 0.625
        },
        {
          "name": "F4",
          "midi": 65,
          "time": 155,
          "velocity": 0.2125984251968504,
          "duration": 0.625
        },
        {
          "name": "D#2",
          "midi": 39,
          "time": 155.625,
          "velocity": 0.25196850393700787,
          "duration": 0.625
        },
        {
          "name": "D#5",
          "midi": 75,
          "time": 155.625,
          "velocity": 0.29133858267716534,
          "duration": 1.25
        },
        {
          "name": "G5",
          "midi": 79,
          "time": 155.625,
          "velocity": 0.30708661417322836,
          "duration": 1.25
        },
        {
          "name": "A#3",
          "midi": 58,
          "time": 156.25,
          "velocity": 0.23622047244094488,
          "duration": 0.625
        },
        {
          "name": "C#4",
          "midi": 61,
          "time": 156.25,
          "velocity": 0.2204724409448819,
          "duration": 0.625
        },
        {
          "name": "E4",
          "midi": 64,
          "time": 156.25,
          "velocity": 0.2283464566929134,
          "duration": 0.625
        },
        {
          "name": "D#5",
          "midi": 75,
          "time": 156.875,
          "velocity": 0.33070866141732286,
          "duration": 0.625
        },
        {
          "name": "G5",
          "midi": 79,
          "time": 156.875,
          "velocity": 0.2440944881889764,
          "duration": 0.625
        },
        {
          "name": "A#3",
          "midi": 58,
          "time": 156.875,
          "velocity": 0.2047244094488189,
          "duration": 0.625
        },
        {
          "name": "C#4",
          "midi": 61,
          "time": 156.875,
          "velocity": 0.25196850393700787,
          "duration": 0.625
        },
        {
          "name": "D#4",
          "midi": 63,
          "time": 156.875,
          "velocity": 0.2125984251968504,
          "duration": 0.625
        },
        {
          "name": "D#5",
          "midi": 75,
          "time": 157.5,
          "velocity": 0.2992125984251969,
          "duration": 0.625
        },
        {
          "name": "G5",
          "midi": 79,
          "time": 157.5,
          "velocity": 0.30708661417322836,
          "duration": 0.625
        },
        {
          "name": "D#2",
          "midi": 39,
          "time": 157.5,
          "velocity": 0.2047244094488189,
          "duration": 0.625
        },
        {
          "name": "F5",
          "midi": 77,
          "time": 158.125,
          "velocity": 0.2283464566929134,
          "duration": 0.625
        },
        {
          "name": "G#5",
          "midi": 80,
          "time": 158.125,
          "velocity": 0.28346456692913385,
          "duration": 0.625
        },
        {
          "name": "A#3",
          "midi": 58,
          "time": 158.125,
          "velocity": 0.18110236220472442,
          "duration": 0.625
        },
        {
          "name": "C#4",
          "midi": 61,
          "time": 158.125,
          "velocity": 0.2047244094488189,
          "duration": 0.625
        },
        {
          "name": "F4",
          "midi": 65,
          "time": 158.125,
          "velocity": 0.25984251968503935,
          "duration": 0.625
        },
        {
          "name": "G5",
          "midi": 79,
          "time": 158.75,
          "velocity": 0.2677165354330709,
          "duration": 0.625
        },
        {
          "name": "A#5",
          "midi": 82,
          "time": 158.75,
          "velocity": 0.2047244094488189,
          "duration": 0.625
        },
        {
          "name": "A#3",
          "midi": 58,
          "time": 158.75,
          "velocity": 0.2047244094488189,
          "duration": 0.625
        },
        {
          "name": "C#4",
          "midi": 61,
          "time": 158.75,
          "velocity": 0.2125984251968504,
          "duration": 0.625
        },
        {
          "name": "D#4",
          "midi": 63,
          "time": 158.75,
          "velocity": 0.2755905511811024,
          "duration": 0.625
        },
        {
          "name": "G#5",
          "midi": 80,
          "time": 159.375,
          "velocity": 0.28346456692913385,
          "duration": 0.625
        },
        {
          "name": "B5",
          "midi": 83,
          "time": 159.375,
          "velocity": 0.31496062992125984,
          "duration": 0.625
        },
        {
          "name": "G#2",
          "midi": 44,
          "time": 159.375,
          "velocity": 0.28346456692913385,
          "duration": 0.625
        },
        {
          "name": "F#6",
          "midi": 90,
          "time": 160,
          "velocity": 0.2755905511811024,
          "duration": 0.15625
        },
        {
          "name": "B3",
          "midi": 59,
          "time": 160,
          "velocity": 0.1732283464566929,
          "duration": 0.6266276041666856
        },
        {
          "name": "D#4",
          "midi": 63,
          "time": 160,
          "velocity": 0.23622047244094488,
          "duration": 0.6266276041666856
        },
        {
          "name": "F#4",
          "midi": 66,
          "time": 160,
          "velocity": 0.1968503937007874,
          "duration": 0.6266276041666856
        },
        {
          "name": "F6",
          "midi": 89,
          "time": 160.20833333333334,
          "velocity": 0.25984251968503935,
          "duration": 0.15625
        },
        {
          "name": "E6",
          "midi": 88,
          "time": 160.41829427083334,
          "velocity": 0.28346456692913385,
          "duration": 0.15625
        },
        {
          "name": "D#6",
          "midi": 87,
          "time": 160.62662760416669,
          "velocity": 0.2440944881889764,
          "duration": 0.15625
        },
        {
          "name": "B3",
          "midi": 59,
          "time": 160.62662760416669,
          "velocity": 0.14960629921259844,
          "duration": 0.6266276041666856
        },
        {
          "name": "D#4",
          "midi": 63,
          "time": 160.62662760416669,
          "velocity": 0.18110236220472442,
          "duration": 0.6266276041666856
        },
        {
          "name": "F#4",
          "midi": 66,
          "time": 160.62662760416669,
          "velocity": 0.2283464566929134,
          "duration": 0.6266276041666856
        },
        {
          "name": "D6",
          "midi": 86,
          "time": 160.83496093750003,
          "velocity": 0.23622047244094488,
          "duration": 0.15625
        },
        {
          "name": "C#6",
          "midi": 85,
          "time": 161.04492187500003,
          "velocity": 0.28346456692913385,
          "duration": 0.15625
        },
        {
          "name": "B5",
          "midi": 83,
          "time": 161.25325520833337,
          "velocity": 0.25984251968503935,
          "duration": 0.625
        },
        {
          "name": "G#2",
          "midi": 44,
          "time": 161.25325520833337,
          "velocity": 0.1968503937007874,
          "duration": 0.625
        },
        {
          "name": "B5",
          "midi": 83,
          "time": 161.87825520833337,
          "velocity": 0.2677165354330709,
          "duration": 0.15625
        },
        {
          "name": "B3",
          "midi": 59,
          "time": 161.87825520833337,
          "velocity": 0.2283464566929134,
          "duration": 0.6266276041666856
        },
        {
          "name": "D#4",
          "midi": 63,
          "time": 161.87825520833337,
          "velocity": 0.2125984251968504,
          "duration": 0.6266276041666856
        },
        {
          "name": "F#4",
          "midi": 66,
          "time": 161.87825520833337,
          "velocity": 0.2283464566929134,
          "duration": 0.6266276041666856
        },
        {
          "name": "A#5",
          "midi": 82,
          "time": 162.0865885416667,
          "velocity": 0.25984251968503935,
          "duration": 0.15625
        },
        {
          "name": "A5",
          "midi": 81,
          "time": 162.2965494791667,
          "velocity": 0.30708661417322836,
          "duration": 0.15625
        },
        {
          "name": "G#5",
          "midi": 80,
          "time": 162.50488281250006,
          "velocity": 0.2755905511811024,
          "duration": 0.15625
        },
        {
          "name": "B3",
          "midi": 59,
          "time": 162.50488281250006,
          "velocity": 0.1889763779527559,
          "duration": 0.6266276041666856
        },
        {
          "name": "D#4",
          "midi": 63,
          "time": 162.50488281250006,
          "velocity": 0.15748031496062992,
          "duration": 0.6266276041666856
        },
        {
          "name": "F#4",
          "midi": 66,
          "time": 162.50488281250006,
          "velocity": 0.2047244094488189,
          "duration": 0.6266276041666856
        },
        {
          "name": "G5",
          "midi": 79,
          "time": 162.7132161458334,
          "velocity": 0.2677165354330709,
          "duration": 0.15625
        },
        {
          "name": "F#5",
          "midi": 78,
          "time": 162.9231770833334,
          "velocity": 0.2125984251968504,
          "duration": 0.15625
        },
        {
          "name": "C#2",
          "midi": 37,
          "time": 163.13151041666674,
          "velocity": 0.2283464566929134,
          "duration": 0.625
        },
        {
          "name": "C#5",
          "midi": 73,
          "time": 163.13151041666674,
          "velocity": 0.25984251968503935,
          "duration": 1.25
        },
        {
          "name": "F5",
          "midi": 77,
          "time": 163.13151041666674,
          "velocity": 0.2677165354330709,
          "duration": 1.25
        },
        {
          "name": "B3",
          "midi": 59,
          "time": 163.75651041666674,
          "velocity": 0.23622047244094488,
          "duration": 0.625
        },
        {
          "name": "C#4",
          "midi": 61,
          "time": 163.75651041666674,
          "velocity": 0.23622047244094488,
          "duration": 0.625
        },
        {
          "name": "F4",
          "midi": 65,
          "time": 163.75651041666674,
          "velocity": 0.2204724409448819,
          "duration": 0.625
        },
        {
          "name": "C#5",
          "midi": 73,
          "time": 164.38151041666674,
          "velocity": 0.33070866141732286,
          "duration": 0.625
        },
        {
          "name": "F5",
          "midi": 77,
          "time": 164.38151041666674,
          "velocity": 0.29133858267716534,
          "duration": 0.625
        },
        {
          "name": "B3",
          "midi": 59,
          "time": 164.38151041666674,
          "velocity": 0.23622047244094488,
          "duration": 0.625
        },
        {
          "name": "C#4",
          "midi": 61,
          "time": 164.38151041666674,
          "velocity": 0.2283464566929134,
          "duration": 0.625
        },
        {
          "name": "G#4",
          "midi": 68,
          "time": 164.38151041666674,
          "velocity": 0.1889763779527559,
          "duration": 0.625
        },
        {
          "name": "C#5",
          "midi": 73,
          "time": 165.00651041666674,
          "velocity": 0.2755905511811024,
          "duration": 0.625
        },
        {
          "name": "F5",
          "midi": 77,
          "time": 165.00651041666674,
          "velocity": 0.23622047244094488,
          "duration": 0.625
        },
        {
          "name": "C#2",
          "midi": 37,
          "time": 165.00651041666674,
          "velocity": 0.23622047244094488,
          "duration": 0.625
        },
        {
          "name": "D#5",
          "midi": 75,
          "time": 165.63151041666674,
          "velocity": 0.2755905511811024,
          "duration": 0.625
        },
        {
          "name": "F#5",
          "midi": 78,
          "time": 165.63151041666674,
          "velocity": 0.25984251968503935,
          "duration": 0.625
        },
        {
          "name": "B3",
          "midi": 59,
          "time": 165.63151041666674,
          "velocity": 0.1968503937007874,
          "duration": 0.625
        },
        {
          "name": "C#4",
          "midi": 61,
          "time": 165.63151041666674,
          "velocity": 0.2440944881889764,
          "duration": 0.625
        },
        {
          "name": "F#4",
          "midi": 66,
          "time": 165.63151041666674,
          "velocity": 0.1732283464566929,
          "duration": 0.625
        },
        {
          "name": "F5",
          "midi": 77,
          "time": 166.25651041666674,
          "velocity": 0.25984251968503935,
          "duration": 0.625
        },
        {
          "name": "G#5",
          "midi": 80,
          "time": 166.25651041666674,
          "velocity": 0.28346456692913385,
          "duration": 0.625
        },
        {
          "name": "B3",
          "midi": 59,
          "time": 166.25651041666674,
          "velocity": 0.1732283464566929,
          "duration": 0.625
        },
        {
          "name": "C#4",
          "midi": 61,
          "time": 166.25651041666674,
          "velocity": 0.18110236220472442,
          "duration": 0.625
        },
        {
          "name": "F4",
          "midi": 65,
          "time": 166.25651041666674,
          "velocity": 0.18110236220472442,
          "duration": 0.625
        },
        {
          "name": "F#5",
          "midi": 78,
          "time": 166.88151041666674,
          "velocity": 0.23622047244094488,
          "duration": 0.625
        },
        {
          "name": "A#5",
          "midi": 82,
          "time": 166.88151041666674,
          "velocity": 0.2677165354330709,
          "duration": 0.625
        },
        {
          "name": "F#2",
          "midi": 42,
          "time": 166.88151041666674,
          "velocity": 0.2440944881889764,
          "duration": 0.625
        },
        {
          "name": "G#5",
          "midi": 80,
          "time": 167.50651041666674,
          "velocity": 0.30708661417322836,
          "duration": 0.15625
        },
        {
          "name": "A#3",
          "midi": 58,
          "time": 167.50651041666674,
          "velocity": 0.2125984251968504,
          "duration": 0.6266276041666856
        },
        {
          "name": "C#4",
          "midi": 61,
          "time": 167.50651041666674,
          "velocity": 0.2440944881889764,
          "duration": 0.6266276041666856
        },
        {
          "name": "F4",
          "midi": 65,
          "time": 167.50651041666674,
          "velocity": 0.18110236220472442,
          "duration": 0.6266276041666856
        },
        {
          "name": "G5",
          "midi": 79,
          "time": 167.71484375000009,
          "velocity": 0.25196850393700787,
          "duration": 0.15625
        },
        {
          "name": "F#5",
          "midi": 78,
          "time": 167.92480468750009,
          "velocity": 0.25984251968503935,
          "duration": 0.15625
        },
        {
          "name": "F5",
          "midi": 77,
          "time": 168.13313802083343,
          "velocity": 0.2125984251968504,
          "duration": 0.15625
        },
        {
          "name": "A#3",
          "midi": 58,
          "time": 168.13313802083343,
          "velocity": 0.1968503937007874,
          "duration": 0.6266276041666856
        },
        {
          "name": "C#4",
          "midi": 61,
          "time": 168.13313802083343,
          "velocity": 0.2047244094488189,
          "duration": 0.6266276041666856
        },
        {
          "name": "F4",
          "midi": 65,
          "time": 168.13313802083343,
          "velocity": 0.1732283464566929,
          "duration": 0.6266276041666856
        },
        {
          "name": "E5",
          "midi": 76,
          "time": 168.34147135416677,
          "velocity": 0.2440944881889764,
          "duration": 0.15625
        },
        {
          "name": "D#5",
          "midi": 75,
          "time": 168.55143229166677,
          "velocity": 0.2992125984251969,
          "duration": 0.15625
        },
        {
          "name": "C#5",
          "midi": 73,
          "time": 168.7597656250001,
          "velocity": 0.29133858267716534,
          "duration": 0.625
        },
        {
          "name": "F#2",
          "midi": 42,
          "time": 168.7597656250001,
          "velocity": 0.2755905511811024,
          "duration": 0.625
        },
        {
          "name": "G#5",
          "midi": 80,
          "time": 169.3847656250001,
          "velocity": 0.2755905511811024,
          "duration": 0.625
        },
        {
          "name": "A#3",
          "midi": 58,
          "time": 169.3847656250001,
          "velocity": 0.18110236220472442,
          "duration": 0.625
        },
        {
          "name": "C#4",
          "midi": 61,
          "time": 169.3847656250001,
          "velocity": 0.25984251968503935,
          "duration": 0.625
        },
        {
          "name": "G#4",
          "midi": 68,
          "time": 169.3847656250001,
          "velocity": 0.2047244094488189,
          "duration": 0.625
        },
        {
          "name": "F#5",
          "midi": 78,
          "time": 170.0097656250001,
          "velocity": 0.2283464566929134,
          "duration": 0.625
        },
        {
          "name": "A#3",
          "midi": 58,
          "time": 170.0097656250001,
          "velocity": 0.2283464566929134,
          "duration": 0.625
        },
        {
          "name": "C#4",
          "midi": 61,
          "time": 170.0097656250001,
          "velocity": 0.1732283464566929,
          "duration": 0.625
        },
        {
          "name": "F#4",
          "midi": 66,
          "time": 170.0097656250001,
          "velocity": 0.1732283464566929,
          "duration": 0.625
        },
        {
          "name": "C5",
          "midi": 72,
          "time": 170.6347656250001,
          "velocity": 0.25984251968503935,
          "duration": 0.625
        },
        {
          "name": "F5",
          "midi": 77,
          "time": 170.6347656250001,
          "velocity": 0.33070866141732286,
          "duration": 0.625
        },
        {
          "name": "C2",
          "midi": 36,
          "time": 170.6347656250001,
          "velocity": 0.30708661417322836,
          "duration": 0.625
        },
        {
          "name": "E5",
          "midi": 76,
          "time": 171.2597656250001,
          "velocity": 0.3228346456692913,
          "duration": 0.625
        },
        {
          "name": "G3",
          "midi": 55,
          "time": 171.2597656250001,
          "velocity": 0.1968503937007874,
          "duration": 0.625
        },
        {
          "name": "C4",
          "midi": 60,
          "time": 171.2597656250001,
          "velocity": 0.1889763779527559,
          "duration": 0.625
        },
        {
          "name": "F4",
          "midi": 65,
          "time": 171.2597656250001,
          "velocity": 0.2047244094488189,
          "duration": 0.625
        },
        {
          "name": "F5",
          "midi": 77,
          "time": 171.8847656250001,
          "velocity": 0.3464566929133858,
          "duration": 0.625
        },
        {
          "name": "G3",
          "midi": 55,
          "time": 171.8847656250001,
          "velocity": 0.1889763779527559,
          "duration": 0.625
        },
        {
          "name": "C4",
          "midi": 60,
          "time": 171.8847656250001,
          "velocity": 0.1732283464566929,
          "duration": 0.625
        },
        {
          "name": "E4",
          "midi": 64,
          "time": 171.8847656250001,
          "velocity": 0.15748031496062992,
          "duration": 0.625
        },
        {
          "name": "G#5",
          "midi": 80,
          "time": 172.5097656250001,
          "velocity": 0.33070866141732286,
          "duration": 0.625
        },
        {
          "name": "F2",
          "midi": 41,
          "time": 172.5097656250001,
          "velocity": 0.25984251968503935,
          "duration": 0.625
        },
        {
          "name": "F#5",
          "midi": 78,
          "time": 173.1347656250001,
          "velocity": 0.25984251968503935,
          "duration": 0.625
        },
        {
          "name": "A3",
          "midi": 57,
          "time": 173.1347656250001,
          "velocity": 0.2125984251968504,
          "duration": 0.625
        },
        {
          "name": "C4",
          "midi": 60,
          "time": 173.1347656250001,
          "velocity": 0.2440944881889764,
          "duration": 0.625
        },
        {
          "name": "F#4",
          "midi": 66,
          "time": 173.1347656250001,
          "velocity": 0.2283464566929134,
          "duration": 0.625
        },
        {
          "name": "F5",
          "midi": 77,
          "time": 173.7597656250001,
          "velocity": 0.31496062992125984,
          "duration": 0.625
        },
        {
          "name": "A3",
          "midi": 57,
          "time": 173.7597656250001,
          "velocity": 0.2125984251968504,
          "duration": 0.625
        },
        {
          "name": "C4",
          "midi": 60,
          "time": 173.7597656250001,
          "velocity": 0.18110236220472442,
          "duration": 0.625
        },
        {
          "name": "F4",
          "midi": 65,
          "time": 173.7597656250001,
          "velocity": 0.2125984251968504,
          "duration": 0.625
        },
        {
          "name": "A#4",
          "midi": 70,
          "time": 174.3847656250001,
          "velocity": 0.29133858267716534,
          "duration": 0.625
        },
        {
          "name": "D#5",
          "midi": 75,
          "time": 174.3847656250001,
          "velocity": 0.2677165354330709,
          "duration": 0.625
        },
        {
          "name": "A#1",
          "midi": 34,
          "time": 174.3847656250001,
          "velocity": 0.1889763779527559,
          "duration": 0.625
        },
        {
          "name": "D5",
          "midi": 74,
          "time": 175.0097656250001,
          "velocity": 0.31496062992125984,
          "duration": 0.625
        },
        {
          "name": "G#3",
          "midi": 56,
          "time": 175.0097656250001,
          "velocity": 0.2283464566929134,
          "duration": 0.625
        },
        {
          "name": "A#3",
          "midi": 58,
          "time": 175.0097656250001,
          "velocity": 0.2125984251968504,
          "duration": 0.625
        },
        {
          "name": "D4",
          "midi": 62,
          "time": 175.0097656250001,
          "velocity": 0.2047244094488189,
          "duration": 0.625
        },
        {
          "name": "F4",
          "midi": 65,
          "time": 175.0097656250001,
          "velocity": 0.2440944881889764,
          "duration": 0.625
        },
        {
          "name": "D#5",
          "midi": 75,
          "time": 175.6347656250001,
          "velocity": 0.29133858267716534,
          "duration": 0.625
        },
        {
          "name": "G#3",
          "midi": 56,
          "time": 175.6347656250001,
          "velocity": 0.2047244094488189,
          "duration": 0.625
        },
        {
          "name": "A#3",
          "midi": 58,
          "time": 175.6347656250001,
          "velocity": 0.1732283464566929,
          "duration": 0.625
        },
        {
          "name": "D4",
          "midi": 62,
          "time": 175.6347656250001,
          "velocity": 0.2440944881889764,
          "duration": 0.625
        },
        {
          "name": "F4",
          "midi": 65,
          "time": 175.6347656250001,
          "velocity": 0.18110236220472442,
          "duration": 0.625
        },
        {
          "name": "A#1",
          "midi": 34,
          "time": 176.2597656250001,
          "velocity": 0.2755905511811024,
          "duration": 0.625
        },
        {
          "name": "F5",
          "midi": 77,
          "time": 176.2597656250001,
          "velocity": 0.3779527559055118,
          "duration": 1.25
        },
        {
          "name": "G#3",
          "midi": 56,
          "time": 176.8847656250001,
          "velocity": 0.1968503937007874,
          "duration": 0.625
        },
        {
          "name": "D4",
          "midi": 62,
          "time": 176.8847656250001,
          "velocity": 0.2755905511811024,
          "duration": 0.625
        },
        {
          "name": "F4",
          "midi": 65,
          "time": 176.8847656250001,
          "velocity": 0.2047244094488189,
          "duration": 0.625
        },
        {
          "name": "A#5",
          "midi": 82,
          "time": 177.5097656250001,
          "velocity": 0.25984251968503935,
          "duration": 0.625
        },
        {
          "name": "G#3",
          "midi": 56,
          "time": 177.5097656250001,
          "velocity": 0.1968503937007874,
          "duration": 0.625
        },
        {
          "name": "D4",
          "midi": 62,
          "time": 177.5097656250001,
          "velocity": 0.1968503937007874,
          "duration": 0.625
        },
        {
          "name": "F4",
          "midi": 65,
          "time": 177.5097656250001,
          "velocity": 0.1889763779527559,
          "duration": 0.625
        },
        {
          "name": "C#2",
          "midi": 37,
          "time": 178.1347656250001,
          "velocity": 0.25196850393700787,
          "duration": 0.625
        },
        {
          "name": "C#5",
          "midi": 73,
          "time": 178.1347656250001,
          "velocity": 0.33070866141732286,
          "duration": 1.25
        },
        {
          "name": "E5",
          "midi": 76,
          "time": 178.1347656250001,
          "velocity": 0.2755905511811024,
          "duration": 1.25
        },
        {
          "name": "G#5",
          "midi": 80,
          "time": 178.1347656250001,
          "velocity": 0.29133858267716534,
          "duration": 1.25
        },
        {
          "name": "C#6",
          "midi": 85,
          "time": 178.1347656250001,
          "velocity": 0.29133858267716534,
          "duration": 1.25
        },
        {
          "name": "G#3",
          "midi": 56,
          "time": 178.7597656250001,
          "velocity": 0.1968503937007874,
          "duration": 0.625
        },
        {
          "name": "C#4",
          "midi": 61,
          "time": 178.7597656250001,
          "velocity": 0.2440944881889764,
          "duration": 0.625
        },
        {
          "name": "E4",
          "midi": 64,
          "time": 178.7597656250001,
          "velocity": 0.18110236220472442,
          "duration": 0.625
        },
        {
          "name": "B5",
          "midi": 83,
          "time": 179.3847656250001,
          "velocity": 0.2992125984251969,
          "duration": 0.625
        },
        {
          "name": "G#3",
          "midi": 56,
          "time": 179.3847656250001,
          "velocity": 0.1889763779527559,
          "duration": 0.625
        },
        {
          "name": "C#4",
          "midi": 61,
          "time": 179.3847656250001,
          "velocity": 0.2204724409448819,
          "duration": 0.625
        },
        {
          "name": "D#4",
          "midi": 63,
          "time": 179.3847656250001,
          "velocity": 0.2283464566929134,
          "duration": 0.625
        },
        {
          "name": "C#2",
          "midi": 37,
          "time": 180.0097656250001,
          "velocity": 0.2440944881889764,
          "duration": 0.625
        },
        {
          "name": "A#5",
          "midi": 82,
          "time": 180.0097656250001,
          "velocity": 0.33070866141732286,
          "duration": 1.25
        },
        {
          "name": "G#3",
          "midi": 56,
          "time": 180.6347656250001,
          "velocity": 0.18110236220472442,
          "duration": 0.625
        },
        {
          "name": "C#4",
          "midi": 61,
          "time": 180.6347656250001,
          "velocity": 0.2677165354330709,
          "duration": 0.625
        },
        {
          "name": "E4",
          "midi": 64,
          "time": 180.6347656250001,
          "velocity": 0.2283464566929134,
          "duration": 0.625
        },
        {
          "name": "G#5",
          "midi": 80,
          "time": 181.2597656250001,
          "velocity": 0.25984251968503935,
          "duration": 0.625
        },
        {
          "name": "G#3",
          "midi": 56,
          "time": 181.2597656250001,
          "velocity": 0.14960629921259844,
          "duration": 0.625
        },
        {
          "name": "B3",
          "midi": 59,
          "time": 181.2597656250001,
          "velocity": 0.18110236220472442,
          "duration": 0.625
        },
        {
          "name": "E4",
          "midi": 64,
          "time": 181.2597656250001,
          "velocity": 0.2125984251968504,
          "duration": 0.625
        },
        {
          "name": "G5",
          "midi": 79,
          "time": 181.8847656250001,
          "velocity": 0.28346456692913385,
          "duration": 0.3125
        },
        {
          "name": "D#2",
          "midi": 39,
          "time": 181.8847656250001,
          "velocity": 0.18110236220472442,
          "duration": 0.625
        },
        {
          "name": "A#5",
          "midi": 82,
          "time": 182.1972656250001,
          "velocity": 0.25984251968503935,
          "duration": 0.3125
        },
        {
          "name": "C#5",
          "midi": 73,
          "time": 182.5097656250001,
          "velocity": 0.25984251968503935,
          "duration": 0.15625
        },
        {
          "name": "A#3",
          "midi": 58,
          "time": 182.5097656250001,
          "velocity": 0.1889763779527559,
          "duration": 0.6266276041666856
        },
        {
          "name": "D#4",
          "midi": 63,
          "time": 182.5097656250001,
          "velocity": 0.1968503937007874,
          "duration": 0.6266276041666856
        },
        {
          "name": "G4",
          "midi": 67,
          "time": 182.5097656250001,
          "velocity": 0.14960629921259844,
          "duration": 0.6266276041666856
        },
        {
          "name": "D#5",
          "midi": 75,
          "time": 182.71809895833346,
          "velocity": 0.2283464566929134,
          "duration": 0.15625
        },
        {
          "name": "C#5",
          "midi": 73,
          "time": 182.92805989583346,
          "velocity": 0.2125984251968504,
          "duration": 0.15625
        },
        {
          "name": "B4",
          "midi": 71,
          "time": 183.1363932291668,
          "velocity": 0.2204724409448819,
          "duration": 0.15625
        },
        {
          "name": "A#3",
          "midi": 58,
          "time": 183.1363932291668,
          "velocity": 0.1732283464566929,
          "duration": 0.625
        },
        {
          "name": "D#4",
          "midi": 63,
          "time": 183.1363932291668,
          "velocity": 0.15748031496062992,
          "duration": 0.625
        },
        {
          "name": "G4",
          "midi": 67,
          "time": 183.1363932291668,
          "velocity": 0.15748031496062992,
          "duration": 0.625
        },
        {
          "name": "D#2",
          "midi": 39,
          "time": 183.7613932291668,
          "velocity": 0.12598425196850394,
          "duration": 0.625
        },
        {
          "name": "B4",
          "midi": 71,
          "time": 184.3863932291668,
          "velocity": 0.1968503937007874,
          "duration": 0.15625
        },
        {
          "name": "B3",
          "midi": 59,
          "time": 184.3863932291668,
          "velocity": 0.2047244094488189,
          "duration": 0.6266276041666856
        },
        {
          "name": "C#5",
          "midi": 73,
          "time": 184.59472656250014,
          "velocity": 0.1889763779527559,
          "duration": 0.15625
        },
        {
          "name": "B4",
          "midi": 71,
          "time": 184.80468750000014,
          "velocity": 0.1968503937007874,
          "duration": 0.15625
        },
        {
          "name": "A#4",
          "midi": 70,
          "time": 185.01302083333348,
          "velocity": 0.2047244094488189,
          "duration": 0.15625
        },
        {
          "name": "C#4",
          "midi": 61,
          "time": 185.01302083333348,
          "velocity": 0.15748031496062992,
          "duration": 0.625
        },
        {
          "name": "D#2",
          "midi": 39,
          "time": 185.63802083333348,
          "velocity": 0.11811023622047244,
          "duration": 0.625
        },
        {
          "name": "G#4",
          "midi": 68,
          "time": 186.26302083333348,
          "velocity": 0.1732283464566929,
          "duration": 0.15625
        },
        {
          "name": "A#3",
          "midi": 58,
          "time": 186.26302083333348,
          "velocity": 0.15748031496062992,
          "duration": 0.6266276041666856
        },
        {
          "name": "A#4",
          "midi": 70,
          "time": 186.47135416666683,
          "velocity": 0.1968503937007874,
          "duration": 0.15625
        },
        {
          "name": "G#4",
          "midi": 68,
          "time": 186.68131510416683,
          "velocity": 0.15748031496062992,
          "duration": 0.15625
        },
        {
          "name": "G4",
          "midi": 67,
          "time": 186.88964843750017,
          "velocity": 0.14960629921259844,
          "duration": 0.15625
        },
        {
          "name": "B3",
          "midi": 59,
          "time": 186.88964843750017,
          "velocity": 0.07874015748031496,
          "duration": 0.625
        },
        {
          "name": "D#4",
          "midi": 63,
          "time": 187.51464843750017,
          "velocity": 0.25196850393700787,
          "duration": 0.625
        },
        {
          "name": "G#4",
          "midi": 68,
          "time": 188.13964843750017,
          "velocity": 0.28346456692913385,
          "duration": 0.625
        },
        {
          "name": "A#3",
          "midi": 58,
          "time": 188.13964843750017,
          "velocity": 0.1732283464566929,
          "duration": 1.25
        },
        {
          "name": "B4",
          "midi": 71,
          "time": 188.76464843750017,
          "velocity": 0.30708661417322836,
          "duration": 0.625
        },
        {
          "name": "E4",
          "midi": 64,
          "time": 189.38964843750017,
          "velocity": 0.2440944881889764,
          "duration": 0.625
        },
        {
          "name": "C#2",
          "midi": 37,
          "time": 189.38964843750017,
          "velocity": 0.25984251968503935,
          "duration": 0.625
        },
        {
          "name": "C#2",
          "midi": 37,
          "time": 189.38964843750017,
          "velocity": 0.25984251968503935,
          "duration": 0.625
        },
        {
          "name": "G#4",
          "midi": 68,
          "time": 189.38964843750017,
          "velocity": 0.29133858267716534,
          "duration": 0.625
        },
        {
          "name": "B4",
          "midi": 71,
          "time": 189.38964843750017,
          "velocity": 0.25984251968503935,
          "duration": 0.625
        },
        {
          "name": "D#5",
          "midi": 75,
          "time": 189.38964843750017,
          "velocity": 0.30708661417322836,
          "duration": 0.625
        },
        {
          "name": "G#3",
          "midi": 56,
          "time": 190.01464843750017,
          "velocity": 0.1732283464566929,
          "duration": 0.625
        },
        {
          "name": "B3",
          "midi": 59,
          "time": 190.01464843750017,
          "velocity": 0.1732283464566929,
          "duration": 0.625
        },
        {
          "name": "E4",
          "midi": 64,
          "time": 190.01464843750017,
          "velocity": 0.2440944881889764,
          "duration": 0.625
        },
        {
          "name": "G#4",
          "midi": 68,
          "time": 190.63964843750017,
          "velocity": 0.2755905511811024,
          "duration": 0.625
        },
        {
          "name": "B4",
          "midi": 71,
          "time": 190.63964843750017,
          "velocity": 0.25984251968503935,
          "duration": 0.625
        },
        {
          "name": "D#5",
          "midi": 75,
          "time": 190.63964843750017,
          "velocity": 0.3228346456692913,
          "duration": 0.625
        },
        {
          "name": "G#3",
          "midi": 56,
          "time": 190.63964843750017,
          "velocity": 0.2047244094488189,
          "duration": 0.625
        },
        {
          "name": "B3",
          "midi": 59,
          "time": 190.63964843750017,
          "velocity": 0.2047244094488189,
          "duration": 0.625
        },
        {
          "name": "E4",
          "midi": 64,
          "time": 190.63964843750017,
          "velocity": 0.2204724409448819,
          "duration": 0.625
        },
        {
          "name": "D#4",
          "midi": 63,
          "time": 191.26464843750017,
          "velocity": 0.2755905511811024,
          "duration": 0.625
        },
        {
          "name": "G4",
          "midi": 67,
          "time": 191.26464843750017,
          "velocity": 0.2283464566929134,
          "duration": 0.625
        },
        {
          "name": "C#5",
          "midi": 73,
          "time": 191.26464843750017,
          "velocity": 0.29133858267716534,
          "duration": 0.625
        },
        {
          "name": "D#2",
          "midi": 39,
          "time": 191.26464843750017,
          "velocity": 0.29133858267716534,
          "duration": 0.625
        },
        {
          "name": "B4",
          "midi": 71,
          "time": 191.88964843750017,
          "velocity": 0.28346456692913385,
          "duration": 0.625
        },
        {
          "name": "B3",
          "midi": 59,
          "time": 191.88964843750017,
          "velocity": 0.15748031496062992,
          "duration": 0.625
        },
        {
          "name": "D#4",
          "midi": 63,
          "time": 191.88964843750017,
          "velocity": 0.2283464566929134,
          "duration": 0.625
        },
        {
          "name": "G4",
          "midi": 67,
          "time": 191.88964843750017,
          "velocity": 0.25984251968503935,
          "duration": 0.625
        },
        {
          "name": "A#4",
          "midi": 70,
          "time": 192.51464843750017,
          "velocity": 0.30708661417322836,
          "duration": 0.625
        },
        {
          "name": "A#3",
          "midi": 58,
          "time": 192.51464843750017,
          "velocity": 0.23622047244094488,
          "duration": 0.625
        },
        {
          "name": "D#4",
          "midi": 63,
          "time": 192.51464843750017,
          "velocity": 0.2125984251968504,
          "duration": 0.625
        },
        {
          "name": "G4",
          "midi": 67,
          "time": 192.51464843750017,
          "velocity": 0.2283464566929134,
          "duration": 0.625
        },
        {
          "name": "G#2",
          "midi": 44,
          "time": 193.13964843750017,
          "velocity": 0.1968503937007874,
          "duration": 0.625
        },
        {
          "name": "B4",
          "midi": 71,
          "time": 193.13964843750017,
          "velocity": 0.2283464566929134,
          "duration": 1.875
        },
        {
          "name": "B3",
          "midi": 59,
          "time": 193.76464843750017,
          "velocity": 0.2125984251968504,
          "duration": 0.625
        },
        {
          "name": "D#4",
          "midi": 63,
          "time": 193.76464843750017,
          "velocity": 0.2283464566929134,
          "duration": 0.625
        },
        {
          "name": "F#4",
          "midi": 66,
          "time": 193.76464843750017,
          "velocity": 0.1968503937007874,
          "duration": 0.625
        },
        {
          "name": "B3",
          "midi": 59,
          "time": 194.38964843750017,
          "velocity": 0.25984251968503935,
          "duration": 0.625
        },
        {
          "name": "D#4",
          "midi": 63,
          "time": 194.38964843750017,
          "velocity": 0.14173228346456693,
          "duration": 0.625
        },
        {
          "name": "F#4",
          "midi": 66,
          "time": 194.38964843750017,
          "velocity": 0.2125984251968504,
          "duration": 0.625
        },
        {
          "name": "G#4",
          "midi": 68,
          "time": 195.01464843750017,
          "velocity": 0.36220472440944884,
          "duration": 0.625
        },
        {
          "name": "F#3",
          "midi": 54,
          "time": 195.01464843750017,
          "velocity": 0.31496062992125984,
          "duration": 0.9375
        },
        {
          "name": "A3",
          "midi": 57,
          "time": 195.01464843750017,
          "velocity": 0.25984251968503935,
          "duration": 0.9375
        },
        {
          "name": "C#4",
          "midi": 61,
          "time": 195.01464843750017,
          "velocity": 0.2755905511811024,
          "duration": 0.9375
        },
        {
          "name": "B4",
          "midi": 71,
          "time": 195.63964843750017,
          "velocity": 0.33070866141732286,
          "duration": 0.625
        },
        {
          "name": "B2",
          "midi": 47,
          "time": 195.95214843750017,
          "velocity": 0.2440944881889764,
          "duration": 0.9375
        },
        {
          "name": "F#3",
          "midi": 54,
          "time": 195.95214843750017,
          "velocity": 0.28346456692913385,
          "duration": 0.9375
        },
        {
          "name": "A3",
          "midi": 57,
          "time": 195.95214843750017,
          "velocity": 0.2677165354330709,
          "duration": 0.9375
        },
        {
          "name": "D#5",
          "midi": 75,
          "time": 196.26464843750017,
          "velocity": 0.2755905511811024,
          "duration": 0.625
        },
        {
          "name": "E2",
          "midi": 40,
          "time": 196.88964843750017,
          "velocity": 0.29133858267716534,
          "duration": 0.625
        },
        {
          "name": "B4",
          "midi": 71,
          "time": 196.88964843750017,
          "velocity": 0.2992125984251969,
          "duration": 1.25
        },
        {
          "name": "D#5",
          "midi": 75,
          "time": 196.88964843750017,
          "velocity": 0.31496062992125984,
          "duration": 1.25
        },
        {
          "name": "G#5",
          "midi": 80,
          "time": 196.88964843750017,
          "velocity": 0.2755905511811024,
          "duration": 1.25
        },
        {
          "name": "B3",
          "midi": 59,
          "time": 197.51464843750017,
          "velocity": 0.1889763779527559,
          "duration": 0.625
        },
        {
          "name": "D#4",
          "midi": 63,
          "time": 197.51464843750017,
          "velocity": 0.2125984251968504,
          "duration": 0.625
        },
        {
          "name": "G#4",
          "midi": 68,
          "time": 197.51464843750017,
          "velocity": 0.2204724409448819,
          "duration": 0.625
        },
        {
          "name": "B4",
          "midi": 71,
          "time": 198.13964843750017,
          "velocity": 0.29133858267716534,
          "duration": 0.625
        },
        {
          "name": "D#5",
          "midi": 75,
          "time": 198.13964843750017,
          "velocity": 0.2283464566929134,
          "duration": 0.625
        },
        {
          "name": "G#5",
          "midi": 80,
          "time": 198.13964843750017,
          "velocity": 0.31496062992125984,
          "duration": 0.625
        },
        {
          "name": "B3",
          "midi": 59,
          "time": 198.13964843750017,
          "velocity": 0.1732283464566929,
          "duration": 0.625
        },
        {
          "name": "D#4",
          "midi": 63,
          "time": 198.13964843750017,
          "velocity": 0.23622047244094488,
          "duration": 0.625
        },
        {
          "name": "G#4",
          "midi": 68,
          "time": 198.13964843750017,
          "velocity": 0.15748031496062992,
          "duration": 0.625
        },
        {
          "name": "B4",
          "midi": 71,
          "time": 198.76464843750017,
          "velocity": 0.29133858267716534,
          "duration": 0.625
        },
        {
          "name": "D#5",
          "midi": 75,
          "time": 198.76464843750017,
          "velocity": 0.25984251968503935,
          "duration": 0.625
        },
        {
          "name": "G#5",
          "midi": 80,
          "time": 198.76464843750017,
          "velocity": 0.25984251968503935,
          "duration": 0.625
        },
        {
          "name": "E2",
          "midi": 40,
          "time": 198.76464843750017,
          "velocity": 0.25196850393700787,
          "duration": 0.625
        },
        {
          "name": "A#5",
          "midi": 82,
          "time": 199.38964843750017,
          "velocity": 0.25196850393700787,
          "duration": 0.625
        },
        {
          "name": "A#3",
          "midi": 58,
          "time": 199.38964843750017,
          "velocity": 0.2677165354330709,
          "duration": 0.625
        },
        {
          "name": "C#4",
          "midi": 61,
          "time": 199.38964843750017,
          "velocity": 0.1889763779527559,
          "duration": 0.625
        },
        {
          "name": "F#4",
          "midi": 66,
          "time": 199.38964843750017,
          "velocity": 0.25984251968503935,
          "duration": 0.625
        },
        {
          "name": "F#5",
          "midi": 78,
          "time": 200.01464843750017,
          "velocity": 0.2755905511811024,
          "duration": 0.3125
        },
        {
          "name": "A#3",
          "midi": 58,
          "time": 200.01464843750017,
          "velocity": 0.14960629921259844,
          "duration": 0.625
        },
        {
          "name": "C#4",
          "midi": 61,
          "time": 200.01464843750017,
          "velocity": 0.2755905511811024,
          "duration": 0.625
        },
        {
          "name": "F#4",
          "midi": 66,
          "time": 200.01464843750017,
          "velocity": 0.18110236220472442,
          "duration": 0.625
        },
        {
          "name": "E5",
          "midi": 76,
          "time": 200.32714843750017,
          "velocity": 0.25984251968503935,
          "duration": 0.3125
        },
        {
          "name": "F#5",
          "midi": 78,
          "time": 200.63964843750017,
          "velocity": 0.2755905511811024,
          "duration": 0.625
        },
        {
          "name": "D#2",
          "midi": 39,
          "time": 200.63964843750017,
          "velocity": 0.29133858267716534,
          "duration": 0.625
        },
        {
          "name": "F#5",
          "midi": 78,
          "time": 201.26464843750017,
          "velocity": 0.2440944881889764,
          "duration": 0.3125
        },
        {
          "name": "A#3",
          "midi": 58,
          "time": 201.26464843750017,
          "velocity": 0.23622047244094488,
          "duration": 0.625
        },
        {
          "name": "C#4",
          "midi": 61,
          "time": 201.26464843750017,
          "velocity": 0.2125984251968504,
          "duration": 0.625
        },
        {
          "name": "F#4",
          "midi": 66,
          "time": 201.26464843750017,
          "velocity": 0.2204724409448819,
          "duration": 0.625
        },
        {
          "name": "F5",
          "midi": 77,
          "time": 201.57714843750017,
          "velocity": 0.25984251968503935,
          "duration": 0.3125
        },
        {
          "name": "F#5",
          "midi": 78,
          "time": 201.88964843750017,
          "velocity": 0.29133858267716534,
          "duration": 0.3125
        },
        {
          "name": "A#3",
          "midi": 58,
          "time": 201.88964843750017,
          "velocity": 0.2125984251968504,
          "duration": 0.625
        },
        {
          "name": "C#4",
          "midi": 61,
          "time": 201.88964843750017,
          "velocity": 0.1968503937007874,
          "duration": 0.625
        },
        {
          "name": "F#4",
          "midi": 66,
          "time": 201.88964843750017,
          "velocity": 0.18110236220472442,
          "duration": 0.625
        },
        {
          "name": "G#5",
          "midi": 80,
          "time": 202.20214843750017,
          "velocity": 0.25196850393700787,
          "duration": 0.3125
        },
        {
          "name": "A#5",
          "midi": 82,
          "time": 202.51464843750017,
          "velocity": 0.29133858267716534,
          "duration": 0.3125
        },
        {
          "name": "G#2",
          "midi": 44,
          "time": 202.51464843750017,
          "velocity": 0.2440944881889764,
          "duration": 0.625
        },
        {
          "name": "F#5",
          "midi": 78,
          "time": 202.82714843750017,
          "velocity": 0.25984251968503935,
          "duration": 0.3125
        },
        {
          "name": "D#5",
          "midi": 75,
          "time": 203.13964843750017,
          "velocity": 0.2755905511811024,
          "duration": 0.3125
        },
        {
          "name": "B3",
          "midi": 59,
          "time": 203.13964843750017,
          "velocity": 0.1732283464566929,
          "duration": 0.625
        },
        {
          "name": "D#4",
          "midi": 63,
          "time": 203.13964843750017,
          "velocity": 0.2440944881889764,
          "duration": 0.625
        },
        {
          "name": "F#4",
          "midi": 66,
          "time": 203.13964843750017,
          "velocity": 0.1968503937007874,
          "duration": 0.625
        },
        {
          "name": "A#4",
          "midi": 70,
          "time": 203.45214843750017,
          "velocity": 0.25984251968503935,
          "duration": 0.3125
        },
        {
          "name": "D#5",
          "midi": 75,
          "time": 203.76464843750017,
          "velocity": 0.33858267716535434,
          "duration": 0.3125
        },
        {
          "name": "B3",
          "midi": 59,
          "time": 203.76464843750017,
          "velocity": 0.2047244094488189,
          "duration": 0.625
        },
        {
          "name": "D#4",
          "midi": 63,
          "time": 203.76464843750017,
          "velocity": 0.2283464566929134,
          "duration": 0.625
        },
        {
          "name": "F#4",
          "midi": 66,
          "time": 203.76464843750017,
          "velocity": 0.23622047244094488,
          "duration": 0.625
        },
        {
          "name": "F#5",
          "midi": 78,
          "time": 204.07714843750017,
          "velocity": 0.31496062992125984,
          "duration": 0.3125
        },
        {
          "name": "F2",
          "midi": 41,
          "time": 204.38964843750017,
          "velocity": 0.31496062992125984,
          "duration": 0.625
        },
        {
          "name": "F#5",
          "midi": 78,
          "time": 204.38964843750017,
          "velocity": 0.29133858267716534,
          "duration": 1.25
        },
        {
          "name": "A#5",
          "midi": 82,
          "time": 204.38964843750017,
          "velocity": 0.28346456692913385,
          "duration": 1.25
        },
        {
          "name": "B3",
          "midi": 59,
          "time": 205.01464843750017,
          "velocity": 0.2204724409448819,
          "duration": 0.625
        },
        {
          "name": "D#4",
          "midi": 63,
          "time": 205.01464843750017,
          "velocity": 0.1968503937007874,
          "duration": 0.625
        },
        {
          "name": "F#4",
          "midi": 66,
          "time": 205.01464843750017,
          "velocity": 0.2755905511811024,
          "duration": 0.625
        },
        {
          "name": "G#4",
          "midi": 68,
          "time": 205.01464843750017,
          "velocity": 0.2440944881889764,
          "duration": 0.625
        },
        {
          "name": "B3",
          "midi": 59,
          "time": 205.63964843750017,
          "velocity": 0.1889763779527559,
          "duration": 0.625
        },
        {
          "name": "D#4",
          "midi": 63,
          "time": 205.63964843750017,
          "velocity": 0.1889763779527559,
          "duration": 0.625
        },
        {
          "name": "F#4",
          "midi": 66,
          "time": 205.63964843750017,
          "velocity": 0.2440944881889764,
          "duration": 0.625
        },
        {
          "name": "G#4",
          "midi": 68,
          "time": 205.63964843750017,
          "velocity": 0.18110236220472442,
          "duration": 0.625
        },
        {
          "name": "G#5",
          "midi": 80,
          "time": 205.63964843750017,
          "velocity": 0.29133858267716534,
          "duration": 0.625
        },
        {
          "name": "A#2",
          "midi": 46,
          "time": 206.26464843750017,
          "velocity": 0.1968503937007874,
          "duration": 0.625
        },
        {
          "name": "F#5",
          "midi": 78,
          "time": 206.88964843750017,
          "velocity": 0.25196850393700787,
          "duration": 0.3125
        },
        {
          "name": "B3",
          "midi": 59,
          "time": 206.88964843750017,
          "velocity": 0.2047244094488189,
          "duration": 0.625
        },
        {
          "name": "D4",
          "midi": 62,
          "time": 206.88964843750017,
          "velocity": 0.2283464566929134,
          "duration": 0.625
        },
        {
          "name": "F#4",
          "midi": 66,
          "time": 206.88964843750017,
          "velocity": 0.1889763779527559,
          "duration": 0.625
        },
        {
          "name": "F5",
          "midi": 77,
          "time": 207.20214843750017,
          "velocity": 0.25984251968503935,
          "duration": 0.3125
        },
        {
          "name": "E5",
          "midi": 76,
          "time": 207.51464843750017,
          "velocity": 0.29133858267716534,
          "duration": 0.3125
        },
        {
          "name": "B3",
          "midi": 59,
          "time": 207.51464843750017,
          "velocity": 0.2125984251968504,
          "duration": 0.625
        },
        {
          "name": "D4",
          "midi": 62,
          "time": 207.51464843750017,
          "velocity": 0.2204724409448819,
          "duration": 0.625
        },
        {
          "name": "G#4",
          "midi": 68,
          "time": 207.51464843750017,
          "velocity": 0.28346456692913385,
          "duration": 0.625
        },
        {
          "name": "F5",
          "midi": 77,
          "time": 207.82714843750017,
          "velocity": 0.28346456692913385,
          "duration": 0.3125
        },
        {
          "name": "D#2",
          "midi": 39,
          "time": 208.13964843750017,
          "velocity": 0.29133858267716534,
          "duration": 0.625
        },
        {
          "name": "F5",
          "midi": 77,
          "time": 208.13964843750017,
          "velocity": 0.28346456692913385,
          "duration": 1.25
        },
        {
          "name": "G#5",
          "midi": 80,
          "time": 208.13964843750017,
          "velocity": 0.2755905511811024,
          "duration": 1.25
        },
        {
          "name": "A#3",
          "midi": 58,
          "time": 208.76464843750017,
          "velocity": 0.2047244094488189,
          "duration": 0.625
        },
        {
          "name": "C#4",
          "midi": 61,
          "time": 208.76464843750017,
          "velocity": 0.2125984251968504,
          "duration": 0.625
        },
        {
          "name": "D#4",
          "midi": 63,
          "time": 208.76464843750017,
          "velocity": 0.2125984251968504,
          "duration": 0.625
        },
        {
          "name": "G#4",
          "midi": 68,
          "time": 208.76464843750017,
          "velocity": 0.23622047244094488,
          "duration": 0.625
        },
        {
          "name": "A#3",
          "midi": 58,
          "time": 209.38964843750017,
          "velocity": 0.1968503937007874,
          "duration": 0.625
        },
        {
          "name": "C#4",
          "midi": 61,
          "time": 209.38964843750017,
          "velocity": 0.2440944881889764,
          "duration": 0.625
        },
        {
          "name": "D#4",
          "midi": 63,
          "time": 209.38964843750017,
          "velocity": 0.2204724409448819,
          "duration": 0.625
        },
        {
          "name": "F#4",
          "midi": 66,
          "time": 209.38964843750017,
          "velocity": 0.18110236220472442,
          "duration": 0.625
        },
        {
          "name": "F#5",
          "midi": 78,
          "time": 209.38964843750017,
          "velocity": 0.2992125984251969,
          "duration": 0.625
        },
        {
          "name": "C#2",
          "midi": 37,
          "time": 210.01464843750017,
          "velocity": 0.31496062992125984,
          "duration": 0.625
        },
        {
          "name": "F5",
          "midi": 77,
          "time": 210.63964843750017,
          "velocity": 0.25196850393700787,
          "duration": 0.3125
        },
        {
          "name": "A#3",
          "midi": 58,
          "time": 210.63964843750017,
          "velocity": 0.18110236220472442,
          "duration": 0.625
        },
        {
          "name": "D#4",
          "midi": 63,
          "time": 210.63964843750017,
          "velocity": 0.2677165354330709,
          "duration": 0.625
        },
        {
          "name": "F#4",
          "midi": 66,
          "time": 210.63964843750017,
          "velocity": 0.1968503937007874,
          "duration": 0.625
        },
        {
          "name": "D#5",
          "midi": 75,
          "time": 210.95214843750017,
          "velocity": 0.30708661417322836,
          "duration": 0.3125
        },
        {
          "name": "D5",
          "midi": 74,
          "time": 211.26464843750017,
          "velocity": 0.30708661417322836,
          "duration": 0.3125
        },
        {
          "name": "A#3",
          "midi": 58,
          "time": 211.26464843750017,
          "velocity": 0.2125984251968504,
          "duration": 0.625
        },
        {
          "name": "D#4",
          "midi": 63,
          "time": 211.26464843750017,
          "velocity": 0.1732283464566929,
          "duration": 0.625
        },
        {
          "name": "F#4",
          "midi": 66,
          "time": 211.26464843750017,
          "velocity": 0.2204724409448819,
          "duration": 0.625
        },
        {
          "name": "D#5",
          "midi": 75,
          "time": 211.57714843750017,
          "velocity": 0.23622047244094488,
          "duration": 0.3125
        },
        {
          "name": "B4",
          "midi": 71,
          "time": 211.88964843750017,
          "velocity": 0.28346456692913385,
          "duration": 0.625
        },
        {
          "name": "D#5",
          "midi": 75,
          "time": 211.88964843750017,
          "velocity": 0.23622047244094488,
          "duration": 0.625
        },
        {
          "name": "B1",
          "midi": 35,
          "time": 211.88964843750017,
          "velocity": 0.2440944881889764,
          "duration": 0.625
        },
        {
          "name": "F5",
          "midi": 77,
          "time": 212.51464843750017,
          "velocity": 0.3228346456692913,
          "duration": 0.3125
        },
        {
          "name": "B3",
          "midi": 59,
          "time": 212.51464843750017,
          "velocity": 0.1889763779527559,
          "duration": 0.625
        },
        {
          "name": "D#4",
          "midi": 63,
          "time": 212.51464843750017,
          "velocity": 0.2283464566929134,
          "duration": 0.625
        },
        {
          "name": "F#4",
          "midi": 66,
          "time": 212.51464843750017,
          "velocity": 0.2125984251968504,
          "duration": 0.625
        },
        {
          "name": "F#5",
          "midi": 78,
          "time": 212.82714843750017,
          "velocity": 0.36220472440944884,
          "duration": 0.3125
        },
        {
          "name": "G#5",
          "midi": 80,
          "time": 213.13964843750017,
          "velocity": 0.28346456692913385,
          "duration": 0.3125
        },
        {
          "name": "B3",
          "midi": 59,
          "time": 213.13964843750017,
          "velocity": 0.23622047244094488,
          "duration": 0.625
        },
        {
          "name": "D#4",
          "midi": 63,
          "time": 213.13964843750017,
          "velocity": 0.25984251968503935,
          "duration": 0.625
        },
        {
          "name": "F#4",
          "midi": 66,
          "time": 213.13964843750017,
          "velocity": 0.2204724409448819,
          "duration": 0.625
        },
        {
          "name": "A#5",
          "midi": 82,
          "time": 213.45214843750017,
          "velocity": 0.2755905511811024,
          "duration": 0.3125
        },
        {
          "name": "G#5",
          "midi": 80,
          "time": 213.76464843750017,
          "velocity": 0.2992125984251969,
          "duration": 0.625
        },
        {
          "name": "A#1",
          "midi": 34,
          "time": 213.76464843750017,
          "velocity": 0.25196850393700787,
          "duration": 0.625
        },
        {
          "name": "G#5",
          "midi": 80,
          "time": 214.38964843750017,
          "velocity": 0.2992125984251969,
          "duration": 0.3125
        },
        {
          "name": "A#3",
          "midi": 58,
          "time": 214.38964843750017,
          "velocity": 0.25984251968503935,
          "duration": 0.625
        },
        {
          "name": "D4",
          "midi": 62,
          "time": 214.38964843750017,
          "velocity": 0.18110236220472442,
          "duration": 0.625
        },
        {
          "name": "F4",
          "midi": 65,
          "time": 214.38964843750017,
          "velocity": 0.1889763779527559,
          "duration": 0.625
        },
        {
          "name": "F#5",
          "midi": 78,
          "time": 214.70214843750017,
          "velocity": 0.23622047244094488,
          "duration": 0.3125
        },
        {
          "name": "A#3",
          "midi": 58,
          "time": 215.01464843750017,
          "velocity": 0.1889763779527559,
          "duration": 0.625
        },
        {
          "name": "D4",
          "midi": 62,
          "time": 215.01464843750017,
          "velocity": 0.25984251968503935,
          "duration": 0.625
        },
        {
          "name": "F4",
          "midi": 65,
          "time": 215.01464843750017,
          "velocity": 0.1889763779527559,
          "duration": 0.625
        },
        {
          "name": "G#5",
          "midi": 80,
          "time": 215.01464843750017,
          "velocity": 0.2992125984251969,
          "duration": 0.625
        },
        {
          "name": "D#2",
          "midi": 39,
          "time": 215.63964843750017,
          "velocity": 0.2755905511811024,
          "duration": 0.625
        },
        {
          "name": "A#5",
          "midi": 82,
          "time": 216.26464843750017,
          "velocity": 0.29133858267716534,
          "duration": 0.15625
        },
        {
          "name": "A#3",
          "midi": 58,
          "time": 216.26464843750017,
          "velocity": 0.2440944881889764,
          "duration": 0.6266276041666856
        },
        {
          "name": "D#4",
          "midi": 63,
          "time": 216.26464843750017,
          "velocity": 0.2047244094488189,
          "duration": 0.6266276041666856
        },
        {
          "name": "G4",
          "midi": 67,
          "time": 216.26464843750017,
          "velocity": 0.25984251968503935,
          "duration": 0.6266276041666856
        },
        {
          "name": "G#5",
          "midi": 80,
          "time": 216.4729817708335,
          "velocity": 0.2755905511811024,
          "duration": 0.15625
        },
        {
          "name": "G5",
          "midi": 79,
          "time": 216.6829427083335,
          "velocity": 0.2755905511811024,
          "duration": 0.15625
        },
        {
          "name": "F5",
          "midi": 77,
          "time": 216.89127604166686,
          "velocity": 0.23622047244094488,
          "duration": 0.15625
        },
        {
          "name": "A#3",
          "midi": 58,
          "time": 216.89127604166686,
          "velocity": 0.29133858267716534,
          "duration": 0.6266276041666856
        },
        {
          "name": "D#4",
          "midi": 63,
          "time": 216.89127604166686,
          "velocity": 0.2125984251968504,
          "duration": 0.6266276041666856
        },
        {
          "name": "G4",
          "midi": 67,
          "time": 216.89127604166686,
          "velocity": 0.2440944881889764,
          "duration": 0.6266276041666856
        },
        {
          "name": "D#5",
          "midi": 75,
          "time": 217.0996093750002,
          "velocity": 0.2992125984251969,
          "duration": 0.15625
        },
        {
          "name": "D5",
          "midi": 74,
          "time": 217.3095703125002,
          "velocity": 0.30708661417322836,
          "duration": 0.15625
        },
        {
          "name": "D#6",
          "midi": 87,
          "time": 217.51790364583354,
          "velocity": 0.31496062992125984,
          "duration": 0.15625
        },
        {
          "name": "A#1",
          "midi": 34,
          "time": 217.51790364583354,
          "velocity": 0.31496062992125984,
          "duration": 0.6266276041666856
        },
        {
          "name": "D6",
          "midi": 86,
          "time": 217.72623697916688,
          "velocity": 0.29133858267716534,
          "duration": 0.15625
        },
        {
          "name": "C6",
          "midi": 84,
          "time": 217.93619791666688,
          "velocity": 0.28346456692913385,
          "duration": 0.15625
        },
        {
          "name": "A#5",
          "midi": 82,
          "time": 218.14453125000023,
          "velocity": 0.2755905511811024,
          "duration": 0.15625
        },
        {
          "name": "A#3",
          "midi": 58,
          "time": 218.14453125000023,
          "velocity": 0.25984251968503935,
          "duration": 0.6266276041666856
        },
        {
          "name": "D#4",
          "midi": 63,
          "time": 218.14453125000023,
          "velocity": 0.2677165354330709,
          "duration": 0.6266276041666856
        },
        {
          "name": "G4",
          "midi": 67,
          "time": 218.14453125000023,
          "velocity": 0.2755905511811024,
          "duration": 0.6266276041666856
        },
        {
          "name": "G#5",
          "midi": 80,
          "time": 218.35286458333357,
          "velocity": 0.28346456692913385,
          "duration": 0.15625
        },
        {
          "name": "G5",
          "midi": 79,
          "time": 218.56282552083357,
          "velocity": 0.31496062992125984,
          "duration": 0.15625
        },
        {
          "name": "F5",
          "midi": 77,
          "time": 218.7711588541669,
          "velocity": 0.25984251968503935,
          "duration": 0.15625
        },
        {
          "name": "A#3",
          "midi": 58,
          "time": 218.7711588541669,
          "velocity": 0.2283464566929134,
          "duration": 0.6266276041666856
        },
        {
          "name": "D#4",
          "midi": 63,
          "time": 218.7711588541669,
          "velocity": 0.1968503937007874,
          "duration": 0.6266276041666856
        },
        {
          "name": "G4",
          "midi": 67,
          "time": 218.7711588541669,
          "velocity": 0.25196850393700787,
          "duration": 0.6266276041666856
        },
        {
          "name": "D#5",
          "midi": 75,
          "time": 218.97949218750026,
          "velocity": 0.2755905511811024,
          "duration": 0.15625
        },
        {
          "name": "D5",
          "midi": 74,
          "time": 219.18945312500026,
          "velocity": 0.2677165354330709,
          "duration": 0.15625
        },
        {
          "name": "D#6",
          "midi": 87,
          "time": 219.3977864583336,
          "velocity": 0.25984251968503935,
          "duration": 0.15625
        },
        {
          "name": "D#2",
          "midi": 39,
          "time": 219.3977864583336,
          "velocity": 0.33858267716535434,
          "duration": 0.6266276041666856
        },
        {
          "name": "D6",
          "midi": 86,
          "time": 219.60611979166694,
          "velocity": 0.2755905511811024,
          "duration": 0.15625
        },
        {
          "name": "C6",
          "midi": 84,
          "time": 219.81608072916694,
          "velocity": 0.31496062992125984,
          "duration": 0.15625
        },
        {
          "name": "A#5",
          "midi": 82,
          "time": 220.02441406250028,
          "velocity": 0.23622047244094488,
          "duration": 0.15625
        },
        {
          "name": "A#3",
          "midi": 58,
          "time": 220.02441406250028,
          "velocity": 0.2677165354330709,
          "duration": 0.6266276041666856
        },
        {
          "name": "D#4",
          "midi": 63,
          "time": 220.02441406250028,
          "velocity": 0.23622047244094488,
          "duration": 0.6266276041666856
        },
        {
          "name": "G4",
          "midi": 67,
          "time": 220.02441406250028,
          "velocity": 0.2992125984251969,
          "duration": 0.6266276041666856
        },
        {
          "name": "G#5",
          "midi": 80,
          "time": 220.23274739583363,
          "velocity": 0.2992125984251969,
          "duration": 0.15625
        },
        {
          "name": "G5",
          "midi": 79,
          "time": 220.44270833333363,
          "velocity": 0.25196850393700787,
          "duration": 0.15625
        },
        {
          "name": "F5",
          "midi": 77,
          "time": 220.65104166666697,
          "velocity": 0.2204724409448819,
          "duration": 0.15625
        },
        {
          "name": "A#3",
          "midi": 58,
          "time": 220.65104166666697,
          "velocity": 0.18110236220472442,
          "duration": 0.6266276041666856
        },
        {
          "name": "D#4",
          "midi": 63,
          "time": 220.65104166666697,
          "velocity": 0.25984251968503935,
          "duration": 0.6266276041666856
        },
        {
          "name": "G4",
          "midi": 67,
          "time": 220.65104166666697,
          "velocity": 0.2677165354330709,
          "duration": 0.6266276041666856
        },
        {
          "name": "D#5",
          "midi": 75,
          "time": 220.8593750000003,
          "velocity": 0.25984251968503935,
          "duration": 0.15625
        },
        {
          "name": "D5",
          "midi": 74,
          "time": 221.0693359375003,
          "velocity": 0.2755905511811024,
          "duration": 0.15625
        },
        {
          "name": "A#1",
          "midi": 34,
          "time": 221.27766927083366,
          "velocity": 0.2677165354330709,
          "duration": 0.625
        },
        {
          "name": "D#5",
          "midi": 75,
          "time": 221.27766927083366,
          "velocity": 0.2047244094488189,
          "duration": 1.875
        },
        {
          "name": "A#3",
          "midi": 58,
          "time": 221.90266927083366,
          "velocity": 0.1968503937007874,
          "duration": 0.625
        },
        {
          "name": "D#4",
          "midi": 63,
          "time": 221.90266927083366,
          "velocity": 0.1732283464566929,
          "duration": 0.625
        },
        {
          "name": "G4",
          "midi": 67,
          "time": 221.90266927083366,
          "velocity": 0.25984251968503935,
          "duration": 0.625
        },
        {
          "name": "A#3",
          "midi": 58,
          "time": 222.52766927083366,
          "velocity": 0.2047244094488189,
          "duration": 1.25
        },
        {
          "name": "D#4",
          "midi": 63,
          "time": 222.52766927083366,
          "velocity": 0.1968503937007874,
          "duration": 1.25
        },
        {
          "name": "G4",
          "midi": 67,
          "time": 222.52766927083366,
          "velocity": 0.2125984251968504,
          "duration": 1.25
        },
        {
          "name": "D#5",
          "midi": 75,
          "time": 225.02766927083366,
          "velocity": 0.2440944881889764,
          "duration": 0.3125
        },
        {
          "name": "B4",
          "midi": 71,
          "time": 225.02766927083366,
          "velocity": 0.1889763779527559,
          "duration": 0.3125
        },
        {
          "name": "E5",
          "midi": 76,
          "time": 225.34016927083366,
          "velocity": 0.1732283464566929,
          "duration": 0.3125
        },
        {
          "name": "C#5",
          "midi": 73,
          "time": 225.34016927083366,
          "velocity": 0.1732283464566929,
          "duration": 0.3125
        },
        {
          "name": "D#5",
          "midi": 75,
          "time": 225.65266927083366,
          "velocity": 0.12598425196850394,
          "duration": 0.3125
        },
        {
          "name": "B4",
          "midi": 71,
          "time": 225.65266927083366,
          "velocity": 0.13385826771653545,
          "duration": 0.3125
        },
        {
          "name": "E5",
          "midi": 76,
          "time": 225.96516927083366,
          "velocity": 0.16535433070866143,
          "duration": 0.3125
        },
        {
          "name": "C#5",
          "midi": 73,
          "time": 225.96516927083366,
          "velocity": 0.15748031496062992,
          "duration": 0.3125
        },
        {
          "name": "D#5",
          "midi": 75,
          "time": 226.27766927083366,
          "velocity": 0.1889763779527559,
          "duration": 0.3125
        },
        {
          "name": "B4",
          "midi": 71,
          "time": 226.27766927083366,
          "velocity": 0.11811023622047244,
          "duration": 0.3125
        },
        {
          "name": "E5",
          "midi": 76,
          "time": 226.59016927083366,
          "velocity": 0.2125984251968504,
          "duration": 0.3125
        },
        {
          "name": "C#5",
          "midi": 73,
          "time": 226.59016927083366,
          "velocity": 0.15748031496062992,
          "duration": 0.3125
        },
        {
          "name": "C#5",
          "midi": 73,
          "time": 226.90266927083366,
          "velocity": 0.2204724409448819,
          "duration": 0.3125
        },
        {
          "name": "A#4",
          "midi": 70,
          "time": 226.90266927083366,
          "velocity": 0.2440944881889764,
          "duration": 0.3125
        },
        {
          "name": "D#5",
          "midi": 75,
          "time": 227.21516927083366,
          "velocity": 0.23622047244094488,
          "duration": 0.3125
        },
        {
          "name": "B4",
          "midi": 71,
          "time": 227.21516927083366,
          "velocity": 0.1889763779527559,
          "duration": 0.3125
        },
        {
          "name": "C#5",
          "midi": 73,
          "time": 227.52766927083366,
          "velocity": 0.2125984251968504,
          "duration": 0.3125
        },
        {
          "name": "A#4",
          "midi": 70,
          "time": 227.52766927083366,
          "velocity": 0.14960629921259844,
          "duration": 0.3125
        },
        {
          "name": "D#5",
          "midi": 75,
          "time": 227.84016927083366,
          "velocity": 0.18110236220472442,
          "duration": 0.3125
        },
        {
          "name": "B4",
          "midi": 71,
          "time": 227.84016927083366,
          "velocity": 0.1889763779527559,
          "duration": 0.3125
        },
        {
          "name": "C#5",
          "midi": 73,
          "time": 228.15266927083366,
          "velocity": 0.2047244094488189,
          "duration": 0.3125
        },
        {
          "name": "A#4",
          "midi": 70,
          "time": 228.15266927083366,
          "velocity": 0.2125984251968504,
          "duration": 0.3125
        },
        {
          "name": "D#5",
          "midi": 75,
          "time": 228.46516927083366,
          "velocity": 0.2283464566929134,
          "duration": 0.3125
        },
        {
          "name": "B4",
          "midi": 71,
          "time": 228.46516927083366,
          "velocity": 0.2125984251968504,
          "duration": 0.3125
        },
        {
          "name": "B4",
          "midi": 71,
          "time": 228.77766927083366,
          "velocity": 0.1968503937007874,
          "duration": 0.3125
        },
        {
          "name": "G#4",
          "midi": 68,
          "time": 228.77766927083366,
          "velocity": 0.2440944881889764,
          "duration": 0.3125
        },
        {
          "name": "C#5",
          "midi": 73,
          "time": 229.09016927083366,
          "velocity": 0.25984251968503935,
          "duration": 0.3125
        },
        {
          "name": "A#4",
          "midi": 70,
          "time": 229.09016927083366,
          "velocity": 0.25984251968503935,
          "duration": 0.3125
        },
        {
          "name": "B4",
          "midi": 71,
          "time": 229.40266927083366,
          "velocity": 0.14960629921259844,
          "duration": 0.3125
        },
        {
          "name": "G#4",
          "midi": 68,
          "time": 229.40266927083366,
          "velocity": 0.11811023622047244,
          "duration": 0.3125
        },
        {
          "name": "C#5",
          "midi": 73,
          "time": 229.71516927083366,
          "velocity": 0.25196850393700787,
          "duration": 0.3125
        },
        {
          "name": "A#4",
          "midi": 70,
          "time": 229.71516927083366,
          "velocity": 0.2125984251968504,
          "duration": 0.3125
        },
        {
          "name": "B4",
          "midi": 71,
          "time": 230.02766927083366,
          "velocity": 0.1889763779527559,
          "duration": 0.3125
        },
        {
          "name": "G#4",
          "midi": 68,
          "time": 230.02766927083366,
          "velocity": 0.15748031496062992,
          "duration": 0.3125
        },
        {
          "name": "C#5",
          "midi": 73,
          "time": 230.34016927083366,
          "velocity": 0.28346456692913385,
          "duration": 0.3125
        },
        {
          "name": "A#4",
          "midi": 70,
          "time": 230.34016927083366,
          "velocity": 0.2125984251968504,
          "duration": 0.3125
        },
        {
          "name": "A#4",
          "midi": 70,
          "time": 230.65266927083366,
          "velocity": 0.30708661417322836,
          "duration": 0.15625
        },
        {
          "name": "G4",
          "midi": 67,
          "time": 230.65266927083366,
          "velocity": 0.30708661417322836,
          "duration": 0.15625
        },
        {
          "name": "G#4",
          "midi": 68,
          "time": 230.80891927083366,
          "velocity": 0.25196850393700787,
          "duration": 0.15625
        },
        {
          "name": "F4",
          "midi": 65,
          "time": 230.80891927083366,
          "velocity": 0.2755905511811024,
          "duration": 0.15625
        },
        {
          "name": "D#4",
          "midi": 63,
          "time": 230.96516927083366,
          "velocity": 0.29133858267716534,
          "duration": 1.5625
        },
        {
          "name": "G4",
          "midi": 67,
          "time": 230.96516927083366,
          "velocity": 0.31496062992125984,
          "duration": 1.5625
        },
        {
          "name": "D#2",
          "midi": 39,
          "time": 232.52766927083366,
          "velocity": 0.1889763779527559,
          "duration": 0.3125
        },
        {
          "name": "C#5",
          "midi": 73,
          "time": 232.52766927083366,
          "velocity": 0.1732283464566929,
          "duration": 1.875
        },
        {
          "name": "A#2",
          "midi": 46,
          "time": 232.84016927083366,
          "velocity": 0.2440944881889764,
          "duration": 0.3125
        },
        {
          "name": "C#3",
          "midi": 49,
          "time": 233.15266927083366,
          "velocity": 0.1889763779527559,
          "duration": 0.3125
        },
        {
          "name": "D#3",
          "midi": 51,
          "time": 233.46516927083366,
          "velocity": 0.2755905511811024,
          "duration": 0.3125
        },
        {
          "name": "E3",
          "midi": 52,
          "time": 233.77766927083366,
          "velocity": 0.1968503937007874,
          "duration": 0.3125
        },
        {
          "name": "G3",
          "midi": 55,
          "time": 234.09016927083366,
          "velocity": 0.2440944881889764,
          "duration": 0.3125
        },
        {
          "name": "A#3",
          "midi": 58,
          "time": 234.40266927083366,
          "velocity": 0.2125984251968504,
          "duration": 0.15625
        },
        {
          "name": "C#4",
          "midi": 61,
          "time": 234.611002604167,
          "velocity": 0.1889763779527559,
          "duration": 0.15625
        },
        {
          "name": "D#4",
          "midi": 63,
          "time": 234.820963541667,
          "velocity": 0.18110236220472442,
          "duration": 0.15625
        },
        {
          "name": "E4",
          "midi": 64,
          "time": 235.02929687500034,
          "velocity": 0.1968503937007874,
          "duration": 0.15625
        },
        {
          "name": "G4",
          "midi": 67,
          "time": 235.23763020833368,
          "velocity": 0.2677165354330709,
          "duration": 0.15625
        },
        {
          "name": "C#5",
          "midi": 73,
          "time": 235.44759114583368,
          "velocity": 0.25984251968503935,
          "duration": 2.03125
        },
        {
          "name": "E5",
          "midi": 76,
          "time": 238.15592447916703,
          "velocity": 0.2283464566929134,
          "duration": 0.3125
        },
        {
          "name": "C#5",
          "midi": 73,
          "time": 238.15592447916703,
          "velocity": 0.2283464566929134,
          "duration": 0.3125
        },
        {
          "name": "F#5",
          "midi": 78,
          "time": 238.46842447916703,
          "velocity": 0.18110236220472442,
          "duration": 0.3125
        },
        {
          "name": "D#5",
          "midi": 75,
          "time": 238.46842447916703,
          "velocity": 0.2125984251968504,
          "duration": 0.3125
        },
        {
          "name": "E5",
          "midi": 76,
          "time": 238.78092447916703,
          "velocity": 0.16535433070866143,
          "duration": 0.3125
        },
        {
          "name": "C#5",
          "midi": 73,
          "time": 238.78092447916703,
          "velocity": 0.18110236220472442,
          "duration": 0.3125
        },
        {
          "name": "F#5",
          "midi": 78,
          "time": 239.09342447916703,
          "velocity": 0.1968503937007874,
          "duration": 0.3125
        },
        {
          "name": "D#5",
          "midi": 75,
          "time": 239.09342447916703,
          "velocity": 0.1968503937007874,
          "duration": 0.3125
        },
        {
          "name": "E5",
          "midi": 76,
          "time": 239.40592447916703,
          "velocity": 0.2047244094488189,
          "duration": 0.3125
        },
        {
          "name": "C#5",
          "midi": 73,
          "time": 239.40592447916703,
          "velocity": 0.12598425196850394,
          "duration": 0.3125
        },
        {
          "name": "F#5",
          "midi": 78,
          "time": 239.71842447916703,
          "velocity": 0.2047244094488189,
          "duration": 0.3125
        },
        {
          "name": "D#5",
          "midi": 75,
          "time": 239.71842447916703,
          "velocity": 0.14960629921259844,
          "duration": 0.3125
        },
        {
          "name": "D#5",
          "midi": 75,
          "time": 240.03092447916703,
          "velocity": 0.25984251968503935,
          "duration": 0.3125
        },
        {
          "name": "C5",
          "midi": 72,
          "time": 240.03092447916703,
          "velocity": 0.29133858267716534,
          "duration": 0.3125
        },
        {
          "name": "E5",
          "midi": 76,
          "time": 240.34342447916703,
          "velocity": 0.2125984251968504,
          "duration": 0.3125
        },
        {
          "name": "C#5",
          "midi": 73,
          "time": 240.34342447916703,
          "velocity": 0.1889763779527559,
          "duration": 0.3125
        },
        {
          "name": "D#5",
          "midi": 75,
          "time": 240.65592447916703,
          "velocity": 0.2125984251968504,
          "duration": 0.3125
        },
        {
          "name": "C5",
          "midi": 72,
          "time": 240.65592447916703,
          "velocity": 0.18110236220472442,
          "duration": 0.3125
        },
        {
          "name": "E5",
          "midi": 76,
          "time": 240.96842447916703,
          "velocity": 0.1968503937007874,
          "duration": 0.3125
        },
        {
          "name": "C#5",
          "midi": 73,
          "time": 240.96842447916703,
          "velocity": 0.15748031496062992,
          "duration": 0.3125
        },
        {
          "name": "D#5",
          "midi": 75,
          "time": 241.28092447916703,
          "velocity": 0.1889763779527559,
          "duration": 0.3125
        },
        {
          "name": "C5",
          "midi": 72,
          "time": 241.28092447916703,
          "velocity": 0.1968503937007874,
          "duration": 0.3125
        },
        {
          "name": "E5",
          "midi": 76,
          "time": 241.59342447916703,
          "velocity": 0.2440944881889764,
          "duration": 0.3125
        },
        {
          "name": "C#5",
          "midi": 73,
          "time": 241.59342447916703,
          "velocity": 0.2440944881889764,
          "duration": 0.3125
        },
        {
          "name": "C5",
          "midi": 72,
          "time": 241.90592447916703,
          "velocity": 0.25196850393700787,
          "duration": 0.3125
        },
        {
          "name": "A4",
          "midi": 69,
          "time": 241.90592447916703,
          "velocity": 0.2283464566929134,
          "duration": 0.3125
        },
        {
          "name": "C#5",
          "midi": 73,
          "time": 242.21842447916703,
          "velocity": 0.23622047244094488,
          "duration": 0.3125
        },
        {
          "name": "A#4",
          "midi": 70,
          "time": 242.21842447916703,
          "velocity": 0.2440944881889764,
          "duration": 0.3125
        },
        {
          "name": "C5",
          "midi": 72,
          "time": 242.53092447916703,
          "velocity": 0.16535433070866143,
          "duration": 0.3125
        },
        {
          "name": "A4",
          "midi": 69,
          "time": 242.53092447916703,
          "velocity": 0.14173228346456693,
          "duration": 0.3125
        },
        {
          "name": "C#5",
          "midi": 73,
          "time": 242.84342447916703,
          "velocity": 0.23622047244094488,
          "duration": 0.3125
        },
        {
          "name": "A#4",
          "midi": 70,
          "time": 242.84342447916703,
          "velocity": 0.1889763779527559,
          "duration": 0.3125
        },
        {
          "name": "C5",
          "midi": 72,
          "time": 243.15592447916703,
          "velocity": 0.2283464566929134,
          "duration": 0.3125
        },
        {
          "name": "A4",
          "midi": 69,
          "time": 243.15592447916703,
          "velocity": 0.1732283464566929,
          "duration": 0.3125
        },
        {
          "name": "C#5",
          "midi": 73,
          "time": 243.46842447916703,
          "velocity": 0.28346456692913385,
          "duration": 0.3125
        },
        {
          "name": "A#4",
          "midi": 70,
          "time": 243.46842447916703,
          "velocity": 0.2047244094488189,
          "duration": 0.3125
        },
        {
          "name": "D#5",
          "midi": 75,
          "time": 243.78092447916703,
          "velocity": 0.1968503937007874,
          "duration": 0.3125
        },
        {
          "name": "A5",
          "midi": 81,
          "time": 243.78092447916703,
          "velocity": 0.2440944881889764,
          "duration": 0.3125
        },
        {
          "name": "A4",
          "midi": 69,
          "time": 243.78092447916703,
          "velocity": 0.1732283464566929,
          "duration": 0.3125
        },
        {
          "name": "C5",
          "midi": 72,
          "time": 243.78092447916703,
          "velocity": 0.25984251968503935,
          "duration": 0.3125
        },
        {
          "name": "A4",
          "midi": 69,
          "time": 244.09342447916703,
          "velocity": 0.2047244094488189,
          "duration": 0.3125
        },
        {
          "name": "F#4",
          "midi": 66,
          "time": 244.09342447916703,
          "velocity": 0.16535433070866143,
          "duration": 0.3125
        },
        {
          "name": "G#4",
          "midi": 68,
          "time": 244.40592447916703,
          "velocity": 0.25196850393700787,
          "duration": 0.3125
        },
        {
          "name": "E4",
          "midi": 64,
          "time": 244.40592447916703,
          "velocity": 0.18110236220472442,
          "duration": 0.3125
        },
        {
          "name": "F#4",
          "midi": 66,
          "time": 244.71842447916703,
          "velocity": 0.1968503937007874,
          "duration": 0.3125
        },
        {
          "name": "D#4",
          "midi": 63,
          "time": 244.71842447916703,
          "velocity": 0.1968503937007874,
          "duration": 0.3125
        },
        {
          "name": "G#4",
          "midi": 68,
          "time": 245.03092447916703,
          "velocity": 0.2440944881889764,
          "duration": 0.3125
        },
        {
          "name": "E4",
          "midi": 64,
          "time": 245.03092447916703,
          "velocity": 0.2125984251968504,
          "duration": 0.3125
        },
        {
          "name": "A4",
          "midi": 69,
          "time": 245.34342447916703,
          "velocity": 0.2125984251968504,
          "duration": 0.3125
        },
        {
          "name": "F#4",
          "midi": 66,
          "time": 245.34342447916703,
          "velocity": 0.2283464566929134,
          "duration": 0.3125
        },
        {
          "name": "C5",
          "midi": 72,
          "time": 245.65592447916703,
          "velocity": 0.1732283464566929,
          "duration": 0.3125
        },
        {
          "name": "A4",
          "midi": 69,
          "time": 245.65592447916703,
          "velocity": 0.28346456692913385,
          "duration": 0.3125
        },
        {
          "name": "A4",
          "midi": 69,
          "time": 245.96842447916703,
          "velocity": 0.2047244094488189,
          "duration": 0.3125
        },
        {
          "name": "F#4",
          "midi": 66,
          "time": 245.96842447916703,
          "velocity": 0.2283464566929134,
          "duration": 0.3125
        },
        {
          "name": "G#4",
          "midi": 68,
          "time": 246.28092447916703,
          "velocity": 0.28346456692913385,
          "duration": 0.3125
        },
        {
          "name": "E4",
          "midi": 64,
          "time": 246.28092447916703,
          "velocity": 0.2283464566929134,
          "duration": 0.3125
        },
        {
          "name": "F#4",
          "midi": 66,
          "time": 246.59342447916703,
          "velocity": 0.2204724409448819,
          "duration": 0.3125
        },
        {
          "name": "D#4",
          "midi": 63,
          "time": 246.59342447916703,
          "velocity": 0.2283464566929134,
          "duration": 0.3125
        },
        {
          "name": "G#4",
          "midi": 68,
          "time": 246.90592447916703,
          "velocity": 0.23622047244094488,
          "duration": 0.3125
        },
        {
          "name": "E4",
          "midi": 64,
          "time": 246.90592447916703,
          "velocity": 0.2125984251968504,
          "duration": 0.3125
        },
        {
          "name": "A4",
          "midi": 69,
          "time": 247.21842447916703,
          "velocity": 0.2677165354330709,
          "duration": 0.3125
        },
        {
          "name": "F#4",
          "midi": 66,
          "time": 247.21842447916703,
          "velocity": 0.2440944881889764,
          "duration": 0.3125
        },
        {
          "name": "C5",
          "midi": 72,
          "time": 247.53092447916703,
          "velocity": 0.29133858267716534,
          "duration": 0.625
        },
        {
          "name": "F#5",
          "midi": 78,
          "time": 247.53092447916703,
          "velocity": 0.29133858267716534,
          "duration": 0.625
        },
        {
          "name": "A4",
          "midi": 69,
          "time": 247.53092447916703,
          "velocity": 0.1968503937007874,
          "duration": 0.625
        },
        {
          "name": "A#4",
          "midi": 70,
          "time": 248.15592447916703,
          "velocity": 0.28346456692913385,
          "duration": 0.625
        },
        {
          "name": "E5",
          "midi": 76,
          "time": 248.15592447916703,
          "velocity": 0.25984251968503935,
          "duration": 0.625
        },
        {
          "name": "A4",
          "midi": 69,
          "time": 248.78092447916703,
          "velocity": 0.2283464566929134,
          "duration": 0.625
        },
        {
          "name": "D#5",
          "midi": 75,
          "time": 248.78092447916703,
          "velocity": 0.29133858267716534,
          "duration": 0.625
        },
        {
          "name": "G#2",
          "midi": 44,
          "time": 249.40592447916703,
          "velocity": 0.2677165354330709,
          "duration": 0.3125
        },
        {
          "name": "F#4",
          "midi": 66,
          "time": 249.40592447916703,
          "velocity": 0.28346456692913385,
          "duration": 1.875
        },
        {
          "name": "C5",
          "midi": 72,
          "time": 249.40592447916703,
          "velocity": 0.28346456692913385,
          "duration": 1.875
        },
        {
          "name": "D#3",
          "midi": 51,
          "time": 249.71842447916703,
          "velocity": 0.2047244094488189,
          "duration": 0.3125
        },
        {
          "name": "F#3",
          "midi": 54,
          "time": 250.03092447916703,
          "velocity": 0.28346456692913385,
          "duration": 0.3125
        },
        {
          "name": "G#3",
          "midi": 56,
          "time": 250.34342447916703,
          "velocity": 0.2204724409448819,
          "duration": 0.3125
        },
        {
          "name": "A3",
          "midi": 57,
          "time": 250.65592447916703,
          "velocity": 0.2125984251968504,
          "duration": 0.3125
        },
        {
          "name": "D#4",
          "midi": 63,
          "time": 250.96842447916703,
          "velocity": 0.18110236220472442,
          "duration": 0.3125
        },
        {
          "name": "C4",
          "midi": 60,
          "time": 251.28092447916703,
          "velocity": 0.1968503937007874,
          "duration": 0.3125
        },
        {
          "name": "C#4",
          "midi": 61,
          "time": 251.59342447916703,
          "velocity": 0.1889763779527559,
          "duration": 0.3125
        },
        {
          "name": "D#4",
          "midi": 63,
          "time": 251.90592447916703,
          "velocity": 0.2440944881889764,
          "duration": 0.3125
        },
        {
          "name": "F#4",
          "midi": 66,
          "time": 252.21842447916703,
          "velocity": 0.1732283464566929,
          "duration": 0.3125
        },
        {
          "name": "G#4",
          "midi": 68,
          "time": 252.53092447916703,
          "velocity": 0.14173228346456693,
          "duration": 0.3125
        },
        {
          "name": "A4",
          "midi": 69,
          "time": 252.84342447916703,
          "velocity": 0.1732283464566929,
          "duration": 0.3125
        },
        {
          "name": "F#5",
          "midi": 78,
          "time": 253.15592447916703,
          "velocity": 0.14173228346456693,
          "duration": 1.875
        },
        {
          "name": "G#4",
          "midi": 68,
          "time": 255.96842447916703,
          "velocity": 0.36220472440944884,
          "duration": 0.3125
        },
        {
          "name": "C#5",
          "midi": 73,
          "time": 256.280924479167,
          "velocity": 0.2440944881889764,
          "duration": 0.3125
        },
        {
          "name": "E5",
          "midi": 76,
          "time": 256.593424479167,
          "velocity": 0.3228346456692913,
          "duration": 0.3125
        },
        {
          "name": "G#5",
          "midi": 80,
          "time": 256.905924479167,
          "velocity": 0.31496062992125984,
          "duration": 0.15625
        },
        {
          "name": "G#3",
          "midi": 56,
          "time": 256.905924479167,
          "velocity": 0.2440944881889764,
          "duration": 0.3125
        },
        {
          "name": "A3",
          "midi": 57,
          "time": 256.905924479167,
          "velocity": 0.30708661417322836,
          "duration": 0.3125
        },
        {
          "name": "C#4",
          "midi": 61,
          "time": 256.905924479167,
          "velocity": 0.30708661417322836,
          "duration": 0.3125
        },
        {
          "name": "E4",
          "midi": 64,
          "time": 256.905924479167,
          "velocity": 0.31496062992125984,
          "duration": 0.3125
        },
        {
          "name": "G#5",
          "midi": 80,
          "time": 257.530924479167,
          "velocity": 0.3779527559055118,
          "duration": 0.3125
        },
        {
          "name": "F#5",
          "midi": 78,
          "time": 257.843424479167,
          "velocity": 0.36220472440944884,
          "duration": 0.3125
        },
        {
          "name": "G#3",
          "midi": 56,
          "time": 257.843424479167,
          "velocity": 0.25196850393700787,
          "duration": 0.3125
        },
        {
          "name": "C4",
          "midi": 60,
          "time": 257.843424479167,
          "velocity": 0.25196850393700787,
          "duration": 0.3125
        },
        {
          "name": "D#4",
          "midi": 63,
          "time": 257.843424479167,
          "velocity": 0.2755905511811024,
          "duration": 0.3125
        },
        {
          "name": "F#4",
          "midi": 66,
          "time": 257.843424479167,
          "velocity": 0.30708661417322836,
          "duration": 0.3125
        },
        {
          "name": "E5",
          "midi": 76,
          "time": 258.155924479167,
          "velocity": 0.31496062992125984,
          "duration": 0.3125
        },
        {
          "name": "D#5",
          "midi": 75,
          "time": 258.468424479167,
          "velocity": 0.33070866141732286,
          "duration": 0.3125
        },
        {
          "name": "E5",
          "midi": 76,
          "time": 258.780924479167,
          "velocity": 0.36220472440944884,
          "duration": 0.9375
        },
        {
          "name": "C#4",
          "midi": 61,
          "time": 258.780924479167,
          "velocity": 0.25984251968503935,
          "duration": 0.9375
        },
        {
          "name": "E4",
          "midi": 64,
          "time": 258.780924479167,
          "velocity": 0.2992125984251969,
          "duration": 0.9375
        },
        {
          "name": "G#4",
          "midi": 68,
          "time": 258.780924479167,
          "velocity": 0.23622047244094488,
          "duration": 0.9375
        },
        {
          "name": "C#5",
          "midi": 73,
          "time": 259.718424479167,
          "velocity": 0.36220472440944884,
          "duration": 0.3125
        },
        {
          "name": "E5",
          "midi": 76,
          "time": 260.030924479167,
          "velocity": 0.31496062992125984,
          "duration": 0.3125
        },
        {
          "name": "G#5",
          "midi": 80,
          "time": 260.343424479167,
          "velocity": 0.36220472440944884,
          "duration": 0.3125
        },
        {
          "name": "G#5",
          "midi": 80,
          "time": 260.655924479167,
          "velocity": 0.2755905511811024,
          "duration": 0.15625
        },
        {
          "name": "C#6",
          "midi": 85,
          "time": 260.655924479167,
          "velocity": 0.3464566929133858,
          "duration": 0.15625
        },
        {
          "name": "F#4",
          "midi": 66,
          "time": 260.655924479167,
          "velocity": 0.28346456692913385,
          "duration": 0.3125
        },
        {
          "name": "A4",
          "midi": 69,
          "time": 260.655924479167,
          "velocity": 0.29133858267716534,
          "duration": 0.3125
        },
        {
          "name": "C#5",
          "midi": 73,
          "time": 260.655924479167,
          "velocity": 0.31496062992125984,
          "duration": 0.3125
        },
        {
          "name": "E5",
          "midi": 76,
          "time": 260.655924479167,
          "velocity": 0.30708661417322836,
          "duration": 0.3125
        },
        {
          "name": "E5",
          "midi": 76,
          "time": 261.280924479167,
          "velocity": 0.3543307086614173,
          "duration": 0.15625
        },
        {
          "name": "C#6",
          "midi": 85,
          "time": 261.280924479167,
          "velocity": 0.33858267716535434,
          "duration": 0.15625
        },
        {
          "name": "C#5",
          "midi": 73,
          "time": 261.593424479167,
          "velocity": 0.30708661417322836,
          "duration": 0.3125
        },
        {
          "name": "E5",
          "midi": 76,
          "time": 261.593424479167,
          "velocity": 0.36220472440944884,
          "duration": 0.3125
        },
        {
          "name": "C#6",
          "midi": 85,
          "time": 261.593424479167,
          "velocity": 0.3543307086614173,
          "duration": 0.3125
        },
        {
          "name": "B3",
          "midi": 59,
          "time": 261.593424479167,
          "velocity": 0.2677165354330709,
          "duration": 0.3125
        },
        {
          "name": "D#4",
          "midi": 63,
          "time": 261.593424479167,
          "velocity": 0.2677165354330709,
          "duration": 0.3125
        },
        {
          "name": "F#4",
          "midi": 66,
          "time": 261.593424479167,
          "velocity": 0.2283464566929134,
          "duration": 0.3125
        },
        {
          "name": "A4",
          "midi": 69,
          "time": 261.593424479167,
          "velocity": 0.2440944881889764,
          "duration": 0.3125
        },
        {
          "name": "D#5",
          "midi": 75,
          "time": 261.905924479167,
          "velocity": 0.29133858267716534,
          "duration": 0.3125
        },
        {
          "name": "B5",
          "midi": 83,
          "time": 261.905924479167,
          "velocity": 0.33070866141732286,
          "duration": 0.3125
        },
        {
          "name": "C#5",
          "midi": 73,
          "time": 262.218424479167,
          "velocity": 0.33070866141732286,
          "duration": 0.3125
        },
        {
          "name": "A5",
          "midi": 81,
          "time": 262.218424479167,
          "velocity": 0.36220472440944884,
          "duration": 0.3125
        },
        {
          "name": "G#5",
          "midi": 80,
          "time": 262.530924479167,
          "velocity": 0.29133858267716534,
          "duration": 0.9375
        },
        {
          "name": "D#5",
          "midi": 75,
          "time": 262.530924479167,
          "velocity": 0.36220472440944884,
          "duration": 0.9375
        },
        {
          "name": "B5",
          "midi": 83,
          "time": 262.530924479167,
          "velocity": 0.3779527559055118,
          "duration": 0.9375
        },
        {
          "name": "B3",
          "midi": 59,
          "time": 262.530924479167,
          "velocity": 0.2125984251968504,
          "duration": 0.9375
        },
        {
          "name": "G#4",
          "midi": 68,
          "time": 262.530924479167,
          "velocity": 0.28346456692913385,
          "duration": 0.9375
        },
        {
          "name": "B4",
          "midi": 71,
          "time": 262.530924479167,
          "velocity": 0.3464566929133858,
          "duration": 0.9375
        },
        {
          "name": "D#4",
          "midi": 63,
          "time": 263.468424479167,
          "velocity": 0.33858267716535434,
          "duration": 0.15625
        },
        {
          "name": "G#4",
          "midi": 68,
          "time": 263.780924479167,
          "velocity": 0.3228346456692913,
          "duration": 0.15625
        },
        {
          "name": "B4",
          "midi": 71,
          "time": 264.093424479167,
          "velocity": 0.31496062992125984,
          "duration": 0.15625
        },
        {
          "name": "A#2",
          "midi": 46,
          "time": 264.405924479167,
          "velocity": 0.2755905511811024,
          "duration": 0.15625
        },
        {
          "name": "D#5",
          "midi": 75,
          "time": 264.405924479167,
          "velocity": 0.3700787401574803,
          "duration": 0.3125
        },
        {
          "name": "C#5",
          "midi": 73,
          "time": 265.030924479167,
          "velocity": 0.28346456692913385,
          "duration": 0.15625
        },
        {
          "name": "B4",
          "midi": 71,
          "time": 265.343424479167,
          "velocity": 0.30708661417322836,
          "duration": 0.15625
        },
        {
          "name": "D#3",
          "midi": 51,
          "time": 265.343424479167,
          "velocity": 0.2204724409448819,
          "duration": 0.15625
        },
        {
          "name": "A#4",
          "midi": 70,
          "time": 265.655924479167,
          "velocity": 0.31496062992125984,
          "duration": 0.15625
        },
        {
          "name": "B4",
          "midi": 71,
          "time": 265.968424479167,
          "velocity": 0.36220472440944884,
          "duration": 0.15625
        },
        {
          "name": "G#2",
          "midi": 44,
          "time": 266.280924479167,
          "velocity": 0.29133858267716534,
          "duration": 0.15625
        },
        {
          "name": "C#5",
          "midi": 73,
          "time": 266.280924479167,
          "velocity": 0.3464566929133858,
          "duration": 0.3125
        },
        {
          "name": "B4",
          "midi": 71,
          "time": 266.905924479167,
          "velocity": 0.29133858267716534,
          "duration": 0.15625
        },
        {
          "name": "A#4",
          "midi": 70,
          "time": 267.218424479167,
          "velocity": 0.30708661417322836,
          "duration": 0.15625
        },
        {
          "name": "F#2",
          "midi": 42,
          "time": 267.218424479167,
          "velocity": 0.29133858267716534,
          "duration": 0.15625
        },
        {
          "name": "G#4",
          "midi": 68,
          "time": 267.530924479167,
          "velocity": 0.31496062992125984,
          "duration": 0.15625
        },
        {
          "name": "G4",
          "midi": 67,
          "time": 267.843424479167,
          "velocity": 0.2992125984251969,
          "duration": 0.15625
        },
        {
          "name": "E2",
          "midi": 40,
          "time": 268.155924479167,
          "velocity": 0.2755905511811024,
          "duration": 0.15625
        },
        {
          "name": "G#4",
          "midi": 68,
          "time": 268.155924479167,
          "velocity": 0.2755905511811024,
          "duration": 0.3125
        },
        {
          "name": "G#4",
          "midi": 68,
          "time": 268.780924479167,
          "velocity": 0.33070866141732286,
          "duration": 0.15625
        },
        {
          "name": "G#4",
          "midi": 68,
          "time": 269.093424479167,
          "velocity": 0.30708661417322836,
          "duration": 0.15625
        },
        {
          "name": "D#2",
          "midi": 39,
          "time": 269.093424479167,
          "velocity": 0.25984251968503935,
          "duration": 0.15625
        },
        {
          "name": "F#4",
          "midi": 66,
          "time": 269.405924479167,
          "velocity": 0.3464566929133858,
          "duration": 0.15625
        },
        {
          "name": "C#4",
          "midi": 61,
          "time": 269.718424479167,
          "velocity": 0.3700787401574803,
          "duration": 0.15625
        },
        {
          "name": "G#2",
          "midi": 44,
          "time": 270.030924479167,
          "velocity": 0.29133858267716534,
          "duration": 0.15625
        },
        {
          "name": "D#4",
          "midi": 63,
          "time": 270.030924479167,
          "velocity": 0.3228346456692913,
          "duration": 0.3125
        },
        {
          "name": "D#4",
          "midi": 63,
          "time": 270.968424479167,
          "velocity": 0.2677165354330709,
          "duration": 0.15625
        },
        {
          "name": "C#4",
          "midi": 61,
          "time": 270.968424479167,
          "velocity": 0.25984251968503935,
          "duration": 0.15625
        },
        {
          "name": "G#4",
          "midi": 68,
          "time": 270.968424479167,
          "velocity": 0.33070866141732286,
          "duration": 0.15625
        },
        {
          "name": "D#4",
          "midi": 63,
          "time": 271.280924479167,
          "velocity": 0.2677165354330709,
          "duration": 0.15625
        },
        {
          "name": "G#4",
          "midi": 68,
          "time": 271.280924479167,
          "velocity": 0.2992125984251969,
          "duration": 0.15625
        },
        {
          "name": "C#4",
          "midi": 61,
          "time": 271.280924479167,
          "velocity": 0.2755905511811024,
          "duration": 0.15625
        },
        {
          "name": "D#4",
          "midi": 63,
          "time": 271.593424479167,
          "velocity": 0.30708661417322836,
          "duration": 0.15625
        },
        {
          "name": "G#4",
          "midi": 68,
          "time": 271.593424479167,
          "velocity": 0.3228346456692913,
          "duration": 0.15625
        },
        {
          "name": "G#2",
          "midi": 44,
          "time": 271.593424479167,
          "velocity": 0.25984251968503935,
          "duration": 0.3125
        },
        {
          "name": "C4",
          "midi": 60,
          "time": 271.593424479167,
          "velocity": 0.2440944881889764,
          "duration": 0.3125
        },
        {
          "name": "C#4",
          "midi": 61,
          "time": 271.905924479167,
          "velocity": 0.33070866141732286,
          "duration": 0.15625
        },
        {
          "name": "E4",
          "midi": 64,
          "time": 271.905924479167,
          "velocity": 0.2755905511811024,
          "duration": 0.15625
        },
        {
          "name": "G#4",
          "midi": 68,
          "time": 271.905924479167,
          "velocity": 0.36220472440944884,
          "duration": 0.15625
        },
        {
          "name": "F#2",
          "midi": 42,
          "time": 271.905924479167,
          "velocity": 0.3228346456692913,
          "duration": 0.3125
        },
        {
          "name": "A3",
          "midi": 57,
          "time": 271.905924479167,
          "velocity": 0.31496062992125984,
          "duration": 0.3125
        },
        {
          "name": "G#4",
          "midi": 68,
          "time": 272.530924479167,
          "velocity": 0.36220472440944884,
          "duration": 0.15625
        },
        {
          "name": "C4",
          "midi": 60,
          "time": 272.843424479167,
          "velocity": 0.29133858267716534,
          "duration": 0.15625
        },
        {
          "name": "D#4",
          "midi": 63,
          "time": 272.843424479167,
          "velocity": 0.33858267716535434,
          "duration": 0.15625
        },
        {
          "name": "F#4",
          "midi": 66,
          "time": 272.843424479167,
          "velocity": 0.2992125984251969,
          "duration": 0.15625
        },
        {
          "name": "G#2",
          "midi": 44,
          "time": 272.843424479167,
          "velocity": 0.28346456692913385,
          "duration": 0.3125
        },
        {
          "name": "G#3",
          "midi": 56,
          "time": 272.843424479167,
          "velocity": 0.25196850393700787,
          "duration": 0.3125
        },
        {
          "name": "E4",
          "midi": 64,
          "time": 273.155924479167,
          "velocity": 0.3543307086614173,
          "duration": 0.15625
        },
        {
          "name": "D#4",
          "midi": 63,
          "time": 273.468424479167,
          "velocity": 0.2992125984251969,
          "duration": 0.15625
        },
        {
          "name": "E4",
          "midi": 64,
          "time": 273.780924479167,
          "velocity": 0.33070866141732286,
          "duration": 0.9375
        },
        {
          "name": "C#3",
          "midi": 49,
          "time": 273.780924479167,
          "velocity": 0.1968503937007874,
          "duration": 0.9375
        },
        {
          "name": "G#3",
          "midi": 56,
          "time": 273.780924479167,
          "velocity": 0.30708661417322836,
          "duration": 0.9375
        },
        {
          "name": "B3",
          "midi": 59,
          "time": 273.780924479167,
          "velocity": 0.31496062992125984,
          "duration": 0.9375
        },
        {
          "name": "C#4",
          "midi": 61,
          "time": 274.718424479167,
          "velocity": 0.3464566929133858,
          "duration": 0.15625
        },
        {
          "name": "E4",
          "midi": 64,
          "time": 275.030924479167,
          "velocity": 0.3464566929133858,
          "duration": 0.15625
        },
        {
          "name": "G#4",
          "midi": 68,
          "time": 275.343424479167,
          "velocity": 0.3779527559055118,
          "duration": 0.15625
        },
        {
          "name": "C#4",
          "midi": 61,
          "time": 275.655924479167,
          "velocity": 0.3543307086614173,
          "duration": 0.15625
        },
        {
          "name": "E4",
          "midi": 64,
          "time": 275.655924479167,
          "velocity": 0.33070866141732286,
          "duration": 0.15625
        },
        {
          "name": "C#5",
          "midi": 73,
          "time": 275.655924479167,
          "velocity": 0.36220472440944884,
          "duration": 0.15625
        },
        {
          "name": "F#2",
          "midi": 42,
          "time": 275.655924479167,
          "velocity": 0.2283464566929134,
          "duration": 0.3125
        },
        {
          "name": "F#3",
          "midi": 54,
          "time": 275.655924479167,
          "velocity": 0.2755905511811024,
          "duration": 0.3125
        },
        {
          "name": "E4",
          "midi": 64,
          "time": 276.280924479167,
          "velocity": 0.33070866141732286,
          "duration": 0.15625
        },
        {
          "name": "C#5",
          "midi": 73,
          "time": 276.280924479167,
          "velocity": 0.3464566929133858,
          "duration": 0.15625
        },
        {
          "name": "E4",
          "midi": 64,
          "time": 276.593424479167,
          "velocity": 0.3464566929133858,
          "duration": 0.3125
        },
        {
          "name": "C#5",
          "midi": 73,
          "time": 276.593424479167,
          "velocity": 0.3779527559055118,
          "duration": 0.3125
        },
        {
          "name": "B2",
          "midi": 47,
          "time": 276.593424479167,
          "velocity": 0.25984251968503935,
          "duration": 0.3125
        },
        {
          "name": "F#3",
          "midi": 54,
          "time": 276.593424479167,
          "velocity": 0.30708661417322836,
          "duration": 0.3125
        },
        {
          "name": "B3",
          "midi": 59,
          "time": 276.593424479167,
          "velocity": 0.28346456692913385,
          "duration": 0.3125
        },
        {
          "name": "D#4",
          "midi": 63,
          "time": 276.905924479167,
          "velocity": 0.2992125984251969,
          "duration": 0.15625
        },
        {
          "name": "B4",
          "midi": 71,
          "time": 276.905924479167,
          "velocity": 0.3464566929133858,
          "duration": 0.15625
        },
        {
          "name": "C#4",
          "midi": 61,
          "time": 277.218424479167,
          "velocity": 0.3937007874015748,
          "duration": 0.15625
        },
        {
          "name": "A4",
          "midi": 69,
          "time": 277.218424479167,
          "velocity": 0.33858267716535434,
          "duration": 0.15625
        },
        {
          "name": "D#4",
          "midi": 63,
          "time": 277.530924479167,
          "velocity": 0.29133858267716534,
          "duration": 0.9375
        },
        {
          "name": "G#4",
          "midi": 68,
          "time": 277.530924479167,
          "velocity": 0.33070866141732286,
          "duration": 0.9375
        },
        {
          "name": "B4",
          "midi": 71,
          "time": 277.530924479167,
          "velocity": 0.3543307086614173,
          "duration": 0.9375
        },
        {
          "name": "E2",
          "midi": 40,
          "time": 277.530924479167,
          "velocity": 0.2992125984251969,
          "duration": 0.9375
        },
        {
          "name": "D#5",
          "midi": 75,
          "time": 278.468424479167,
          "velocity": 0.1968503937007874,
          "duration": 0.15625
        },
        {
          "name": "G#5",
          "midi": 80,
          "time": 278.780924479167,
          "velocity": 0.1968503937007874,
          "duration": 0.15625
        },
        {
          "name": "B5",
          "midi": 83,
          "time": 279.093424479167,
          "velocity": 0.2125984251968504,
          "duration": 0.15625
        },
        {
          "name": "D#6",
          "midi": 87,
          "time": 279.405924479167,
          "velocity": 0.2125984251968504,
          "duration": 0.3125
        },
        {
          "name": "G#4",
          "midi": 68,
          "time": 279.405924479167,
          "velocity": 0.11023622047244094,
          "duration": 0.3125
        },
        {
          "name": "A#4",
          "midi": 70,
          "time": 279.405924479167,
          "velocity": 0.14960629921259844,
          "duration": 0.3125
        },
        {
          "name": "C#5",
          "midi": 73,
          "time": 279.405924479167,
          "velocity": 0.07874015748031496,
          "duration": 0.3125
        },
        {
          "name": "E5",
          "midi": 76,
          "time": 279.405924479167,
          "velocity": 0.14173228346456693,
          "duration": 0.3125
        },
        {
          "name": "C#6",
          "midi": 85,
          "time": 280.030924479167,
          "velocity": 0.25984251968503935,
          "duration": 0.15625
        },
        {
          "name": "B5",
          "midi": 83,
          "time": 280.343424479167,
          "velocity": 0.2440944881889764,
          "duration": 0.15625
        },
        {
          "name": "G4",
          "midi": 67,
          "time": 280.343424479167,
          "velocity": 0.18110236220472442,
          "duration": 0.3125
        },
        {
          "name": "A#4",
          "midi": 70,
          "time": 280.343424479167,
          "velocity": 0.11023622047244094,
          "duration": 0.3125
        },
        {
          "name": "C#5",
          "midi": 73,
          "time": 280.343424479167,
          "velocity": 0.15748031496062992,
          "duration": 0.3125
        },
        {
          "name": "D#5",
          "midi": 75,
          "time": 280.343424479167,
          "velocity": 0.10236220472440945,
          "duration": 0.3125
        },
        {
          "name": "G5",
          "midi": 79,
          "time": 280.343424479167,
          "velocity": 0.12598425196850394,
          "duration": 0.3125
        },
        {
          "name": "A#5",
          "midi": 82,
          "time": 280.655924479167,
          "velocity": 0.1968503937007874,
          "duration": 0.15625
        },
        {
          "name": "B5",
          "midi": 83,
          "time": 280.968424479167,
          "velocity": 0.2125984251968504,
          "duration": 0.15625
        },
        {
          "name": "C#6",
          "midi": 85,
          "time": 281.280924479167,
          "velocity": 0.1968503937007874,
          "duration": 0.3125
        },
        {
          "name": "G#4",
          "midi": 68,
          "time": 281.280924479167,
          "velocity": 0.16535433070866143,
          "duration": 0.3125
        },
        {
          "name": "B4",
          "midi": 71,
          "time": 281.280924479167,
          "velocity": 0.14960629921259844,
          "duration": 0.3125
        },
        {
          "name": "D#5",
          "midi": 75,
          "time": 281.280924479167,
          "velocity": 0.1732283464566929,
          "duration": 0.3125
        },
        {
          "name": "F#5",
          "midi": 78,
          "time": 281.280924479167,
          "velocity": 0.13385826771653545,
          "duration": 0.3125
        },
        {
          "name": "B5",
          "midi": 83,
          "time": 281.905924479167,
          "velocity": 0.23622047244094488,
          "duration": 0.15625
        },
        {
          "name": "A#5",
          "midi": 82,
          "time": 282.218424479167,
          "velocity": 0.25984251968503935,
          "duration": 0.15625
        },
        {
          "name": "F#4",
          "midi": 66,
          "time": 282.218424479167,
          "velocity": 0.07086614173228346,
          "duration": 0.3125
        },
        {
          "name": "B4",
          "midi": 71,
          "time": 282.218424479167,
          "velocity": 0.16535433070866143,
          "duration": 0.3125
        },
        {
          "name": "D#5",
          "midi": 75,
          "time": 282.218424479167,
          "velocity": 0.12598425196850394,
          "duration": 0.3125
        },
        {
          "name": "F#5",
          "midi": 78,
          "time": 282.218424479167,
          "velocity": 0.14173228346456693,
          "duration": 0.3125
        },
        {
          "name": "G#5",
          "midi": 80,
          "time": 282.530924479167,
          "velocity": 0.25196850393700787,
          "duration": 0.15625
        },
        {
          "name": "G5",
          "midi": 79,
          "time": 282.843424479167,
          "velocity": 0.2204724409448819,
          "duration": 0.15625
        },
        {
          "name": "G#5",
          "midi": 80,
          "time": 283.155924479167,
          "velocity": 0.2283464566929134,
          "duration": 0.15625
        },
        {
          "name": "E4",
          "midi": 64,
          "time": 283.155924479167,
          "velocity": 0.12598425196850394,
          "duration": 0.3125
        },
        {
          "name": "G#4",
          "midi": 68,
          "time": 283.155924479167,
          "velocity": 0.09448818897637795,
          "duration": 0.3125
        },
        {
          "name": "B4",
          "midi": 71,
          "time": 283.155924479167,
          "velocity": 0.1732283464566929,
          "duration": 0.3125
        },
        {
          "name": "D#5",
          "midi": 75,
          "time": 283.155924479167,
          "velocity": 0.13385826771653545,
          "duration": 0.3125
        },
        {
          "name": "F#5",
          "midi": 78,
          "time": 283.468424479167,
          "velocity": 0.1968503937007874,
          "duration": 0.15625
        },
        {
          "name": "E5",
          "midi": 76,
          "time": 283.780924479167,
          "velocity": 0.2440944881889764,
          "duration": 0.15625
        },
        {
          "name": "D#5",
          "midi": 75,
          "time": 284.093424479167,
          "velocity": 0.2283464566929134,
          "duration": 0.15625
        },
        {
          "name": "D#4",
          "midi": 63,
          "time": 284.093424479167,
          "velocity": 0.09448818897637795,
          "duration": 0.3125
        },
        {
          "name": "G4",
          "midi": 67,
          "time": 284.093424479167,
          "velocity": 0.14173228346456693,
          "duration": 0.3125
        },
        {
          "name": "A#4",
          "midi": 70,
          "time": 284.093424479167,
          "velocity": 0.12598425196850394,
          "duration": 0.3125
        },
        {
          "name": "C#5",
          "midi": 73,
          "time": 284.093424479167,
          "velocity": 0.11811023622047244,
          "duration": 0.3125
        },
        {
          "name": "F5",
          "midi": 77,
          "time": 284.405924479167,
          "velocity": 0.25984251968503935,
          "duration": 0.15625
        },
        {
          "name": "G5",
          "midi": 79,
          "time": 284.718424479167,
          "velocity": 0.25984251968503935,
          "duration": 0.15625
        },
        {
          "name": "A#4",
          "midi": 70,
          "time": 285.030924479167,
          "velocity": 0.1968503937007874,
          "duration": 3.125
        },
        {
          "name": "C5",
          "midi": 72,
          "time": 285.030924479167,
          "velocity": 0.14960629921259844,
          "duration": 3.125
        },
        {
          "name": "D#5",
          "midi": 75,
          "time": 285.030924479167,
          "velocity": 0.1732283464566929,
          "duration": 3.125
        },
        {
          "name": "G#5",
          "midi": 80,
          "time": 285.030924479167,
          "velocity": 0.2125984251968504,
          "duration": 3.125
        },
        {
          "name": "G#2",
          "midi": 44,
          "time": 285.030924479167,
          "velocity": 0.2204724409448819,
          "duration": 3.125
        },
        {
          "name": "G#3",
          "midi": 56,
          "time": 285.030924479167,
          "velocity": 0.18110236220472442,
          "duration": 3.125
        },
        {
          "name": "D#5",
          "midi": 75,
          "time": 288.155924479167,
          "velocity": 0.31496062992125984,
          "duration": 0.625
        },
        {
          "name": "F#2",
          "midi": 42,
          "time": 288.780924479167,
          "velocity": 0.25984251968503935,
          "duration": 0.3125
        },
        {
          "name": "E4",
          "midi": 64,
          "time": 288.780924479167,
          "velocity": 0.23622047244094488,
          "duration": 1.25
        },
        {
          "name": "G#4",
          "midi": 68,
          "time": 288.780924479167,
          "velocity": 0.1732283464566929,
          "duration": 1.25
        },
        {
          "name": "B4",
          "midi": 71,
          "time": 288.780924479167,
          "velocity": 0.2125984251968504,
          "duration": 1.25
        },
        {
          "name": "E5",
          "midi": 76,
          "time": 288.780924479167,
          "velocity": 0.30708661417322836,
          "duration": 1.25
        },
        {
          "name": "C#3",
          "midi": 49,
          "time": 289.093424479167,
          "velocity": 0.2440944881889764,
          "duration": 0.3125
        },
        {
          "name": "F#3",
          "midi": 54,
          "time": 289.405924479167,
          "velocity": 0.2440944881889764,
          "duration": 0.3125
        },
        {
          "name": "G#3",
          "midi": 56,
          "time": 289.718424479167,
          "velocity": 0.25196850393700787,
          "duration": 0.3125
        },
        {
          "name": "E4",
          "midi": 64,
          "time": 290.030924479167,
          "velocity": 0.2992125984251969,
          "duration": 0.625
        },
        {
          "name": "D#5",
          "midi": 75,
          "time": 290.030924479167,
          "velocity": 0.30708661417322836,
          "duration": 0.625
        },
        {
          "name": "B3",
          "midi": 59,
          "time": 290.030924479167,
          "velocity": 0.2440944881889764,
          "duration": 0.625
        },
        {
          "name": "E4",
          "midi": 64,
          "time": 290.655924479167,
          "velocity": 0.2755905511811024,
          "duration": 0.625
        },
        {
          "name": "C#5",
          "midi": 73,
          "time": 290.655924479167,
          "velocity": 0.28346456692913385,
          "duration": 0.625
        },
        {
          "name": "F#2",
          "midi": 42,
          "time": 290.655924479167,
          "velocity": 0.25196850393700787,
          "duration": 1.875
        },
        {
          "name": "D#4",
          "midi": 63,
          "time": 291.280924479167,
          "velocity": 0.23622047244094488,
          "duration": 0.625
        },
        {
          "name": "B4",
          "midi": 71,
          "time": 291.280924479167,
          "velocity": 0.2755905511811024,
          "duration": 0.625
        },
        {
          "name": "C#4",
          "midi": 61,
          "time": 291.905924479167,
          "velocity": 0.2204724409448819,
          "duration": 0.625
        },
        {
          "name": "A#4",
          "midi": 70,
          "time": 291.905924479167,
          "velocity": 0.3464566929133858,
          "duration": 0.625
        },
        {
          "name": "B2",
          "midi": 47,
          "time": 292.530924479167,
          "velocity": 0.2125984251968504,
          "duration": 0.3125
        },
        {
          "name": "D#4",
          "midi": 63,
          "time": 292.530924479167,
          "velocity": 0.2125984251968504,
          "duration": 0.625
        },
        {
          "name": "B4",
          "midi": 71,
          "time": 292.530924479167,
          "velocity": 0.33070866141732286,
          "duration": 0.625
        },
        {
          "name": "F#3",
          "midi": 54,
          "time": 292.843424479167,
          "velocity": 0.2125984251968504,
          "duration": 0.3125
        },
        {
          "name": "B3",
          "midi": 59,
          "time": 293.155924479167,
          "velocity": 0.1889763779527559,
          "duration": 0.3125
        },
        {
          "name": "E4",
          "midi": 64,
          "time": 293.155924479167,
          "velocity": 0.25196850393700787,
          "duration": 0.625
        },
        {
          "name": "C#5",
          "midi": 73,
          "time": 293.155924479167,
          "velocity": 0.2992125984251969,
          "duration": 0.625
        },
        {
          "name": "C#4",
          "midi": 61,
          "time": 293.468424479167,
          "velocity": 0.18110236220472442,
          "duration": 0.3125
        },
        {
          "name": "D#4",
          "midi": 63,
          "time": 293.780924479167,
          "velocity": 0.15748031496062992,
          "duration": 0.625
        },
        {
          "name": "F#4",
          "midi": 66,
          "time": 293.780924479167,
          "velocity": 0.2283464566929134,
          "duration": 0.625
        },
        {
          "name": "D#5",
          "midi": 75,
          "time": 293.780924479167,
          "velocity": 0.2755905511811024,
          "duration": 0.625
        },
        {
          "name": "B2",
          "midi": 47,
          "time": 294.405924479167,
          "velocity": 0.2755905511811024,
          "duration": 0.3125
        },
        {
          "name": "D#4",
          "midi": 63,
          "time": 294.405924479167,
          "velocity": 0.2755905511811024,
          "duration": 1.25
        },
        {
          "name": "F#4",
          "midi": 66,
          "time": 294.405924479167,
          "velocity": 0.2992125984251969,
          "duration": 1.25
        },
        {
          "name": "F#3",
          "midi": 54,
          "time": 294.718424479167,
          "velocity": 0.2204724409448819,
          "duration": 0.3125
        },
        {
          "name": "B3",
          "midi": 59,
          "time": 295.030924479167,
          "velocity": 0.2125984251968504,
          "duration": 0.3125
        },
        {
          "name": "C#4",
          "midi": 61,
          "time": 295.343424479167,
          "velocity": 0.23622047244094488,
          "duration": 0.3125
        },
        {
          "name": "B3",
          "midi": 59,
          "time": 295.655924479167,
          "velocity": 0.23622047244094488,
          "duration": 0.3125
        },
        {
          "name": "C#4",
          "midi": 61,
          "time": 295.655924479167,
          "velocity": 0.2677165354330709,
          "duration": 0.625
        },
        {
          "name": "F#4",
          "midi": 66,
          "time": 295.655924479167,
          "velocity": 0.2440944881889764,
          "duration": 0.625
        },
        {
          "name": "F#3",
          "midi": 54,
          "time": 295.968424479167,
          "velocity": 0.2677165354330709,
          "duration": 0.3125
        },
        {
          "name": "F#2",
          "midi": 42,
          "time": 296.280924479167,
          "velocity": 0.2204724409448819,
          "duration": 0.3125
        },
        {
          "name": "B4",
          "midi": 71,
          "time": 296.280924479167,
          "velocity": 0.2204724409448819,
          "duration": 1.25
        },
        {
          "name": "E5",
          "midi": 76,
          "time": 296.280924479167,
          "velocity": 0.2992125984251969,
          "duration": 1.25
        },
        {
          "name": "C#3",
          "midi": 49,
          "time": 296.593424479167,
          "velocity": 0.2677165354330709,
          "duration": 0.3125
        },
        {
          "name": "F#3",
          "midi": 54,
          "time": 296.905924479167,
          "velocity": 0.2204724409448819,
          "duration": 0.3125
        },
        {
          "name": "B3",
          "midi": 59,
          "time": 297.218424479167,
          "velocity": 0.2204724409448819,
          "duration": 0.9375
        },
        {
          "name": "C#4",
          "midi": 61,
          "time": 297.218424479167,
          "velocity": 0.25196850393700787,
          "duration": 0.9375
        },
        {
          "name": "E4",
          "midi": 64,
          "time": 297.218424479167,
          "velocity": 0.2283464566929134,
          "duration": 0.9375
        },
        {
          "name": "G#4",
          "midi": 68,
          "time": 297.530924479167,
          "velocity": 0.29133858267716534,
          "duration": 0.625
        },
        {
          "name": "D#5",
          "midi": 75,
          "time": 297.530924479167,
          "velocity": 0.28346456692913385,
          "duration": 0.625
        },
        {
          "name": "E4",
          "midi": 64,
          "time": 298.155924479167,
          "velocity": 0.31496062992125984,
          "duration": 0.625
        },
        {
          "name": "C#5",
          "midi": 73,
          "time": 298.155924479167,
          "velocity": 0.33070866141732286,
          "duration": 0.625
        },
        {
          "name": "F#2",
          "midi": 42,
          "time": 298.155924479167,
          "velocity": 0.2992125984251969,
          "duration": 1.875
        },
        {
          "name": "D#4",
          "midi": 63,
          "time": 298.780924479167,
          "velocity": 0.25196850393700787,
          "duration": 0.625
        },
        {
          "name": "B4",
          "midi": 71,
          "time": 298.780924479167,
          "velocity": 0.2755905511811024,
          "duration": 0.625
        },
        {
          "name": "E4",
          "midi": 64,
          "time": 299.405924479167,
          "velocity": 0.3228346456692913,
          "duration": 0.625
        },
        {
          "name": "C#5",
          "midi": 73,
          "time": 299.405924479167,
          "velocity": 0.25984251968503935,
          "duration": 0.625
        },
        {
          "name": "B2",
          "midi": 47,
          "time": 300.030924479167,
          "velocity": 0.2755905511811024,
          "duration": 0.3125
        },
        {
          "name": "F#4",
          "midi": 66,
          "time": 300.030924479167,
          "velocity": 0.2992125984251969,
          "duration": 3.75
        },
        {
          "name": "D#5",
          "midi": 75,
          "time": 300.030924479167,
          "velocity": 0.3464566929133858,
          "duration": 3.75
        },
        {
          "name": "F#3",
          "midi": 54,
          "time": 300.343424479167,
          "velocity": 0.2204724409448819,
          "duration": 0.3125
        },
        {
          "name": "B3",
          "midi": 59,
          "time": 300.655924479167,
          "velocity": 0.2755905511811024,
          "duration": 0.3125
        },
        {
          "name": "C#4",
          "midi": 61,
          "time": 300.968424479167,
          "velocity": 0.2755905511811024,
          "duration": 0.3125
        },
        {
          "name": "B3",
          "midi": 59,
          "time": 301.280924479167,
          "velocity": 0.2440944881889764,
          "duration": 0.3125
        },
        {
          "name": "F#3",
          "midi": 54,
          "time": 301.593424479167,
          "velocity": 0.25984251968503935,
          "duration": 0.3125
        },
        {
          "name": "B2",
          "midi": 47,
          "time": 301.905924479167,
          "velocity": 0.2204724409448819,
          "duration": 0.3125
        },
        {
          "name": "F#3",
          "midi": 54,
          "time": 302.218424479167,
          "velocity": 0.2440944881889764,
          "duration": 0.3125
        },
        {
          "name": "B3",
          "midi": 59,
          "time": 302.530924479167,
          "velocity": 0.2204724409448819,
          "duration": 0.3125
        },
        {
          "name": "C#4",
          "midi": 61,
          "time": 302.843424479167,
          "velocity": 0.2755905511811024,
          "duration": 0.3125
        },
        {
          "name": "B3",
          "midi": 59,
          "time": 303.155924479167,
          "velocity": 0.29133858267716534,
          "duration": 0.3125
        },
        {
          "name": "F#3",
          "midi": 54,
          "time": 303.468424479167,
          "velocity": 0.1968503937007874,
          "duration": 0.3125
        },
        {
          "name": "D#2",
          "midi": 39,
          "time": 303.780924479167,
          "velocity": 0.28346456692913385,
          "duration": 0.3125
        },
        {
          "name": "D#5",
          "midi": 75,
          "time": 303.780924479167,
          "velocity": 0.25984251968503935,
          "duration": 0.625
        },
        {
          "name": "D#4",
          "midi": 63,
          "time": 304.093424479167,
          "velocity": 0.2755905511811024,
          "duration": 0.625
        },
        {
          "name": "F#4",
          "midi": 66,
          "time": 304.093424479167,
          "velocity": 0.29133858267716534,
          "duration": 0.625
        },
        {
          "name": "D5",
          "midi": 74,
          "time": 304.405924479167,
          "velocity": 0.2992125984251969,
          "duration": 0.625
        },
        {
          "name": "D4",
          "midi": 62,
          "time": 304.718424479167,
          "velocity": 0.2283464566929134,
          "duration": 0.625
        },
        {
          "name": "F4",
          "midi": 65,
          "time": 304.718424479167,
          "velocity": 0.1968503937007874,
          "duration": 0.625
        },
        {
          "name": "D#5",
          "midi": 75,
          "time": 305.030924479167,
          "velocity": 0.2677165354330709,
          "duration": 0.625
        },
        {
          "name": "D#4",
          "midi": 63,
          "time": 305.343424479167,
          "velocity": 0.2204724409448819,
          "duration": 0.3125
        },
        {
          "name": "F#4",
          "midi": 66,
          "time": 305.343424479167,
          "velocity": 0.2440944881889764,
          "duration": 0.3125
        },
        {
          "name": "D#2",
          "midi": 39,
          "time": 305.655924479167,
          "velocity": 0.2992125984251969,
          "duration": 0.3125
        },
        {
          "name": "F#5",
          "midi": 78,
          "time": 305.655924479167,
          "velocity": 0.29133858267716534,
          "duration": 0.625
        },
        {
          "name": "F#4",
          "midi": 66,
          "time": 305.968424479167,
          "velocity": 0.2440944881889764,
          "duration": 0.625
        },
        {
          "name": "A#4",
          "midi": 70,
          "time": 305.968424479167,
          "velocity": 0.2125984251968504,
          "duration": 0.625
        },
        {
          "name": "F5",
          "midi": 77,
          "time": 306.280924479167,
          "velocity": 0.29133858267716534,
          "duration": 0.625
        },
        {
          "name": "F4",
          "midi": 65,
          "time": 306.593424479167,
          "velocity": 0.18110236220472442,
          "duration": 0.625
        },
        {
          "name": "G#4",
          "midi": 68,
          "time": 306.593424479167,
          "velocity": 0.29133858267716534,
          "duration": 0.625
        },
        {
          "name": "D#5",
          "midi": 75,
          "time": 306.905924479167,
          "velocity": 0.2992125984251969,
          "duration": 0.625
        },
        {
          "name": "D#4",
          "midi": 63,
          "time": 307.218424479167,
          "velocity": 0.2440944881889764,
          "duration": 0.3125
        },
        {
          "name": "F#4",
          "midi": 66,
          "time": 307.218424479167,
          "velocity": 0.2440944881889764,
          "duration": 0.3125
        },
        {
          "name": "A#2",
          "midi": 46,
          "time": 307.530924479167,
          "velocity": 0.25984251968503935,
          "duration": 0.3125
        },
        {
          "name": "D5",
          "midi": 74,
          "time": 307.530924479167,
          "velocity": 0.2992125984251969,
          "duration": 1.25
        },
        {
          "name": "A#3",
          "midi": 58,
          "time": 307.843424479167,
          "velocity": 0.33070866141732286,
          "duration": 0.3125
        },
        {
          "name": "A3",
          "midi": 57,
          "time": 308.155924479167,
          "velocity": 0.25196850393700787,
          "duration": 0.3125
        },
        {
          "name": "A#3",
          "midi": 58,
          "time": 308.468424479167,
          "velocity": 0.2440944881889764,
          "duration": 0.3125
        },
        {
          "name": "B3",
          "midi": 59,
          "time": 308.780924479167,
          "velocity": 0.30708661417322836,
          "duration": 0.3125
        },
        {
          "name": "F5",
          "midi": 77,
          "time": 308.780924479167,
          "velocity": 0.23622047244094488,
          "duration": 0.625
        },
        {
          "name": "A#3",
          "midi": 58,
          "time": 309.093424479167,
          "velocity": 0.30708661417322836,
          "duration": 0.3125
        },
        {
          "name": "A#2",
          "midi": 46,
          "time": 309.405924479167,
          "velocity": 0.2992125984251969,
          "duration": 0.3125
        },
        {
          "name": "A#4",
          "midi": 70,
          "time": 309.405924479167,
          "velocity": 0.29133858267716534,
          "duration": 1.25
        },
        {
          "name": "A#3",
          "midi": 58,
          "time": 309.718424479167,
          "velocity": 0.25984251968503935,
          "duration": 0.3125
        },
        {
          "name": "B3",
          "midi": 59,
          "time": 310.030924479167,
          "velocity": 0.25196850393700787,
          "duration": 0.3125
        },
        {
          "name": "A#3",
          "midi": 58,
          "time": 310.343424479167,
          "velocity": 0.2440944881889764,
          "duration": 0.3125
        },
        {
          "name": "G#3",
          "midi": 56,
          "time": 310.655924479167,
          "velocity": 0.2755905511811024,
          "duration": 0.3125
        },
        {
          "name": "A#4",
          "midi": 70,
          "time": 310.655924479167,
          "velocity": 0.33858267716535434,
          "duration": 0.625
        },
        {
          "name": "F3",
          "midi": 53,
          "time": 310.968424479167,
          "velocity": 0.2755905511811024,
          "duration": 0.3125
        },
        {
          "name": "D#2",
          "midi": 39,
          "time": 311.280924479167,
          "velocity": 0.2677165354330709,
          "duration": 0.3125
        },
        {
          "name": "F#5",
          "midi": 78,
          "time": 311.280924479167,
          "velocity": 0.3228346456692913,
          "duration": 1.25
        },
        {
          "name": "D#4",
          "midi": 63,
          "time": 311.593424479167,
          "velocity": 0.2047244094488189,
          "duration": 0.625
        },
        {
          "name": "F#4",
          "midi": 66,
          "time": 311.593424479167,
          "velocity": 0.2047244094488189,
          "duration": 0.625
        },
        {
          "name": "A#3",
          "midi": 58,
          "time": 312.218424479167,
          "velocity": 0.25196850393700787,
          "duration": 0.625
        },
        {
          "name": "D#4",
          "midi": 63,
          "time": 312.218424479167,
          "velocity": 0.2440944881889764,
          "duration": 0.625
        },
        {
          "name": "F#5",
          "midi": 78,
          "time": 312.530924479167,
          "velocity": 0.29133858267716534,
          "duration": 0.625
        },
        {
          "name": "D#4",
          "midi": 63,
          "time": 312.843424479167,
          "velocity": 0.2440944881889764,
          "duration": 0.3125
        },
        {
          "name": "F#4",
          "midi": 66,
          "time": 312.843424479167,
          "velocity": 0.25984251968503935,
          "duration": 0.3125
        },
        {
          "name": "D#2",
          "midi": 39,
          "time": 313.155924479167,
          "velocity": 0.28346456692913385,
          "duration": 0.3125
        },
        {
          "name": "F#5",
          "midi": 78,
          "time": 313.155924479167,
          "velocity": 0.25984251968503935,
          "duration": 0.625
        },
        {
          "name": "A#3",
          "midi": 58,
          "time": 313.468424479167,
          "velocity": 0.2283464566929134,
          "duration": 0.625
        },
        {
          "name": "D#4",
          "midi": 63,
          "time": 313.468424479167,
          "velocity": 0.2440944881889764,
          "duration": 0.625
        },
        {
          "name": "F5",
          "midi": 77,
          "time": 313.780924479167,
          "velocity": 0.31496062992125984,
          "duration": 0.625
        },
        {
          "name": "F4",
          "midi": 65,
          "time": 314.093424479167,
          "velocity": 0.1889763779527559,
          "duration": 0.625
        },
        {
          "name": "G#4",
          "midi": 68,
          "time": 314.093424479167,
          "velocity": 0.25984251968503935,
          "duration": 0.625
        },
        {
          "name": "D#5",
          "midi": 75,
          "time": 314.405924479167,
          "velocity": 0.2677165354330709,
          "duration": 0.625
        },
        {
          "name": "A#3",
          "midi": 58,
          "time": 314.718424479167,
          "velocity": 0.2755905511811024,
          "duration": 0.3125
        },
        {
          "name": "D#4",
          "midi": 63,
          "time": 314.718424479167,
          "velocity": 0.2283464566929134,
          "duration": 0.3125
        },
        {
          "name": "A#2",
          "midi": 46,
          "time": 315.030924479167,
          "velocity": 0.3228346456692913,
          "duration": 0.3125
        },
        {
          "name": "F5",
          "midi": 77,
          "time": 315.030924479167,
          "velocity": 0.33070866141732286,
          "duration": 1.875
        },
        {
          "name": "A#3",
          "midi": 58,
          "time": 315.343424479167,
          "velocity": 0.31496062992125984,
          "duration": 0.3125
        },
        {
          "name": "B3",
          "midi": 59,
          "time": 315.655924479167,
          "velocity": 0.2992125984251969,
          "duration": 0.3125
        },
        {
          "name": "C#4",
          "midi": 61,
          "time": 315.968424479167,
          "velocity": 0.2204724409448819,
          "duration": 0.3125
        },
        {
          "name": "B3",
          "midi": 59,
          "time": 316.280924479167,
          "velocity": 0.28346456692913385,
          "duration": 0.3125
        },
        {
          "name": "A#3",
          "midi": 58,
          "time": 316.593424479167,
          "velocity": 0.3228346456692913,
          "duration": 0.3125
        },
        {
          "name": "F#5",
          "midi": 78,
          "time": 316.905924479167,
          "velocity": 0.2677165354330709,
          "duration": 0.15625
        },
        {
          "name": "A#2",
          "midi": 46,
          "time": 316.905924479167,
          "velocity": 0.25196850393700787,
          "duration": 1.875
        },
        {
          "name": "F5",
          "midi": 77,
          "time": 317.062174479167,
          "velocity": 0.31496062992125984,
          "duration": 0.15625
        },
        {
          "name": "E5",
          "midi": 76,
          "time": 317.218424479167,
          "velocity": 0.2440944881889764,
          "duration": 0.15625
        },
        {
          "name": "D#5",
          "midi": 75,
          "time": 317.374674479167,
          "velocity": 0.2283464566929134,
          "duration": 0.15625
        },
        {
          "name": "D5",
          "midi": 74,
          "time": 317.530924479167,
          "velocity": 0.25196850393700787,
          "duration": 0.15625
        },
        {
          "name": "C#5",
          "midi": 73,
          "time": 317.687174479167,
          "velocity": 0.28346456692913385,
          "duration": 0.15625
        },
        {
          "name": "C5",
          "midi": 72,
          "time": 317.843424479167,
          "velocity": 0.29133858267716534,
          "duration": 0.15625
        },
        {
          "name": "B4",
          "midi": 71,
          "time": 317.999674479167,
          "velocity": 0.33858267716535434,
          "duration": 0.15625
        },
        {
          "name": "A#4",
          "midi": 70,
          "time": 318.155924479167,
          "velocity": 0.2755905511811024,
          "duration": 0.625
        },
        {
          "name": "D#2",
          "midi": 39,
          "time": 318.780924479167,
          "velocity": 0.2204724409448819,
          "duration": 0.625
        },
        {
          "name": "D#5",
          "midi": 75,
          "time": 318.780924479167,
          "velocity": 0.2677165354330709,
          "duration": 1.25
        },
        {
          "name": "G5",
          "midi": 79,
          "time": 318.780924479167,
          "velocity": 0.28346456692913385,
          "duration": 1.25
        },
        {
          "name": "A#3",
          "midi": 58,
          "time": 319.405924479167,
          "velocity": 0.1968503937007874,
          "duration": 0.625
        },
        {
          "name": "C#4",
          "midi": 61,
          "time": 319.405924479167,
          "velocity": 0.23622047244094488,
          "duration": 0.625
        },
        {
          "name": "E4",
          "midi": 64,
          "time": 319.405924479167,
          "velocity": 0.1889763779527559,
          "duration": 0.625
        },
        {
          "name": "D#5",
          "midi": 75,
          "time": 320.030924479167,
          "velocity": 0.2677165354330709,
          "duration": 0.625
        },
        {
          "name": "G5",
          "midi": 79,
          "time": 320.030924479167,
          "velocity": 0.2125984251968504,
          "duration": 0.625
        },
        {
          "name": "A#3",
          "midi": 58,
          "time": 320.030924479167,
          "velocity": 0.2283464566929134,
          "duration": 0.625
        },
        {
          "name": "C#4",
          "midi": 61,
          "time": 320.030924479167,
          "velocity": 0.25984251968503935,
          "duration": 0.625
        },
        {
          "name": "D#4",
          "midi": 63,
          "time": 320.030924479167,
          "velocity": 0.1968503937007874,
          "duration": 0.625
        },
        {
          "name": "D#5",
          "midi": 75,
          "time": 320.655924479167,
          "velocity": 0.2440944881889764,
          "duration": 0.625
        },
        {
          "name": "G5",
          "midi": 79,
          "time": 320.655924479167,
          "velocity": 0.28346456692913385,
          "duration": 0.625
        },
        {
          "name": "D#2",
          "midi": 39,
          "time": 320.655924479167,
          "velocity": 0.3228346456692913,
          "duration": 0.625
        },
        {
          "name": "F5",
          "midi": 77,
          "time": 321.280924479167,
          "velocity": 0.2677165354330709,
          "duration": 0.625
        },
        {
          "name": "G#5",
          "midi": 80,
          "time": 321.280924479167,
          "velocity": 0.25196850393700787,
          "duration": 0.625
        },
        {
          "name": "A#3",
          "midi": 58,
          "time": 321.280924479167,
          "velocity": 0.25984251968503935,
          "duration": 0.625
        },
        {
          "name": "C#4",
          "midi": 61,
          "time": 321.280924479167,
          "velocity": 0.2125984251968504,
          "duration": 0.625
        },
        {
          "name": "F4",
          "midi": 65,
          "time": 321.280924479167,
          "velocity": 0.18110236220472442,
          "duration": 0.625
        },
        {
          "name": "G5",
          "midi": 79,
          "time": 321.905924479167,
          "velocity": 0.29133858267716534,
          "duration": 0.625
        },
        {
          "name": "A#5",
          "midi": 82,
          "time": 321.905924479167,
          "velocity": 0.31496062992125984,
          "duration": 0.625
        },
        {
          "name": "A#3",
          "midi": 58,
          "time": 321.905924479167,
          "velocity": 0.14960629921259844,
          "duration": 0.625
        },
        {
          "name": "C#4",
          "midi": 61,
          "time": 321.905924479167,
          "velocity": 0.14960629921259844,
          "duration": 0.625
        },
        {
          "name": "D#4",
          "midi": 63,
          "time": 321.905924479167,
          "velocity": 0.25196850393700787,
          "duration": 0.625
        },
        {
          "name": "G#5",
          "midi": 80,
          "time": 322.530924479167,
          "velocity": 0.3228346456692913,
          "duration": 0.625
        },
        {
          "name": "B5",
          "midi": 83,
          "time": 322.530924479167,
          "velocity": 0.2440944881889764,
          "duration": 0.625
        },
        {
          "name": "G#2",
          "midi": 44,
          "time": 322.530924479167,
          "velocity": 0.25984251968503935,
          "duration": 0.625
        },
        {
          "name": "F#6",
          "midi": 90,
          "time": 323.155924479167,
          "velocity": 0.2283464566929134,
          "duration": 0.15625
        },
        {
          "name": "B3",
          "midi": 59,
          "time": 323.155924479167,
          "velocity": 0.1968503937007874,
          "duration": 0.6266276041666288
        },
        {
          "name": "D#4",
          "midi": 63,
          "time": 323.155924479167,
          "velocity": 0.1889763779527559,
          "duration": 0.6266276041666288
        },
        {
          "name": "F#4",
          "midi": 66,
          "time": 323.155924479167,
          "velocity": 0.1968503937007874,
          "duration": 0.6266276041666288
        },
        {
          "name": "F6",
          "midi": 89,
          "time": 323.36425781250034,
          "velocity": 0.2677165354330709,
          "duration": 0.15625
        },
        {
          "name": "E6",
          "midi": 88,
          "time": 323.57421875000034,
          "velocity": 0.2440944881889764,
          "duration": 0.15625
        },
        {
          "name": "D#6",
          "midi": 87,
          "time": 323.78255208333366,
          "velocity": 0.25984251968503935,
          "duration": 0.15625
        },
        {
          "name": "B3",
          "midi": 59,
          "time": 323.78255208333366,
          "velocity": 0.1889763779527559,
          "duration": 0.6266276041666288
        },
        {
          "name": "D#4",
          "midi": 63,
          "time": 323.78255208333366,
          "velocity": 0.25196850393700787,
          "duration": 0.6266276041666288
        },
        {
          "name": "F#4",
          "midi": 66,
          "time": 323.78255208333366,
          "velocity": 0.1889763779527559,
          "duration": 0.6266276041666288
        },
        {
          "name": "D6",
          "midi": 86,
          "time": 323.99088541666697,
          "velocity": 0.25196850393700787,
          "duration": 0.15625
        },
        {
          "name": "C#6",
          "midi": 85,
          "time": 324.20084635416697,
          "velocity": 0.2440944881889764,
          "duration": 0.15625
        },
        {
          "name": "B5",
          "midi": 83,
          "time": 324.4091796875003,
          "velocity": 0.2440944881889764,
          "duration": 0.625
        },
        {
          "name": "G#2",
          "midi": 44,
          "time": 324.4091796875003,
          "velocity": 0.29133858267716534,
          "duration": 0.625
        },
        {
          "name": "B5",
          "midi": 83,
          "time": 325.0341796875003,
          "velocity": 0.29133858267716534,
          "duration": 0.15625
        },
        {
          "name": "B3",
          "midi": 59,
          "time": 325.0341796875003,
          "velocity": 0.2283464566929134,
          "duration": 0.6266276041666288
        },
        {
          "name": "D#4",
          "midi": 63,
          "time": 325.0341796875003,
          "velocity": 0.2125984251968504,
          "duration": 0.6266276041666288
        },
        {
          "name": "F#4",
          "midi": 66,
          "time": 325.0341796875003,
          "velocity": 0.1732283464566929,
          "duration": 0.6266276041666288
        },
        {
          "name": "A#5",
          "midi": 82,
          "time": 325.2425130208336,
          "velocity": 0.2125984251968504,
          "duration": 0.15625
        },
        {
          "name": "A5",
          "midi": 81,
          "time": 325.4524739583336,
          "velocity": 0.2204724409448819,
          "duration": 0.15625
        },
        {
          "name": "G#5",
          "midi": 80,
          "time": 325.6608072916669,
          "velocity": 0.29133858267716534,
          "duration": 0.15625
        },
        {
          "name": "B3",
          "midi": 59,
          "time": 325.6608072916669,
          "velocity": 0.1732283464566929,
          "duration": 0.6266276041666288
        },
        {
          "name": "D#4",
          "midi": 63,
          "time": 325.6608072916669,
          "velocity": 0.1889763779527559,
          "duration": 0.6266276041666288
        },
        {
          "name": "F#4",
          "midi": 66,
          "time": 325.6608072916669,
          "velocity": 0.1732283464566929,
          "duration": 0.6266276041666288
        },
        {
          "name": "G5",
          "midi": 79,
          "time": 325.8691406250002,
          "velocity": 0.23622047244094488,
          "duration": 0.15625
        },
        {
          "name": "F#5",
          "midi": 78,
          "time": 326.0791015625002,
          "velocity": 0.2755905511811024,
          "duration": 0.15625
        },
        {
          "name": "C#2",
          "midi": 37,
          "time": 326.28743489583354,
          "velocity": 0.1889763779527559,
          "duration": 0.625
        },
        {
          "name": "C#5",
          "midi": 73,
          "time": 326.28743489583354,
          "velocity": 0.2283464566929134,
          "duration": 1.25
        },
        {
          "name": "F5",
          "midi": 77,
          "time": 326.28743489583354,
          "velocity": 0.31496062992125984,
          "duration": 1.25
        },
        {
          "name": "B3",
          "midi": 59,
          "time": 326.91243489583354,
          "velocity": 0.2440944881889764,
          "duration": 0.625
        },
        {
          "name": "C#4",
          "midi": 61,
          "time": 326.91243489583354,
          "velocity": 0.2755905511811024,
          "duration": 0.625
        },
        {
          "name": "F4",
          "midi": 65,
          "time": 326.91243489583354,
          "velocity": 0.2047244094488189,
          "duration": 0.625
        },
        {
          "name": "C#5",
          "midi": 73,
          "time": 327.53743489583354,
          "velocity": 0.2992125984251969,
          "duration": 0.625
        },
        {
          "name": "F5",
          "midi": 77,
          "time": 327.53743489583354,
          "velocity": 0.2047244094488189,
          "duration": 0.625
        },
        {
          "name": "B3",
          "midi": 59,
          "time": 327.53743489583354,
          "velocity": 0.2283464566929134,
          "duration": 0.625
        },
        {
          "name": "C#4",
          "midi": 61,
          "time": 327.53743489583354,
          "velocity": 0.2283464566929134,
          "duration": 0.625
        },
        {
          "name": "G#4",
          "midi": 68,
          "time": 327.53743489583354,
          "velocity": 0.2204724409448819,
          "duration": 0.625
        },
        {
          "name": "C#5",
          "midi": 73,
          "time": 328.16243489583354,
          "velocity": 0.31496062992125984,
          "duration": 0.625
        },
        {
          "name": "F5",
          "midi": 77,
          "time": 328.16243489583354,
          "velocity": 0.2204724409448819,
          "duration": 0.625
        },
        {
          "name": "C#2",
          "midi": 37,
          "time": 328.16243489583354,
          "velocity": 0.2440944881889764,
          "duration": 0.625
        },
        {
          "name": "D#5",
          "midi": 75,
          "time": 328.78743489583354,
          "velocity": 0.2204724409448819,
          "duration": 0.625
        },
        {
          "name": "F#5",
          "midi": 78,
          "time": 328.78743489583354,
          "velocity": 0.33070866141732286,
          "duration": 0.625
        },
        {
          "name": "B3",
          "midi": 59,
          "time": 328.78743489583354,
          "velocity": 0.2047244094488189,
          "duration": 0.625
        },
        {
          "name": "C#4",
          "midi": 61,
          "time": 328.78743489583354,
          "velocity": 0.2283464566929134,
          "duration": 0.625
        },
        {
          "name": "F#4",
          "midi": 66,
          "time": 328.78743489583354,
          "velocity": 0.1968503937007874,
          "duration": 0.625
        },
        {
          "name": "F5",
          "midi": 77,
          "time": 329.41243489583354,
          "velocity": 0.23622047244094488,
          "duration": 0.625
        },
        {
          "name": "G#5",
          "midi": 80,
          "time": 329.41243489583354,
          "velocity": 0.2440944881889764,
          "duration": 0.625
        },
        {
          "name": "B3",
          "midi": 59,
          "time": 329.41243489583354,
          "velocity": 0.2204724409448819,
          "duration": 0.625
        },
        {
          "name": "C#4",
          "midi": 61,
          "time": 329.41243489583354,
          "velocity": 0.25984251968503935,
          "duration": 0.625
        },
        {
          "name": "F4",
          "midi": 65,
          "time": 329.41243489583354,
          "velocity": 0.2283464566929134,
          "duration": 0.625
        },
        {
          "name": "F#5",
          "midi": 78,
          "time": 330.03743489583354,
          "velocity": 0.31496062992125984,
          "duration": 0.625
        },
        {
          "name": "A#5",
          "midi": 82,
          "time": 330.03743489583354,
          "velocity": 0.33070866141732286,
          "duration": 0.625
        },
        {
          "name": "F#2",
          "midi": 42,
          "time": 330.03743489583354,
          "velocity": 0.2755905511811024,
          "duration": 0.625
        },
        {
          "name": "G#5",
          "midi": 80,
          "time": 330.66243489583354,
          "velocity": 0.23622047244094488,
          "duration": 0.15625
        },
        {
          "name": "A#3",
          "midi": 58,
          "time": 330.66243489583354,
          "velocity": 0.25984251968503935,
          "duration": 0.6266276041666288
        },
        {
          "name": "C#4",
          "midi": 61,
          "time": 330.66243489583354,
          "velocity": 0.18110236220472442,
          "duration": 0.6266276041666288
        },
        {
          "name": "F4",
          "midi": 65,
          "time": 330.66243489583354,
          "velocity": 0.14173228346456693,
          "duration": 0.6266276041666288
        },
        {
          "name": "G5",
          "midi": 79,
          "time": 330.87076822916686,
          "velocity": 0.2283464566929134,
          "duration": 0.15625
        },
        {
          "name": "F#5",
          "midi": 78,
          "time": 331.08072916666686,
          "velocity": 0.2283464566929134,
          "duration": 0.15625
        },
        {
          "name": "F5",
          "midi": 77,
          "time": 331.28906250000017,
          "velocity": 0.1968503937007874,
          "duration": 0.15625
        },
        {
          "name": "A#3",
          "midi": 58,
          "time": 331.28906250000017,
          "velocity": 0.25196850393700787,
          "duration": 0.6266276041666288
        },
        {
          "name": "C#4",
          "midi": 61,
          "time": 331.28906250000017,
          "velocity": 0.2283464566929134,
          "duration": 0.6266276041666288
        },
        {
          "name": "F4",
          "midi": 65,
          "time": 331.28906250000017,
          "velocity": 0.18110236220472442,
          "duration": 0.6266276041666288
        },
        {
          "name": "E5",
          "midi": 76,
          "time": 331.4973958333335,
          "velocity": 0.2440944881889764,
          "duration": 0.15625
        },
        {
          "name": "D#5",
          "midi": 75,
          "time": 331.7073567708335,
          "velocity": 0.2440944881889764,
          "duration": 0.15625
        },
        {
          "name": "C#5",
          "midi": 73,
          "time": 331.9156901041668,
          "velocity": 0.2755905511811024,
          "duration": 0.625
        },
        {
          "name": "F#2",
          "midi": 42,
          "time": 331.9156901041668,
          "velocity": 0.25984251968503935,
          "duration": 0.625
        },
        {
          "name": "G#5",
          "midi": 80,
          "time": 332.5406901041668,
          "velocity": 0.29133858267716534,
          "duration": 0.625
        },
        {
          "name": "A#3",
          "midi": 58,
          "time": 332.5406901041668,
          "velocity": 0.2047244094488189,
          "duration": 0.625
        },
        {
          "name": "C#4",
          "midi": 61,
          "time": 332.5406901041668,
          "velocity": 0.2440944881889764,
          "duration": 0.625
        },
        {
          "name": "G#4",
          "midi": 68,
          "time": 332.5406901041668,
          "velocity": 0.28346456692913385,
          "duration": 0.625
        },
        {
          "name": "F#5",
          "midi": 78,
          "time": 333.1656901041668,
          "velocity": 0.25984251968503935,
          "duration": 0.625
        },
        {
          "name": "A#3",
          "midi": 58,
          "time": 333.1656901041668,
          "velocity": 0.31496062992125984,
          "duration": 0.625
        },
        {
          "name": "C#4",
          "midi": 61,
          "time": 333.1656901041668,
          "velocity": 0.2755905511811024,
          "duration": 0.625
        },
        {
          "name": "F#4",
          "midi": 66,
          "time": 333.1656901041668,
          "velocity": 0.2992125984251969,
          "duration": 0.625
        },
        {
          "name": "F5",
          "midi": 77,
          "time": 333.7906901041668,
          "velocity": 0.2992125984251969,
          "duration": 0.625
        },
        {
          "name": "C2",
          "midi": 36,
          "time": 333.7906901041668,
          "velocity": 0.29133858267716534,
          "duration": 0.625
        },
        {
          "name": "E5",
          "midi": 76,
          "time": 334.4156901041668,
          "velocity": 0.3228346456692913,
          "duration": 0.625
        },
        {
          "name": "G3",
          "midi": 55,
          "time": 334.4156901041668,
          "velocity": 0.23622047244094488,
          "duration": 0.625
        },
        {
          "name": "C4",
          "midi": 60,
          "time": 334.4156901041668,
          "velocity": 0.3228346456692913,
          "duration": 0.625
        },
        {
          "name": "F4",
          "midi": 65,
          "time": 334.4156901041668,
          "velocity": 0.2755905511811024,
          "duration": 0.625
        },
        {
          "name": "F5",
          "midi": 77,
          "time": 335.0406901041668,
          "velocity": 0.30708661417322836,
          "duration": 0.625
        },
        {
          "name": "G3",
          "midi": 55,
          "time": 335.0406901041668,
          "velocity": 0.31496062992125984,
          "duration": 0.625
        },
        {
          "name": "C4",
          "midi": 60,
          "time": 335.0406901041668,
          "velocity": 0.2283464566929134,
          "duration": 0.625
        },
        {
          "name": "E4",
          "midi": 64,
          "time": 335.0406901041668,
          "velocity": 0.2125984251968504,
          "duration": 0.625
        },
        {
          "name": "G#5",
          "midi": 80,
          "time": 335.6656901041668,
          "velocity": 0.3543307086614173,
          "duration": 0.625
        },
        {
          "name": "F2",
          "midi": 41,
          "time": 335.6656901041668,
          "velocity": 0.2992125984251969,
          "duration": 0.625
        },
        {
          "name": "F#5",
          "midi": 78,
          "time": 336.2906901041668,
          "velocity": 0.3228346456692913,
          "duration": 0.625
        },
        {
          "name": "A3",
          "midi": 57,
          "time": 336.2906901041668,
          "velocity": 0.28346456692913385,
          "duration": 0.625
        },
        {
          "name": "C4",
          "midi": 60,
          "time": 336.2906901041668,
          "velocity": 0.1889763779527559,
          "duration": 0.625
        },
        {
          "name": "F#4",
          "midi": 66,
          "time": 336.2906901041668,
          "velocity": 0.25984251968503935,
          "duration": 0.625
        },
        {
          "name": "F5",
          "midi": 77,
          "time": 336.9156901041668,
          "velocity": 0.3228346456692913,
          "duration": 0.625
        },
        {
          "name": "A3",
          "midi": 57,
          "time": 336.9156901041668,
          "velocity": 0.31496062992125984,
          "duration": 0.625
        },
        {
          "name": "C4",
          "midi": 60,
          "time": 336.9156901041668,
          "velocity": 0.2204724409448819,
          "duration": 0.625
        },
        {
          "name": "F4",
          "midi": 65,
          "time": 336.9156901041668,
          "velocity": 0.2440944881889764,
          "duration": 0.625
        },
        {
          "name": "D#5",
          "midi": 75,
          "time": 337.5406901041668,
          "velocity": 0.31496062992125984,
          "duration": 0.625
        },
        {
          "name": "A#1",
          "midi": 34,
          "time": 337.5406901041668,
          "velocity": 0.3228346456692913,
          "duration": 0.625
        },
        {
          "name": "D5",
          "midi": 74,
          "time": 338.1656901041668,
          "velocity": 0.28346456692913385,
          "duration": 0.625
        },
        {
          "name": "G#3",
          "midi": 56,
          "time": 338.1656901041668,
          "velocity": 0.2440944881889764,
          "duration": 0.625
        },
        {
          "name": "A#3",
          "midi": 58,
          "time": 338.1656901041668,
          "velocity": 0.28346456692913385,
          "duration": 0.625
        },
        {
          "name": "D4",
          "midi": 62,
          "time": 338.1656901041668,
          "velocity": 0.2125984251968504,
          "duration": 0.625
        },
        {
          "name": "F4",
          "midi": 65,
          "time": 338.1656901041668,
          "velocity": 0.2283464566929134,
          "duration": 0.625
        },
        {
          "name": "D#5",
          "midi": 75,
          "time": 338.7906901041668,
          "velocity": 0.3228346456692913,
          "duration": 0.625
        },
        {
          "name": "G#3",
          "midi": 56,
          "time": 338.7906901041668,
          "velocity": 0.28346456692913385,
          "duration": 0.625
        },
        {
          "name": "A#3",
          "midi": 58,
          "time": 338.7906901041668,
          "velocity": 0.2047244094488189,
          "duration": 0.625
        },
        {
          "name": "D4",
          "midi": 62,
          "time": 338.7906901041668,
          "velocity": 0.31496062992125984,
          "duration": 0.625
        },
        {
          "name": "F4",
          "midi": 65,
          "time": 338.7906901041668,
          "velocity": 0.2992125984251969,
          "duration": 0.625
        },
        {
          "name": "A#1",
          "midi": 34,
          "time": 339.4156901041668,
          "velocity": 0.2755905511811024,
          "duration": 0.625
        },
        {
          "name": "G#4",
          "midi": 68,
          "time": 339.4156901041668,
          "velocity": 0.31496062992125984,
          "duration": 1.25
        },
        {
          "name": "A#4",
          "midi": 70,
          "time": 339.4156901041668,
          "velocity": 0.29133858267716534,
          "duration": 1.25
        },
        {
          "name": "D5",
          "midi": 74,
          "time": 339.4156901041668,
          "velocity": 0.28346456692913385,
          "duration": 1.25
        },
        {
          "name": "F5",
          "midi": 77,
          "time": 339.4156901041668,
          "velocity": 0.3779527559055118,
          "duration": 1.25
        },
        {
          "name": "G#3",
          "midi": 56,
          "time": 340.0406901041668,
          "velocity": 0.25984251968503935,
          "duration": 0.625
        },
        {
          "name": "D4",
          "midi": 62,
          "time": 340.0406901041668,
          "velocity": 0.29133858267716534,
          "duration": 0.625
        },
        {
          "name": "F4",
          "midi": 65,
          "time": 340.0406901041668,
          "velocity": 0.2992125984251969,
          "duration": 0.625
        },
        {
          "name": "A#5",
          "midi": 82,
          "time": 340.6656901041668,
          "velocity": 0.31496062992125984,
          "duration": 0.625
        },
        {
          "name": "G#3",
          "midi": 56,
          "time": 340.6656901041668,
          "velocity": 0.31496062992125984,
          "duration": 0.625
        },
        {
          "name": "D4",
          "midi": 62,
          "time": 340.6656901041668,
          "velocity": 0.2283464566929134,
          "duration": 0.625
        },
        {
          "name": "F4",
          "midi": 65,
          "time": 340.6656901041668,
          "velocity": 0.2440944881889764,
          "duration": 0.625
        },
        {
          "name": "C#2",
          "midi": 37,
          "time": 341.2906901041668,
          "velocity": 0.31496062992125984,
          "duration": 0.625
        },
        {
          "name": "C#5",
          "midi": 73,
          "time": 341.2906901041668,
          "velocity": 0.25984251968503935,
          "duration": 1.25
        },
        {
          "name": "E5",
          "midi": 76,
          "time": 341.2906901041668,
          "velocity": 0.31496062992125984,
          "duration": 1.25
        },
        {
          "name": "G#5",
          "midi": 80,
          "time": 341.2906901041668,
          "velocity": 0.3228346456692913,
          "duration": 1.25
        },
        {
          "name": "C#6",
          "midi": 85,
          "time": 341.2906901041668,
          "velocity": 0.31496062992125984,
          "duration": 1.25
        },
        {
          "name": "G#3",
          "midi": 56,
          "time": 341.9156901041668,
          "velocity": 0.2204724409448819,
          "duration": 0.625
        },
        {
          "name": "C#4",
          "midi": 61,
          "time": 341.9156901041668,
          "velocity": 0.25984251968503935,
          "duration": 0.625
        },
        {
          "name": "E4",
          "midi": 64,
          "time": 341.9156901041668,
          "velocity": 0.25196850393700787,
          "duration": 0.625
        },
        {
          "name": "B5",
          "midi": 83,
          "time": 342.5406901041668,
          "velocity": 0.30708661417322836,
          "duration": 0.625
        },
        {
          "name": "G#3",
          "midi": 56,
          "time": 342.5406901041668,
          "velocity": 0.2283464566929134,
          "duration": 0.625
        },
        {
          "name": "C#4",
          "midi": 61,
          "time": 342.5406901041668,
          "velocity": 0.25196850393700787,
          "duration": 0.625
        },
        {
          "name": "D#4",
          "midi": 63,
          "time": 342.5406901041668,
          "velocity": 0.2125984251968504,
          "duration": 0.625
        },
        {
          "name": "C#2",
          "midi": 37,
          "time": 343.1656901041668,
          "velocity": 0.31496062992125984,
          "duration": 0.625
        },
        {
          "name": "A#5",
          "midi": 82,
          "time": 343.1656901041668,
          "velocity": 0.36220472440944884,
          "duration": 1.25
        },
        {
          "name": "G#3",
          "midi": 56,
          "time": 343.7906901041668,
          "velocity": 0.2440944881889764,
          "duration": 0.625
        },
        {
          "name": "C#4",
          "midi": 61,
          "time": 343.7906901041668,
          "velocity": 0.25196850393700787,
          "duration": 0.625
        },
        {
          "name": "E4",
          "midi": 64,
          "time": 343.7906901041668,
          "velocity": 0.25984251968503935,
          "duration": 0.625
        },
        {
          "name": "G#5",
          "midi": 80,
          "time": 344.4156901041668,
          "velocity": 0.3464566929133858,
          "duration": 0.625
        },
        {
          "name": "G#3",
          "midi": 56,
          "time": 344.4156901041668,
          "velocity": 0.2440944881889764,
          "duration": 0.625
        },
        {
          "name": "B3",
          "midi": 59,
          "time": 344.4156901041668,
          "velocity": 0.2440944881889764,
          "duration": 0.625
        },
        {
          "name": "E4",
          "midi": 64,
          "time": 344.4156901041668,
          "velocity": 0.28346456692913385,
          "duration": 0.625
        },
        {
          "name": "G5",
          "midi": 79,
          "time": 345.0406901041668,
          "velocity": 0.2755905511811024,
          "duration": 0.3125
        },
        {
          "name": "D#2",
          "midi": 39,
          "time": 345.0406901041668,
          "velocity": 0.18110236220472442,
          "duration": 0.625
        },
        {
          "name": "A#5",
          "midi": 82,
          "time": 345.3531901041668,
          "velocity": 0.3543307086614173,
          "duration": 0.3125
        },
        {
          "name": "C#5",
          "midi": 73,
          "time": 345.6656901041668,
          "velocity": 0.25984251968503935,
          "duration": 0.15625
        },
        {
          "name": "A#3",
          "midi": 58,
          "time": 345.6656901041668,
          "velocity": 0.1968503937007874,
          "duration": 0.6266276041666288
        },
        {
          "name": "D#4",
          "midi": 63,
          "time": 345.6656901041668,
          "velocity": 0.16535433070866143,
          "duration": 0.6266276041666288
        },
        {
          "name": "G4",
          "midi": 67,
          "time": 345.6656901041668,
          "velocity": 0.1732283464566929,
          "duration": 0.6266276041666288
        },
        {
          "name": "D#5",
          "midi": 75,
          "time": 345.8740234375001,
          "velocity": 0.2440944881889764,
          "duration": 0.15625
        },
        {
          "name": "C#5",
          "midi": 73,
          "time": 346.0839843750001,
          "velocity": 0.2125984251968504,
          "duration": 0.15625
        },
        {
          "name": "B4",
          "midi": 71,
          "time": 346.2923177083334,
          "velocity": 0.29133858267716534,
          "duration": 0.15625
        },
        {
          "name": "A#3",
          "midi": 58,
          "time": 346.2923177083334,
          "velocity": 0.2283464566929134,
          "duration": 0.625
        },
        {
          "name": "D#4",
          "midi": 63,
          "time": 346.2923177083334,
          "velocity": 0.14173228346456693,
          "duration": 0.625
        },
        {
          "name": "G4",
          "midi": 67,
          "time": 346.2923177083334,
          "velocity": 0.2283464566929134,
          "duration": 0.625
        },
        {
          "name": "D#2",
          "midi": 39,
          "time": 346.9173177083334,
          "velocity": 0.1889763779527559,
          "duration": 0.625
        },
        {
          "name": "B4",
          "midi": 71,
          "time": 347.5423177083334,
          "velocity": 0.25984251968503935,
          "duration": 0.15625
        },
        {
          "name": "B3",
          "midi": 59,
          "time": 347.5423177083334,
          "velocity": 0.1968503937007874,
          "duration": 0.6266276041666288
        },
        {
          "name": "C#5",
          "midi": 73,
          "time": 347.75065104166674,
          "velocity": 0.23622047244094488,
          "duration": 0.15625
        },
        {
          "name": "B4",
          "midi": 71,
          "time": 347.96061197916674,
          "velocity": 0.25196850393700787,
          "duration": 0.15625
        },
        {
          "name": "A#4",
          "midi": 70,
          "time": 348.16894531250006,
          "velocity": 0.2755905511811024,
          "duration": 0.15625
        },
        {
          "name": "C#4",
          "midi": 61,
          "time": 348.16894531250006,
          "velocity": 0.2125984251968504,
          "duration": 0.625
        },
        {
          "name": "D#2",
          "midi": 39,
          "time": 348.79394531250006,
          "velocity": 0.11811023622047244,
          "duration": 0.625
        },
        {
          "name": "G#4",
          "midi": 68,
          "time": 349.41894531250006,
          "velocity": 0.2125984251968504,
          "duration": 0.15625
        },
        {
          "name": "A#3",
          "midi": 58,
          "time": 349.41894531250006,
          "velocity": 0.1968503937007874,
          "duration": 0.6266276041666288
        },
        {
          "name": "A#4",
          "midi": 70,
          "time": 349.62727864583337,
          "velocity": 0.2125984251968504,
          "duration": 0.15625
        },
        {
          "name": "G#4",
          "midi": 68,
          "time": 349.83723958333337,
          "velocity": 0.1889763779527559,
          "duration": 0.15625
        },
        {
          "name": "G4",
          "midi": 67,
          "time": 350.0455729166667,
          "velocity": 0.25984251968503935,
          "duration": 0.15625
        },
        {
          "name": "B3",
          "midi": 59,
          "time": 350.0455729166667,
          "velocity": 0.1732283464566929,
          "duration": 0.625
        },
        {
          "name": "D#2",
          "midi": 39,
          "time": 350.6705729166667,
          "velocity": 0.15748031496062992,
          "duration": 2.5016276041666288
        },
        {
          "name": "E4",
          "midi": 64,
          "time": 351.2955729166667,
          "velocity": 0.25984251968503935,
          "duration": 0.15625
        },
        {
          "name": "G4",
          "midi": 67,
          "time": 351.50390625,
          "velocity": 0.23622047244094488,
          "duration": 0.15625
        },
        {
          "name": "E4",
          "midi": 64,
          "time": 351.7138671875,
          "velocity": 0.2440944881889764,
          "duration": 0.15625
        },
        {
          "name": "D#4",
          "midi": 63,
          "time": 351.9222005208333,
          "velocity": 0.29133858267716534,
          "duration": 1.25
        },
        {
          "name": "E4",
          "midi": 64,
          "time": 353.1722005208333,
          "velocity": 0.3228346456692913,
          "duration": 0.625
        },
        {
          "name": "E3",
          "midi": 52,
          "time": 353.1722005208333,
          "velocity": 0.29133858267716534,
          "duration": 0.625
        },
        {
          "name": "A4",
          "midi": 69,
          "time": 353.7972005208333,
          "velocity": 0.28346456692913385,
          "duration": 0.625
        },
        {
          "name": "A3",
          "midi": 57,
          "time": 353.7972005208333,
          "velocity": 0.29133858267716534,
          "duration": 0.625
        },
        {
          "name": "C4",
          "midi": 60,
          "time": 354.4222005208333,
          "velocity": 0.29133858267716534,
          "duration": 0.625
        },
        {
          "name": "C5",
          "midi": 72,
          "time": 354.4222005208333,
          "velocity": 0.2677165354330709,
          "duration": 0.625
        },
        {
          "name": "F1",
          "midi": 29,
          "time": 355.0472005208333,
          "velocity": 0.33070866141732286,
          "duration": 1.25
        },
        {
          "name": "F2",
          "midi": 41,
          "time": 355.0472005208333,
          "velocity": 0.36220472440944884,
          "duration": 1.25
        },
        {
          "name": "F1",
          "midi": 29,
          "time": 356.2972005208333,
          "velocity": 0.2125984251968504,
          "duration": 0.15625
        },
        {
          "name": "F4",
          "midi": 65,
          "time": 356.2972005208333,
          "velocity": 0.2755905511811024,
          "duration": 0.6298828124998863
        },
        {
          "name": "F2",
          "midi": 41,
          "time": 356.4013671875,
          "velocity": 0.2125984251968504,
          "duration": 0.15787760416662877
        },
        {
          "name": "F1",
          "midi": 29,
          "time": 356.50553385416663,
          "velocity": 0.2283464566929134,
          "duration": 0.15787760416662877
        },
        {
          "name": "F2",
          "midi": 41,
          "time": 356.61132812499994,
          "velocity": 0.2440944881889764,
          "duration": 0.15787760416662877
        },
        {
          "name": "F1",
          "midi": 29,
          "time": 356.71712239583326,
          "velocity": 0.2992125984251969,
          "duration": 0.15787760416662877
        },
        {
          "name": "F2",
          "midi": 41,
          "time": 356.8212890624999,
          "velocity": 0.2677165354330709,
          "duration": 0.15787760416662877
        },
        {
          "name": "F1",
          "midi": 29,
          "time": 356.9270833333332,
          "velocity": 0.25196850393700787,
          "duration": 0.15787760416662877
        },
        {
          "name": "A#4",
          "midi": 70,
          "time": 356.9270833333332,
          "velocity": 0.31496062992125984,
          "duration": 0.6315104166665151
        },
        {
          "name": "F2",
          "midi": 41,
          "time": 357.0328776041665,
          "velocity": 0.28346456692913385,
          "duration": 0.15787760416662877
        },
        {
          "name": "F1",
          "midi": 29,
          "time": 357.13704427083314,
          "velocity": 0.2755905511811024,
          "duration": 0.15787760416662877
        },
        {
          "name": "F2",
          "midi": 41,
          "time": 357.24283854166646,
          "velocity": 0.28346456692913385,
          "duration": 0.15787760416662877
        },
        {
          "name": "F1",
          "midi": 29,
          "time": 357.3486328124998,
          "velocity": 0.2755905511811024,
          "duration": 0.15787760416662877
        },
        {
          "name": "F2",
          "midi": 41,
          "time": 357.4527994791664,
          "velocity": 0.28346456692913385,
          "duration": 0.15787760416662877
        },
        {
          "name": "F1",
          "midi": 29,
          "time": 357.5585937499997,
          "velocity": 0.33858267716535434,
          "duration": 0.15787760416662877
        },
        {
          "name": "C#5",
          "midi": 73,
          "time": 357.5585937499997,
          "velocity": 0.29133858267716534,
          "duration": 0.6315104166665151
        },
        {
          "name": "F2",
          "midi": 41,
          "time": 357.66438802083303,
          "velocity": 0.33858267716535434,
          "duration": 0.15787760416662877
        },
        {
          "name": "F1",
          "midi": 29,
          "time": 357.76855468749966,
          "velocity": 0.33070866141732286,
          "duration": 0.15787760416662877
        },
        {
          "name": "F2",
          "midi": 41,
          "time": 357.874348958333,
          "velocity": 0.3228346456692913,
          "duration": 0.15787760416662877
        },
        {
          "name": "F1",
          "midi": 29,
          "time": 357.9801432291663,
          "velocity": 0.36220472440944884,
          "duration": 0.15787760416662877
        },
        {
          "name": "F2",
          "midi": 41,
          "time": 358.0843098958329,
          "velocity": 0.3937007874015748,
          "duration": 0.15787760416662877
        },
        {
          "name": "D#2",
          "midi": 39,
          "time": 358.19010416666623,
          "velocity": 0.3228346456692913,
          "duration": 0.625
        },
        {
          "name": "F5",
          "midi": 77,
          "time": 358.19010416666623,
          "velocity": 0.33070866141732286,
          "duration": 1.25
        },
        {
          "name": "A#3",
          "midi": 58,
          "time": 358.81510416666623,
          "velocity": 0.25984251968503935,
          "duration": 0.625
        },
        {
          "name": "C#4",
          "midi": 61,
          "time": 358.81510416666623,
          "velocity": 0.2204724409448819,
          "duration": 0.625
        },
        {
          "name": "F4",
          "midi": 65,
          "time": 358.81510416666623,
          "velocity": 0.2755905511811024,
          "duration": 0.625
        },
        {
          "name": "F#4",
          "midi": 66,
          "time": 358.81510416666623,
          "velocity": 0.28346456692913385,
          "duration": 0.625
        },
        {
          "name": "A#4",
          "midi": 70,
          "time": 358.81510416666623,
          "velocity": 0.25984251968503935,
          "duration": 0.625
        },
        {
          "name": "F5",
          "midi": 77,
          "time": 359.44010416666623,
          "velocity": 0.3464566929133858,
          "duration": 0.625
        },
        {
          "name": "A#3",
          "midi": 58,
          "time": 359.44010416666623,
          "velocity": 0.2677165354330709,
          "duration": 0.625
        },
        {
          "name": "C#4",
          "midi": 61,
          "time": 359.44010416666623,
          "velocity": 0.25196850393700787,
          "duration": 0.625
        },
        {
          "name": "F4",
          "midi": 65,
          "time": 359.44010416666623,
          "velocity": 0.2677165354330709,
          "duration": 0.625
        },
        {
          "name": "F#4",
          "midi": 66,
          "time": 359.44010416666623,
          "velocity": 0.23622047244094488,
          "duration": 0.625
        },
        {
          "name": "A#4",
          "midi": 70,
          "time": 359.44010416666623,
          "velocity": 0.2440944881889764,
          "duration": 0.625
        },
        {
          "name": "D#5",
          "midi": 75,
          "time": 360.06510416666623,
          "velocity": 0.29133858267716534,
          "duration": 0.625
        },
        {
          "name": "F2",
          "midi": 41,
          "time": 360.06510416666623,
          "velocity": 0.31496062992125984,
          "duration": 0.625
        },
        {
          "name": "C#5",
          "midi": 73,
          "time": 360.69010416666623,
          "velocity": 0.29133858267716534,
          "duration": 0.625
        },
        {
          "name": "A3",
          "midi": 57,
          "time": 360.69010416666623,
          "velocity": 0.2283464566929134,
          "duration": 0.625
        },
        {
          "name": "D#4",
          "midi": 63,
          "time": 360.69010416666623,
          "velocity": 0.2204724409448819,
          "duration": 0.625
        },
        {
          "name": "F#4",
          "midi": 66,
          "time": 360.69010416666623,
          "velocity": 0.25984251968503935,
          "duration": 0.625
        },
        {
          "name": "A4",
          "midi": 69,
          "time": 360.69010416666623,
          "velocity": 0.2283464566929134,
          "duration": 0.625
        },
        {
          "name": "C5",
          "midi": 72,
          "time": 361.31510416666623,
          "velocity": 0.3464566929133858,
          "duration": 0.625
        },
        {
          "name": "A3",
          "midi": 57,
          "time": 361.31510416666623,
          "velocity": 0.28346456692913385,
          "duration": 0.625
        },
        {
          "name": "D#4",
          "midi": 63,
          "time": 361.31510416666623,
          "velocity": 0.2440944881889764,
          "duration": 0.625
        },
        {
          "name": "F#4",
          "midi": 66,
          "time": 361.31510416666623,
          "velocity": 0.23622047244094488,
          "duration": 0.625
        },
        {
          "name": "A4",
          "midi": 69,
          "time": 361.31510416666623,
          "velocity": 0.2125984251968504,
          "duration": 0.625
        },
        {
          "name": "A#2",
          "midi": 46,
          "time": 361.94010416666623,
          "velocity": 0.25984251968503935,
          "duration": 0.625
        },
        {
          "name": "C#5",
          "midi": 73,
          "time": 361.94010416666623,
          "velocity": 0.30708661417322836,
          "duration": 1.875
        },
        {
          "name": "A#3",
          "midi": 58,
          "time": 362.56510416666623,
          "velocity": 0.25984251968503935,
          "duration": 0.625
        },
        {
          "name": "C#4",
          "midi": 61,
          "time": 362.56510416666623,
          "velocity": 0.2677165354330709,
          "duration": 0.625
        },
        {
          "name": "F4",
          "midi": 65,
          "time": 362.56510416666623,
          "velocity": 0.2283464566929134,
          "duration": 0.625
        },
        {
          "name": "G#4",
          "midi": 68,
          "time": 362.56510416666623,
          "velocity": 0.2677165354330709,
          "duration": 0.625
        },
        {
          "name": "A#3",
          "midi": 58,
          "time": 363.19010416666623,
          "velocity": 0.2283464566929134,
          "duration": 0.625
        },
        {
          "name": "C#4",
          "midi": 61,
          "time": 363.19010416666623,
          "velocity": 0.2440944881889764,
          "duration": 0.625
        },
        {
          "name": "F4",
          "midi": 65,
          "time": 363.19010416666623,
          "velocity": 0.2677165354330709,
          "duration": 0.625
        },
        {
          "name": "G#4",
          "midi": 68,
          "time": 363.19010416666623,
          "velocity": 0.2677165354330709,
          "duration": 0.625
        },
        {
          "name": "A#4",
          "midi": 70,
          "time": 363.81510416666623,
          "velocity": 0.3700787401574803,
          "duration": 0.625
        },
        {
          "name": "A#2",
          "midi": 46,
          "time": 363.81510416666623,
          "velocity": 0.2440944881889764,
          "duration": 0.625
        },
        {
          "name": "C#5",
          "midi": 73,
          "time": 364.44010416666623,
          "velocity": 0.2755905511811024,
          "duration": 0.625
        },
        {
          "name": "A#3",
          "midi": 58,
          "time": 364.44010416666623,
          "velocity": 0.2440944881889764,
          "duration": 0.625
        },
        {
          "name": "C#4",
          "midi": 61,
          "time": 364.44010416666623,
          "velocity": 0.23622047244094488,
          "duration": 0.625
        },
        {
          "name": "F4",
          "midi": 65,
          "time": 364.44010416666623,
          "velocity": 0.23622047244094488,
          "duration": 0.625
        },
        {
          "name": "G#4",
          "midi": 68,
          "time": 364.44010416666623,
          "velocity": 0.2047244094488189,
          "duration": 0.625
        },
        {
          "name": "F5",
          "midi": 77,
          "time": 365.06510416666623,
          "velocity": 0.3464566929133858,
          "duration": 0.625
        },
        {
          "name": "A#3",
          "midi": 58,
          "time": 365.06510416666623,
          "velocity": 0.25984251968503935,
          "duration": 0.625
        },
        {
          "name": "C#4",
          "midi": 61,
          "time": 365.06510416666623,
          "velocity": 0.2283464566929134,
          "duration": 0.625
        },
        {
          "name": "F4",
          "midi": 65,
          "time": 365.06510416666623,
          "velocity": 0.23622047244094488,
          "duration": 0.625
        },
        {
          "name": "G#4",
          "midi": 68,
          "time": 365.06510416666623,
          "velocity": 0.2440944881889764,
          "duration": 0.625
        },
        {
          "name": "D#2",
          "midi": 39,
          "time": 365.69010416666623,
          "velocity": 0.29133858267716534,
          "duration": 0.625
        },
        {
          "name": "A#5",
          "midi": 82,
          "time": 365.69010416666623,
          "velocity": 0.33070866141732286,
          "duration": 1.25
        },
        {
          "name": "C#4",
          "midi": 61,
          "time": 366.31510416666623,
          "velocity": 0.25196850393700787,
          "duration": 0.625
        },
        {
          "name": "D#4",
          "midi": 63,
          "time": 366.31510416666623,
          "velocity": 0.2440944881889764,
          "duration": 0.625
        },
        {
          "name": "F#4",
          "midi": 66,
          "time": 366.31510416666623,
          "velocity": 0.25984251968503935,
          "duration": 0.625
        },
        {
          "name": "A#4",
          "midi": 70,
          "time": 366.31510416666623,
          "velocity": 0.28346456692913385,
          "duration": 0.625
        },
        {
          "name": "A#5",
          "midi": 82,
          "time": 366.94010416666623,
          "velocity": 0.2755905511811024,
          "duration": 0.625
        },
        {
          "name": "C#4",
          "midi": 61,
          "time": 366.94010416666623,
          "velocity": 0.1968503937007874,
          "duration": 0.625
        },
        {
          "name": "D#4",
          "midi": 63,
          "time": 366.94010416666623,
          "velocity": 0.25196850393700787,
          "duration": 0.625
        },
        {
          "name": "F#4",
          "midi": 66,
          "time": 366.94010416666623,
          "velocity": 0.2125984251968504,
          "duration": 0.625
        },
        {
          "name": "A#4",
          "midi": 70,
          "time": 366.94010416666623,
          "velocity": 0.2755905511811024,
          "duration": 0.625
        },
        {
          "name": "A#5",
          "midi": 82,
          "time": 367.56510416666623,
          "velocity": 0.28346456692913385,
          "duration": 0.625
        },
        {
          "name": "G#2",
          "midi": 44,
          "time": 367.56510416666623,
          "velocity": 0.25196850393700787,
          "duration": 0.625
        },
        {
          "name": "G#5",
          "midi": 80,
          "time": 368.19010416666623,
          "velocity": 0.31496062992125984,
          "duration": 0.625
        },
        {
          "name": "C4",
          "midi": 60,
          "time": 368.19010416666623,
          "velocity": 0.2677165354330709,
          "duration": 0.625
        },
        {
          "name": "D#4",
          "midi": 63,
          "time": 368.19010416666623,
          "velocity": 0.25984251968503935,
          "duration": 0.625
        },
        {
          "name": "F#4",
          "midi": 66,
          "time": 368.19010416666623,
          "velocity": 0.2677165354330709,
          "duration": 0.625
        },
        {
          "name": "G#4",
          "midi": 68,
          "time": 368.19010416666623,
          "velocity": 0.25196850393700787,
          "duration": 0.625
        },
        {
          "name": "F#5",
          "midi": 78,
          "time": 368.81510416666623,
          "velocity": 0.29133858267716534,
          "duration": 0.625
        },
        {
          "name": "C4",
          "midi": 60,
          "time": 368.81510416666623,
          "velocity": 0.2677165354330709,
          "duration": 0.625
        },
        {
          "name": "D#4",
          "midi": 63,
          "time": 368.81510416666623,
          "velocity": 0.1968503937007874,
          "duration": 0.625
        },
        {
          "name": "F#4",
          "midi": 66,
          "time": 368.81510416666623,
          "velocity": 0.28346456692913385,
          "duration": 0.625
        },
        {
          "name": "G#4",
          "midi": 68,
          "time": 368.81510416666623,
          "velocity": 0.2440944881889764,
          "duration": 0.625
        },
        {
          "name": "C#2",
          "midi": 37,
          "time": 369.44010416666623,
          "velocity": 0.3464566929133858,
          "duration": 0.625
        },
        {
          "name": "G#5",
          "midi": 80,
          "time": 369.44010416666623,
          "velocity": 0.33070866141732286,
          "duration": 1.875
        },
        {
          "name": "C4",
          "midi": 60,
          "time": 370.06510416666623,
          "velocity": 0.2125984251968504,
          "duration": 0.625
        },
        {
          "name": "F4",
          "midi": 65,
          "time": 370.06510416666623,
          "velocity": 0.23622047244094488,
          "duration": 0.625
        },
        {
          "name": "G#4",
          "midi": 68,
          "time": 370.06510416666623,
          "velocity": 0.23622047244094488,
          "duration": 0.625
        },
        {
          "name": "C4",
          "midi": 60,
          "time": 370.69010416666623,
          "velocity": 0.29133858267716534,
          "duration": 0.625
        },
        {
          "name": "F4",
          "midi": 65,
          "time": 370.69010416666623,
          "velocity": 0.2125984251968504,
          "duration": 0.625
        },
        {
          "name": "G#4",
          "midi": 68,
          "time": 370.69010416666623,
          "velocity": 0.2677165354330709,
          "duration": 0.625
        },
        {
          "name": "C5",
          "midi": 72,
          "time": 371.31510416666623,
          "velocity": 0.28346456692913385,
          "duration": 0.625
        },
        {
          "name": "G#2",
          "midi": 44,
          "time": 371.31510416666623,
          "velocity": 0.29133858267716534,
          "duration": 0.625
        },
        {
          "name": "F5",
          "midi": 77,
          "time": 371.94010416666623,
          "velocity": 0.3464566929133858,
          "duration": 0.625
        },
        {
          "name": "C4",
          "midi": 60,
          "time": 371.94010416666623,
          "velocity": 0.2440944881889764,
          "duration": 0.625
        },
        {
          "name": "F4",
          "midi": 65,
          "time": 371.94010416666623,
          "velocity": 0.2125984251968504,
          "duration": 0.625
        },
        {
          "name": "G#4",
          "midi": 68,
          "time": 371.94010416666623,
          "velocity": 0.25984251968503935,
          "duration": 0.625
        },
        {
          "name": "G#5",
          "midi": 80,
          "time": 372.56510416666623,
          "velocity": 0.29133858267716534,
          "duration": 0.625
        },
        {
          "name": "C4",
          "midi": 60,
          "time": 372.56510416666623,
          "velocity": 0.1889763779527559,
          "duration": 0.625
        },
        {
          "name": "F4",
          "midi": 65,
          "time": 372.56510416666623,
          "velocity": 0.2283464566929134,
          "duration": 0.625
        },
        {
          "name": "G#4",
          "midi": 68,
          "time": 372.56510416666623,
          "velocity": 0.2992125984251969,
          "duration": 0.625
        },
        {
          "name": "G2",
          "midi": 43,
          "time": 373.19010416666623,
          "velocity": 0.25196850393700787,
          "duration": 0.625
        },
        {
          "name": "C6",
          "midi": 84,
          "time": 373.19010416666623,
          "velocity": 0.3228346456692913,
          "duration": 1.25
        },
        {
          "name": "C#4",
          "midi": 61,
          "time": 373.81510416666623,
          "velocity": 0.2755905511811024,
          "duration": 0.625
        },
        {
          "name": "F4",
          "midi": 65,
          "time": 373.81510416666623,
          "velocity": 0.2440944881889764,
          "duration": 0.625
        },
        {
          "name": "C5",
          "midi": 72,
          "time": 373.81510416666623,
          "velocity": 0.25196850393700787,
          "duration": 0.625
        },
        {
          "name": "A#5",
          "midi": 82,
          "time": 374.44010416666623,
          "velocity": 0.3228346456692913,
          "duration": 0.625
        },
        {
          "name": "C#4",
          "midi": 61,
          "time": 374.44010416666623,
          "velocity": 0.2677165354330709,
          "duration": 0.625
        },
        {
          "name": "F4",
          "midi": 65,
          "time": 374.44010416666623,
          "velocity": 0.1889763779527559,
          "duration": 0.625
        },
        {
          "name": "A#4",
          "midi": 70,
          "time": 374.44010416666623,
          "velocity": 0.2440944881889764,
          "duration": 0.625
        },
        {
          "name": "G#5",
          "midi": 80,
          "time": 375.06510416666623,
          "velocity": 0.29133858267716534,
          "duration": 0.625
        },
        {
          "name": "C3",
          "midi": 48,
          "time": 375.06510416666623,
          "velocity": 0.2440944881889764,
          "duration": 0.625
        },
        {
          "name": "G5",
          "midi": 79,
          "time": 375.69010416666623,
          "velocity": 0.29133858267716534,
          "duration": 0.625
        },
        {
          "name": "C#4",
          "midi": 61,
          "time": 375.69010416666623,
          "velocity": 0.2125984251968504,
          "duration": 0.625
        },
        {
          "name": "E4",
          "midi": 64,
          "time": 375.69010416666623,
          "velocity": 0.25196850393700787,
          "duration": 0.625
        },
        {
          "name": "A#4",
          "midi": 70,
          "time": 375.69010416666623,
          "velocity": 0.28346456692913385,
          "duration": 0.625
        },
        {
          "name": "G#5",
          "midi": 80,
          "time": 376.31510416666623,
          "velocity": 0.30708661417322836,
          "duration": 0.625
        },
        {
          "name": "C#4",
          "midi": 61,
          "time": 376.31510416666623,
          "velocity": 0.2204724409448819,
          "duration": 0.625
        },
        {
          "name": "E4",
          "midi": 64,
          "time": 376.31510416666623,
          "velocity": 0.2755905511811024,
          "duration": 0.625
        },
        {
          "name": "G#4",
          "midi": 68,
          "time": 376.31510416666623,
          "velocity": 0.23622047244094488,
          "duration": 0.625
        },
        {
          "name": "F2",
          "midi": 41,
          "time": 376.94010416666623,
          "velocity": 0.2992125984251969,
          "duration": 0.625
        },
        {
          "name": "F2",
          "midi": 41,
          "time": 376.94010416666623,
          "velocity": 0.2992125984251969,
          "duration": 0.625
        },
        {
          "name": "A#5",
          "midi": 82,
          "time": 376.94010416666623,
          "velocity": 0.28346456692913385,
          "duration": 1.25
        },
        {
          "name": "C4",
          "midi": 60,
          "time": 377.56510416666623,
          "velocity": 0.2440944881889764,
          "duration": 0.625
        },
        {
          "name": "F4",
          "midi": 65,
          "time": 377.56510416666623,
          "velocity": 0.2677165354330709,
          "duration": 0.625
        },
        {
          "name": "A#4",
          "midi": 70,
          "time": 377.56510416666623,
          "velocity": 0.2992125984251969,
          "duration": 0.625
        },
        {
          "name": "G#5",
          "midi": 80,
          "time": 378.19010416666623,
          "velocity": 0.33070866141732286,
          "duration": 0.625
        },
        {
          "name": "C4",
          "midi": 60,
          "time": 378.19010416666623,
          "velocity": 0.1968503937007874,
          "duration": 0.625
        },
        {
          "name": "F4",
          "midi": 65,
          "time": 378.19010416666623,
          "velocity": 0.28346456692913385,
          "duration": 0.625
        },
        {
          "name": "G#4",
          "midi": 68,
          "time": 378.19010416666623,
          "velocity": 0.28346456692913385,
          "duration": 0.625
        },
        {
          "name": "D#2",
          "midi": 39,
          "time": 378.81510416666623,
          "velocity": 0.2755905511811024,
          "duration": 0.625
        },
        {
          "name": "D#2",
          "midi": 39,
          "time": 378.81510416666623,
          "velocity": 0.2755905511811024,
          "duration": 0.625
        },
        {
          "name": "G5",
          "midi": 79,
          "time": 378.81510416666623,
          "velocity": 0.31496062992125984,
          "duration": 1.25
        },
        {
          "name": "C4",
          "midi": 60,
          "time": 379.44010416666623,
          "velocity": 0.25196850393700787,
          "duration": 0.625
        },
        {
          "name": "D#4",
          "midi": 63,
          "time": 379.44010416666623,
          "velocity": 0.23622047244094488,
          "duration": 0.625
        },
        {
          "name": "G4",
          "midi": 67,
          "time": 379.44010416666623,
          "velocity": 0.1889763779527559,
          "duration": 0.625
        },
        {
          "name": "F5",
          "midi": 77,
          "time": 380.06510416666623,
          "velocity": 0.31496062992125984,
          "duration": 0.625
        },
        {
          "name": "C4",
          "midi": 60,
          "time": 380.06510416666623,
          "velocity": 0.2677165354330709,
          "duration": 0.625
        },
        {
          "name": "D#4",
          "midi": 63,
          "time": 380.06510416666623,
          "velocity": 0.2992125984251969,
          "duration": 0.625
        },
        {
          "name": "F4",
          "midi": 65,
          "time": 380.06510416666623,
          "velocity": 0.2677165354330709,
          "duration": 0.625
        },
        {
          "name": "D#5",
          "midi": 75,
          "time": 380.69010416666623,
          "velocity": 0.2992125984251969,
          "duration": 0.625
        },
        {
          "name": "C#2",
          "midi": 37,
          "time": 380.69010416666623,
          "velocity": 0.28346456692913385,
          "duration": 0.625
        },
        {
          "name": "C#5",
          "midi": 73,
          "time": 381.31510416666623,
          "velocity": 0.33858267716535434,
          "duration": 0.625
        },
        {
          "name": "G#3",
          "midi": 56,
          "time": 381.31510416666623,
          "velocity": 0.25984251968503935,
          "duration": 0.625
        },
        {
          "name": "C#4",
          "midi": 61,
          "time": 381.31510416666623,
          "velocity": 0.2440944881889764,
          "duration": 0.625
        },
        {
          "name": "F4",
          "midi": 65,
          "time": 381.31510416666623,
          "velocity": 0.28346456692913385,
          "duration": 0.625
        },
        {
          "name": "D#5",
          "midi": 75,
          "time": 381.94010416666623,
          "velocity": 0.33858267716535434,
          "duration": 0.625
        },
        {
          "name": "G#3",
          "midi": 56,
          "time": 381.94010416666623,
          "velocity": 0.23622047244094488,
          "duration": 0.625
        },
        {
          "name": "C4",
          "midi": 60,
          "time": 381.94010416666623,
          "velocity": 0.2204724409448819,
          "duration": 0.625
        },
        {
          "name": "F4",
          "midi": 65,
          "time": 381.94010416666623,
          "velocity": 0.2283464566929134,
          "duration": 0.625
        },
        {
          "name": "F5",
          "midi": 77,
          "time": 382.56510416666623,
          "velocity": 0.31496062992125984,
          "duration": 0.625
        },
        {
          "name": "C2",
          "midi": 36,
          "time": 382.56510416666623,
          "velocity": 0.2440944881889764,
          "duration": 0.625
        },
        {
          "name": "C2",
          "midi": 36,
          "time": 382.56510416666623,
          "velocity": 0.2440944881889764,
          "duration": 0.625
        },
        {
          "name": "D#5",
          "midi": 75,
          "time": 383.19010416666623,
          "velocity": 0.33858267716535434,
          "duration": 0.625
        },
        {
          "name": "A#3",
          "midi": 58,
          "time": 383.19010416666623,
          "velocity": 0.2283464566929134,
          "duration": 0.625
        },
        {
          "name": "D#4",
          "midi": 63,
          "time": 383.19010416666623,
          "velocity": 0.1889763779527559,
          "duration": 0.625
        },
        {
          "name": "G4",
          "midi": 67,
          "time": 383.19010416666623,
          "velocity": 0.2755905511811024,
          "duration": 0.625
        },
        {
          "name": "A#4",
          "midi": 70,
          "time": 383.81510416666623,
          "velocity": 0.3464566929133858,
          "duration": 0.625
        },
        {
          "name": "A#3",
          "midi": 58,
          "time": 383.81510416666623,
          "velocity": 0.2047244094488189,
          "duration": 0.625
        },
        {
          "name": "D#4",
          "midi": 63,
          "time": 383.81510416666623,
          "velocity": 0.2283464566929134,
          "duration": 0.625
        },
        {
          "name": "G4",
          "midi": 67,
          "time": 383.81510416666623,
          "velocity": 0.2204724409448819,
          "duration": 0.625
        },
        {
          "name": "F2",
          "midi": 41,
          "time": 384.44010416666623,
          "velocity": 0.23622047244094488,
          "duration": 0.625
        },
        {
          "name": "F2",
          "midi": 41,
          "time": 384.44010416666623,
          "velocity": 0.23622047244094488,
          "duration": 0.625
        },
        {
          "name": "C5",
          "midi": 72,
          "time": 384.44010416666623,
          "velocity": 0.31496062992125984,
          "duration": 1.875
        },
        {
          "name": "C4",
          "midi": 60,
          "time": 385.06510416666623,
          "velocity": 0.23622047244094488,
          "duration": 0.625
        },
        {
          "name": "D#4",
          "midi": 63,
          "time": 385.06510416666623,
          "velocity": 0.2440944881889764,
          "duration": 0.625
        },
        {
          "name": "F4",
          "midi": 65,
          "time": 385.06510416666623,
          "velocity": 0.2755905511811024,
          "duration": 0.625
        },
        {
          "name": "A#4",
          "midi": 70,
          "time": 385.06510416666623,
          "velocity": 0.23622047244094488,
          "duration": 0.625
        },
        {
          "name": "C4",
          "midi": 60,
          "time": 385.69010416666623,
          "velocity": 0.2125984251968504,
          "duration": 0.625
        },
        {
          "name": "D#4",
          "midi": 63,
          "time": 385.69010416666623,
          "velocity": 0.2204724409448819,
          "duration": 0.625
        },
        {
          "name": "F4",
          "midi": 65,
          "time": 385.69010416666623,
          "velocity": 0.2755905511811024,
          "duration": 0.625
        },
        {
          "name": "A#4",
          "midi": 70,
          "time": 385.69010416666623,
          "velocity": 0.2440944881889764,
          "duration": 0.625
        },
        {
          "name": "F4",
          "midi": 65,
          "time": 386.31510416666623,
          "velocity": 0.2755905511811024,
          "duration": 0.625
        },
        {
          "name": "F5",
          "midi": 77,
          "time": 386.31510416666623,
          "velocity": 0.3464566929133858,
          "duration": 0.625
        },
        {
          "name": "F2",
          "midi": 41,
          "time": 386.31510416666623,
          "velocity": 0.2755905511811024,
          "duration": 0.625
        },
        {
          "name": "F3",
          "midi": 53,
          "time": 386.31510416666623,
          "velocity": 0.2204724409448819,
          "duration": 0.625
        },
        {
          "name": "A#5",
          "midi": 82,
          "time": 386.94010416666623,
          "velocity": 0.28346456692913385,
          "duration": 0.625
        },
        {
          "name": "C4",
          "midi": 60,
          "time": 386.94010416666623,
          "velocity": 0.2204724409448819,
          "duration": 0.625
        },
        {
          "name": "D#4",
          "midi": 63,
          "time": 386.94010416666623,
          "velocity": 0.2677165354330709,
          "duration": 0.625
        },
        {
          "name": "A#4",
          "midi": 70,
          "time": 386.94010416666623,
          "velocity": 0.25196850393700787,
          "duration": 0.625
        },
        {
          "name": "C#5",
          "midi": 73,
          "time": 387.56510416666623,
          "velocity": 0.2992125984251969,
          "duration": 0.625
        },
        {
          "name": "C#6",
          "midi": 85,
          "time": 387.56510416666623,
          "velocity": 0.28346456692913385,
          "duration": 0.625
        },
        {
          "name": "C4",
          "midi": 60,
          "time": 387.56510416666623,
          "velocity": 0.25196850393700787,
          "duration": 0.625
        },
        {
          "name": "D#4",
          "midi": 63,
          "time": 387.56510416666623,
          "velocity": 0.2755905511811024,
          "duration": 0.625
        },
        {
          "name": "A4",
          "midi": 69,
          "time": 387.56510416666623,
          "velocity": 0.23622047244094488,
          "duration": 0.625
        },
        {
          "name": "F5",
          "midi": 77,
          "time": 388.19010416666623,
          "velocity": 0.3464566929133858,
          "duration": 0.625
        },
        {
          "name": "F6",
          "midi": 89,
          "time": 388.19010416666623,
          "velocity": 0.33070866141732286,
          "duration": 0.625
        },
        {
          "name": "D#2",
          "midi": 39,
          "time": 388.19010416666623,
          "velocity": 0.25196850393700787,
          "duration": 0.625
        },
        {
          "name": "F5",
          "midi": 77,
          "time": 388.81510416666623,
          "velocity": 0.31496062992125984,
          "duration": 0.625
        },
        {
          "name": "F6",
          "midi": 89,
          "time": 388.81510416666623,
          "velocity": 0.3228346456692913,
          "duration": 0.625
        },
        {
          "name": "A#3",
          "midi": 58,
          "time": 388.81510416666623,
          "velocity": 0.29133858267716534,
          "duration": 0.625
        },
        {
          "name": "C#4",
          "midi": 61,
          "time": 388.81510416666623,
          "velocity": 0.2283464566929134,
          "duration": 0.625
        },
        {
          "name": "F#4",
          "midi": 66,
          "time": 388.81510416666623,
          "velocity": 0.2047244094488189,
          "duration": 0.625
        },
        {
          "name": "F5",
          "midi": 77,
          "time": 389.44010416666623,
          "velocity": 0.2992125984251969,
          "duration": 0.625
        },
        {
          "name": "F6",
          "midi": 89,
          "time": 389.44010416666623,
          "velocity": 0.33070866141732286,
          "duration": 0.625
        },
        {
          "name": "A#3",
          "midi": 58,
          "time": 389.44010416666623,
          "velocity": 0.2125984251968504,
          "duration": 0.625
        },
        {
          "name": "C#4",
          "midi": 61,
          "time": 389.44010416666623,
          "velocity": 0.2755905511811024,
          "duration": 0.625
        },
        {
          "name": "F#4",
          "midi": 66,
          "time": 389.44010416666623,
          "velocity": 0.2283464566929134,
          "duration": 0.625
        },
        {
          "name": "D#5",
          "midi": 75,
          "time": 390.06510416666623,
          "velocity": 0.2677165354330709,
          "duration": 0.625
        },
        {
          "name": "D#6",
          "midi": 87,
          "time": 390.06510416666623,
          "velocity": 0.3464566929133858,
          "duration": 0.625
        },
        {
          "name": "F2",
          "midi": 41,
          "time": 390.06510416666623,
          "velocity": 0.33858267716535434,
          "duration": 0.625
        },
        {
          "name": "D#5",
          "midi": 75,
          "time": 390.69010416666623,
          "velocity": 0.28346456692913385,
          "duration": 0.3125
        },
        {
          "name": "D#6",
          "midi": 87,
          "time": 390.69010416666623,
          "velocity": 0.3464566929133858,
          "duration": 0.3125
        },
        {
          "name": "C#4",
          "midi": 61,
          "time": 390.69010416666623,
          "velocity": 0.23622047244094488,
          "duration": 0.625
        },
        {
          "name": "F4",
          "midi": 65,
          "time": 390.69010416666623,
          "velocity": 0.1889763779527559,
          "duration": 0.625
        },
        {
          "name": "A4",
          "midi": 69,
          "time": 390.69010416666623,
          "velocity": 0.2677165354330709,
          "duration": 0.625
        },
        {
          "name": "C5",
          "midi": 72,
          "time": 391.00260416666623,
          "velocity": 0.3228346456692913,
          "duration": 0.3125
        },
        {
          "name": "C6",
          "midi": 84,
          "time": 391.00260416666623,
          "velocity": 0.28346456692913385,
          "duration": 0.3125
        },
        {
          "name": "D#5",
          "midi": 75,
          "time": 391.31510416666623,
          "velocity": 0.25984251968503935,
          "duration": 0.3125
        },
        {
          "name": "D#6",
          "midi": 87,
          "time": 391.31510416666623,
          "velocity": 0.2755905511811024,
          "duration": 0.3125
        },
        {
          "name": "C4",
          "midi": 60,
          "time": 391.31510416666623,
          "velocity": 0.31496062992125984,
          "duration": 0.625
        },
        {
          "name": "F4",
          "midi": 65,
          "time": 391.31510416666623,
          "velocity": 0.25984251968503935,
          "duration": 0.625
        },
        {
          "name": "A4",
          "midi": 69,
          "time": 391.31510416666623,
          "velocity": 0.2440944881889764,
          "duration": 0.625
        },
        {
          "name": "C5",
          "midi": 72,
          "time": 391.62760416666623,
          "velocity": 0.30708661417322836,
          "duration": 0.3125
        },
        {
          "name": "C6",
          "midi": 84,
          "time": 391.62760416666623,
          "velocity": 0.28346456692913385,
          "duration": 0.3125
        },
        {
          "name": "C#6",
          "midi": 85,
          "time": 391.94010416666623,
          "velocity": 0.2992125984251969,
          "duration": 0.3125
        },
        {
          "name": "A#2",
          "midi": 46,
          "time": 391.94010416666623,
          "velocity": 0.2992125984251969,
          "duration": 0.625
        },
        {
          "name": "C6",
          "midi": 84,
          "time": 392.25260416666623,
          "velocity": 0.2992125984251969,
          "duration": 0.3125
        },
        {
          "name": "A#5",
          "midi": 82,
          "time": 392.56510416666623,
          "velocity": 0.30708661417322836,
          "duration": 0.3125
        },
        {
          "name": "C#4",
          "midi": 61,
          "time": 392.56510416666623,
          "velocity": 0.28346456692913385,
          "duration": 0.625
        },
        {
          "name": "F4",
          "midi": 65,
          "time": 392.56510416666623,
          "velocity": 0.2755905511811024,
          "duration": 0.625
        },
        {
          "name": "G#4",
          "midi": 68,
          "time": 392.56510416666623,
          "velocity": 0.25984251968503935,
          "duration": 0.625
        },
        {
          "name": "F5",
          "midi": 77,
          "time": 392.87760416666623,
          "velocity": 0.2677165354330709,
          "duration": 0.3125
        },
        {
          "name": "C#5",
          "midi": 73,
          "time": 393.19010416666623,
          "velocity": 0.30708661417322836,
          "duration": 0.3125
        },
        {
          "name": "C#4",
          "midi": 61,
          "time": 393.19010416666623,
          "velocity": 0.2755905511811024,
          "duration": 0.625
        },
        {
          "name": "F4",
          "midi": 65,
          "time": 393.19010416666623,
          "velocity": 0.31496062992125984,
          "duration": 0.625
        },
        {
          "name": "G#4",
          "midi": 68,
          "time": 393.19010416666623,
          "velocity": 0.25196850393700787,
          "duration": 0.625
        },
        {
          "name": "C5",
          "midi": 72,
          "time": 393.50260416666623,
          "velocity": 0.33858267716535434,
          "duration": 0.3125
        },
        {
          "name": "A#4",
          "midi": 70,
          "time": 393.81510416666623,
          "velocity": 0.28346456692913385,
          "duration": 0.625
        },
        {
          "name": "G#3",
          "midi": 56,
          "time": 393.81510416666623,
          "velocity": 0.28346456692913385,
          "duration": 0.9375
        },
        {
          "name": "C#4",
          "midi": 61,
          "time": 393.81510416666623,
          "velocity": 0.2755905511811024,
          "duration": 0.9375
        },
        {
          "name": "F4",
          "midi": 65,
          "time": 393.81510416666623,
          "velocity": 0.29133858267716534,
          "duration": 0.9375
        },
        {
          "name": "C#5",
          "midi": 73,
          "time": 394.44010416666623,
          "velocity": 0.33858267716535434,
          "duration": 0.625
        },
        {
          "name": "C#3",
          "midi": 49,
          "time": 394.75260416666623,
          "velocity": 0.3543307086614173,
          "duration": 0.9375
        },
        {
          "name": "G#3",
          "midi": 56,
          "time": 394.75260416666623,
          "velocity": 0.2992125984251969,
          "duration": 0.9375
        },
        {
          "name": "B3",
          "midi": 59,
          "time": 394.75260416666623,
          "velocity": 0.28346456692913385,
          "duration": 0.9375
        },
        {
          "name": "F5",
          "midi": 77,
          "time": 395.06510416666623,
          "velocity": 0.2992125984251969,
          "duration": 0.625
        },
        {
          "name": "F#2",
          "midi": 42,
          "time": 395.69010416666623,
          "velocity": 0.31496062992125984,
          "duration": 0.625
        },
        {
          "name": "C#5",
          "midi": 73,
          "time": 395.69010416666623,
          "velocity": 0.30708661417322836,
          "duration": 0.9375
        },
        {
          "name": "F5",
          "midi": 77,
          "time": 395.69010416666623,
          "velocity": 0.31496062992125984,
          "duration": 0.9375
        },
        {
          "name": "A#5",
          "midi": 82,
          "time": 395.69010416666623,
          "velocity": 0.3464566929133858,
          "duration": 0.9375
        },
        {
          "name": "C#4",
          "midi": 61,
          "time": 396.31510416666623,
          "velocity": 0.29133858267716534,
          "duration": 0.625
        },
        {
          "name": "F4",
          "midi": 65,
          "time": 396.31510416666623,
          "velocity": 0.29133858267716534,
          "duration": 0.625
        },
        {
          "name": "A#4",
          "midi": 70,
          "time": 396.31510416666623,
          "velocity": 0.29133858267716534,
          "duration": 0.625
        },
        {
          "name": "C#5",
          "midi": 73,
          "time": 396.62760416666623,
          "velocity": 0.30708661417322836,
          "duration": 0.625
        },
        {
          "name": "F5",
          "midi": 77,
          "time": 396.62760416666623,
          "velocity": 0.25984251968503935,
          "duration": 0.625
        },
        {
          "name": "A#5",
          "midi": 82,
          "time": 396.62760416666623,
          "velocity": 0.33858267716535434,
          "duration": 0.625
        },
        {
          "name": "C#4",
          "midi": 61,
          "time": 396.94010416666623,
          "velocity": 0.29133858267716534,
          "duration": 0.625
        },
        {
          "name": "F4",
          "midi": 65,
          "time": 396.94010416666623,
          "velocity": 0.2992125984251969,
          "duration": 0.625
        },
        {
          "name": "A#4",
          "midi": 70,
          "time": 396.94010416666623,
          "velocity": 0.2283464566929134,
          "duration": 0.625
        },
        {
          "name": "C#5",
          "midi": 73,
          "time": 397.25260416666623,
          "velocity": 0.2677165354330709,
          "duration": 0.3125
        },
        {
          "name": "F5",
          "midi": 77,
          "time": 397.25260416666623,
          "velocity": 0.25984251968503935,
          "duration": 0.3125
        },
        {
          "name": "A#5",
          "midi": 82,
          "time": 397.25260416666623,
          "velocity": 0.2755905511811024,
          "duration": 0.3125
        },
        {
          "name": "A#5",
          "midi": 82,
          "time": 397.56510416666623,
          "velocity": 0.33070866141732286,
          "duration": 0.625
        },
        {
          "name": "F#2",
          "midi": 42,
          "time": 397.56510416666623,
          "velocity": 0.3228346456692913,
          "duration": 0.625
        },
        {
          "name": "C6",
          "midi": 84,
          "time": 398.19010416666623,
          "velocity": 0.30708661417322836,
          "duration": 0.625
        },
        {
          "name": "C4",
          "midi": 60,
          "time": 398.19010416666623,
          "velocity": 0.2283464566929134,
          "duration": 0.625
        },
        {
          "name": "D#4",
          "midi": 63,
          "time": 398.19010416666623,
          "velocity": 0.2755905511811024,
          "duration": 0.625
        },
        {
          "name": "G#4",
          "midi": 68,
          "time": 398.19010416666623,
          "velocity": 0.2440944881889764,
          "duration": 0.625
        },
        {
          "name": "G#5",
          "midi": 80,
          "time": 398.81510416666623,
          "velocity": 0.3228346456692913,
          "duration": 0.3125
        },
        {
          "name": "C4",
          "midi": 60,
          "time": 398.81510416666623,
          "velocity": 0.2125984251968504,
          "duration": 0.625
        },
        {
          "name": "D#4",
          "midi": 63,
          "time": 398.81510416666623,
          "velocity": 0.2992125984251969,
          "duration": 0.625
        },
        {
          "name": "G#4",
          "midi": 68,
          "time": 398.81510416666623,
          "velocity": 0.29133858267716534,
          "duration": 0.625
        },
        {
          "name": "F#5",
          "midi": 78,
          "time": 399.12760416666623,
          "velocity": 0.2755905511811024,
          "duration": 0.3125
        },
        {
          "name": "G#5",
          "midi": 80,
          "time": 399.44010416666623,
          "velocity": 0.3464566929133858,
          "duration": 0.625
        },
        {
          "name": "F2",
          "midi": 41,
          "time": 399.44010416666623,
          "velocity": 0.29133858267716534,
          "duration": 0.625
        },
        {
          "name": "F5",
          "midi": 77,
          "time": 400.06510416666623,
          "velocity": 0.29133858267716534,
          "duration": 0.3125
        },
        {
          "name": "C4",
          "midi": 60,
          "time": 400.06510416666623,
          "velocity": 0.2992125984251969,
          "duration": 0.625
        },
        {
          "name": "D#4",
          "midi": 63,
          "time": 400.06510416666623,
          "velocity": 0.29133858267716534,
          "duration": 0.625
        },
        {
          "name": "G#4",
          "midi": 68,
          "time": 400.06510416666623,
          "velocity": 0.2283464566929134,
          "duration": 0.625
        },
        {
          "name": "D#5",
          "midi": 75,
          "time": 400.37760416666623,
          "velocity": 0.25984251968503935,
          "duration": 0.3125
        },
        {
          "name": "F5",
          "midi": 77,
          "time": 400.69010416666623,
          "velocity": 0.29133858267716534,
          "duration": 0.3125
        },
        {
          "name": "C4",
          "midi": 60,
          "time": 400.69010416666623,
          "velocity": 0.2440944881889764,
          "duration": 0.625
        },
        {
          "name": "D#4",
          "midi": 63,
          "time": 400.69010416666623,
          "velocity": 0.2283464566929134,
          "duration": 0.625
        },
        {
          "name": "G#4",
          "midi": 68,
          "time": 400.69010416666623,
          "velocity": 0.2677165354330709,
          "duration": 0.625
        },
        {
          "name": "G#5",
          "midi": 80,
          "time": 401.00260416666623,
          "velocity": 0.2755905511811024,
          "duration": 0.3125
        },
        {
          "name": "F5",
          "midi": 77,
          "time": 401.31510416666623,
          "velocity": 0.2992125984251969,
          "duration": 0.3125
        },
        {
          "name": "A#2",
          "midi": 46,
          "time": 401.31510416666623,
          "velocity": 0.3228346456692913,
          "duration": 0.625
        },
        {
          "name": "C5",
          "midi": 72,
          "time": 401.31510416666623,
          "velocity": 0.33070866141732286,
          "duration": 0.625
        },
        {
          "name": "D#5",
          "midi": 75,
          "time": 401.62760416666623,
          "velocity": 0.2755905511811024,
          "duration": 0.3125
        },
        {
          "name": "C#5",
          "midi": 73,
          "time": 401.94010416666623,
          "velocity": 0.25984251968503935,
          "duration": 0.3125
        },
        {
          "name": "C#4",
          "midi": 61,
          "time": 401.94010416666623,
          "velocity": 0.23622047244094488,
          "duration": 0.625
        },
        {
          "name": "F4",
          "midi": 65,
          "time": 401.94010416666623,
          "velocity": 0.2125984251968504,
          "duration": 0.625
        },
        {
          "name": "G#4",
          "midi": 68,
          "time": 401.94010416666623,
          "velocity": 0.2755905511811024,
          "duration": 0.625
        },
        {
          "name": "A#4",
          "midi": 70,
          "time": 401.94010416666623,
          "velocity": 0.25984251968503935,
          "duration": 0.625
        },
        {
          "name": "A#4",
          "midi": 70,
          "time": 401.94010416666623,
          "velocity": 0.25984251968503935,
          "duration": 0.625
        },
        {
          "name": "C5",
          "midi": 72,
          "time": 402.25260416666623,
          "velocity": 0.2440944881889764,
          "duration": 0.3125
        },
        {
          "name": "F5",
          "midi": 77,
          "time": 402.56510416666623,
          "velocity": 0.2755905511811024,
          "duration": 0.3125
        },
        {
          "name": "C#4",
          "midi": 61,
          "time": 402.56510416666623,
          "velocity": 0.2204724409448819,
          "duration": 0.625
        },
        {
          "name": "F4",
          "midi": 65,
          "time": 402.56510416666623,
          "velocity": 0.2992125984251969,
          "duration": 0.625
        },
        {
          "name": "G#4",
          "midi": 68,
          "time": 402.56510416666623,
          "velocity": 0.28346456692913385,
          "duration": 0.625
        },
        {
          "name": "A#4",
          "midi": 70,
          "time": 402.56510416666623,
          "velocity": 0.2283464566929134,
          "duration": 0.625
        },
        {
          "name": "G#5",
          "midi": 80,
          "time": 402.87760416666623,
          "velocity": 0.28346456692913385,
          "duration": 0.3125
        },
        {
          "name": "G2",
          "midi": 43,
          "time": 403.19010416666623,
          "velocity": 0.28346456692913385,
          "duration": 0.625
        },
        {
          "name": "C6",
          "midi": 84,
          "time": 403.19010416666623,
          "velocity": 0.33070866141732286,
          "duration": 1.25
        },
        {
          "name": "C#4",
          "midi": 61,
          "time": 403.81510416666623,
          "velocity": 0.28346456692913385,
          "duration": 0.625
        },
        {
          "name": "F4",
          "midi": 65,
          "time": 403.81510416666623,
          "velocity": 0.25196850393700787,
          "duration": 0.625
        },
        {
          "name": "G#4",
          "midi": 68,
          "time": 403.81510416666623,
          "velocity": 0.29133858267716534,
          "duration": 0.625
        },
        {
          "name": "C5",
          "midi": 72,
          "time": 403.81510416666623,
          "velocity": 0.2677165354330709,
          "duration": 0.625
        },
        {
          "name": "C#4",
          "midi": 61,
          "time": 404.44010416666623,
          "velocity": 0.2992125984251969,
          "duration": 0.625
        },
        {
          "name": "F4",
          "midi": 65,
          "time": 404.44010416666623,
          "velocity": 0.29133858267716534,
          "duration": 0.625
        },
        {
          "name": "G#4",
          "midi": 68,
          "time": 404.44010416666623,
          "velocity": 0.25196850393700787,
          "duration": 0.625
        },
        {
          "name": "A#4",
          "midi": 70,
          "time": 404.44010416666623,
          "velocity": 0.2755905511811024,
          "duration": 0.625
        },
        {
          "name": "A#5",
          "midi": 82,
          "time": 404.44010416666623,
          "velocity": 0.30708661417322836,
          "duration": 1.25
        },
        {
          "name": "C3",
          "midi": 48,
          "time": 405.06510416666623,
          "velocity": 0.30708661417322836,
          "duration": 0.625
        },
        {
          "name": "G#5",
          "midi": 80,
          "time": 405.69010416666623,
          "velocity": 0.2992125984251969,
          "duration": 0.3125
        },
        {
          "name": "C#4",
          "midi": 61,
          "time": 405.69010416666623,
          "velocity": 0.25196850393700787,
          "duration": 0.625
        },
        {
          "name": "E4",
          "midi": 64,
          "time": 405.69010416666623,
          "velocity": 0.2440944881889764,
          "duration": 0.625
        },
        {
          "name": "G#4",
          "midi": 68,
          "time": 405.69010416666623,
          "velocity": 0.25984251968503935,
          "duration": 0.625
        },
        {
          "name": "G5",
          "midi": 79,
          "time": 406.00260416666623,
          "velocity": 0.30708661417322836,
          "duration": 0.3125
        },
        {
          "name": "F#5",
          "midi": 78,
          "time": 406.31510416666623,
          "velocity": 0.30708661417322836,
          "duration": 0.3125
        },
        {
          "name": "C#4",
          "midi": 61,
          "time": 406.31510416666623,
          "velocity": 0.2204724409448819,
          "duration": 0.625
        },
        {
          "name": "E4",
          "midi": 64,
          "time": 406.31510416666623,
          "velocity": 0.2283464566929134,
          "duration": 0.625
        },
        {
          "name": "A#4",
          "midi": 70,
          "time": 406.31510416666623,
          "velocity": 0.2992125984251969,
          "duration": 0.625
        },
        {
          "name": "G5",
          "midi": 79,
          "time": 406.62760416666623,
          "velocity": 0.31496062992125984,
          "duration": 0.3125
        },
        {
          "name": "F2",
          "midi": 41,
          "time": 406.94010416666623,
          "velocity": 0.31496062992125984,
          "duration": 0.625
        },
        {
          "name": "A#5",
          "midi": 82,
          "time": 406.94010416666623,
          "velocity": 0.33070866141732286,
          "duration": 1.25
        },
        {
          "name": "C4",
          "midi": 60,
          "time": 407.56510416666623,
          "velocity": 0.25984251968503935,
          "duration": 0.625
        },
        {
          "name": "D#4",
          "midi": 63,
          "time": 407.56510416666623,
          "velocity": 0.2992125984251969,
          "duration": 0.625
        },
        {
          "name": "F4",
          "midi": 65,
          "time": 407.56510416666623,
          "velocity": 0.2755905511811024,
          "duration": 0.625
        },
        {
          "name": "A#4",
          "midi": 70,
          "time": 407.56510416666623,
          "velocity": 0.2677165354330709,
          "duration": 0.625
        },
        {
          "name": "C4",
          "midi": 60,
          "time": 408.19010416666623,
          "velocity": 0.2440944881889764,
          "duration": 0.625
        },
        {
          "name": "D#4",
          "midi": 63,
          "time": 408.19010416666623,
          "velocity": 0.2440944881889764,
          "duration": 0.625
        },
        {
          "name": "F4",
          "midi": 65,
          "time": 408.19010416666623,
          "velocity": 0.2283464566929134,
          "duration": 0.625
        },
        {
          "name": "G#4",
          "midi": 68,
          "time": 408.19010416666623,
          "velocity": 0.2755905511811024,
          "duration": 0.625
        },
        {
          "name": "G#5",
          "midi": 80,
          "time": 408.19010416666623,
          "velocity": 0.28346456692913385,
          "duration": 0.625
        },
        {
          "name": "D#2",
          "midi": 39,
          "time": 408.81510416666623,
          "velocity": 0.29133858267716534,
          "duration": 0.625
        },
        {
          "name": "G5",
          "midi": 79,
          "time": 409.44010416666623,
          "velocity": 0.30708661417322836,
          "duration": 0.3125
        },
        {
          "name": "C4",
          "midi": 60,
          "time": 409.44010416666623,
          "velocity": 0.31496062992125984,
          "duration": 0.625
        },
        {
          "name": "F4",
          "midi": 65,
          "time": 409.44010416666623,
          "velocity": 0.29133858267716534,
          "duration": 0.625
        },
        {
          "name": "G#4",
          "midi": 68,
          "time": 409.44010416666623,
          "velocity": 0.1968503937007874,
          "duration": 0.625
        },
        {
          "name": "F5",
          "midi": 77,
          "time": 409.75260416666623,
          "velocity": 0.33858267716535434,
          "duration": 0.3125
        },
        {
          "name": "E5",
          "midi": 76,
          "time": 410.06510416666623,
          "velocity": 0.29133858267716534,
          "duration": 0.3125
        },
        {
          "name": "C4",
          "midi": 60,
          "time": 410.06510416666623,
          "velocity": 0.2440944881889764,
          "duration": 0.625
        },
        {
          "name": "F4",
          "midi": 65,
          "time": 410.06510416666623,
          "velocity": 0.28346456692913385,
          "duration": 0.625
        },
        {
          "name": "G#4",
          "midi": 68,
          "time": 410.06510416666623,
          "velocity": 0.28346456692913385,
          "duration": 0.625
        },
        {
          "name": "F5",
          "midi": 77,
          "time": 410.37760416666623,
          "velocity": 0.33070866141732286,
          "duration": 0.3125
        },
        {
          "name": "F6",
          "midi": 89,
          "time": 410.69010416666623,
          "velocity": 0.31496062992125984,
          "duration": 0.625
        },
        {
          "name": "C#2",
          "midi": 37,
          "time": 410.69010416666623,
          "velocity": 0.25984251968503935,
          "duration": 0.625
        },
        {
          "name": "D#6",
          "midi": 87,
          "time": 411.31510416666623,
          "velocity": 0.31496062992125984,
          "duration": 0.3125
        },
        {
          "name": "C#4",
          "midi": 61,
          "time": 411.31510416666623,
          "velocity": 0.25984251968503935,
          "duration": 0.625
        },
        {
          "name": "F4",
          "midi": 65,
          "time": 411.31510416666623,
          "velocity": 0.25984251968503935,
          "duration": 0.625
        },
        {
          "name": "G#4",
          "midi": 68,
          "time": 411.31510416666623,
          "velocity": 0.2047244094488189,
          "duration": 0.625
        },
        {
          "name": "F6",
          "midi": 89,
          "time": 411.62760416666623,
          "velocity": 0.31496062992125984,
          "duration": 0.3125
        },
        {
          "name": "D#6",
          "midi": 87,
          "time": 411.94010416666623,
          "velocity": 0.30708661417322836,
          "duration": 0.3125
        },
        {
          "name": "C#4",
          "midi": 61,
          "time": 411.94010416666623,
          "velocity": 0.2283464566929134,
          "duration": 0.625
        },
        {
          "name": "F4",
          "midi": 65,
          "time": 411.94010416666623,
          "velocity": 0.2755905511811024,
          "duration": 0.625
        },
        {
          "name": "G#4",
          "midi": 68,
          "time": 411.94010416666623,
          "velocity": 0.2755905511811024,
          "duration": 0.625
        },
        {
          "name": "C#6",
          "midi": 85,
          "time": 412.25260416666623,
          "velocity": 0.33070866141732286,
          "duration": 0.3125
        },
        {
          "name": "C2",
          "midi": 36,
          "time": 412.56510416666623,
          "velocity": 0.30708661417322836,
          "duration": 0.625
        },
        {
          "name": "C6",
          "midi": 84,
          "time": 412.56510416666623,
          "velocity": 0.30708661417322836,
          "duration": 0.9375
        },
        {
          "name": "C4",
          "midi": 60,
          "time": 413.19010416666623,
          "velocity": 0.2125984251968504,
          "duration": 0.625
        },
        {
          "name": "E4",
          "midi": 64,
          "time": 413.19010416666623,
          "velocity": 0.1889763779527559,
          "duration": 0.625
        },
        {
          "name": "G4",
          "midi": 67,
          "time": 413.19010416666623,
          "velocity": 0.29133858267716534,
          "duration": 0.625
        },
        {
          "name": "D6",
          "midi": 86,
          "time": 413.50260416666623,
          "velocity": 0.2992125984251969,
          "duration": 0.3125
        },
        {
          "name": "E6",
          "midi": 88,
          "time": 413.81510416666623,
          "velocity": 0.29133858267716534,
          "duration": 0.625
        },
        {
          "name": "C4",
          "midi": 60,
          "time": 413.81510416666623,
          "velocity": 0.29133858267716534,
          "duration": 0.625
        },
        {
          "name": "E4",
          "midi": 64,
          "time": 413.81510416666623,
          "velocity": 0.2755905511811024,
          "duration": 0.625
        },
        {
          "name": "G4",
          "midi": 67,
          "time": 413.81510416666623,
          "velocity": 0.23622047244094488,
          "duration": 0.625
        },
        {
          "name": "F2",
          "midi": 41,
          "time": 414.44010416666623,
          "velocity": 0.29133858267716534,
          "duration": 0.625
        },
        {
          "name": "A5",
          "midi": 81,
          "time": 414.44010416666623,
          "velocity": 0.28346456692913385,
          "duration": 5.625
        },
        {
          "name": "C6",
          "midi": 84,
          "time": 414.44010416666623,
          "velocity": 0.28346456692913385,
          "duration": 5.625
        },
        {
          "name": "F6",
          "midi": 89,
          "time": 414.44010416666623,
          "velocity": 0.30708661417322836,
          "duration": 5.625
        },
        {
          "name": "F3",
          "midi": 53,
          "time": 415.06510416666623,
          "velocity": 0.2755905511811024,
          "duration": 0.625
        },
        {
          "name": "A3",
          "midi": 57,
          "time": 415.06510416666623,
          "velocity": 0.2440944881889764,
          "duration": 0.625
        },
        {
          "name": "C4",
          "midi": 60,
          "time": 415.06510416666623,
          "velocity": 0.1889763779527559,
          "duration": 0.625
        },
        {
          "name": "F3",
          "midi": 53,
          "time": 415.69010416666623,
          "velocity": 0.2755905511811024,
          "duration": 0.625
        },
        {
          "name": "A3",
          "midi": 57,
          "time": 415.69010416666623,
          "velocity": 0.25984251968503935,
          "duration": 0.625
        },
        {
          "name": "C4",
          "midi": 60,
          "time": 415.69010416666623,
          "velocity": 0.25196850393700787,
          "duration": 0.625
        },
        {
          "name": "C2",
          "midi": 36,
          "time": 416.31510416666623,
          "velocity": 0.2677165354330709,
          "duration": 0.625
        },
        {
          "name": "F3",
          "midi": 53,
          "time": 416.94010416666623,
          "velocity": 0.2125984251968504,
          "duration": 0.625
        },
        {
          "name": "A3",
          "midi": 57,
          "time": 416.94010416666623,
          "velocity": 0.2440944881889764,
          "duration": 0.625
        },
        {
          "name": "C4",
          "midi": 60,
          "time": 416.94010416666623,
          "velocity": 0.2283464566929134,
          "duration": 0.625
        },
        {
          "name": "F3",
          "midi": 53,
          "time": 417.56510416666623,
          "velocity": 0.2677165354330709,
          "duration": 0.625
        },
        {
          "name": "A3",
          "midi": 57,
          "time": 417.56510416666623,
          "velocity": 0.23622047244094488,
          "duration": 0.625
        },
        {
          "name": "C4",
          "midi": 60,
          "time": 417.56510416666623,
          "velocity": 0.1889763779527559,
          "duration": 0.625
        },
        {
          "name": "F2",
          "midi": 41,
          "time": 418.19010416666623,
          "velocity": 0.25196850393700787,
          "duration": 0.625
        },
        {
          "name": "F3",
          "midi": 53,
          "time": 418.81510416666623,
          "velocity": 0.2125984251968504,
          "duration": 0.625
        },
        {
          "name": "A3",
          "midi": 57,
          "time": 418.81510416666623,
          "velocity": 0.18110236220472442,
          "duration": 0.625
        },
        {
          "name": "C4",
          "midi": 60,
          "time": 418.81510416666623,
          "velocity": 0.2440944881889764,
          "duration": 0.625
        },
        {
          "name": "F3",
          "midi": 53,
          "time": 419.44010416666623,
          "velocity": 0.16535433070866143,
          "duration": 0.625
        },
        {
          "name": "A3",
          "midi": 57,
          "time": 419.44010416666623,
          "velocity": 0.2283464566929134,
          "duration": 0.625
        },
        {
          "name": "C4",
          "midi": 60,
          "time": 419.44010416666623,
          "velocity": 0.2125984251968504,
          "duration": 0.625
        },
        {
          "name": "C2",
          "midi": 36,
          "time": 420.06510416666623,
          "velocity": 0.23622047244094488,
          "duration": 0.625
        },
        {
          "name": "G5",
          "midi": 79,
          "time": 420.69010416666623,
          "velocity": 0.30708661417322836,
          "duration": 0.3125
        },
        {
          "name": "G6",
          "midi": 91,
          "time": 420.69010416666623,
          "velocity": 0.29133858267716534,
          "duration": 0.3125
        },
        {
          "name": "G4",
          "midi": 67,
          "time": 420.69010416666623,
          "velocity": 0.2755905511811024,
          "duration": 0.3125
        },
        {
          "name": "F5",
          "midi": 77,
          "time": 421.00260416666623,
          "velocity": 0.33858267716535434,
          "duration": 0.3125
        },
        {
          "name": "F6",
          "midi": 89,
          "time": 421.00260416666623,
          "velocity": 0.3228346456692913,
          "duration": 0.3125
        },
        {
          "name": "F4",
          "midi": 65,
          "time": 421.00260416666623,
          "velocity": 0.2440944881889764,
          "duration": 0.3125
        },
        {
          "name": "E5",
          "midi": 76,
          "time": 421.31510416666623,
          "velocity": 0.28346456692913385,
          "duration": 0.3125
        },
        {
          "name": "E6",
          "midi": 88,
          "time": 421.31510416666623,
          "velocity": 0.28346456692913385,
          "duration": 0.3125
        },
        {
          "name": "E4",
          "midi": 64,
          "time": 421.31510416666623,
          "velocity": 0.2283464566929134,
          "duration": 0.3125
        },
        {
          "name": "F5",
          "midi": 77,
          "time": 421.62760416666623,
          "velocity": 0.33070866141732286,
          "duration": 0.3125
        },
        {
          "name": "F6",
          "midi": 89,
          "time": 421.62760416666623,
          "velocity": 0.2992125984251969,
          "duration": 0.3125
        },
        {
          "name": "F4",
          "midi": 65,
          "time": 421.62760416666623,
          "velocity": 0.23622047244094488,
          "duration": 0.3125
        },
        {
          "name": "A#4",
          "midi": 70,
          "time": 421.94010416666623,
          "velocity": 0.2677165354330709,
          "duration": 0.625
        },
        {
          "name": "C#5",
          "midi": 73,
          "time": 421.94010416666623,
          "velocity": 0.2125984251968504,
          "duration": 0.625
        },
        {
          "name": "A#1",
          "midi": 34,
          "time": 421.94010416666623,
          "velocity": 0.2283464566929134,
          "duration": 0.625
        },
        {
          "name": "G#4",
          "midi": 68,
          "time": 422.56510416666623,
          "velocity": 0.25984251968503935,
          "duration": 0.625
        },
        {
          "name": "C5",
          "midi": 72,
          "time": 422.56510416666623,
          "velocity": 0.2125984251968504,
          "duration": 0.625
        },
        {
          "name": "F2",
          "midi": 41,
          "time": 422.56510416666623,
          "velocity": 0.28346456692913385,
          "duration": 0.625
        },
        {
          "name": "C3",
          "midi": 48,
          "time": 423.19010416666623,
          "velocity": 0.25984251968503935,
          "duration": 0.3125
        },
        {
          "name": "G4",
          "midi": 67,
          "time": 423.19010416666623,
          "velocity": 0.2283464566929134,
          "duration": 0.625
        },
        {
          "name": "A#4",
          "midi": 70,
          "time": 423.19010416666623,
          "velocity": 0.2125984251968504,
          "duration": 0.625
        },
        {
          "name": "C#3",
          "midi": 49,
          "time": 423.50260416666623,
          "velocity": 0.28346456692913385,
          "duration": 0.3125
        },
        {
          "name": "E4",
          "midi": 64,
          "time": 423.81510416666623,
          "velocity": 0.25196850393700787,
          "duration": 1.25
        },
        {
          "name": "C5",
          "midi": 72,
          "time": 423.81510416666623,
          "velocity": 0.2440944881889764,
          "duration": 1.25
        },
        {
          "name": "C3",
          "midi": 48,
          "time": 423.81510416666623,
          "velocity": 0.25984251968503935,
          "duration": 3.75
        },
        {
          "name": "D4",
          "midi": 62,
          "time": 425.06510416666623,
          "velocity": 0.2204724409448819,
          "duration": 0.625
        },
        {
          "name": "A#4",
          "midi": 70,
          "time": 425.06510416666623,
          "velocity": 0.23622047244094488,
          "duration": 0.625
        },
        {
          "name": "E4",
          "midi": 64,
          "time": 425.69010416666623,
          "velocity": 0.25196850393700787,
          "duration": 1.875
        },
        {
          "name": "G4",
          "midi": 67,
          "time": 425.69010416666623,
          "velocity": 0.2047244094488189,
          "duration": 1.875
        },
        {
          "name": "C3",
          "midi": 48,
          "time": 427.56510416666623,
          "velocity": 0.28346456692913385,
          "duration": 0.625
        },
        {
          "name": "F1",
          "midi": 29,
          "time": 428.19010416666623,
          "velocity": 0.33070866141732286,
          "duration": 0.625
        },
        {
          "name": "F5",
          "midi": 77,
          "time": 428.19010416666623,
          "velocity": 0.29133858267716534,
          "duration": 3.75
        },
        {
          "name": "A5",
          "midi": 81,
          "time": 428.19010416666623,
          "velocity": 0.25196850393700787,
          "duration": 3.75
        },
        {
          "name": "C6",
          "midi": 84,
          "time": 428.19010416666623,
          "velocity": 0.2992125984251969,
          "duration": 3.75
        },
        {
          "name": "F3",
          "midi": 53,
          "time": 428.81510416666623,
          "velocity": 0.2125984251968504,
          "duration": 0.625
        },
        {
          "name": "A3",
          "midi": 57,
          "time": 428.81510416666623,
          "velocity": 0.28346456692913385,
          "duration": 0.625
        },
        {
          "name": "C4",
          "midi": 60,
          "time": 428.81510416666623,
          "velocity": 0.23622047244094488,
          "duration": 0.625
        },
        {
          "name": "F3",
          "midi": 53,
          "time": 429.44010416666623,
          "velocity": 0.29133858267716534,
          "duration": 0.625
        },
        {
          "name": "A3",
          "midi": 57,
          "time": 429.44010416666623,
          "velocity": 0.2125984251968504,
          "duration": 0.625
        },
        {
          "name": "C4",
          "midi": 60,
          "time": 429.44010416666623,
          "velocity": 0.2440944881889764,
          "duration": 0.625
        },
        {
          "name": "F1",
          "midi": 29,
          "time": 430.06510416666623,
          "velocity": 0.2677165354330709,
          "duration": 0.625
        },
        {
          "name": "F3",
          "midi": 53,
          "time": 430.69010416666623,
          "velocity": 0.25196850393700787,
          "duration": 0.625
        },
        {
          "name": "A3",
          "midi": 57,
          "time": 430.69010416666623,
          "velocity": 0.28346456692913385,
          "duration": 0.625
        },
        {
          "name": "C4",
          "midi": 60,
          "time": 430.69010416666623,
          "velocity": 0.25984251968503935,
          "duration": 0.625
        },
        {
          "name": "F3",
          "midi": 53,
          "time": 431.31510416666623,
          "velocity": 0.25196850393700787,
          "duration": 0.625
        },
        {
          "name": "A3",
          "midi": 57,
          "time": 431.31510416666623,
          "velocity": 0.18110236220472442,
          "duration": 0.625
        },
        {
          "name": "C4",
          "midi": 60,
          "time": 431.31510416666623,
          "velocity": 0.2440944881889764,
          "duration": 0.625
        },
        {
          "name": "F4",
          "midi": 65,
          "time": 431.94010416666623,
          "velocity": 0.2992125984251969,
          "duration": 0.3125
        },
        {
          "name": "F3",
          "midi": 53,
          "time": 431.94010416666623,
          "velocity": 0.29133858267716534,
          "duration": 0.3125
        },
        {
          "name": "A3",
          "midi": 57,
          "time": 431.94010416666623,
          "velocity": 0.2755905511811024,
          "duration": 0.3125
        },
        {
          "name": "C4",
          "midi": 60,
          "time": 431.94010416666623,
          "velocity": 0.25984251968503935,
          "duration": 0.3125
        },
        {
          "name": "E4",
          "midi": 64,
          "time": 432.25260416666623,
          "velocity": 0.3464566929133858,
          "duration": 0.3125
        },
        {
          "name": "F4",
          "midi": 65,
          "time": 432.56510416666623,
          "velocity": 0.33070866141732286,
          "duration": 0.3125
        },
        {
          "name": "A4",
          "midi": 69,
          "time": 432.87760416666623,
          "velocity": 0.33858267716535434,
          "duration": 0.3125
        },
        {
          "name": "A#4",
          "midi": 70,
          "time": 433.19010416666623,
          "velocity": 0.2755905511811024,
          "duration": 0.3125
        },
        {
          "name": "F3",
          "midi": 53,
          "time": 433.19010416666623,
          "velocity": 0.2755905511811024,
          "duration": 0.3125
        },
        {
          "name": "A#3",
          "midi": 58,
          "time": 433.19010416666623,
          "velocity": 0.30708661417322836,
          "duration": 0.3125
        },
        {
          "name": "C#4",
          "midi": 61,
          "time": 433.19010416666623,
          "velocity": 0.2440944881889764,
          "duration": 0.3125
        },
        {
          "name": "C#5",
          "midi": 73,
          "time": 433.50260416666623,
          "velocity": 0.33858267716535434,
          "duration": 0.3125
        },
        {
          "name": "C5",
          "midi": 72,
          "time": 433.81510416666623,
          "velocity": 0.28346456692913385,
          "duration": 0.3125
        },
        {
          "name": "F3",
          "midi": 53,
          "time": 433.81510416666623,
          "velocity": 0.25984251968503935,
          "duration": 0.3125
        },
        {
          "name": "A3",
          "midi": 57,
          "time": 433.81510416666623,
          "velocity": 0.29133858267716534,
          "duration": 0.3125
        },
        {
          "name": "C4",
          "midi": 60,
          "time": 433.81510416666623,
          "velocity": 0.25196850393700787,
          "duration": 0.3125
        },
        {
          "name": "B4",
          "midi": 71,
          "time": 434.12760416666623,
          "velocity": 0.33858267716535434,
          "duration": 0.3125
        },
        {
          "name": "C5",
          "midi": 72,
          "time": 434.44010416666623,
          "velocity": 0.29133858267716534,
          "duration": 0.3125
        },
        {
          "name": "E5",
          "midi": 76,
          "time": 434.75260416666623,
          "velocity": 0.3228346456692913,
          "duration": 0.3125
        },
        {
          "name": "F5",
          "midi": 77,
          "time": 435.06510416666623,
          "velocity": 0.2992125984251969,
          "duration": 0.3125
        },
        {
          "name": "F3",
          "midi": 53,
          "time": 435.06510416666623,
          "velocity": 0.2755905511811024,
          "duration": 0.3125
        },
        {
          "name": "A#3",
          "midi": 58,
          "time": 435.06510416666623,
          "velocity": 0.28346456692913385,
          "duration": 0.3125
        },
        {
          "name": "C#4",
          "midi": 61,
          "time": 435.06510416666623,
          "velocity": 0.30708661417322836,
          "duration": 0.3125
        },
        {
          "name": "G5",
          "midi": 79,
          "time": 435.37760416666623,
          "velocity": 0.3464566929133858,
          "duration": 0.3125
        },
        {
          "name": "A5",
          "midi": 81,
          "time": 435.69010416666623,
          "velocity": 0.29133858267716534,
          "duration": 0.3125
        },
        {
          "name": "A3",
          "midi": 57,
          "time": 435.69010416666623,
          "velocity": 0.30708661417322836,
          "duration": 0.3125
        },
        {
          "name": "C4",
          "midi": 60,
          "time": 435.69010416666623,
          "velocity": 0.29133858267716534,
          "duration": 0.3125
        },
        {
          "name": "F4",
          "midi": 65,
          "time": 435.69010416666623,
          "velocity": 0.25196850393700787,
          "duration": 0.3125
        },
        {
          "name": "G5",
          "midi": 79,
          "time": 436.00260416666623,
          "velocity": 0.30708661417322836,
          "duration": 0.3125
        },
        {
          "name": "A5",
          "midi": 81,
          "time": 436.31510416666623,
          "velocity": 0.33070866141732286,
          "duration": 0.3125
        },
        {
          "name": "C6",
          "midi": 84,
          "time": 436.62760416666623,
          "velocity": 0.33070866141732286,
          "duration": 0.3125
        },
        {
          "name": "C#6",
          "midi": 85,
          "time": 436.94010416666623,
          "velocity": 0.33858267716535434,
          "duration": 0.3125
        },
        {
          "name": "G3",
          "midi": 55,
          "time": 436.94010416666623,
          "velocity": 0.33070866141732286,
          "duration": 0.3125
        },
        {
          "name": "C4",
          "midi": 60,
          "time": 436.94010416666623,
          "velocity": 0.29133858267716534,
          "duration": 0.3125
        },
        {
          "name": "E4",
          "midi": 64,
          "time": 436.94010416666623,
          "velocity": 0.28346456692913385,
          "duration": 0.3125
        },
        {
          "name": "E6",
          "midi": 88,
          "time": 437.25260416666623,
          "velocity": 0.3228346456692913,
          "duration": 0.3125
        },
        {
          "name": "F6",
          "midi": 89,
          "time": 437.56510416666623,
          "velocity": 0.3228346456692913,
          "duration": 0.3125
        },
        {
          "name": "A3",
          "midi": 57,
          "time": 437.56510416666623,
          "velocity": 0.30708661417322836,
          "duration": 0.3125
        },
        {
          "name": "C4",
          "midi": 60,
          "time": 437.56510416666623,
          "velocity": 0.31496062992125984,
          "duration": 0.3125
        },
        {
          "name": "F4",
          "midi": 65,
          "time": 437.56510416666623,
          "velocity": 0.23622047244094488,
          "duration": 0.3125
        },
        {
          "name": "C4",
          "midi": 60,
          "time": 439.44010416666623,
          "velocity": 0.25196850393700787,
          "duration": 7.5
        },
        {
          "name": "F4",
          "midi": 65,
          "time": 439.44010416666623,
          "velocity": 0.2677165354330709,
          "duration": 7.5
        },
        {
          "name": "A4",
          "midi": 69,
          "time": 439.44010416666623,
          "velocity": 0.1732283464566929,
          "duration": 7.5
        },
        {
          "name": "C5",
          "midi": 72,
          "time": 439.44010416666623,
          "velocity": 0.2125984251968504,
          "duration": 7.5
        },
        {
          "name": "F2",
          "midi": 41,
          "time": 439.44010416666623,
          "velocity": 0.25984251968503935,
          "duration": 7.5
        },
        {
          "name": "C3",
          "midi": 48,
          "time": 439.44010416666623,
          "velocity": 0.18110236220472442,
          "duration": 7.5
        },
        {
          "name": "F3",
          "midi": 53,
          "time": 439.44010416666623,
          "velocity": 0.2125984251968504,
          "duration": 7.5
        }
      ],
      "controlChanges": {},
      "id": 0,
      "name": "Grand Piano (Classic)",
      "instrumentNumber": 0,
      "instrument": "acoustic grand piano",
      "instrumentFamily": "piano",
      "channelNumber": 0,
      "isPercussion": false
    }
  ]
}