{
  "header": {
    "PPQ": 384,
    "timeSignature": [
      4,
      4
    ],
    "bpm": 87.00002175000543,
    "name": ""
  },
  "tempo": [
    {
      "absoluteTime": 0,
      "seconds": 0,
      "bpm": 87.00002175000543
    }
  ],
  "timeSignature": [
    {
      "absoluteTime": 0,
      "seconds": 0,
      "numerator": 4,
      "denominator": 2,
      "click": 24,
      "notesQ": 8
    }
  ],
  "startTime": 0,
  "duration": 132.41735195312455,
  "tracks": [
    {
      "startTime": 0,
      "duration": 132.41735195312455,
      "length": 741,
      "notes": [
        {
          "name": "D2",
          "midi": 38,
          "time": 0,
          "velocity": 0.3937007874015748,
          "duration": 0.689655
        },
        {
          "name": "A5",
          "midi": 81,
          "time": 0.3448275,
          "velocity": 0.3937007874015748,
          "duration": 0.17241374999999998
        },
        {
          "name": "G#5",
          "midi": 80,
          "time": 0.51724125,
          "velocity": 0.3937007874015748,
          "duration": 0.17241375000000003
        },
        {
          "name": "A5",
          "midi": 81,
          "time": 0.689655,
          "velocity": 0.3937007874015748,
          "duration": 0.3448275000000002
        },
        {
          "name": "A3",
          "midi": 57,
          "time": 0.689655,
          "velocity": 0.3937007874015748,
          "duration": 0.6896550000000002
        },
        {
          "name": "F4",
          "midi": 65,
          "time": 0.7183906250000001,
          "velocity": 0.3937007874015748,
          "duration": 0.5172412500000001
        },
        {
          "name": "F5",
          "midi": 77,
          "time": 1.0344825000000002,
          "velocity": 0.3937007874015748,
          "duration": 0.34482750000000006
        },
        {
          "name": "F2",
          "midi": 41,
          "time": 1.0344825000000002,
          "velocity": 0.3937007874015748,
          "duration": 0.34482750000000006
        },
        {
          "name": "E5",
          "midi": 76,
          "time": 1.3793100000000003,
          "velocity": 0.3937007874015748,
          "duration": 0.5172412500000001
        },
        {
          "name": "E2",
          "midi": 40,
          "time": 1.3793100000000003,
          "velocity": 0.3937007874015748,
          "duration": 0.6896550000000001
        },
        {
          "name": "F5",
          "midi": 77,
          "time": 1.8965512500000004,
          "velocity": 0.3937007874015748,
          "duration": 0.17241375000000003
        },
        {
          "name": "G5",
          "midi": 79,
          "time": 2.0689650000000004,
          "velocity": 0.3937007874015748,
          "duration": 0.6896550000000001
        },
        {
          "name": "A#3",
          "midi": 58,
          "time": 2.0689650000000004,
          "velocity": 0.3937007874015748,
          "duration": 0.6896550000000001
        },
        {
          "name": "G4",
          "midi": 67,
          "time": 2.0977006250000003,
          "velocity": 0.3937007874015748,
          "duration": 0.5172412500000001
        },
        {
          "name": "A2",
          "midi": 45,
          "time": 2.4137925000000005,
          "velocity": 0.3937007874015748,
          "duration": 0.34482750000000006
        },
        {
          "name": "G2",
          "midi": 43,
          "time": 2.7586200000000005,
          "velocity": 0.3937007874015748,
          "duration": 0.6896550000000001
        },
        {
          "name": "A#3",
          "midi": 58,
          "time": 3.4482750000000006,
          "velocity": 0.3937007874015748,
          "duration": 0.6896550000000001
        },
        {
          "name": "G4",
          "midi": 67,
          "time": 3.4770106250000006,
          "velocity": 0.3937007874015748,
          "duration": 0.5172412500000001
        },
        {
          "name": "F5",
          "midi": 77,
          "time": 3.7931025000000007,
          "velocity": 0.3937007874015748,
          "duration": 0.34482750000000006
        },
        {
          "name": "F2",
          "midi": 41,
          "time": 3.7931025000000007,
          "velocity": 0.3937007874015748,
          "duration": 0.34482750000000006
        },
        {
          "name": "G5",
          "midi": 79,
          "time": 4.137930000000001,
          "velocity": 0.3937007874015748,
          "duration": 0.5172412499999997
        },
        {
          "name": "E2",
          "midi": 40,
          "time": 4.137930000000001,
          "velocity": 0.3937007874015748,
          "duration": 0.6896549999999992
        },
        {
          "name": "G#5",
          "midi": 80,
          "time": 4.65517125,
          "velocity": 0.3937007874015748,
          "duration": 0.1724137499999996
        },
        {
          "name": "A5",
          "midi": 81,
          "time": 4.827585,
          "velocity": 0.3937007874015748,
          "duration": 0.34482750000000006
        },
        {
          "name": "G3",
          "midi": 55,
          "time": 4.827585,
          "velocity": 0.3937007874015748,
          "duration": 0.6896550000000001
        },
        {
          "name": "A1",
          "midi": 33,
          "time": 4.827585,
          "velocity": 0.3937007874015748,
          "duration": 0.6896550000000001
        },
        {
          "name": "E4",
          "midi": 64,
          "time": 4.856320625,
          "velocity": 0.3937007874015748,
          "duration": 0.5172412499999997
        },
        {
          "name": "E5",
          "midi": 76,
          "time": 5.1724125,
          "velocity": 0.3937007874015748,
          "duration": 0.34482750000000006
        },
        {
          "name": "D5",
          "midi": 74,
          "time": 5.51724,
          "velocity": 0.3937007874015748,
          "duration": 0.34482750000000006
        },
        {
          "name": "D2",
          "midi": 38,
          "time": 5.51724,
          "velocity": 0.3937007874015748,
          "duration": 0.6896549999999992
        },
        {
          "name": "A5",
          "midi": 81,
          "time": 5.8620675,
          "velocity": 0.3937007874015748,
          "duration": 0.1724137499999996
        },
        {
          "name": "G#5",
          "midi": 80,
          "time": 6.03448125,
          "velocity": 0.3937007874015748,
          "duration": 0.1724137499999996
        },
        {
          "name": "A5",
          "midi": 81,
          "time": 6.206894999999999,
          "velocity": 0.3937007874015748,
          "duration": 0.34482750000000006
        },
        {
          "name": "A3",
          "midi": 57,
          "time": 6.206894999999999,
          "velocity": 0.3937007874015748,
          "duration": 0.6896550000000001
        },
        {
          "name": "F4",
          "midi": 65,
          "time": 6.235630625,
          "velocity": 0.3937007874015748,
          "duration": 0.5172412499999997
        },
        {
          "name": "F5",
          "midi": 77,
          "time": 6.5517224999999994,
          "velocity": 0.3937007874015748,
          "duration": 0.34482750000000006
        },
        {
          "name": "F2",
          "midi": 41,
          "time": 6.5517224999999994,
          "velocity": 0.3937007874015748,
          "duration": 0.34482750000000006
        },
        {
          "name": "E5",
          "midi": 76,
          "time": 6.8965499999999995,
          "velocity": 0.3937007874015748,
          "duration": 0.5172412499999997
        },
        {
          "name": "E2",
          "midi": 40,
          "time": 6.8965499999999995,
          "velocity": 0.3937007874015748,
          "duration": 0.6896549999999992
        },
        {
          "name": "F5",
          "midi": 77,
          "time": 7.413791249999999,
          "velocity": 0.3937007874015748,
          "duration": 0.1724137499999996
        },
        {
          "name": "G5",
          "midi": 79,
          "time": 7.586204999999999,
          "velocity": 0.3937007874015748,
          "duration": 0.34482750000000006
        },
        {
          "name": "A#3",
          "midi": 58,
          "time": 7.586204999999999,
          "velocity": 0.3937007874015748,
          "duration": 0.6896549999999992
        },
        {
          "name": "G4",
          "midi": 67,
          "time": 7.614940624999999,
          "velocity": 0.3937007874015748,
          "duration": 0.5172412499999997
        },
        {
          "name": "G#5",
          "midi": 80,
          "time": 7.931032499999999,
          "velocity": 0.3937007874015748,
          "duration": 0.3448274999999992
        },
        {
          "name": "F2",
          "midi": 41,
          "time": 7.931032499999999,
          "velocity": 0.3937007874015748,
          "duration": 0.3448274999999992
        },
        {
          "name": "G#5",
          "midi": 80,
          "time": 8.275859999999998,
          "velocity": 0.3937007874015748,
          "duration": 0.6896550000000001
        },
        {
          "name": "G2",
          "midi": 43,
          "time": 8.275859999999998,
          "velocity": 0.3937007874015748,
          "duration": 0.6896550000000001
        },
        {
          "name": "A#3",
          "midi": 58,
          "time": 8.965514999999998,
          "velocity": 0.3937007874015748,
          "duration": 0.6896549999999984
        },
        {
          "name": "G#2",
          "midi": 44,
          "time": 8.965514999999998,
          "velocity": 0.3937007874015748,
          "duration": 0.6896549999999984
        },
        {
          "name": "G4",
          "midi": 67,
          "time": 8.994250624999998,
          "velocity": 0.3937007874015748,
          "duration": 0.5172412499999997
        },
        {
          "name": "A5",
          "midi": 81,
          "time": 9.655169999999996,
          "velocity": 0.3937007874015748,
          "duration": 0.6896549999999984
        },
        {
          "name": "C#4",
          "midi": 61,
          "time": 9.655169999999996,
          "velocity": 0.3937007874015748,
          "duration": 0.6896549999999984
        },
        {
          "name": "A2",
          "midi": 45,
          "time": 9.655169999999996,
          "velocity": 0.3937007874015748,
          "duration": 0.6896549999999984
        },
        {
          "name": "A4",
          "midi": 69,
          "time": 9.683905624999996,
          "velocity": 0.3937007874015748,
          "duration": 0.5172412499999997
        },
        {
          "name": "A1",
          "midi": 33,
          "time": 10.344824999999995,
          "velocity": 0.3937007874015748,
          "duration": 0.6896550000000001
        },
        {
          "name": "D5",
          "midi": 74,
          "time": 11.034479999999995,
          "velocity": 0.3937007874015748,
          "duration": 0.3448274999999992
        },
        {
          "name": "D2",
          "midi": 38,
          "time": 11.034479999999995,
          "velocity": 0.3937007874015748,
          "duration": 0.6896550000000001
        },
        {
          "name": "A5",
          "midi": 81,
          "time": 11.379307499999994,
          "velocity": 0.3937007874015748,
          "duration": 0.17241375000000048
        },
        {
          "name": "G#5",
          "midi": 80,
          "time": 11.551721249999995,
          "velocity": 0.3937007874015748,
          "duration": 0.17241375000000048
        },
        {
          "name": "A5",
          "midi": 81,
          "time": 11.724134999999995,
          "velocity": 0.3937007874015748,
          "duration": 0.3448274999999992
        },
        {
          "name": "A3",
          "midi": 57,
          "time": 11.724134999999995,
          "velocity": 0.3937007874015748,
          "duration": 0.6896549999999984
        },
        {
          "name": "F4",
          "midi": 65,
          "time": 11.752870624999995,
          "velocity": 0.3937007874015748,
          "duration": 0.5172412499999997
        },
        {
          "name": "F5",
          "midi": 77,
          "time": 12.068962499999994,
          "velocity": 0.3937007874015748,
          "duration": 0.3448274999999992
        },
        {
          "name": "F2",
          "midi": 41,
          "time": 12.068962499999994,
          "velocity": 0.3937007874015748,
          "duration": 0.3448274999999992
        },
        {
          "name": "E5",
          "midi": 76,
          "time": 12.413789999999993,
          "velocity": 0.3937007874015748,
          "duration": 0.5172412499999997
        },
        {
          "name": "E2",
          "midi": 40,
          "time": 12.413789999999993,
          "velocity": 0.3937007874015748,
          "duration": 0.6896550000000001
        },
        {
          "name": "F5",
          "midi": 77,
          "time": 12.931031249999993,
          "velocity": 0.3937007874015748,
          "duration": 0.17241375000000048
        },
        {
          "name": "G5",
          "midi": 79,
          "time": 13.103444999999994,
          "velocity": 0.3937007874015748,
          "duration": 0.6896549999999984
        },
        {
          "name": "A#3",
          "midi": 58,
          "time": 13.103444999999994,
          "velocity": 0.3937007874015748,
          "duration": 0.6896549999999984
        },
        {
          "name": "G4",
          "midi": 67,
          "time": 13.132180624999993,
          "velocity": 0.3937007874015748,
          "duration": 0.5172412499999997
        },
        {
          "name": "A2",
          "midi": 45,
          "time": 13.448272499999993,
          "velocity": 0.3937007874015748,
          "duration": 0.3448274999999992
        },
        {
          "name": "G2",
          "midi": 43,
          "time": 13.793099999999992,
          "velocity": 0.3937007874015748,
          "duration": 0.6896550000000001
        },
        {
          "name": "A#3",
          "midi": 58,
          "time": 14.482754999999992,
          "velocity": 0.3937007874015748,
          "duration": 0.6896549999999984
        },
        {
          "name": "G4",
          "midi": 67,
          "time": 14.511490624999992,
          "velocity": 0.3937007874015748,
          "duration": 0.5172412499999997
        },
        {
          "name": "G5",
          "midi": 79,
          "time": 14.827582499999991,
          "velocity": 0.3937007874015748,
          "duration": 0.3448274999999992
        },
        {
          "name": "F2",
          "midi": 41,
          "time": 14.827582499999991,
          "velocity": 0.3937007874015748,
          "duration": 0.3448274999999992
        },
        {
          "name": "F5",
          "midi": 77,
          "time": 15.17240999999999,
          "velocity": 0.3937007874015748,
          "duration": 0.3448274999999992
        },
        {
          "name": "E2",
          "midi": 40,
          "time": 15.17240999999999,
          "velocity": 0.3937007874015748,
          "duration": 0.6896549999999984
        },
        {
          "name": "E5",
          "midi": 76,
          "time": 15.51723749999999,
          "velocity": 0.3937007874015748,
          "duration": 0.3448274999999992
        },
        {
          "name": "D5",
          "midi": 74,
          "time": 15.862064999999989,
          "velocity": 0.3937007874015748,
          "duration": 0.3448274999999992
        },
        {
          "name": "G3",
          "midi": 55,
          "time": 15.862064999999989,
          "velocity": 0.3937007874015748,
          "duration": 0.6896550000000001
        },
        {
          "name": "A1",
          "midi": 33,
          "time": 15.862064999999989,
          "velocity": 0.3937007874015748,
          "duration": 0.6896550000000001
        },
        {
          "name": "E4",
          "midi": 64,
          "time": 15.890800624999988,
          "velocity": 0.3937007874015748,
          "duration": 0.5172412499999997
        },
        {
          "name": "C#5",
          "midi": 73,
          "time": 16.206892499999988,
          "velocity": 0.3937007874015748,
          "duration": 0.34482750000000095
        },
        {
          "name": "D2",
          "midi": 38,
          "time": 16.55171999999999,
          "velocity": 0.3937007874015748,
          "duration": 0.6896550000000019
        },
        {
          "name": "A5",
          "midi": 81,
          "time": 16.89654749999999,
          "velocity": 0.3937007874015748,
          "duration": 0.17241375000000048
        },
        {
          "name": "G#5",
          "midi": 80,
          "time": 17.06896124999999,
          "velocity": 0.3937007874015748,
          "duration": 0.17241375000000048
        },
        {
          "name": "A5",
          "midi": 81,
          "time": 17.24137499999999,
          "velocity": 0.3937007874015748,
          "duration": 0.34482750000000095
        },
        {
          "name": "A3",
          "midi": 57,
          "time": 17.24137499999999,
          "velocity": 0.3937007874015748,
          "duration": 0.6896550000000019
        },
        {
          "name": "F4",
          "midi": 65,
          "time": 17.27011062499999,
          "velocity": 0.3937007874015748,
          "duration": 0.5172412500000014
        },
        {
          "name": "F5",
          "midi": 77,
          "time": 17.58620249999999,
          "velocity": 0.3937007874015748,
          "duration": 0.34482750000000095
        },
        {
          "name": "F2",
          "midi": 41,
          "time": 17.58620249999999,
          "velocity": 0.3937007874015748,
          "duration": 0.34482750000000095
        },
        {
          "name": "D5",
          "midi": 74,
          "time": 17.931029999999993,
          "velocity": 0.3937007874015748,
          "duration": 0.34482750000000095
        },
        {
          "name": "E2",
          "midi": 40,
          "time": 17.931029999999993,
          "velocity": 0.3937007874015748,
          "duration": 0.6896550000000019
        },
        {
          "name": "A#5",
          "midi": 82,
          "time": 18.275857499999994,
          "velocity": 0.3937007874015748,
          "duration": 0.17241375000000048
        },
        {
          "name": "A5",
          "midi": 81,
          "time": 18.448271249999994,
          "velocity": 0.3937007874015748,
          "duration": 0.17241375000000048
        },
        {
          "name": "A#5",
          "midi": 82,
          "time": 18.620684999999995,
          "velocity": 0.3937007874015748,
          "duration": 0.34482750000000095
        },
        {
          "name": "A#3",
          "midi": 58,
          "time": 18.620684999999995,
          "velocity": 0.3937007874015748,
          "duration": 0.6896550000000019
        },
        {
          "name": "C#2",
          "midi": 37,
          "time": 18.620684999999995,
          "velocity": 0.3937007874015748,
          "duration": 0.6896550000000019
        },
        {
          "name": "G4",
          "midi": 67,
          "time": 18.649420624999994,
          "velocity": 0.3937007874015748,
          "duration": 0.5172412500000014
        },
        {
          "name": "A5",
          "midi": 81,
          "time": 18.965512499999996,
          "velocity": 0.3937007874015748,
          "duration": 0.34482750000000095
        },
        {
          "name": "G5",
          "midi": 79,
          "time": 19.310339999999997,
          "velocity": 0.3937007874015748,
          "duration": 0.34482750000000095
        },
        {
          "name": "F5",
          "midi": 77,
          "time": 19.655167499999997,
          "velocity": 0.3937007874015748,
          "duration": 0.34482750000000095
        },
        {
          "name": "E5",
          "midi": 76,
          "time": 19.999995,
          "velocity": 0.3937007874015748,
          "duration": 0.34482750000000095
        },
        {
          "name": "A3",
          "midi": 57,
          "time": 19.999995,
          "velocity": 0.3937007874015748,
          "duration": 0.6896550000000019
        },
        {
          "name": "A1",
          "midi": 33,
          "time": 19.999995,
          "velocity": 0.3937007874015748,
          "duration": 0.6896550000000019
        },
        {
          "name": "A4",
          "midi": 69,
          "time": 20.028730624999998,
          "velocity": 0.3937007874015748,
          "duration": 0.5172412500000014
        },
        {
          "name": "C#5",
          "midi": 73,
          "time": 20.3448225,
          "velocity": 0.3937007874015748,
          "duration": 0.34482750000000095
        },
        {
          "name": "D5",
          "midi": 74,
          "time": 20.68965,
          "velocity": 0.3937007874015748,
          "duration": 0.34482750000000095
        },
        {
          "name": "D4",
          "midi": 62,
          "time": 20.68965,
          "velocity": 0.3937007874015748,
          "duration": 0.6896550000000019
        },
        {
          "name": "D2",
          "midi": 38,
          "time": 20.68965,
          "velocity": 0.3937007874015748,
          "duration": 0.6896550000000019
        },
        {
          "name": "A4",
          "midi": 69,
          "time": 20.718385625,
          "velocity": 0.3937007874015748,
          "duration": 0.5172412500000014
        },
        {
          "name": "A3",
          "midi": 57,
          "time": 21.379305000000002,
          "velocity": 0.3937007874015748,
          "duration": 0.6896549999999984
        },
        {
          "name": "A1",
          "midi": 33,
          "time": 21.379305000000002,
          "velocity": 0.3937007874015748,
          "duration": 0.6896549999999984
        },
        {
          "name": "F5",
          "midi": 77,
          "time": 22.06896,
          "velocity": 0.3937007874015748,
          "duration": 0.17241375000000048
        },
        {
          "name": "D2",
          "midi": 38,
          "time": 22.06896,
          "velocity": 0.3937007874015748,
          "duration": 0.6896550000000019
        },
        {
          "name": "A5",
          "midi": 81,
          "time": 22.4137875,
          "velocity": 0.3937007874015748,
          "duration": 0.17241375000000048
        },
        {
          "name": "G#5",
          "midi": 80,
          "time": 22.586201250000002,
          "velocity": 0.3937007874015748,
          "duration": 0.17241375000000048
        },
        {
          "name": "D5",
          "midi": 74,
          "time": 22.758615000000002,
          "velocity": 0.3937007874015748,
          "duration": 0.17241375000000048
        },
        {
          "name": "A5",
          "midi": 81,
          "time": 22.758615000000002,
          "velocity": 0.3937007874015748,
          "duration": 0.34482750000000095
        },
        {
          "name": "A3",
          "midi": 57,
          "time": 22.758615000000002,
          "velocity": 0.3937007874015748,
          "duration": 0.6896550000000019
        },
        {
          "name": "F4",
          "midi": 65,
          "time": 22.787350625000002,
          "velocity": 0.3937007874015748,
          "duration": 0.5172412500000014
        },
        {
          "name": "F5",
          "midi": 77,
          "time": 23.103442500000003,
          "velocity": 0.3937007874015748,
          "duration": 0.17241375000000048
        },
        {
          "name": "F5",
          "midi": 77,
          "time": 23.103442500000003,
          "velocity": 0.3937007874015748,
          "duration": 0.34482750000000095
        },
        {
          "name": "F2",
          "midi": 41,
          "time": 23.103442500000003,
          "velocity": 0.3937007874015748,
          "duration": 0.34482750000000095
        },
        {
          "name": "E5",
          "midi": 76,
          "time": 23.448270000000004,
          "velocity": 0.3937007874015748,
          "duration": 0.17241375000000048
        },
        {
          "name": "E5",
          "midi": 76,
          "time": 23.448270000000004,
          "velocity": 0.3937007874015748,
          "duration": 0.5172412500000014
        },
        {
          "name": "E2",
          "midi": 40,
          "time": 23.448270000000004,
          "velocity": 0.3937007874015748,
          "duration": 0.6896550000000019
        },
        {
          "name": "F5",
          "midi": 77,
          "time": 23.965511250000006,
          "velocity": 0.3937007874015748,
          "duration": 0.17241375000000048
        },
        {
          "name": "C#5",
          "midi": 73,
          "time": 24.137925000000006,
          "velocity": 0.3937007874015748,
          "duration": 0.17241375000000048
        },
        {
          "name": "G5",
          "midi": 79,
          "time": 24.137925000000006,
          "velocity": 0.3937007874015748,
          "duration": 0.6896550000000019
        },
        {
          "name": "A#3",
          "midi": 58,
          "time": 24.137925000000006,
          "velocity": 0.3937007874015748,
          "duration": 0.6896550000000019
        },
        {
          "name": "G4",
          "midi": 67,
          "time": 24.166660625000006,
          "velocity": 0.3937007874015748,
          "duration": 0.5172412500000014
        },
        {
          "name": "A2",
          "midi": 45,
          "time": 24.482752500000007,
          "velocity": 0.3937007874015748,
          "duration": 0.34482750000000095
        },
        {
          "name": "G2",
          "midi": 43,
          "time": 24.827580000000008,
          "velocity": 0.3937007874015748,
          "duration": 0.6896549999999984
        },
        {
          "name": "A#3",
          "midi": 58,
          "time": 25.517235000000007,
          "velocity": 0.3937007874015748,
          "duration": 0.6896550000000019
        },
        {
          "name": "G4",
          "midi": 67,
          "time": 25.545970625000006,
          "velocity": 0.3937007874015748,
          "duration": 0.5172412500000014
        },
        {
          "name": "F5",
          "midi": 77,
          "time": 25.862062500000008,
          "velocity": 0.3937007874015748,
          "duration": 0.34482750000000095
        },
        {
          "name": "F2",
          "midi": 41,
          "time": 25.862062500000008,
          "velocity": 0.3937007874015748,
          "duration": 0.34482750000000095
        },
        {
          "name": "G5",
          "midi": 79,
          "time": 26.20689000000001,
          "velocity": 0.3937007874015748,
          "duration": 0.5172412500000014
        },
        {
          "name": "E2",
          "midi": 40,
          "time": 26.20689000000001,
          "velocity": 0.3937007874015748,
          "duration": 0.6896550000000019
        },
        {
          "name": "G#5",
          "midi": 80,
          "time": 26.72413125000001,
          "velocity": 0.3937007874015748,
          "duration": 0.17241375000000048
        },
        {
          "name": "A5",
          "midi": 81,
          "time": 26.89654500000001,
          "velocity": 0.3937007874015748,
          "duration": 0.34482750000000095
        },
        {
          "name": "G3",
          "midi": 55,
          "time": 26.89654500000001,
          "velocity": 0.3937007874015748,
          "duration": 0.6896550000000019
        },
        {
          "name": "A1",
          "midi": 33,
          "time": 26.89654500000001,
          "velocity": 0.3937007874015748,
          "duration": 0.6896550000000019
        },
        {
          "name": "E4",
          "midi": 64,
          "time": 26.92528062500001,
          "velocity": 0.3937007874015748,
          "duration": 0.5172412500000014
        },
        {
          "name": "E5",
          "midi": 76,
          "time": 27.24137250000001,
          "velocity": 0.3937007874015748,
          "duration": 0.34482750000000095
        },
        {
          "name": "F5",
          "midi": 77,
          "time": 27.586200000000012,
          "velocity": 0.3937007874015748,
          "duration": 0.17241375000000048
        },
        {
          "name": "D5",
          "midi": 74,
          "time": 27.586200000000012,
          "velocity": 0.3937007874015748,
          "duration": 0.34482750000000095
        },
        {
          "name": "D2",
          "midi": 38,
          "time": 27.586200000000012,
          "velocity": 0.3937007874015748,
          "duration": 0.6896550000000019
        },
        {
          "name": "A5",
          "midi": 81,
          "time": 27.931027500000013,
          "velocity": 0.3937007874015748,
          "duration": 0.17241375000000048
        },
        {
          "name": "G#5",
          "midi": 80,
          "time": 28.103441250000014,
          "velocity": 0.3937007874015748,
          "duration": 0.17241375000000048
        },
        {
          "name": "D5",
          "midi": 74,
          "time": 28.275855000000014,
          "velocity": 0.3937007874015748,
          "duration": 0.17241375000000048
        },
        {
          "name": "A5",
          "midi": 81,
          "time": 28.275855000000014,
          "velocity": 0.3937007874015748,
          "duration": 0.34482750000000095
        },
        {
          "name": "A3",
          "midi": 57,
          "time": 28.275855000000014,
          "velocity": 0.3937007874015748,
          "duration": 0.6896550000000019
        },
        {
          "name": "F4",
          "midi": 65,
          "time": 28.304590625000014,
          "velocity": 0.3937007874015748,
          "duration": 0.5172412500000014
        },
        {
          "name": "F5",
          "midi": 77,
          "time": 28.620682500000015,
          "velocity": 0.3937007874015748,
          "duration": 0.17241375000000048
        },
        {
          "name": "F5",
          "midi": 77,
          "time": 28.620682500000015,
          "velocity": 0.3937007874015748,
          "duration": 0.34482750000000095
        },
        {
          "name": "F2",
          "midi": 41,
          "time": 28.620682500000015,
          "velocity": 0.3937007874015748,
          "duration": 0.34482750000000095
        },
        {
          "name": "E5",
          "midi": 76,
          "time": 28.965510000000016,
          "velocity": 0.3937007874015748,
          "duration": 0.17241375000000048
        },
        {
          "name": "E5",
          "midi": 76,
          "time": 28.965510000000016,
          "velocity": 0.3937007874015748,
          "duration": 0.5172412500000014
        },
        {
          "name": "E2",
          "midi": 40,
          "time": 28.965510000000016,
          "velocity": 0.3937007874015748,
          "duration": 0.6896550000000019
        },
        {
          "name": "F5",
          "midi": 77,
          "time": 29.482751250000018,
          "velocity": 0.3937007874015748,
          "duration": 0.17241375000000048
        },
        {
          "name": "C#5",
          "midi": 73,
          "time": 29.655165000000018,
          "velocity": 0.3937007874015748,
          "duration": 0.17241375000000048
        },
        {
          "name": "G5",
          "midi": 79,
          "time": 29.655165000000018,
          "velocity": 0.3937007874015748,
          "duration": 0.34482750000000095
        },
        {
          "name": "A#3",
          "midi": 58,
          "time": 29.655165000000018,
          "velocity": 0.3937007874015748,
          "duration": 0.6896550000000019
        },
        {
          "name": "G4",
          "midi": 67,
          "time": 29.683900625000017,
          "velocity": 0.3937007874015748,
          "duration": 0.5172412500000014
        },
        {
          "name": "G#5",
          "midi": 80,
          "time": 29.99999250000002,
          "velocity": 0.3937007874015748,
          "duration": 0.34482750000000095
        },
        {
          "name": "F2",
          "midi": 41,
          "time": 29.99999250000002,
          "velocity": 0.3937007874015748,
          "duration": 0.34482750000000095
        },
        {
          "name": "G#5",
          "midi": 80,
          "time": 30.34482000000002,
          "velocity": 0.3937007874015748,
          "duration": 0.6896549999999984
        },
        {
          "name": "G2",
          "midi": 43,
          "time": 30.34482000000002,
          "velocity": 0.3937007874015748,
          "duration": 0.6896549999999984
        },
        {
          "name": "A#3",
          "midi": 58,
          "time": 31.03447500000002,
          "velocity": 0.3937007874015748,
          "duration": 0.6896550000000019
        },
        {
          "name": "G#2",
          "midi": 44,
          "time": 31.03447500000002,
          "velocity": 0.3937007874015748,
          "duration": 0.6896550000000019
        },
        {
          "name": "G4",
          "midi": 67,
          "time": 31.063210625000018,
          "velocity": 0.3937007874015748,
          "duration": 0.5172412500000014
        },
        {
          "name": "A5",
          "midi": 81,
          "time": 31.72413000000002,
          "velocity": 0.3937007874015748,
          "duration": 0.6896549999999984
        },
        {
          "name": "C#4",
          "midi": 61,
          "time": 31.72413000000002,
          "velocity": 0.3937007874015748,
          "duration": 0.6896549999999984
        },
        {
          "name": "A2",
          "midi": 45,
          "time": 31.72413000000002,
          "velocity": 0.3937007874015748,
          "duration": 0.6896549999999984
        },
        {
          "name": "A4",
          "midi": 69,
          "time": 31.75286562500002,
          "velocity": 0.3937007874015748,
          "duration": 0.5172412499999979
        },
        {
          "name": "A1",
          "midi": 33,
          "time": 32.41378500000002,
          "velocity": 0.3937007874015748,
          "duration": 0.6896550000000019
        },
        {
          "name": "F5",
          "midi": 77,
          "time": 33.10344000000002,
          "velocity": 0.3937007874015748,
          "duration": 0.17241374999999692
        },
        {
          "name": "D5",
          "midi": 74,
          "time": 33.10344000000002,
          "velocity": 0.3937007874015748,
          "duration": 0.34482749999999385
        },
        {
          "name": "D2",
          "midi": 38,
          "time": 33.10344000000002,
          "velocity": 0.3937007874015748,
          "duration": 0.6896549999999877
        },
        {
          "name": "A5",
          "midi": 81,
          "time": 33.448267500000014,
          "velocity": 0.3937007874015748,
          "duration": 0.17241374999999692
        },
        {
          "name": "G#5",
          "midi": 80,
          "time": 33.62068125000001,
          "velocity": 0.3937007874015748,
          "duration": 0.17241374999999692
        },
        {
          "name": "D5",
          "midi": 74,
          "time": 33.79309500000001,
          "velocity": 0.3937007874015748,
          "duration": 0.17241375000000403
        },
        {
          "name": "A5",
          "midi": 81,
          "time": 33.79309500000001,
          "velocity": 0.3937007874015748,
          "duration": 0.34482750000000095
        },
        {
          "name": "A3",
          "midi": 57,
          "time": 33.79309500000001,
          "velocity": 0.3937007874015748,
          "duration": 0.6896550000000019
        },
        {
          "name": "F4",
          "midi": 65,
          "time": 33.82183062500001,
          "velocity": 0.3937007874015748,
          "duration": 0.5172412499999979
        },
        {
          "name": "F5",
          "midi": 77,
          "time": 34.13792250000001,
          "velocity": 0.3937007874015748,
          "duration": 0.17241374999999692
        },
        {
          "name": "F5",
          "midi": 77,
          "time": 34.13792250000001,
          "velocity": 0.3937007874015748,
          "duration": 0.34482750000000095
        },
        {
          "name": "F2",
          "midi": 41,
          "time": 34.13792250000001,
          "velocity": 0.3937007874015748,
          "duration": 0.34482750000000095
        },
        {
          "name": "E5",
          "midi": 76,
          "time": 34.48275000000001,
          "velocity": 0.3937007874015748,
          "duration": 0.17241374999999692
        },
        {
          "name": "E5",
          "midi": 76,
          "time": 34.48275000000001,
          "velocity": 0.3937007874015748,
          "duration": 0.5172412499999979
        },
        {
          "name": "E2",
          "midi": 40,
          "time": 34.48275000000001,
          "velocity": 0.3937007874015748,
          "duration": 0.6896549999999948
        },
        {
          "name": "F5",
          "midi": 77,
          "time": 34.99999125000001,
          "velocity": 0.3937007874015748,
          "duration": 0.17241374999999692
        },
        {
          "name": "C#5",
          "midi": 73,
          "time": 35.172405000000005,
          "velocity": 0.3937007874015748,
          "duration": 0.17241375000000403
        },
        {
          "name": "G5",
          "midi": 79,
          "time": 35.172405000000005,
          "velocity": 0.3937007874015748,
          "duration": 0.6896550000000019
        },
        {
          "name": "A#3",
          "midi": 58,
          "time": 35.172405000000005,
          "velocity": 0.3937007874015748,
          "duration": 0.6896550000000019
        },
        {
          "name": "G4",
          "midi": 67,
          "time": 35.20114062500001,
          "velocity": 0.3937007874015748,
          "duration": 0.5172412499999979
        },
        {
          "name": "A2",
          "midi": 45,
          "time": 35.517232500000006,
          "velocity": 0.3937007874015748,
          "duration": 0.34482750000000095
        },
        {
          "name": "G2",
          "midi": 43,
          "time": 35.86206000000001,
          "velocity": 0.3937007874015748,
          "duration": 0.6896550000000019
        },
        {
          "name": "A#3",
          "midi": 58,
          "time": 36.55171500000001,
          "velocity": 0.3937007874015748,
          "duration": 0.6896550000000019
        },
        {
          "name": "G4",
          "midi": 67,
          "time": 36.58045062500001,
          "velocity": 0.3937007874015748,
          "duration": 0.5172412499999979
        },
        {
          "name": "A#5",
          "midi": 82,
          "time": 36.89654250000001,
          "velocity": 0.3937007874015748,
          "duration": 0.17241374999999692
        },
        {
          "name": "G5",
          "midi": 79,
          "time": 36.89654250000001,
          "velocity": 0.3937007874015748,
          "duration": 0.34482750000000095
        },
        {
          "name": "F2",
          "midi": 41,
          "time": 36.89654250000001,
          "velocity": 0.3937007874015748,
          "duration": 0.34482750000000095
        },
        {
          "name": "A5",
          "midi": 81,
          "time": 37.24137000000001,
          "velocity": 0.3937007874015748,
          "duration": 0.17241374999999692
        },
        {
          "name": "F5",
          "midi": 77,
          "time": 37.24137000000001,
          "velocity": 0.3937007874015748,
          "duration": 0.34482749999999385
        },
        {
          "name": "E2",
          "midi": 40,
          "time": 37.24137000000001,
          "velocity": 0.3937007874015748,
          "duration": 0.6896549999999877
        },
        {
          "name": "G5",
          "midi": 79,
          "time": 37.586197500000004,
          "velocity": 0.3937007874015748,
          "duration": 0.17241374999999692
        },
        {
          "name": "E5",
          "midi": 76,
          "time": 37.586197500000004,
          "velocity": 0.3937007874015748,
          "duration": 0.34482749999999385
        },
        {
          "name": "F5",
          "midi": 77,
          "time": 37.931025,
          "velocity": 0.3937007874015748,
          "duration": 0.17241375000000403
        },
        {
          "name": "D5",
          "midi": 74,
          "time": 37.931025,
          "velocity": 0.3937007874015748,
          "duration": 0.34482750000000095
        },
        {
          "name": "G3",
          "midi": 55,
          "time": 37.931025,
          "velocity": 0.3937007874015748,
          "duration": 0.6896550000000019
        },
        {
          "name": "A1",
          "midi": 33,
          "time": 37.931025,
          "velocity": 0.3937007874015748,
          "duration": 0.6896550000000019
        },
        {
          "name": "E4",
          "midi": 64,
          "time": 37.959760625,
          "velocity": 0.3937007874015748,
          "duration": 0.5172412499999979
        },
        {
          "name": "E5",
          "midi": 76,
          "time": 38.2758525,
          "velocity": 0.3937007874015748,
          "duration": 0.17241374999999692
        },
        {
          "name": "C#5",
          "midi": 73,
          "time": 38.2758525,
          "velocity": 0.3937007874015748,
          "duration": 0.34482750000000095
        },
        {
          "name": "F5",
          "midi": 77,
          "time": 38.62068,
          "velocity": 0.3937007874015748,
          "duration": 0.17241374999999692
        },
        {
          "name": "D2",
          "midi": 38,
          "time": 38.62068,
          "velocity": 0.3937007874015748,
          "duration": 0.6896549999999877
        },
        {
          "name": "A5",
          "midi": 81,
          "time": 38.965507499999994,
          "velocity": 0.3937007874015748,
          "duration": 0.17241374999999692
        },
        {
          "name": "G#5",
          "midi": 80,
          "time": 39.13792124999999,
          "velocity": 0.3937007874015748,
          "duration": 0.17241374999999692
        },
        {
          "name": "D5",
          "midi": 74,
          "time": 39.31033499999999,
          "velocity": 0.3937007874015748,
          "duration": 0.17241375000000403
        },
        {
          "name": "A5",
          "midi": 81,
          "time": 39.31033499999999,
          "velocity": 0.3937007874015748,
          "duration": 0.34482750000000095
        },
        {
          "name": "A3",
          "midi": 57,
          "time": 39.31033499999999,
          "velocity": 0.3937007874015748,
          "duration": 0.6896550000000019
        },
        {
          "name": "F4",
          "midi": 65,
          "time": 39.33907062499999,
          "velocity": 0.3937007874015748,
          "duration": 0.5172412499999979
        },
        {
          "name": "F5",
          "midi": 77,
          "time": 39.65516249999999,
          "velocity": 0.3937007874015748,
          "duration": 0.17241374999999692
        },
        {
          "name": "F5",
          "midi": 77,
          "time": 39.65516249999999,
          "velocity": 0.3937007874015748,
          "duration": 0.34482750000000095
        },
        {
          "name": "F2",
          "midi": 41,
          "time": 39.65516249999999,
          "velocity": 0.3937007874015748,
          "duration": 0.34482750000000095
        },
        {
          "name": "E5",
          "midi": 76,
          "time": 39.99998999999999,
          "velocity": 0.3937007874015748,
          "duration": 0.17241374999999692
        },
        {
          "name": "D5",
          "midi": 74,
          "time": 39.99998999999999,
          "velocity": 0.3937007874015748,
          "duration": 0.34482749999999385
        },
        {
          "name": "E2",
          "midi": 40,
          "time": 39.99998999999999,
          "velocity": 0.3937007874015748,
          "duration": 0.6896549999999877
        },
        {
          "name": "A#5",
          "midi": 82,
          "time": 40.344817499999984,
          "velocity": 0.3937007874015748,
          "duration": 0.17241374999999692
        },
        {
          "name": "A5",
          "midi": 81,
          "time": 40.51723124999998,
          "velocity": 0.3937007874015748,
          "duration": 0.17241374999999692
        },
        {
          "name": "C#5",
          "midi": 73,
          "time": 40.68964499999998,
          "velocity": 0.3937007874015748,
          "duration": 0.17241375000000403
        },
        {
          "name": "A#5",
          "midi": 82,
          "time": 40.68964499999998,
          "velocity": 0.3937007874015748,
          "duration": 0.34482750000000095
        },
        {
          "name": "A#3",
          "midi": 58,
          "time": 40.68964499999998,
          "velocity": 0.3937007874015748,
          "duration": 0.6896550000000019
        },
        {
          "name": "C#2",
          "midi": 37,
          "time": 40.68964499999998,
          "velocity": 0.3937007874015748,
          "duration": 0.6896550000000019
        },
        {
          "name": "G4",
          "midi": 67,
          "time": 40.71838062499998,
          "velocity": 0.3937007874015748,
          "duration": 0.5172412499999979
        },
        {
          "name": "A5",
          "midi": 81,
          "time": 41.03447249999998,
          "velocity": 0.3937007874015748,
          "duration": 0.34482750000000095
        },
        {
          "name": "G5",
          "midi": 79,
          "time": 41.37929999999998,
          "velocity": 0.3937007874015748,
          "duration": 0.34482750000000095
        },
        {
          "name": "F5",
          "midi": 77,
          "time": 41.72412749999998,
          "velocity": 0.3937007874015748,
          "duration": 0.34482750000000095
        },
        {
          "name": "C#5",
          "midi": 73,
          "time": 42.06895499999998,
          "velocity": 0.3937007874015748,
          "duration": 0.17241375000000403
        },
        {
          "name": "E5",
          "midi": 76,
          "time": 42.06895499999998,
          "velocity": 0.3937007874015748,
          "duration": 0.34482750000000095
        },
        {
          "name": "A3",
          "midi": 57,
          "time": 42.06895499999998,
          "velocity": 0.3937007874015748,
          "duration": 0.6896550000000019
        },
        {
          "name": "A1",
          "midi": 33,
          "time": 42.06895499999998,
          "velocity": 0.3937007874015748,
          "duration": 0.6896550000000019
        },
        {
          "name": "A4",
          "midi": 69,
          "time": 42.097690624999984,
          "velocity": 0.3937007874015748,
          "duration": 0.5172412499999979
        },
        {
          "name": "C#5",
          "midi": 73,
          "time": 42.41378249999998,
          "velocity": 0.3937007874015748,
          "duration": 0.34482750000000095
        },
        {
          "name": "D5",
          "midi": 74,
          "time": 42.75860999999998,
          "velocity": 0.3937007874015748,
          "duration": 0.17241375000000403
        },
        {
          "name": "D5",
          "midi": 74,
          "time": 42.75860999999998,
          "velocity": 0.3937007874015748,
          "duration": 0.34482750000000095
        },
        {
          "name": "D4",
          "midi": 62,
          "time": 42.75860999999998,
          "velocity": 0.3937007874015748,
          "duration": 0.6896550000000019
        },
        {
          "name": "D2",
          "midi": 38,
          "time": 42.75860999999998,
          "velocity": 0.3937007874015748,
          "duration": 0.6896550000000019
        },
        {
          "name": "A4",
          "midi": 69,
          "time": 42.787345624999986,
          "velocity": 0.3937007874015748,
          "duration": 0.5172412499999979
        },
        {
          "name": "A3",
          "midi": 57,
          "time": 43.448264999999985,
          "velocity": 0.3937007874015748,
          "duration": 0.6896550000000019
        },
        {
          "name": "A1",
          "midi": 33,
          "time": 43.448264999999985,
          "velocity": 0.3937007874015748,
          "duration": 0.6896550000000019
        },
        {
          "name": "G2",
          "midi": 43,
          "time": 44.13791999999999,
          "velocity": 0.3937007874015748,
          "duration": 0.6896549999999948
        },
        {
          "name": "D#5",
          "midi": 75,
          "time": 44.48274749999999,
          "velocity": 0.3937007874015748,
          "duration": 0.17241374999999692
        },
        {
          "name": "D#5",
          "midi": 75,
          "time": 44.655161249999985,
          "velocity": 0.3937007874015748,
          "duration": 0.17241374999999692
        },
        {
          "name": "D5",
          "midi": 74,
          "time": 44.82757499999998,
          "velocity": 0.3937007874015748,
          "duration": 0.34482750000000095
        },
        {
          "name": "G3",
          "midi": 55,
          "time": 44.82757499999998,
          "velocity": 0.3937007874015748,
          "duration": 0.6896550000000019
        },
        {
          "name": "D4",
          "midi": 62,
          "time": 44.856310624999985,
          "velocity": 0.3937007874015748,
          "duration": 0.5172412499999979
        },
        {
          "name": "D5",
          "midi": 74,
          "time": 45.17240249999998,
          "velocity": 0.3937007874015748,
          "duration": 0.34482750000000095
        },
        {
          "name": "G2",
          "midi": 43,
          "time": 45.17240249999998,
          "velocity": 0.3937007874015748,
          "duration": 0.34482750000000095
        },
        {
          "name": "C#5",
          "midi": 73,
          "time": 45.517229999999984,
          "velocity": 0.3937007874015748,
          "duration": 0.34482750000000095
        },
        {
          "name": "F#2",
          "midi": 42,
          "time": 45.517229999999984,
          "velocity": 0.3937007874015748,
          "duration": 0.6896550000000019
        },
        {
          "name": "C#5",
          "midi": 73,
          "time": 45.862057499999985,
          "velocity": 0.3937007874015748,
          "duration": 0.34482750000000095
        },
        {
          "name": "D5",
          "midi": 74,
          "time": 46.206884999999986,
          "velocity": 0.3937007874015748,
          "duration": 0.34482750000000095
        },
        {
          "name": "G3",
          "midi": 55,
          "time": 46.206884999999986,
          "velocity": 0.3937007874015748,
          "duration": 0.6896550000000019
        },
        {
          "name": "D4",
          "midi": 62,
          "time": 46.23562062499999,
          "velocity": 0.3937007874015748,
          "duration": 0.5172412499999979
        },
        {
          "name": "A#4",
          "midi": 70,
          "time": 46.55171249999999,
          "velocity": 0.3937007874015748,
          "duration": 0.34482750000000095
        },
        {
          "name": "F#2",
          "midi": 42,
          "time": 46.55171249999999,
          "velocity": 0.3937007874015748,
          "duration": 0.34482750000000095
        },
        {
          "name": "A4",
          "midi": 69,
          "time": 46.89653999999999,
          "velocity": 0.3937007874015748,
          "duration": 0.34482750000000095
        },
        {
          "name": "F2",
          "midi": 41,
          "time": 46.89653999999999,
          "velocity": 0.3937007874015748,
          "duration": 0.6896550000000019
        },
        {
          "name": "G3",
          "midi": 55,
          "time": 47.58619499999999,
          "velocity": 0.3937007874015748,
          "duration": 0.6896550000000019
        },
        {
          "name": "D4",
          "midi": 62,
          "time": 47.61493062499999,
          "velocity": 0.3937007874015748,
          "duration": 0.5172412499999979
        },
        {
          "name": "A#4",
          "midi": 70,
          "time": 47.93102249999999,
          "velocity": 0.3937007874015748,
          "duration": 0.17241374999999692
        },
        {
          "name": "F2",
          "midi": 41,
          "time": 47.93102249999999,
          "velocity": 0.3937007874015748,
          "duration": 0.34482750000000095
        },
        {
          "name": "C5",
          "midi": 72,
          "time": 48.10343624999999,
          "velocity": 0.3937007874015748,
          "duration": 0.17241375000000403
        },
        {
          "name": "A#4",
          "midi": 70,
          "time": 48.27584999999999,
          "velocity": 0.3937007874015748,
          "duration": 0.34482750000000095
        },
        {
          "name": "E2",
          "midi": 40,
          "time": 48.27584999999999,
          "velocity": 0.3937007874015748,
          "duration": 0.6896550000000019
        },
        {
          "name": "G4",
          "midi": 67,
          "time": 48.96550499999999,
          "velocity": 0.3937007874015748,
          "duration": 0.34482750000000095
        },
        {
          "name": "G3",
          "midi": 55,
          "time": 48.96550499999999,
          "velocity": 0.3937007874015748,
          "duration": 0.6896550000000019
        },
        {
          "name": "D4",
          "midi": 62,
          "time": 48.994240624999996,
          "velocity": 0.3937007874015748,
          "duration": 0.5172412499999979
        },
        {
          "name": "E2",
          "midi": 40,
          "time": 49.310332499999994,
          "velocity": 0.3937007874015748,
          "duration": 0.34482750000000095
        },
        {
          "name": "D#2",
          "midi": 39,
          "time": 49.655159999999995,
          "velocity": 0.3937007874015748,
          "duration": 0.34482750000000095
        },
        {
          "name": "F#4",
          "midi": 66,
          "time": 49.999987499999996,
          "velocity": 0.3937007874015748,
          "duration": 0.34482750000000095
        },
        {
          "name": "G3",
          "midi": 55,
          "time": 49.999987499999996,
          "velocity": 0.3937007874015748,
          "duration": 0.34482750000000095
        },
        {
          "name": "D2",
          "midi": 38,
          "time": 49.999987499999996,
          "velocity": 0.3937007874015748,
          "duration": 0.34482750000000095
        },
        {
          "name": "D4",
          "midi": 62,
          "time": 50.028723125,
          "velocity": 0.3937007874015748,
          "duration": 0.34482750000000095
        },
        {
          "name": "G4",
          "midi": 67,
          "time": 50.344815,
          "velocity": 0.3937007874015748,
          "duration": 0.6896550000000019
        },
        {
          "name": "G3",
          "midi": 55,
          "time": 50.344815,
          "velocity": 0.3937007874015748,
          "duration": 0.34482750000000095
        },
        {
          "name": "C#2",
          "midi": 37,
          "time": 50.344815,
          "velocity": 0.3937007874015748,
          "duration": 0.34482750000000095
        },
        {
          "name": "D4",
          "midi": 62,
          "time": 50.373550625,
          "velocity": 0.3937007874015748,
          "duration": 0.34482750000000095
        },
        {
          "name": "D2",
          "midi": 38,
          "time": 50.6896425,
          "velocity": 0.3937007874015748,
          "duration": 0.34482750000000095
        },
        {
          "name": "F#4",
          "midi": 66,
          "time": 51.03447,
          "velocity": 0.3937007874015748,
          "duration": 0.34482750000000095
        },
        {
          "name": "G3",
          "midi": 55,
          "time": 51.03447,
          "velocity": 0.3937007874015748,
          "duration": 0.34482750000000095
        },
        {
          "name": "D#2",
          "midi": 39,
          "time": 51.03447,
          "velocity": 0.3937007874015748,
          "duration": 0.34482750000000095
        },
        {
          "name": "D4",
          "midi": 62,
          "time": 51.063205625,
          "velocity": 0.3937007874015748,
          "duration": 0.34482750000000095
        },
        {
          "name": "G4",
          "midi": 67,
          "time": 51.3792975,
          "velocity": 0.3937007874015748,
          "duration": 0.6896550000000019
        },
        {
          "name": "G3",
          "midi": 55,
          "time": 51.3792975,
          "velocity": 0.3937007874015748,
          "duration": 0.34482750000000095
        },
        {
          "name": "D2",
          "midi": 38,
          "time": 51.3792975,
          "velocity": 0.3937007874015748,
          "duration": 0.34482750000000095
        },
        {
          "name": "D4",
          "midi": 62,
          "time": 51.408033125,
          "velocity": 0.3937007874015748,
          "duration": 0.34482750000000095
        },
        {
          "name": "C#2",
          "midi": 37,
          "time": 51.724125,
          "velocity": 0.3937007874015748,
          "duration": 0.34482750000000095
        },
        {
          "name": "A4",
          "midi": 69,
          "time": 52.0689525,
          "velocity": 0.3937007874015748,
          "duration": 0.34482750000000095
        },
        {
          "name": "G3",
          "midi": 55,
          "time": 52.0689525,
          "velocity": 0.3937007874015748,
          "duration": 0.34482750000000095
        },
        {
          "name": "D2",
          "midi": 38,
          "time": 52.0689525,
          "velocity": 0.3937007874015748,
          "duration": 0.34482750000000095
        },
        {
          "name": "D4",
          "midi": 62,
          "time": 52.097688125000005,
          "velocity": 0.3937007874015748,
          "duration": 0.34482750000000095
        },
        {
          "name": "A#4",
          "midi": 70,
          "time": 52.41378,
          "velocity": 0.3937007874015748,
          "duration": 0.6896550000000019
        },
        {
          "name": "G3",
          "midi": 55,
          "time": 52.41378,
          "velocity": 0.3937007874015748,
          "duration": 0.6896550000000019
        },
        {
          "name": "D#2",
          "midi": 39,
          "time": 52.41378,
          "velocity": 0.3937007874015748,
          "duration": 0.34482750000000095
        },
        {
          "name": "D4",
          "midi": 62,
          "time": 52.442515625000006,
          "velocity": 0.3937007874015748,
          "duration": 0.5172412499999979
        },
        {
          "name": "D2",
          "midi": 38,
          "time": 52.758607500000004,
          "velocity": 0.3937007874015748,
          "duration": 0.34482750000000095
        },
        {
          "name": "A4",
          "midi": 69,
          "time": 53.103435000000005,
          "velocity": 0.3937007874015748,
          "duration": 0.34482750000000095
        },
        {
          "name": "G3",
          "midi": 55,
          "time": 53.103435000000005,
          "velocity": 0.3937007874015748,
          "duration": 0.34482750000000095
        },
        {
          "name": "D4",
          "midi": 62,
          "time": 53.13217062500001,
          "velocity": 0.3937007874015748,
          "duration": 0.34482750000000095
        },
        {
          "name": "A#4",
          "midi": 70,
          "time": 53.448262500000006,
          "velocity": 0.3937007874015748,
          "duration": 0.6896550000000019
        },
        {
          "name": "G3",
          "midi": 55,
          "time": 53.448262500000006,
          "velocity": 0.3937007874015748,
          "duration": 0.34482750000000095
        },
        {
          "name": "D2",
          "midi": 38,
          "time": 53.448262500000006,
          "velocity": 0.3937007874015748,
          "duration": 0.34482750000000095
        },
        {
          "name": "D4",
          "midi": 62,
          "time": 53.47699812500001,
          "velocity": 0.3937007874015748,
          "duration": 0.34482750000000095
        },
        {
          "name": "D#2",
          "midi": 39,
          "time": 53.79309000000001,
          "velocity": 0.3937007874015748,
          "duration": 0.34482750000000095
        },
        {
          "name": "C5",
          "midi": 72,
          "time": 54.13791750000001,
          "velocity": 0.3937007874015748,
          "duration": 0.34482750000000095
        },
        {
          "name": "G3",
          "midi": 55,
          "time": 54.13791750000001,
          "velocity": 0.3937007874015748,
          "duration": 0.34482750000000095
        },
        {
          "name": "D2",
          "midi": 38,
          "time": 54.13791750000001,
          "velocity": 0.3937007874015748,
          "duration": 0.34482750000000095
        },
        {
          "name": "D4",
          "midi": 62,
          "time": 54.16665312500001,
          "velocity": 0.3937007874015748,
          "duration": 0.34482750000000095
        },
        {
          "name": "C#5",
          "midi": 73,
          "time": 54.48274500000001,
          "velocity": 0.3937007874015748,
          "duration": 0.6896550000000019
        },
        {
          "name": "G3",
          "midi": 55,
          "time": 54.48274500000001,
          "velocity": 0.3937007874015748,
          "duration": 0.34482750000000095
        },
        {
          "name": "C#2",
          "midi": 37,
          "time": 54.48274500000001,
          "velocity": 0.3937007874015748,
          "duration": 0.34482750000000095
        },
        {
          "name": "D4",
          "midi": 62,
          "time": 54.51148062500001,
          "velocity": 0.3937007874015748,
          "duration": 0.34482750000000095
        },
        {
          "name": "F#2",
          "midi": 42,
          "time": 54.82757250000001,
          "velocity": 0.3937007874015748,
          "duration": 0.34482750000000095
        },
        {
          "name": "G2",
          "midi": 43,
          "time": 55.17240000000001,
          "velocity": 0.3937007874015748,
          "duration": 0.6896549999999948
        },
        {
          "name": "D5",
          "midi": 74,
          "time": 55.51722750000001,
          "velocity": 0.3937007874015748,
          "duration": 0.17241374999999692
        },
        {
          "name": "D#5",
          "midi": 75,
          "time": 55.68964125000001,
          "velocity": 0.3937007874015748,
          "duration": 0.17241374999999692
        },
        {
          "name": "D5",
          "midi": 74,
          "time": 55.862055000000005,
          "velocity": 0.3937007874015748,
          "duration": 0.34482750000000095
        },
        {
          "name": "G3",
          "midi": 55,
          "time": 55.862055000000005,
          "velocity": 0.3937007874015748,
          "duration": 0.6896550000000019
        },
        {
          "name": "D4",
          "midi": 62,
          "time": 55.89079062500001,
          "velocity": 0.3937007874015748,
          "duration": 0.5172412499999979
        },
        {
          "name": "C#5",
          "midi": 73,
          "time": 56.206882500000006,
          "velocity": 0.3937007874015748,
          "duration": 0.34482750000000095
        },
        {
          "name": "G2",
          "midi": 43,
          "time": 56.206882500000006,
          "velocity": 0.3937007874015748,
          "duration": 0.34482750000000095
        },
        {
          "name": "C#5",
          "midi": 73,
          "time": 56.55171000000001,
          "velocity": 0.3937007874015748,
          "duration": 0.34482750000000095
        },
        {
          "name": "F#2",
          "midi": 42,
          "time": 56.55171000000001,
          "velocity": 0.3937007874015748,
          "duration": 0.6896550000000019
        },
        {
          "name": "D5",
          "midi": 74,
          "time": 56.89653750000001,
          "velocity": 0.3937007874015748,
          "duration": 0.34482750000000095
        },
        {
          "name": "A#4",
          "midi": 70,
          "time": 57.24136500000001,
          "velocity": 0.3937007874015748,
          "duration": 0.34482750000000095
        },
        {
          "name": "G3",
          "midi": 55,
          "time": 57.24136500000001,
          "velocity": 0.3937007874015748,
          "duration": 0.6896550000000019
        },
        {
          "name": "D4",
          "midi": 62,
          "time": 57.27010062500001,
          "velocity": 0.3937007874015748,
          "duration": 0.5172412499999979
        },
        {
          "name": "A4",
          "midi": 69,
          "time": 57.58619250000001,
          "velocity": 0.3937007874015748,
          "duration": 0.34482750000000095
        },
        {
          "name": "F#2",
          "midi": 42,
          "time": 57.58619250000001,
          "velocity": 0.3937007874015748,
          "duration": 0.34482750000000095
        },
        {
          "name": "F2",
          "midi": 41,
          "time": 57.93102000000001,
          "velocity": 0.3937007874015748,
          "duration": 0.6896550000000019
        },
        {
          "name": "C5",
          "midi": 72,
          "time": 58.27584750000001,
          "velocity": 0.3937007874015748,
          "duration": 0.34482750000000095
        },
        {
          "name": "A#4",
          "midi": 70,
          "time": 58.62067500000001,
          "velocity": 0.3937007874015748,
          "duration": 0.34482750000000095
        },
        {
          "name": "G3",
          "midi": 55,
          "time": 58.62067500000001,
          "velocity": 0.3937007874015748,
          "duration": 0.6896550000000019
        },
        {
          "name": "D4",
          "midi": 62,
          "time": 58.649410625000016,
          "velocity": 0.3937007874015748,
          "duration": 0.5172412499999979
        },
        {
          "name": "A4",
          "midi": 69,
          "time": 58.965502500000014,
          "velocity": 0.3937007874015748,
          "duration": 0.34482750000000095
        },
        {
          "name": "F2",
          "midi": 41,
          "time": 58.965502500000014,
          "velocity": 0.3937007874015748,
          "duration": 0.34482750000000095
        },
        {
          "name": "A4",
          "midi": 69,
          "time": 59.310330000000015,
          "velocity": 0.3937007874015748,
          "duration": 0.34482750000000095
        },
        {
          "name": "E2",
          "midi": 40,
          "time": 59.310330000000015,
          "velocity": 0.3937007874015748,
          "duration": 0.6896550000000019
        },
        {
          "name": "A#4",
          "midi": 70,
          "time": 59.99998500000002,
          "velocity": 0.3937007874015748,
          "duration": 0.34482750000000095
        },
        {
          "name": "G3",
          "midi": 55,
          "time": 59.99998500000002,
          "velocity": 0.3937007874015748,
          "duration": 0.6896550000000019
        },
        {
          "name": "D4",
          "midi": 62,
          "time": 60.02872062500002,
          "velocity": 0.3937007874015748,
          "duration": 0.5172412499999979
        },
        {
          "name": "E2",
          "midi": 40,
          "time": 60.34481250000002,
          "velocity": 0.3937007874015748,
          "duration": 0.34482750000000095
        },
        {
          "name": "F#4",
          "midi": 66,
          "time": 60.68964000000002,
          "velocity": 0.3937007874015748,
          "duration": 0.34482750000000095
        },
        {
          "name": "D#2",
          "midi": 39,
          "time": 60.68964000000002,
          "velocity": 0.3937007874015748,
          "duration": 0.34482750000000095
        },
        {
          "name": "G4",
          "midi": 67,
          "time": 61.03446750000002,
          "velocity": 0.3937007874015748,
          "duration": 0.34482750000000095
        },
        {
          "name": "D2",
          "midi": 38,
          "time": 61.03446750000002,
          "velocity": 0.3937007874015748,
          "duration": 0.34482750000000095
        },
        {
          "name": "D4",
          "midi": 62,
          "time": 61.37929500000002,
          "velocity": 0.3937007874015748,
          "duration": 0.34482750000000095
        },
        {
          "name": "G3",
          "midi": 55,
          "time": 61.37929500000002,
          "velocity": 0.3937007874015748,
          "duration": 0.34482750000000095
        },
        {
          "name": "C#2",
          "midi": 37,
          "time": 61.37929500000002,
          "velocity": 0.3937007874015748,
          "duration": 0.34482750000000095
        },
        {
          "name": "D4",
          "midi": 62,
          "time": 61.40803062500002,
          "velocity": 0.3937007874015748,
          "duration": 0.34482750000000095
        },
        {
          "name": "F#4",
          "midi": 66,
          "time": 61.72412250000002,
          "velocity": 0.3937007874015748,
          "duration": 0.34482750000000095
        },
        {
          "name": "D2",
          "midi": 38,
          "time": 61.72412250000002,
          "velocity": 0.3937007874015748,
          "duration": 0.34482750000000095
        },
        {
          "name": "G4",
          "midi": 67,
          "time": 62.06895000000002,
          "velocity": 0.3937007874015748,
          "duration": 0.34482750000000095
        },
        {
          "name": "G3",
          "midi": 55,
          "time": 62.06895000000002,
          "velocity": 0.3937007874015748,
          "duration": 0.34482750000000095
        },
        {
          "name": "D#2",
          "midi": 39,
          "time": 62.06895000000002,
          "velocity": 0.3937007874015748,
          "duration": 0.34482750000000095
        },
        {
          "name": "D4",
          "midi": 62,
          "time": 62.097685625000025,
          "velocity": 0.3937007874015748,
          "duration": 0.34482750000000095
        },
        {
          "name": "D4",
          "midi": 62,
          "time": 62.41377750000002,
          "velocity": 0.3937007874015748,
          "duration": 0.34482750000000095
        },
        {
          "name": "G3",
          "midi": 55,
          "time": 62.41377750000002,
          "velocity": 0.3937007874015748,
          "duration": 0.34482750000000095
        },
        {
          "name": "D2",
          "midi": 38,
          "time": 62.41377750000002,
          "velocity": 0.3937007874015748,
          "duration": 0.34482750000000095
        },
        {
          "name": "D4",
          "midi": 62,
          "time": 62.442513125000026,
          "velocity": 0.3937007874015748,
          "duration": 0.34482750000000095
        },
        {
          "name": "A#4",
          "midi": 70,
          "time": 62.758605000000024,
          "velocity": 0.3937007874015748,
          "duration": 0.34482750000000095
        },
        {
          "name": "C#2",
          "midi": 37,
          "time": 62.758605000000024,
          "velocity": 0.3937007874015748,
          "duration": 0.34482750000000095
        },
        {
          "name": "A4",
          "midi": 69,
          "time": 63.103432500000025,
          "velocity": 0.3937007874015748,
          "duration": 0.34482750000000095
        },
        {
          "name": "G3",
          "midi": 55,
          "time": 63.103432500000025,
          "velocity": 0.3937007874015748,
          "duration": 0.34482750000000095
        },
        {
          "name": "D2",
          "midi": 38,
          "time": 63.103432500000025,
          "velocity": 0.3937007874015748,
          "duration": 0.34482750000000095
        },
        {
          "name": "D4",
          "midi": 62,
          "time": 63.13216812500003,
          "velocity": 0.3937007874015748,
          "duration": 0.34482750000000095
        },
        {
          "name": "D4",
          "midi": 62,
          "time": 63.448260000000026,
          "velocity": 0.3937007874015748,
          "duration": 0.34482750000000095
        },
        {
          "name": "G3",
          "midi": 55,
          "time": 63.448260000000026,
          "velocity": 0.3937007874015748,
          "duration": 0.6896549999999948
        },
        {
          "name": "D#2",
          "midi": 39,
          "time": 63.448260000000026,
          "velocity": 0.3937007874015748,
          "duration": 0.34482750000000095
        },
        {
          "name": "D4",
          "midi": 62,
          "time": 63.47699562500003,
          "velocity": 0.3937007874015748,
          "duration": 0.5172412499999979
        },
        {
          "name": "D5",
          "midi": 74,
          "time": 63.79308750000003,
          "velocity": 0.3937007874015748,
          "duration": 0.34482749999999385
        },
        {
          "name": "D2",
          "midi": 38,
          "time": 63.79308750000003,
          "velocity": 0.3937007874015748,
          "duration": 0.34482749999999385
        },
        {
          "name": "D5",
          "midi": 74,
          "time": 64.13791500000002,
          "velocity": 0.3937007874015748,
          "duration": 0.34482749999999385
        },
        {
          "name": "G3",
          "midi": 55,
          "time": 64.13791500000002,
          "velocity": 0.3937007874015748,
          "duration": 0.34482749999999385
        },
        {
          "name": "D4",
          "midi": 62,
          "time": 64.16665062500002,
          "velocity": 0.3937007874015748,
          "duration": 0.34482749999999385
        },
        {
          "name": "D5",
          "midi": 74,
          "time": 64.48274250000001,
          "velocity": 0.3937007874015748,
          "duration": 0.34482749999999385
        },
        {
          "name": "G3",
          "midi": 55,
          "time": 64.48274250000001,
          "velocity": 0.3937007874015748,
          "duration": 0.34482749999999385
        },
        {
          "name": "F#2",
          "midi": 42,
          "time": 64.48274250000001,
          "velocity": 0.3937007874015748,
          "duration": 0.34482749999999385
        },
        {
          "name": "D4",
          "midi": 62,
          "time": 64.51147812500001,
          "velocity": 0.3937007874015748,
          "duration": 0.34482749999999385
        },
        {
          "name": "G5",
          "midi": 79,
          "time": 64.82757000000001,
          "velocity": 0.3937007874015748,
          "duration": 0.6896549999999877
        },
        {
          "name": "G3",
          "midi": 55,
          "time": 64.82757000000001,
          "velocity": 0.3937007874015748,
          "duration": 0.34482749999999385
        },
        {
          "name": "G2",
          "midi": 43,
          "time": 64.82757000000001,
          "velocity": 0.3937007874015748,
          "duration": 0.6896549999999877
        },
        {
          "name": "D4",
          "midi": 62,
          "time": 64.856305625,
          "velocity": 0.3937007874015748,
          "duration": 0.34482749999999385
        },
        {
          "name": "G4",
          "midi": 67,
          "time": 65.517225,
          "velocity": 0.3937007874015748,
          "duration": 0.17241375000000403
        },
        {
          "name": "G1",
          "midi": 31,
          "time": 65.517225,
          "velocity": 0.3937007874015748,
          "duration": 0.6896550000000019
        },
        {
          "name": "F5",
          "midi": 77,
          "time": 66.20688,
          "velocity": 0.3937007874015748,
          "duration": 0.17241375000000403
        },
        {
          "name": "D2",
          "midi": 38,
          "time": 66.20688,
          "velocity": 0.3937007874015748,
          "duration": 0.6896550000000019
        },
        {
          "name": "D5",
          "midi": 74,
          "time": 66.896535,
          "velocity": 0.3937007874015748,
          "duration": 0.17241374999998982
        },
        {
          "name": "A3",
          "midi": 57,
          "time": 66.896535,
          "velocity": 0.3937007874015748,
          "duration": 0.6896549999999877
        },
        {
          "name": "F4",
          "midi": 65,
          "time": 66.925270625,
          "velocity": 0.3937007874015748,
          "duration": 0.5172412499999979
        },
        {
          "name": "F5",
          "midi": 77,
          "time": 67.2413625,
          "velocity": 0.3937007874015748,
          "duration": 0.17241375000000403
        },
        {
          "name": "F2",
          "midi": 41,
          "time": 67.2413625,
          "velocity": 0.3937007874015748,
          "duration": 0.34482749999999385
        },
        {
          "name": "E5",
          "midi": 76,
          "time": 67.58618999999999,
          "velocity": 0.3937007874015748,
          "duration": 0.17241375000000403
        },
        {
          "name": "E2",
          "midi": 40,
          "time": 67.58618999999999,
          "velocity": 0.3937007874015748,
          "duration": 0.6896550000000019
        },
        {
          "name": "C#5",
          "midi": 73,
          "time": 68.27584499999999,
          "velocity": 0.3937007874015748,
          "duration": 0.17241374999998982
        },
        {
          "name": "A#3",
          "midi": 58,
          "time": 68.27584499999999,
          "velocity": 0.3937007874015748,
          "duration": 0.6896549999999877
        },
        {
          "name": "G4",
          "midi": 67,
          "time": 68.30458062499999,
          "velocity": 0.3937007874015748,
          "duration": 0.5172412499999979
        },
        {
          "name": "A2",
          "midi": 45,
          "time": 68.62067249999998,
          "velocity": 0.3937007874015748,
          "duration": 0.34482749999999385
        },
        {
          "name": "G2",
          "midi": 43,
          "time": 68.96549999999998,
          "velocity": 0.3937007874015748,
          "duration": 0.6896550000000019
        },
        {
          "name": "A#3",
          "midi": 58,
          "time": 69.65515499999998,
          "velocity": 0.3937007874015748,
          "duration": 0.6896549999999877
        },
        {
          "name": "G4",
          "midi": 67,
          "time": 69.68389062499998,
          "velocity": 0.3937007874015748,
          "duration": 0.5172412499999979
        },
        {
          "name": "F2",
          "midi": 41,
          "time": 69.99998249999997,
          "velocity": 0.3937007874015748,
          "duration": 0.34482749999999385
        },
        {
          "name": "E2",
          "midi": 40,
          "time": 70.34480999999997,
          "velocity": 0.3937007874015748,
          "duration": 0.6896550000000019
        },
        {
          "name": "G3",
          "midi": 55,
          "time": 71.03446499999997,
          "velocity": 0.3937007874015748,
          "duration": 0.6896549999999877
        },
        {
          "name": "A1",
          "midi": 33,
          "time": 71.03446499999997,
          "velocity": 0.3937007874015748,
          "duration": 0.6896549999999877
        },
        {
          "name": "E4",
          "midi": 64,
          "time": 71.06320062499996,
          "velocity": 0.3937007874015748,
          "duration": 0.5172412499999979
        },
        {
          "name": "F5",
          "midi": 77,
          "time": 71.72411999999996,
          "velocity": 0.3937007874015748,
          "duration": 0.17241375000000403
        },
        {
          "name": "D2",
          "midi": 38,
          "time": 71.72411999999996,
          "velocity": 0.3937007874015748,
          "duration": 0.6896550000000019
        },
        {
          "name": "D5",
          "midi": 74,
          "time": 72.41377499999996,
          "velocity": 0.3937007874015748,
          "duration": 0.17241374999998982
        },
        {
          "name": "A3",
          "midi": 57,
          "time": 72.41377499999996,
          "velocity": 0.3937007874015748,
          "duration": 0.6896549999999877
        },
        {
          "name": "F4",
          "midi": 65,
          "time": 72.44251062499995,
          "velocity": 0.3937007874015748,
          "duration": 0.5172412499999979
        },
        {
          "name": "F5",
          "midi": 77,
          "time": 72.75860249999995,
          "velocity": 0.3937007874015748,
          "duration": 0.17241375000000403
        },
        {
          "name": "F2",
          "midi": 41,
          "time": 72.75860249999995,
          "velocity": 0.3937007874015748,
          "duration": 0.34482749999999385
        },
        {
          "name": "E5",
          "midi": 76,
          "time": 73.10342999999995,
          "velocity": 0.3937007874015748,
          "duration": 0.17241375000000403
        },
        {
          "name": "E2",
          "midi": 40,
          "time": 73.10342999999995,
          "velocity": 0.3937007874015748,
          "duration": 0.6896550000000019
        },
        {
          "name": "C#5",
          "midi": 73,
          "time": 73.79308499999995,
          "velocity": 0.3937007874015748,
          "duration": 0.17241374999998982
        },
        {
          "name": "A#3",
          "midi": 58,
          "time": 73.79308499999995,
          "velocity": 0.3937007874015748,
          "duration": 0.6896549999999877
        },
        {
          "name": "G4",
          "midi": 67,
          "time": 73.82182062499994,
          "velocity": 0.3937007874015748,
          "duration": 0.5172412499999979
        },
        {
          "name": "F2",
          "midi": 41,
          "time": 74.13791249999994,
          "velocity": 0.3937007874015748,
          "duration": 0.34482749999999385
        },
        {
          "name": "G2",
          "midi": 43,
          "time": 74.48273999999994,
          "velocity": 0.3937007874015748,
          "duration": 0.6896550000000019
        },
        {
          "name": "A#3",
          "midi": 58,
          "time": 75.17239499999994,
          "velocity": 0.3937007874015748,
          "duration": 0.6896549999999877
        },
        {
          "name": "G#2",
          "midi": 44,
          "time": 75.17239499999994,
          "velocity": 0.3937007874015748,
          "duration": 0.6896549999999877
        },
        {
          "name": "G4",
          "midi": 67,
          "time": 75.20113062499993,
          "velocity": 0.3937007874015748,
          "duration": 0.5172412499999979
        },
        {
          "name": "C#4",
          "midi": 61,
          "time": 75.86204999999993,
          "velocity": 0.3937007874015748,
          "duration": 0.6896549999999877
        },
        {
          "name": "A2",
          "midi": 45,
          "time": 75.86204999999993,
          "velocity": 0.3937007874015748,
          "duration": 0.6896549999999877
        },
        {
          "name": "A4",
          "midi": 69,
          "time": 75.89078562499992,
          "velocity": 0.3937007874015748,
          "duration": 0.5172412499999979
        },
        {
          "name": "A1",
          "midi": 33,
          "time": 76.55170499999991,
          "velocity": 0.3937007874015748,
          "duration": 0.6896550000000019
        },
        {
          "name": "F5",
          "midi": 77,
          "time": 77.24135999999991,
          "velocity": 0.3937007874015748,
          "duration": 0.17241375000000403
        },
        {
          "name": "D2",
          "midi": 38,
          "time": 77.24135999999991,
          "velocity": 0.3937007874015748,
          "duration": 0.6896550000000019
        },
        {
          "name": "D5",
          "midi": 74,
          "time": 77.93101499999992,
          "velocity": 0.3937007874015748,
          "duration": 0.17241374999998982
        },
        {
          "name": "A3",
          "midi": 57,
          "time": 77.93101499999992,
          "velocity": 0.3937007874015748,
          "duration": 0.6896549999999877
        },
        {
          "name": "F4",
          "midi": 65,
          "time": 77.95975062499991,
          "velocity": 0.3937007874015748,
          "duration": 0.5172412499999979
        },
        {
          "name": "F5",
          "midi": 77,
          "time": 78.27584249999991,
          "velocity": 0.3937007874015748,
          "duration": 0.17241375000000403
        },
        {
          "name": "F2",
          "midi": 41,
          "time": 78.27584249999991,
          "velocity": 0.3937007874015748,
          "duration": 0.34482749999999385
        },
        {
          "name": "E5",
          "midi": 76,
          "time": 78.6206699999999,
          "velocity": 0.3937007874015748,
          "duration": 0.17241375000000403
        },
        {
          "name": "E2",
          "midi": 40,
          "time": 78.6206699999999,
          "velocity": 0.3937007874015748,
          "duration": 0.6896550000000019
        },
        {
          "name": "C#5",
          "midi": 73,
          "time": 79.3103249999999,
          "velocity": 0.3937007874015748,
          "duration": 0.17241374999998982
        },
        {
          "name": "A#3",
          "midi": 58,
          "time": 79.3103249999999,
          "velocity": 0.3937007874015748,
          "duration": 0.6896549999999877
        },
        {
          "name": "G4",
          "midi": 67,
          "time": 79.3390606249999,
          "velocity": 0.3937007874015748,
          "duration": 0.5172412499999979
        },
        {
          "name": "A2",
          "midi": 45,
          "time": 79.6551524999999,
          "velocity": 0.3937007874015748,
          "duration": 0.34482749999999385
        },
        {
          "name": "G2",
          "midi": 43,
          "time": 79.9999799999999,
          "velocity": 0.3937007874015748,
          "duration": 0.6896550000000019
        },
        {
          "name": "A#3",
          "midi": 58,
          "time": 80.6896349999999,
          "velocity": 0.3937007874015748,
          "duration": 0.6896549999999877
        },
        {
          "name": "G4",
          "midi": 67,
          "time": 80.71837062499989,
          "velocity": 0.3937007874015748,
          "duration": 0.5172412499999979
        },
        {
          "name": "A#5",
          "midi": 82,
          "time": 81.03446249999989,
          "velocity": 0.3937007874015748,
          "duration": 0.17241375000000403
        },
        {
          "name": "F2",
          "midi": 41,
          "time": 81.03446249999989,
          "velocity": 0.3937007874015748,
          "duration": 0.34482749999999385
        },
        {
          "name": "A5",
          "midi": 81,
          "time": 81.37928999999988,
          "velocity": 0.3937007874015748,
          "duration": 0.17241375000000403
        },
        {
          "name": "E2",
          "midi": 40,
          "time": 81.37928999999988,
          "velocity": 0.3937007874015748,
          "duration": 0.6896550000000161
        },
        {
          "name": "G5",
          "midi": 79,
          "time": 81.72411749999989,
          "velocity": 0.3937007874015748,
          "duration": 0.17241375000000403
        },
        {
          "name": "F5",
          "midi": 77,
          "time": 82.0689449999999,
          "velocity": 0.3937007874015748,
          "duration": 0.17241374999998982
        },
        {
          "name": "G3",
          "midi": 55,
          "time": 82.0689449999999,
          "velocity": 0.3937007874015748,
          "duration": 0.6896549999999877
        },
        {
          "name": "A1",
          "midi": 33,
          "time": 82.0689449999999,
          "velocity": 0.3937007874015748,
          "duration": 0.6896549999999877
        },
        {
          "name": "E4",
          "midi": 64,
          "time": 82.0976806249999,
          "velocity": 0.3937007874015748,
          "duration": 0.5172412499999979
        },
        {
          "name": "E5",
          "midi": 76,
          "time": 82.4137724999999,
          "velocity": 0.3937007874015748,
          "duration": 0.17241375000000403
        },
        {
          "name": "F5",
          "midi": 77,
          "time": 82.75859999999989,
          "velocity": 0.3937007874015748,
          "duration": 0.17241375000000403
        },
        {
          "name": "D2",
          "midi": 38,
          "time": 82.75859999999989,
          "velocity": 0.3937007874015748,
          "duration": 0.6896550000000019
        },
        {
          "name": "D5",
          "midi": 74,
          "time": 83.44825499999989,
          "velocity": 0.3937007874015748,
          "duration": 0.17241374999998982
        },
        {
          "name": "A3",
          "midi": 57,
          "time": 83.44825499999989,
          "velocity": 0.3937007874015748,
          "duration": 0.6896549999999877
        },
        {
          "name": "F4",
          "midi": 65,
          "time": 83.47699062499989,
          "velocity": 0.3937007874015748,
          "duration": 0.5172412499999979
        },
        {
          "name": "F5",
          "midi": 77,
          "time": 83.79308249999988,
          "velocity": 0.3937007874015748,
          "duration": 0.17241375000000403
        },
        {
          "name": "F2",
          "midi": 41,
          "time": 83.79308249999988,
          "velocity": 0.3937007874015748,
          "duration": 0.34482749999999385
        },
        {
          "name": "E5",
          "midi": 76,
          "time": 84.13790999999988,
          "velocity": 0.3937007874015748,
          "duration": 0.17241375000000403
        },
        {
          "name": "E2",
          "midi": 40,
          "time": 84.13790999999988,
          "velocity": 0.3937007874015748,
          "duration": 0.6896550000000019
        },
        {
          "name": "C#5",
          "midi": 73,
          "time": 84.82756499999988,
          "velocity": 0.3937007874015748,
          "duration": 0.17241374999998982
        },
        {
          "name": "A#3",
          "midi": 58,
          "time": 84.82756499999988,
          "velocity": 0.3937007874015748,
          "duration": 0.6896549999999877
        },
        {
          "name": "C#2",
          "midi": 37,
          "time": 84.82756499999988,
          "velocity": 0.3937007874015748,
          "duration": 0.6896549999999877
        },
        {
          "name": "G4",
          "midi": 67,
          "time": 84.85630062499988,
          "velocity": 0.3937007874015748,
          "duration": 0.5172412499999979
        },
        {
          "name": "C#5",
          "midi": 73,
          "time": 86.20687499999987,
          "velocity": 0.3937007874015748,
          "duration": 0.17241374999998982
        },
        {
          "name": "A3",
          "midi": 57,
          "time": 86.20687499999987,
          "velocity": 0.3937007874015748,
          "duration": 0.6896549999999877
        },
        {
          "name": "A1",
          "midi": 33,
          "time": 86.20687499999987,
          "velocity": 0.3937007874015748,
          "duration": 0.6896549999999877
        },
        {
          "name": "A4",
          "midi": 69,
          "time": 86.23561062499986,
          "velocity": 0.3937007874015748,
          "duration": 0.5172412499999979
        },
        {
          "name": "D5",
          "midi": 74,
          "time": 86.89652999999986,
          "velocity": 0.3937007874015748,
          "duration": 0.17241374999998982
        },
        {
          "name": "D4",
          "midi": 62,
          "time": 86.89652999999986,
          "velocity": 0.3937007874015748,
          "duration": 0.6896549999999877
        },
        {
          "name": "D2",
          "midi": 38,
          "time": 86.89652999999986,
          "velocity": 0.3937007874015748,
          "duration": 0.6896549999999877
        },
        {
          "name": "A4",
          "midi": 69,
          "time": 86.92526562499985,
          "velocity": 0.3937007874015748,
          "duration": 0.5172412499999979
        },
        {
          "name": "A3",
          "midi": 57,
          "time": 87.58618499999984,
          "velocity": 0.3937007874015748,
          "duration": 0.6896550000000019
        },
        {
          "name": "A1",
          "midi": 33,
          "time": 87.58618499999984,
          "velocity": 0.3937007874015748,
          "duration": 0.6896550000000019
        },
        {
          "name": "D2",
          "midi": 38,
          "time": 88.27583999999985,
          "velocity": 0.3937007874015748,
          "duration": 0.6896550000000019
        },
        {
          "name": "A3",
          "midi": 57,
          "time": 88.96549499999985,
          "velocity": 0.3937007874015748,
          "duration": 0.6896549999999877
        },
        {
          "name": "F4",
          "midi": 65,
          "time": 88.99423062499984,
          "velocity": 0.3937007874015748,
          "duration": 0.5172412499999979
        },
        {
          "name": "F2",
          "midi": 41,
          "time": 89.31032249999984,
          "velocity": 0.3937007874015748,
          "duration": 0.34482749999999385
        },
        {
          "name": "E2",
          "midi": 40,
          "time": 89.65514999999984,
          "velocity": 0.3937007874015748,
          "duration": 0.6896550000000019
        },
        {
          "name": "A#3",
          "midi": 58,
          "time": 90.34480499999984,
          "velocity": 0.3937007874015748,
          "duration": 0.6896549999999877
        },
        {
          "name": "G4",
          "midi": 67,
          "time": 90.37354062499983,
          "velocity": 0.3937007874015748,
          "duration": 0.5172412499999979
        },
        {
          "name": "A2",
          "midi": 45,
          "time": 90.68963249999983,
          "velocity": 0.3937007874015748,
          "duration": 0.34482749999999385
        },
        {
          "name": "G2",
          "midi": 43,
          "time": 91.03445999999983,
          "velocity": 0.3937007874015748,
          "duration": 0.6896550000000019
        },
        {
          "name": "A#3",
          "midi": 58,
          "time": 91.72411499999983,
          "velocity": 0.3937007874015748,
          "duration": 0.6896549999999877
        },
        {
          "name": "G4",
          "midi": 67,
          "time": 91.75285062499982,
          "velocity": 0.3937007874015748,
          "duration": 0.5172412499999979
        },
        {
          "name": "F2",
          "midi": 41,
          "time": 92.06894249999982,
          "velocity": 0.3937007874015748,
          "duration": 0.34482749999999385
        },
        {
          "name": "E2",
          "midi": 40,
          "time": 92.41376999999981,
          "velocity": 0.3937007874015748,
          "duration": 0.6896550000000019
        },
        {
          "name": "G3",
          "midi": 55,
          "time": 93.10342499999982,
          "velocity": 0.3937007874015748,
          "duration": 0.6896549999999877
        },
        {
          "name": "A1",
          "midi": 33,
          "time": 93.10342499999982,
          "velocity": 0.3937007874015748,
          "duration": 0.6896549999999877
        },
        {
          "name": "E4",
          "midi": 64,
          "time": 93.13216062499981,
          "velocity": 0.3937007874015748,
          "duration": 0.5172412499999979
        },
        {
          "name": "D2",
          "midi": 38,
          "time": 93.7930799999998,
          "velocity": 0.3937007874015748,
          "duration": 0.6896550000000019
        },
        {
          "name": "A3",
          "midi": 57,
          "time": 94.4827349999998,
          "velocity": 0.3937007874015748,
          "duration": 0.6896549999999877
        },
        {
          "name": "F4",
          "midi": 65,
          "time": 94.5114706249998,
          "velocity": 0.3937007874015748,
          "duration": 0.5172412499999979
        },
        {
          "name": "F2",
          "midi": 41,
          "time": 94.8275624999998,
          "velocity": 0.3937007874015748,
          "duration": 0.34482749999999385
        },
        {
          "name": "E2",
          "midi": 40,
          "time": 95.1723899999998,
          "velocity": 0.3937007874015748,
          "duration": 0.6896550000000019
        },
        {
          "name": "A#3",
          "midi": 58,
          "time": 95.8620449999998,
          "velocity": 0.3937007874015748,
          "duration": 0.6896549999999877
        },
        {
          "name": "G4",
          "midi": 67,
          "time": 95.89078062499979,
          "velocity": 0.3937007874015748,
          "duration": 0.5172412499999979
        },
        {
          "name": "F2",
          "midi": 41,
          "time": 96.20687249999979,
          "velocity": 0.3937007874015748,
          "duration": 0.34482749999999385
        },
        {
          "name": "G2",
          "midi": 43,
          "time": 96.55169999999978,
          "velocity": 0.3937007874015748,
          "duration": 0.6896550000000019
        },
        {
          "name": "A#3",
          "midi": 58,
          "time": 97.24135499999979,
          "velocity": 0.3937007874015748,
          "duration": 0.6896549999999877
        },
        {
          "name": "G#2",
          "midi": 44,
          "time": 97.24135499999979,
          "velocity": 0.3937007874015748,
          "duration": 0.6896549999999877
        },
        {
          "name": "G4",
          "midi": 67,
          "time": 97.27009062499978,
          "velocity": 0.3937007874015748,
          "duration": 0.5172412499999979
        },
        {
          "name": "C#4",
          "midi": 61,
          "time": 97.93100999999977,
          "velocity": 0.3937007874015748,
          "duration": 0.6896549999999877
        },
        {
          "name": "A2",
          "midi": 45,
          "time": 97.93100999999977,
          "velocity": 0.3937007874015748,
          "duration": 0.6896549999999877
        },
        {
          "name": "A4",
          "midi": 69,
          "time": 97.95974562499977,
          "velocity": 0.3937007874015748,
          "duration": 0.5172412499999979
        },
        {
          "name": "A1",
          "midi": 33,
          "time": 98.62066499999976,
          "velocity": 0.3937007874015748,
          "duration": 0.6896550000000019
        },
        {
          "name": "D2",
          "midi": 38,
          "time": 99.31031999999976,
          "velocity": 0.3937007874015748,
          "duration": 0.6896550000000019
        },
        {
          "name": "A3",
          "midi": 57,
          "time": 99.99997499999976,
          "velocity": 0.3937007874015748,
          "duration": 0.6896549999999877
        },
        {
          "name": "F4",
          "midi": 65,
          "time": 100.02871062499976,
          "velocity": 0.3937007874015748,
          "duration": 0.5172412499999979
        },
        {
          "name": "F2",
          "midi": 41,
          "time": 100.34480249999976,
          "velocity": 0.3937007874015748,
          "duration": 0.34482749999999385
        },
        {
          "name": "E2",
          "midi": 40,
          "time": 100.68962999999975,
          "velocity": 0.3937007874015748,
          "duration": 0.6896550000000019
        },
        {
          "name": "A#3",
          "midi": 58,
          "time": 101.37928499999975,
          "velocity": 0.3937007874015748,
          "duration": 0.6896549999999877
        },
        {
          "name": "G4",
          "midi": 67,
          "time": 101.40802062499975,
          "velocity": 0.3937007874015748,
          "duration": 0.5172412499999979
        },
        {
          "name": "A2",
          "midi": 45,
          "time": 101.72411249999975,
          "velocity": 0.3937007874015748,
          "duration": 0.34482749999999385
        },
        {
          "name": "G2",
          "midi": 43,
          "time": 102.06893999999974,
          "velocity": 0.3937007874015748,
          "duration": 0.6896550000000019
        },
        {
          "name": "A#3",
          "midi": 58,
          "time": 102.75859499999974,
          "velocity": 0.3937007874015748,
          "duration": 0.6896549999999877
        },
        {
          "name": "G4",
          "midi": 67,
          "time": 102.78733062499974,
          "velocity": 0.3937007874015748,
          "duration": 0.5172412499999979
        },
        {
          "name": "F2",
          "midi": 41,
          "time": 103.10342249999974,
          "velocity": 0.3937007874015748,
          "duration": 0.34482749999999385
        },
        {
          "name": "E2",
          "midi": 40,
          "time": 103.44824999999973,
          "velocity": 0.3937007874015748,
          "duration": 0.6896550000000019
        },
        {
          "name": "G3",
          "midi": 55,
          "time": 104.13790499999973,
          "velocity": 0.3937007874015748,
          "duration": 0.6896549999999877
        },
        {
          "name": "A1",
          "midi": 33,
          "time": 104.13790499999973,
          "velocity": 0.3937007874015748,
          "duration": 0.6896549999999877
        },
        {
          "name": "E4",
          "midi": 64,
          "time": 104.16664062499973,
          "velocity": 0.3937007874015748,
          "duration": 0.5172412499999979
        },
        {
          "name": "D2",
          "midi": 38,
          "time": 104.82755999999972,
          "velocity": 0.3937007874015748,
          "duration": 0.6896550000000019
        },
        {
          "name": "A3",
          "midi": 57,
          "time": 105.51721499999972,
          "velocity": 0.3937007874015748,
          "duration": 0.6896549999999877
        },
        {
          "name": "F4",
          "midi": 65,
          "time": 105.54595062499972,
          "velocity": 0.3937007874015748,
          "duration": 0.5172412499999979
        },
        {
          "name": "F2",
          "midi": 41,
          "time": 105.86204249999972,
          "velocity": 0.3937007874015748,
          "duration": 0.34482749999999385
        },
        {
          "name": "E2",
          "midi": 40,
          "time": 106.20686999999971,
          "velocity": 0.3937007874015748,
          "duration": 0.6896550000000019
        },
        {
          "name": "A#3",
          "midi": 58,
          "time": 106.89652499999971,
          "velocity": 0.3937007874015748,
          "duration": 0.6896549999999877
        },
        {
          "name": "C#2",
          "midi": 37,
          "time": 106.89652499999971,
          "velocity": 0.3937007874015748,
          "duration": 0.6896549999999877
        },
        {
          "name": "G4",
          "midi": 67,
          "time": 106.92526062499971,
          "velocity": 0.3937007874015748,
          "duration": 0.5172412499999979
        },
        {
          "name": "A3",
          "midi": 57,
          "time": 108.2758349999997,
          "velocity": 0.3937007874015748,
          "duration": 0.6896549999999877
        },
        {
          "name": "A1",
          "midi": 33,
          "time": 108.2758349999997,
          "velocity": 0.3937007874015748,
          "duration": 0.6896549999999877
        },
        {
          "name": "A4",
          "midi": 69,
          "time": 108.3045706249997,
          "velocity": 0.3937007874015748,
          "duration": 0.5172412499999979
        },
        {
          "name": "D4",
          "midi": 62,
          "time": 108.96548999999969,
          "velocity": 0.3937007874015748,
          "duration": 0.6896549999999877
        },
        {
          "name": "D2",
          "midi": 38,
          "time": 108.96548999999969,
          "velocity": 0.3937007874015748,
          "duration": 0.6896549999999877
        },
        {
          "name": "A4",
          "midi": 69,
          "time": 108.99422562499969,
          "velocity": 0.3937007874015748,
          "duration": 0.5172412499999979
        },
        {
          "name": "A3",
          "midi": 57,
          "time": 109.65514499999968,
          "velocity": 0.3937007874015748,
          "duration": 0.6896550000000019
        },
        {
          "name": "A1",
          "midi": 33,
          "time": 109.65514499999968,
          "velocity": 0.3937007874015748,
          "duration": 0.6896550000000019
        },
        {
          "name": "G2",
          "midi": 43,
          "time": 110.34479999999968,
          "velocity": 0.3937007874015748,
          "duration": 0.6896550000000019
        },
        {
          "name": "G4",
          "midi": 67,
          "time": 110.68962749999967,
          "velocity": 0.3937007874015748,
          "duration": 0.17241375000000403
        },
        {
          "name": "D#5",
          "midi": 75,
          "time": 110.68962749999967,
          "velocity": 0.3937007874015748,
          "duration": 0.17241375000000403
        },
        {
          "name": "D#5",
          "midi": 75,
          "time": 110.86204124999968,
          "velocity": 0.3937007874015748,
          "duration": 0.17241375000000403
        },
        {
          "name": "A#4",
          "midi": 70,
          "time": 111.03445499999968,
          "velocity": 0.3937007874015748,
          "duration": 0.17241374999998982
        },
        {
          "name": "D5",
          "midi": 74,
          "time": 111.03445499999968,
          "velocity": 0.3937007874015748,
          "duration": 0.34482749999999385
        },
        {
          "name": "G3",
          "midi": 55,
          "time": 111.03445499999968,
          "velocity": 0.3937007874015748,
          "duration": 0.6896549999999877
        },
        {
          "name": "D4",
          "midi": 62,
          "time": 111.06319062499968,
          "velocity": 0.3937007874015748,
          "duration": 0.5172412499999979
        },
        {
          "name": "D5",
          "midi": 74,
          "time": 111.37928249999968,
          "velocity": 0.3937007874015748,
          "duration": 0.34482749999999385
        },
        {
          "name": "G2",
          "midi": 43,
          "time": 111.37928249999968,
          "velocity": 0.3937007874015748,
          "duration": 0.34482749999999385
        },
        {
          "name": "G4",
          "midi": 67,
          "time": 111.72410999999967,
          "velocity": 0.3937007874015748,
          "duration": 0.17241375000000403
        },
        {
          "name": "C#5",
          "midi": 73,
          "time": 111.72410999999967,
          "velocity": 0.3937007874015748,
          "duration": 0.34482750000000806
        },
        {
          "name": "F#2",
          "midi": 42,
          "time": 111.72410999999967,
          "velocity": 0.3937007874015748,
          "duration": 0.6896550000000161
        },
        {
          "name": "A#4",
          "midi": 70,
          "time": 112.06893749999968,
          "velocity": 0.3937007874015748,
          "duration": 0.17241375000000403
        },
        {
          "name": "C#5",
          "midi": 73,
          "time": 112.06893749999968,
          "velocity": 0.3937007874015748,
          "duration": 0.34482750000000806
        },
        {
          "name": "D5",
          "midi": 74,
          "time": 112.41376499999969,
          "velocity": 0.3937007874015748,
          "duration": 0.34482749999999385
        },
        {
          "name": "G3",
          "midi": 55,
          "time": 112.41376499999969,
          "velocity": 0.3937007874015748,
          "duration": 0.6896549999999877
        },
        {
          "name": "D4",
          "midi": 62,
          "time": 112.44250062499968,
          "velocity": 0.3937007874015748,
          "duration": 0.5172412499999979
        },
        {
          "name": "G4",
          "midi": 67,
          "time": 112.75859249999968,
          "velocity": 0.3937007874015748,
          "duration": 0.17241375000000403
        },
        {
          "name": "A#4",
          "midi": 70,
          "time": 112.75859249999968,
          "velocity": 0.3937007874015748,
          "duration": 0.34482749999999385
        },
        {
          "name": "F#2",
          "midi": 42,
          "time": 112.75859249999968,
          "velocity": 0.3937007874015748,
          "duration": 0.34482749999999385
        },
        {
          "name": "C5",
          "midi": 72,
          "time": 113.10341999999967,
          "velocity": 0.3937007874015748,
          "duration": 0.17241375000000403
        },
        {
          "name": "A4",
          "midi": 69,
          "time": 113.10341999999967,
          "velocity": 0.3937007874015748,
          "duration": 0.34482750000000806
        },
        {
          "name": "F2",
          "midi": 41,
          "time": 113.10341999999967,
          "velocity": 0.3937007874015748,
          "duration": 0.6896550000000019
        },
        {
          "name": "G3",
          "midi": 55,
          "time": 113.79307499999967,
          "velocity": 0.3937007874015748,
          "duration": 0.6896549999999877
        },
        {
          "name": "D4",
          "midi": 62,
          "time": 113.82181062499967,
          "velocity": 0.3937007874015748,
          "duration": 0.5172412499999979
        },
        {
          "name": "A#4",
          "midi": 70,
          "time": 114.13790249999967,
          "velocity": 0.3937007874015748,
          "duration": 0.17241375000000403
        },
        {
          "name": "F2",
          "midi": 41,
          "time": 114.13790249999967,
          "velocity": 0.3937007874015748,
          "duration": 0.34482749999999385
        },
        {
          "name": "C5",
          "midi": 72,
          "time": 114.31031624999967,
          "velocity": 0.3937007874015748,
          "duration": 0.17241374999998982
        },
        {
          "name": "D5",
          "midi": 74,
          "time": 114.48272999999966,
          "velocity": 0.3937007874015748,
          "duration": 0.17241375000000403
        },
        {
          "name": "A#4",
          "midi": 70,
          "time": 114.48272999999966,
          "velocity": 0.3937007874015748,
          "duration": 0.34482750000000806
        },
        {
          "name": "E2",
          "midi": 40,
          "time": 114.48272999999966,
          "velocity": 0.3937007874015748,
          "duration": 0.6896550000000019
        },
        {
          "name": "A#4",
          "midi": 70,
          "time": 115.17238499999966,
          "velocity": 0.3937007874015748,
          "duration": 0.17241374999998982
        },
        {
          "name": "G3",
          "midi": 55,
          "time": 115.17238499999966,
          "velocity": 0.3937007874015748,
          "duration": 0.6896549999999877
        },
        {
          "name": "D4",
          "midi": 62,
          "time": 115.20112062499966,
          "velocity": 0.3937007874015748,
          "duration": 0.5172412499999979
        },
        {
          "name": "E2",
          "midi": 40,
          "time": 115.51721249999966,
          "velocity": 0.3937007874015748,
          "duration": 0.34482749999999385
        },
        {
          "name": "D#2",
          "midi": 39,
          "time": 115.86203999999965,
          "velocity": 0.3937007874015748,
          "duration": 0.34482749999999385
        },
        {
          "name": "D4",
          "midi": 62,
          "time": 116.20686749999965,
          "velocity": 0.3937007874015748,
          "duration": 0.17241374999998982
        },
        {
          "name": "F#4",
          "midi": 66,
          "time": 116.20686749999965,
          "velocity": 0.3937007874015748,
          "duration": 0.34482749999999385
        },
        {
          "name": "G3",
          "midi": 55,
          "time": 116.20686749999965,
          "velocity": 0.3937007874015748,
          "duration": 0.34482749999999385
        },
        {
          "name": "D2",
          "midi": 38,
          "time": 116.20686749999965,
          "velocity": 0.3937007874015748,
          "duration": 0.34482749999999385
        },
        {
          "name": "D4",
          "midi": 62,
          "time": 116.23560312499964,
          "velocity": 0.3937007874015748,
          "duration": 0.34482749999999385
        },
        {
          "name": "D4",
          "midi": 62,
          "time": 116.55169499999964,
          "velocity": 0.3937007874015748,
          "duration": 0.17241374999998982
        },
        {
          "name": "G4",
          "midi": 67,
          "time": 116.55169499999964,
          "velocity": 0.3937007874015748,
          "duration": 0.6896549999999877
        },
        {
          "name": "G3",
          "midi": 55,
          "time": 116.55169499999964,
          "velocity": 0.3937007874015748,
          "duration": 0.34482749999999385
        },
        {
          "name": "C#2",
          "midi": 37,
          "time": 116.55169499999964,
          "velocity": 0.3937007874015748,
          "duration": 0.34482749999999385
        },
        {
          "name": "D4",
          "midi": 62,
          "time": 116.58043062499964,
          "velocity": 0.3937007874015748,
          "duration": 0.34482749999999385
        },
        {
          "name": "D2",
          "midi": 38,
          "time": 116.89652249999963,
          "velocity": 0.3937007874015748,
          "duration": 0.34482749999999385
        },
        {
          "name": "D4",
          "midi": 62,
          "time": 117.24134999999963,
          "velocity": 0.3937007874015748,
          "duration": 0.17241374999998982
        },
        {
          "name": "F#4",
          "midi": 66,
          "time": 117.24134999999963,
          "velocity": 0.3937007874015748,
          "duration": 0.34482749999999385
        },
        {
          "name": "G3",
          "midi": 55,
          "time": 117.24134999999963,
          "velocity": 0.3937007874015748,
          "duration": 0.34482749999999385
        },
        {
          "name": "D#2",
          "midi": 39,
          "time": 117.24134999999963,
          "velocity": 0.3937007874015748,
          "duration": 0.34482749999999385
        },
        {
          "name": "D4",
          "midi": 62,
          "time": 117.27008562499962,
          "velocity": 0.3937007874015748,
          "duration": 0.34482749999999385
        },
        {
          "name": "D4",
          "midi": 62,
          "time": 117.58617749999962,
          "velocity": 0.3937007874015748,
          "duration": 0.17241374999998982
        },
        {
          "name": "G4",
          "midi": 67,
          "time": 117.58617749999962,
          "velocity": 0.3937007874015748,
          "duration": 0.6896549999999877
        },
        {
          "name": "G3",
          "midi": 55,
          "time": 117.58617749999962,
          "velocity": 0.3937007874015748,
          "duration": 0.34482749999999385
        },
        {
          "name": "D2",
          "midi": 38,
          "time": 117.58617749999962,
          "velocity": 0.3937007874015748,
          "duration": 0.34482749999999385
        },
        {
          "name": "D4",
          "midi": 62,
          "time": 117.61491312499962,
          "velocity": 0.3937007874015748,
          "duration": 0.34482749999999385
        },
        {
          "name": "C#2",
          "midi": 37,
          "time": 117.93100499999962,
          "velocity": 0.3937007874015748,
          "duration": 0.34482749999999385
        },
        {
          "name": "F#4",
          "midi": 66,
          "time": 118.27583249999961,
          "velocity": 0.3937007874015748,
          "duration": 0.17241374999998982
        },
        {
          "name": "A4",
          "midi": 69,
          "time": 118.27583249999961,
          "velocity": 0.3937007874015748,
          "duration": 0.34482749999999385
        },
        {
          "name": "G3",
          "midi": 55,
          "time": 118.27583249999961,
          "velocity": 0.3937007874015748,
          "duration": 0.34482749999999385
        },
        {
          "name": "D2",
          "midi": 38,
          "time": 118.27583249999961,
          "velocity": 0.3937007874015748,
          "duration": 0.34482749999999385
        },
        {
          "name": "D4",
          "midi": 62,
          "time": 118.3045681249996,
          "velocity": 0.3937007874015748,
          "duration": 0.34482749999999385
        },
        {
          "name": "G4",
          "midi": 67,
          "time": 118.6206599999996,
          "velocity": 0.3937007874015748,
          "duration": 0.17241374999998982
        },
        {
          "name": "A#4",
          "midi": 70,
          "time": 118.6206599999996,
          "velocity": 0.3937007874015748,
          "duration": 0.6896549999999877
        },
        {
          "name": "G3",
          "midi": 55,
          "time": 118.6206599999996,
          "velocity": 0.3937007874015748,
          "duration": 0.6896549999999877
        },
        {
          "name": "D#2",
          "midi": 39,
          "time": 118.6206599999996,
          "velocity": 0.3937007874015748,
          "duration": 0.34482749999999385
        },
        {
          "name": "D4",
          "midi": 62,
          "time": 118.6493956249996,
          "velocity": 0.3937007874015748,
          "duration": 0.5172412499999979
        },
        {
          "name": "D2",
          "midi": 38,
          "time": 118.9654874999996,
          "velocity": 0.3937007874015748,
          "duration": 0.34482749999999385
        },
        {
          "name": "F#4",
          "midi": 66,
          "time": 119.31031499999959,
          "velocity": 0.3937007874015748,
          "duration": 0.17241374999998982
        },
        {
          "name": "A4",
          "midi": 69,
          "time": 119.31031499999959,
          "velocity": 0.3937007874015748,
          "duration": 0.34482749999999385
        },
        {
          "name": "G3",
          "midi": 55,
          "time": 119.31031499999959,
          "velocity": 0.3937007874015748,
          "duration": 0.34482749999999385
        },
        {
          "name": "D4",
          "midi": 62,
          "time": 119.33905062499959,
          "velocity": 0.3937007874015748,
          "duration": 0.34482749999999385
        },
        {
          "name": "G4",
          "midi": 67,
          "time": 119.65514249999958,
          "velocity": 0.3937007874015748,
          "duration": 0.17241374999998982
        },
        {
          "name": "A#4",
          "midi": 70,
          "time": 119.65514249999958,
          "velocity": 0.3937007874015748,
          "duration": 0.6896549999999877
        },
        {
          "name": "G3",
          "midi": 55,
          "time": 119.65514249999958,
          "velocity": 0.3937007874015748,
          "duration": 0.34482749999999385
        },
        {
          "name": "D2",
          "midi": 38,
          "time": 119.65514249999958,
          "velocity": 0.3937007874015748,
          "duration": 0.34482749999999385
        },
        {
          "name": "D4",
          "midi": 62,
          "time": 119.68387812499958,
          "velocity": 0.3937007874015748,
          "duration": 0.34482749999999385
        },
        {
          "name": "D#2",
          "midi": 39,
          "time": 119.99996999999958,
          "velocity": 0.3937007874015748,
          "duration": 0.34482749999999385
        },
        {
          "name": "F#4",
          "midi": 66,
          "time": 120.34479749999957,
          "velocity": 0.3937007874015748,
          "duration": 0.17241374999998982
        },
        {
          "name": "C5",
          "midi": 72,
          "time": 120.34479749999957,
          "velocity": 0.3937007874015748,
          "duration": 0.34482749999999385
        },
        {
          "name": "G3",
          "midi": 55,
          "time": 120.34479749999957,
          "velocity": 0.3937007874015748,
          "duration": 0.34482749999999385
        },
        {
          "name": "D2",
          "midi": 38,
          "time": 120.34479749999957,
          "velocity": 0.3937007874015748,
          "duration": 0.34482749999999385
        },
        {
          "name": "D4",
          "midi": 62,
          "time": 120.37353312499957,
          "velocity": 0.3937007874015748,
          "duration": 0.34482749999999385
        },
        {
          "name": "G4",
          "midi": 67,
          "time": 120.68962499999957,
          "velocity": 0.3937007874015748,
          "duration": 0.17241374999998982
        },
        {
          "name": "C#5",
          "midi": 73,
          "time": 120.68962499999957,
          "velocity": 0.3937007874015748,
          "duration": 0.6896549999999877
        },
        {
          "name": "G3",
          "midi": 55,
          "time": 120.68962499999957,
          "velocity": 0.3937007874015748,
          "duration": 0.34482749999999385
        },
        {
          "name": "C#2",
          "midi": 37,
          "time": 120.68962499999957,
          "velocity": 0.3937007874015748,
          "duration": 0.34482749999999385
        },
        {
          "name": "D4",
          "midi": 62,
          "time": 120.71836062499956,
          "velocity": 0.3937007874015748,
          "duration": 0.34482749999999385
        },
        {
          "name": "F#2",
          "midi": 42,
          "time": 121.03445249999956,
          "velocity": 0.3937007874015748,
          "duration": 0.34482749999999385
        },
        {
          "name": "G2",
          "midi": 43,
          "time": 121.37927999999955,
          "velocity": 0.3937007874015748,
          "duration": 0.6896550000000019
        },
        {
          "name": "A#4",
          "midi": 70,
          "time": 121.72410749999955,
          "velocity": 0.3937007874015748,
          "duration": 0.17241375000000403
        },
        {
          "name": "D5",
          "midi": 74,
          "time": 121.72410749999955,
          "velocity": 0.3937007874015748,
          "duration": 0.17241375000000403
        },
        {
          "name": "D#5",
          "midi": 75,
          "time": 121.89652124999955,
          "velocity": 0.3937007874015748,
          "duration": 0.17241375000000403
        },
        {
          "name": "D5",
          "midi": 74,
          "time": 122.06893499999956,
          "velocity": 0.3937007874015748,
          "duration": 0.34482749999999385
        },
        {
          "name": "G3",
          "midi": 55,
          "time": 122.06893499999956,
          "velocity": 0.3937007874015748,
          "duration": 0.6896549999999877
        },
        {
          "name": "D4",
          "midi": 62,
          "time": 122.09767062499955,
          "velocity": 0.3937007874015748,
          "duration": 0.5172412499999979
        },
        {
          "name": "C#5",
          "midi": 73,
          "time": 122.41376249999955,
          "velocity": 0.3937007874015748,
          "duration": 0.34482749999999385
        },
        {
          "name": "G2",
          "midi": 43,
          "time": 122.41376249999955,
          "velocity": 0.3937007874015748,
          "duration": 0.34482749999999385
        },
        {
          "name": "A#4",
          "midi": 70,
          "time": 122.75858999999954,
          "velocity": 0.3937007874015748,
          "duration": 0.17241375000000403
        },
        {
          "name": "C#5",
          "midi": 73,
          "time": 122.75858999999954,
          "velocity": 0.3937007874015748,
          "duration": 0.34482750000000806
        },
        {
          "name": "F#2",
          "midi": 42,
          "time": 122.75858999999954,
          "velocity": 0.3937007874015748,
          "duration": 0.6896550000000019
        },
        {
          "name": "D5",
          "midi": 74,
          "time": 123.10341749999955,
          "velocity": 0.3937007874015748,
          "duration": 0.34482749999999385
        },
        {
          "name": "G4",
          "midi": 67,
          "time": 123.44824499999955,
          "velocity": 0.3937007874015748,
          "duration": 0.17241374999998982
        },
        {
          "name": "A#4",
          "midi": 70,
          "time": 123.44824499999955,
          "velocity": 0.3937007874015748,
          "duration": 0.34482749999999385
        },
        {
          "name": "G3",
          "midi": 55,
          "time": 123.44824499999955,
          "velocity": 0.3937007874015748,
          "duration": 0.6896549999999877
        },
        {
          "name": "D4",
          "midi": 62,
          "time": 123.47698062499954,
          "velocity": 0.3937007874015748,
          "duration": 0.5172412499999979
        },
        {
          "name": "A#4",
          "midi": 70,
          "time": 123.79307249999954,
          "velocity": 0.3937007874015748,
          "duration": 0.17241375000000403
        },
        {
          "name": "A4",
          "midi": 69,
          "time": 123.79307249999954,
          "velocity": 0.3937007874015748,
          "duration": 0.34482749999999385
        },
        {
          "name": "F#2",
          "midi": 42,
          "time": 123.79307249999954,
          "velocity": 0.3937007874015748,
          "duration": 0.34482749999999385
        },
        {
          "name": "F4",
          "midi": 65,
          "time": 124.13789999999953,
          "velocity": 0.3937007874015748,
          "duration": 0.17241375000000403
        },
        {
          "name": "F2",
          "midi": 41,
          "time": 124.13789999999953,
          "velocity": 0.3937007874015748,
          "duration": 0.6896550000000161
        },
        {
          "name": "C5",
          "midi": 72,
          "time": 124.48272749999954,
          "velocity": 0.3937007874015748,
          "duration": 0.17241375000000403
        },
        {
          "name": "C5",
          "midi": 72,
          "time": 124.48272749999954,
          "velocity": 0.3937007874015748,
          "duration": 0.34482750000000806
        },
        {
          "name": "G4",
          "midi": 67,
          "time": 124.82755499999955,
          "velocity": 0.3937007874015748,
          "duration": 0.17241374999998982
        },
        {
          "name": "A#4",
          "midi": 70,
          "time": 124.82755499999955,
          "velocity": 0.3937007874015748,
          "duration": 0.34482749999999385
        },
        {
          "name": "G3",
          "midi": 55,
          "time": 124.82755499999955,
          "velocity": 0.3937007874015748,
          "duration": 0.6896549999999877
        },
        {
          "name": "D4",
          "midi": 62,
          "time": 124.85629062499955,
          "velocity": 0.3937007874015748,
          "duration": 0.5172412499999979
        },
        {
          "name": "E4",
          "midi": 64,
          "time": 125.17238249999954,
          "velocity": 0.3937007874015748,
          "duration": 0.17241375000000403
        },
        {
          "name": "A4",
          "midi": 69,
          "time": 125.17238249999954,
          "velocity": 0.3937007874015748,
          "duration": 0.34482749999999385
        },
        {
          "name": "F2",
          "midi": 41,
          "time": 125.17238249999954,
          "velocity": 0.3937007874015748,
          "duration": 0.34482749999999385
        },
        {
          "name": "A4",
          "midi": 69,
          "time": 125.51720999999954,
          "velocity": 0.3937007874015748,
          "duration": 0.34482749999999385
        },
        {
          "name": "E2",
          "midi": 40,
          "time": 125.51720999999954,
          "velocity": 0.3937007874015748,
          "duration": 0.6896550000000019
        },
        {
          "name": "A#4",
          "midi": 70,
          "time": 125.86203749999953,
          "velocity": 0.3937007874015748,
          "duration": 0.17241375000000403
        },
        {
          "name": "D#4",
          "midi": 63,
          "time": 126.20686499999954,
          "velocity": 0.3937007874015748,
          "duration": 0.17241374999998982
        },
        {
          "name": "A#4",
          "midi": 70,
          "time": 126.20686499999954,
          "velocity": 0.3937007874015748,
          "duration": 0.34482749999999385
        },
        {
          "name": "G3",
          "midi": 55,
          "time": 126.20686499999954,
          "velocity": 0.3937007874015748,
          "duration": 0.6896549999999877
        },
        {
          "name": "D4",
          "midi": 62,
          "time": 126.23560062499953,
          "velocity": 0.3937007874015748,
          "duration": 0.5172412499999979
        },
        {
          "name": "E2",
          "midi": 40,
          "time": 126.55169249999953,
          "velocity": 0.3937007874015748,
          "duration": 0.34482749999999385
        },
        {
          "name": "F#4",
          "midi": 66,
          "time": 126.89651999999953,
          "velocity": 0.3937007874015748,
          "duration": 0.34482749999999385
        },
        {
          "name": "D#2",
          "midi": 39,
          "time": 126.89651999999953,
          "velocity": 0.3937007874015748,
          "duration": 0.34482749999999385
        },
        {
          "name": "G5",
          "midi": 79,
          "time": 127.24134749999952,
          "velocity": 0.3937007874015748,
          "duration": 0.17241375000000403
        },
        {
          "name": "G4",
          "midi": 67,
          "time": 127.24134749999952,
          "velocity": 0.3937007874015748,
          "duration": 0.34482750000000806
        },
        {
          "name": "D2",
          "midi": 38,
          "time": 127.24134749999952,
          "velocity": 0.3937007874015748,
          "duration": 0.34482750000000806
        },
        {
          "name": "F#5",
          "midi": 78,
          "time": 127.58617499999953,
          "velocity": 0.3937007874015748,
          "duration": 0.17241374999998982
        },
        {
          "name": "D4",
          "midi": 62,
          "time": 127.58617499999953,
          "velocity": 0.3937007874015748,
          "duration": 0.34482749999999385
        },
        {
          "name": "G3",
          "midi": 55,
          "time": 127.58617499999953,
          "velocity": 0.3937007874015748,
          "duration": 0.34482749999999385
        },
        {
          "name": "C#2",
          "midi": 37,
          "time": 127.58617499999953,
          "velocity": 0.3937007874015748,
          "duration": 0.34482749999999385
        },
        {
          "name": "D4",
          "midi": 62,
          "time": 127.61491062499952,
          "velocity": 0.3937007874015748,
          "duration": 0.34482749999999385
        },
        {
          "name": "F5",
          "midi": 77,
          "time": 127.93100249999952,
          "velocity": 0.3937007874015748,
          "duration": 0.17241375000000403
        },
        {
          "name": "F#4",
          "midi": 66,
          "time": 127.93100249999952,
          "velocity": 0.3937007874015748,
          "duration": 0.34482750000000806
        },
        {
          "name": "D2",
          "midi": 38,
          "time": 127.93100249999952,
          "velocity": 0.3937007874015748,
          "duration": 0.34482750000000806
        },
        {
          "name": "E5",
          "midi": 76,
          "time": 128.27582999999953,
          "velocity": 0.3937007874015748,
          "duration": 0.17241375000000403
        },
        {
          "name": "G4",
          "midi": 67,
          "time": 128.27582999999953,
          "velocity": 0.3937007874015748,
          "duration": 0.34482750000000806
        },
        {
          "name": "G3",
          "midi": 55,
          "time": 128.27582999999953,
          "velocity": 0.3937007874015748,
          "duration": 0.34482750000000806
        },
        {
          "name": "D#2",
          "midi": 39,
          "time": 128.27582999999953,
          "velocity": 0.3937007874015748,
          "duration": 0.34482750000000806
        },
        {
          "name": "D4",
          "midi": 62,
          "time": 128.30456562499953,
          "velocity": 0.3937007874015748,
          "duration": 0.34482750000000806
        },
        {
          "name": "D#5",
          "midi": 75,
          "time": 128.62065749999954,
          "velocity": 0.3937007874015748,
          "duration": 0.17241375000000403
        },
        {
          "name": "D4",
          "midi": 62,
          "time": 128.62065749999954,
          "velocity": 0.3937007874015748,
          "duration": 0.34482750000000806
        },
        {
          "name": "G3",
          "midi": 55,
          "time": 128.62065749999954,
          "velocity": 0.3937007874015748,
          "duration": 0.34482750000000806
        },
        {
          "name": "D2",
          "midi": 38,
          "time": 128.62065749999954,
          "velocity": 0.3937007874015748,
          "duration": 0.34482750000000806
        },
        {
          "name": "D4",
          "midi": 62,
          "time": 128.64939312499953,
          "velocity": 0.3937007874015748,
          "duration": 0.34482750000000806
        },
        {
          "name": "D5",
          "midi": 74,
          "time": 128.96548499999955,
          "velocity": 0.3937007874015748,
          "duration": 0.17241375000000403
        },
        {
          "name": "A#4",
          "midi": 70,
          "time": 128.96548499999955,
          "velocity": 0.3937007874015748,
          "duration": 0.34482750000000806
        },
        {
          "name": "C#2",
          "midi": 37,
          "time": 128.96548499999955,
          "velocity": 0.3937007874015748,
          "duration": 0.34482750000000806
        },
        {
          "name": "C#5",
          "midi": 73,
          "time": 129.31031249999955,
          "velocity": 0.3937007874015748,
          "duration": 0.17241375000000403
        },
        {
          "name": "A4",
          "midi": 69,
          "time": 129.31031249999955,
          "velocity": 0.3937007874015748,
          "duration": 0.34482750000000806
        },
        {
          "name": "G3",
          "midi": 55,
          "time": 129.31031249999955,
          "velocity": 0.3937007874015748,
          "duration": 0.34482750000000806
        },
        {
          "name": "D2",
          "midi": 38,
          "time": 129.31031249999955,
          "velocity": 0.3937007874015748,
          "duration": 0.34482750000000806
        },
        {
          "name": "D4",
          "midi": 62,
          "time": 129.33904812499955,
          "velocity": 0.3937007874015748,
          "duration": 0.34482750000000806
        },
        {
          "name": "C5",
          "midi": 72,
          "time": 129.65513999999956,
          "velocity": 0.3937007874015748,
          "duration": 0.17241375000000403
        },
        {
          "name": "D4",
          "midi": 62,
          "time": 129.65513999999956,
          "velocity": 0.3937007874015748,
          "duration": 0.34482750000000806
        },
        {
          "name": "G3",
          "midi": 55,
          "time": 129.65513999999956,
          "velocity": 0.3937007874015748,
          "duration": 0.6914509765624643
        },
        {
          "name": "D#2",
          "midi": 39,
          "time": 129.65513999999956,
          "velocity": 0.3937007874015748,
          "duration": 0.34482750000000806
        },
        {
          "name": "D4",
          "midi": 62,
          "time": 129.68387562499956,
          "velocity": 0.3937007874015748,
          "duration": 0.5190372265624887
        },
        {
          "name": "B4",
          "midi": 71,
          "time": 129.88502499999956,
          "velocity": 0.3937007874015748,
          "duration": 0.17241375000000403
        },
        {
          "name": "D5",
          "midi": 74,
          "time": 129.99996749999957,
          "velocity": 0.3937007874015748,
          "duration": 0.3466234765624563
        },
        {
          "name": "D2",
          "midi": 38,
          "time": 129.99996749999957,
          "velocity": 0.3937007874015748,
          "duration": 0.3466234765624563
        },
        {
          "name": "A#4",
          "midi": 70,
          "time": 130.11670597656206,
          "velocity": 0.3937007874015748,
          "duration": 0.1724137499999756
        },
        {
          "name": "A4",
          "midi": 69,
          "time": 130.34659097656203,
          "velocity": 0.3937007874015748,
          "duration": 0.17241375000000403
        },
        {
          "name": "D5",
          "midi": 74,
          "time": 130.34659097656203,
          "velocity": 0.3937007874015748,
          "duration": 0.34482750000000806
        },
        {
          "name": "G3",
          "midi": 55,
          "time": 130.34659097656203,
          "velocity": 0.3937007874015748,
          "duration": 0.6914509765624928
        },
        {
          "name": "D4",
          "midi": 62,
          "time": 130.37532660156202,
          "velocity": 0.3937007874015748,
          "duration": 0.6914509765624928
        },
        {
          "name": "G#4",
          "midi": 68,
          "time": 130.57647597656202,
          "velocity": 0.3937007874015748,
          "duration": 0.17241375000000403
        },
        {
          "name": "D5",
          "midi": 74,
          "time": 130.69141847656203,
          "velocity": 0.3937007874015748,
          "duration": 0.3466234765624847
        },
        {
          "name": "F#2",
          "midi": 42,
          "time": 130.69141847656203,
          "velocity": 0.3937007874015748,
          "duration": 0.3466234765624847
        },
        {
          "name": "F#4",
          "midi": 66,
          "time": 130.80815695312452,
          "velocity": 0.3937007874015748,
          "duration": 0.17241375000000403
        },
        {
          "name": "G4",
          "midi": 67,
          "time": 131.03804195312452,
          "velocity": 0.3937007874015748,
          "duration": 0.17241375000000403
        },
        {
          "name": "G5",
          "midi": 79,
          "time": 131.03804195312452,
          "velocity": 0.3937007874015748,
          "duration": 0.6896550000000161
        },
        {
          "name": "G3",
          "midi": 55,
          "time": 131.03804195312452,
          "velocity": 0.3937007874015748,
          "duration": 0.34482750000000806
        },
        {
          "name": "G2",
          "midi": 43,
          "time": 131.03804195312452,
          "velocity": 0.3937007874015748,
          "duration": 0.6896550000000161
        },
        {
          "name": "D4",
          "midi": 62,
          "time": 131.06677757812452,
          "velocity": 0.3937007874015748,
          "duration": 0.34482750000000806
        },
        {
          "name": "G4",
          "midi": 67,
          "time": 131.72769695312454,
          "velocity": 0.3937007874015748,
          "duration": 0.34482750000000806
        },
        {
          "name": "G1",
          "midi": 31,
          "time": 131.72769695312454,
          "velocity": 0.3937007874015748,
          "duration": 0.6896550000000161
        }
      ],
      "controlChanges": {},
      "id": 0,
      "name": "Grand Piano (Classic)",
      "instrumentNumber": 0,
      "instrument": "acoustic grand piano",
      "instrumentFamily": "piano",
      "channelNumber": 0,
      "isPercussion": false
    }
  ]
}